<?xml version="1.0" encoding="utf-8"?>
<!-- Generator: Adobe Illustrator 28.3.0, SVG Export Plug-In . SVG Version: 6.00 Build 0)  -->
<!DOCTYPE svg PUBLIC "-//W3C//DTD SVG 1.1//EN" "http://www.w3.org/Graphics/SVG/1.1/DTD/svg11.dtd" [
	<!ENTITY ns_extend "http://ns.adobe.com/Extensibility/1.0/">
	<!ENTITY ns_ai "http://ns.adobe.com/AdobeIllustrator/10.0/">
	<!ENTITY ns_graphs "http://ns.adobe.com/Graphs/1.0/">
	<!ENTITY ns_vars "http://ns.adobe.com/Variables/1.0/">
	<!ENTITY ns_imrep "http://ns.adobe.com/ImageReplacement/1.0/">
	<!ENTITY ns_sfw "http://ns.adobe.com/SaveForWeb/1.0/">
	<!ENTITY ns_custom "http://ns.adobe.com/GenericCustomNamespace/1.0/">
	<!ENTITY ns_adobe_xpath "http://ns.adobe.com/XPath/1.0/">
]>
<svg version="1.1" xmlns:x="&ns_extend;" xmlns:i="&ns_ai;" xmlns:graph="&ns_graphs;"
	 xmlns="http://www.w3.org/2000/svg" xmlns:xlink="http://www.w3.org/1999/xlink" x="0px" y="0px" width="1000px" height="350px"
	 viewBox="0 0 1000 350" enable-background="new 0 0 1000 350" xml:space="preserve">
<metadata>
	<sfw  xmlns="&ns_sfw;">
		<slices></slices>
		<sliceSourceBounds  bottomLeftOrigin="true" height="8357.844" width="10589.988" x="-2600.988" y="-958"></sliceSourceBounds>
	</sfw>
</metadata>
<g id="FILL-BACKGROUND">
</g>
<g id="N-DIMENSIONS">
</g>
<g id="N-TEXT">
</g>
<g id="_x32_D_x24_AG-DIAGRAM">
	<g id="POLYLINE_00000161610324304621168730000010481108901792640144_">
		<g>
			<g>
				<polyline fill="none" stroke="#3A54F5" stroke-width="2.5" stroke-linecap="round" stroke-linejoin="round" points="
					304.815,285.076 303.315,285.076 303.315,283.576 				"/>
				
					<line fill="none" stroke="#3A54F5" stroke-width="2.5" stroke-linecap="round" stroke-linejoin="round" stroke-dasharray="3.0146,5.0244" x1="303.315" y1="278.552" x2="303.315" y2="64.011"/>
				<polyline fill="none" stroke="#3A54F5" stroke-width="2.5" stroke-linecap="round" stroke-linejoin="round" points="
					303.315,61.499 303.315,59.999 304.815,59.999 				"/>
				
					<line fill="none" stroke="#3A54F5" stroke-width="2.5" stroke-linecap="round" stroke-linejoin="round" stroke-dasharray="2.9754,4.9591" x1="309.775" y1="59.999" x2="505.657" y2="59.999"/>
				<polyline fill="none" stroke="#3A54F5" stroke-width="2.5" stroke-linecap="round" stroke-linejoin="round" points="
					508.137,59.999 509.637,59.999 509.637,61.499 				"/>
				
					<line fill="none" stroke="#3A54F5" stroke-width="2.5" stroke-linecap="round" stroke-linejoin="round" stroke-dasharray="3.0146,5.0244" x1="509.637" y1="66.523" x2="509.637" y2="281.064"/>
				<polyline fill="none" stroke="#3A54F5" stroke-width="2.5" stroke-linecap="round" stroke-linejoin="round" points="
					509.637,283.576 509.637,285.076 508.137,285.076 				"/>
				
					<line fill="none" stroke="#3A54F5" stroke-width="2.5" stroke-linecap="round" stroke-linejoin="round" stroke-dasharray="2.9754,4.9591" x1="503.178" y1="285.076" x2="307.295" y2="285.076"/>
			</g>
		</g>
	</g>
	<g id="POLYLINE_00000038381369889933128540000017224780517339089799_">
		<g>
			<g>
				<polyline fill="none" stroke="#3A54F5" stroke-width="2.5" stroke-linecap="round" stroke-linejoin="round" points="
					66.188,263.975 64.688,263.975 64.688,262.475 				"/>
				
					<line fill="none" stroke="#3A54F5" stroke-width="2.5" stroke-linecap="round" stroke-linejoin="round" stroke-dasharray="2.9814,4.9689" x1="64.688" y1="257.506" x2="64.688" y2="85.084"/>
				<polyline fill="none" stroke="#3A54F5" stroke-width="2.5" stroke-linecap="round" stroke-linejoin="round" points="
					64.688,82.6 64.688,81.1 66.188,81.1 				"/>
				
					<line fill="none" stroke="#3A54F5" stroke-width="2.5" stroke-linecap="round" stroke-linejoin="round" stroke-dasharray="2.9754,4.9591" x1="71.146" y1="81.1" x2="267.029" y2="81.1"/>
				<polyline fill="none" stroke="#3A54F5" stroke-width="2.5" stroke-linecap="round" stroke-linejoin="round" points="
					269.509,81.1 271.009,81.1 271.009,82.6 				"/>
				
					<line fill="none" stroke="#3A54F5" stroke-width="2.5" stroke-linecap="round" stroke-linejoin="round" stroke-dasharray="2.9814,4.9689" x1="271.009" y1="87.568" x2="271.009" y2="259.991"/>
				<polyline fill="none" stroke="#3A54F5" stroke-width="2.5" stroke-linecap="round" stroke-linejoin="round" points="
					271.009,262.475 271.009,263.975 269.509,263.975 				"/>
				
					<line fill="none" stroke="#3A54F5" stroke-width="2.5" stroke-linecap="round" stroke-linejoin="round" stroke-dasharray="2.9754,4.9591" x1="264.55" y1="263.975" x2="68.667" y2="263.975"/>
			</g>
		</g>
	</g>
	<g id="POLYLINE_00000116206701679478416020000002542875397181131174_">
		<g>
			<g>
				<polyline fill="none" stroke="#3A54F5" stroke-width="2.5" stroke-linecap="round" stroke-linejoin="round" points="
					757.126,283.576 757.126,285.076 758.626,285.076 				"/>
				
					<line fill="none" stroke="#3A54F5" stroke-width="2.5" stroke-linecap="round" stroke-linejoin="round" stroke-dasharray="2.9814,4.9689" x1="763.595" y1="285.076" x2="936.017" y2="285.076"/>
				<polyline fill="none" stroke="#3A54F5" stroke-width="2.5" stroke-linecap="round" stroke-linejoin="round" points="
					938.501,285.076 940.001,285.076 940.001,283.576 				"/>
				
					<line fill="none" stroke="#3A54F5" stroke-width="2.5" stroke-linecap="round" stroke-linejoin="round" stroke-dasharray="3.0146,5.0244" x1="940.001" y1="278.552" x2="940.001" y2="64.011"/>
				<polyline fill="none" stroke="#3A54F5" stroke-width="2.5" stroke-linecap="round" stroke-linejoin="round" points="
					940.001,61.499 940.001,59.999 938.501,59.999 				"/>
				
					<line fill="none" stroke="#3A54F5" stroke-width="2.5" stroke-linecap="round" stroke-linejoin="round" stroke-dasharray="2.9814,4.9689" x1="933.533" y1="59.999" x2="761.11" y2="59.999"/>
				<polyline fill="none" stroke="#3A54F5" stroke-width="2.5" stroke-linecap="round" stroke-linejoin="round" points="
					758.626,59.999 757.126,59.999 757.126,61.499 				"/>
				
					<line fill="none" stroke="#3A54F5" stroke-width="2.5" stroke-linecap="round" stroke-linejoin="round" stroke-dasharray="3.0146,5.0244" x1="757.126" y1="66.523" x2="757.126" y2="281.064"/>
			</g>
		</g>
	</g>
	<g id="POLYLINE_00000062174207166693466040000017746656242577649848_">
		<g>
			<g>
				<path fill="none" stroke="#3A54F5" stroke-width="2.5" stroke-linecap="round" stroke-linejoin="round" d="M541.943,283.581
					c0,0.98,0,1.496,0,1.496h1.5"/>
				
					<line fill="none" stroke="#3A54F5" stroke-width="2.5" stroke-linecap="round" stroke-linejoin="round" stroke-dasharray="2.9814,4.9689" x1="548.413" y1="285.076" x2="720.834" y2="285.076"/>
				<polyline fill="none" stroke="#3A54F5" stroke-width="2.5" stroke-linecap="round" stroke-linejoin="round" points="
					723.319,285.076 724.819,285.076 724.819,283.576 				"/>
				
					<line fill="none" stroke="#3A54F5" stroke-width="2.5" stroke-linecap="round" stroke-linejoin="round" stroke-dasharray="3.0146,5.0244" x1="724.819" y1="278.552" x2="724.819" y2="64.011"/>
				<polyline fill="none" stroke="#3A54F5" stroke-width="2.5" stroke-linecap="round" stroke-linejoin="round" points="
					724.819,61.499 724.819,59.999 723.319,59.999 				"/>
				
					<line fill="none" stroke="#3A54F5" stroke-width="2.5" stroke-linecap="round" stroke-linejoin="round" stroke-dasharray="2.9814,4.9689" x1="718.35" y1="59.999" x2="545.928" y2="59.999"/>
				<path fill="none" stroke="#3A54F5" stroke-width="2.5" stroke-linecap="round" stroke-linejoin="round" d="M543.443,59.999h-1.5
					c0,0,0,0.515,0,1.496"/>
				
					<path fill="none" stroke="#3A54F5" stroke-width="2.5" stroke-linecap="round" stroke-linejoin="round" stroke-dasharray="3.0146,5.0244" d="
					M541.943,66.514c0,33.695,0,187.658,0,214.549"/>
			</g>
		</g>
	</g>
</g>
<g id="_x32_D_x24_AG-DETAILS-DIAGRAM">
	<g id="POLYLINE_00000105393346355086137110000015965211431857339835_">
		<g>
			
				<path fill="none" stroke="#3A54F5" stroke-width="2.5" stroke-linecap="round" stroke-linejoin="round" stroke-dasharray="3.0128,5.0213" d="
				M224.118,193.638c0.032-23.66-12.041-45.969-31.866-58.883c-17.247-11.31-38.943-14.447-58.687-8.485
				c-19.351,5.77-35.502,19.876-43.822,38.276c-8.384,18.37-8.385,39.814,0,58.185c8.499,18.792,25.134,33.069,44.998,38.618
				c19.43,5.5,40.625,2.248,57.511-8.827C212.077,239.608,224.15,217.299,224.118,193.638z"/>
		</g>
	</g>
	<g id="POLYLINE_00000111904713780298758020000011359022810137339011_">
		<g>
			<g>
				
					<line fill="none" stroke="#3A54F5" stroke-width="2.5" stroke-linecap="round" stroke-linejoin="round" x1="130.335" y1="81.1" x2="130.335" y2="82.6"/>
				
					<line fill="none" stroke="#3A54F5" stroke-width="2.5" stroke-linecap="round" stroke-linejoin="round" stroke-dasharray="2.9814,4.9689" x1="130.335" y1="87.568" x2="130.335" y2="259.991"/>
				
					<line fill="none" stroke="#3A54F5" stroke-width="2.5" stroke-linecap="round" stroke-linejoin="round" x1="130.335" y1="262.475" x2="130.335" y2="263.975"/>
			</g>
		</g>
	</g>
	<g id="POLYLINE_00000167368772693765373840000012210649287986466976_">
		<g>
			<g>
				
					<line fill="none" stroke="#3A54F5" stroke-width="2.5" stroke-linecap="round" stroke-linejoin="round" x1="130.335" y1="151.436" x2="131.835" y2="151.436"/>
				
					<line fill="none" stroke="#3A54F5" stroke-width="2.5" stroke-linecap="round" stroke-linejoin="round" stroke-dasharray="2.9292,4.882" x1="136.717" y1="151.436" x2="267.068" y2="151.436"/>
				
					<line fill="none" stroke="#3A54F5" stroke-width="2.5" stroke-linecap="round" stroke-linejoin="round" x1="269.509" y1="151.436" x2="271.009" y2="151.436"/>
			</g>
		</g>
	</g>
</g>
<g id="_x32_D_x24_AG-FIXTURES">
	<g id="POLYLINE_00000074433906155737677160000002390749654253113986_">
		
			<path fill="none" stroke="#3A54F5" stroke-width="2.5" stroke-linecap="round" stroke-linejoin="round" stroke-miterlimit="10" d="
			M346.983,221.309c-0.008,0.175,0.013,30.073-0.006,30.224c-0.008,0.086-0.023,0.172-0.046,0.255
			c-0.052,0.189-0.142,0.369-0.264,0.523c-0.275,0.352-0.719,0.564-1.166,0.556c-0.443-0.003-0.877-0.219-1.145-0.571
			c-0.145-0.187-0.243-0.411-0.283-0.644c-0.011-0.066-0.018-0.134-0.021-0.201c-0.009-0.06,0.005-30.081-0.001-30.141H346.983z"/>
	</g>
	<g id="POLYLINE_00000105392342939660460490000001029748489094227391_">
		
			<path fill="none" stroke="#3A54F5" stroke-width="2.5" stroke-linecap="round" stroke-linejoin="round" stroke-miterlimit="10" d="
			M346.983,246.513c0.721-0.289,1.352-0.799,1.786-1.443c0.436-0.643,0.673-1.419,0.672-2.196c0.001-0.777-0.236-1.552-0.672-2.196
			c-0.434-0.645-1.064-1.154-1.786-1.443"/>
	</g>
	<g id="POLYLINE_00000033366017078552804270000012636015784955168916_">
		
			<path fill="none" stroke="#3A54F5" stroke-width="2.5" stroke-linecap="round" stroke-linejoin="round" stroke-miterlimit="10" d="
			M344.052,239.235c-0.721,0.289-1.352,0.799-1.786,1.443c-0.436,0.643-0.673,1.419-0.672,2.196
			c-0.001,0.777,0.236,1.552,0.672,2.196c0.434,0.645,1.064,1.154,1.786,1.443"/>
	</g>
	<g id="POLYLINE_00000070800646640936338810000007295066647074264984_">
		
			<path fill="none" stroke="#3A54F5" stroke-width="2.5" stroke-linecap="round" stroke-linejoin="round" stroke-miterlimit="10" d="
			M364.442,195.404c0.577,0.029,1.234,0.14,1.578,0.655c0.162,0.235,0.256,0.51,0.336,0.781c0.205,0.701,0.322,1.727,0.436,2.455
			c0.194,1.431,0.511,3.146,0.488,4.585c-0.013,0.395-0.056,0.8-0.205,1.169c-0.035,0.08-0.068,0.163-0.126,0.229
			c-0.061,0.073-0.14,0.13-0.229,0.166c-5.754,0.259-15.535,0.419-21.203,0.44c-5.635-0.021-15.495-0.183-21.203-0.44
			c-0.091-0.037-0.173-0.097-0.235-0.174c-0.055-0.064-0.088-0.144-0.12-0.221c-0.14-0.346-0.186-0.724-0.202-1.094
			c-0.043-1.619,0.394-3.868,0.606-5.488c0.096-0.585,0.176-1.2,0.358-1.766c0.076-0.233,0.167-0.467,0.311-0.666
			c0.35-0.497,0.995-0.6,1.561-0.63"/>
	</g>
	<g id="POLYLINE_00000049213911540994968890000002041451120366240176_">
		
			<path fill="none" stroke="#3A54F5" stroke-width="2.5" stroke-linecap="round" stroke-linejoin="round" stroke-miterlimit="10" d="
			M324.414,213.244c5.706,0.15,15.5,0.417,21.104,0.401c5.569,0.016,15.447-0.252,21.104-0.401"/>
	</g>
	<g id="POLYLINE_00000132062585145931912540000003865252303923408768_">
		
			<path fill="none" stroke="#3A54F5" stroke-width="2.5" stroke-linecap="round" stroke-linejoin="round" stroke-miterlimit="10" d="
			M341.678,217.722c0.003,0.018,0.384,3.075,0.387,3.092c0.005,0.031,0.012,0.062,0.022,0.092c0.034,0.103,0.097,0.196,0.18,0.266
			c0.077,0.065,0.172,0.11,0.272,0.128c0.029,0.005,0.058,0.008,0.087,0.009c0.003,0.002,2.884-0.001,2.892,0
			c0.024-0.002,2.867,0.002,2.892,0c0.029-0.001,0.059-0.004,0.087-0.009c0.1-0.018,0.194-0.063,0.272-0.128
			c0.083-0.07,0.146-0.163,0.18-0.266c0.01-0.03,0.017-0.061,0.022-0.092c0.013-0.02,0.377-3.071,0.387-3.092"/>
	</g>
	<g id="POLYLINE_00000113345806476504833790000004827445066077900705_">
		
			<path fill="none" stroke="#3A54F5" stroke-width="2.5" stroke-linecap="round" stroke-linejoin="round" stroke-miterlimit="10" d="
			M360.514,213.416c-0.665,0.893-1.517,1.644-2.475,2.21c-1.428,0.847-3.055,1.318-4.678,1.625c-2.566,0.473-5.239,0.572-7.844,0.58
			c-2.505-0.007-5.078-0.102-7.549-0.527c-1.689-0.299-3.387-0.761-4.881-1.624c-0.995-0.573-1.88-1.342-2.566-2.264"/>
	</g>
	<g id="POLYLINE_00000012452574548714684270000013791219279709678263_">
		
			<rect x="343.152" y="190.057" fill="none" stroke="#3A54F5" stroke-width="2.5" stroke-linecap="round" stroke-linejoin="round" stroke-miterlimit="10" width="4.732" height="0.879"/>
	</g>
	<g id="POLYLINE_00000021090356653558530240000011677474597304677770_">
		
			<rect x="343.152" y="190.937" fill="none" stroke="#3A54F5" stroke-width="2.5" stroke-linecap="round" stroke-linejoin="round" stroke-miterlimit="10" width="4.732" height="3.224"/>
	</g>
	<g id="POLYLINE_00000162335263807480924410000016627794537517432453_">
		
			<polyline fill="none" stroke="#3A54F5" stroke-width="2.5" stroke-linecap="round" stroke-linejoin="round" stroke-miterlimit="10" points="
			344.042,194.16 344.042,194.747 346.972,194.747 346.972,194.16 		"/>
	</g>
	<g id="POLYLINE_00000098189443074581711520000014716582043584367773_">
		
			<rect x="343.152" y="194.747" fill="none" stroke="#3A54F5" stroke-width="2.5" stroke-linecap="round" stroke-linejoin="round" stroke-miterlimit="10" width="4.732" height="2.345"/>
	</g>
	<g id="POLYLINE_00000014627176452292357370000001128975613133653394_">
		
			<line fill="none" stroke="#3A54F5" stroke-width="2.5" stroke-linecap="round" stroke-linejoin="round" stroke-miterlimit="10" x1="343.152" y1="197.091" x2="343.152" y2="205.875"/>
	</g>
	<g id="POLYLINE_00000017477629991871817490000016078278465525495176_">
		
			<line fill="none" stroke="#3A54F5" stroke-width="2.5" stroke-linecap="round" stroke-linejoin="round" stroke-miterlimit="10" x1="345.518" y1="205.883" x2="345.518" y2="205.883"/>
	</g>
	<g id="POLYLINE_00000016045042433330405540000006524651754605148035_">
		
			<line fill="none" stroke="#3A54F5" stroke-width="2.5" stroke-linecap="round" stroke-linejoin="round" stroke-miterlimit="10" x1="347.884" y1="205.875" x2="347.884" y2="197.091"/>
	</g>
	<g id="POLYLINE_00000129890279021889254130000014150745037757803685_">
		
			<path fill="none" stroke="#3A54F5" stroke-width="2.5" stroke-linecap="round" stroke-linejoin="round" stroke-miterlimit="10" d="
			M366.621,213.245l2.654-0.078c0.015-0.001,0.033-0.001,0.049-0.003c0.071-0.006,0.143-0.021,0.21-0.044
			c0.207-0.07,0.385-0.221,0.488-0.413c0.071-0.132,0.108-0.282,0.106-0.431c-0.056-5.303-0.967-10.689-1.981-15.886
			c-0.054-0.278-0.213-0.535-0.439-0.706c-0.125-0.095-0.269-0.165-0.421-0.204c-0.062-0.016-0.126-0.027-0.19-0.032
			c-0.077-0.047-19.13-0.186-19.213-0.217"/>
	</g>
	<g id="POLYLINE_00000076564485668612268530000005581463561527543171_">
		
			<path fill="none" stroke="#3A54F5" stroke-width="2.5" stroke-linecap="round" stroke-linejoin="round" stroke-miterlimit="10" d="
			M343.152,195.23l-19.132,0.213c-0.031,0.001-0.063,0.002-0.093,0.005c-0.064,0.006-0.128,0.018-0.19,0.034
			c-0.152,0.04-0.296,0.112-0.419,0.209c-0.221,0.171-0.376,0.424-0.429,0.698c-1.014,5.199-1.924,10.582-1.981,15.886
			c-0.002,0.153,0.036,0.307,0.111,0.441c0.106,0.191,0.285,0.34,0.493,0.407c0.08,0.026,0.165,0.041,0.249,0.044
			c0,0,2.654,0.078,2.654,0.078"/>
	</g>
	<g id="POLYLINE_00000147221099066222613630000002741391489617140915_">
		
			<path fill="none" stroke="#3A54F5" stroke-width="2.5" stroke-linecap="round" stroke-linejoin="round" stroke-miterlimit="10" d="
			M82.272,81.1c0.007,13.271,0.563,27.132,1.833,40.342c0.041,0.247,0.164,0.479,0.344,0.652c0.165,0.159,0.377,0.267,0.603,0.308
			c7.159,0.571,14.656,0.893,21.838,0.901c7.181-0.008,14.68-0.329,21.838-0.901c0.23-0.041,0.446-0.153,0.612-0.317
			c0.178-0.174,0.298-0.408,0.337-0.654c1.265-13.205,1.826-27.065,1.831-40.33H82.272z"/>
	</g>
	<g id="POLYLINE_00000121246229688269898450000014674465454907722405_">
		
			<path fill="none" stroke="#3A54F5" stroke-width="2.5" stroke-linecap="round" stroke-linejoin="round" stroke-miterlimit="10" d="
			M85.403,118.474c-0.108-5.854-0.324-12.759-0.041-18.574c0.124-2.794,0.46-5.616,1.187-8.321c0.307-1.182,0.659-2.381,1.173-3.491
			c0.314-0.673,0.692-1.327,1.185-1.884c0.545-0.623,1.261-1.111,2.071-1.306c0.19-0.047,0.387-0.08,0.582-0.099
			c0.109-0.012,0.237-0.017,0.348-0.02c0.039-0.007,14.926,0.004,14.982-0.001c0.073,0.008,14.919-0.007,14.981,0.001
			c0.123,0.003,0.263,0.009,0.386,0.023c0.194,0.021,0.39,0.055,0.579,0.104c0.796,0.2,1.499,0.683,2.036,1.297
			c0.493,0.558,0.872,1.212,1.185,1.884c0.513,1.11,0.867,2.309,1.173,3.491c0.726,2.705,1.064,5.527,1.187,8.321
			c0.284,5.805,0.075,12.739-0.041,18.574"/>
	</g>
	<g id="POLYLINE_00000020381272514972782580000006947451830868794298_">
		
			<path fill="none" stroke="#3A54F5" stroke-width="2.5" stroke-linecap="round" stroke-linejoin="round" stroke-miterlimit="10" d="
			M109.256,88.252c0.002-0.6-0.236-1.196-0.65-1.629c-0.545-0.582-1.393-0.852-2.174-0.692c-0.748,0.143-1.406,0.67-1.708,1.369
			c-0.099,0.226-0.163,0.468-0.188,0.713c-0.007,0.07-0.011,0.143-0.012,0.213c-0.015,0.035,0.011,8.219,0,8.254h4.732V88.252z"/>
	</g>
	<g id="POLYLINE_00000072260038539241441300000017686762820643916691_">
		
			<path fill="none" stroke="#3A54F5" stroke-width="2.5" stroke-linecap="round" stroke-linejoin="round" stroke-miterlimit="10" d="
			M109.256,88.252c0.002-0.579-0.22-1.155-0.609-1.584c-0.512-0.576-1.316-0.87-2.078-0.76c-0.782,0.102-1.49,0.622-1.82,1.338
			c-0.113,0.241-0.186,0.502-0.213,0.767c-0.007,0.07-0.011,0.143-0.012,0.213c-0.013,0.036,0.009,11.693,0,11.727h4.732V88.252z"/>
	</g>
	<g id="POLYLINE_00000029748937997027958400000012113938198604906679_">
		
			<path fill="none" stroke="#3A54F5" stroke-width="2.5" stroke-linecap="round" stroke-linejoin="round" stroke-miterlimit="10" d="
			M104.524,92.819c-3.718,0.145-7.468,0.604-11.096,1.431c-0.661,0.183-1.282,0.513-1.803,0.96
			c-0.699,0.598-1.215,1.406-1.462,2.292c-0.059,0.212-0.105,0.43-0.133,0.648c-0.263,2.427-0.43,5.145-0.535,7.585
			c-0.049,1.298-0.146,4.322-0.138,5.648c0.015,0.264,0.053,0.53,0.113,0.788c0.267,1.174,1.006,2.229,2.019,2.88
			c0.466,0.302,0.987,0.521,1.529,0.642c4.555,0.847,9.241,1.238,13.873,1.241c4.632-0.003,9.318-0.394,13.873-1.241
			c0.559-0.125,1.096-0.353,1.573-0.67c0.99-0.653,1.712-1.695,1.975-2.851c0.059-0.258,0.098-0.524,0.113-0.788
			c0.009-1.335-0.091-4.344-0.138-5.648c-0.107-2.441-0.271-5.158-0.535-7.585c-0.029-0.218-0.074-0.437-0.133-0.648
			c-0.247-0.886-0.763-1.694-1.462-2.292c-0.521-0.447-1.141-0.778-1.803-0.96c-3.629-0.827-7.379-1.286-11.096-1.431"/>
	</g>
	<g id="POLYLINE_00000058578780665825973090000005079888479484375204_">
		
			<rect x="253.425" y="81.1" fill="none" stroke="#3A54F5" stroke-width="2.5" stroke-linecap="round" stroke-linejoin="round" stroke-miterlimit="10" width="7.034" height="1.172"/>
	</g>
	<g id="POLYLINE_00000168807766701169941040000006531190337593603519_">
		
			<rect x="169.02" y="81.1" fill="none" stroke="#3A54F5" stroke-width="2.5" stroke-linecap="round" stroke-linejoin="round" stroke-miterlimit="10" width="7.034" height="1.172"/>
	</g>
	<g id="POLYLINE_00000017517964136625448230000013800314728091588239_">
		
			<path fill="none" stroke="#3A54F5" stroke-width="2.5" stroke-linecap="round" stroke-linejoin="round" stroke-miterlimit="10" d="
			M255.476,82.272c0.001,0.513-0.173,1.024-0.487,1.43c-0.308,0.402-0.751,0.699-1.24,0.831c-0.201,0.055-0.41,0.083-0.618,0.083
			c-0.132-0.004-76.795,0.007-76.915-0.004c-0.164-0.009-0.329-0.036-0.487-0.079c-0.518-0.14-0.984-0.466-1.294-0.904
			c-0.28-0.393-0.434-0.875-0.433-1.358l-2.93,0c-0.001,0.996,0.288,1.99,0.823,2.83c0.544,0.858,1.342,1.553,2.268,1.972
			c0.683,0.311,1.434,0.474,2.184,0.473c0.459-0.017,76.691,0.022,77.079-0.008c0.179-0.01,0.366-0.03,0.543-0.059
			c0.463-0.074,0.919-0.212,1.346-0.406c0.946-0.428,1.759-1.145,2.304-2.029c0.512-0.827,0.789-1.799,0.787-2.773H255.476z"/>
	</g>
	<g id="POLYLINE_00000168096475326875606220000012335457500019881403_">
		
			<rect x="236.849" y="108.557" fill="none" stroke="#3A54F5" stroke-width="2.5" stroke-linecap="round" stroke-linejoin="round" stroke-miterlimit="10" width="2.928" height="1.669"/>
	</g>
	<g id="POLYLINE_00000155840862714123336610000002846163488874155412_">
		
			<rect x="217.836" y="108.557" fill="none" stroke="#3A54F5" stroke-width="2.5" stroke-linecap="round" stroke-linejoin="round" stroke-miterlimit="10" width="2.928" height="1.669"/>
	</g>
	<g id="POLYLINE_00000057108486216321021640000016456734106397576864_">
		
			<path fill="none" stroke="#3A54F5" stroke-width="2.5" stroke-linecap="round" stroke-linejoin="round" stroke-miterlimit="10" d="
			M220.765,110.226c0.006-0.173-0.016-3.259,0.015-3.339c0.016-0.148,0.053-0.295,0.113-0.432c0.203-0.466,0.639-0.829,1.145-0.911
			c0.54-0.103,1.127,0.07,1.652,0.187c0.702,0.151,1.449,0.225,2.165,0.277c0.915,0.058,2.038,0.141,2.951,0.141
			c0.913,0,2.038-0.084,2.951-0.141c0.716-0.053,1.463-0.126,2.165-0.277c0.527-0.118,1.112-0.29,1.652-0.187
			c0.506,0.081,0.942,0.444,1.145,0.911c0.06,0.137,0.096,0.283,0.113,0.432c0.03,0.073,0.01,3.176,0.015,3.339H220.765z"/>
	</g>
	<g id="POLYLINE_00000051358012357264487820000009521412633317288334_">
		
			<path fill="none" stroke="#3A54F5" stroke-width="2.5" stroke-linecap="round" stroke-linejoin="round" stroke-miterlimit="10" d="
			M241.892,101.95c1.029,4.756,2.24,13.029,3.01,17.922"/>
	</g>
	<g id="POLYLINE_00000127763925912678753080000016915734089961285032_">
		
			<path fill="none" stroke="#3A54F5" stroke-width="2.5" stroke-linecap="round" stroke-linejoin="round" stroke-miterlimit="10" d="
			M215.722,101.95c-1.029,4.756-2.24,13.029-3.01,17.922"/>
	</g>
	<g id="POLYLINE_00000028289620889706559230000012691649909418708882_">
		
			<path fill="none" stroke="#3A54F5" stroke-width="2.5" stroke-linecap="round" stroke-linejoin="round" stroke-miterlimit="10" d="
			M228.807,151.436c2.283,0.004,4.561-0.689,6.46-1.956c1.41-0.948,2.636-2.216,3.735-3.504c1.286-1.538,2.382-3.258,3.236-5.072
			c1.362-2.95,2.192-6.144,2.757-9.336c0.237-2.451,0.536-5.129,0.368-7.579c-0.12-2.286-0.477-4.585-1.01-6.812
			c-0.554-2.282-1.317-4.544-2.363-6.648c-0.073-0.127-0.193-0.227-0.332-0.272c-0.948-0.083-11.597-0.003-12.851-0.03
			c-0.009-0.002-12.666,0.002-12.674,0c-0.035,0.001-0.071,0.004-0.106,0.011c-0.057,0.011-0.112,0.031-0.163,0.058
			c-0.1,0.053-0.183,0.135-0.239,0.233c-1.046,2.104-1.809,4.367-2.363,6.648c-0.532,2.226-0.889,4.525-1.01,6.812
			c-0.177,2.446,0.138,5.136,0.368,7.579c0.564,3.192,1.395,6.386,2.757,9.336c0.853,1.814,1.95,3.534,3.236,5.072
			c1.099,1.288,2.325,2.556,3.735,3.504C224.246,150.747,226.523,151.44,228.807,151.436z"/>
	</g>
	<g id="POLYLINE_00000054263171997690113290000018124657363335287707_">
		
			<path fill="none" stroke="#3A54F5" stroke-width="2.5" stroke-linecap="round" stroke-linejoin="round" stroke-miterlimit="10" d="
			M208.248,87.547c-0.248,0.068-0.492,0.164-0.708,0.305c-0.221,0.144-0.415,0.329-0.582,0.532
			c-0.361,0.444-0.618,0.984-0.687,1.555c-0.046,0.374-0.019,0.757,0.029,1.13c0.118,0.86,0.326,1.746,0.534,2.589
			c0.641,2.494,1.43,5.004,2.779,7.214c0.168,0.233,0.402,0.418,0.67,0.522c0.163,0.064,0.336,0.102,0.51,0.118
			c5.896,0.612,12.087,0.924,18.014,0.862c5.935,0.062,12.137-0.25,18.042-0.864c0.164-0.017,0.328-0.054,0.482-0.115
			c0.268-0.104,0.502-0.289,0.67-0.522c1.348-2.21,2.138-4.72,2.779-7.214c0.207-0.843,0.417-1.729,0.534-2.589
			c0.048-0.373,0.076-0.755,0.029-1.13c-0.07-0.58-0.334-1.129-0.705-1.577c-0.169-0.202-0.365-0.385-0.588-0.526
			c-0.21-0.133-0.445-0.224-0.684-0.29"/>
	</g>
	<g id="POLYLINE_00000116952729593424427260000002432355102005279629_">
		
			<rect x="269.836" y="204.189" fill="none" stroke="#3A54F5" stroke-width="2.5" stroke-linecap="round" stroke-linejoin="round" stroke-miterlimit="10" width="1.172" height="7.034"/>
	</g>
	<g id="POLYLINE_00000030469687967208760480000014349627968764641170_">
		
			<rect x="269.836" y="105.717" fill="none" stroke="#3A54F5" stroke-width="2.5" stroke-linecap="round" stroke-linejoin="round" stroke-miterlimit="10" width="1.172" height="7.034"/>
	</g>
	<g id="POLYLINE_00000072242274902046363180000012866789335493796502_">
		
			<path fill="none" stroke="#3A54F5" stroke-width="2.5" stroke-linecap="round" stroke-linejoin="round" stroke-miterlimit="10" d="
			M266.027,173.417c-0.371-0.001-0.74,0.146-1.009,0.403c-0.383,0.357-0.545,0.926-0.409,1.431c0.108,0.422,0.414,0.786,0.811,0.965
			c0.144,0.066,0.3,0.108,0.458,0.124c0.049,0.005,0.1,0.008,0.148,0.008c0,0,3.81,0,3.81,0v-2.93H266.027z"/>
	</g>
	<g id="POLYLINE_00000105404195169231978460000006554244781139356548_">
		
			<rect x="269.836" y="171.365" fill="none" stroke="#3A54F5" stroke-width="2.5" stroke-linecap="round" stroke-linejoin="round" stroke-miterlimit="10" width="1.172" height="7.034"/>
	</g>
	<g id="POLYLINE_00000098921455747194317260000011777678942882702012_">
		
			<path fill="none" stroke="#3A54F5" stroke-width="2.5" stroke-linecap="round" stroke-linejoin="round" stroke-miterlimit="10" d="
			M267.492,176.347c0.002,0.105-0.004,27.557,0.002,27.653c0.007,0.154,0.029,0.309,0.066,0.459
			c0.061,0.245,0.162,0.481,0.297,0.695c0.418,0.669,1.19,1.092,1.979,1.087l0,2.93c-0.996,0.001-1.99-0.288-2.83-0.823
			c-0.858-0.544-1.553-1.342-1.972-2.268c-0.237-0.52-0.388-1.081-0.446-1.65c-0.014-0.138-0.023-0.279-0.026-0.417
			c-0.008-0.023,0.003-90.913-0.001-90.969c-0.001-0.772,0.172-1.545,0.501-2.244c0.44-0.941,1.167-1.745,2.059-2.279
			c0.814-0.49,1.764-0.754,2.715-0.752v2.93c-0.768-0.005-1.521,0.396-1.946,1.037c-0.147,0.218-0.257,0.463-0.323,0.718
			c-0.041,0.158-0.066,0.322-0.073,0.486c-0.011,0.125,0.003,60.352-0.002,60.477"/>
	</g>
	<g id="POLYLINE_00000177477935325517455960000006035293347401419702_">
		
			<path fill="none" stroke="#3A54F5" stroke-width="2.5" stroke-linecap="round" stroke-linejoin="round" stroke-miterlimit="10" d="
			M926.171,218.434c0.018-0.099,0.096-0.775,0.135-0.85c0.041-0.107,0.114-0.202,0.208-0.269c0.11-0.07,0.278-0.145,0.398-0.227
			c0.265-0.168,0.509-0.376,0.71-0.617c0.426-0.505,0.654-1.151,0.733-1.801"/>
	</g>
	<g id="POLYLINE_00000049923104276517175370000005231064664805103034_">
		
			<path fill="none" stroke="#3A54F5" stroke-width="2.5" stroke-linecap="round" stroke-linejoin="round" stroke-miterlimit="10" d="
			M903.535,213.971c0.536,0.889,1.156,1.745,1.9,2.472c0.598,0.587,1.282,1.09,2.02,1.486c1.288,0.694,2.727,1.078,4.163,1.326
			c2.284,0.385,4.66,0.469,6.973,0.512"/>
	</g>
	<g id="POLYLINE_00000046339746505328144890000005334870434060652178_">
		
			<line fill="none" stroke="#3A54F5" stroke-width="2.5" stroke-linecap="round" stroke-linejoin="round" stroke-miterlimit="10" x1="934.584" y1="241.409" x2="936.485" y2="241.409"/>
	</g>
	<g id="POLYLINE_00000084528618106871142340000012868571269454023049_">
		
			<line fill="none" stroke="#3A54F5" stroke-width="2.5" stroke-linecap="round" stroke-linejoin="round" stroke-miterlimit="10" x1="934.525" y1="244.339" x2="936.485" y2="244.339"/>
	</g>
	<g id="POLYLINE_00000071552752119232708580000016621408816519163799_">
		
			<line fill="none" stroke="#3A54F5" stroke-width="2.5" stroke-linecap="round" stroke-linejoin="round" stroke-miterlimit="10" x1="936.485" y1="244.339" x2="936.485" y2="241.409"/>
	</g>
	<g id="POLYLINE_00000179614691822471377800000018169571542889640612_">
		
			<path fill="none" stroke="#3A54F5" stroke-width="2.5" stroke-linecap="round" stroke-linejoin="round" stroke-miterlimit="10" d="
			M940.001,214.689c-13.172-0.07-27.959,0.145-41.03-1.104c-0.23-0.075-0.435-0.224-0.578-0.419
			c-0.116-0.158-0.192-0.345-0.217-0.54c-0.14-1.746-0.291-3.803-0.342-5.552c0.004-0.147,0.026-0.294,0.067-0.435
			c0.137-0.49,0.499-0.911,0.963-1.119c0.168-0.077,0.35-0.127,0.533-0.147c0.909-0.034,4.039,0.011,4.897-0.025
			c4.429-0.148,8.904-0.893,13.23-1.829c3.277-0.726,6.669-1.647,9.841-2.745c2.157-0.756,4.328-1.615,6.338-2.709
			c1.064-0.593,2.126-1.251,2.976-2.134c0.164-0.166,0.296-0.377,0.496-0.505c0.135-0.091,0.29-0.153,0.45-0.181
			c0.052-0.009,0.109-0.015,0.162-0.017c0,0,0.02-0.001,0.02-0.001s0.02,0,0.02,0s2.173,0,2.173,0S940.001,214.689,940.001,214.689z
			"/>
	</g>
	<g id="POLYLINE_00000127726212452786612690000013866522716464893070_">
		
			<line fill="none" stroke="#3A54F5" stroke-width="2.5" stroke-linecap="round" stroke-linejoin="round" stroke-miterlimit="10" x1="936.485" y1="241.409" x2="939.169" y2="238.951"/>
	</g>
	<g id="POLYLINE_00000003790549239188158210000016063072166125920688_">
		
			<line fill="none" stroke="#3A54F5" stroke-width="2.5" stroke-linecap="round" stroke-linejoin="round" stroke-miterlimit="10" x1="936.485" y1="244.339" x2="939.169" y2="246.797"/>
	</g>
	<g id="POLYLINE_00000018206641965111633060000011021484121805645729_">
		
			<rect x="939.169" y="238.951" fill="none" stroke="#3A54F5" stroke-width="2.5" stroke-linecap="round" stroke-linejoin="round" stroke-miterlimit="10" width="0.833" height="7.846"/>
	</g>
	<g id="POLYLINE_00000128481778665534220080000007446158620111286704_">
		
			<path fill="none" stroke="#3A54F5" stroke-width="2.5" stroke-linecap="round" stroke-linejoin="round" stroke-miterlimit="10" d="
			M935.215,192.617l-1.78,1.543h-2.952v-3.224h-5.861v-0.879c2.621,0,7.997,0,10.594,0V192.617z"/>
	</g>
	<g id="POLYLINE_00000099632001471088852460000005211065292067093425_">
		
			<polyline fill="none" stroke="#3A54F5" stroke-width="2.5" stroke-linecap="round" stroke-linejoin="round" stroke-miterlimit="10" points="
			934.325,193.389 934.325,194.747 931.394,194.747 931.394,194.16 		"/>
	</g>
	<g id="POLYLINE_00000109749899535259133620000000131885514202037667_">
		
			<path fill="none" stroke="#3A54F5" stroke-width="2.5" stroke-linecap="round" stroke-linejoin="round" stroke-miterlimit="10" d="
			M930.483,199.59v-2.499h-9.335v-2.345c3.129,0,11.041,0,14.067,0v2.397"/>
	</g>
	<g id="POLYLINE_00000091709458118353714430000000892968562029350542_">
		
			<rect x="938.829" y="201.844" fill="none" stroke="#3A54F5" stroke-width="2.5" stroke-linecap="round" stroke-linejoin="round" stroke-miterlimit="10" width="1.172" height="7.034"/>
	</g>
	<g id="POLYLINE_00000175318860933423040850000016082233990931570103_">
		
			<path fill="none" stroke="#3A54F5" stroke-width="2.5" stroke-linecap="round" stroke-linejoin="round" stroke-miterlimit="10" d="
			M935.019,203.896c-0.491-0.003-0.972,0.26-1.234,0.675c-0.206,0.319-0.279,0.72-0.2,1.092c0.077,0.372,0.305,0.709,0.622,0.919
			c0.182,0.121,0.393,0.201,0.61,0.231c0.057,0.008,0.119,0.013,0.176,0.014c0.037,0.012,3.8-0.008,3.835,0v-2.93H935.019z"/>
	</g>
	<g id="POLYLINE_00000046308321394469503360000006436137039169810856_">
		
			<path fill="none" stroke="#3A54F5" stroke-width="2.5" stroke-linecap="round" stroke-linejoin="round" stroke-miterlimit="10" d="
			M933.151,251.976v-2.337v4.957c-0.096,0.267-0.22,0.537-0.437,0.727c-0.456,2.251-0.68,4.566-0.665,6.863
			c0.007,1.629,0.13,3.291,0.47,4.886c0.211,0.753,0.311,1.541,0.353,2.321v12.775c0,0.049,0.001,0.116,0.004,0.165
			c0.009,0.2,0.03,0.403,0.08,0.597c0.017,0.067,0.04,0.134,0.068,0.197c0.071,0.157,0.166,0.317,0.217,0.483
			c0.12,0.382,0.168,0.788,0.167,1.188c-0.003,0.045-0.008,0.092-0.023,0.135c-0.011,0.033-0.027,0.064-0.051,0.089
			c-0.023,0.024-0.052,0.041-0.084,0.049c-0.094,0.022-54.78,0.001-54.873,0.005c-0.067-0.004-0.135-0.018-0.195-0.048
			c-0.072-0.034-0.133-0.09-0.175-0.158c-0.081-0.133-0.101-0.292-0.103-0.445c0.019-0.7,2.382-15.86,2.374-16.245
			c0.06-0.612,0.085-1.24,0.029-1.853c-0.067-0.828-0.356-1.636-0.847-2.307c-1.004-1.38-2.575-2.273-3.915-3.286
			c-1.052-0.782-1.992-1.72-2.805-2.746c-1.456-1.822-2.58-4.02-2.698-6.384c-0.003-0.21,0.021-0.441,0.162-0.608
			c0.115-0.138,0.302-0.188,0.477-0.186"/>
	</g>
	<g id="POLYLINE_00000079487642937139271680000009144750064903584910_">
		
			<path fill="none" stroke="#3A54F5" stroke-width="2.5" stroke-linecap="round" stroke-linejoin="round" stroke-miterlimit="10" d="
			M918.934,222.311c0.014,6.255,0.208,19.296,0.347,25.615c0.009,0.177,0.029,0.358,0.066,0.531c0.043,0.2,0.111,0.397,0.217,0.572
			c0.116,0.194,0.286,0.357,0.489,0.458c0.224,0.113,0.478,0.153,0.727,0.153v1.169h-11.889"/>
	</g>
	<g id="POLYLINE_00000173140998654333766790000018401691709858483118_">
		
			<path fill="none" stroke="#3A54F5" stroke-width="2.5" stroke-linecap="round" stroke-linejoin="round" stroke-miterlimit="10" d="
			M934.963,222.303l-0.511,25.682c0,0.063-0.002,0.138-0.006,0.2c-0.012,0.202-0.04,0.406-0.1,0.599
			c-0.055,0.178-0.14,0.351-0.265,0.491c-0.122,0.138-0.283,0.239-0.458,0.295c-0.12,0.039-0.247,0.059-0.374,0.066
			c-0.032,0.002-0.068,0.003-0.099,0.003c0,0-12.37,0-12.37,0h12.37"/>
	</g>
	<g id="POLYLINE_00000105404902918859114160000016495883431557229243_">
		
			<path fill="none" stroke="#3A54F5" stroke-width="2.5" stroke-linecap="round" stroke-linejoin="round" stroke-miterlimit="10" d="
			M870.053,248.057c0.067,0.179,0.205,0.309,0.391,0.356c0.067,0.018,0.138,0.027,0.207,0.028
			c0.164-0.006,38.807,0.014,38.962-0.007c0.103-0.012,0.206-0.039,0.291-0.099c0.066-0.046,0.116-0.112,0.145-0.186
			c0.049-0.127,0.044-0.268,0.023-0.401c-0.022-0.137-0.063-0.273-0.11-0.404c-0.014-0.033-0.028-0.078-0.043-0.111
			c0,0-0.721-1.726-0.721-1.726c-0.055-0.13-0.128-0.254-0.227-0.356c-0.18-0.191-0.444-0.279-0.702-0.282
			c-12.105,0.081-25.116,0.441-37.146,1.567c-0.217,0.031-0.433,0.096-0.611,0.228c-0.205,0.147-0.373,0.351-0.455,0.591
			C869.971,247.514,869.986,247.797,870.053,248.057z"/>
	</g>
	<g id="POLYLINE_00000132779942392241478720000013931626433141807757_">
		
			<path fill="none" stroke="#3A54F5" stroke-width="2.5" stroke-linecap="round" stroke-linejoin="round" stroke-miterlimit="10" d="
			M910.456,249.792c-0.003-0.183,0.018-0.453-0.043-0.628c-0.061-0.201-0.186-0.383-0.353-0.511
			c-0.139-0.107-0.306-0.177-0.479-0.201c-0.237-0.025-38.753-0.009-39.006-0.004c-0.145,0.015-0.288,0.062-0.413,0.137
			c-0.294,0.171-0.488,0.498-0.497,0.838c0.004,0.196-0.021,0.476,0.043,0.663c0.062,0.207,0.193,0.393,0.367,0.522
			c0.136,0.101,0.298,0.167,0.466,0.19c0.046,0.006,0.093,0.01,0.14,0.01c0.181-0.011,38.728,0.017,38.883-0.007
			c0.151-0.018,0.298-0.071,0.425-0.153C910.276,250.466,910.459,250.133,910.456,249.792z"/>
	</g>
	<g id="POLYLINE_00000070835405255129786920000014923892017023747228_">
		
			<path fill="none" stroke="#3A54F5" stroke-width="2.5" stroke-linecap="round" stroke-linejoin="round" stroke-miterlimit="10" d="
			M935.296,221.687c0,0,0-2.618,0-2.618c-0.001-0.02-0.001-0.044-0.003-0.064c-0.007-0.076-0.025-0.152-0.055-0.223
			c-0.105-0.255-0.361-0.436-0.636-0.45c-4.875,0.022-10.608,0.016-15.417,0.61c-0.168,0.033-0.323,0.127-0.43,0.261
			c-0.078,0.096-0.131,0.213-0.152,0.335c-0.006,0.037-0.01,0.077-0.011,0.115c-0.001,0.012,0,2.02,0,2.033
			c0,0.153,0.049,0.306,0.138,0.43c0.135,0.191,0.366,0.31,0.6,0.309c0.073-0.007,15.216,0.007,15.279-0.002
			c0.085-0.006,0.169-0.027,0.246-0.061C935.118,222.25,935.299,221.974,935.296,221.687z"/>
	</g>
	<g id="POLYLINE_00000071558494879574870050000002400989291429896582_">
		
			<path fill="none" stroke="#3A54F5" stroke-width="2.5" stroke-linecap="round" stroke-linejoin="round" stroke-miterlimit="10" d="
			M568.966,204.407c0.226-0.265,0.549-0.444,0.893-0.495c0.162-0.048,98.564-0.001,98.765-0.015
			c0.347,0.017,0.686,0.163,0.937,0.404c0.292,0.276,0.46,0.676,0.453,1.078c-0.003,0.402-0.181,0.798-0.48,1.067
			c-0.208,0.189-0.471,0.317-0.749,0.362c0.019,0.072-84.62-0.012-84.7,0.019"/>
	</g>
	<g id="POLYLINE_00000021811996318097592370000016611313650805605504_">
		
			<path fill="none" stroke="#3A54F5" stroke-width="2.5" stroke-linecap="round" stroke-linejoin="round" stroke-miterlimit="10" d="
			M566.828,204.017c0.25-0.607,0.675-1.141,1.21-1.521c0.559-0.399,1.237-0.628,1.924-0.65c0.707-0.024,1.42,0.172,2.015,0.555
			c0.564,0.361,1.02,0.886,1.298,1.495"/>
	</g>
	<g id="POLYLINE_00000019647597404428415340000004711608171817835938_">
		
			<path fill="none" stroke="#3A54F5" stroke-width="2.5" stroke-linecap="round" stroke-linejoin="round" stroke-miterlimit="10" d="
			M557.954,222.425h-10.566c-0.025,0-0.052-0.001-0.076-0.004c-0.101-0.01-0.201-0.042-0.289-0.093
			c-0.144-0.082-0.259-0.214-0.32-0.368c-0.028-0.071-0.046-0.147-0.051-0.223c-0.001-0.016-0.002-0.035-0.002-0.051
			c0,0,0-2.618,0-2.618c0-0.016,0.001-0.035,0.002-0.051c0.01-0.149,0.067-0.295,0.161-0.412c0.102-0.127,0.246-0.218,0.405-0.256
			c0.058-0.014,0.118-0.021,0.178-0.02c1.726,0.016,6.723,0.032,8.379,0.103"/>
	</g>
	<g id="POLYLINE_00000086668523578937892070000014782763938580147388_">
		
			<path fill="none" stroke="#3A54F5" stroke-width="2.5" stroke-linecap="round" stroke-linejoin="round" stroke-miterlimit="10" d="
			M563.354,219.766c0,0,0,1.921,0,1.921c0,0.016-0.001,0.035-0.002,0.051c-0.004,0.063-0.017,0.127-0.038,0.187
			c-0.069,0.206-0.234,0.377-0.437,0.453c-0.063,0.024-0.131,0.039-0.198,0.045c-0.02,0.002-0.043,0.003-0.064,0.003
			c0,0-1.731,0-1.731,0"/>
	</g>
	<g id="POLYLINE_00000157275416822595521650000006635936120860980118_">
		
			<path fill="none" stroke="#3A54F5" stroke-width="2.5" stroke-linecap="round" stroke-linejoin="round" stroke-miterlimit="10" d="
			M547.42,244.339l0.073,3.647c0,0.063,0.002,0.138,0.006,0.2c0.01,0.169,0.031,0.34,0.073,0.504
			c0.071,0.284,0.214,0.564,0.458,0.736c0.151,0.108,0.331,0.17,0.514,0.196c0.106,0.035,2.269,0.01,2.427,0.017"/>
	</g>
	<g id="POLYLINE_00000110451908944030487750000007572270484304000164_">
		
			<line fill="none" stroke="#3A54F5" stroke-width="2.5" stroke-linecap="round" stroke-linejoin="round" stroke-miterlimit="10" x1="546.982" y1="222.303" x2="547.361" y2="241.409"/>
	</g>
	<g id="POLYLINE_00000003066908125974511980000009264733319687889311_">
		
			<line fill="none" stroke="#3A54F5" stroke-width="2.5" stroke-linecap="round" stroke-linejoin="round" stroke-miterlimit="10" x1="550.971" y1="249.639" x2="548.794" y2="249.639"/>
	</g>
	<g id="POLYLINE_00000167372792501298075980000013843325265648393915_">
		
			<path fill="none" stroke="#3A54F5" stroke-width="2.5" stroke-linecap="round" stroke-linejoin="round" stroke-miterlimit="10" d="
			M560.515,249.639h0.649H560.515z"/>
	</g>
	<g id="POLYLINE_00000095332988517418700160000000530398072598878636_">
		
			<path fill="none" stroke="#3A54F5" stroke-width="2.5" stroke-linecap="round" stroke-linejoin="round" stroke-miterlimit="10" d="
			M571.489,249.792c0.003-0.183-0.018-0.453,0.043-0.628c0.061-0.201,0.186-0.383,0.353-0.511c0.139-0.107,0.306-0.177,0.479-0.201
			c0.237-0.025,38.753-0.009,39.006-0.004c0.145,0.015,0.288,0.062,0.413,0.137c0.294,0.171,0.488,0.498,0.497,0.838
			c-0.004,0.196,0.021,0.476-0.043,0.663c-0.062,0.207-0.193,0.393-0.367,0.522c-0.136,0.101-0.298,0.167-0.466,0.19
			c-0.046,0.006-0.093,0.01-0.14,0.01c-0.181-0.011-38.728,0.017-38.883-0.007c-0.151-0.018-0.298-0.071-0.425-0.153
			C571.669,250.466,571.486,250.133,571.489,249.792z"/>
	</g>
	<g id="POLYLINE_00000167355401416843862520000014865795199232684187_">
		
			<path fill="none" stroke="#3A54F5" stroke-width="2.5" stroke-linecap="round" stroke-linejoin="round" stroke-miterlimit="10" d="
			M611.892,248.057c-0.067,0.179-0.205,0.309-0.391,0.356c-0.067,0.018-0.138,0.027-0.207,0.028
			c-0.164-0.006-38.807,0.014-38.962-0.007c-0.103-0.012-0.206-0.039-0.291-0.099c-0.066-0.046-0.116-0.112-0.145-0.186
			c-0.049-0.127-0.044-0.268-0.023-0.401c0.022-0.137,0.063-0.273,0.11-0.404c0.014-0.033,0.028-0.078,0.043-0.111
			c0,0,0.721-1.726,0.721-1.726c0.054-0.13,0.128-0.254,0.227-0.356c0.18-0.191,0.444-0.279,0.702-0.282
			c12.105,0.081,25.116,0.441,37.146,1.567c0.217,0.031,0.433,0.096,0.611,0.228c0.205,0.147,0.373,0.351,0.455,0.591
			C611.974,247.514,611.959,247.797,611.892,248.057z"/>
	</g>
	<g id="POLYLINE_00000089563676063353761190000005326261947574058389_">
		
			<path fill="none" stroke="#3A54F5" stroke-width="2.5" stroke-linecap="round" stroke-linejoin="round" stroke-miterlimit="10" d="
			M563.011,222.311c-0.014,6.255-0.208,19.296-0.347,25.615c-0.009,0.177-0.029,0.358-0.066,0.531
			c-0.043,0.2-0.111,0.397-0.217,0.572c-0.116,0.194-0.286,0.357-0.489,0.458c-0.224,0.113-0.478,0.153-0.727,0.153v1.169h11.889"/>
	</g>
	<g id="POLYLINE_00000026132824142847643290000009111786124416315049_">
		
			<path fill="none" stroke="#3A54F5" stroke-width="2.5" stroke-linecap="round" stroke-linejoin="round" stroke-miterlimit="10" d="
			M548.794,251.976v-2.337v4.957c0.096,0.267,0.22,0.537,0.437,0.727c0.456,2.251,0.68,4.566,0.665,6.863
			c-0.007,1.629-0.13,3.291-0.47,4.886c-0.211,0.753-0.311,1.541-0.353,2.321v12.775c0,0.049-0.001,0.116-0.003,0.165
			c-0.009,0.2-0.03,0.403-0.08,0.597c-0.017,0.067-0.04,0.134-0.068,0.197c-0.071,0.157-0.166,0.317-0.217,0.483
			c-0.12,0.382-0.168,0.788-0.167,1.188c0.003,0.045,0.008,0.092,0.023,0.135c0.011,0.033,0.027,0.064,0.051,0.089
			c0.023,0.024,0.052,0.041,0.084,0.049c0.094,0.022,54.78,0.001,54.873,0.005c0.067-0.004,0.135-0.018,0.195-0.048
			c0.072-0.034,0.133-0.09,0.175-0.158c0.081-0.133,0.101-0.292,0.103-0.445c-0.019-0.7-2.382-15.86-2.374-16.245
			c-0.06-0.612-0.085-1.24-0.029-1.853c0.067-0.828,0.356-1.636,0.847-2.307c1.004-1.38,2.575-2.273,3.915-3.286
			c1.052-0.782,1.992-1.72,2.805-2.746c1.456-1.822,2.58-4.02,2.698-6.384c0.003-0.21-0.021-0.441-0.162-0.608
			c-0.115-0.138-0.302-0.188-0.477-0.186"/>
	</g>
	<g id="POLYLINE_00000004522128788021931230000004442350485217907645_">
		
			<path fill="none" stroke="#3A54F5" stroke-width="2.5" stroke-linecap="round" stroke-linejoin="round" stroke-miterlimit="10" d="
			M634.261,191.261c0-0.036,0.001-42.14,0-42.173c0-0.078,0.007-0.157,0.019-0.234c0.045-0.277,0.172-0.541,0.362-0.749
			c0.277-0.307,0.688-0.487,1.102-0.48c0.414,0.003,0.821,0.192,1.09,0.506c0.152,0.176,0.262,0.388,0.316,0.614
			c0.023,0.094,0.036,0.191,0.04,0.288c0.005,0.137-0.002,42.126,0.001,42.28c-0.002,0.109-0.015,0.218-0.041,0.324
			c-0.088,0.367-0.324,0.695-0.644,0.895c-0.298,0.189-0.666,0.264-1.014,0.207c-0.349-0.055-0.674-0.242-0.898-0.515
			C634.373,191.957,634.252,191.609,634.261,191.261z"/>
	</g>
	<g id="POLYLINE_00000015337571216921054220000000306052163906368191_">
		
			<path fill="none" stroke="#3A54F5" stroke-width="2.5" stroke-linecap="round" stroke-linejoin="round" stroke-miterlimit="10" d="
			M637.191,188.097c0.716,0.326,1.315,0.901,1.67,1.604c0.374,0.732,0.478,1.597,0.288,2.396c-0.178,0.767-0.624,1.468-1.243,1.955
			c-0.615,0.488-1.396,0.76-2.181,0.758c-0.785,0.002-1.567-0.27-2.181-0.758c-0.619-0.487-1.064-1.188-1.243-1.955
			c-0.19-0.8-0.086-1.665,0.288-2.396c0.355-0.703,0.954-1.278,1.67-1.604"/>
	</g>
	<g id="POLYLINE_00000173854658648276019660000008845432120617565590_">
		
			<path fill="none" stroke="#3A54F5" stroke-width="2.5" stroke-linecap="round" stroke-linejoin="round" stroke-miterlimit="10" d="
			M634.261,152.289c-0.716-0.326-1.315-0.901-1.67-1.604c-0.374-0.732-0.478-1.597-0.288-2.396c0.178-0.767,0.624-1.468,1.243-1.955
			c0.615-0.488,1.396-0.76,2.181-0.758c0.785-0.002,1.567,0.27,2.181,0.758c0.619,0.487,1.064,1.188,1.243,1.955
			c0.19,0.8,0.086,1.665-0.288,2.396c-0.355,0.703-0.954,1.278-1.67,1.604"/>
	</g>
	<g id="POLYLINE_00000042003473697228445760000006015565981961011603_">
		
			<path fill="none" stroke="#3A54F5" stroke-width="2.5" stroke-linecap="round" stroke-linejoin="round" stroke-miterlimit="10" d="
			M665.353,203.896c0.326-0.716,0.901-1.315,1.604-1.67c0.732-0.374,1.597-0.478,2.396-0.288c0.767,0.178,1.468,0.624,1.955,1.243
			c0.488,0.615,0.76,1.396,0.758,2.181c0.002,0.785-0.27,1.567-0.758,2.181c-0.487,0.619-1.188,1.064-1.955,1.243
			c-0.8,0.19-1.665,0.086-2.396-0.288c-0.703-0.355-1.278-0.954-1.604-1.67"/>
	</g>
	<g id="POLYLINE_00000119802286148673699990000012398517026924936872_">
		
			<path fill="none" stroke="#3A54F5" stroke-width="2.5" stroke-linecap="round" stroke-linejoin="round" stroke-miterlimit="10" d="
			M557.954,221.309c-0.008,0.151,0.01,26.4-0.003,26.531c-0.008,0.152-0.032,0.307-0.071,0.454c-0.062,0.234-0.164,0.46-0.299,0.661
			c-0.41,0.622-1.15,1.005-1.894,0.98c-0.869-0.016-1.676-0.578-1.994-1.386c-0.081-0.201-0.132-0.416-0.151-0.632
			c-0.022-0.325,0.004-1.31-0.015-1.632c-0.067-1.391-0.73-2.739-1.792-3.641c-0.651-0.558-1.446-0.949-2.285-1.125
			c-0.257-0.054-0.529-0.089-0.791-0.103c-0.096-0.029-3.033,0.007-3.196-0.007"/>
	</g>
	<g id="POLYLINE_00000062878762113766389790000004491376840186305970_">
		
			<path fill="none" stroke="#3A54F5" stroke-width="2.5" stroke-linecap="round" stroke-linejoin="round" stroke-miterlimit="10" d="
			M560.885,221.309v26.416c-0.003,0.045,0.001,0.134-0.003,0.178c-0.005,0.143-0.017,0.303-0.035,0.445
			c-0.043,0.352-0.124,0.706-0.239,1.042c-0.231,0.675-0.605,1.303-1.09,1.826c-1.836,1.992-4.937,2.208-7.03,0.489
			c-1.064-0.864-1.753-2.168-1.867-3.534c-0.046-0.404-0.001-1.361-0.025-1.773c-0.012-0.177-0.046-0.355-0.101-0.523
			c-0.143-0.449-0.435-0.848-0.818-1.122c-0.268-0.192-0.582-0.324-0.907-0.38c-0.147-0.062-3.071-0.023-3.31-0.033"/>
	</g>
	<g id="POLYLINE_00000124867576156604724100000002050648973679516593_">
		
			<line fill="none" stroke="#3A54F5" stroke-width="2.5" stroke-linecap="round" stroke-linejoin="round" stroke-miterlimit="10" x1="545.46" y1="244.339" x2="545.46" y2="241.409"/>
	</g>
	<g id="POLYLINE_00000043419221384145081560000004820543871825858970_">
		
			<path fill="none" stroke="#3A54F5" stroke-width="2.5" stroke-linecap="round" stroke-linejoin="round" stroke-miterlimit="10" d="
			M541.944,214.689c13.172-0.07,27.959,0.145,41.03-1.104c0.23-0.075,0.435-0.224,0.578-0.419c0.116-0.158,0.192-0.345,0.217-0.54
			c0.14-1.746,0.291-3.803,0.342-5.552c-0.004-0.147-0.026-0.294-0.067-0.435c-0.137-0.49-0.499-0.911-0.963-1.119
			c-0.168-0.077-0.35-0.127-0.533-0.147c-0.909-0.034-4.039,0.011-4.897-0.025c-4.429-0.148-8.904-0.893-13.23-1.829
			c-3.277-0.726-6.669-1.647-9.841-2.745c-2.157-0.756-4.328-1.615-6.338-2.709c-1.064-0.593-2.126-1.251-2.976-2.134
			c-0.164-0.166-0.296-0.377-0.496-0.505c-0.135-0.091-0.29-0.153-0.45-0.181c-0.052-0.009-0.109-0.015-0.162-0.017
			c0,0-0.02-0.001-0.02-0.001s-0.02,0-0.02,0h-2.173C541.944,195.226,541.944,214.689,541.944,214.689z"/>
	</g>
	<g id="POLYLINE_00000150806158063602858170000017500919716130138796_">
		
			<line fill="none" stroke="#3A54F5" stroke-width="2.5" stroke-linecap="round" stroke-linejoin="round" stroke-miterlimit="10" x1="545.46" y1="241.409" x2="542.776" y2="238.951"/>
	</g>
	<g id="POLYLINE_00000183955505290333823720000003411677148351438985_">
		
			<line fill="none" stroke="#3A54F5" stroke-width="2.5" stroke-linecap="round" stroke-linejoin="round" stroke-miterlimit="10" x1="545.46" y1="244.339" x2="542.776" y2="246.797"/>
	</g>
	<g id="POLYLINE_00000155840009241048380600000017551634103666994610_">
		
			<rect x="541.944" y="238.951" fill="none" stroke="#3A54F5" stroke-width="2.5" stroke-linecap="round" stroke-linejoin="round" stroke-miterlimit="10" width="0.833" height="7.846"/>
	</g>
	<g id="POLYLINE_00000118393356238453389630000011290111784096779955_">
		
			<path fill="none" stroke="#3A54F5" stroke-width="2.5" stroke-linecap="round" stroke-linejoin="round" stroke-miterlimit="10" d="
			M578.41,213.971c-0.852,1.427-1.947,2.75-3.369,3.636c-1.108,0.703-2.368,1.143-3.643,1.435c-1.832,0.415-3.753,0.565-5.627,0.655
			c-0.739,0.036-1.726,0.052-2.464,0.074c-0.073,0.01-0.145,0.034-0.21,0.071c-0.106,0.06-0.192,0.153-0.243,0.264
			c-0.061,0.111-0.099,0.573-0.124,0.699c-0.029,0.225-0.2,0.421-0.419,0.482c-0.049,0.014-0.1,0.022-0.151,0.023
			c-0.01,0.011-5.46-0.008-5.471,0c-0.02,0-0.042-0.001-0.061-0.003c-0.208-0.02-0.398-0.161-0.478-0.354
			c-0.017-0.041-0.03-0.084-0.038-0.127c-0.02-0.016-0.425-3.095-0.44-3.114c-0.009-0.063-0.029-0.126-0.057-0.183
			c-0.044-0.087-0.111-0.164-0.192-0.219c-0.47-0.248-0.826-0.487-1.161-0.914c-0.388-0.493-0.596-1.107-0.672-1.725"/>
	</g>
	<g id="POLYLINE_00000093161717305961305580000012544003984889017770_">
		
			<path fill="none" stroke="#3A54F5" stroke-width="2.5" stroke-linecap="round" stroke-linejoin="round" stroke-miterlimit="10" d="
			M546.73,192.617l1.78,1.543h2.952v-3.224h5.861v-0.879c-2.621,0-7.997,0-10.594,0V192.617z"/>
	</g>
	<g id="POLYLINE_00000166661081329262196210000002247008197848841869_">
		
			<polyline fill="none" stroke="#3A54F5" stroke-width="2.5" stroke-linecap="round" stroke-linejoin="round" stroke-miterlimit="10" points="
			547.62,193.389 547.62,194.747 550.551,194.747 550.551,194.16 		"/>
	</g>
	<g id="POLYLINE_00000052092644989264450280000009893070766963812260_">
		
			<path fill="none" stroke="#3A54F5" stroke-width="2.5" stroke-linecap="round" stroke-linejoin="round" stroke-miterlimit="10" d="
			M551.462,199.59v-2.499h9.335v-2.345c-3.129,0-11.041,0-14.067,0v2.397"/>
	</g>
	<g id="POLYLINE_00000179628486554142309250000014988738269641030556_">
		
			<path fill="none" stroke="#3A54F5" stroke-width="2.5" stroke-linecap="round" stroke-linejoin="round" stroke-miterlimit="10" d="
			M457.098,266.116c0.248,0.28,0.484,0.577,0.653,0.911c0.19,0.369,0.304,0.775,0.356,1.186c0.047,0.366,0.047,0.742,0.021,1.11
			c-0.02,0.186-0.033,0.433-0.059,0.621c0,0-1.576,14.482-1.576,14.482c-0.013,0.114,0.01,0.232,0.063,0.334
			c0.093,0.181,0.285,0.306,0.489,0.315c0.068,0.011,20.708-0.005,20.779,0c0.044-0.002,0.088-0.01,0.13-0.022
			c0.163-0.046,0.303-0.166,0.373-0.32c0.044-0.095,0.061-0.203,0.049-0.307c0,0-1.576-14.482-1.576-14.482
			c-0.011-0.071-0.042-0.424-0.049-0.495c-0.048-0.564-0.041-1.142,0.097-1.693c0.106-0.436,0.302-0.85,0.571-1.21
			c0.423-0.544,1.237-1.417,1.673-1.949c0.67-0.799,1.331-1.66,1.903-2.533c0.968-1.471,1.76-3.078,2.267-4.766
			c0.451-1.493,0.682-3.059,0.68-4.618c-0.015-0.448-0.033-0.915-0.216-1.331c-0.095-0.211-0.255-0.384-0.476-0.464
			c-0.135-0.051-0.281-0.07-0.425-0.076c-0.041-0.008-30.605,0.001-30.672-0.002c-0.179,0.001-0.363,0.015-0.533,0.078
			c-0.11,0.041-0.211,0.105-0.293,0.19c-0.095,0.097-0.163,0.218-0.213,0.343c-0.153,0.4-0.173,0.838-0.186,1.261
			c-0.014,2.858,0.798,5.692,2.207,8.17C454.197,262.761,455.645,264.489,457.098,266.116z"/>
	</g>
	<g id="POLYLINE_00000057868146480303851020000002175675361919074450_">
		
			<path fill="none" stroke="#3A54F5" stroke-width="2.5" stroke-linecap="round" stroke-linejoin="round" stroke-miterlimit="10" d="
			M483.941,247.092c0.001-0.301-0.154-0.578-0.356-0.792c-0.253-0.269-0.572-0.468-0.9-0.631c-0.49-0.24-1.021-0.404-1.552-0.525
			c-0.654-0.147-1.33-0.229-1.999-0.261c-0.197-0.009-0.414-0.014-0.611-0.014c-0.127,0.003-22.185-0.003-22.295,0.001
			c-0.834,0.008-1.675,0.092-2.49,0.274c-0.832,0.196-1.741,0.487-2.377,1.078c-0.208,0.2-0.383,0.454-0.423,0.745
			c-0.005,0.037-0.008,0.075-0.008,0.112c0.004,0.175-0.017,0.446,0.036,0.614c0.055,0.203,0.176,0.388,0.339,0.521
			c0.106,0.086,0.229,0.15,0.361,0.188c0.069,0.02,0.14,0.032,0.211,0.037c-0.008,0.014,31.033-0.005,31.05,0.002
			c0.395,0.003,0.774-0.243,0.93-0.607C483.969,247.589,483.937,247.352,483.941,247.092z"/>
	</g>
	<g id="POLYLINE_00000163039546006300758310000012751361696431195320_">
		
			<path fill="none" stroke="#3A54F5" stroke-width="2.5" stroke-linecap="round" stroke-linejoin="round" stroke-miterlimit="10" d="
			M483.941,249.458c0.003-0.382-0.227-0.75-0.572-0.913c-0.11-0.053-0.23-0.087-0.352-0.098c0.001-0.019-31.043,0.005-31.073-0.004
			c-0.153,0-0.306,0.035-0.444,0.102c-0.238,0.114-0.427,0.326-0.514,0.575c-0.025,0.072-0.043,0.148-0.052,0.224
			c-0.003,0.03-0.006,0.062-0.006,0.092c0,0,0,0.011,0,0.011l0,0.011c0,0,0,0.335,0,0.335c-0.001,0.262,0.105,0.522,0.288,0.709
			c0.134,0.138,0.308,0.236,0.495,0.28c0.076,0.018,0.154,0.027,0.232,0.027c0.005,0.001,30.998,0,31.004,0
			c0.05-0.001,0.101-0.006,0.151-0.015c0.343-0.057,0.646-0.302,0.771-0.627c0.031-0.079,0.053-0.163,0.063-0.248
			c0.003-0.03,0.007-0.062,0.007-0.092c0.002-0.01,0-0.024,0.001-0.034C483.941,249.792,483.941,249.458,483.941,249.458z"/>
	</g>
	<g id="POLYLINE_00000068655163341164658760000013727012271468480661_">
		
			<line fill="none" stroke="#3A54F5" stroke-width="2.5" stroke-linecap="round" stroke-linejoin="round" stroke-miterlimit="10" x1="483.139" y1="248.465" x2="483.159" y2="248.415"/>
	</g>
	<g id="POLYLINE_00000000922190296807693720000012287203062426025116_">
		
			<line fill="none" stroke="#3A54F5" stroke-width="2.5" stroke-linecap="round" stroke-linejoin="round" stroke-miterlimit="10" x1="451.73" y1="248.465" x2="451.71" y2="248.415"/>
	</g>
	<g id="POLYLINE_00000147221428860814020000000009451116862049119891_">
		
			<path fill="none" stroke="#3A54F5" stroke-width="2.5" stroke-linecap="round" stroke-linejoin="round" stroke-miterlimit="10" d="
			M444.736,222.425c11.315,0,34.085,0,45.398,0"/>
	</g>
	<g id="POLYLINE_00000096738896156751313950000009318775962452799922_">
		
			<path fill="none" stroke="#3A54F5" stroke-width="2.5" stroke-linecap="round" stroke-linejoin="round" stroke-miterlimit="10" d="
			M450.928,249.74c-0.376-0.011-0.856-0.004-1.233-0.041c-0.144-0.013-0.289-0.04-0.426-0.088c-0.368-0.121-0.699-0.351-0.947-0.648
			c-0.309-0.357-0.437-0.791-0.552-1.239c-0.567-2.406-1.219-5.193-1.591-7.629c-0.681-4.308-1.036-8.835-1.27-13.19
			c-0.104-2.211-0.215-4.743-0.197-6.954c0.007-0.147,0.033-0.294,0.081-0.433c0.092-0.266,0.265-0.511,0.509-0.657
			c0.155-0.094,0.333-0.144,0.511-0.171c6.046-0.297,15.491-0.32,21.621-0.369c6.15,0.05,15.547,0.071,21.621,0.369
			c0.178,0.027,0.356,0.077,0.511,0.171c0.244,0.146,0.418,0.39,0.509,0.657c0.048,0.139,0.074,0.286,0.081,0.433
			c0.017,2.21-0.09,4.743-0.197,6.954c-0.236,4.356-0.588,8.882-1.27,13.19c-0.378,2.466-1.015,5.197-1.591,7.629
			c-0.115,0.446-0.243,0.882-0.552,1.239c-0.259,0.311-0.609,0.547-0.998,0.664c-0.101,0.031-0.206,0.053-0.311,0.064
			c-0.404,0.05-0.889,0.035-1.299,0.048"/>
	</g>
	<g id="POLYLINE_00000055691621714472102240000005425336009925573019_">
		
			<path fill="none" stroke="#3A54F5" stroke-width="2.5" stroke-linecap="round" stroke-linejoin="round" stroke-miterlimit="10" d="
			M411.198,203.896c0.234,0.014,84.358-0.026,84.572,0.013c0.249,0.034,0.489,0.134,0.689,0.287
			c0.286,0.217,0.487,0.543,0.552,0.896c0.067,0.353-0.002,0.729-0.191,1.034c-0.193,0.317-0.51,0.555-0.869,0.65
			c-0.1,0.027-0.203,0.043-0.306,0.048c-0.022,0.008-84.395-0.003-84.446,0.002c-0.176,0.004-0.353-0.024-0.519-0.083
			c-0.24-0.084-0.458-0.233-0.624-0.426c-0.384-0.442-0.468-1.099-0.194-1.625C410.11,204.199,410.645,203.88,411.198,203.896z"/>
	</g>
	<g id="POLYLINE_00000075137462959449622800000011714814252669673866_">
		
			<path fill="none" stroke="#3A54F5" stroke-width="2.5" stroke-linecap="round" stroke-linejoin="round" stroke-miterlimit="10" d="
			M504.655,203.896c-0.491-0.003-0.972,0.26-1.234,0.675c-0.206,0.319-0.279,0.72-0.2,1.092c0.077,0.372,0.305,0.709,0.622,0.919
			c0.182,0.121,0.393,0.201,0.61,0.231c0.057,0.008,0.119,0.013,0.176,0.014c0.037,0.012,3.8-0.008,3.835,0v-2.93H504.655z"/>
	</g>
	<g id="POLYLINE_00000006668993063587712940000016878515600172998572_">
		
			<rect x="508.464" y="201.844" fill="none" stroke="#3A54F5" stroke-width="2.5" stroke-linecap="round" stroke-linejoin="round" stroke-miterlimit="10" width="1.172" height="7.034"/>
	</g>
	<g id="POLYLINE_00000162320533457335354400000012160924816205147322_">
		
			<path fill="none" stroke="#3A54F5" stroke-width="2.5" stroke-linecap="round" stroke-linejoin="round" stroke-miterlimit="10" d="
			M492.372,203.896c0.326-0.716,0.902-1.315,1.604-1.67c0.732-0.374,1.597-0.478,2.396-0.288c0.767,0.178,1.468,0.624,1.955,1.243
			c0.488,0.615,0.76,1.396,0.758,2.181c0.002,0.785-0.27,1.567-0.758,2.181c-0.487,0.619-1.188,1.064-1.955,1.243
			c-0.8,0.19-1.665,0.086-2.396-0.288c-0.703-0.355-1.278-0.954-1.604-1.67"/>
	</g>
	<g id="POLYLINE_00000101102972365899123930000014707614436080731572_">
		
			<path fill="none" stroke="#3A54F5" stroke-width="2.5" stroke-linecap="round" stroke-linejoin="round" stroke-miterlimit="10" d="
			M414.362,206.826c-0.347,0.764-0.979,1.393-1.744,1.737c-0.744,0.34-1.609,0.407-2.397,0.186
			c-0.729-0.201-1.389-0.647-1.848-1.248c-0.462-0.6-0.72-1.352-0.726-2.109c-0.008-0.777,0.251-1.554,0.726-2.17
			c0.459-0.601,1.119-1.047,1.848-1.248c0.808-0.227,1.696-0.151,2.452,0.211c0.74,0.349,1.349,0.967,1.688,1.711"/>
	</g>
	<g id="POLYLINE_00000081607875921195036980000002145085081345811647_">
		
			<rect x="508.464" y="145.575" fill="none" stroke="#3A54F5" stroke-width="2.5" stroke-linecap="round" stroke-linejoin="round" stroke-miterlimit="10" width="1.172" height="7.034"/>
	</g>
	<g id="POLYLINE_00000158750997410790695000000016991074694824098188_">
		
			<rect x="508.464" y="187.777" fill="none" stroke="#3A54F5" stroke-width="2.5" stroke-linecap="round" stroke-linejoin="round" stroke-miterlimit="10" width="1.172" height="7.034"/>
	</g>
	<g id="POLYLINE_00000003104932613074590920000011769213198871245199_">
		
			<path fill="none" stroke="#3A54F5" stroke-width="2.5" stroke-linecap="round" stroke-linejoin="round" stroke-miterlimit="10" d="
			M508.464,189.829c-0.503,0.001-1.004-0.166-1.406-0.469c-0.414-0.309-0.72-0.759-0.855-1.258c-0.055-0.201-0.083-0.41-0.083-0.618
			c0.007-0.206-0.01-34.54,0.004-34.713c0.009-0.164,0.036-0.329,0.079-0.487c0.138-0.509,0.453-0.967,0.88-1.276
			c0.398-0.291,0.889-0.452,1.382-0.451l0-2.93c-0.973-0.001-1.945,0.275-2.773,0.788c-0.865,0.533-1.57,1.323-2.001,2.243
			c-0.329,0.699-0.502,1.472-0.501,2.244c0,0.059-0.001,34.587,0,34.641c0.001,0.115,0.007,0.241,0.016,0.356
			c0.023,0.286,0.069,0.574,0.138,0.853c0.083,0.335,0.2,0.665,0.347,0.977c0.431,0.92,1.136,1.711,2.001,2.244
			c0.827,0.513,1.799,0.789,2.773,0.787V189.829z"/>
	</g>
</g>
<g id="_x32_D_x24_AG-BUILDINGS">
</g>
<g id="_x32_D_x24_AG-OUTLINE">
</g>
<g id="Isolation_Mode">
</g>
</svg>
