<?xml version="1.0" encoding="utf-8"?>
<!-- Generator: Adobe Illustrator 28.3.0, SVG Export Plug-In . SVG Version: 6.00 Build 0)  -->
<!DOCTYPE svg PUBLIC "-//W3C//DTD SVG 1.1//EN" "http://www.w3.org/Graphics/SVG/1.1/DTD/svg11.dtd" [
	<!ENTITY ns_extend "http://ns.adobe.com/Extensibility/1.0/">
	<!ENTITY ns_ai "http://ns.adobe.com/AdobeIllustrator/10.0/">
	<!ENTITY ns_graphs "http://ns.adobe.com/Graphs/1.0/">
	<!ENTITY ns_vars "http://ns.adobe.com/Variables/1.0/">
	<!ENTITY ns_imrep "http://ns.adobe.com/ImageReplacement/1.0/">
	<!ENTITY ns_sfw "http://ns.adobe.com/SaveForWeb/1.0/">
	<!ENTITY ns_custom "http://ns.adobe.com/GenericCustomNamespace/1.0/">
	<!ENTITY ns_adobe_xpath "http://ns.adobe.com/XPath/1.0/">
]>
<svg version="1.1" xmlns:x="&ns_extend;" xmlns:i="&ns_ai;" xmlns:graph="&ns_graphs;"
	 xmlns="http://www.w3.org/2000/svg" xmlns:xlink="http://www.w3.org/1999/xlink" x="0px" y="0px" width="1000px" height="725px"
	 viewBox="0 0 1000 725" enable-background="new 0 0 1000 725" xml:space="preserve">
<metadata>
	<sfw  xmlns="&ns_sfw;">
		<slices></slices>
		<sliceSourceBounds  bottomLeftOrigin="true" height="8357.844" width="10589.988" x="-2600.988" y="-958"></sliceSourceBounds>
	</sfw>
</metadata>
<g id="FILL-BACKGROUND">
</g>
<g id="N-DIMENSIONS">
</g>
<g id="N-TEXT">
</g>
<g id="_x32_D_x24_AG-DIAGRAM">
	<g id="POLYLINE_00000091002688609614549010000003575573544394687901_">
		<g>
			<g>
				<polyline fill="none" stroke="#3A54F5" stroke-width="2.5" stroke-linecap="round" stroke-linejoin="round" points="
					731.316,392.247 729.816,392.247 729.816,390.747 				"/>
				
					<line fill="none" stroke="#3A54F5" stroke-width="2.5" stroke-linecap="round" stroke-linejoin="round" stroke-dasharray="2.9769,4.9616" x1="729.816" y1="385.785" x2="729.816" y2="70.726"/>
				<polyline fill="none" stroke="#3A54F5" stroke-width="2.5" stroke-linecap="round" stroke-linejoin="round" points="
					729.816,68.245 729.816,66.745 731.316,66.745 				"/>
				
					<line fill="none" stroke="#3A54F5" stroke-width="2.5" stroke-linecap="round" stroke-linejoin="round" stroke-dasharray="3.0524,5.0873" x1="736.404" y1="66.745" x2="929.211" y2="66.745"/>
				<polyline fill="none" stroke="#3A54F5" stroke-width="2.5" stroke-linecap="round" stroke-linejoin="round" points="
					931.755,66.745 933.255,66.745 933.255,68.245 				"/>
				
					<line fill="none" stroke="#3A54F5" stroke-width="2.5" stroke-linecap="round" stroke-linejoin="round" stroke-dasharray="2.9769,4.9616" x1="933.255" y1="73.207" x2="933.255" y2="388.266"/>
				<polyline fill="none" stroke="#3A54F5" stroke-width="2.5" stroke-linecap="round" stroke-linejoin="round" points="
					933.255,390.747 933.255,392.247 931.755,392.247 				"/>
				
					<line fill="none" stroke="#3A54F5" stroke-width="2.5" stroke-linecap="round" stroke-linejoin="round" stroke-dasharray="3.0524,5.0873" x1="926.668" y1="392.247" x2="733.86" y2="392.247"/>
			</g>
		</g>
	</g>
	<g id="POLYLINE_00000119110096351317954170000011931065529284939445_">
		<g>
			<g>
				<polyline fill="none" stroke="#3A54F5" stroke-width="2.5" stroke-linecap="round" stroke-linejoin="round" points="
					481.156,392.247 479.656,392.247 479.656,390.747 				"/>
				
					<line fill="none" stroke="#3A54F5" stroke-width="2.5" stroke-linecap="round" stroke-linejoin="round" stroke-dasharray="2.9769,4.9616" x1="479.656" y1="385.785" x2="479.656" y2="70.726"/>
				<polyline fill="none" stroke="#3A54F5" stroke-width="2.5" stroke-linecap="round" stroke-linejoin="round" points="
					479.656,68.245 479.656,66.745 481.156,66.745 				"/>
				
					<line fill="none" stroke="#3A54F5" stroke-width="2.5" stroke-linecap="round" stroke-linejoin="round" stroke-dasharray="3.0524,5.0873" x1="486.243" y1="66.745" x2="679.051" y2="66.745"/>
				<polyline fill="none" stroke="#3A54F5" stroke-width="2.5" stroke-linecap="round" stroke-linejoin="round" points="
					681.595,66.745 683.095,66.745 683.095,68.245 				"/>
				
					<line fill="none" stroke="#3A54F5" stroke-width="2.5" stroke-linecap="round" stroke-linejoin="round" stroke-dasharray="2.9769,4.9616" x1="683.095" y1="73.207" x2="683.095" y2="388.266"/>
				<polyline fill="none" stroke="#3A54F5" stroke-width="2.5" stroke-linecap="round" stroke-linejoin="round" points="
					683.095,390.747 683.095,392.247 681.595,392.247 				"/>
				
					<line fill="none" stroke="#3A54F5" stroke-width="2.5" stroke-linecap="round" stroke-linejoin="round" stroke-dasharray="3.0524,5.0873" x1="676.507" y1="392.247" x2="483.7" y2="392.247"/>
			</g>
		</g>
	</g>
	<g id="POLYLINE_00000109739702061414999640000006557482367937881523_">
		<g>
			<g>
				<polyline fill="none" stroke="#3A54F5" stroke-width="2.5" stroke-linecap="round" stroke-linejoin="round" points="
					432.935,390.747 432.935,392.247 431.435,392.247 				"/>
				
					<line fill="none" stroke="#3A54F5" stroke-width="2.5" stroke-linecap="round" stroke-linejoin="round" stroke-dasharray="2.9851,4.9752" x1="426.459" y1="392.247" x2="70.732" y2="392.247"/>
				<polyline fill="none" stroke="#3A54F5" stroke-width="2.5" stroke-linecap="round" stroke-linejoin="round" points="
					68.245,392.247 66.745,392.247 66.745,390.747 				"/>
				
					<line fill="none" stroke="#3A54F5" stroke-width="2.5" stroke-linecap="round" stroke-linejoin="round" stroke-dasharray="2.9769,4.9616" x1="66.745" y1="385.785" x2="66.745" y2="70.726"/>
				<polyline fill="none" stroke="#3A54F5" stroke-width="2.5" stroke-linecap="round" stroke-linejoin="round" points="
					66.745,68.245 66.745,66.745 68.245,66.745 				"/>
				
					<line fill="none" stroke="#3A54F5" stroke-width="2.5" stroke-linecap="round" stroke-linejoin="round" stroke-dasharray="2.9851,4.9752" x1="73.22" y1="66.745" x2="428.947" y2="66.745"/>
				<polyline fill="none" stroke="#3A54F5" stroke-width="2.5" stroke-linecap="round" stroke-linejoin="round" points="
					431.435,66.745 432.935,66.745 432.935,68.245 				"/>
				
					<line fill="none" stroke="#3A54F5" stroke-width="2.5" stroke-linecap="round" stroke-linejoin="round" stroke-dasharray="2.9769,4.9616" x1="432.935" y1="73.207" x2="432.935" y2="388.266"/>
			</g>
		</g>
	</g>
	<g id="POLYLINE_00000143578949604067935020000004141944718386737814_">
		<g>
			<g>
				<polyline fill="none" stroke="#3A54F5" stroke-width="2.5" stroke-linecap="round" stroke-linejoin="round" points="
					432.935,640.907 432.935,642.407 431.435,642.407 				"/>
				
					<line fill="none" stroke="#3A54F5" stroke-width="2.5" stroke-linecap="round" stroke-linejoin="round" stroke-dasharray="2.9851,4.9752" x1="426.459" y1="642.407" x2="70.732" y2="642.407"/>
				<polyline fill="none" stroke="#3A54F5" stroke-width="2.5" stroke-linecap="round" stroke-linejoin="round" points="
					68.245,642.407 66.745,642.407 66.745,640.907 				"/>
				
					<line fill="none" stroke="#3A54F5" stroke-width="2.5" stroke-linecap="round" stroke-linejoin="round" stroke-dasharray="3.0524,5.0873" x1="66.745" y1="635.82" x2="66.745" y2="443.012"/>
				<polyline fill="none" stroke="#3A54F5" stroke-width="2.5" stroke-linecap="round" stroke-linejoin="round" points="
					66.745,440.469 66.745,438.969 68.245,438.969 				"/>
				
					<line fill="none" stroke="#3A54F5" stroke-width="2.5" stroke-linecap="round" stroke-linejoin="round" stroke-dasharray="2.9851,4.9752" x1="73.22" y1="438.969" x2="428.947" y2="438.969"/>
				<polyline fill="none" stroke="#3A54F5" stroke-width="2.5" stroke-linecap="round" stroke-linejoin="round" points="
					431.435,438.969 432.935,438.969 432.935,440.469 				"/>
				
					<line fill="none" stroke="#3A54F5" stroke-width="2.5" stroke-linecap="round" stroke-linejoin="round" stroke-dasharray="3.0524,5.0873" x1="432.935" y1="445.556" x2="432.935" y2="638.364"/>
			</g>
		</g>
	</g>
</g>
<g id="_x32_D_x24_AG-DETAILS-DIAGRAM">
	<g id="POLYLINE_00000079460721836594105460000010742211077346232236_">
		<g>
			<g>
				
					<line fill="none" stroke="#3A54F5" stroke-width="2.5" stroke-linecap="round" stroke-linejoin="round" x1="371.903" y1="642.407" x2="371.903" y2="640.907"/>
				
					<line fill="none" stroke="#3A54F5" stroke-width="2.5" stroke-linecap="round" stroke-linejoin="round" stroke-dasharray="3.0524,5.0873" x1="371.903" y1="635.82" x2="371.903" y2="443.012"/>
				
					<line fill="none" stroke="#3A54F5" stroke-width="2.5" stroke-linecap="round" stroke-linejoin="round" x1="371.903" y1="440.469" x2="371.903" y2="438.969"/>
			</g>
		</g>
	</g>
	<g id="POLYLINE_00000054976329640348920520000004885161490965975438_">
		<g>
			<g>
				
					<line fill="none" stroke="#3A54F5" stroke-width="2.5" stroke-linecap="round" stroke-linejoin="round" x1="168.464" y1="642.407" x2="168.464" y2="640.907"/>
				
					<line fill="none" stroke="#3A54F5" stroke-width="2.5" stroke-linecap="round" stroke-linejoin="round" stroke-dasharray="3.0524,5.0873" x1="168.464" y1="635.82" x2="168.464" y2="443.012"/>
				
					<line fill="none" stroke="#3A54F5" stroke-width="2.5" stroke-linecap="round" stroke-linejoin="round" x1="168.464" y1="440.469" x2="168.464" y2="438.969"/>
			</g>
		</g>
	</g>
	<g id="POLYLINE_00000007386884096788242140000011848673600796236675_">
		<g>
			
				<path fill="none" stroke="#3A54F5" stroke-width="2.5" stroke-linecap="round" stroke-linejoin="round" stroke-dasharray="2.9954,4.9924" d="
				M270.184,438.969c-34.243-0.036-66.457,17.397-85.156,46.084c-16.363,24.974-20.891,56.286-12.271,84.872
				c8.364,28.011,28.722,51.32,55.354,63.374c26.599,12.128,57.546,12.128,84.146,0c27.2-12.313,47.804-36.321,55.849-65.074
				c7.953-28.131,3.258-58.72-12.765-83.171C336.641,456.366,304.427,438.932,270.184,438.969z"/>
		</g>
	</g>
</g>
<g id="_x32_D_x24_AG-FIXTURES">
	<g id="POLYLINE_00000004526902711021609770000012534601315370151608_">
		
			<path fill="none" stroke="#3A54F5" stroke-width="2.5" stroke-linecap="round" stroke-linejoin="round" stroke-miterlimit="10" d="
			M931.56,254.502c-0.742,0.002-1.482-0.25-2.068-0.704c-0.582-0.446-1.011-1.086-1.202-1.793c-0.079-0.29-0.12-0.592-0.12-0.893
			c0.011-0.298-0.014-49.95,0.005-50.202c0.013-0.237,0.052-0.475,0.115-0.704c0.199-0.735,0.656-1.398,1.272-1.846
			c0.575-0.421,1.286-0.653,1.999-0.652l0-4.238c-1.407-0.002-2.813,0.397-4.01,1.139c-1.252,0.771-2.271,1.913-2.894,3.245
			c-0.476,1.01-0.725,2.128-0.725,3.245c0.011,0.406-0.013,49.901,0.004,50.267c0.011,0.318,0.042,0.643,0.093,0.957
			c0.018,0.108,0.042,0.246,0.066,0.354c0.121,0.578,0.311,1.146,0.562,1.68c0.623,1.331,1.643,2.474,2.894,3.245
			c1.196,0.741,2.602,1.141,4.01,1.139V254.502z"/>
	</g>
	<g id="POLYLINE_00000041268622253018591720000013564067062203812264_">
		
			<rect x="931.56" y="251.535" fill="none" stroke="#3A54F5" stroke-width="2.5" stroke-linecap="round" stroke-linejoin="round" stroke-miterlimit="10" width="1.695" height="10.172"/>
	</g>
	<g id="POLYLINE_00000058559426927645579560000017037630055970387077_">
		
			<rect x="931.56" y="190.504" fill="none" stroke="#3A54F5" stroke-width="2.5" stroke-linecap="round" stroke-linejoin="round" stroke-miterlimit="10" width="1.695" height="10.172"/>
	</g>
	<g id="POLYLINE_00000044857426452097133850000004165705116172038293_">
		
			<path fill="none" stroke="#3A54F5" stroke-width="2.5" stroke-linecap="round" stroke-linejoin="round" stroke-miterlimit="10" d="
			M795.471,279.084c-1.03,2.264-3.594,3.454-5.988,2.781c-2.17-0.595-3.711-2.606-3.722-4.855c-0.012-1.124,0.364-2.248,1.049-3.138
			c0.664-0.87,1.618-1.514,2.672-1.806c2.393-0.674,4.958,0.517,5.988,2.781"/>
	</g>
	<g id="POLYLINE_00000082358148851642624260000017919207502559753628_">
		
			<path fill="none" stroke="#3A54F5" stroke-width="2.5" stroke-linecap="round" stroke-linejoin="round" stroke-miterlimit="10" d="
			M908.287,274.846c0.961-2.111,3.27-3.31,5.549-2.882c2.401,0.438,4.167,2.561,4.161,5.001c0.007,2.417-1.729,4.528-4.101,4.99
			c-2.296,0.459-4.638-0.739-5.608-2.871"/>
	</g>
	<g id="POLYLINE_00000077316356224957309200000013417768705300013452_">
		
			<rect x="931.56" y="271.879" fill="none" stroke="#3A54F5" stroke-width="2.5" stroke-linecap="round" stroke-linejoin="round" stroke-miterlimit="10" width="1.695" height="10.172"/>
	</g>
	<g id="POLYLINE_00000060711254531277001500000001527584878038471570_">
		
			<path fill="none" stroke="#3A54F5" stroke-width="2.5" stroke-linecap="round" stroke-linejoin="round" stroke-miterlimit="10" d="
			M926.05,274.846c-0.537-0.002-1.071,0.211-1.459,0.582c-0.556,0.519-0.79,1.346-0.589,2.079c0.16,0.615,0.612,1.144,1.195,1.397
			c0.211,0.093,0.44,0.151,0.67,0.171c0.058,0.005,0.124,0.008,0.183,0.008c0,0,5.51,0,5.51,0v-4.238H926.05z"/>
	</g>
	<g id="POLYLINE_00000151541020407961453760000011933113795585845909_">
		
			<path fill="none" stroke="#3A54F5" stroke-width="2.5" stroke-linecap="round" stroke-linejoin="round" stroke-miterlimit="10" d="
			M790.895,274.846c0.008-0.002,122.005,0.002,122.02,0c0.103,0,0.21,0.008,0.312,0.024c0.359,0.054,0.704,0.203,0.99,0.427
			c0.41,0.319,0.694,0.794,0.782,1.306c0.089,0.502-0.013,1.035-0.28,1.47c-0.274,0.451-0.723,0.791-1.231,0.933
			c-0.144,0.041-0.293,0.066-0.442,0.076c-0.038,0.016-122.062-0.004-122.15,0.004c-0.254,0.006-0.51-0.035-0.75-0.12
			c-0.347-0.122-0.663-0.337-0.903-0.616c-0.295-0.341-0.476-0.778-0.508-1.228c-0.029-0.394,0.055-0.797,0.24-1.146
			C789.34,275.272,790.104,274.823,790.895,274.846z"/>
	</g>
	<g id="POLYLINE_00000080920936282624130570000000793794571219482041_">
		
			<path fill="none" stroke="#3A54F5" stroke-width="2.5" stroke-linecap="round" stroke-linejoin="round" stroke-miterlimit="10" d="
			M848.352,341.145c-0.524-0.016-1.206-0.006-1.732-0.054c-0.2-0.017-0.403-0.047-0.595-0.108c-0.55-0.166-1.048-0.497-1.42-0.934
			c-0.37-0.424-0.57-0.906-0.719-1.442c-1.334-5.274-2.466-10.901-3.08-16.301c-0.905-7.959-1.411-16.187-1.446-24.196
			c0.012-0.45,0.156-0.902,0.44-1.255c0.184-0.23,0.432-0.405,0.71-0.503c0.261-0.095,0.543-0.129,0.819-0.148
			c8.582-0.343,22.194-0.449,30.894-0.494c8.729,0.084,22.271,0.123,30.894,0.494c0.275,0.02,0.558,0.053,0.819,0.148
			c0.304,0.107,0.572,0.307,0.76,0.568c0.251,0.343,0.378,0.766,0.389,1.189c-0.036,8.01-0.541,16.238-1.446,24.196
			c-0.344,2.805-0.785,5.845-1.339,8.614c-0.474,2.296-1.159,5.413-1.74,7.688c-0.149,0.534-0.347,1.017-0.719,1.442
			c-0.381,0.447-0.892,0.783-1.457,0.945c-0.133,0.04-0.273,0.066-0.412,0.082c-0.589,0.057-1.282,0.061-1.878,0.069"/>
	</g>
	<g id="POLYLINE_00000100364908160082958390000001452446207101771438_">
		
			<path fill="none" stroke="#3A54F5" stroke-width="2.5" stroke-linecap="round" stroke-linejoin="round" stroke-miterlimit="10" d="
			M839.397,301.642c16.364,0,49.294,0,65.653,0"/>
	</g>
	<g id="POLYLINE_00000057829180390517084120000017201723597107541946_">
		
			<line fill="none" stroke="#3A54F5" stroke-width="2.5" stroke-linecap="round" stroke-linejoin="round" stroke-miterlimit="10" x1="849.511" y1="339.301" x2="849.483" y2="339.229"/>
	</g>
	<g id="POLYLINE_00000159469319328891394880000000981899714991277707_">
		
			<line fill="none" stroke="#3A54F5" stroke-width="2.5" stroke-linecap="round" stroke-linejoin="round" stroke-miterlimit="10" x1="894.935" y1="339.301" x2="894.964" y2="339.229"/>
	</g>
	<g id="POLYLINE_00000104699928843895553000000012026161530224198293_">
		
			<path fill="none" stroke="#3A54F5" stroke-width="2.5" stroke-linecap="round" stroke-linejoin="round" stroke-miterlimit="10" d="
			M896.094,340.736c0.001-0.379-0.151-0.755-0.417-1.025c-0.253-0.261-0.606-0.422-0.97-0.441c-0.25-0.001-44.76-0.009-45.003,0.002
			c-0.139,0.011-0.278,0.042-0.408,0.092c-0.216,0.082-0.412,0.217-0.567,0.389c-0.165,0.183-0.283,0.408-0.339,0.648
			c-0.065,0.236-0.031,0.626-0.038,0.868c0.013,0.509,0.312,0.996,0.76,1.238c0.215,0.119,0.461,0.182,0.707,0.182
			c0.264-0.017,44.748,0.023,44.971-0.009c0.165-0.019,0.327-0.066,0.476-0.138c0.355-0.171,0.634-0.491,0.755-0.866
			c0.03-0.094,0.052-0.192,0.063-0.29c0.004-0.043,0.009-0.089,0.009-0.133c0,0,0-0.016,0-0.016s0-0.016,0-0.016V340.736z"/>
	</g>
	<g id="POLYLINE_00000098190710776533042880000008511912611913750156_">
		
			<path fill="none" stroke="#3A54F5" stroke-width="2.5" stroke-linecap="round" stroke-linejoin="round" stroke-miterlimit="10" d="
			M896.094,337.316c0.001-0.417-0.206-0.805-0.481-1.109c-0.337-0.373-0.766-0.653-1.208-0.885
			c-0.691-0.357-1.445-0.601-2.199-0.783c-0.943-0.224-1.917-0.353-2.884-0.408c-0.286-0.016-0.603-0.026-0.889-0.029
			c-0.108-0.007-32.105,0.004-32.243-0.001c-1.204,0.001-2.42,0.111-3.599,0.359c-1.182,0.262-2.389,0.632-3.362,1.379
			c-0.355,0.282-0.678,0.637-0.815,1.077c-0.023,0.077-0.041,0.158-0.051,0.238c-0.004,0.041-0.009,0.085-0.009,0.126
			c0,0,0,0.018,0,0.018s0,0.018,0,0.018s0,0.484,0,0.484c0,0.184,0.035,0.369,0.103,0.54c0.215,0.554,0.771,0.932,1.365,0.928
			c0.082-0.002,44.812,0.004,44.887-0.002c0.121-0.007,0.241-0.029,0.357-0.065c0.183-0.057,0.355-0.151,0.502-0.274
			c0.225-0.187,0.392-0.443,0.471-0.724C896.121,337.957,896.088,337.571,896.094,337.316z"/>
	</g>
	<g id="POLYLINE_00000078018097418656541030000000062773788770671791_">
		
			<path fill="none" stroke="#3A54F5" stroke-width="2.5" stroke-linecap="round" stroke-linejoin="round" stroke-miterlimit="10" d="
			M857.274,364.827c0.369,0.416,0.719,0.859,0.965,1.359c0.277,0.551,0.437,1.158,0.506,1.77c0.057,0.499,0.054,1.01,0.019,1.51
			c-0.029,0.27-0.048,0.627-0.086,0.898c0.036,0.103-2.319,20.94-2.284,21.031c-0.003,0.29,0.154,0.574,0.402,0.725
			c0.108,0.067,0.232,0.109,0.358,0.122c0.02,0.068,30.006-0.04,30.05,0.005c0.171,0,0.342-0.053,0.483-0.151
			c0.248-0.169,0.391-0.475,0.361-0.774c0.006-0.004-2.285-20.95-2.281-20.958c-0.029-0.211-0.068-0.685-0.086-0.898
			c-0.02-0.24-0.025-0.506-0.025-0.747c0.005-0.777,0.125-1.564,0.433-2.281c0.149-0.35,0.345-0.683,0.571-0.989
			c0.327-0.445,1.378-1.598,1.733-2.015c0.699-0.809,1.501-1.774,2.142-2.629c1.75-2.318,3.236-4.874,4.209-7.617
			c0.89-2.492,1.353-5.145,1.349-7.792c-0.018-0.594-0.047-1.206-0.249-1.771c-0.1-0.273-0.261-0.537-0.508-0.7
			c-0.209-0.141-0.46-0.201-0.708-0.224c-0.098-0.009-0.207-0.013-0.305-0.013c0,0-44.201,0-44.201,0
			c-0.349,0.001-0.717,0.038-1.014,0.237c-0.263,0.174-0.429,0.461-0.528,0.755c-0.183,0.55-0.213,1.141-0.229,1.716
			c-0.023,4.369,1.296,8.688,3.542,12.419C853.374,360.335,855.333,362.648,857.274,364.827z"/>
	</g>
	<g id="POLYLINE_00000006676913491163660070000005611522331403647878_">
		
			<path fill="none" stroke="#3A54F5" stroke-width="2.5" stroke-linecap="round" stroke-linejoin="round" stroke-miterlimit="10" d="
			M583.495,300.028c-0.011,0.247,0.017,43.489-0.008,43.701c-0.01,0.121-0.032,0.243-0.063,0.36
			c-0.075,0.283-0.209,0.55-0.392,0.779c-0.856,1.074-2.499,1.059-3.336-0.029c-0.216-0.28-0.36-0.615-0.414-0.965
			c-0.015-0.095-0.024-0.195-0.025-0.291c-0.001-0.034,0-43.519,0-43.555H583.495z"/>
	</g>
	<g id="POLYLINE_00000124859083531253288030000003220921027436309439_">
		
			<path fill="none" stroke="#3A54F5" stroke-width="2.5" stroke-linecap="round" stroke-linejoin="round" stroke-miterlimit="10" d="
			M583.495,336.478c1.035-0.415,1.942-1.145,2.569-2.067c0.629-0.92,0.977-2.031,0.985-3.146c0.012-1.148-0.337-2.297-0.985-3.245
			c-0.627-0.922-1.534-1.652-2.569-2.067"/>
	</g>
	<g id="POLYLINE_00000164483027869765022260000007622823114885792911_">
		
			<path fill="none" stroke="#3A54F5" stroke-width="2.5" stroke-linecap="round" stroke-linejoin="round" stroke-miterlimit="10" d="
			M579.256,325.953c-1.035,0.415-1.942,1.145-2.569,2.067c-0.629,0.92-0.977,2.031-0.985,3.146
			c-0.012,1.148,0.337,2.297,0.985,3.245c0.627,0.922,1.534,1.652,2.569,2.067"/>
	</g>
	<g id="POLYLINE_00000152947589577693025930000005202702629859181441_">
		
			<path fill="none" stroke="#3A54F5" stroke-width="2.5" stroke-linecap="round" stroke-linejoin="round" stroke-miterlimit="10" d="
			M608.743,262.565c0.835,0.044,1.783,0.201,2.283,0.947c0.175,0.253,0.295,0.542,0.394,0.832c0.379,1.125,0.536,2.671,0.724,3.848
			c0.277,2.028,0.722,4.483,0.708,6.521c-0.013,0.58-0.065,1.173-0.268,1.721c-0.048,0.117-0.092,0.241-0.165,0.346
			c-0.061,0.088-0.14,0.165-0.229,0.225c-0.094,0.062-0.2,0.105-0.311,0.126c-8.27,0.231-22.374,0.614-30.503,0.59
			c-8.079,0.027-22.301-0.353-30.503-0.59c-0.11-0.021-0.217-0.064-0.311-0.126c-0.094-0.062-0.175-0.143-0.238-0.237
			c-0.062-0.089-0.1-0.195-0.142-0.294c-0.19-0.49-0.254-1.021-0.277-1.543c-0.062-2.341,0.57-5.594,0.876-7.936
			c0.134-0.812,0.245-1.667,0.487-2.454c0.113-0.364,0.247-0.732,0.469-1.045c0.502-0.732,1.444-0.886,2.27-0.929"/>
	</g>
	<g id="POLYLINE_00000105421526366763753250000006392915786098156716_">
		
			<path fill="none" stroke="#3A54F5" stroke-width="2.5" stroke-linecap="round" stroke-linejoin="round" stroke-miterlimit="10" d="
			M550.856,288.365c8.252,0.217,22.415,0.603,30.52,0.58c8.053,0.024,22.339-0.364,30.52-0.58"/>
	</g>
	<g id="POLYLINE_00000067200820583085504500000007244947843811575469_">
		
			<path fill="none" stroke="#3A54F5" stroke-width="2.5" stroke-linecap="round" stroke-linejoin="round" stroke-miterlimit="10" d="
			M575.823,294.84c0.002,0.015,0.555,4.446,0.557,4.46c0.006,0.043,0.016,0.088,0.029,0.13c0.046,0.151,0.136,0.288,0.255,0.391
			c0.119,0.103,0.267,0.173,0.423,0.197c0.038,0.006,0.079,0.01,0.118,0.01c-0.003,0.002,8.324-0.001,8.327,0
			c0.202,0.001,0.403-0.075,0.555-0.207c0.119-0.103,0.209-0.24,0.255-0.391c0.014-0.047,0.025-0.096,0.031-0.144
			c0,0,0.555-4.445,0.555-4.445"/>
	</g>
	<g id="POLYLINE_00000131329513775588242260000006785822502325169041_">
		
			<path fill="none" stroke="#3A54F5" stroke-width="2.5" stroke-linecap="round" stroke-linejoin="round" stroke-miterlimit="10" d="
			M603.063,288.614c-0.962,1.291-2.194,2.378-3.579,3.196c-2.192,1.299-4.698,1.986-7.191,2.427
			c-3.574,0.614-7.296,0.752-10.918,0.762c-3.622-0.01-7.343-0.148-10.918-0.762c-2.493-0.441-4.999-1.128-7.191-2.427
			c-1.385-0.818-2.617-1.905-3.579-3.196"/>
	</g>
	<g id="POLYLINE_00000075151680715890763600000017346415394364758947_">
		
			<rect x="577.954" y="254.833" fill="none" stroke="#3A54F5" stroke-width="2.5" stroke-linecap="round" stroke-linejoin="round" stroke-miterlimit="10" width="6.844" height="1.271"/>
	</g>
	<g id="POLYLINE_00000121962849552336697950000013949419729200465599_">
		
			<rect x="577.954" y="256.105" fill="none" stroke="#3A54F5" stroke-width="2.5" stroke-linecap="round" stroke-linejoin="round" stroke-miterlimit="10" width="6.844" height="4.662"/>
	</g>
	<g id="POLYLINE_00000149360467342965043340000001246132487483534229_">
		
			<polyline fill="none" stroke="#3A54F5" stroke-width="2.5" stroke-linecap="round" stroke-linejoin="round" stroke-miterlimit="10" points="
			579.241,260.767 579.241,261.614 583.479,261.614 583.479,260.767 		"/>
	</g>
	<g id="POLYLINE_00000042017747536248077850000005342001260891538367_">
		
			<rect x="577.954" y="261.614" fill="none" stroke="#3A54F5" stroke-width="2.5" stroke-linecap="round" stroke-linejoin="round" stroke-miterlimit="10" width="6.844" height="3.391"/>
	</g>
	<g id="POLYLINE_00000053508891039463570500000017779934785296083081_">
		
			<line fill="none" stroke="#3A54F5" stroke-width="2.5" stroke-linecap="round" stroke-linejoin="round" stroke-miterlimit="10" x1="577.954" y1="265.005" x2="577.954" y2="277.708"/>
	</g>
	<g id="POLYLINE_00000142143307111592801600000012093801459862851763_">
		
			<line fill="none" stroke="#3A54F5" stroke-width="2.5" stroke-linecap="round" stroke-linejoin="round" stroke-miterlimit="10" x1="581.375" y1="277.72" x2="581.376" y2="277.72"/>
	</g>
	<g id="POLYLINE_00000165228739465639582640000009952427847528321189_">
		
			<line fill="none" stroke="#3A54F5" stroke-width="2.5" stroke-linecap="round" stroke-linejoin="round" stroke-miterlimit="10" x1="584.797" y1="277.708" x2="584.797" y2="265.005"/>
	</g>
	<g id="POLYLINE_00000103964166823406979270000011823789164966370714_">
		
			<path fill="none" stroke="#3A54F5" stroke-width="2.5" stroke-linecap="round" stroke-linejoin="round" stroke-miterlimit="10" d="
			M611.895,288.366c0,0,3.838-0.113,3.838-0.113c0.027-0.002,0.061-0.002,0.088-0.006c0.116-0.012,0.232-0.039,0.341-0.082
			c0.342-0.133,0.619-0.422,0.736-0.77c0.036-0.104,0.058-0.213,0.066-0.322c0.002-0.036,0.004-0.074,0.003-0.11
			c0,0-0.026-1.204-0.026-1.204c-0.19-7.3-1.459-14.743-2.87-21.901c-0.101-0.363-0.328-0.69-0.634-0.912
			c-0.168-0.123-0.36-0.214-0.562-0.268c-0.084-0.022-0.172-0.039-0.258-0.048c-0.311-0.064-27.546-0.278-27.82-0.317"/>
	</g>
	<g id="POLYLINE_00000048460123259074457730000006122997113709050013_">
		
			<path fill="none" stroke="#3A54F5" stroke-width="2.5" stroke-linecap="round" stroke-linejoin="round" stroke-miterlimit="10" d="
			M577.954,262.314c-0.273-0.002-27.558,0.301-27.82,0.317c-0.087,0.009-0.174,0.025-0.259,0.048
			c-0.201,0.054-0.393,0.145-0.562,0.268c-0.31,0.225-0.539,0.558-0.638,0.928c-1.406,7.155-2.676,14.588-2.865,21.884
			c0,0-0.026,1.204-0.026,1.204c0,0.042,0.001,0.09,0.005,0.132c0.01,0.109,0.034,0.218,0.071,0.321
			c0.126,0.353,0.417,0.641,0.77,0.764c0.124,0.044,0.256,0.069,0.387,0.073c0,0,3.838,0.113,3.838,0.113"/>
	</g>
	<g id="POLYLINE_00000004510363381897728450000016577617125615456659_">
		
			<path fill="none" stroke="#3A54F5" stroke-width="2.5" stroke-linecap="round" stroke-linejoin="round" stroke-miterlimit="10" d="
			M73.55,300.575c0,0,0-3.786,0-3.786c0.001-0.029,0.001-0.063,0.004-0.093c0.01-0.111,0.037-0.22,0.08-0.323
			c0.147-0.356,0.499-0.615,0.883-0.648c7.058,0.019,15.351,0.027,22.315,0.876c0.244,0.044,0.471,0.176,0.629,0.366
			c0.159,0.19,0.249,0.436,0.248,0.684c-0.001,0.019,0.001,2.923,0,2.94c-0.001,0.042-0.004,0.087-0.01,0.129
			c-0.021,0.152-0.076,0.3-0.158,0.429c-0.191,0.303-0.541,0.495-0.899,0.492c-0.136-0.015-22,0.016-22.115-0.004
			c-0.116-0.01-0.231-0.039-0.338-0.086C73.807,301.389,73.546,300.99,73.55,300.575z"/>
	</g>
	<g id="POLYLINE_00000167356297556173224450000006601169216763127207_">
		
			<path fill="none" stroke="#3A54F5" stroke-width="2.5" stroke-linecap="round" stroke-linejoin="round" stroke-miterlimit="10" d="
			M109.472,341.22c0.004-0.265-0.025-0.655,0.063-0.909c0.088-0.291,0.269-0.554,0.51-0.739c0.201-0.155,0.442-0.256,0.693-0.291
			c0.067-0.009,0.135-0.014,0.202-0.014c0.152,0.008,56.067-0.015,56.207,0.008c0.21,0.022,0.416,0.09,0.597,0.197
			c0.425,0.248,0.706,0.72,0.719,1.212c-0.005,0.272,0.029,0.673-0.055,0.935c-0.085,0.301-0.269,0.573-0.517,0.763
			c-0.201,0.155-0.442,0.256-0.693,0.291c-0.078,0.048-56.132-0.005-56.257,0.014c-0.075,0-0.154-0.006-0.227-0.018
			c-0.359-0.055-0.695-0.25-0.921-0.535C109.587,341.879,109.472,341.55,109.472,341.22z"/>
	</g>
	<g id="POLYLINE_00000082359199373494947650000010561359511667833995_">
		
			<path fill="none" stroke="#3A54F5" stroke-width="2.5" stroke-linecap="round" stroke-linejoin="round" stroke-miterlimit="10" d="
			M167.903,338.711c-0.018,0.042-0.034,0.084-0.057,0.123c-0.058,0.105-0.138,0.199-0.236,0.268
			c-0.105,0.074-0.227,0.12-0.353,0.144c-0.072,0.014-0.146,0.021-0.219,0.022c-0.043,0.002-56.14,0-56.191,0
			c-0.142-0.003-0.287-0.021-0.421-0.072c-0.1-0.038-0.193-0.097-0.263-0.179c-0.065-0.075-0.108-0.168-0.131-0.264
			c-0.046-0.195-0.025-0.4,0.014-0.595c0.055-0.423,1.079-2.69,1.244-3.134c0.08-0.192,0.19-0.375,0.337-0.524
			c0.261-0.271,0.637-0.393,1.007-0.398c17.522,0.12,36.354,0.632,53.767,2.274c0.303,0.047,0.603,0.146,0.85,0.332
			c0.284,0.207,0.519,0.492,0.637,0.825C168.022,337.911,168.001,338.328,167.903,338.711z"/>
	</g>
	<g id="POLYLINE_00000048460127223870050810000016474211644343297673_">
		
			<path fill="none" stroke="#3A54F5" stroke-width="2.5" stroke-linecap="round" stroke-linejoin="round" stroke-miterlimit="10" d="
			M74.031,301.467l0.738,37.141c0.001,0.091,0.003,0.199,0.009,0.289c0.018,0.301,0.06,0.605,0.153,0.893
			c0.08,0.248,0.2,0.488,0.375,0.683c0.171,0.193,0.395,0.337,0.639,0.419c0.181,0.062,0.373,0.093,0.563,0.103
			c0.046,0.002,0.098,0.004,0.143,0.004c0,0,17.889,0,17.889,0H76.652"/>
	</g>
	<g id="POLYLINE_00000178191874474721545490000003368183713994862511_">
		
			<path fill="none" stroke="#3A54F5" stroke-width="2.5" stroke-linecap="round" stroke-linejoin="round" stroke-miterlimit="10" d="
			M97.212,301.477c-0.02,9.046-0.301,27.905-0.502,37.044c-0.012,0.256-0.041,0.518-0.096,0.768
			c-0.063,0.289-0.161,0.574-0.314,0.827c-0.168,0.281-0.414,0.516-0.708,0.662c-0.324,0.163-0.692,0.221-1.052,0.221v1.69h17.194"
			/>
	</g>
	<g id="POLYLINE_00000062150952885308001040000010701800362809822117_">
		
			<path fill="none" stroke="#3A54F5" stroke-width="2.5" stroke-linecap="round" stroke-linejoin="round" stroke-miterlimit="10" d="
			M76.652,344.379v-3.38v7.168c0.139,0.385,0.318,0.777,0.633,1.051c0.659,3.255,0.984,6.603,0.962,9.925
			c-0.01,2.355-0.188,4.76-0.68,7.066c-0.305,1.089-0.45,2.229-0.511,3.356v18.475c0,0.04-0.001,0.118-0.002,0.158
			c-0.008,0.266-0.032,0.538-0.085,0.799c-0.058,0.327-0.199,0.566-0.339,0.857c-0.088,0.19-0.15,0.394-0.198,0.599
			c-0.104,0.455-0.154,0.924-0.151,1.39c0.004,0.067,0.012,0.136,0.035,0.2c0.027,0.084,0.088,0.162,0.174,0.189
			c0.09,0.062,79.273-0.01,79.374,0.013c0.095-0.006,0.191-0.026,0.277-0.066c0.124-0.057,0.225-0.159,0.286-0.28
			c0.105-0.205,0.124-0.443,0.121-0.67c-0.093-1.246-3.38-22.497-3.433-23.418c-0.087-0.885-0.123-1.794-0.041-2.68
			c0.096-1.161,0.487-2.292,1.16-3.245c1.386-1.965,3.585-3.256,5.486-4.665c1.554-1.128,2.953-2.48,4.156-3.976
			c2.175-2.674,3.868-5.912,4.042-9.408c0.004-0.308-0.032-0.647-0.241-0.888c-0.168-0.194-0.433-0.263-0.682-0.261"/>
	</g>
	<g id="POLYLINE_00000113339927536416586840000012853849998277962112_">
		
			<path fill="none" stroke="#3A54F5" stroke-width="2.5" stroke-linecap="round" stroke-linejoin="round" stroke-miterlimit="10" d="
			M73.95,274.846c0.537-0.002,1.071,0.211,1.459,0.582c0.556,0.519,0.79,1.346,0.589,2.079c-0.16,0.615-0.612,1.144-1.195,1.397
			c-0.211,0.093-0.44,0.151-0.67,0.171c-0.058,0.005-0.124,0.008-0.183,0.008c0,0-5.51,0-5.51,0v-4.238H73.95z"/>
	</g>
	<g id="POLYLINE_00000000192591828149079330000016605455298539045796_">
		
			<rect x="66.745" y="271.879" fill="none" stroke="#3A54F5" stroke-width="2.5" stroke-linecap="round" stroke-linejoin="round" stroke-miterlimit="10" width="1.695" height="10.172"/>
	</g>
	<g id="POLYLINE_00000023989237852902571190000001188698461204601000_">
		
			<path fill="none" stroke="#3A54F5" stroke-width="2.5" stroke-linecap="round" stroke-linejoin="round" stroke-miterlimit="10" d="
			M107.48,274.846h142.313c0.677-0.019,1.352,0.311,1.751,0.859c0.424,0.566,0.534,1.347,0.279,2.007
			c-0.179,0.478-0.536,0.885-0.987,1.123c-0.196,0.104-0.409,0.178-0.627,0.217c-0.112,0.02-0.225,0.031-0.339,0.032
			c0.028,0.002-142.384-0.002-142.39,0c-0.624,0.017-1.248-0.26-1.653-0.736c-0.369-0.426-0.556-1.003-0.506-1.564
			C105.415,275.674,106.366,274.819,107.48,274.846z"/>
	</g>
	<g id="POLYLINE_00000061441073862761030470000006809224340323162535_">
		
			<path fill="none" stroke="#3A54F5" stroke-width="2.5" stroke-linecap="round" stroke-linejoin="round" stroke-miterlimit="10" d="
			M200.252,256.574c0.008-0.412-0.015-60.795,0.008-61.171c0.012-0.14,0.039-0.281,0.079-0.416c0.095-0.321,0.268-0.62,0.499-0.862
			c0.405-0.428,0.995-0.672,1.584-0.655c0.59,0.012,1.167,0.284,1.551,0.732c0.22,0.254,0.378,0.561,0.457,0.888
			c0.033,0.136,0.053,0.277,0.058,0.417c0.007,0.226-0.002,60.924,0.001,61.17c-0.004,0.157-0.026,0.316-0.065,0.468
			c-0.133,0.529-0.481,1-0.947,1.283c-0.427,0.263-0.949,0.366-1.444,0.285c-0.504-0.08-0.975-0.35-1.299-0.745
			C200.414,257.581,200.239,257.077,200.252,256.574z"/>
	</g>
	<g id="POLYLINE_00000027577177596442062840000003452532801576464026_">
		
			<path fill="none" stroke="#3A54F5" stroke-width="2.5" stroke-linecap="round" stroke-linejoin="round" stroke-miterlimit="10" d="
			M204.49,251.998c2.111,0.961,3.31,3.27,2.882,5.549c-0.438,2.4-2.561,4.167-5.001,4.16c-2.417,0.007-4.528-1.729-4.99-4.101
			c-0.459-2.296,0.739-4.638,2.871-5.608"/>
	</g>
	<g id="POLYLINE_00000145020879861718665340000009555253966441734036_">
		
			<path fill="none" stroke="#3A54F5" stroke-width="2.5" stroke-linecap="round" stroke-linejoin="round" stroke-miterlimit="10" d="
			M200.252,200.213c-2.111-0.961-3.31-3.27-2.882-5.549c0.438-2.4,2.561-4.167,5.001-4.161c2.417-0.007,4.528,1.729,4.99,4.101
			c0.459,2.296-0.739,4.638-2.871,5.608"/>
	</g>
	<g id="POLYLINE_00000081609666013594996560000016377779706076582806_">
		
			<path fill="none" stroke="#3A54F5" stroke-width="2.5" stroke-linecap="round" stroke-linejoin="round" stroke-miterlimit="10" d="
			M245.216,274.846c0.961-2.111,3.27-3.31,5.549-2.882c2.4,0.438,4.167,2.561,4.16,5.001c0.007,2.417-1.729,4.528-4.101,4.99
			c-2.296,0.459-4.638-0.739-5.608-2.871"/>
	</g>
	<g id="POLYLINE_00000146478459526021055770000004759949391213540742_">
		
			<path fill="none" stroke="#3A54F5" stroke-width="2.5" stroke-linecap="round" stroke-linejoin="round" stroke-miterlimit="10" d="
			M112.056,279.084c-0.961,2.111-3.27,3.31-5.549,2.882c-2.4-0.438-4.167-2.561-4.16-5.001c-0.007-2.417,1.729-4.528,4.101-4.99
			c2.296-0.459,4.638,0.739,5.608,2.871"/>
	</g>
	<g id="POLYLINE_00000027589611841832313700000007466681757395033490_">
		
			<path fill="none" stroke="#3A54F5" stroke-width="2.5" stroke-linecap="round" stroke-linejoin="round" stroke-miterlimit="10" d="
			M409.781,300.028c0.002,0.111-0.004,38.211,0.002,38.313c0.007,0.202,0.034,0.408,0.079,0.605c0.07,0.306,0.187,0.603,0.343,0.875
			c0.457,0.806,1.281,1.39,2.194,1.554c0.929,0.176,1.928-0.09,2.646-0.705c0.523-0.442,0.897-1.056,1.049-1.724
			c0.041-0.179,0.067-0.366,0.077-0.549c0.006-0.006,0.005-1.796,0.004-1.865c0-1.025,0.216-2.055,0.629-2.993
			c0.6-1.372,1.629-2.553,2.905-3.337c0.8-0.493,1.699-0.834,2.624-0.995c0.332-0.058,0.684-0.095,1.02-0.106
			c0.06,0.001,0.196-0.007,0.257-0.004c0,0,4.237,0,4.237,0"/>
	</g>
	<g id="POLYLINE_00000159434507048407936760000011937801498791693970_">
		
			<path fill="none" stroke="#3A54F5" stroke-width="2.5" stroke-linecap="round" stroke-linejoin="round" stroke-miterlimit="10" d="
			M405.543,300.028v38.202c0.005,0.065-0.001,0.194,0.004,0.258c0.008,0.207,0.025,0.438,0.05,0.643
			c0.062,0.509,0.18,1.021,0.346,1.507c0.333,0.976,0.875,1.884,1.576,2.641c2.623,2.845,7.033,3.19,10.066,0.788
			c1.56-1.222,2.59-3.091,2.788-5.063c0.087-0.653,0.011-2.027,0.048-2.692c0.016-0.237,0.06-0.477,0.129-0.704
			c0.201-0.67,0.63-1.269,1.199-1.675c0.388-0.278,0.842-0.468,1.312-0.55c0.214-0.09,4.442-0.033,4.787-0.048"/>
	</g>
	<g id="POLYLINE_00000012463840661999058030000015013229918658874496_">
		
			<line fill="none" stroke="#3A54F5" stroke-width="2.5" stroke-linecap="round" stroke-linejoin="round" stroke-miterlimit="10" x1="427.849" y1="333.334" x2="427.849" y2="329.096"/>
	</g>
	<g id="POLYLINE_00000085221267293578173870000004289929809812827812_">
		
			<path fill="none" stroke="#3A54F5" stroke-width="2.5" stroke-linecap="round" stroke-linejoin="round" stroke-miterlimit="10" d="
			M432.935,290.455c-18.969-0.068-40.255,0.138-59.092-1.537c-0.256-0.044-0.501-0.147-0.711-0.3
			c-0.218-0.158-0.397-0.37-0.517-0.61c-0.097-0.194-0.157-0.406-0.174-0.622c-0.193-2.483-0.411-5.427-0.486-7.912
			c0.003-0.201,0.03-0.404,0.08-0.599c0.185-0.735,0.718-1.371,1.41-1.681c0.243-0.111,0.505-0.183,0.771-0.213
			c1.785-0.054,6.114,0.032,7.836-0.063c6.784-0.313,13.624-1.518,20.235-3.041c6.702-1.612,13.482-3.573,19.724-6.53
			c1.412-0.688,2.844-1.458,4.135-2.357c0.762-0.535,1.51-1.128,2.133-1.824c0,0,0.07-0.079,0.07-0.079s0.068-0.079,0.068-0.079
			s0.065-0.079,0.065-0.079c0.048-0.059,0.105-0.119,0.161-0.171c0.129-0.12,0.279-0.22,0.438-0.294
			c0.151-0.07,0.314-0.118,0.478-0.141c0,0,0.029-0.004,0.029-0.004s0.029-0.003,0.029-0.003s0.029-0.003,0.029-0.003
			s0.029-0.002,0.029-0.002s0.029-0.002,0.029-0.002l0.029-0.001l0.029-0.001c0,0,0.029,0,0.029,0s3.143,0,3.143,0V290.455z"/>
	</g>
	<g id="POLYLINE_00000158723530341233127770000003136382246326634633_">
		
			<line fill="none" stroke="#3A54F5" stroke-width="2.5" stroke-linecap="round" stroke-linejoin="round" stroke-miterlimit="10" x1="427.849" y1="329.096" x2="431.731" y2="325.542"/>
	</g>
	<g id="POLYLINE_00000045608480671030642300000001865342621929988257_">
		
			<line fill="none" stroke="#3A54F5" stroke-width="2.5" stroke-linecap="round" stroke-linejoin="round" stroke-miterlimit="10" x1="427.849" y1="333.334" x2="431.731" y2="336.889"/>
	</g>
	<g id="POLYLINE_00000019657695643177215540000011188724876573864095_">
		
			<rect x="431.731" y="325.542" fill="none" stroke="#3A54F5" stroke-width="2.5" stroke-linecap="round" stroke-linejoin="round" stroke-miterlimit="10" width="1.204" height="11.347"/>
	</g>
	<g id="POLYLINE_00000168810858216432110280000012611805172794431890_">
		
			<path fill="none" stroke="#3A54F5" stroke-width="2.5" stroke-linecap="round" stroke-linejoin="round" stroke-miterlimit="10" d="
			M380.198,289.416c1.257,2.108,2.885,4.056,5.002,5.339c1.571,0.971,3.345,1.584,5.139,1.994c2.65,0.6,5.428,0.818,8.138,0.948
			c1.063,0.051,2.486,0.077,3.549,0.105c0.092,0.011,0.182,0.037,0.266,0.077c0.119,0.057,0.224,0.142,0.305,0.246
			c0.072,0.092,0.124,0.2,0.152,0.314c0.056,0.213,0.093,0.874,0.185,1.073c0.109,0.26,0.355,0.456,0.633,0.503
			c0.048,0.008,0.098,0.013,0.147,0.013c0,0,7.897,0,7.897,0c0.054,0,0.109-0.005,0.162-0.016c0.277-0.052,0.52-0.252,0.624-0.514
			c0.022-0.054,0.039-0.112,0.049-0.17c0.019-0.046,0.622-4.469,0.638-4.518c0.014-0.087,0.041-0.172,0.081-0.25
			c0.062-0.122,0.154-0.229,0.265-0.308c0.141-0.093,0.305-0.16,0.448-0.25c0.352-0.208,0.682-0.464,0.966-0.76
			c0.733-0.755,1.125-1.782,1.249-2.815"/>
	</g>
	<g id="POLYLINE_00000161622986709360016980000009897030895440126394_">
		
			<path fill="none" stroke="#3A54F5" stroke-width="2.5" stroke-linecap="round" stroke-linejoin="round" stroke-miterlimit="10" d="
			M426.012,258.535l-2.574,2.232h-4.269v-4.662h-8.477v-1.271c3.791,0,11.565,0,15.32,0V258.535z"/>
	</g>
	<g id="POLYLINE_00000141434985191008228040000013949672154014407356_">
		
			<polyline fill="none" stroke="#3A54F5" stroke-width="2.5" stroke-linecap="round" stroke-linejoin="round" stroke-miterlimit="10" points="
			424.725,259.651 424.725,261.614 420.487,261.614 420.487,260.767 		"/>
	</g>
	<g id="POLYLINE_00000094581204473704312930000006469771383435253943_">
		
			<path fill="none" stroke="#3A54F5" stroke-width="2.5" stroke-linecap="round" stroke-linejoin="round" stroke-miterlimit="10" d="
			M419.169,268.619v-3.613h-13.5v-3.391c4.525,0,15.967,0,20.344,0v3.467"/>
	</g>
	<g id="POLYLINE_00000060711520405457132720000003958745626645172624_">
		
			<path fill="none" stroke="#3A54F5" stroke-width="2.5" stroke-linecap="round" stroke-linejoin="round" stroke-miterlimit="10" d="
			M432.935,505.086c-19.193,0.01-39.237,0.815-58.342,2.651c-0.357,0.059-0.692,0.236-0.942,0.498
			c-0.23,0.239-0.387,0.546-0.445,0.872c-0.826,10.354-1.291,21.196-1.302,31.582c0.012,10.385,0.476,21.229,1.302,31.582
			c0.059,0.326,0.215,0.633,0.445,0.872c0.25,0.261,0.586,0.439,0.942,0.498c19.103,1.834,39.152,2.643,58.342,2.651
			C432.935,576.289,432.935,505.086,432.935,505.086z"/>
	</g>
	<g id="POLYLINE_00000057845650865753578230000016567408422267435919_">
		
			<path fill="none" stroke="#3A54F5" stroke-width="2.5" stroke-linecap="round" stroke-linejoin="round" stroke-miterlimit="10" d="
			M378.885,509.614c8.466-0.157,18.452-0.469,26.862-0.06c3.684,0.175,7.419,0.563,11.002,1.461c1.899,0.466,3.846,0.98,5.642,1.756
			c1.066,0.463,2.11,1.024,3.004,1.773c0.814,0.68,1.497,1.543,1.866,2.544c0.12,0.323,0.21,0.66,0.268,1
			c0.046,0.268,0.073,0.547,0.082,0.819c0,0.065,0.005,0.166,0.004,0.229c0,0,0,21.551,0,21.551v21.551
			c-0.002,0.046,0,0.18-0.004,0.229c-0.01,0.271-0.036,0.551-0.082,0.819c-0.058,0.34-0.147,0.677-0.268,1
			c-0.368,1.001-1.051,1.865-1.866,2.544c-0.832,0.698-1.796,1.232-2.783,1.676c-1.541,0.688-3.199,1.175-4.831,1.597
			c-1.576,0.392-3.289,0.793-4.893,1.037c-2.334,0.369-4.78,0.559-7.14,0.68c-8.395,0.41-18.422,0.108-26.862-0.06"/>
	</g>
	<g id="POLYLINE_00000121263663557986353320000005715335467494867601_">
		
			<path fill="none" stroke="#3A54F5" stroke-width="2.5" stroke-linecap="round" stroke-linejoin="round" stroke-miterlimit="10" d="
			M422.591,544.11c0.867,0.003,1.729-0.341,2.356-0.94c0.821-0.769,1.215-1.957,1.016-3.064c-0.18-1.084-0.918-2.052-1.916-2.514
			c-0.348-0.164-0.726-0.269-1.109-0.307c-0.101-0.01-0.207-0.016-0.309-0.017c-0.051-0.022-11.887,0.015-11.936,0v6.844H422.591z"
			/>
	</g>
	<g id="POLYLINE_00000005247443510769555220000002119267066328479646_">
		
			<path fill="none" stroke="#3A54F5" stroke-width="2.5" stroke-linecap="round" stroke-linejoin="round" stroke-miterlimit="10" d="
			M422.591,544.11c0.838,0.003,1.671-0.318,2.291-0.88c0.812-0.723,1.238-1.847,1.109-2.927c-0.121-1.132-0.845-2.17-1.867-2.673
			c-0.358-0.18-0.749-0.296-1.147-0.341c-0.114-0.013-0.233-0.02-0.348-0.022c-0.052-0.019-16.91,0.013-16.96,0v6.844H422.591z"/>
	</g>
	<g id="POLYLINE_00000023276847912112863300000011823914954021387684_">
		
			<path fill="none" stroke="#3A54F5" stroke-width="2.5" stroke-linecap="round" stroke-linejoin="round" stroke-miterlimit="10" d="
			M415.986,537.266c-0.206-5.356-0.874-10.756-2.053-15.986c-0.26-0.979-0.745-1.899-1.405-2.668
			c-0.878-1.027-2.071-1.78-3.377-2.131c-0.306-0.083-0.622-0.145-0.937-0.184c-3.488-0.372-7.4-0.617-10.907-0.766
			c-1.878-0.071-6.25-0.211-8.168-0.2c-0.382,0.022-0.767,0.077-1.14,0.163c-1.697,0.386-3.224,1.455-4.165,2.92
			c-0.437,0.674-0.753,1.427-0.928,2.211c-1.225,6.588-1.79,13.364-1.794,20.063c0.005,6.699,0.57,13.475,1.794,20.063
			c0.18,0.808,0.511,1.585,0.969,2.275c0.944,1.432,2.451,2.476,4.124,2.856c0.373,0.086,0.757,0.141,1.14,0.163
			c1.931,0.014,6.282-0.131,8.168-0.2c3.53-0.155,7.459-0.391,10.969-0.774c0.315-0.042,0.631-0.107,0.937-0.193
			c1.281-0.357,2.45-1.103,3.314-2.114c0.66-0.769,1.145-1.688,1.405-2.668c1.179-5.23,1.847-10.63,2.053-15.986"/>
	</g>
	<g id="POLYLINE_00000078031139268574729000000001773313722444026505_">
		
			<path fill="none" stroke="#3A54F5" stroke-width="2.5" stroke-linecap="round" stroke-linejoin="round" stroke-miterlimit="10" d="
			M204.49,444.054c0.378-0.008,39.694,0.012,40.03-0.005c0.223-0.013,0.448-0.048,0.664-0.104c0.354-0.092,0.695-0.243,1.002-0.443
			c0.946-0.609,1.543-1.712,1.535-2.838l4.238,0c0.01,2.934-1.724,5.665-4.383,6.904c-1.011,0.476-2.128,0.725-3.245,0.725
			c-0.62-0.02-131.28,0.029-131.814-0.012c-0.289-0.016-0.589-0.05-0.874-0.1c-0.671-0.116-1.33-0.324-1.945-0.613
			c-1.36-0.637-2.524-1.688-3.295-2.977c-0.709-1.178-1.09-2.552-1.088-3.927h4.238c-0.007,1.111,0.573,2.2,1.499,2.814
			c0.316,0.212,0.669,0.372,1.038,0.467c0.217,0.056,0.441,0.092,0.665,0.104c0.215,0.022,87.28-0.005,87.499,0.005"/>
	</g>
	<g id="POLYLINE_00000072244164298872502220000000553604275490836377_">
		
			<rect x="197.285" y="438.968" fill="none" stroke="#3A54F5" stroke-width="2.5" stroke-linecap="round" stroke-linejoin="round" stroke-miterlimit="10" width="10.172" height="1.695"/>
	</g>
	<g id="POLYLINE_00000117672758459838416990000007979547148553243524_">
		
			<path fill="none" stroke="#3A54F5" stroke-width="2.5" stroke-linecap="round" stroke-linejoin="round" stroke-miterlimit="10" d="
			M200.252,446.173c-0.002,0.537,0.211,1.071,0.582,1.459c0.519,0.554,1.337,0.788,2.07,0.592c0.619-0.158,1.152-0.611,1.406-1.198
			c0.089-0.202,0.146-0.419,0.168-0.638c0.007-0.07,0.011-0.144,0.011-0.215c0,0,0-5.51,0-5.51h-4.238V446.173z"/>
	</g>
	<g id="POLYLINE_00000045598963827285628520000009164964766684596920_">
		
			<rect x="102.347" y="438.968" fill="none" stroke="#3A54F5" stroke-width="2.5" stroke-linecap="round" stroke-linejoin="round" stroke-miterlimit="10" width="10.172" height="1.695"/>
	</g>
	<g id="POLYLINE_00000149348252121935099950000012739166958233851070_">
		
			<rect x="244.754" y="438.968" fill="none" stroke="#3A54F5" stroke-width="2.5" stroke-linecap="round" stroke-linejoin="round" stroke-miterlimit="10" width="10.172" height="1.695"/>
	</g>
	<g id="POLYLINE_00000026846899197011137170000012548953375987233664_">
		
			<path fill="none" stroke="#3A54F5" stroke-width="2.5" stroke-linecap="round" stroke-linejoin="round" stroke-miterlimit="10" d="
			M76.069,529.732c0.099,0.359,0.238,0.711,0.442,1.024c0.208,0.32,0.475,0.6,0.77,0.842c0.654,0.532,1.451,0.907,2.294,0.999
			c0.527,0.06,1.065,0.02,1.589-0.048c1.243-0.17,2.525-0.472,3.744-0.773c3.504-0.891,7.004-2.014,10.145-3.836
			c0.12-0.067,0.239-0.143,0.347-0.227c0.309-0.238,0.554-0.56,0.696-0.924c0.093-0.235,0.147-0.486,0.17-0.737
			c0.885-8.526,1.336-17.481,1.246-26.051c0.09-8.584-0.362-17.553-1.25-26.091c-0.026-0.249-0.084-0.499-0.18-0.731
			c-0.148-0.362-0.399-0.68-0.712-0.913c-3.198-1.97-6.846-3.108-10.462-4.041c-1.219-0.299-2.5-0.603-3.744-0.773
			c-0.539-0.069-1.092-0.11-1.633-0.043c-0.853,0.103-1.658,0.495-2.311,1.046c-0.29,0.247-0.552,0.533-0.751,0.859
			c-0.181,0.295-0.307,0.623-0.399,0.956"/>
	</g>
	<g id="POLYLINE_00000000191861518548975550000000317039713415319976_">
		
			<path fill="none" stroke="#3A54F5" stroke-width="2.5" stroke-linecap="round" stroke-linejoin="round" stroke-miterlimit="10" d="
			M168.464,500c0.006-3.302-0.997-6.596-2.828-9.342c-0.519-0.786-1.126-1.539-1.763-2.233c-1.016-1.116-2.147-2.2-3.305-3.168
			c-2.224-1.86-4.712-3.445-7.335-4.679c-4.267-1.969-8.886-3.171-13.502-3.987c-2.255-0.214-5.237-0.528-7.467-0.593
			c-1.129-0.026-2.366,0.003-3.493,0.061c-3.307,0.174-6.631,0.69-9.851,1.46c-3.312,0.808-6.603,1.908-9.653,3.44
			c-0.164,0.105-0.291,0.266-0.354,0.45c-0.026,0.075-0.041,0.154-0.045,0.233c0.012,1.064-0.011,16.793-0.001,18.358
			c-0.003,0.013,0.002,18.318,0,18.329c0.001,0.048,0.006,0.098,0.015,0.146c0.013,0.067,0.034,0.133,0.062,0.195
			c0.069,0.151,0.183,0.282,0.322,0.372c3.049,1.532,6.341,2.633,9.653,3.44c3.22,0.77,6.544,1.286,9.851,1.46
			c1.014,0.054,2.154,0.079,3.17,0.068c2.36-0.038,5.424-0.384,7.79-0.599c4.616-0.816,9.235-2.017,13.502-3.987
			c2.623-1.234,5.111-2.82,7.335-4.679c1.158-0.969,2.288-2.052,3.305-3.168c0.637-0.694,1.245-1.447,1.763-2.233
			C167.468,506.596,168.47,503.302,168.464,500z"/>
	</g>
	<g id="POLYLINE_00000071557265480163532170000010372521284866443449_">
		
			<path fill="none" stroke="#3A54F5" stroke-width="2.5" stroke-linecap="round" stroke-linejoin="round" stroke-miterlimit="10" d="
			M96.899,518.923c6.878,1.487,18.843,3.24,25.918,4.354"/>
	</g>
	<g id="POLYLINE_00000030454974655160797810000013773678553228455553_">
		
			<path fill="none" stroke="#3A54F5" stroke-width="2.5" stroke-linecap="round" stroke-linejoin="round" stroke-miterlimit="10" d="
			M96.899,481.077c6.878-1.487,18.843-3.24,25.918-4.354"/>
	</g>
	<g id="POLYLINE_00000111874738369716651760000012217498665518248067_">
		
			<path fill="none" stroke="#3A54F5" stroke-width="2.5" stroke-linecap="round" stroke-linejoin="round" stroke-miterlimit="10" d="
			M108.867,511.63c-0.25-0.009-4.712,0.023-4.828-0.022c-0.214-0.023-0.427-0.076-0.624-0.163c-0.65-0.284-1.166-0.881-1.303-1.583
			c-0.177-0.804,0.08-1.678,0.257-2.462c0.218-1.015,0.325-2.096,0.401-3.132c0.084-1.323,0.204-2.947,0.204-4.268
			c0-1.32-0.121-2.947-0.204-4.268c-0.076-1.035-0.183-2.116-0.401-3.132c-0.176-0.786-0.434-1.657-0.257-2.462
			c0.137-0.702,0.652-1.299,1.303-1.583c0.197-0.087,0.41-0.14,0.624-0.163c0.106-0.044,4.593-0.014,4.828-0.022V511.63z"/>
	</g>
	<g id="POLYLINE_00000182514915549125110760000002804291618897615500_">
		
			<rect x="106.453" y="511.63" fill="none" stroke="#3A54F5" stroke-width="2.5" stroke-linecap="round" stroke-linejoin="round" stroke-miterlimit="10" width="2.414" height="4.235"/>
	</g>
	<g id="POLYLINE_00000093864567315643640570000006234525804874486463_">
		
			<rect x="106.453" y="484.135" fill="none" stroke="#3A54F5" stroke-width="2.5" stroke-linecap="round" stroke-linejoin="round" stroke-miterlimit="10" width="2.414" height="4.235"/>
	</g>
	<g id="POLYLINE_00000044175100285983416140000007601249982671773364_">
		
			<path fill="none" stroke="#3A54F5" stroke-width="2.5" stroke-linecap="round" stroke-linejoin="round" stroke-miterlimit="10" d="
			M68.44,461.431c0.742-0.001,1.482,0.25,2.069,0.704c0.582,0.446,1.011,1.086,1.202,1.793c0.063,0.23,0.101,0.467,0.115,0.704
			c0.021-0.042-0.004,111.2,0.005,111.233c0,0.315-0.044,0.631-0.131,0.933c-0.208,0.734-0.673,1.391-1.296,1.831
			c-0.568,0.405-1.265,0.628-1.963,0.626l0,4.238c2.933,0.01,5.666-1.724,6.904-4.383c0.29-0.616,0.497-1.274,0.613-1.945
			c0.049-0.287,0.083-0.583,0.1-0.874c0.046-0.164-0.008-111.207,0.012-111.47c0.001-1.117-0.249-2.235-0.725-3.245
			c-0.637-1.361-1.688-2.524-2.977-3.295c-1.178-0.709-2.552-1.09-3.927-1.088V461.431z"/>
	</g>
	<g id="POLYLINE_00000067921040565563609190000013507770919972657554_">
		
			<rect x="66.745" y="576.289" fill="none" stroke="#3A54F5" stroke-width="2.5" stroke-linecap="round" stroke-linejoin="round" stroke-miterlimit="10" width="1.695" height="10.172"/>
	</g>
	<g id="POLYLINE_00000093159914392466899070000002048771753921583548_">
		
			<rect x="66.745" y="454.226" fill="none" stroke="#3A54F5" stroke-width="2.5" stroke-linecap="round" stroke-linejoin="round" stroke-miterlimit="10" width="1.695" height="10.172"/>
	</g>
</g>
<g id="_x32_D_x24_AG-BUILDINGS">
</g>
<g id="_x32_D_x24_AG-OUTLINE">
</g>
<g id="Isolation_Mode">
</g>
</svg>
