<?xml version="1.0" encoding="utf-8"?>
<!-- Generator: Adobe Illustrator 28.3.0, SVG Export Plug-In . SVG Version: 6.00 Build 0)  -->
<!DOCTYPE svg PUBLIC "-//W3C//DTD SVG 1.1//EN" "http://www.w3.org/Graphics/SVG/1.1/DTD/svg11.dtd" [
	<!ENTITY ns_extend "http://ns.adobe.com/Extensibility/1.0/">
	<!ENTITY ns_ai "http://ns.adobe.com/AdobeIllustrator/10.0/">
	<!ENTITY ns_graphs "http://ns.adobe.com/Graphs/1.0/">
	<!ENTITY ns_vars "http://ns.adobe.com/Variables/1.0/">
	<!ENTITY ns_imrep "http://ns.adobe.com/ImageReplacement/1.0/">
	<!ENTITY ns_sfw "http://ns.adobe.com/SaveForWeb/1.0/">
	<!ENTITY ns_custom "http://ns.adobe.com/GenericCustomNamespace/1.0/">
	<!ENTITY ns_adobe_xpath "http://ns.adobe.com/XPath/1.0/">
]>
<svg version="1.1" xmlns:x="&ns_extend;" xmlns:i="&ns_ai;" xmlns:graph="&ns_graphs;"
	 xmlns="http://www.w3.org/2000/svg" xmlns:xlink="http://www.w3.org/1999/xlink" x="0px" y="0px" width="1000px" height="350px"
	 viewBox="0 0 1000 350" enable-background="new 0 0 1000 350" xml:space="preserve">
<metadata>
	<sfw  xmlns="&ns_sfw;">
		<slices></slices>
		<sliceSourceBounds  bottomLeftOrigin="true" height="8357.844" width="10589.988" x="-2600.988" y="-958"></sliceSourceBounds>
	</sfw>
</metadata>
<g id="FILL-BACKGROUND">
</g>
<g id="N-DIMENSIONS">
</g>
<g id="N-TEXT">
</g>
<g id="_x32_D_x24_AG-DIAGRAM">
	<g id="POLYLINE_00000175285442306730244340000014180839137339789706_">
		<g>
			<g>
				<polyline fill="none" stroke="#3A54F5" stroke-width="2.5" stroke-linecap="round" stroke-linejoin="round" points="
					275.396,283.746 273.896,283.746 273.896,282.246 				"/>
				
					<line fill="none" stroke="#3A54F5" stroke-width="2.5" stroke-linecap="round" stroke-linejoin="round" stroke-dasharray="3.0004,5.0006" x1="273.896" y1="277.245" x2="273.896" y2="63.719"/>
				<polyline fill="none" stroke="#3A54F5" stroke-width="2.5" stroke-linecap="round" stroke-linejoin="round" points="
					273.896,61.219 273.896,59.719 275.396,59.719 				"/>
				
					<line fill="none" stroke="#3A54F5" stroke-width="2.5" stroke-linecap="round" stroke-linejoin="round" stroke-dasharray="2.9672,4.9454" x1="280.342" y1="59.719" x2="451.946" y2="59.719"/>
				<polyline fill="none" stroke="#3A54F5" stroke-width="2.5" stroke-linecap="round" stroke-linejoin="round" points="
					454.418,59.719 455.918,59.719 455.918,61.219 				"/>
				
					<line fill="none" stroke="#3A54F5" stroke-width="2.5" stroke-linecap="round" stroke-linejoin="round" stroke-dasharray="3.0004,5.0006" x1="455.918" y1="66.219" x2="455.918" y2="279.745"/>
				<polyline fill="none" stroke="#3A54F5" stroke-width="2.5" stroke-linecap="round" stroke-linejoin="round" points="
					455.918,282.246 455.918,283.746 454.418,283.746 				"/>
				
					<line fill="none" stroke="#3A54F5" stroke-width="2.5" stroke-linecap="round" stroke-linejoin="round" stroke-dasharray="2.9672,4.9454" x1="449.473" y1="283.746" x2="277.869" y2="283.746"/>
			</g>
		</g>
	</g>
	<g id="POLYLINE_00000067942122462206845800000001360593488890674337_">
		<g>
			<g>
				<polyline fill="none" stroke="#3A54F5" stroke-width="2.5" stroke-linecap="round" stroke-linejoin="round" points="
					940.281,282.246 940.281,283.746 938.781,283.746 				"/>
				
					<line fill="none" stroke="#3A54F5" stroke-width="2.5" stroke-linecap="round" stroke-linejoin="round" stroke-dasharray="3.0296,5.0494" x1="933.732" y1="283.746" x2="734.281" y2="283.746"/>
				<polyline fill="none" stroke="#3A54F5" stroke-width="2.5" stroke-linecap="round" stroke-linejoin="round" points="
					731.756,283.746 730.256,283.746 730.256,282.246 				"/>
				
					<line fill="none" stroke="#3A54F5" stroke-width="2.5" stroke-linecap="round" stroke-linejoin="round" stroke-dasharray="3.0004,5.0006" x1="730.256" y1="277.245" x2="730.256" y2="63.719"/>
				<polyline fill="none" stroke="#3A54F5" stroke-width="2.5" stroke-linecap="round" stroke-linejoin="round" points="
					730.256,61.219 730.256,59.719 731.756,59.719 				"/>
				
					<line fill="none" stroke="#3A54F5" stroke-width="2.5" stroke-linecap="round" stroke-linejoin="round" stroke-dasharray="3.0296,5.0494" x1="736.806" y1="59.719" x2="936.257" y2="59.719"/>
				<polyline fill="none" stroke="#3A54F5" stroke-width="2.5" stroke-linecap="round" stroke-linejoin="round" points="
					938.781,59.719 940.281,59.719 940.281,61.219 				"/>
				
					<line fill="none" stroke="#3A54F5" stroke-width="2.5" stroke-linecap="round" stroke-linejoin="round" stroke-dasharray="3.0004,5.0006" x1="940.281" y1="66.219" x2="940.281" y2="279.745"/>
			</g>
		</g>
	</g>
	<g id="POLYLINE_00000175313546394362550480000005023912664218577049_">
		<g>
			<g>
				<polyline fill="none" stroke="#3A54F5" stroke-width="2.5" stroke-linecap="round" stroke-linejoin="round" points="
					61.218,276.745 59.718,276.745 59.718,275.245 				"/>
				
					<line fill="none" stroke="#3A54F5" stroke-width="2.5" stroke-linecap="round" stroke-linejoin="round" stroke-dasharray="3.0296,5.0494" x1="59.718" y1="270.195" x2="59.718" y2="70.744"/>
				<polyline fill="none" stroke="#3A54F5" stroke-width="2.5" stroke-linecap="round" stroke-linejoin="round" points="
					59.718,68.219 59.718,66.719 61.218,66.719 				"/>
				
					<line fill="none" stroke="#3A54F5" stroke-width="2.5" stroke-linecap="round" stroke-linejoin="round" stroke-dasharray="2.9672,4.9454" x1="66.164" y1="66.719" x2="237.768" y2="66.719"/>
				<polyline fill="none" stroke="#3A54F5" stroke-width="2.5" stroke-linecap="round" stroke-linejoin="round" points="
					240.24,66.719 241.74,66.719 241.74,68.219 				"/>
				
					<line fill="none" stroke="#3A54F5" stroke-width="2.5" stroke-linecap="round" stroke-linejoin="round" stroke-dasharray="3.0296,5.0494" x1="241.74" y1="73.269" x2="241.74" y2="272.72"/>
				<polyline fill="none" stroke="#3A54F5" stroke-width="2.5" stroke-linecap="round" stroke-linejoin="round" points="
					241.74,275.245 241.74,276.745 240.24,276.745 				"/>
				
					<line fill="none" stroke="#3A54F5" stroke-width="2.5" stroke-linecap="round" stroke-linejoin="round" stroke-dasharray="2.9672,4.9454" x1="235.295" y1="276.745" x2="63.691" y2="276.745"/>
			</g>
		</g>
	</g>
	<g id="POLYLINE_00000099636867864057952630000017328660513958867364_">
		<g>
			<g>
				<polyline fill="none" stroke="#3A54F5" stroke-width="2.5" stroke-linecap="round" stroke-linejoin="round" points="
					698.1,282.246 698.1,283.746 696.6,283.746 				"/>
				
					<line fill="none" stroke="#3A54F5" stroke-width="2.5" stroke-linecap="round" stroke-linejoin="round" stroke-dasharray="3.0296,5.0494" x1="691.551" y1="283.746" x2="492.099" y2="283.746"/>
				<polyline fill="none" stroke="#3A54F5" stroke-width="2.5" stroke-linecap="round" stroke-linejoin="round" points="
					489.575,283.746 488.075,283.746 488.075,282.246 				"/>
				
					<line fill="none" stroke="#3A54F5" stroke-width="2.5" stroke-linecap="round" stroke-linejoin="round" stroke-dasharray="3.0004,5.0006" x1="488.075" y1="277.245" x2="488.075" y2="63.719"/>
				<polyline fill="none" stroke="#3A54F5" stroke-width="2.5" stroke-linecap="round" stroke-linejoin="round" points="
					488.075,61.219 488.075,59.719 489.575,59.719 				"/>
				
					<line fill="none" stroke="#3A54F5" stroke-width="2.5" stroke-linecap="round" stroke-linejoin="round" stroke-dasharray="3.0296,5.0494" x1="494.624" y1="59.719" x2="694.075" y2="59.719"/>
				<polyline fill="none" stroke="#3A54F5" stroke-width="2.5" stroke-linecap="round" stroke-linejoin="round" points="
					696.6,59.719 698.1,59.719 698.1,61.219 				"/>
				
					<line fill="none" stroke="#3A54F5" stroke-width="2.5" stroke-linecap="round" stroke-linejoin="round" stroke-dasharray="3.0004,5.0006" x1="698.1" y1="66.219" x2="698.1" y2="279.745"/>
			</g>
		</g>
	</g>
</g>
<g id="_x32_D_x24_AG-DETAILS-DIAGRAM">
	<g id="POLYLINE_00000103255613865960751600000006059151504083069877_">
		<g>
			
				<path fill="none" stroke="#3A54F5" stroke-width="2.5" stroke-linecap="round" stroke-linejoin="round" stroke-dasharray="2.9987,4.9978" d="
				M241.74,206.736c0.032-23.55-11.984-45.755-31.717-58.609c-17.166-11.257-38.761-14.379-58.413-8.446
				c-19.261,5.743-35.337,19.784-43.618,38.098c-8.345,18.284-8.346,39.628,0,57.913c8.459,18.704,25.017,32.915,44.788,38.438
				c19.339,5.475,40.436,2.237,57.243-8.786C229.756,252.491,241.773,230.286,241.74,206.736z"/>
		</g>
	</g>
	<g id="POLYLINE_00000041255049149503688740000000507276257516980659_">
		<g>
			<g>
				
					<line fill="none" stroke="#3A54F5" stroke-width="2.5" stroke-linecap="round" stroke-linejoin="round" x1="101.724" y1="66.719" x2="101.724" y2="68.219"/>
				
					<line fill="none" stroke="#3A54F5" stroke-width="2.5" stroke-linecap="round" stroke-linejoin="round" stroke-dasharray="3.0296,5.0494" x1="101.724" y1="73.269" x2="101.724" y2="272.72"/>
				
					<line fill="none" stroke="#3A54F5" stroke-width="2.5" stroke-linecap="round" stroke-linejoin="round" x1="101.724" y1="275.245" x2="101.724" y2="276.745"/>
			</g>
		</g>
	</g>
	<g id="POLYLINE_00000016036654004433673580000005137900827590398363_">
		<g>
			<g>
				
					<line fill="none" stroke="#3A54F5" stroke-width="2.5" stroke-linecap="round" stroke-linejoin="round" x1="101.724" y1="136.728" x2="103.224" y2="136.728"/>
				
					<line fill="none" stroke="#3A54F5" stroke-width="2.5" stroke-linecap="round" stroke-linejoin="round" stroke-dasharray="2.9153,4.8588" x1="108.083" y1="136.728" x2="237.811" y2="136.728"/>
				
					<line fill="none" stroke="#3A54F5" stroke-width="2.5" stroke-linecap="round" stroke-linejoin="round" x1="240.24" y1="136.728" x2="241.74" y2="136.728"/>
			</g>
		</g>
	</g>
</g>
<g id="_x32_D_x24_AG-FIXTURES">
	<g id="POLYLINE_00000153678530174921409760000004592529000588956039_">
		
			<path fill="none" stroke="#3A54F5" stroke-width="2.5" stroke-linecap="round" stroke-linejoin="round" stroke-miterlimit="10" d="
			M283.371,198.658v-2.487h9.292v-2.334c-3.115,0-10.989,0-14.002,0v2.386"/>
	</g>
	<g id="POLYLINE_00000017494911445482782240000004606106185674013356_">
		
			<polyline fill="none" stroke="#3A54F5" stroke-width="2.5" stroke-linecap="round" stroke-linejoin="round" stroke-miterlimit="10" points="
			279.547,192.486 279.547,193.838 282.464,193.838 282.464,193.254 		"/>
	</g>
	<g id="POLYLINE_00000121997102982008469880000016607349604330305666_">
		
			<path fill="none" stroke="#3A54F5" stroke-width="2.5" stroke-linecap="round" stroke-linejoin="round" stroke-miterlimit="10" d="
			M278.661,191.718l1.772,1.536h2.938v-3.209h5.834v-0.875c-2.609,0-7.96,0-10.544,0V191.718z"/>
	</g>
	<g id="POLYLINE_00000062166475939278665250000002842853901333134260_">
		
			<path fill="none" stroke="#3A54F5" stroke-width="2.5" stroke-linecap="round" stroke-linejoin="round" stroke-miterlimit="10" d="
			M310.193,212.972c-0.848,1.421-1.938,2.737-3.354,3.619c-1.103,0.7-2.357,1.138-3.626,1.428c-1.824,0.413-3.736,0.563-5.601,0.652
			c-0.735,0.036-1.717,0.051-2.453,0.074c-0.076,0.01-0.151,0.036-0.217,0.076c-0.104,0.061-0.188,0.156-0.237,0.267
			c-0.057,0.112-0.096,0.571-0.121,0.697c-0.033,0.223-0.207,0.416-0.425,0.472c-0.049,0.013-0.1,0.02-0.151,0.02
			c0,0-5.435,0-5.435,0c-0.023,0-0.048-0.001-0.071-0.004c-0.203-0.023-0.387-0.162-0.466-0.351c-0.017-0.04-0.03-0.083-0.038-0.127
			c-0.019-0.016-0.423-3.081-0.438-3.1c-0.009-0.063-0.028-0.125-0.057-0.182c-0.044-0.087-0.11-0.163-0.191-0.218
			c-0.467-0.247-0.822-0.485-1.155-0.909c-0.386-0.491-0.593-1.102-0.669-1.717"/>
	</g>
	<g id="POLYLINE_00000080169273939532971270000007223997002753906599_">
		
			<rect x="273.897" y="237.836" fill="none" stroke="#3A54F5" stroke-width="2.5" stroke-linecap="round" stroke-linejoin="round" stroke-miterlimit="10" width="0.829" height="7.809"/>
	</g>
	<g id="POLYLINE_00000129903567493606426410000003226696550221038779_">
		
			<line fill="none" stroke="#3A54F5" stroke-width="2.5" stroke-linecap="round" stroke-linejoin="round" stroke-miterlimit="10" x1="277.397" y1="243.199" x2="274.725" y2="245.645"/>
	</g>
	<g id="POLYLINE_00000119819626674751375390000009050013098786500765_">
		
			<line fill="none" stroke="#3A54F5" stroke-width="2.5" stroke-linecap="round" stroke-linejoin="round" stroke-miterlimit="10" x1="277.397" y1="240.282" x2="274.725" y2="237.836"/>
	</g>
	<g id="POLYLINE_00000019669729121927593960000000330516360963948416_">
		
			<path fill="none" stroke="#3A54F5" stroke-width="2.5" stroke-linecap="round" stroke-linejoin="round" stroke-miterlimit="10" d="
			M273.897,213.687c13.11-0.07,27.828,0.145,40.838-1.099c0.229-0.075,0.433-0.223,0.575-0.417c0.116-0.157,0.191-0.344,0.216-0.537
			c0.139-1.738,0.29-3.786,0.341-5.526c-0.004-0.146-0.026-0.293-0.066-0.433c-0.136-0.488-0.496-0.906-0.959-1.114
			c-0.168-0.076-0.348-0.126-0.531-0.146c-0.904-0.034-4.02,0.011-4.875-0.025c-4.409-0.147-8.862-0.889-13.169-1.82
			c-3.262-0.723-6.637-1.639-9.795-2.732c-2.147-0.753-4.308-1.607-6.308-2.696c-1.059-0.591-2.116-1.245-2.962-2.125
			c-0.163-0.165-0.295-0.375-0.493-0.503c-0.134-0.09-0.289-0.152-0.448-0.18c-0.052-0.009-0.109-0.015-0.161-0.017
			c0,0-0.02-0.001-0.02-0.001s-0.02,0-0.02,0s-2.163,0-2.163,0S273.897,213.687,273.897,213.687z"/>
	</g>
	<g id="POLYLINE_00000029033450474567258140000008931030292971837847_">
		
			<line fill="none" stroke="#3A54F5" stroke-width="2.5" stroke-linecap="round" stroke-linejoin="round" stroke-miterlimit="10" x1="277.397" y1="243.199" x2="277.397" y2="240.282"/>
	</g>
	<g id="POLYLINE_00000017516187183170218800000013632017067188850059_">
		
			<path fill="none" stroke="#3A54F5" stroke-width="2.5" stroke-linecap="round" stroke-linejoin="round" stroke-miterlimit="10" d="
			M292.749,220.276v26.293c-0.003,0.045,0.001,0.133-0.003,0.178c-0.005,0.142-0.017,0.301-0.035,0.443
			c-0.043,0.35-0.124,0.703-0.238,1.037c-0.229,0.671-0.603,1.297-1.085,1.817c-1.827,1.983-4.913,2.197-6.997,0.487
			c-1.059-0.86-1.745-2.158-1.858-3.518c-0.046-0.403-0.001-1.354-0.025-1.765c-0.012-0.176-0.046-0.353-0.1-0.521
			c-0.142-0.446-0.433-0.844-0.814-1.116c-0.267-0.192-0.579-0.322-0.903-0.379c-0.147-0.062-3.057-0.023-3.294-0.033"/>
	</g>
	<g id="POLYLINE_00000008119918242100014340000010771575884216432273_">
		
			<path fill="none" stroke="#3A54F5" stroke-width="2.5" stroke-linecap="round" stroke-linejoin="round" stroke-miterlimit="10" d="
			M289.832,220.276c-0.008,0.151,0.009,26.277-0.003,26.407c-0.008,0.152-0.032,0.305-0.071,0.452
			c-0.062,0.233-0.164,0.458-0.298,0.658c-0.408,0.619-1.144,1-1.886,0.975c-0.865-0.016-1.668-0.575-1.985-1.38
			c-0.08-0.2-0.132-0.414-0.15-0.629c-0.022-0.324,0.004-1.304-0.015-1.625c-0.066-1.385-0.727-2.727-1.784-3.624
			c-0.648-0.555-1.439-0.945-2.274-1.12c-0.256-0.054-0.526-0.089-0.788-0.103c-0.095-0.029-3.019,0.006-3.181-0.007"/>
	</g>
	<g id="POLYLINE_00000007424084905611216130000015320040827561533104_">
		
			<path fill="none" stroke="#3A54F5" stroke-width="2.5" stroke-linecap="round" stroke-linejoin="round" stroke-miterlimit="10" d="
			M403.625,264.874c0.247,0.278,0.482,0.574,0.65,0.907c0.189,0.367,0.302,0.772,0.355,1.181c0.047,0.365,0.047,0.739,0.021,1.105
			c-0.02,0.185-0.033,0.431-0.059,0.618c0,0-1.569,14.414-1.569,14.414c-0.013,0.114,0.009,0.231,0.063,0.333
			c0.093,0.181,0.284,0.304,0.487,0.313c0.068,0.011,20.611-0.005,20.682,0c0.043-0.002,0.088-0.009,0.129-0.021
			c0.162-0.045,0.302-0.165,0.371-0.319c0.043-0.095,0.061-0.202,0.049-0.305c0,0-1.569-14.414-1.569-14.414
			c-0.011-0.071-0.042-0.422-0.049-0.493c-0.048-0.561-0.041-1.136,0.096-1.685c0.106-0.434,0.301-0.846,0.568-1.204
			c0.422-0.541,1.232-1.411,1.665-1.94c0.617-0.736,1.233-1.533,1.767-2.331c1.021-1.518,1.856-3.18,2.383-4.934
			c0.449-1.486,0.678-3.044,0.677-4.597c-0.015-0.445-0.033-0.911-0.215-1.324c-0.095-0.21-0.254-0.383-0.474-0.461
			c-0.135-0.05-0.28-0.069-0.423-0.075c-0.041-0.008-30.462,0.001-30.529-0.002c-0.178,0-0.362,0.015-0.53,0.078
			c-0.107,0.04-0.206,0.102-0.286,0.183c-0.092,0.093-0.16,0.209-0.21,0.329c-0.159,0.402-0.179,0.845-0.193,1.273
			c-0.013,2.844,0.795,5.665,2.197,8.132C400.737,261.534,402.179,263.255,403.625,264.874z"/>
	</g>
	<g id="POLYLINE_00000032624280104570459890000005178986128481794220_">
		
			<path fill="none" stroke="#3A54F5" stroke-width="2.5" stroke-linecap="round" stroke-linejoin="round" stroke-miterlimit="10" d="
			M430.343,245.939c0.001-0.299-0.154-0.575-0.354-0.789c-0.251-0.268-0.569-0.465-0.896-0.628
			c-0.488-0.239-1.017-0.402-1.545-0.522c-0.651-0.146-1.323-0.228-1.99-0.259c-0.196-0.009-0.412-0.014-0.608-0.014
			c-0.127,0.003-22.082-0.003-22.191,0.001c-0.83,0.008-1.667,0.091-2.478,0.273c-0.512,0.117-1.025,0.274-1.5,0.5
			c-0.317,0.153-0.626,0.339-0.879,0.586c-0.204,0.2-0.374,0.453-0.41,0.741c-0.003,0.028-0.006,0.058-0.006,0.087
			c0,0,0,0.012,0,0.012l0,0.012v0.333c0,0.094,0.013,0.188,0.039,0.278c0.056,0.198,0.175,0.377,0.335,0.507
			c0.105,0.086,0.228,0.15,0.359,0.187c0.068,0.02,0.139,0.032,0.21,0.037c-0.008,0.014,30.888-0.005,30.905,0.002
			c0.393,0.003,0.77-0.242,0.925-0.604C430.37,246.433,430.339,246.197,430.343,245.939z"/>
	</g>
	<g id="POLYLINE_00000074426673436267486310000005510347357751576756_">
		
			<path fill="none" stroke="#3A54F5" stroke-width="2.5" stroke-linecap="round" stroke-linejoin="round" stroke-miterlimit="10" d="
			M430.343,248.293c0.003-0.38-0.226-0.746-0.569-0.909c-0.11-0.053-0.229-0.087-0.351-0.097c0.001-0.019-30.898,0.005-30.928-0.004
			c-0.152,0-0.305,0.035-0.442,0.102c-0.237,0.114-0.425,0.324-0.511,0.572c-0.025,0.072-0.043,0.147-0.051,0.223
			c-0.003,0.03-0.006,0.061-0.006,0.091c0,0,0,0.011,0,0.011l0,0.011v0.333c-0.001,0.261,0.104,0.519,0.287,0.705
			c0.133,0.137,0.307,0.235,0.493,0.279c0.076,0.018,0.153,0.027,0.231,0.027c0.004,0.001,30.853,0,30.86,0
			c0.05-0.001,0.101-0.006,0.15-0.015c0.341-0.056,0.643-0.301,0.767-0.624c0.031-0.079,0.053-0.162,0.063-0.247
			c0.003-0.03,0.007-0.062,0.007-0.092c0.002-0.01,0-0.024,0.001-0.034C430.343,248.626,430.343,248.293,430.343,248.293z"/>
	</g>
	<g id="POLYLINE_00000093176952897724655620000000871736990230641336_">
		
			<line fill="none" stroke="#3A54F5" stroke-width="2.5" stroke-linecap="round" stroke-linejoin="round" stroke-miterlimit="10" x1="429.545" y1="247.305" x2="429.564" y2="247.256"/>
	</g>
	<g id="POLYLINE_00000005977596274335452110000018321055588083100826_">
		
			<line fill="none" stroke="#3A54F5" stroke-width="2.5" stroke-linecap="round" stroke-linejoin="round" stroke-miterlimit="10" x1="398.282" y1="247.305" x2="398.262" y2="247.256"/>
	</g>
	<g id="POLYLINE_00000174572648624436858470000002614446465698432659_">
		
			<path fill="none" stroke="#3A54F5" stroke-width="2.5" stroke-linecap="round" stroke-linejoin="round" stroke-miterlimit="10" d="
			M391.32,221.387c11.262,0,33.926,0,45.186,0"/>
	</g>
	<g id="POLYLINE_00000034787070801960798870000003853335617003094153_">
		
			<path fill="none" stroke="#3A54F5" stroke-width="2.5" stroke-linecap="round" stroke-linejoin="round" stroke-miterlimit="10" d="
			M397.484,248.574c-0.374-0.011-0.852-0.004-1.228-0.041c-0.143-0.013-0.288-0.04-0.424-0.087
			c-0.374-0.123-0.709-0.359-0.958-0.664c-0.34-0.397-0.461-0.924-0.586-1.418c-0.534-2.326-1.179-5.039-1.531-7.39
			c-0.678-4.288-1.031-8.793-1.264-13.128c-0.103-2.201-0.214-4.721-0.196-6.921c0.007-0.146,0.033-0.293,0.081-0.431
			c0.09-0.262,0.26-0.503,0.498-0.648c0.156-0.097,0.337-0.148,0.517-0.175c6.018-0.296,15.419-0.319,21.52-0.367
			c6.122,0.05,15.474,0.071,21.52,0.367c0.18,0.027,0.361,0.079,0.517,0.175c0.238,0.146,0.408,0.386,0.498,0.648
			c0.048,0.138,0.074,0.285,0.081,0.431c0.017,2.199-0.09,4.72-0.196,6.921c-0.234,4.336-0.586,8.84-1.264,13.128
			c-0.377,2.455-1.01,5.173-1.583,7.594c-0.115,0.443-0.242,0.878-0.55,1.233c-0.258,0.31-0.606,0.545-0.993,0.661
			c-0.1,0.031-0.205,0.052-0.309,0.064c-0.402,0.049-0.885,0.035-1.292,0.047"/>
	</g>
	<g id="POLYLINE_00000124132444028614679620000002005126990421178273_">
		
			<path fill="none" stroke="#3A54F5" stroke-width="2.5" stroke-linecap="round" stroke-linejoin="round" stroke-miterlimit="10" d="
			M357.939,202.944c0.233,0.013,83.964-0.026,84.177,0.013c0.248,0.034,0.487,0.133,0.685,0.285c0.285,0.216,0.485,0.54,0.549,0.892
			c0.066,0.351-0.002,0.725-0.19,1.029c-0.192,0.316-0.508,0.552-0.865,0.647c-0.099,0.027-0.202,0.043-0.304,0.048
			c-0.021,0.008-84.001-0.003-84.052,0.002c-0.175,0.004-0.351-0.024-0.516-0.082c-0.239-0.084-0.456-0.232-0.621-0.424
			c-0.382-0.44-0.466-1.094-0.193-1.617C356.857,203.246,357.389,202.928,357.939,202.944z"/>
	</g>
	<g id="POLYLINE_00000008119018542818093820000001452766275145886870_">
		
			<path fill="none" stroke="#3A54F5" stroke-width="2.5" stroke-linecap="round" stroke-linejoin="round" stroke-miterlimit="10" d="
			M450.96,202.944c-0.489-0.003-0.967,0.258-1.228,0.672c-0.205,0.318-0.278,0.717-0.199,1.086c0.076,0.37,0.304,0.706,0.62,0.914
			c0.181,0.121,0.391,0.2,0.607,0.23c0.057,0.008,0.118,0.013,0.176,0.014c0.037,0.012,3.782-0.008,3.817,0v-2.917H450.96z"/>
	</g>
	<g id="POLYLINE_00000131363290992727943220000005032390845765692803_">
		
			<rect x="454.752" y="200.902" fill="none" stroke="#3A54F5" stroke-width="2.5" stroke-linecap="round" stroke-linejoin="round" stroke-miterlimit="10" width="1.167" height="7.001"/>
	</g>
	<g id="POLYLINE_00000045602871681936175160000004884327122998682525_">
		
			<path fill="none" stroke="#3A54F5" stroke-width="2.5" stroke-linecap="round" stroke-linejoin="round" stroke-miterlimit="10" d="
			M438.734,202.944c0.325-0.713,0.897-1.309,1.597-1.662c0.728-0.372,1.589-0.476,2.385-0.287c0.763,0.177,1.461,0.621,1.946,1.237
			c0.486,0.612,0.756,1.39,0.755,2.171c0.002,0.781-0.269,1.559-0.755,2.171c-0.485,0.616-1.183,1.059-1.946,1.237
			c-0.796,0.189-1.657,0.085-2.385-0.287c-0.699-0.353-1.272-0.949-1.597-1.662"/>
	</g>
	<g id="POLYLINE_00000024002207039225252170000003370819864457118389_">
		
			<path fill="none" stroke="#3A54F5" stroke-width="2.5" stroke-linecap="round" stroke-linejoin="round" stroke-miterlimit="10" d="
			M361.089,205.861c-0.346,0.76-0.974,1.386-1.736,1.729c-0.741,0.339-1.601,0.405-2.385,0.185
			c-0.726-0.201-1.382-0.644-1.839-1.243c-0.459-0.597-0.717-1.346-0.722-2.099c-0.008-0.774,0.25-1.547,0.722-2.16
			c0.457-0.599,1.113-1.042,1.839-1.243c0.804-0.226,1.688-0.15,2.441,0.21c0.737,0.348,1.343,0.962,1.68,1.703"/>
	</g>
	<g id="POLYLINE_00000021113762391534560560000002576868341824157333_">
		
			<rect x="454.752" y="144.895" fill="none" stroke="#3A54F5" stroke-width="2.5" stroke-linecap="round" stroke-linejoin="round" stroke-miterlimit="10" width="1.167" height="7.001"/>
	</g>
	<g id="POLYLINE_00000168814104274149188470000018162694323230956169_">
		
			<rect x="454.752" y="186.9" fill="none" stroke="#3A54F5" stroke-width="2.5" stroke-linecap="round" stroke-linejoin="round" stroke-miterlimit="10" width="1.167" height="7.001"/>
	</g>
	<g id="POLYLINE_00000059296460094121220750000000221965310535745454_">
		
			<path fill="none" stroke="#3A54F5" stroke-width="2.5" stroke-linecap="round" stroke-linejoin="round" stroke-miterlimit="10" d="
			M454.752,188.943c-0.501,0.001-1-0.165-1.4-0.466c-0.412-0.308-0.717-0.756-0.851-1.252c-0.055-0.2-0.082-0.408-0.082-0.615
			c0.007-0.205-0.01-34.378,0.004-34.551c0.009-0.163,0.036-0.327,0.079-0.485c0.137-0.506,0.451-0.962,0.876-1.27
			c0.396-0.29,0.885-0.45,1.376-0.449l0-2.917c-0.969-0.001-1.936,0.274-2.76,0.784c-0.861,0.531-1.563,1.317-1.992,2.233
			c-0.327,0.695-0.499,1.465-0.499,2.233c0,0.058-0.001,34.426,0,34.479c0.001,0.114,0.007,0.24,0.016,0.354
			c0.022,0.285,0.069,0.572,0.137,0.849c0.082,0.333,0.199,0.662,0.345,0.973c0.429,0.916,1.13,1.703,1.992,2.233
			c0.823,0.51,1.791,0.785,2.76,0.784C454.752,191.859,454.752,188.943,454.752,188.943z"/>
	</g>
	<g id="POLYLINE_00000038401665205815993680000018248846830740786601_">
		
			<path fill="none" stroke="#3A54F5" stroke-width="2.5" stroke-linecap="round" stroke-linejoin="round" stroke-miterlimit="10" d="
			M527.725,194.319c-0.099,0.011-19.037,0.201-19.124,0.216c-0.06,0.005-0.12,0.015-0.178,0.029c-0.143,0.035-0.28,0.097-0.4,0.183
			c-0.222,0.157-0.385,0.394-0.453,0.658c-0.965,4.921-1.84,10.033-1.969,15.051c0,0-0.018,0.829-0.018,0.829
			c0,0.029,0.001,0.062,0.003,0.091c0.007,0.075,0.023,0.15,0.049,0.221c0.087,0.243,0.287,0.441,0.53,0.526
			c0.085,0.03,0.176,0.047,0.267,0.05c0,0,2.641,0.078,2.641,0.078"/>
	</g>
	<g id="POLYLINE_00000101079950538329299960000004389368721926149540_">
		
			<path fill="none" stroke="#3A54F5" stroke-width="2.5" stroke-linecap="round" stroke-linejoin="round" stroke-miterlimit="10" d="
			M551.085,212.25c0,0,2.641-0.078,2.641-0.078c0.019-0.002,0.042-0.001,0.06-0.004c0.08-0.008,0.16-0.027,0.235-0.057
			c0.236-0.092,0.426-0.29,0.507-0.53c0.024-0.071,0.04-0.147,0.045-0.222c0.002-0.025,0.003-0.051,0.002-0.076
			c0,0-0.018-0.829-0.018-0.829c-0.13-5.02-1.004-10.139-1.972-15.062c-0.069-0.259-0.231-0.492-0.45-0.646
			c-0.12-0.086-0.257-0.148-0.4-0.183c-0.058-0.014-0.118-0.024-0.178-0.029c-0.076-0.041-19.041-0.189-19.124-0.216"/>
	</g>
	<g id="POLYLINE_00000183939243728454954290000014172341142844818084_">
		
			<line fill="none" stroke="#3A54F5" stroke-width="2.5" stroke-linecap="round" stroke-linejoin="round" stroke-miterlimit="10" x1="532.435" y1="204.914" x2="532.435" y2="196.171"/>
	</g>
	<g id="POLYLINE_00000171708186746046063160000002115270484604873634_">
		
			<line fill="none" stroke="#3A54F5" stroke-width="2.5" stroke-linecap="round" stroke-linejoin="round" stroke-miterlimit="10" x1="530.08" y1="204.922" x2="530.08" y2="204.922"/>
	</g>
	<g id="POLYLINE_00000053518689445416370010000016900753051237790642_">
		
			<line fill="none" stroke="#3A54F5" stroke-width="2.5" stroke-linecap="round" stroke-linejoin="round" stroke-miterlimit="10" x1="527.725" y1="196.171" x2="527.725" y2="204.914"/>
	</g>
	<g id="POLYLINE_00000049939423940433491360000018222692044208191116_">
		
			<rect x="527.725" y="193.838" fill="none" stroke="#3A54F5" stroke-width="2.5" stroke-linecap="round" stroke-linejoin="round" stroke-miterlimit="10" width="4.71" height="2.334"/>
	</g>
	<g id="POLYLINE_00000116195992985240910180000003272329720711469218_">
		
			<polyline fill="none" stroke="#3A54F5" stroke-width="2.5" stroke-linecap="round" stroke-linejoin="round" stroke-miterlimit="10" points="
			528.61,193.254 528.61,193.838 531.527,193.838 531.527,193.254 		"/>
	</g>
	<g id="POLYLINE_00000121958007769770454390000011472218331236884914_">
		
			<rect x="527.725" y="190.045" fill="none" stroke="#3A54F5" stroke-width="2.5" stroke-linecap="round" stroke-linejoin="round" stroke-miterlimit="10" width="4.71" height="3.209"/>
	</g>
	<g id="POLYLINE_00000158021630712811430270000015627427024408736162_">
		
			<rect x="527.725" y="189.17" fill="none" stroke="#3A54F5" stroke-width="2.5" stroke-linecap="round" stroke-linejoin="round" stroke-miterlimit="10" width="4.71" height="0.875"/>
	</g>
	<g id="POLYLINE_00000098915389787474527510000018023249251180016287_">
		
			<path fill="none" stroke="#3A54F5" stroke-width="2.5" stroke-linecap="round" stroke-linejoin="round" stroke-miterlimit="10" d="
			M545.006,212.42c-0.662,0.889-1.51,1.637-2.463,2.2c-1.422,0.843-3.041,1.312-4.656,1.617c-2.554,0.47-5.215,0.569-7.807,0.578
			c-2.493-0.007-5.054-0.102-7.514-0.525c-1.681-0.297-3.371-0.757-4.858-1.617c-0.99-0.57-1.871-1.336-2.554-2.253"/>
	</g>
	<g id="POLYLINE_00000162313886923893471460000011934984669890764712_">
		
			<path fill="none" stroke="#3A54F5" stroke-width="2.5" stroke-linecap="round" stroke-linejoin="round" stroke-miterlimit="10" d="
			M526.258,216.705l0.382,3.059c0.004,0.033,0.011,0.067,0.021,0.099c0.033,0.107,0.097,0.204,0.183,0.276
			c0.073,0.061,0.161,0.104,0.253,0.123c0.036,0.008,0.074,0.012,0.111,0.013c-0.001,0.001,5.729-0.001,5.731,0
			c0.139,0,0.278-0.051,0.382-0.143c0.082-0.071,0.144-0.165,0.175-0.269c0.01-0.032,0.017-0.066,0.021-0.099
			c0,0,0.382-3.059,0.382-3.059"/>
	</g>
	<g id="POLYLINE_00000034778795939526766160000016004526131422216320_">
		
			<path fill="none" stroke="#3A54F5" stroke-width="2.5" stroke-linecap="round" stroke-linejoin="round" stroke-miterlimit="10" d="
			M509.074,212.249c5.679,0.149,15.427,0.415,21.005,0.399c5.543,0.016,15.375-0.25,21.005-0.399"/>
	</g>
	<g id="POLYLINE_00000054236707460986279010000008473914565482784187_">
		
			<path fill="none" stroke="#3A54F5" stroke-width="2.5" stroke-linecap="round" stroke-linejoin="round" stroke-miterlimit="10" d="
			M548.915,194.492c0.574,0.029,1.228,0.139,1.571,0.652c0.161,0.234,0.255,0.507,0.335,0.778c0.205,0.698,0.32,1.719,0.434,2.443
			c0.188,1.367,0.486,3.039,0.488,4.412c-0.005,0.424-0.037,0.859-0.185,1.26c-0.037,0.09-0.071,0.185-0.132,0.263
			c-0.064,0.083-0.15,0.148-0.247,0.186c-5.726,0.253-15.46,0.417-21.1,0.437c-5.603-0.016-15.412-0.191-21.091-0.433
			c-0.101-0.038-0.191-0.104-0.257-0.19c-0.055-0.069-0.088-0.154-0.121-0.235c-0.131-0.337-0.175-0.703-0.19-1.062
			c-0.043-1.611,0.393-3.85,0.603-5.462c0.095-0.583,0.175-1.194,0.356-1.757c0.076-0.232,0.166-0.464,0.31-0.663
			c0.348-0.495,0.99-0.598,1.554-0.628"/>
	</g>
	<g id="POLYLINE_00000128459292322405643030000012932579112080020912_">
		
			<path fill="none" stroke="#3A54F5" stroke-width="2.5" stroke-linecap="round" stroke-linejoin="round" stroke-miterlimit="10" d="
			M528.621,238.118c-0.712,0.286-1.337,0.788-1.768,1.423c-0.433,0.633-0.673,1.398-0.678,2.165
			c-0.008,0.79,0.232,1.581,0.678,2.233c0.431,0.635,1.056,1.137,1.768,1.423"/>
	</g>
	<g id="POLYLINE_00000034090383960484537430000016577960478424941190_">
		
			<path fill="none" stroke="#3A54F5" stroke-width="2.5" stroke-linecap="round" stroke-linejoin="round" stroke-miterlimit="10" d="
			M531.538,245.362c0.712-0.286,1.337-0.788,1.768-1.423c0.433-0.633,0.673-1.398,0.678-2.165c0.008-0.79-0.232-1.581-0.678-2.233
			c-0.431-0.635-1.056-1.137-1.768-1.423"/>
	</g>
	<g id="POLYLINE_00000172400429344323560580000013825094657108472489_">
		
			<path fill="none" stroke="#3A54F5" stroke-width="2.5" stroke-linecap="round" stroke-linejoin="round" stroke-miterlimit="10" d="
			M531.538,220.276c0,0.02,0,29.955,0,29.977c-0.001,0.066-0.007,0.135-0.017,0.201c-0.039,0.249-0.144,0.487-0.301,0.684
			c-0.276,0.35-0.719,0.559-1.165,0.549c-0.438-0.005-0.866-0.221-1.131-0.569c-0.148-0.193-0.248-0.424-0.285-0.664
			c-0.01-0.065-0.016-0.134-0.017-0.201c-0.001-0.023,0-29.952,0-29.977H531.538z"/>
	</g>
	<g id="POLYLINE_00000107555552436475869970000000222220021819100336_">
		
			<path fill="none" stroke="#3A54F5" stroke-width="2.5" stroke-linecap="round" stroke-linejoin="round" stroke-miterlimit="10" d="
			M693.416,220.652v-2.606c-0.001-0.02-0.001-0.044-0.003-0.064c-0.007-0.076-0.025-0.152-0.055-0.222
			c-0.103-0.249-0.351-0.429-0.62-0.447c-4.857,0.019-10.566,0.015-15.358,0.607c-0.167,0.033-0.322,0.127-0.428,0.26
			c-0.077,0.096-0.13,0.212-0.151,0.334c-0.006,0.037-0.01,0.077-0.011,0.114c-0.001,0.012,0,2.011,0,2.024
			c0,0.148,0.046,0.296,0.13,0.417c0.134,0.196,0.367,0.319,0.605,0.317c0.073-0.007,15.145,0.007,15.208-0.002
			c0.084-0.006,0.168-0.026,0.245-0.06C693.239,221.212,693.419,220.938,693.416,220.652z"/>
	</g>
	<g id="POLYLINE_00000018922386044667150790000005730677367754963375_">
		
			<path fill="none" stroke="#3A54F5" stroke-width="2.5" stroke-linecap="round" stroke-linejoin="round" stroke-miterlimit="10" d="
			M668.693,248.626c-0.003-0.182,0.017-0.451-0.043-0.625c-0.06-0.201-0.185-0.381-0.351-0.509c-0.138-0.106-0.305-0.176-0.477-0.2
			c-0.236-0.025-38.572-0.009-38.823-0.004c-0.144,0.015-0.286,0.062-0.411,0.136c-0.292,0.171-0.486,0.496-0.495,0.834
			c0.004,0.195-0.021,0.473,0.043,0.66c0.062,0.206,0.192,0.391,0.365,0.519c0.135,0.101,0.296,0.167,0.463,0.19
			c0.046,0.006,0.093,0.01,0.139,0.01c0.18-0.011,38.547,0.017,38.702-0.007c0.15-0.018,0.296-0.071,0.423-0.152
			C668.513,249.297,668.695,248.965,668.693,248.626z"/>
	</g>
	<g id="POLYLINE_00000012473966947381553790000000009390510206628030_">
		
			<path fill="none" stroke="#3A54F5" stroke-width="2.5" stroke-linecap="round" stroke-linejoin="round" stroke-miterlimit="10" d="
			M628.478,246.899c0.067,0.178,0.204,0.307,0.389,0.355c0.067,0.018,0.137,0.026,0.206,0.028c0.164-0.006,38.626,0.014,38.78-0.007
			c0.104-0.012,0.208-0.04,0.294-0.102c0.065-0.046,0.114-0.113,0.142-0.187c0.048-0.13,0.041-0.274,0.019-0.409
			c-0.035-0.342-0.74-1.867-0.867-2.216c-0.054-0.13-0.128-0.253-0.226-0.354c-0.18-0.19-0.442-0.277-0.699-0.281
			c-12.06,0.083-25.021,0.435-37.005,1.565c-0.205,0.032-0.407,0.097-0.575,0.222c-0.204,0.146-0.372,0.35-0.453,0.588
			C628.396,246.359,628.412,246.64,628.478,246.899z"/>
	</g>
	<g id="POLYLINE_00000096027128763420042080000014874588856152341906_">
		
			<path fill="none" stroke="#3A54F5" stroke-width="2.5" stroke-linecap="round" stroke-linejoin="round" stroke-miterlimit="10" d="
			M693.085,221.266l-0.508,25.563c0,0.062-0.002,0.137-0.006,0.199c-0.012,0.201-0.04,0.404-0.099,0.596
			c-0.055,0.178-0.139,0.349-0.264,0.488c-0.117,0.133-0.272,0.232-0.44,0.288c-0.125,0.042-0.257,0.064-0.388,0.071
			c-0.031,0.002-0.067,0.003-0.099,0.003c0,0-12.312,0-12.312,0h12.312"/>
	</g>
	<g id="POLYLINE_00000121983252634693636160000015429188577315715981_">
		
			<path fill="none" stroke="#3A54F5" stroke-width="2.5" stroke-linecap="round" stroke-linejoin="round" stroke-miterlimit="10" d="
			M677.131,221.273c0.014,6.226,0.207,19.206,0.345,25.496c0.009,0.176,0.029,0.356,0.066,0.529
			c0.043,0.199,0.111,0.395,0.216,0.569c0.116,0.193,0.285,0.355,0.487,0.455c0.223,0.112,0.476,0.152,0.724,0.152v1.163h-11.834"/>
	</g>
	<g id="POLYLINE_00000048470704762264563920000013787522354972643486_">
		
			<path fill="none" stroke="#3A54F5" stroke-width="2.5" stroke-linecap="round" stroke-linejoin="round" stroke-miterlimit="10" d="
			M691.282,250.8v-2.326v4.934c-0.096,0.265-0.219,0.535-0.435,0.724c-0.454,2.24-0.677,4.545-0.662,6.831
			c0.007,1.621,0.13,3.276,0.468,4.863c0.21,0.749,0.31,1.534,0.352,2.31v12.716c0,0.049,0.001,0.115,0.003,0.164
			c0.009,0.199,0.03,0.401,0.08,0.594c0.017,0.066,0.04,0.133,0.068,0.196c0.07,0.157,0.165,0.316,0.216,0.481
			c0.12,0.381,0.167,0.784,0.167,1.182c-0.003,0.045-0.008,0.091-0.023,0.134c-0.011,0.032-0.027,0.064-0.05,0.088
			c-0.022,0.024-0.052,0.04-0.083,0.048c-0.093,0.022-54.525,0.001-54.617,0.005c-0.067-0.004-0.134-0.018-0.194-0.047
			c-0.072-0.034-0.133-0.09-0.174-0.157c-0.081-0.132-0.1-0.291-0.103-0.443c0.019-0.697,2.371-15.786,2.363-16.169
			c0.06-0.609,0.084-1.235,0.029-1.844c-0.067-0.824-0.354-1.628-0.843-2.296c-1-1.374-2.563-2.262-3.897-3.271
			c-1.047-0.778-1.982-1.711-2.792-2.733c-1.45-1.814-2.568-4.002-2.685-6.354c-0.003-0.209,0.021-0.439,0.161-0.605
			c0.115-0.138,0.301-0.187,0.474-0.186"/>
	</g>
	<g id="POLYLINE_00000101097893536099439290000014819123743248498829_">
		
			<path fill="none" stroke="#3A54F5" stroke-width="2.5" stroke-linecap="round" stroke-linejoin="round" stroke-miterlimit="10" d="
			M693.141,202.944c-0.489-0.003-0.967,0.258-1.228,0.672c-0.205,0.318-0.278,0.717-0.199,1.086c0.076,0.37,0.304,0.706,0.62,0.914
			c0.181,0.121,0.391,0.2,0.607,0.23c0.057,0.008,0.118,0.013,0.176,0.014c0.037,0.012,3.782-0.008,3.817,0v-2.917H693.141z"/>
	</g>
	<g id="POLYLINE_00000035499444950297093180000007799201991121394586_">
		
			<rect x="696.933" y="200.902" fill="none" stroke="#3A54F5" stroke-width="2.5" stroke-linecap="round" stroke-linejoin="round" stroke-miterlimit="10" width="1.167" height="7.001"/>
	</g>
	<g id="POLYLINE_00000059274480818469890580000017707289499426666665_">
		
			<path fill="none" stroke="#3A54F5" stroke-width="2.5" stroke-linecap="round" stroke-linejoin="round" stroke-miterlimit="10" d="
			M761.442,205.861c-0.325,0.713-0.897,1.309-1.597,1.662c-0.728,0.372-1.589,0.476-2.385,0.287
			c-0.763-0.177-1.461-0.621-1.946-1.237c-0.486-0.612-0.756-1.39-0.755-2.171c-0.002-0.781,0.269-1.559,0.755-2.171
			c0.485-0.616,1.183-1.059,1.946-1.237c0.796-0.189,1.657-0.085,2.385,0.287c0.699,0.353,1.272,0.949,1.597,1.662"/>
	</g>
	<g id="POLYLINE_00000158751054895246353800000007063218946313337009_">
		
			<path fill="none" stroke="#3A54F5" stroke-width="2.5" stroke-linecap="round" stroke-linejoin="round" stroke-miterlimit="10" d="
			M853.089,202.944c0.325-0.713,0.897-1.309,1.597-1.662c0.728-0.372,1.589-0.476,2.385-0.287c0.763,0.177,1.461,0.621,1.946,1.237
			c0.486,0.612,0.756,1.39,0.755,2.171c0.002,0.781-0.269,1.559-0.755,2.171c-0.485,0.616-1.183,1.059-1.946,1.237
			c-0.796,0.189-1.657,0.085-2.385-0.287c-0.699-0.353-1.272-0.949-1.597-1.662"/>
	</g>
	<g id="POLYLINE_00000157275986867845976560000012016800147879714444_">
		
			<path fill="none" stroke="#3A54F5" stroke-width="2.5" stroke-linecap="round" stroke-linejoin="round" stroke-miterlimit="10" d="
			M822.142,151.578c-0.713-0.325-1.309-0.897-1.662-1.597c-0.372-0.728-0.476-1.589-0.287-2.385
			c0.177-0.763,0.621-1.461,1.237-1.946c0.612-0.486,1.39-0.756,2.171-0.755c0.781-0.002,1.559,0.269,2.171,0.755
			c0.616,0.485,1.059,1.183,1.237,1.946c0.189,0.796,0.085,1.657-0.287,2.385c-0.353,0.699-0.949,1.272-1.662,1.597"/>
	</g>
	<g id="POLYLINE_00000008132505481851094840000016673195646416691328_">
		
			<path fill="none" stroke="#3A54F5" stroke-width="2.5" stroke-linecap="round" stroke-linejoin="round" stroke-miterlimit="10" d="
			M825.059,187.219c0.713,0.325,1.309,0.897,1.662,1.597c0.372,0.728,0.476,1.589,0.287,2.385c-0.177,0.763-0.621,1.461-1.237,1.946
			c-0.612,0.486-1.39,0.756-2.171,0.755c-0.781,0.002-1.559-0.269-2.171-0.755c-0.616-0.485-1.06-1.183-1.237-1.946
			c-0.189-0.796-0.086-1.657,0.287-2.385c0.353-0.699,0.949-1.272,1.662-1.597"/>
	</g>
	<g id="POLYLINE_00000053520423202556181680000004524989724121876127_">
		
			<path fill="none" stroke="#3A54F5" stroke-width="2.5" stroke-linecap="round" stroke-linejoin="round" stroke-miterlimit="10" d="
			M822.142,190.369c0-0.036,0.001-41.943,0-41.976c0-0.077,0.007-0.157,0.019-0.233c0.045-0.276,0.172-0.539,0.36-0.745
			c0.276-0.306,0.685-0.484,1.097-0.477c0.412,0.003,0.817,0.191,1.085,0.504c0.151,0.175,0.26,0.386,0.315,0.611
			c0.023,0.094,0.036,0.19,0.04,0.287c0.005,0.136-0.002,41.929,0.001,42.082c-0.002,0.108-0.015,0.217-0.041,0.322
			c-0.087,0.365-0.322,0.692-0.641,0.891c-0.297,0.188-0.662,0.263-1.009,0.206c-0.347-0.055-0.671-0.241-0.894-0.513
			C822.254,191.061,822.134,190.715,822.142,190.369z"/>
	</g>
	<g id="POLYLINE_00000062172021022120870920000018400864502747931799_">
		
			<path fill="none" stroke="#3A54F5" stroke-width="2.5" stroke-linecap="round" stroke-linejoin="round" stroke-miterlimit="10" d="
			M758.292,202.944h97.947c0.49-0.014,0.978,0.239,1.247,0.651c0.272,0.404,0.321,0.945,0.123,1.39
			c-0.166,0.385-0.505,0.689-0.906,0.811c-0.11,0.034-0.224,0.055-0.339,0.062c-0.067,0.012-98.025-0.004-98.125,0.003
			c-0.424-0.004-0.841-0.205-1.108-0.534c-0.247-0.299-0.366-0.699-0.321-1.085c0.039-0.362,0.219-0.705,0.495-0.943
			C757.575,203.065,757.934,202.935,758.292,202.944z"/>
	</g>
	<g id="POLYLINE_00000124880446118004189570000008779421162722324405_">
		
			<rect x="730.256" y="200.902" fill="none" stroke="#3A54F5" stroke-width="2.5" stroke-linecap="round" stroke-linejoin="round" stroke-miterlimit="10" width="1.167" height="7.001"/>
	</g>
	<g id="POLYLINE_00000049197074229129012330000008490108634101231775_">
		
			<path fill="none" stroke="#3A54F5" stroke-width="2.5" stroke-linecap="round" stroke-linejoin="round" stroke-miterlimit="10" d="
			M735.215,202.944c0.489-0.003,0.967,0.258,1.228,0.672c0.205,0.318,0.278,0.717,0.199,1.086c-0.076,0.37-0.304,0.706-0.62,0.914
			c-0.181,0.121-0.391,0.2-0.607,0.23c-0.057,0.008-0.118,0.013-0.176,0.014c-0.037,0.012-3.782-0.008-3.817,0v-2.917H735.215z"/>
	</g>
	<g id="POLYLINE_00000146458257680763263450000015451900264042299025_">
		
			<path fill="none" stroke="#3A54F5" stroke-width="2.5" stroke-linecap="round" stroke-linejoin="round" stroke-miterlimit="10" d="
			M737.074,250.8v-2.326v4.934c0.096,0.265,0.219,0.535,0.435,0.724c0.454,2.24,0.677,4.545,0.662,6.831
			c-0.007,1.621-0.13,3.276-0.468,4.863c-0.21,0.749-0.31,1.534-0.352,2.31v12.716c0,0.049-0.001,0.115-0.003,0.164
			c-0.009,0.199-0.03,0.401-0.08,0.594c-0.017,0.066-0.04,0.133-0.068,0.196c-0.07,0.157-0.165,0.316-0.216,0.481
			c-0.12,0.381-0.167,0.784-0.167,1.182c0.003,0.045,0.008,0.091,0.023,0.134c0.011,0.032,0.027,0.064,0.05,0.088
			c0.022,0.024,0.052,0.04,0.083,0.048c0.093,0.022,54.525,0.001,54.616,0.005c0.067-0.004,0.134-0.018,0.195-0.047
			c0.072-0.034,0.133-0.09,0.174-0.157c0.08-0.132,0.1-0.291,0.103-0.443c-0.019-0.697-2.371-15.786-2.363-16.169
			c-0.06-0.609-0.084-1.235-0.029-1.844c0.067-0.824,0.354-1.628,0.843-2.296c1-1.374,2.563-2.262,3.897-3.271
			c1.047-0.778,1.982-1.711,2.792-2.733c1.45-1.814,2.568-4.002,2.685-6.354c0.003-0.209-0.021-0.439-0.161-0.605
			c-0.115-0.138-0.301-0.187-0.474-0.186"/>
	</g>
	<g id="POLYLINE_00000155130202621004931840000002848820870330582167_">
		
			<path fill="none" stroke="#3A54F5" stroke-width="2.5" stroke-linecap="round" stroke-linejoin="round" stroke-miterlimit="10" d="
			M751.225,221.273c-0.014,6.226-0.207,19.206-0.345,25.496c-0.009,0.176-0.029,0.356-0.066,0.529
			c-0.043,0.199-0.111,0.395-0.216,0.569c-0.116,0.193-0.285,0.355-0.487,0.455c-0.223,0.112-0.476,0.152-0.724,0.152v1.163h11.834"
			/>
	</g>
	<g id="POLYLINE_00000130611862027222064960000017088305526542055816_">
		
			<path fill="none" stroke="#3A54F5" stroke-width="2.5" stroke-linecap="round" stroke-linejoin="round" stroke-miterlimit="10" d="
			M735.271,221.266l0.508,25.563c0,0.062,0.002,0.137,0.006,0.199c0.012,0.201,0.04,0.404,0.099,0.596
			c0.055,0.178,0.139,0.349,0.264,0.488c0.117,0.133,0.272,0.232,0.44,0.288c0.125,0.042,0.257,0.064,0.388,0.071
			c0.031,0.002,0.067,0.003,0.099,0.003c0,0,12.312,0,12.312,0h-12.312"/>
	</g>
	<g id="POLYLINE_00000150790039751412783070000008550182446575792009_">
		
			<path fill="none" stroke="#3A54F5" stroke-width="2.5" stroke-linecap="round" stroke-linejoin="round" stroke-miterlimit="10" d="
			M799.878,246.899c-0.067,0.178-0.204,0.307-0.389,0.355c-0.067,0.018-0.137,0.026-0.206,0.028
			c-0.164-0.006-38.626,0.014-38.78-0.007c-0.104-0.012-0.208-0.04-0.294-0.102c-0.065-0.046-0.115-0.113-0.142-0.187
			c-0.048-0.13-0.041-0.274-0.019-0.409c0.035-0.342,0.74-1.867,0.867-2.216c0.054-0.13,0.128-0.253,0.226-0.354
			c0.18-0.19,0.442-0.277,0.699-0.281c12.06,0.083,25.021,0.435,37.005,1.565c0.205,0.032,0.407,0.097,0.575,0.222
			c0.204,0.146,0.372,0.35,0.453,0.588C799.96,246.359,799.944,246.64,799.878,246.899z"/>
	</g>
	<g id="POLYLINE_00000112605986836453438810000006590074755198705574_">
		
			<path fill="none" stroke="#3A54F5" stroke-width="2.5" stroke-linecap="round" stroke-linejoin="round" stroke-miterlimit="10" d="
			M759.663,248.626c0.003-0.182-0.017-0.451,0.043-0.625c0.06-0.201,0.185-0.381,0.351-0.509c0.138-0.106,0.305-0.176,0.477-0.2
			c0.236-0.025,38.572-0.009,38.824-0.004c0.144,0.015,0.286,0.062,0.411,0.136c0.292,0.171,0.486,0.496,0.495,0.834
			c-0.004,0.195,0.021,0.473-0.043,0.66c-0.062,0.206-0.192,0.391-0.365,0.519c-0.135,0.101-0.296,0.167-0.463,0.19
			c-0.046,0.006-0.093,0.01-0.139,0.01c-0.18-0.011-38.547,0.017-38.702-0.007c-0.15-0.018-0.296-0.071-0.423-0.152
			C759.843,249.297,759.661,248.965,759.663,248.626z"/>
	</g>
	<g id="POLYLINE_00000111151844460352491960000007875377142213731974_">
		
			<path fill="none" stroke="#3A54F5" stroke-width="2.5" stroke-linecap="round" stroke-linejoin="round" stroke-miterlimit="10" d="
			M734.94,220.652v-2.606c0.001-0.02,0.001-0.044,0.003-0.064c0.007-0.076,0.025-0.152,0.055-0.222
			c0.103-0.249,0.351-0.429,0.62-0.447c4.857,0.019,10.566,0.015,15.358,0.607c0.167,0.033,0.322,0.127,0.428,0.26
			c0.077,0.096,0.13,0.212,0.151,0.334c0.006,0.037,0.01,0.077,0.011,0.114c0.001,0.012,0,2.011,0,2.024
			c0,0.148-0.046,0.296-0.13,0.417c-0.134,0.196-0.367,0.319-0.605,0.317c-0.073-0.007-15.145,0.007-15.208-0.002
			c-0.084-0.006-0.168-0.026-0.245-0.06C735.117,221.212,734.937,220.938,734.94,220.652z"/>
	</g>
	<g id="POLYLINE_00000017505034698014399230000007293368663684112554_">
		
			<path fill="none" stroke="#3A54F5" stroke-width="2.5" stroke-linecap="round" stroke-linejoin="round" stroke-miterlimit="10" d="
			M930.807,198.658v-2.487h-9.292v-2.334c3.115,0,10.989,0,14.002,0v2.386"/>
	</g>
	<g id="POLYLINE_00000137826540492753634220000013524089058985618614_">
		
			<polyline fill="none" stroke="#3A54F5" stroke-width="2.5" stroke-linecap="round" stroke-linejoin="round" stroke-miterlimit="10" points="
			934.631,192.486 934.631,193.838 931.714,193.838 931.714,193.254 		"/>
	</g>
	<g id="POLYLINE_00000169549266335440112480000012517475170306143622_">
		
			<path fill="none" stroke="#3A54F5" stroke-width="2.5" stroke-linecap="round" stroke-linejoin="round" stroke-miterlimit="10" d="
			M935.517,191.718l-1.772,1.536h-2.938v-3.209h-5.834v-0.875c2.609,0,7.959,0,10.544,0V191.718z"/>
	</g>
	<g id="POLYLINE_00000052104355821398645190000005560500307314630812_">
		
			<path fill="none" stroke="#3A54F5" stroke-width="2.5" stroke-linecap="round" stroke-linejoin="round" stroke-miterlimit="10" d="
			M903.985,212.972c0.848,1.421,1.938,2.737,3.354,3.619c1.103,0.7,2.357,1.138,3.626,1.428c1.824,0.413,3.736,0.563,5.601,0.652
			c0.735,0.036,1.717,0.051,2.453,0.074c0.076,0.01,0.151,0.036,0.217,0.076c0.104,0.061,0.188,0.156,0.237,0.267
			c0.057,0.112,0.096,0.571,0.121,0.697c0.033,0.223,0.207,0.416,0.425,0.472c0.049,0.013,0.1,0.02,0.151,0.02c0,0,5.435,0,5.435,0
			c0.023,0,0.048-0.001,0.071-0.004c0.203-0.023,0.387-0.162,0.466-0.351c0.017-0.04,0.03-0.083,0.038-0.127
			c0.019-0.016,0.423-3.081,0.438-3.1c0.009-0.063,0.028-0.125,0.057-0.182c0.044-0.087,0.11-0.163,0.191-0.218
			c0.467-0.247,0.822-0.485,1.155-0.909c0.386-0.491,0.593-1.102,0.669-1.717"/>
	</g>
	<g id="POLYLINE_00000144337893474105356660000000118266880249550731_">
		
			<rect x="939.453" y="237.836" fill="none" stroke="#3A54F5" stroke-width="2.5" stroke-linecap="round" stroke-linejoin="round" stroke-miterlimit="10" width="0.829" height="7.809"/>
	</g>
	<g id="POLYLINE_00000160175702609119891320000011735504341782543789_">
		
			<line fill="none" stroke="#3A54F5" stroke-width="2.5" stroke-linecap="round" stroke-linejoin="round" stroke-miterlimit="10" x1="936.781" y1="243.199" x2="939.453" y2="245.645"/>
	</g>
	<g id="POLYLINE_00000088845811453756662170000007706608289794557596_">
		
			<line fill="none" stroke="#3A54F5" stroke-width="2.5" stroke-linecap="round" stroke-linejoin="round" stroke-miterlimit="10" x1="936.781" y1="240.282" x2="939.453" y2="237.836"/>
	</g>
	<g id="POLYLINE_00000105419100428562024400000008988553511541351847_">
		
			<path fill="none" stroke="#3A54F5" stroke-width="2.5" stroke-linecap="round" stroke-linejoin="round" stroke-miterlimit="10" d="
			M940.281,213.687c-13.11-0.07-27.828,0.145-40.838-1.099c-0.229-0.075-0.433-0.223-0.575-0.417
			c-0.116-0.157-0.191-0.344-0.216-0.537c-0.139-1.738-0.29-3.786-0.341-5.526c0.004-0.146,0.026-0.293,0.066-0.433
			c0.136-0.488,0.496-0.906,0.959-1.114c0.168-0.076,0.348-0.126,0.531-0.146c0.904-0.034,4.02,0.011,4.875-0.025
			c4.409-0.147,8.862-0.889,13.169-1.82c3.262-0.723,6.637-1.639,9.795-2.732c2.147-0.753,4.308-1.607,6.308-2.696
			c1.059-0.591,2.116-1.245,2.962-2.125c0.163-0.165,0.295-0.375,0.493-0.503c0.134-0.09,0.289-0.152,0.448-0.18
			c0.052-0.009,0.109-0.015,0.161-0.017c0,0,0.02-0.001,0.02-0.001s0.02,0,0.02,0s2.163,0,2.163,0S940.281,213.687,940.281,213.687z
			"/>
	</g>
	<g id="POLYLINE_00000049190720222472491570000008709321006327998395_">
		
			<line fill="none" stroke="#3A54F5" stroke-width="2.5" stroke-linecap="round" stroke-linejoin="round" stroke-miterlimit="10" x1="936.781" y1="243.199" x2="936.781" y2="240.282"/>
	</g>
	<g id="POLYLINE_00000033363932243220446770000006593692986364113295_">
		
			<path fill="none" stroke="#3A54F5" stroke-width="2.5" stroke-linecap="round" stroke-linejoin="round" stroke-miterlimit="10" d="
			M921.429,220.276v26.293c0.003,0.045-0.001,0.133,0.003,0.178c0.005,0.142,0.017,0.301,0.035,0.443
			c0.043,0.35,0.124,0.703,0.238,1.037c0.229,0.671,0.602,1.297,1.085,1.817c1.827,1.983,4.914,2.197,6.997,0.487
			c1.059-0.86,1.745-2.158,1.858-3.518c0.046-0.403,0.001-1.354,0.025-1.765c0.012-0.176,0.046-0.353,0.1-0.521
			c0.142-0.446,0.433-0.844,0.814-1.116c0.267-0.192,0.579-0.322,0.903-0.379c0.147-0.062,3.057-0.023,3.294-0.033"/>
	</g>
	<g id="POLYLINE_00000170279762469293724680000010035057103587008938_">
		
			<path fill="none" stroke="#3A54F5" stroke-width="2.5" stroke-linecap="round" stroke-linejoin="round" stroke-miterlimit="10" d="
			M924.346,220.276c0.008,0.151-0.009,26.277,0.003,26.407c0.008,0.152,0.032,0.305,0.071,0.452
			c0.062,0.233,0.164,0.458,0.298,0.658c0.408,0.619,1.144,1,1.886,0.975c0.865-0.016,1.668-0.575,1.985-1.38
			c0.08-0.2,0.132-0.414,0.15-0.629c0.022-0.324-0.004-1.304,0.015-1.625c0.066-1.385,0.727-2.727,1.784-3.624
			c0.648-0.555,1.439-0.945,2.274-1.12c0.256-0.054,0.526-0.089,0.788-0.103c0.095-0.029,3.019,0.006,3.181-0.007"/>
	</g>
	<g id="POLYLINE_00000081620925167597802460000000781108356121773186_">
		
			<path fill="none" stroke="#3A54F5" stroke-width="2.5" stroke-linecap="round" stroke-linejoin="round" stroke-miterlimit="10" d="
			M71.383,237.095c0.144,3.7,0.601,7.433,1.424,11.045c0.182,0.658,0.511,1.276,0.956,1.794c0.595,0.696,1.399,1.209,2.281,1.455
			c0.211,0.059,0.428,0.104,0.645,0.133c2.416,0.262,5.121,0.428,7.55,0.533c1.292,0.049,4.302,0.145,5.622,0.138
			c0.263-0.015,0.528-0.053,0.784-0.112c1.168-0.266,2.219-1.002,2.867-2.009c0.301-0.464,0.518-0.982,0.639-1.522
			c0.843-4.534,1.232-9.198,1.235-13.809c-0.003-4.61-0.392-9.274-1.235-13.809c-0.124-0.556-0.352-1.091-0.667-1.566
			c-0.65-0.985-1.687-1.704-2.838-1.966c-0.257-0.059-0.521-0.097-0.784-0.112c-1.329-0.009-4.324,0.09-5.622,0.138
			c-2.429,0.107-5.134,0.269-7.55,0.533c-0.217,0.029-0.435,0.074-0.645,0.133c-0.882,0.246-1.686,0.759-2.281,1.455
			c-0.445,0.518-0.774,1.136-0.956,1.794c-0.823,3.612-1.28,7.344-1.424,11.045"/>
	</g>
	<g id="POLYLINE_00000183208899057465981960000015880749097061153202_">
		
			<path fill="none" stroke="#3A54F5" stroke-width="2.5" stroke-linecap="round" stroke-linejoin="round" stroke-miterlimit="10" d="
			M66.838,232.385c-0.577-0.002-1.15,0.218-1.577,0.606c-0.573,0.51-0.866,1.309-0.756,2.069c0.101,0.778,0.619,1.483,1.331,1.812
			c0.24,0.113,0.5,0.185,0.763,0.212c0.069,0.007,0.143,0.011,0.212,0.012c0.036,0.013,11.638-0.009,11.673,0v-4.71
			C78.484,232.385,66.838,232.385,66.838,232.385z"/>
	</g>
	<g id="POLYLINE_00000149382808358366900330000003545744260983730871_">
		
			<path fill="none" stroke="#3A54F5" stroke-width="2.5" stroke-linecap="round" stroke-linejoin="round" stroke-miterlimit="10" d="
			M66.838,232.385c-0.597-0.002-1.19,0.235-1.622,0.647c-0.579,0.542-0.848,1.386-0.689,2.164c0.142,0.744,0.667,1.399,1.362,1.7
			c0.225,0.099,0.466,0.162,0.71,0.187c0.069,0.007,0.143,0.011,0.212,0.012c0.035,0.015,8.181-0.011,8.215,0v-4.71
			C75.027,232.385,66.838,232.385,66.838,232.385z"/>
	</g>
	<g id="POLYLINE_00000027567184716482831130000014560487327372548792_">
		
			<path fill="none" stroke="#3A54F5" stroke-width="2.5" stroke-linecap="round" stroke-linejoin="round" stroke-miterlimit="10" d="
			M96.918,256.126c-5.827,0.108-12.699,0.323-18.487,0.041c-2.781-0.123-5.59-0.458-8.282-1.182
			c-1.176-0.305-2.369-0.656-3.474-1.167c-0.669-0.312-1.321-0.689-1.876-1.18c-0.62-0.542-1.106-1.255-1.3-2.062
			c-0.047-0.19-0.08-0.385-0.099-0.579c-0.012-0.109-0.017-0.236-0.019-0.347c-0.007-0.039,0.004-14.857-0.001-14.912
			c0.008-0.072-0.006-14.849,0.001-14.911c0.003-0.122,0.009-0.262,0.023-0.384c0.02-0.193,0.055-0.388,0.104-0.576
			c0.199-0.792,0.68-1.492,1.291-2.027c0.555-0.491,1.206-0.868,1.876-1.18c1.105-0.511,2.298-0.863,3.474-1.167
			c2.692-0.723,5.502-1.059,8.282-1.182c5.778-0.282,12.679-0.075,18.487,0.041"/>
	</g>
	<g id="POLYLINE_00000086656795283667786020000006716296135867774624_">
		
			<path fill="none" stroke="#3A54F5" stroke-width="2.5" stroke-linecap="round" stroke-linejoin="round" stroke-miterlimit="10" d="
			M59.718,259.243c13.209-0.007,27.005-0.561,40.154-1.824c0.245-0.041,0.477-0.163,0.648-0.343c0.158-0.164,0.266-0.376,0.306-0.6
			c0.568-7.126,0.888-14.588,0.896-21.736c-0.008-7.147-0.328-14.611-0.896-21.736c-0.041-0.229-0.153-0.444-0.316-0.609
			c-0.174-0.178-0.406-0.297-0.651-0.335c-13.144-1.259-26.938-1.818-40.142-1.822V259.243z"/>
	</g>
	<g id="POLYLINE_00000013875864431163807510000009543022083688000171_">
		
			<rect x="224.238" y="66.719" fill="none" stroke="#3A54F5" stroke-width="2.5" stroke-linecap="round" stroke-linejoin="round" stroke-miterlimit="10" width="7.001" height="1.167"/>
	</g>
	<g id="POLYLINE_00000101078778314581732630000007990516258798302602_">
		
			<rect x="140.228" y="66.719" fill="none" stroke="#3A54F5" stroke-width="2.5" stroke-linecap="round" stroke-linejoin="round" stroke-miterlimit="10" width="7.001" height="1.167"/>
	</g>
	<g id="POLYLINE_00000080184712540413954140000016416504573291772587_">
		
			<path fill="none" stroke="#3A54F5" stroke-width="2.5" stroke-linecap="round" stroke-linejoin="round" stroke-miterlimit="10" d="
			M226.28,67.886c0.001,0.511-0.172,1.02-0.485,1.424c-0.307,0.4-0.747,0.696-1.234,0.828c-0.2,0.055-0.408,0.082-0.615,0.082
			c-0.131-0.004-76.436,0.007-76.556-0.004c-0.163-0.009-0.327-0.036-0.485-0.079c-0.516-0.14-0.979-0.463-1.288-0.9
			c-0.279-0.391-0.432-0.871-0.431-1.351l-2.917,0c-0.001,0.991,0.287,1.981,0.819,2.816c0.541,0.854,1.336,1.545,2.257,1.963
			c0.68,0.309,1.427,0.472,2.174,0.471c0.457-0.016,76.333,0.022,76.719-0.008c0.178-0.01,0.364-0.03,0.541-0.058
			c0.461-0.074,0.915-0.211,1.34-0.404c0.941-0.426,1.751-1.139,2.293-2.02c0.51-0.823,0.785-1.791,0.784-2.76H226.28z"/>
	</g>
	<g id="POLYLINE_00000142140436681550430990000011177702818553025158_">
		
			<rect x="207.74" y="94.048" fill="none" stroke="#3A54F5" stroke-width="2.5" stroke-linecap="round" stroke-linejoin="round" stroke-miterlimit="10" width="2.915" height="1.662"/>
	</g>
	<g id="POLYLINE_00000183948671387532304560000008122627147097727654_">
		
			<rect x="188.816" y="94.048" fill="none" stroke="#3A54F5" stroke-width="2.5" stroke-linecap="round" stroke-linejoin="round" stroke-miterlimit="10" width="2.915" height="1.662"/>
	</g>
	<g id="POLYLINE_00000038388224235210734370000003992780223431224498_">
		
			<path fill="none" stroke="#3A54F5" stroke-width="2.5" stroke-linecap="round" stroke-linejoin="round" stroke-miterlimit="10" d="
			M191.731,95.71c0.006-0.172-0.016-3.243,0.015-3.323c0.016-0.147,0.052-0.294,0.112-0.429c0.2-0.458,0.626-0.818,1.123-0.903
			c0.543-0.109,1.133,0.065,1.661,0.183c0.699,0.15,1.443,0.223,2.155,0.276c0.911,0.058,2.028,0.141,2.938,0.141
			c0.908,0,2.028-0.083,2.938-0.141c0.713-0.052,1.457-0.126,2.155-0.276c0.53-0.119,1.118-0.292,1.661-0.183
			c0.497,0.085,0.923,0.445,1.123,0.903c0.06,0.136,0.096,0.282,0.112,0.429c0.03,0.073,0.01,3.161,0.015,3.323H191.731z"/>
	</g>
	<g id="POLYLINE_00000016039027379394391480000005473314667466027695_">
		
			<path fill="none" stroke="#3A54F5" stroke-width="2.5" stroke-linecap="round" stroke-linejoin="round" stroke-miterlimit="10" d="
			M212.759,87.473c1.024,4.734,2.23,12.969,2.996,17.838"/>
	</g>
	<g id="POLYLINE_00000154405465470487767400000018096990094841057684_">
		
			<path fill="none" stroke="#3A54F5" stroke-width="2.5" stroke-linecap="round" stroke-linejoin="round" stroke-miterlimit="10" d="
			M186.711,87.473c-1.024,4.734-2.23,12.969-2.996,17.838"/>
	</g>
	<g id="POLYLINE_00000021111132685942516790000001248557774895410617_">
		
			<path fill="none" stroke="#3A54F5" stroke-width="2.5" stroke-linecap="round" stroke-linejoin="round" stroke-miterlimit="10" d="
			M199.735,136.728c2.273,0.004,4.539-0.686,6.43-1.946c1.403-0.943,2.623-2.206,3.718-3.488c1.28-1.531,2.371-3.243,3.221-5.049
			c1.355-2.936,2.182-6.116,2.744-9.293c0.236-2.439,0.534-5.105,0.366-7.543c-0.12-2.276-0.475-4.564-1.005-6.78
			c-0.553-2.274-1.312-4.53-2.357-6.626c-0.073-0.122-0.19-0.218-0.325-0.262c-0.943-0.083-11.543-0.003-12.791-0.03
			c0,0-12.605,0-12.605,0c-0.033,0-0.067,0.003-0.1,0.009c-0.05,0.009-0.099,0.024-0.144,0.045c-0.11,0.05-0.205,0.135-0.266,0.239
			c-1.045,2.096-1.804,4.352-2.357,6.626c-0.53,2.216-0.885,4.504-1.005,6.78c-0.177,2.435,0.137,5.112,0.366,7.543
			c0.562,3.177,1.388,6.356,2.744,9.293c0.849,1.806,1.941,3.518,3.221,5.049c1.094,1.282,2.314,2.544,3.718,3.488
			C195.196,136.042,197.463,136.732,199.735,136.728z"/>
	</g>
	<g id="POLYLINE_00000125597226407939276630000010038724910772942780_">
		
			<path fill="none" stroke="#3A54F5" stroke-width="2.5" stroke-linecap="round" stroke-linejoin="round" stroke-miterlimit="10" d="
			M179.273,73.136c-0.247,0.068-0.49,0.164-0.705,0.304c-0.22,0.143-0.413,0.327-0.579,0.53c-0.359,0.442-0.616,0.98-0.684,1.548
			c-0.046,0.373-0.019,0.753,0.029,1.124c0.117,0.856,0.325,1.738,0.532,2.576c0.638,2.482,1.424,4.981,2.766,7.18
			c0.167,0.232,0.4,0.416,0.667,0.519c0.162,0.064,0.334,0.101,0.507,0.117c5.868,0.609,12.031,0.92,17.93,0.858
			c5.908,0.062,12.081-0.249,17.957-0.86c0.163-0.017,0.327-0.054,0.48-0.114c0.266-0.104,0.5-0.288,0.667-0.519
			c1.342-2.2,2.128-4.698,2.766-7.18c0.206-0.839,0.415-1.721,0.532-2.576c0.048-0.371,0.076-0.752,0.029-1.124
			c-0.07-0.578-0.333-1.123-0.702-1.57c-0.168-0.201-0.363-0.383-0.585-0.523c-0.209-0.132-0.443-0.223-0.681-0.289"/>
	</g>
	<g id="POLYLINE_00000124151555559732993790000007987142713441083578_">
		
			<rect x="240.574" y="189.234" fill="none" stroke="#3A54F5" stroke-width="2.5" stroke-linecap="round" stroke-linejoin="round" stroke-miterlimit="10" width="1.167" height="7.001"/>
	</g>
	<g id="POLYLINE_00000087396391002777165140000008201854386005294724_">
		
			<rect x="240.574" y="91.222" fill="none" stroke="#3A54F5" stroke-width="2.5" stroke-linecap="round" stroke-linejoin="round" stroke-miterlimit="10" width="1.167" height="7.001"/>
	</g>
	<g id="POLYLINE_00000098940828199758387530000009835001185562744968_">
		
			<path fill="none" stroke="#3A54F5" stroke-width="2.5" stroke-linecap="round" stroke-linejoin="round" stroke-miterlimit="10" d="
			M236.782,158.606c-0.37-0.001-0.737,0.145-1.004,0.401c-0.381,0.356-0.543,0.922-0.407,1.425c0.107,0.42,0.412,0.783,0.808,0.96
			c0.144,0.065,0.299,0.107,0.456,0.123c0.048,0.005,0.099,0.008,0.148,0.008c0,0,3.792,0,3.792,0v-2.917H236.782z"/>
	</g>
	<g id="POLYLINE_00000145774425660053991230000016431989890930536614_">
		
			<rect x="240.574" y="156.564" fill="none" stroke="#3A54F5" stroke-width="2.5" stroke-linecap="round" stroke-linejoin="round" stroke-miterlimit="10" width="1.167" height="7.001"/>
	</g>
	<g id="POLYLINE_00000149345681845127428460000010189149156233692056_">
		
			<path fill="none" stroke="#3A54F5" stroke-width="2.5" stroke-linecap="round" stroke-linejoin="round" stroke-miterlimit="10" d="
			M238.24,161.522c0.002,0.104-0.004,27.428,0.002,27.524c0.007,0.154,0.029,0.308,0.066,0.457c0.06,0.244,0.161,0.479,0.296,0.691
			c0.416,0.665,1.184,1.087,1.969,1.082l0,2.917c-0.991,0.001-1.981-0.287-2.816-0.819c-0.854-0.541-1.545-1.336-1.963-2.257
			c-0.236-0.518-0.387-1.076-0.444-1.642c-0.014-0.137-0.023-0.278-0.026-0.415c-0.008-0.023,0.003-90.488-0.001-90.544
			c-0.001-0.769,0.171-1.538,0.499-2.234c0.438-0.936,1.162-1.737,2.049-2.268c0.811-0.488,1.756-0.75,2.702-0.749v2.917
			c-0.765-0.005-1.514,0.394-1.937,1.032c-0.146,0.217-0.256,0.461-0.322,0.714c-0.041,0.158-0.066,0.321-0.073,0.484
			c-0.011,0.124,0.003,60.07-0.002,60.195"/>
	</g>
</g>
<g id="_x32_D_x24_AG-BUILDINGS">
</g>
<g id="_x32_D_x24_AG-OUTLINE">
</g>
<g id="Isolation_Mode">
</g>
</svg>
