<?xml version="1.0" encoding="utf-8"?>
<!-- Generator: Adobe Illustrator 28.3.0, SVG Export Plug-In . SVG Version: 6.00 Build 0)  -->
<!DOCTYPE svg PUBLIC "-//W3C//DTD SVG 1.1//EN" "http://www.w3.org/Graphics/SVG/1.1/DTD/svg11.dtd" [
	<!ENTITY ns_extend "http://ns.adobe.com/Extensibility/1.0/">
	<!ENTITY ns_ai "http://ns.adobe.com/AdobeIllustrator/10.0/">
	<!ENTITY ns_graphs "http://ns.adobe.com/Graphs/1.0/">
	<!ENTITY ns_vars "http://ns.adobe.com/Variables/1.0/">
	<!ENTITY ns_imrep "http://ns.adobe.com/ImageReplacement/1.0/">
	<!ENTITY ns_sfw "http://ns.adobe.com/SaveForWeb/1.0/">
	<!ENTITY ns_custom "http://ns.adobe.com/GenericCustomNamespace/1.0/">
	<!ENTITY ns_adobe_xpath "http://ns.adobe.com/XPath/1.0/">
]>
<svg version="1.1" xmlns:x="&ns_extend;" xmlns:i="&ns_ai;" xmlns:graph="&ns_graphs;"
	 xmlns="http://www.w3.org/2000/svg" xmlns:xlink="http://www.w3.org/1999/xlink" x="0px" y="0px" width="1000px" height="650px"
	 viewBox="0 0 1000 650" enable-background="new 0 0 1000 650" xml:space="preserve">
<metadata>
	<sfw  xmlns="&ns_sfw;">
		<slices></slices>
		<sliceSourceBounds  bottomLeftOrigin="true" height="3473.752" width="10496.635" x="-4675.635" y="1300"></sliceSourceBounds>
	</sfw>
</metadata>
<g id="FILL-BACKGROUND">
</g>
<g id="N-DIMENSIONS">
</g>
<g id="N-TEXT">
</g>
<g id="_x32_D_x24_AG-DIAGRAM">
	<g id="POLYLINE_00000117676861666293039070000000635843226640063921_">
		<g>
			<g>
				<polyline fill="none" stroke="#3A54F5" stroke-width="3" stroke-linecap="round" stroke-linejoin="round" points="240,294.937 
					238,294.937 238,292.937 				"/>
				
					<line fill="none" stroke="#3A54F5" stroke-width="3" stroke-linecap="round" stroke-linejoin="round" stroke-dasharray="4.0755,6.1133" x1="238" y1="286.824" x2="238" y2="55.537"/>
				<polyline fill="none" stroke="#3A54F5" stroke-width="3" stroke-linecap="round" stroke-linejoin="round" points="238,52.481 
					238,50.481 240,50.481 				"/>
				
					<line fill="none" stroke="#3A54F5" stroke-width="3" stroke-linecap="round" stroke-linejoin="round" stroke-dasharray="4.0763,6.1145" x1="246.114" y1="50.481" x2="385.728" y2="50.481"/>
				<polyline fill="none" stroke="#3A54F5" stroke-width="3" stroke-linecap="round" stroke-linejoin="round" points="
					388.785,50.481 390.785,50.481 390.785,52.481 				"/>
				
					<line fill="none" stroke="#3A54F5" stroke-width="3" stroke-linecap="round" stroke-linejoin="round" stroke-dasharray="4.0755,6.1133" x1="390.785" y1="58.594" x2="390.785" y2="289.88"/>
				<polyline fill="none" stroke="#3A54F5" stroke-width="3" stroke-linecap="round" stroke-linejoin="round" points="
					390.785,292.937 390.785,294.937 388.785,294.937 				"/>
				
					<line fill="none" stroke="#3A54F5" stroke-width="3" stroke-linecap="round" stroke-linejoin="round" stroke-dasharray="4.0763,6.1145" x1="382.67" y1="294.937" x2="243.057" y2="294.937"/>
			</g>
		</g>
	</g>
	<g id="POLYLINE_00000029757822561197201510000005075436954991383213_">
		<g>
			<g>
				<polyline fill="none" stroke="#3A54F5" stroke-width="3" stroke-linecap="round" stroke-linejoin="round" points="
					425.873,52.481 425.873,50.481 427.873,50.481 				"/>
				
					<line fill="none" stroke="#3A54F5" stroke-width="3" stroke-linecap="round" stroke-linejoin="round" stroke-dasharray="4.0763,6.1145" x1="433.988" y1="50.481" x2="573.601" y2="50.481"/>
				<polyline fill="none" stroke="#3A54F5" stroke-width="3" stroke-linecap="round" stroke-linejoin="round" points="
					576.658,50.481 578.658,50.481 578.658,52.481 				"/>
				
					<line fill="none" stroke="#3A54F5" stroke-width="3" stroke-linecap="round" stroke-linejoin="round" stroke-dasharray="4.0755,6.1133" x1="578.658" y1="58.594" x2="578.658" y2="289.88"/>
				<polyline fill="none" stroke="#3A54F5" stroke-width="3" stroke-linecap="round" stroke-linejoin="round" points="
					578.658,292.937 578.658,294.937 576.658,294.937 				"/>
				
					<line fill="none" stroke="#3A54F5" stroke-width="3" stroke-linecap="round" stroke-linejoin="round" stroke-dasharray="4.0763,6.1145" x1="570.544" y1="294.937" x2="430.93" y2="294.937"/>
				<polyline fill="none" stroke="#3A54F5" stroke-width="3" stroke-linecap="round" stroke-linejoin="round" points="
					427.873,294.937 425.873,294.937 425.873,292.937 				"/>
				
					<line fill="none" stroke="#3A54F5" stroke-width="3" stroke-linecap="round" stroke-linejoin="round" stroke-dasharray="4.0755,6.1133" x1="425.873" y1="286.824" x2="425.873" y2="55.537"/>
			</g>
		</g>
	</g>
	<g id="POLYLINE_00000104691750677779605270000006374169611418362535_">
		<g>
			<g>
				<polyline fill="none" stroke="#3A54F5" stroke-width="3" stroke-linecap="round" stroke-linejoin="round" points="
					613.747,52.481 613.747,50.481 615.747,50.481 				"/>
				
					<line fill="none" stroke="#3A54F5" stroke-width="3" stroke-linecap="round" stroke-linejoin="round" stroke-dasharray="4.0763,6.1145" x1="621.861" y1="50.481" x2="761.475" y2="50.481"/>
				<polyline fill="none" stroke="#3A54F5" stroke-width="3" stroke-linecap="round" stroke-linejoin="round" points="
					764.532,50.481 766.532,50.481 766.532,52.481 				"/>
				
					<line fill="none" stroke="#3A54F5" stroke-width="3" stroke-linecap="round" stroke-linejoin="round" stroke-dasharray="4.0755,6.1133" x1="766.532" y1="58.594" x2="766.532" y2="289.88"/>
				<polyline fill="none" stroke="#3A54F5" stroke-width="3" stroke-linecap="round" stroke-linejoin="round" points="
					766.532,292.937 766.532,294.937 764.532,294.937 				"/>
				
					<line fill="none" stroke="#3A54F5" stroke-width="3" stroke-linecap="round" stroke-linejoin="round" stroke-dasharray="4.0763,6.1145" x1="758.417" y1="294.937" x2="618.804" y2="294.937"/>
				<polyline fill="none" stroke="#3A54F5" stroke-width="3" stroke-linecap="round" stroke-linejoin="round" points="
					615.747,294.937 613.747,294.937 613.747,292.937 				"/>
				
					<line fill="none" stroke="#3A54F5" stroke-width="3" stroke-linecap="round" stroke-linejoin="round" stroke-dasharray="4.0755,6.1133" x1="613.747" y1="286.824" x2="613.747" y2="55.537"/>
			</g>
		</g>
	</g>
	<g id="POLYLINE_00000072962199326833145360000017589359609751539092_">
		<g>
			<g>
				<path fill="none" stroke="#3A54F5" stroke-width="3" stroke-linecap="round" stroke-linejoin="round" d="M52.123,294.937
					c-1.3,0-1.997,0-1.997,0v-2"/>
				
					<line fill="none" stroke="#3A54F5" stroke-width="3" stroke-linecap="round" stroke-linejoin="round" stroke-dasharray="4.0763,6.1145" x1="50.126" y1="286.822" x2="50.126" y2="147.209"/>
				<polyline fill="none" stroke="#3A54F5" stroke-width="3" stroke-linecap="round" stroke-linejoin="round" points="
					50.126,144.152 50.126,142.152 52.126,142.152 				"/>
				
					<line fill="none" stroke="#3A54F5" stroke-width="3" stroke-linecap="round" stroke-linejoin="round" stroke-dasharray="4.0763,6.1145" x1="58.241" y1="142.152" x2="197.854" y2="142.152"/>
				<polyline fill="none" stroke="#3A54F5" stroke-width="3" stroke-linecap="round" stroke-linejoin="round" points="
					200.911,142.152 202.911,142.152 202.911,144.152 				"/>
				
					<line fill="none" stroke="#3A54F5" stroke-width="3" stroke-linecap="round" stroke-linejoin="round" stroke-dasharray="4.0763,6.1145" x1="202.911" y1="150.266" x2="202.911" y2="289.88"/>
				<path fill="none" stroke="#3A54F5" stroke-width="3" stroke-linecap="round" stroke-linejoin="round" d="M202.911,292.937v2
					c0,0-0.697,0-1.997,0"/>
				
					<path fill="none" stroke="#3A54F5" stroke-width="3" stroke-linecap="round" stroke-linejoin="round" stroke-dasharray="4.0763,6.1145" d="
					M194.803,294.937c-27.584,0-117.314,0-139.621,0"/>
			</g>
		</g>
	</g>
	<g id="POLYLINE_00000081626330185053021430000004994231184617488034_">
		<g>
			<g>
				<polyline fill="none" stroke="#3A54F5" stroke-width="3" stroke-linecap="round" stroke-linejoin="round" points="240,589.519 
					238,589.519 238,587.519 				"/>
				
					<line fill="none" stroke="#3A54F5" stroke-width="3" stroke-linecap="round" stroke-linejoin="round" stroke-dasharray="4.0755,6.1133" x1="238" y1="581.406" x2="238" y2="350.12"/>
				<polyline fill="none" stroke="#3A54F5" stroke-width="3" stroke-linecap="round" stroke-linejoin="round" points="238,347.063 
					238,345.063 240,345.063 				"/>
				
					<line fill="none" stroke="#3A54F5" stroke-width="3" stroke-linecap="round" stroke-linejoin="round" stroke-dasharray="4.0763,6.1145" x1="246.114" y1="345.063" x2="385.728" y2="345.063"/>
				<polyline fill="none" stroke="#3A54F5" stroke-width="3" stroke-linecap="round" stroke-linejoin="round" points="
					388.785,345.063 390.785,345.063 390.785,347.063 				"/>
				
					<line fill="none" stroke="#3A54F5" stroke-width="3" stroke-linecap="round" stroke-linejoin="round" stroke-dasharray="4.0755,6.1133" x1="390.785" y1="353.176" x2="390.785" y2="584.463"/>
				<polyline fill="none" stroke="#3A54F5" stroke-width="3" stroke-linecap="round" stroke-linejoin="round" points="
					390.785,587.519 390.785,589.519 388.785,589.519 				"/>
				
					<line fill="none" stroke="#3A54F5" stroke-width="3" stroke-linecap="round" stroke-linejoin="round" stroke-dasharray="4.0763,6.1145" x1="382.67" y1="589.519" x2="243.057" y2="589.519"/>
			</g>
		</g>
	</g>
	<g id="POLYLINE_00000058547785803150519650000013315872588358433470_">
		<g>
			<g>
				<polyline fill="none" stroke="#3A54F5" stroke-width="3" stroke-linecap="round" stroke-linejoin="round" points="
					425.873,347.063 425.873,345.063 427.873,345.063 				"/>
				
					<line fill="none" stroke="#3A54F5" stroke-width="3" stroke-linecap="round" stroke-linejoin="round" stroke-dasharray="4.0755,6.1133" x1="433.987" y1="345.063" x2="665.272" y2="345.063"/>
				<polyline fill="none" stroke="#3A54F5" stroke-width="3" stroke-linecap="round" stroke-linejoin="round" points="
					668.329,345.063 670.329,345.063 670.329,347.063 				"/>
				
					<line fill="none" stroke="#3A54F5" stroke-width="3" stroke-linecap="round" stroke-linejoin="round" stroke-dasharray="4.0755,6.1133" x1="670.329" y1="353.176" x2="670.329" y2="584.463"/>
				<polyline fill="none" stroke="#3A54F5" stroke-width="3" stroke-linecap="round" stroke-linejoin="round" points="
					670.329,587.519 670.329,589.519 668.329,589.519 				"/>
				
					<line fill="none" stroke="#3A54F5" stroke-width="3" stroke-linecap="round" stroke-linejoin="round" stroke-dasharray="4.0755,6.1133" x1="662.216" y1="589.519" x2="430.93" y2="589.519"/>
				<polyline fill="none" stroke="#3A54F5" stroke-width="3" stroke-linecap="round" stroke-linejoin="round" points="
					427.873,589.519 425.873,589.519 425.873,587.519 				"/>
				
					<line fill="none" stroke="#3A54F5" stroke-width="3" stroke-linecap="round" stroke-linejoin="round" stroke-dasharray="4.0755,6.1133" x1="425.873" y1="581.406" x2="425.873" y2="350.12"/>
			</g>
		</g>
	</g>
	<g id="POLYLINE_00000158712538774291135350000016087629039390947005_">
		<g>
			<g>
				<polyline fill="none" stroke="#3A54F5" stroke-width="3" stroke-linecap="round" stroke-linejoin="round" points="
					705.417,347.063 705.417,345.063 707.417,345.063 				"/>
				
					<line fill="none" stroke="#3A54F5" stroke-width="3" stroke-linecap="round" stroke-linejoin="round" stroke-dasharray="4.0755,6.1133" x1="713.531" y1="345.063" x2="944.817" y2="345.063"/>
				<polyline fill="none" stroke="#3A54F5" stroke-width="3" stroke-linecap="round" stroke-linejoin="round" points="
					947.874,345.063 949.874,345.063 949.874,347.063 				"/>
				
					<line fill="none" stroke="#3A54F5" stroke-width="3" stroke-linecap="round" stroke-linejoin="round" stroke-dasharray="4.0755,6.1133" x1="949.874" y1="353.176" x2="949.874" y2="584.463"/>
				<polyline fill="none" stroke="#3A54F5" stroke-width="3" stroke-linecap="round" stroke-linejoin="round" points="
					949.874,587.519 949.874,589.519 947.874,589.519 				"/>
				
					<line fill="none" stroke="#3A54F5" stroke-width="3" stroke-linecap="round" stroke-linejoin="round" stroke-dasharray="4.0755,6.1133" x1="941.76" y1="589.519" x2="710.474" y2="589.519"/>
				<polyline fill="none" stroke="#3A54F5" stroke-width="3" stroke-linecap="round" stroke-linejoin="round" points="
					707.417,589.519 705.417,589.519 705.417,587.519 				"/>
				
					<line fill="none" stroke="#3A54F5" stroke-width="3" stroke-linecap="round" stroke-linejoin="round" stroke-dasharray="4.0755,6.1133" x1="705.417" y1="581.406" x2="705.417" y2="350.12"/>
			</g>
		</g>
	</g>
	<g id="POLYLINE_00000063635596499668363720000015669832836857200271_">
		<g>
			<g>
				<path fill="none" stroke="#3A54F5" stroke-width="3" stroke-linecap="round" stroke-linejoin="round" d="M52.123,589.519
					c-1.3,0-1.997,0-1.997,0v-2"/>
				
					<line fill="none" stroke="#3A54F5" stroke-width="3" stroke-linecap="round" stroke-linejoin="round" stroke-dasharray="4.0755,6.1133" x1="50.126" y1="581.406" x2="50.126" y2="350.12"/>
				<polyline fill="none" stroke="#3A54F5" stroke-width="3" stroke-linecap="round" stroke-linejoin="round" points="
					50.126,347.063 50.126,345.063 52.126,345.063 				"/>
				
					<line fill="none" stroke="#3A54F5" stroke-width="3" stroke-linecap="round" stroke-linejoin="round" stroke-dasharray="4.0763,6.1145" x1="58.241" y1="345.063" x2="197.854" y2="345.063"/>
				<polyline fill="none" stroke="#3A54F5" stroke-width="3" stroke-linecap="round" stroke-linejoin="round" points="
					200.911,345.063 202.911,345.063 202.911,347.063 				"/>
				
					<line fill="none" stroke="#3A54F5" stroke-width="3" stroke-linecap="round" stroke-linejoin="round" stroke-dasharray="4.0755,6.1133" x1="202.911" y1="353.176" x2="202.911" y2="584.463"/>
				<path fill="none" stroke="#3A54F5" stroke-width="3" stroke-linecap="round" stroke-linejoin="round" d="M202.911,587.519v2
					c0,0-0.697,0-1.997,0"/>
				
					<path fill="none" stroke="#3A54F5" stroke-width="3" stroke-linecap="round" stroke-linejoin="round" stroke-dasharray="4.0763,6.1145" d="
					M194.803,589.519c-27.584,0-117.314,0-139.621,0"/>
			</g>
		</g>
	</g>
</g>
<g id="_x32_D_x24_AG-DETAILS-DIAGRAM">
</g>
<g id="_x32_D_x24_AG-FIXTURES">
	<g id="POLYLINE_00000074424369288525288910000008578459570173050538_">
		
			<path fill="none" stroke="#3A54F5" stroke-width="2.5" stroke-linecap="round" stroke-linejoin="round" stroke-miterlimit="10" d="
			M333.722,274.344c0.357,0.397,0.679,0.837,0.866,1.341c0.236,0.614,0.296,1.283,0.266,1.935c-0.009,0.196-0.027,0.42-0.048,0.615
			c0,0-0.028,0.267-0.028,0.267l-1.712,15.729c-0.006,0.054-0.005,0.111,0.004,0.165c0.026,0.175,0.128,0.336,0.276,0.434
			c0.104,0.069,0.229,0.107,0.353,0.107c0.066-0.003,22.508,0.007,22.568-0.003c0.091-0.009,0.181-0.039,0.26-0.086
			c0.185-0.108,0.306-0.314,0.311-0.528c0.001-0.029,0-0.059-0.003-0.088c0,0-1.712-15.729-1.712-15.729
			c-0.012-0.078-0.046-0.46-0.054-0.538c-0.019-0.201-0.027-0.424-0.029-0.627c-0.003-0.537,0.065-1.081,0.248-1.587
			c0.098-0.272,0.229-0.532,0.389-0.772c0.123-0.185,0.267-0.365,0.413-0.533c0.717-0.817,1.676-1.899,2.336-2.758
			c1.375-1.765,2.557-3.711,3.34-5.812c0.732-1.951,1.116-4.039,1.112-6.124c-0.015-0.473-0.036-0.965-0.218-1.408
			c-0.106-0.252-0.286-0.456-0.548-0.546c-0.131-0.047-0.27-0.067-0.408-0.075c-0.053-0.014-33.258,0.001-33.35-0.004
			c-0.189,0.001-0.384,0.015-0.563,0.079c-0.125,0.044-0.241,0.116-0.333,0.211c-0.108,0.111-0.184,0.249-0.239,0.393
			c-0.159,0.429-0.181,0.897-0.195,1.35c-0.016,3.193,0.92,6.354,2.528,9.102C330.683,270.836,332.205,272.643,333.722,274.344z"/>
	</g>
	<g id="POLYLINE_00000009579606733665166020000003948732085322741912_">
		
			<path fill="none" stroke="#3A54F5" stroke-width="2.5" stroke-linecap="round" stroke-linejoin="round" stroke-miterlimit="10" d="
			M362.877,253.683c0.001-0.32-0.161-0.616-0.374-0.847c-0.264-0.286-0.598-0.499-0.942-0.675c-0.506-0.254-1.055-0.431-1.604-0.564
			c-0.708-0.169-1.44-0.265-2.166-0.306c-0.215-0.012-0.453-0.02-0.668-0.022c-0.081-0.006-24.111,0.003-24.215-0.001
			c-0.859,0.001-1.727,0.075-2.57,0.242c-0.863,0.178-1.736,0.436-2.475,0.929c-0.31,0.213-0.603,0.48-0.753,0.831
			c-0.039,0.092-0.067,0.19-0.079,0.29c-0.016,0.118-0.004,0.414-0.006,0.534c0.005,0.108,0.026,0.216,0.062,0.318
			c0.151,0.436,0.579,0.739,1.04,0.735c0.049-0.001,33.653,0.002,33.698-0.001c0.086-0.004,0.172-0.018,0.254-0.041
			c0.142-0.041,0.277-0.111,0.392-0.204c0.174-0.141,0.304-0.337,0.365-0.553C362.899,254.165,362.871,253.874,362.877,253.683z"/>
	</g>
	<g id="POLYLINE_00000134943010514667112300000005164925166295451288_">
		
			<path fill="none" stroke="#3A54F5" stroke-width="2.5" stroke-linecap="round" stroke-linejoin="round" stroke-miterlimit="10" d="
			M362.877,256.252c0.003-0.415-0.246-0.814-0.621-0.992c-0.12-0.058-0.25-0.094-0.383-0.106c0.001-0.021-33.716,0.006-33.748-0.004
			c-0.166,0-0.332,0.038-0.482,0.111c-0.262,0.126-0.47,0.361-0.562,0.637c-0.025,0.074-0.043,0.152-0.052,0.231
			c-0.003,0.033-0.006,0.067-0.007,0.1c0,0,0,0.012,0,0.012s0,0.012,0,0.012s0,0.363,0,0.363c-0.001,0.284,0.114,0.567,0.313,0.77
			c0.146,0.15,0.335,0.257,0.538,0.304c0.082,0.019,0.167,0.029,0.252,0.029c0.005,0.001,33.667,0,33.674,0
			c0.054-0.001,0.11-0.007,0.163-0.016c0.377-0.062,0.709-0.335,0.842-0.693c0.031-0.082,0.053-0.169,0.064-0.256
			c0.003-0.033,0.007-0.067,0.008-0.1c0.002-0.011,0-0.026,0.001-0.037C362.877,256.615,362.877,256.252,362.877,256.252z"/>
	</g>
	<g id="POLYLINE_00000178179523070057312910000004254895688063563166_">
		
			<line fill="none" stroke="#3A54F5" stroke-width="2.5" stroke-linecap="round" stroke-linejoin="round" stroke-miterlimit="10" x1="362.006" y1="255.174" x2="362.028" y2="255.12"/>
	</g>
	<g id="POLYLINE_00000040576174519270666900000002351972951521035191_">
		
			<line fill="none" stroke="#3A54F5" stroke-width="2.5" stroke-linecap="round" stroke-linejoin="round" stroke-miterlimit="10" x1="327.892" y1="255.174" x2="327.871" y2="255.12"/>
	</g>
	<g id="POLYLINE_00000082346527644055044760000012041159141602080129_">
		
			<path fill="none" stroke="#3A54F5" stroke-width="2.5" stroke-linecap="round" stroke-linejoin="round" stroke-miterlimit="10" d="
			M320.296,226.892c12.289,0,37.02,0,49.307,0"/>
	</g>
	<g id="POLYLINE_00000149355411768914110330000009658390122063638191_">
		
			<path fill="none" stroke="#3A54F5" stroke-width="2.5" stroke-linecap="round" stroke-linejoin="round" stroke-miterlimit="10" d="
			M327.022,256.558c-0.409-0.012-0.93-0.004-1.34-0.044c-0.147-0.014-0.295-0.04-0.436-0.086c-0.419-0.132-0.795-0.393-1.073-0.733
			c-0.324-0.382-0.46-0.849-0.583-1.325c-0.615-2.614-1.324-5.64-1.728-8.286c-0.74-4.679-1.125-9.595-1.379-14.326
			c-0.111-2.414-0.237-5.173-0.212-7.585c0.01-0.148,0.037-0.297,0.087-0.437c0.101-0.293,0.293-0.562,0.563-0.719
			c0.158-0.093,0.337-0.146,0.517-0.175c6.578-0.333,16.841-0.349,23.511-0.406c6.692,0.058,16.902,0.071,23.511,0.406
			c0.18,0.03,0.359,0.082,0.517,0.175c0.27,0.157,0.462,0.426,0.563,0.719c0.053,0.151,0.081,0.311,0.088,0.47
			c0.019,2.4-0.098,5.151-0.214,7.553c-0.256,4.731-0.639,9.646-1.379,14.326c-0.411,2.679-1.102,5.644-1.727,8.286
			c-0.123,0.474-0.259,0.943-0.583,1.325c-0.29,0.355-0.687,0.624-1.128,0.75c-0.1,0.03-0.205,0.05-0.309,0.062
			c-0.439,0.054-0.966,0.038-1.41,0.052"/>
	</g>
	<g id="POLYLINE_00000168814439129780328620000010239004539181684153_">
		
			<path fill="none" stroke="#3A54F5" stroke-width="2.5" stroke-linecap="round" stroke-linejoin="round" stroke-miterlimit="10" d="
			M283.87,206.767c0.255,0.015,91.621-0.028,91.853,0.015c0.271,0.037,0.531,0.146,0.748,0.311c0.311,0.236,0.529,0.589,0.599,0.973
			c0.072,0.383-0.002,0.791-0.207,1.123c-0.21,0.345-0.554,0.603-0.944,0.706c-0.108,0.029-0.22,0.047-0.332,0.053
			c-0.023,0.009-91.661-0.003-91.717,0.002c-0.191,0.004-0.383-0.026-0.563-0.09c-0.261-0.092-0.498-0.253-0.678-0.463
			c-0.217-0.251-0.352-0.572-0.38-0.903c-0.026-0.296,0.034-0.598,0.17-0.862C282.69,207.096,283.27,206.75,283.87,206.767z"/>
	</g>
	<g id="POLYLINE_00000181080328741617606430000003550974039202350002_">
		
			<path fill="none" stroke="#3A54F5" stroke-width="2.5" stroke-linecap="round" stroke-linejoin="round" stroke-miterlimit="10" d="
			M385.374,206.767c-0.543-0.004-1.073,0.292-1.355,0.756c-0.218,0.35-0.29,0.787-0.197,1.189c0.088,0.394,0.334,0.749,0.67,0.971
			c0.198,0.132,0.427,0.219,0.662,0.251c0.062,0.009,0.129,0.014,0.192,0.015c0.039,0.013,4.128-0.009,4.165,0v-3.183H385.374z"/>
	</g>
	<g id="POLYLINE_00000036933310528904647500000015475455542932968335_">
		
			<rect x="389.512" y="204.539" fill="none" stroke="#3A54F5" stroke-width="2.5" stroke-linecap="round" stroke-linejoin="round" stroke-miterlimit="10" width="1.273" height="7.639"/>
	</g>
	<g id="POLYLINE_00000012442106999844976210000002786981923486218126_">
		
			<path fill="none" stroke="#3A54F5" stroke-width="2.5" stroke-linecap="round" stroke-linejoin="round" stroke-miterlimit="10" d="
			M372.034,206.767c0.34-0.746,0.929-1.376,1.65-1.766c0.774-0.423,1.697-0.563,2.561-0.39c0.868,0.169,1.67,0.652,2.226,1.34
			c0.549,0.673,0.856,1.539,0.854,2.408c0.002,0.869-0.305,1.734-0.854,2.408c-0.556,0.688-1.358,1.171-2.226,1.34
			c-0.876,0.175-1.812,0.028-2.592-0.407c-0.708-0.391-1.284-1.013-1.62-1.749"/>
	</g>
	<g id="POLYLINE_00000038414220369713264720000013600431632489404046_">
		
			<path fill="none" stroke="#3A54F5" stroke-width="2.5" stroke-linecap="round" stroke-linejoin="round" stroke-miterlimit="10" d="
			M287.307,209.95c-0.377,0.829-1.063,1.513-1.894,1.887c-0.808,0.369-1.747,0.442-2.603,0.201
			c-0.792-0.219-1.508-0.703-2.007-1.356c-0.501-0.651-0.783-1.469-0.788-2.29c-0.009-0.844,0.273-1.688,0.788-2.357
			c0.499-0.653,1.215-1.137,2.007-1.356c0.877-0.247,1.842-0.164,2.663,0.23c0.804,0.379,1.465,1.05,1.833,1.859"/>
	</g>
	<g id="POLYLINE_00000147212971035368735930000000662320777079344041_">
		
			<rect x="389.512" y="143.425" fill="none" stroke="#3A54F5" stroke-width="2.5" stroke-linecap="round" stroke-linejoin="round" stroke-miterlimit="10" width="1.273" height="7.639"/>
	</g>
	<g id="POLYLINE_00000009571530113243642880000007813151588998132887_">
		
			<rect x="389.512" y="189.261" fill="none" stroke="#3A54F5" stroke-width="2.5" stroke-linecap="round" stroke-linejoin="round" stroke-miterlimit="10" width="1.273" height="7.639"/>
	</g>
	<g id="POLYLINE_00000166645978126947600980000001573557555891849630_">
		
			<path fill="none" stroke="#3A54F5" stroke-width="2.5" stroke-linecap="round" stroke-linejoin="round" stroke-miterlimit="10" d="
			M389.512,191.489c-0.546,0.001-1.091-0.18-1.527-0.509c-0.45-0.336-0.782-0.825-0.929-1.367c-0.06-0.218-0.09-0.445-0.09-0.671
			c0.008-0.223-0.011-37.513,0.004-37.702c0.01-0.178,0.039-0.357,0.086-0.529c0.149-0.552,0.492-1.05,0.955-1.386
			c0.432-0.316,0.966-0.491,1.501-0.489l0-3.183c-1.081-0.001-2.161,0.313-3.073,0.894c-0.912,0.578-1.654,1.42-2.111,2.398
			c-0.357,0.759-0.545,1.598-0.544,2.437c0,0,0,37.56,0,37.56c0,0.101,0.003,0.218,0.009,0.32c0.013,0.24,0.043,0.486,0.087,0.723
			c0.089,0.48,0.241,0.952,0.449,1.395c0.468,1,1.234,1.858,2.173,2.437c0.898,0.557,1.954,0.857,3.011,0.855
			C389.512,194.671,389.512,191.489,389.512,191.489z"/>
	</g>
	<g id="POLYLINE_00000103262971515784093110000001776838307565228478_">
		
			<path fill="none" stroke="#3A54F5" stroke-width="2.5" stroke-linecap="round" stroke-linejoin="round" stroke-miterlimit="10" d="
			M430.984,226.09v-2.843c0.001-0.022,0.001-0.048,0.003-0.07c0.007-0.083,0.028-0.166,0.06-0.242
			c0.114-0.277,0.392-0.474,0.691-0.489c5.29,0.023,11.512,0.019,16.731,0.66c0.188,0.034,0.362,0.137,0.481,0.286
			c0.085,0.105,0.142,0.232,0.165,0.364c0.007,0.041,0.011,0.083,0.012,0.125c0.002,0.013-0.001,2.194,0,2.208
			c0,0.161-0.05,0.323-0.142,0.456c-0.146,0.214-0.401,0.348-0.66,0.346c-0.079-0.008-16.526,0.008-16.594-0.002
			c-0.092-0.006-0.183-0.029-0.268-0.066C431.177,226.701,430.981,226.401,430.984,226.09z"/>
	</g>
	<g id="POLYLINE_00000073723411220277678710000016789292886023222932_">
		
			<path fill="none" stroke="#3A54F5" stroke-width="2.5" stroke-linecap="round" stroke-linejoin="round" stroke-miterlimit="10" d="
			M457.962,256.615c0.003-0.199-0.019-0.492,0.047-0.682c0.066-0.219,0.202-0.416,0.383-0.555c0.151-0.116,0.332-0.192,0.521-0.218
			c0.257-0.028,42.089-0.009,42.364-0.005c0.158,0.016,0.312,0.067,0.448,0.148c0.319,0.186,0.53,0.541,0.54,0.911
			c-0.004,0.213,0.023,0.516-0.046,0.72c-0.068,0.225-0.209,0.427-0.398,0.566c-0.148,0.11-0.323,0.182-0.506,0.207
			c-0.05,0.007-0.101,0.01-0.152,0.01c-0.197-0.012-42.063,0.018-42.231-0.008c-0.164-0.02-0.323-0.077-0.462-0.166
			C458.158,257.347,457.959,256.985,457.962,256.615z"/>
	</g>
	<g id="POLYLINE_00000056398059248296442910000008276435653619423156_">
		
			<path fill="none" stroke="#3A54F5" stroke-width="2.5" stroke-linecap="round" stroke-linejoin="round" stroke-miterlimit="10" d="
			M501.844,254.731c-0.069,0.182-0.205,0.32-0.392,0.378c-0.083,0.027-0.171,0.038-0.258,0.04
			c-0.315-0.011-42.046,0.023-42.344-0.011c-0.105-0.015-0.211-0.047-0.297-0.11c-0.069-0.05-0.121-0.122-0.151-0.201
			c-0.044-0.117-0.046-0.247-0.032-0.37c0.025-0.213,0.095-0.421,0.174-0.62c0,0,0.783-1.874,0.783-1.874
			c0.017-0.04,0.036-0.083,0.057-0.121c0.051-0.096,0.114-0.188,0.19-0.266c0.196-0.207,0.482-0.303,0.763-0.306
			c13.147,0.088,27.278,0.479,40.344,1.702c0.236,0.034,0.471,0.104,0.664,0.248c0.222,0.159,0.406,0.382,0.494,0.642
			C501.933,254.141,501.916,254.448,501.844,254.731z"/>
	</g>
	<g id="POLYLINE_00000165201292935935557970000004938316773905924245_">
		
			<path fill="none" stroke="#3A54F5" stroke-width="2.5" stroke-linecap="round" stroke-linejoin="round" stroke-miterlimit="10" d="
			M431.345,226.76l0.555,27.894c0,0.068,0.003,0.149,0.006,0.217c0.014,0.24,0.049,0.482,0.128,0.71
			c0.063,0.183,0.158,0.358,0.292,0.499c0.121,0.128,0.273,0.224,0.439,0.283c0.141,0.05,0.291,0.075,0.44,0.083
			c0.034,0.002,0.073,0.003,0.108,0.003c0,0,13.435,0,13.435,0h-13.435"/>
	</g>
	<g id="POLYLINE_00000175323906609517058760000009333115404311251898_">
		
			<path fill="none" stroke="#3A54F5" stroke-width="2.5" stroke-linecap="round" stroke-linejoin="round" stroke-miterlimit="10" d="
			M448.754,226.767c-0.015,6.794-0.226,20.957-0.377,27.821c-0.009,0.192-0.031,0.389-0.072,0.577
			c-0.046,0.21-0.116,0.417-0.225,0.603c-0.124,0.213-0.305,0.393-0.525,0.506c-0.247,0.129-0.531,0.175-0.808,0.175v1.269h12.913"
			/>
	</g>
	<g id="POLYLINE_00000082356754636780772590000015011265869582208182_">
		
			<path fill="none" stroke="#3A54F5" stroke-width="2.5" stroke-linecap="round" stroke-linejoin="round" stroke-miterlimit="10" d="
			M433.313,258.987v-2.538v5.383c0.104,0.289,0.239,0.584,0.475,0.79c0.495,2.444,0.739,4.959,0.722,7.454
			c-0.007,1.769-0.141,3.575-0.51,5.307c-0.229,0.818-0.338,1.674-0.384,2.52c-0.001,0.072,0.001,13.871,0,13.934
			c-0.002,0.14-0.011,0.287-0.028,0.426c-0.025,0.202-0.065,0.407-0.152,0.592c-0.08,0.168-0.178,0.342-0.23,0.521
			c-0.122,0.406-0.172,0.834-0.171,1.258c0.003,0.061,0.013,0.123,0.038,0.179c0.022,0.051,0.063,0.094,0.116,0.112
			c0.067,0.05,59.536-0.008,59.614,0.011c0.073-0.005,0.146-0.02,0.212-0.052c0.086-0.04,0.156-0.109,0.202-0.192
			c0.087-0.157,0.102-0.343,0.1-0.52c-0.07-0.936-2.539-16.895-2.578-17.587c-0.065-0.664-0.092-1.347-0.031-2.013
			c0.073-0.899,0.387-1.777,0.919-2.506c1.091-1.499,2.797-2.469,4.252-3.569c1.097-0.815,2.083-1.787,2.941-2.851
			c1.634-2.008,2.905-4.44,3.036-7.065c0.003-0.229-0.023-0.479-0.176-0.661c-0.125-0.15-0.328-0.204-0.518-0.202"/>
	</g>
	<g id="POLYLINE_00000167379416022746379080000000788669949492613559_">
		
			<path fill="none" stroke="#3A54F5" stroke-width="2.5" stroke-linecap="round" stroke-linejoin="round" stroke-miterlimit="10" d="
			M431.284,206.767c0.543-0.004,1.073,0.292,1.355,0.756c0.218,0.35,0.29,0.787,0.197,1.189c-0.088,0.394-0.334,0.749-0.67,0.971
			c-0.198,0.132-0.427,0.219-0.662,0.251c-0.062,0.009-0.129,0.014-0.192,0.015c-0.039,0.013-4.128-0.009-4.165,0v-3.183H431.284z"
			/>
	</g>
	<g id="POLYLINE_00000093144542425444515400000008799958348131883170_">
		
			<rect x="425.873" y="204.539" fill="none" stroke="#3A54F5" stroke-width="2.5" stroke-linecap="round" stroke-linejoin="round" stroke-miterlimit="10" width="1.273" height="7.639"/>
	</g>
	<g id="POLYLINE_00000107558267386234760290000017237349758628843953_">
		
			<path fill="none" stroke="#3A54F5" stroke-width="2.5" stroke-linecap="round" stroke-linejoin="round" stroke-miterlimit="10" d="
			M456.466,206.767h106.879c0.528-0.015,1.054,0.254,1.349,0.693c0.306,0.442,0.364,1.041,0.145,1.534
			c-0.181,0.42-0.551,0.751-0.988,0.885c-0.12,0.037-0.245,0.06-0.37,0.068c-0.073,0.013-106.964-0.004-107.073,0.003
			c-0.462-0.004-0.917-0.224-1.209-0.583c-0.269-0.326-0.399-0.763-0.351-1.184c0.043-0.395,0.239-0.77,0.54-1.029
			C455.684,206.899,456.075,206.758,456.466,206.767z"/>
	</g>
	<g id="POLYLINE_00000039130717519237299560000010418052562304564897_">
		
			<path fill="none" stroke="#3A54F5" stroke-width="2.5" stroke-linecap="round" stroke-linejoin="round" stroke-miterlimit="10" d="
			M526.139,193.045c0-0.039,0.001-45.768,0-45.803c0-0.084,0.007-0.171,0.021-0.254c0.049-0.301,0.187-0.588,0.393-0.813
			c0.301-0.334,0.748-0.528,1.197-0.521c0.449,0.004,0.892,0.209,1.184,0.55c0.165,0.191,0.284,0.422,0.343,0.667
			c0.025,0.102,0.039,0.208,0.044,0.313c0.005,0.148-0.002,45.753,0.001,45.92c-0.002,0.118-0.017,0.237-0.045,0.352
			c-0.095,0.399-0.351,0.755-0.699,0.972c-0.324,0.205-0.723,0.286-1.101,0.224c-0.379-0.06-0.733-0.263-0.976-0.56
			C526.26,193.801,526.129,193.422,526.139,193.045z"/>
	</g>
	<g id="POLYLINE_00000079482863328496198510000017586495201444922023_">
		
			<path fill="none" stroke="#3A54F5" stroke-width="2.5" stroke-linecap="round" stroke-linejoin="round" stroke-miterlimit="10" d="
			M529.321,189.608c0.746,0.34,1.376,0.929,1.766,1.65c0.423,0.774,0.563,1.697,0.39,2.561c-0.169,0.868-0.652,1.67-1.34,2.226
			c-0.673,0.549-1.539,0.856-2.408,0.854c-0.869,0.002-1.734-0.305-2.407-0.854c-0.688-0.556-1.171-1.358-1.34-2.226
			c-0.175-0.876-0.028-1.812,0.407-2.592c0.391-0.708,1.013-1.284,1.749-1.62"/>
	</g>
	<g id="POLYLINE_00000174563586266796617070000002317587431952529799_">
		
			<path fill="none" stroke="#3A54F5" stroke-width="2.5" stroke-linecap="round" stroke-linejoin="round" stroke-miterlimit="10" d="
			M526.139,150.717c-0.746-0.34-1.376-0.929-1.766-1.65c-0.423-0.774-0.563-1.697-0.39-2.561c0.169-0.868,0.652-1.67,1.34-2.226
			c0.673-0.549,1.539-0.856,2.407-0.854c0.869-0.002,1.734,0.305,2.408,0.854c0.688,0.556,1.171,1.358,1.34,2.226
			c0.175,0.876,0.028,1.812-0.407,2.592c-0.391,0.708-1.013,1.284-1.749,1.62"/>
	</g>
	<g id="POLYLINE_00000029747130675981930680000002192968460826693822_">
		
			<path fill="none" stroke="#3A54F5" stroke-width="2.5" stroke-linecap="round" stroke-linejoin="round" stroke-miterlimit="10" d="
			M559.907,206.767c0.34-0.746,0.929-1.376,1.65-1.766c0.774-0.423,1.697-0.563,2.561-0.39c0.868,0.169,1.67,0.652,2.226,1.34
			c0.549,0.673,0.856,1.539,0.854,2.408c0.002,0.869-0.305,1.734-0.854,2.408c-0.556,0.688-1.358,1.171-2.226,1.34
			c-0.876,0.175-1.812,0.028-2.592-0.407c-0.708-0.391-1.284-1.013-1.62-1.749"/>
	</g>
	<g id="POLYLINE_00000087399621416967828750000000964307497455067551_">
		
			<path fill="none" stroke="#3A54F5" stroke-width="2.5" stroke-linecap="round" stroke-linejoin="round" stroke-miterlimit="10" d="
			M459.903,209.95c-0.34,0.746-0.929,1.376-1.65,1.766c-0.774,0.423-1.697,0.563-2.561,0.39c-0.868-0.169-1.67-0.652-2.226-1.34
			c-0.549-0.673-0.856-1.539-0.854-2.408c-0.002-0.869,0.305-1.734,0.854-2.408c0.556-0.688,1.358-1.171,2.226-1.34
			c0.876-0.175,1.812-0.028,2.592,0.407c0.708,0.391,1.284,1.013,1.62,1.749"/>
	</g>
	<g id="POLYLINE_00000044864368519406343410000016665184414295608449_">
		
			<rect x="765.258" y="204.539" fill="none" stroke="#3A54F5" stroke-width="2.5" stroke-linecap="round" stroke-linejoin="round" stroke-miterlimit="10" width="1.273" height="7.639"/>
	</g>
	<g id="POLYLINE_00000162341370416832785130000004771492903190625691_">
		
			<path fill="none" stroke="#3A54F5" stroke-width="2.5" stroke-linecap="round" stroke-linejoin="round" stroke-miterlimit="10" d="
			M761.121,206.767c-0.543-0.004-1.073,0.292-1.355,0.756c-0.218,0.35-0.29,0.787-0.197,1.189c0.089,0.394,0.334,0.749,0.67,0.971
			c0.198,0.132,0.427,0.219,0.662,0.251c0.062,0.009,0.129,0.014,0.192,0.015c0.039,0.013,4.128-0.009,4.165,0v-3.183H761.121z"/>
	</g>
	<g id="POLYLINE_00000155136579832707624490000007587457772476230562_">
		
			<path fill="none" stroke="#3A54F5" stroke-width="2.5" stroke-linecap="round" stroke-linejoin="round" stroke-miterlimit="10" d="
			M759.092,258.987v-2.538v5.383c-0.104,0.289-0.239,0.584-0.475,0.79c-0.495,2.444-0.739,4.959-0.722,7.454
			c0.007,1.769,0.141,3.575,0.51,5.307c0.229,0.818,0.338,1.674,0.384,2.52c0.001,0.072-0.001,13.871,0,13.934
			c0.002,0.14,0.011,0.287,0.028,0.426c0.025,0.202,0.065,0.407,0.152,0.592c0.08,0.168,0.178,0.342,0.23,0.521
			c0.122,0.406,0.172,0.834,0.171,1.258c-0.003,0.061-0.013,0.123-0.038,0.179c-0.022,0.051-0.063,0.094-0.116,0.112
			c-0.067,0.05-59.536-0.008-59.614,0.011c-0.073-0.005-0.146-0.02-0.212-0.052c-0.086-0.04-0.156-0.109-0.202-0.192
			c-0.087-0.157-0.102-0.343-0.1-0.52c0.07-0.936,2.539-16.895,2.578-17.587c0.065-0.664,0.092-1.347,0.031-2.013
			c-0.073-0.899-0.387-1.777-0.919-2.506c-1.091-1.499-2.797-2.469-4.252-3.569c-1.097-0.815-2.083-1.787-2.941-2.851
			c-1.634-2.008-2.905-4.44-3.036-7.065c-0.003-0.229,0.023-0.479,0.176-0.661c0.125-0.15,0.328-0.204,0.518-0.202"/>
	</g>
	<g id="POLYLINE_00000048458739392424679590000013428299785244714920_">
		
			<path fill="none" stroke="#3A54F5" stroke-width="2.5" stroke-linecap="round" stroke-linejoin="round" stroke-miterlimit="10" d="
			M743.651,226.767c0.015,6.794,0.226,20.957,0.377,27.821c0.009,0.192,0.031,0.389,0.072,0.577c0.046,0.21,0.116,0.417,0.225,0.603
			c0.124,0.213,0.305,0.393,0.525,0.506c0.247,0.129,0.531,0.175,0.808,0.175v1.269h-12.913"/>
	</g>
	<g id="POLYLINE_00000127725882289473345280000005174100200643305861_">
		
			<path fill="none" stroke="#3A54F5" stroke-width="2.5" stroke-linecap="round" stroke-linejoin="round" stroke-miterlimit="10" d="
			M761.06,226.76l-0.555,27.894c0,0.068-0.003,0.149-0.006,0.217c-0.014,0.24-0.049,0.482-0.128,0.71
			c-0.063,0.183-0.158,0.358-0.292,0.499c-0.12,0.128-0.273,0.224-0.439,0.283c-0.141,0.05-0.291,0.075-0.44,0.083
			c-0.034,0.002-0.073,0.003-0.108,0.003c0,0-13.435,0-13.435,0h13.435"/>
	</g>
	<g id="POLYLINE_00000098211041562358644030000000698075525033181573_">
		
			<path fill="none" stroke="#3A54F5" stroke-width="2.5" stroke-linecap="round" stroke-linejoin="round" stroke-miterlimit="10" d="
			M690.56,254.731c0.069,0.182,0.205,0.32,0.392,0.378c0.083,0.027,0.171,0.038,0.258,0.04c0.315-0.011,42.046,0.023,42.344-0.011
			c0.105-0.015,0.211-0.047,0.297-0.11c0.069-0.05,0.121-0.122,0.151-0.201c0.044-0.117,0.046-0.247,0.032-0.37
			c-0.025-0.213-0.095-0.421-0.174-0.62c0,0-0.783-1.874-0.783-1.874c-0.017-0.04-0.036-0.083-0.057-0.121
			c-0.051-0.096-0.114-0.188-0.19-0.266c-0.196-0.207-0.482-0.303-0.763-0.306c-13.147,0.088-27.278,0.479-40.344,1.702
			c-0.236,0.034-0.471,0.104-0.664,0.248c-0.222,0.159-0.406,0.382-0.494,0.642C690.472,254.141,690.488,254.448,690.56,254.731z"/>
	</g>
	<g id="POLYLINE_00000158740527727065257960000012051567678610172581_">
		
			<path fill="none" stroke="#3A54F5" stroke-width="2.5" stroke-linecap="round" stroke-linejoin="round" stroke-miterlimit="10" d="
			M734.443,256.615c-0.003-0.199,0.019-0.492-0.047-0.682c-0.066-0.219-0.202-0.416-0.383-0.555
			c-0.151-0.116-0.332-0.192-0.521-0.218c-0.257-0.028-42.089-0.009-42.364-0.005c-0.158,0.016-0.312,0.067-0.448,0.148
			c-0.319,0.186-0.53,0.541-0.54,0.911c0.004,0.213-0.023,0.516,0.046,0.72c0.068,0.225,0.209,0.427,0.398,0.566
			c0.148,0.11,0.323,0.182,0.506,0.207c0.05,0.007,0.101,0.01,0.152,0.01c0.196-0.012,42.062,0.018,42.231-0.008
			c0.164-0.02,0.323-0.077,0.462-0.166C734.247,257.347,734.446,256.985,734.443,256.615z"/>
	</g>
	<g id="POLYLINE_00000165921939743340342290000002415110188862044338_">
		
			<path fill="none" stroke="#3A54F5" stroke-width="2.5" stroke-linecap="round" stroke-linejoin="round" stroke-miterlimit="10" d="
			M761.421,226.09v-2.843c-0.001-0.022-0.001-0.048-0.003-0.07c-0.007-0.083-0.028-0.166-0.06-0.242
			c-0.114-0.277-0.392-0.474-0.691-0.489c-5.29,0.023-11.512,0.019-16.731,0.66c-0.188,0.034-0.362,0.137-0.481,0.286
			c-0.085,0.105-0.142,0.232-0.165,0.364c-0.007,0.041-0.011,0.083-0.012,0.125c-0.002,0.013,0.001,2.194,0,2.208
			c0,0.161,0.05,0.323,0.142,0.456c0.146,0.214,0.401,0.348,0.66,0.346c0.079-0.008,16.526,0.008,16.594-0.002
			c0.092-0.006,0.183-0.029,0.268-0.066C761.228,226.701,761.424,226.401,761.421,226.09z"/>
	</g>
	<g id="POLYLINE_00000109741794184845819030000003699488081645505436_">
		
			<rect x="183.813" y="142.152" fill="none" stroke="#3A54F5" stroke-width="2.5" stroke-linecap="round" stroke-linejoin="round" stroke-miterlimit="10" width="7.639" height="1.273"/>
	</g>
	<g id="POLYLINE_00000017494727814076722540000014792334003102036149_">
		
			<rect x="92.142" y="142.152" fill="none" stroke="#3A54F5" stroke-width="2.5" stroke-linecap="round" stroke-linejoin="round" stroke-miterlimit="10" width="7.639" height="1.273"/>
	</g>
	<g id="POLYLINE_00000075882373400136896930000015282835934719083430_">
		
			<path fill="none" stroke="#3A54F5" stroke-width="2.5" stroke-linecap="round" stroke-linejoin="round" stroke-miterlimit="10" d="
			M186.042,143.425c0.001,0.557-0.188,1.113-0.529,1.553c-0.335,0.437-0.815,0.759-1.347,0.903c-0.218,0.06-0.445,0.09-0.671,0.09
			c-0.143-0.004-83.406,0.008-83.537-0.004c-0.178-0.01-0.357-0.039-0.529-0.086c-0.563-0.152-1.069-0.506-1.405-0.982
			c-0.304-0.427-0.471-0.95-0.47-1.474l-3.183,0c-0.001,1.081,0.313,2.161,0.894,3.073c0.578,0.912,1.42,1.654,2.398,2.111
			c0.759,0.357,1.598,0.545,2.437,0.544c0.498-0.018,83.294,0.024,83.715-0.009c0.217-0.012,0.442-0.038,0.656-0.075
			c0.504-0.087,0.999-0.243,1.461-0.46c1-0.468,1.858-1.234,2.437-2.174c0.557-0.898,0.857-1.954,0.855-3.011H186.042z"/>
	</g>
	<g id="POLYLINE_00000030469956875429579840000008388754808094462080_">
		
			<rect x="165.81" y="171.973" fill="none" stroke="#3A54F5" stroke-width="2.5" stroke-linecap="round" stroke-linejoin="round" stroke-miterlimit="10" width="3.181" height="1.813"/>
	</g>
	<g id="POLYLINE_00000127757867659547501770000002171746673860427185_">
		
			<rect x="145.161" y="171.973" fill="none" stroke="#3A54F5" stroke-width="2.5" stroke-linecap="round" stroke-linejoin="round" stroke-miterlimit="10" width="3.181" height="1.813"/>
	</g>
	<g id="POLYLINE_00000083776175908246017380000003173470735836403123_">
		
			<path fill="none" stroke="#3A54F5" stroke-width="2.5" stroke-linecap="round" stroke-linejoin="round" stroke-miterlimit="10" d="
			M148.341,173.786c0.007-0.187-0.017-3.539,0.017-3.626c0.018-0.161,0.057-0.32,0.122-0.469c0.218-0.5,0.684-0.892,1.225-0.986
			c0.592-0.119,1.236,0.071,1.813,0.2c0.762,0.164,1.574,0.244,2.352,0.301c0.994,0.063,2.213,0.153,3.205,0.154
			c0.991,0,2.213-0.091,3.205-0.154c0.778-0.057,1.589-0.137,2.352-0.301c0.578-0.129,1.22-0.319,1.813-0.2
			c0.542,0.093,1.008,0.485,1.225,0.986c0.071,0.16,0.11,0.333,0.126,0.506c0.025,0.072,0.008,3.432,0.013,3.588
			C165.81,173.786,148.341,173.786,148.341,173.786z"/>
	</g>
	<g id="POLYLINE_00000136383962318625062480000002453769236512783250_">
		
			<path fill="none" stroke="#3A54F5" stroke-width="2.5" stroke-linecap="round" stroke-linejoin="round" stroke-miterlimit="10" d="
			M171.288,164.798c1.117,5.166,2.433,14.151,3.27,19.465"/>
	</g>
	<g id="POLYLINE_00000173842939046377556700000014842097667449325212_">
		
			<path fill="none" stroke="#3A54F5" stroke-width="2.5" stroke-linecap="round" stroke-linejoin="round" stroke-miterlimit="10" d="
			M142.864,164.798c-1.117,5.166-2.433,14.151-3.27,19.465"/>
	</g>
	<g id="POLYLINE_00000022558890280547770130000004864728123501383351_">
		
			<path fill="none" stroke="#3A54F5" stroke-width="2.5" stroke-linecap="round" stroke-linejoin="round" stroke-miterlimit="10" d="
			M157.076,218.544c2.48,0.004,4.953-0.748,7.016-2.124c1.523-1.022,2.87-2.414,4.057-3.806c1.397-1.67,2.587-3.539,3.514-5.509
			c1.479-3.204,2.381-6.673,2.994-10.14c0.258-2.661,0.583-5.57,0.399-8.231c-0.131-2.483-0.518-4.98-1.096-7.398
			c-0.603-2.481-1.432-4.943-2.572-7.23c-0.08-0.135-0.21-0.24-0.36-0.288c-1.023-0.086-12.595-0.003-13.952-0.031
			c0,0-13.755,0-13.755,0c-0.036,0-0.074,0.003-0.109,0.009c-0.054,0.009-0.108,0.026-0.157,0.049
			c-0.121,0.055-0.223,0.147-0.291,0.261c-1.14,2.287-1.969,4.749-2.572,7.23c-0.578,2.418-0.966,4.915-1.096,7.398
			c-0.193,2.657,0.149,5.579,0.399,8.231c0.613,3.467,1.515,6.936,2.994,10.14c0.927,1.97,2.118,3.839,3.514,5.509
			c1.187,1.392,2.533,2.783,4.057,3.806C152.122,217.796,154.596,218.549,157.076,218.544z"/>
	</g>
	<g id="POLYLINE_00000141422074342894792400000017271543661949425568_">
		
			<path fill="none" stroke="#3A54F5" stroke-width="2.5" stroke-linecap="round" stroke-linejoin="round" stroke-miterlimit="10" d="
			M134.747,149.154c-0.269,0.074-0.534,0.178-0.769,0.332c-0.24,0.156-0.451,0.357-0.632,0.578c-0.399,0.491-0.681,1.09-0.75,1.723
			c-0.045,0.396-0.015,0.8,0.036,1.194c0.128,0.934,0.355,1.896,0.58,2.811c0.705,2.723,1.557,5.477,3.051,7.879
			c0.179,0.232,0.421,0.416,0.694,0.523c0.177,0.07,0.365,0.11,0.554,0.128c6.403,0.665,13.128,1.004,19.565,0.936
			c6.446,0.068,13.182-0.272,19.595-0.939c0.187-0.02,0.374-0.063,0.549-0.135c0.272-0.111,0.511-0.299,0.686-0.534
			c1.479-2.402,2.334-5.142,3.035-7.857c0.224-0.915,0.453-1.877,0.58-2.811c0.051-0.394,0.081-0.798,0.036-1.194
			c-0.07-0.643-0.36-1.251-0.77-1.746c-0.184-0.219-0.396-0.418-0.639-0.571c-0.228-0.144-0.484-0.244-0.743-0.315"/>
	</g>
	<g id="POLYLINE_00000156572151822153452970000009688791477067827361_">
		
			<rect x="201.638" y="275.839" fill="none" stroke="#3A54F5" stroke-width="2.5" stroke-linecap="round" stroke-linejoin="round" stroke-miterlimit="10" width="1.273" height="7.639"/>
	</g>
	<g id="POLYLINE_00000129922659530427054560000008422688055072654511_">
		
			<rect x="201.638" y="168.889" fill="none" stroke="#3A54F5" stroke-width="2.5" stroke-linecap="round" stroke-linejoin="round" stroke-miterlimit="10" width="1.273" height="7.639"/>
	</g>
	<g id="POLYLINE_00000010303254355851156470000007150583330547316124_">
		
			<path fill="none" stroke="#3A54F5" stroke-width="2.5" stroke-linecap="round" stroke-linejoin="round" stroke-miterlimit="10" d="
			M197.5,242.417c-0.41-0.001-0.818,0.164-1.111,0.452c-0.401,0.384-0.572,0.984-0.434,1.522c0.114,0.473,0.458,0.881,0.904,1.074
			c0.152,0.067,0.315,0.11,0.479,0.126c0.047,0.005,0.096,0.008,0.144,0.008c0.028,0.011,4.129-0.008,4.155,0v-3.183H197.5z"/>
	</g>
	<g id="POLYLINE_00000163765691681197003160000013961774249014403767_">
		
			<rect x="201.638" y="240.189" fill="none" stroke="#3A54F5" stroke-width="2.5" stroke-linecap="round" stroke-linejoin="round" stroke-miterlimit="10" width="1.273" height="7.639"/>
	</g>
	<g id="POLYLINE_00000140735535512034421640000006061505251269360528_">
		
			<path fill="none" stroke="#3A54F5" stroke-width="2.5" stroke-linecap="round" stroke-linejoin="round" stroke-miterlimit="10" d="
			M199.092,245.6c0.003,0.114-0.005,29.93,0.003,30.034c0.007,0.168,0.032,0.336,0.072,0.498c0.066,0.266,0.176,0.523,0.323,0.754
			c0.454,0.726,1.292,1.187,2.149,1.18l0,3.183c-1.081,0.001-2.161-0.313-3.073-0.894c-0.912-0.578-1.654-1.42-2.111-2.398
			c-0.217-0.463-0.373-0.957-0.46-1.461c-0.037-0.216-0.063-0.438-0.075-0.656c-0.039-0.004,0.01-98.882-0.009-98.993
			c-0.001-0.839,0.187-1.679,0.544-2.438c0.468-1,1.234-1.858,2.174-2.437c0.898-0.557,1.954-0.857,3.011-0.855v3.183
			c-0.834-0.006-1.652,0.43-2.113,1.126c-0.16,0.237-0.279,0.503-0.351,0.779c-0.045,0.172-0.072,0.35-0.08,0.528
			c-0.012,0.136,0.003,65.548-0.003,65.684"/>
	</g>
	<g id="POLYLINE_00000181780142059425565190000005226871772650560163_">
		
			<path fill="none" stroke="#3A54F5" stroke-width="2.5" stroke-linecap="round" stroke-linejoin="round" stroke-miterlimit="10" d="
			M333.722,568.926c0.357,0.397,0.679,0.837,0.866,1.341c0.236,0.614,0.296,1.283,0.266,1.935c-0.009,0.196-0.027,0.42-0.048,0.615
			c0,0-0.028,0.267-0.028,0.267l-1.712,15.729c-0.006,0.054-0.005,0.111,0.004,0.165c0.026,0.175,0.128,0.336,0.276,0.434
			c0.104,0.069,0.229,0.107,0.353,0.107c0.066-0.003,22.508,0.007,22.568-0.003c0.091-0.01,0.181-0.039,0.26-0.086
			c0.185-0.108,0.306-0.314,0.311-0.528c0.001-0.029,0-0.059-0.003-0.088c0,0-1.712-15.729-1.712-15.729
			c-0.012-0.078-0.046-0.46-0.054-0.538c-0.019-0.201-0.027-0.424-0.029-0.627c-0.003-0.537,0.065-1.081,0.248-1.587
			c0.098-0.272,0.229-0.532,0.389-0.772c0.123-0.185,0.267-0.365,0.413-0.533c0.717-0.817,1.676-1.899,2.336-2.758
			c1.375-1.765,2.557-3.711,3.34-5.812c0.732-1.951,1.116-4.039,1.112-6.124c-0.015-0.473-0.036-0.965-0.218-1.408
			c-0.106-0.252-0.286-0.456-0.548-0.546c-0.131-0.047-0.27-0.067-0.408-0.075c-0.053-0.014-33.258,0.001-33.35-0.004
			c-0.189,0-0.384,0.015-0.563,0.079c-0.125,0.044-0.241,0.116-0.333,0.211c-0.108,0.111-0.184,0.249-0.239,0.393
			c-0.159,0.429-0.181,0.897-0.195,1.35c-0.016,3.193,0.92,6.354,2.528,9.102C330.683,565.419,332.205,567.225,333.722,568.926z"/>
	</g>
	<g id="POLYLINE_00000003805072183235023810000000463400974125852555_">
		
			<path fill="none" stroke="#3A54F5" stroke-width="2.5" stroke-linecap="round" stroke-linejoin="round" stroke-miterlimit="10" d="
			M362.877,548.265c0.001-0.32-0.161-0.616-0.374-0.847c-0.264-0.286-0.598-0.499-0.942-0.675c-0.506-0.254-1.055-0.431-1.604-0.564
			c-0.708-0.169-1.44-0.265-2.166-0.306c-0.215-0.012-0.453-0.02-0.668-0.022c-0.081-0.005-24.111,0.003-24.215-0.001
			c-0.859,0.001-1.727,0.075-2.57,0.242c-0.863,0.178-1.736,0.436-2.475,0.929c-0.31,0.213-0.603,0.48-0.753,0.831
			c-0.039,0.092-0.067,0.19-0.079,0.29c-0.016,0.118-0.004,0.414-0.006,0.534c0.005,0.108,0.026,0.216,0.062,0.318
			c0.151,0.436,0.579,0.739,1.04,0.735c0.049-0.001,33.653,0.002,33.698-0.001c0.086-0.004,0.172-0.018,0.254-0.042
			c0.142-0.041,0.277-0.111,0.392-0.204c0.174-0.141,0.304-0.337,0.365-0.553C362.899,548.748,362.871,548.456,362.877,548.265z"/>
	</g>
	<g id="POLYLINE_00000142153498121428920010000014715327935555366049_">
		
			<path fill="none" stroke="#3A54F5" stroke-width="2.5" stroke-linecap="round" stroke-linejoin="round" stroke-miterlimit="10" d="
			M362.877,550.834c0.003-0.415-0.246-0.814-0.621-0.992c-0.12-0.058-0.25-0.094-0.383-0.106c0.001-0.021-33.716,0.006-33.748-0.005
			c-0.166,0-0.332,0.038-0.482,0.111c-0.262,0.126-0.47,0.361-0.562,0.637c-0.025,0.074-0.043,0.152-0.052,0.231
			c-0.003,0.033-0.006,0.067-0.007,0.1c0,0,0,0.012,0,0.012s0,0.012,0,0.012s0,0.363,0,0.363c-0.001,0.284,0.114,0.567,0.313,0.77
			c0.146,0.15,0.335,0.257,0.538,0.304c0.082,0.019,0.167,0.029,0.252,0.029c0.005,0.001,33.667,0,33.674,0
			c0.054-0.001,0.11-0.007,0.163-0.016c0.377-0.062,0.709-0.335,0.842-0.693c0.031-0.082,0.053-0.169,0.064-0.256
			c0.003-0.033,0.007-0.067,0.008-0.1c0.002-0.011,0-0.026,0.001-0.037C362.877,551.198,362.877,550.834,362.877,550.834z"/>
	</g>
	<g id="POLYLINE_00000176755781193163669520000005379181094410743982_">
		
			<line fill="none" stroke="#3A54F5" stroke-width="2.5" stroke-linecap="round" stroke-linejoin="round" stroke-miterlimit="10" x1="362.006" y1="549.756" x2="362.028" y2="549.702"/>
	</g>
	<g id="POLYLINE_00000182507326531563769330000014614467991771376550_">
		
			<line fill="none" stroke="#3A54F5" stroke-width="2.5" stroke-linecap="round" stroke-linejoin="round" stroke-miterlimit="10" x1="327.892" y1="549.756" x2="327.871" y2="549.702"/>
	</g>
	<g id="POLYLINE_00000028321669037100300050000011130792141971681187_">
		
			<path fill="none" stroke="#3A54F5" stroke-width="2.5" stroke-linecap="round" stroke-linejoin="round" stroke-miterlimit="10" d="
			M320.296,521.474c12.289,0,37.02,0,49.307,0"/>
	</g>
	<g id="POLYLINE_00000090264148655464604000000012261551525259604130_">
		
			<path fill="none" stroke="#3A54F5" stroke-width="2.5" stroke-linecap="round" stroke-linejoin="round" stroke-miterlimit="10" d="
			M327.022,551.141c-0.409-0.012-0.93-0.004-1.34-0.044c-0.147-0.014-0.295-0.04-0.436-0.086c-0.419-0.132-0.795-0.393-1.073-0.733
			c-0.324-0.382-0.46-0.849-0.583-1.325c-0.615-2.614-1.324-5.64-1.728-8.286c-0.74-4.679-1.125-9.595-1.379-14.326
			c-0.111-2.414-0.237-5.173-0.212-7.585c0.01-0.148,0.037-0.297,0.087-0.437c0.101-0.293,0.293-0.562,0.563-0.719
			c0.158-0.093,0.337-0.146,0.517-0.175c6.578-0.333,16.841-0.349,23.511-0.406c6.692,0.058,16.902,0.071,23.511,0.406
			c0.18,0.03,0.359,0.082,0.517,0.175c0.27,0.157,0.462,0.426,0.563,0.719c0.053,0.151,0.081,0.311,0.088,0.47
			c0.019,2.4-0.098,5.151-0.214,7.553c-0.256,4.731-0.639,9.646-1.379,14.326c-0.411,2.679-1.102,5.644-1.727,8.286
			c-0.123,0.474-0.259,0.943-0.583,1.325c-0.29,0.355-0.687,0.624-1.128,0.75c-0.1,0.03-0.205,0.05-0.309,0.062
			c-0.439,0.054-0.966,0.038-1.41,0.052"/>
	</g>
	<g id="POLYLINE_00000112619067075890065910000007701433057882694036_">
		
			<path fill="none" stroke="#3A54F5" stroke-width="2.5" stroke-linecap="round" stroke-linejoin="round" stroke-miterlimit="10" d="
			M283.87,501.35c0.255,0.015,91.621-0.028,91.853,0.015c0.271,0.037,0.531,0.146,0.748,0.311c0.311,0.236,0.529,0.589,0.599,0.973
			c0.072,0.383-0.002,0.791-0.207,1.123c-0.21,0.345-0.554,0.603-0.944,0.706c-0.108,0.029-0.22,0.047-0.332,0.053
			c-0.023,0.009-91.661-0.003-91.717,0.002c-0.191,0.004-0.383-0.026-0.563-0.09c-0.261-0.092-0.498-0.253-0.678-0.463
			c-0.217-0.251-0.352-0.572-0.38-0.903c-0.026-0.296,0.034-0.598,0.17-0.862C282.69,501.679,283.27,501.332,283.87,501.35z"/>
	</g>
	<g id="POLYLINE_00000153686886954573414720000003992941713561505726_">
		
			<path fill="none" stroke="#3A54F5" stroke-width="2.5" stroke-linecap="round" stroke-linejoin="round" stroke-miterlimit="10" d="
			M385.374,501.35c-0.543-0.004-1.073,0.292-1.355,0.756c-0.218,0.35-0.29,0.787-0.197,1.189c0.088,0.394,0.334,0.749,0.67,0.971
			c0.198,0.132,0.427,0.219,0.662,0.251c0.062,0.009,0.129,0.014,0.192,0.015c0.039,0.013,4.128-0.009,4.165,0v-3.183H385.374z"/>
	</g>
	<g id="POLYLINE_00000031899451984950723350000018048667577056001437_">
		
			<rect x="389.512" y="499.121" fill="none" stroke="#3A54F5" stroke-width="2.5" stroke-linecap="round" stroke-linejoin="round" stroke-miterlimit="10" width="1.273" height="7.639"/>
	</g>
	<g id="POLYLINE_00000175307067609240832840000004095254218559874451_">
		
			<path fill="none" stroke="#3A54F5" stroke-width="2.5" stroke-linecap="round" stroke-linejoin="round" stroke-miterlimit="10" d="
			M372.034,501.35c0.34-0.746,0.929-1.376,1.65-1.766c0.774-0.423,1.697-0.563,2.561-0.39c0.868,0.169,1.67,0.652,2.226,1.34
			c0.549,0.673,0.856,1.539,0.854,2.408c0.002,0.869-0.305,1.734-0.854,2.408c-0.556,0.688-1.358,1.171-2.226,1.34
			c-0.876,0.175-1.812,0.028-2.592-0.407c-0.708-0.391-1.284-1.013-1.62-1.749"/>
	</g>
	<g id="POLYLINE_00000171688715612286056510000007187407223209324432_">
		
			<path fill="none" stroke="#3A54F5" stroke-width="2.5" stroke-linecap="round" stroke-linejoin="round" stroke-miterlimit="10" d="
			M287.307,504.532c-0.377,0.829-1.063,1.513-1.894,1.887c-0.808,0.369-1.747,0.442-2.603,0.201
			c-0.792-0.219-1.508-0.703-2.007-1.356c-0.501-0.651-0.783-1.469-0.788-2.29c-0.009-0.844,0.273-1.688,0.788-2.357
			c0.499-0.653,1.215-1.137,2.007-1.356c0.877-0.247,1.842-0.164,2.663,0.23c0.804,0.379,1.465,1.05,1.833,1.859"/>
	</g>
	<g id="POLYLINE_00000082336251488177984120000017845303840217697719_">
		
			<rect x="389.512" y="438.007" fill="none" stroke="#3A54F5" stroke-width="2.5" stroke-linecap="round" stroke-linejoin="round" stroke-miterlimit="10" width="1.273" height="7.639"/>
	</g>
	<g id="POLYLINE_00000153685585764671025690000016683661205270863256_">
		
			<rect x="389.512" y="483.843" fill="none" stroke="#3A54F5" stroke-width="2.5" stroke-linecap="round" stroke-linejoin="round" stroke-miterlimit="10" width="1.273" height="7.639"/>
	</g>
	<g id="POLYLINE_00000026156847102699474610000003485336183681265840_">
		
			<path fill="none" stroke="#3A54F5" stroke-width="2.5" stroke-linecap="round" stroke-linejoin="round" stroke-miterlimit="10" d="
			M389.512,486.071c-0.546,0.001-1.091-0.18-1.527-0.509c-0.45-0.336-0.782-0.825-0.929-1.367c-0.06-0.218-0.09-0.445-0.09-0.671
			c0.008-0.223-0.011-37.513,0.004-37.702c0.01-0.178,0.039-0.357,0.086-0.529c0.149-0.552,0.492-1.05,0.955-1.386
			c0.432-0.316,0.966-0.491,1.501-0.489l0-3.183c-1.081-0.001-2.161,0.313-3.073,0.894c-0.912,0.578-1.654,1.42-2.111,2.398
			c-0.357,0.759-0.545,1.598-0.544,2.437c0,0,0,37.56,0,37.56c0,0.101,0.003,0.218,0.009,0.32c0.013,0.24,0.043,0.486,0.087,0.723
			c0.089,0.48,0.241,0.952,0.449,1.395c0.468,1,1.234,1.858,2.173,2.437c0.898,0.557,1.954,0.857,3.011,0.855
			C389.512,489.254,389.512,486.071,389.512,486.071z"/>
	</g>
	<g id="POLYLINE_00000072990494497238595560000006402975337967323277_">
		
			<path fill="none" stroke="#3A54F5" stroke-width="2.5" stroke-linecap="round" stroke-linejoin="round" stroke-miterlimit="10" d="
			M430.984,520.672v-2.843c0.001-0.022,0.001-0.048,0.003-0.07c0.007-0.083,0.028-0.166,0.06-0.242
			c0.114-0.277,0.392-0.474,0.691-0.489c5.29,0.023,11.512,0.019,16.731,0.66c0.188,0.034,0.362,0.137,0.481,0.286
			c0.085,0.105,0.142,0.232,0.165,0.364c0.007,0.041,0.011,0.083,0.012,0.125c0.002,0.013-0.001,2.194,0,2.208
			c0,0.161-0.05,0.323-0.142,0.456c-0.146,0.214-0.401,0.348-0.66,0.346c-0.079-0.008-16.526,0.008-16.594-0.002
			c-0.092-0.006-0.183-0.029-0.268-0.066C431.177,521.284,430.981,520.984,430.984,520.672z"/>
	</g>
	<g id="POLYLINE_00000116940971771305738740000010805740817567107754_">
		
			<path fill="none" stroke="#3A54F5" stroke-width="2.5" stroke-linecap="round" stroke-linejoin="round" stroke-miterlimit="10" d="
			M457.962,551.198c0.003-0.199-0.019-0.492,0.047-0.682c0.066-0.219,0.202-0.416,0.383-0.555c0.151-0.116,0.332-0.192,0.521-0.218
			c0.257-0.028,42.089-0.009,42.364-0.005c0.158,0.016,0.312,0.067,0.448,0.148c0.319,0.186,0.53,0.541,0.54,0.911
			c-0.004,0.213,0.023,0.516-0.046,0.72c-0.068,0.225-0.209,0.427-0.398,0.566c-0.148,0.11-0.323,0.182-0.506,0.207
			c-0.05,0.007-0.101,0.01-0.152,0.01c-0.197-0.012-42.063,0.018-42.231-0.008c-0.164-0.02-0.323-0.077-0.462-0.166
			C458.158,551.929,457.959,551.567,457.962,551.198z"/>
	</g>
	<g id="POLYLINE_00000060726716318003378130000003502075607835757708_">
		
			<path fill="none" stroke="#3A54F5" stroke-width="2.5" stroke-linecap="round" stroke-linejoin="round" stroke-miterlimit="10" d="
			M501.844,549.313c-0.069,0.182-0.205,0.32-0.392,0.378c-0.083,0.027-0.171,0.038-0.258,0.04
			c-0.315-0.011-42.046,0.023-42.344-0.011c-0.105-0.015-0.211-0.047-0.297-0.11c-0.069-0.05-0.121-0.122-0.151-0.201
			c-0.044-0.117-0.046-0.247-0.032-0.37c0.025-0.213,0.095-0.421,0.174-0.62c0,0,0.783-1.874,0.783-1.874
			c0.017-0.04,0.036-0.083,0.057-0.121c0.051-0.096,0.114-0.188,0.19-0.266c0.196-0.207,0.482-0.303,0.763-0.306
			c13.147,0.088,27.278,0.479,40.344,1.702c0.236,0.034,0.471,0.104,0.664,0.248c0.222,0.159,0.406,0.382,0.494,0.642
			C501.933,548.724,501.916,549.03,501.844,549.313z"/>
	</g>
	<g id="POLYLINE_00000018219590804511878930000001562068539264113305_">
		
			<path fill="none" stroke="#3A54F5" stroke-width="2.5" stroke-linecap="round" stroke-linejoin="round" stroke-miterlimit="10" d="
			M431.345,521.342l0.555,27.894c0,0.068,0.003,0.149,0.006,0.217c0.014,0.24,0.049,0.482,0.128,0.71
			c0.063,0.183,0.158,0.358,0.292,0.499c0.121,0.128,0.273,0.224,0.439,0.283c0.141,0.05,0.291,0.075,0.44,0.083
			c0.034,0.002,0.073,0.003,0.108,0.003c0,0,13.435,0,13.435,0h-13.435"/>
	</g>
	<g id="POLYLINE_00000062894320337540515570000012970609228690232196_">
		
			<path fill="none" stroke="#3A54F5" stroke-width="2.5" stroke-linecap="round" stroke-linejoin="round" stroke-miterlimit="10" d="
			M448.754,521.35c-0.015,6.794-0.226,20.957-0.377,27.821c-0.009,0.192-0.031,0.389-0.072,0.577
			c-0.046,0.21-0.116,0.417-0.225,0.603c-0.124,0.213-0.305,0.393-0.525,0.506c-0.247,0.129-0.531,0.175-0.808,0.175v1.269h12.913"
			/>
	</g>
	<g id="POLYLINE_00000130642402177985771190000006346489197049824899_">
		
			<path fill="none" stroke="#3A54F5" stroke-width="2.5" stroke-linecap="round" stroke-linejoin="round" stroke-miterlimit="10" d="
			M433.313,553.57v-2.538v5.383c0.104,0.289,0.239,0.584,0.475,0.789c0.495,2.445,0.739,4.959,0.722,7.454
			c-0.007,1.769-0.141,3.575-0.51,5.307c-0.229,0.818-0.338,1.674-0.384,2.52c-0.001,0.072,0.001,13.871,0,13.934
			c-0.002,0.14-0.011,0.287-0.028,0.426c-0.025,0.202-0.065,0.407-0.152,0.592c-0.08,0.168-0.178,0.342-0.23,0.521
			c-0.122,0.406-0.172,0.834-0.171,1.258c0.003,0.061,0.013,0.123,0.038,0.179c0.022,0.051,0.063,0.094,0.116,0.112
			c0.067,0.05,59.536-0.008,59.614,0.011c0.073-0.005,0.146-0.02,0.212-0.052c0.086-0.04,0.156-0.109,0.202-0.192
			c0.087-0.157,0.102-0.343,0.1-0.52c-0.07-0.936-2.539-16.895-2.578-17.587c-0.065-0.664-0.092-1.347-0.031-2.013
			c0.073-0.899,0.387-1.777,0.919-2.506c1.091-1.499,2.797-2.469,4.252-3.569c1.097-0.815,2.083-1.787,2.941-2.851
			c1.634-2.008,2.905-4.44,3.036-7.065c0.003-0.229-0.023-0.479-0.176-0.661c-0.125-0.15-0.328-0.204-0.518-0.202"/>
	</g>
	<g id="POLYLINE_00000182492658616647871480000006495911338826223755_">
		
			<path fill="none" stroke="#3A54F5" stroke-width="2.5" stroke-linecap="round" stroke-linejoin="round" stroke-miterlimit="10" d="
			M431.284,501.35c0.543-0.004,1.073,0.292,1.355,0.756c0.218,0.35,0.29,0.787,0.197,1.189c-0.088,0.394-0.334,0.749-0.67,0.971
			c-0.198,0.132-0.427,0.219-0.662,0.251c-0.062,0.009-0.129,0.014-0.192,0.015c-0.039,0.013-4.128-0.009-4.165,0v-3.183H431.284z"
			/>
	</g>
	<g id="POLYLINE_00000010307802295146899170000005421860458990743983_">
		
			<rect x="425.873" y="499.121" fill="none" stroke="#3A54F5" stroke-width="2.5" stroke-linecap="round" stroke-linejoin="round" stroke-miterlimit="10" width="1.273" height="7.639"/>
	</g>
	<g id="POLYLINE_00000036935840243274392420000011623965180438728361_">
		
			<path fill="none" stroke="#3A54F5" stroke-width="2.5" stroke-linecap="round" stroke-linejoin="round" stroke-miterlimit="10" d="
			M456.466,501.35h106.879c0.535-0.016,1.067,0.261,1.361,0.71c0.293,0.435,0.349,1.016,0.142,1.499
			c-0.145,0.347-0.417,0.638-0.754,0.806c-0.143,0.072-0.297,0.122-0.455,0.148c-0.105,0.069-107.041-0.006-107.229,0.021
			c-0.463-0.005-0.918-0.224-1.209-0.583c-0.269-0.326-0.399-0.763-0.351-1.184c0.043-0.395,0.239-0.77,0.54-1.029
			C455.684,501.481,456.075,501.34,456.466,501.35z"/>
	</g>
	<g id="POLYLINE_00000155106238723639844400000015418705396496357260_">
		
			<path fill="none" stroke="#3A54F5" stroke-width="2.5" stroke-linecap="round" stroke-linejoin="round" stroke-miterlimit="10" d="
			M526.139,487.627c0-0.039,0.001-45.768,0-45.803c0-0.084,0.007-0.171,0.021-0.254c0.049-0.301,0.187-0.588,0.393-0.813
			c0.301-0.334,0.748-0.528,1.197-0.521c0.449,0.004,0.892,0.209,1.184,0.55c0.165,0.191,0.284,0.422,0.343,0.667
			c0.025,0.102,0.039,0.208,0.044,0.313c0.005,0.148-0.002,45.753,0.001,45.92c-0.002,0.118-0.017,0.237-0.045,0.352
			c-0.095,0.398-0.351,0.755-0.699,0.972c-0.324,0.205-0.723,0.286-1.101,0.224c-0.379-0.06-0.733-0.263-0.976-0.56
			C526.26,488.383,526.129,488.005,526.139,487.627z"/>
	</g>
	<g id="POLYLINE_00000107565462182178835500000003334074425634788017_">
		
			<path fill="none" stroke="#3A54F5" stroke-width="2.5" stroke-linecap="round" stroke-linejoin="round" stroke-miterlimit="10" d="
			M529.321,484.19c0.746,0.34,1.376,0.929,1.766,1.65c0.423,0.774,0.563,1.697,0.39,2.561c-0.169,0.868-0.652,1.67-1.34,2.226
			c-0.673,0.549-1.539,0.856-2.408,0.854c-0.869,0.002-1.734-0.305-2.407-0.854c-0.688-0.556-1.171-1.358-1.34-2.226
			c-0.175-0.876-0.028-1.812,0.407-2.592c0.391-0.708,1.013-1.284,1.749-1.62"/>
	</g>
	<g id="POLYLINE_00000065032828510207925950000011959155690499697575_">
		
			<path fill="none" stroke="#3A54F5" stroke-width="2.5" stroke-linecap="round" stroke-linejoin="round" stroke-miterlimit="10" d="
			M526.139,445.299c-0.746-0.34-1.376-0.929-1.766-1.65c-0.423-0.774-0.563-1.697-0.39-2.561c0.169-0.868,0.652-1.67,1.34-2.226
			c0.673-0.549,1.539-0.856,2.407-0.854c0.869-0.002,1.734,0.305,2.408,0.854c0.688,0.556,1.171,1.358,1.34,2.226
			c0.175,0.876,0.028,1.812-0.407,2.592c-0.391,0.708-1.013,1.284-1.749,1.62"/>
	</g>
	<g id="POLYLINE_00000098934183183815109840000014149067912756491404_">
		
			<path fill="none" stroke="#3A54F5" stroke-width="2.5" stroke-linecap="round" stroke-linejoin="round" stroke-miterlimit="10" d="
			M559.907,501.35c0.34-0.746,0.929-1.376,1.65-1.766c0.774-0.423,1.697-0.563,2.561-0.39c0.868,0.169,1.67,0.652,2.226,1.34
			c0.549,0.673,0.856,1.539,0.854,2.408c0.002,0.869-0.305,1.734-0.854,2.408c-0.556,0.688-1.358,1.171-2.226,1.34
			c-0.876,0.175-1.812,0.028-2.592-0.407c-0.708-0.391-1.284-1.013-1.62-1.749"/>
	</g>
	<g id="POLYLINE_00000154406290896068509840000009780210295609385362_">
		
			<path fill="none" stroke="#3A54F5" stroke-width="2.5" stroke-linecap="round" stroke-linejoin="round" stroke-miterlimit="10" d="
			M459.903,504.532c-0.34,0.746-0.929,1.376-1.65,1.766c-0.774,0.423-1.697,0.563-2.561,0.39c-0.868-0.169-1.67-0.652-2.226-1.34
			c-0.549-0.673-0.856-1.539-0.854-2.408c-0.002-0.869,0.305-1.734,0.854-2.408c0.556-0.688,1.358-1.171,2.226-1.34
			c0.876-0.175,1.812-0.028,2.592,0.407c0.708,0.391,1.284,1.013,1.62,1.749"/>
	</g>
	<g id="POLYLINE_00000081649025645885403130000005674907478916447165_">
		
			<rect x="948.6" y="499.121" fill="none" stroke="#3A54F5" stroke-width="2.5" stroke-linecap="round" stroke-linejoin="round" stroke-miterlimit="10" width="1.273" height="7.639"/>
	</g>
	<g id="POLYLINE_00000010283818327706850110000005925945724654573973_">
		
			<path fill="none" stroke="#3A54F5" stroke-width="2.5" stroke-linecap="round" stroke-linejoin="round" stroke-miterlimit="10" d="
			M944.463,501.35c-0.543-0.004-1.073,0.292-1.355,0.756c-0.218,0.35-0.29,0.787-0.197,1.189c0.089,0.394,0.334,0.749,0.67,0.971
			c0.198,0.132,0.427,0.219,0.662,0.251c0.062,0.009,0.129,0.014,0.192,0.015c0.039,0.013,4.128-0.009,4.165,0v-3.183H944.463z"/>
	</g>
	<g id="POLYLINE_00000013899047270143627630000001831754841374031255_">
		
			<path fill="none" stroke="#3A54F5" stroke-width="2.5" stroke-linecap="round" stroke-linejoin="round" stroke-miterlimit="10" d="
			M942.434,553.57v-2.538v5.383c-0.104,0.289-0.239,0.584-0.475,0.789c-0.495,2.445-0.739,4.959-0.722,7.454
			c0.007,1.769,0.141,3.575,0.51,5.307c0.229,0.818,0.338,1.674,0.384,2.52c0.001,0.072-0.001,13.871,0,13.934
			c0.002,0.14,0.011,0.287,0.028,0.426c0.025,0.202,0.065,0.407,0.152,0.592c0.08,0.168,0.178,0.342,0.23,0.521
			c0.122,0.406,0.172,0.834,0.171,1.258c-0.003,0.061-0.013,0.123-0.038,0.179c-0.022,0.051-0.063,0.094-0.116,0.112
			c-0.067,0.05-59.536-0.008-59.614,0.011c-0.073-0.005-0.146-0.02-0.212-0.052c-0.086-0.04-0.156-0.109-0.202-0.192
			c-0.087-0.157-0.102-0.343-0.1-0.52c0.069-0.936,2.539-16.895,2.578-17.587c0.065-0.664,0.092-1.347,0.031-2.013
			c-0.073-0.899-0.387-1.777-0.919-2.506c-1.091-1.499-2.797-2.469-4.252-3.569c-1.097-0.815-2.083-1.787-2.941-2.851
			c-1.634-2.008-2.905-4.44-3.036-7.065c-0.003-0.229,0.023-0.479,0.176-0.661c0.125-0.15,0.328-0.204,0.518-0.202"/>
	</g>
	<g id="POLYLINE_00000103248891700001509710000002417435596937489032_">
		
			<path fill="none" stroke="#3A54F5" stroke-width="2.5" stroke-linecap="round" stroke-linejoin="round" stroke-miterlimit="10" d="
			M926.992,521.35c0.015,6.794,0.226,20.957,0.377,27.821c0.009,0.192,0.031,0.389,0.072,0.577c0.046,0.21,0.116,0.417,0.225,0.603
			c0.124,0.213,0.305,0.393,0.525,0.506c0.247,0.129,0.531,0.175,0.807,0.175v1.269h-12.913"/>
	</g>
	<g id="POLYLINE_00000092444059583427706230000006671702226028928385_">
		
			<path fill="none" stroke="#3A54F5" stroke-width="2.5" stroke-linecap="round" stroke-linejoin="round" stroke-miterlimit="10" d="
			M944.402,521.342l-0.555,27.894c0,0.068-0.003,0.149-0.006,0.217c-0.014,0.24-0.049,0.482-0.128,0.71
			c-0.063,0.183-0.158,0.358-0.292,0.499c-0.121,0.128-0.273,0.224-0.439,0.283c-0.141,0.05-0.291,0.075-0.44,0.083
			c-0.034,0.002-0.073,0.003-0.108,0.003c0,0-13.435,0-13.435,0h13.435"/>
	</g>
	<g id="POLYLINE_00000015320784268439641460000012938257476404147109_">
		
			<path fill="none" stroke="#3A54F5" stroke-width="2.5" stroke-linecap="round" stroke-linejoin="round" stroke-miterlimit="10" d="
			M873.902,549.313c0.069,0.182,0.205,0.32,0.392,0.378c0.083,0.027,0.171,0.038,0.258,0.04c0.315-0.011,42.046,0.023,42.344-0.011
			c0.105-0.015,0.211-0.047,0.297-0.11c0.069-0.05,0.121-0.122,0.151-0.201c0.044-0.117,0.046-0.247,0.032-0.37
			c-0.025-0.213-0.095-0.421-0.174-0.62c0,0-0.783-1.874-0.783-1.874c-0.017-0.04-0.036-0.083-0.057-0.121
			c-0.051-0.096-0.114-0.188-0.19-0.266c-0.196-0.207-0.482-0.303-0.763-0.306c-13.147,0.088-27.278,0.479-40.344,1.702
			c-0.236,0.034-0.471,0.104-0.664,0.248c-0.222,0.159-0.406,0.382-0.494,0.642C873.814,548.724,873.83,549.03,873.902,549.313z"/>
	</g>
	<g id="POLYLINE_00000008870096064590513800000016343094327209363133_">
		
			<path fill="none" stroke="#3A54F5" stroke-width="2.5" stroke-linecap="round" stroke-linejoin="round" stroke-miterlimit="10" d="
			M917.785,551.198c-0.003-0.199,0.019-0.492-0.047-0.682c-0.066-0.219-0.202-0.416-0.383-0.555
			c-0.151-0.116-0.332-0.192-0.521-0.218c-0.257-0.028-42.089-0.009-42.364-0.005c-0.158,0.016-0.312,0.067-0.448,0.148
			c-0.319,0.186-0.53,0.541-0.54,0.911c0.004,0.213-0.023,0.516,0.047,0.72c0.068,0.225,0.209,0.427,0.398,0.566
			c0.148,0.11,0.323,0.182,0.506,0.207c0.05,0.007,0.101,0.01,0.152,0.01c0.197-0.012,42.063,0.018,42.231-0.008
			c0.164-0.02,0.323-0.077,0.462-0.166C917.589,551.929,917.788,551.567,917.785,551.198z"/>
	</g>
	<g id="POLYLINE_00000139289307093944092890000002978784175009263779_">
		
			<path fill="none" stroke="#3A54F5" stroke-width="2.5" stroke-linecap="round" stroke-linejoin="round" stroke-miterlimit="10" d="
			M944.763,520.672v-2.843c-0.001-0.022-0.001-0.048-0.003-0.07c-0.007-0.083-0.028-0.166-0.06-0.242
			c-0.114-0.277-0.392-0.474-0.691-0.489c-5.29,0.023-11.512,0.019-16.731,0.66c-0.188,0.034-0.362,0.137-0.481,0.286
			c-0.085,0.105-0.142,0.232-0.165,0.364c-0.007,0.041-0.011,0.083-0.012,0.125c-0.002,0.013,0.001,2.194,0,2.208
			c0,0.161,0.05,0.323,0.142,0.456c0.146,0.214,0.401,0.348,0.66,0.346c0.079-0.008,16.526,0.008,16.594-0.002
			c0.092-0.006,0.183-0.029,0.268-0.066C944.57,521.284,944.766,520.984,944.763,520.672z"/>
	</g>
	<g id="POLYLINE_00000064327691761095889730000000470007887738736540_">
		
			<rect x="183.813" y="345.063" fill="none" stroke="#3A54F5" stroke-width="2.5" stroke-linecap="round" stroke-linejoin="round" stroke-miterlimit="10" width="7.639" height="1.273"/>
	</g>
	<g id="POLYLINE_00000172409636899585321440000017604409414014239135_">
		
			<rect x="92.142" y="345.063" fill="none" stroke="#3A54F5" stroke-width="2.5" stroke-linecap="round" stroke-linejoin="round" stroke-miterlimit="10" width="7.639" height="1.273"/>
	</g>
	<g id="POLYLINE_00000168795575593109916700000009819229749991000968_">
		
			<path fill="none" stroke="#3A54F5" stroke-width="2.5" stroke-linecap="round" stroke-linejoin="round" stroke-miterlimit="10" d="
			M186.042,346.336c0.001,0.557-0.188,1.113-0.529,1.553c-0.335,0.437-0.815,0.759-1.347,0.903c-0.218,0.06-0.445,0.09-0.671,0.09
			c-0.143-0.004-83.406,0.008-83.537-0.004c-0.178-0.01-0.357-0.039-0.529-0.086c-0.563-0.152-1.069-0.506-1.405-0.982
			c-0.304-0.427-0.471-0.95-0.47-1.474l-3.183,0c-0.001,1.081,0.313,2.161,0.894,3.073c0.578,0.912,1.42,1.654,2.398,2.111
			c0.759,0.357,1.598,0.545,2.437,0.544c0.498-0.018,83.294,0.024,83.715-0.009c0.217-0.012,0.442-0.038,0.656-0.075
			c0.504-0.087,0.999-0.243,1.461-0.46c1-0.468,1.858-1.234,2.437-2.174c0.557-0.898,0.857-1.954,0.855-3.011H186.042z"/>
	</g>
	<g id="POLYLINE_00000095322637276160281810000002033910732972802470_">
		
			<rect x="165.81" y="374.884" fill="none" stroke="#3A54F5" stroke-width="2.5" stroke-linecap="round" stroke-linejoin="round" stroke-miterlimit="10" width="3.181" height="1.813"/>
	</g>
	<g id="POLYLINE_00000032641850524487580470000009909395586741701020_">
		
			<rect x="145.161" y="374.884" fill="none" stroke="#3A54F5" stroke-width="2.5" stroke-linecap="round" stroke-linejoin="round" stroke-miterlimit="10" width="3.181" height="1.813"/>
	</g>
	<g id="POLYLINE_00000151531442941515787470000007795958297858510746_">
		
			<path fill="none" stroke="#3A54F5" stroke-width="2.5" stroke-linecap="round" stroke-linejoin="round" stroke-miterlimit="10" d="
			M148.341,376.698c0.007-0.187-0.017-3.539,0.017-3.626c0.018-0.161,0.057-0.32,0.122-0.469c0.218-0.5,0.684-0.892,1.225-0.986
			c0.592-0.119,1.236,0.071,1.813,0.2c0.762,0.164,1.574,0.244,2.352,0.301c0.994,0.063,2.213,0.153,3.205,0.154
			c0.991,0,2.213-0.091,3.205-0.154c0.778-0.057,1.589-0.137,2.352-0.301c0.578-0.13,1.22-0.319,1.813-0.2
			c0.542,0.093,1.008,0.485,1.225,0.986c0.071,0.16,0.11,0.333,0.126,0.506c0.025,0.072,0.008,3.432,0.013,3.588H148.341z"/>
	</g>
	<g id="POLYLINE_00000146471281173921197650000007711062944153721750_">
		
			<path fill="none" stroke="#3A54F5" stroke-width="2.5" stroke-linecap="round" stroke-linejoin="round" stroke-miterlimit="10" d="
			M171.288,367.709c1.117,5.166,2.433,14.151,3.27,19.465"/>
	</g>
	<g id="POLYLINE_00000129203140838333408970000009741148545144536750_">
		
			<path fill="none" stroke="#3A54F5" stroke-width="2.5" stroke-linecap="round" stroke-linejoin="round" stroke-miterlimit="10" d="
			M142.864,367.709c-1.117,5.166-2.433,14.151-3.27,19.465"/>
	</g>
	<g id="POLYLINE_00000022518922834921144790000008039578227098664362_">
		
			<path fill="none" stroke="#3A54F5" stroke-width="2.5" stroke-linecap="round" stroke-linejoin="round" stroke-miterlimit="10" d="
			M157.076,421.456c2.48,0.004,4.953-0.748,7.016-2.124c1.523-1.022,2.87-2.414,4.057-3.806c1.397-1.67,2.587-3.539,3.514-5.509
			c1.479-3.204,2.381-6.673,2.994-10.14c0.258-2.661,0.583-5.57,0.399-8.231c-0.131-2.483-0.518-4.98-1.096-7.398
			c-0.603-2.481-1.432-4.943-2.572-7.23c-0.08-0.135-0.21-0.24-0.36-0.288c-1.023-0.086-12.595-0.003-13.952-0.031
			c0,0-13.755,0-13.755,0c-0.036,0-0.074,0.003-0.109,0.009c-0.054,0.009-0.108,0.026-0.157,0.049
			c-0.121,0.055-0.223,0.147-0.291,0.261c-1.14,2.287-1.969,4.749-2.572,7.23c-0.578,2.418-0.966,4.915-1.096,7.398
			c-0.193,2.657,0.149,5.579,0.399,8.231c0.613,3.467,1.515,6.936,2.994,10.14c0.927,1.97,2.118,3.839,3.514,5.509
			c1.187,1.392,2.533,2.783,4.057,3.806C152.122,420.707,154.596,421.46,157.076,421.456z"/>
	</g>
	<g id="POLYLINE_00000070840938828727195160000004781129059235154340_">
		
			<path fill="none" stroke="#3A54F5" stroke-width="2.5" stroke-linecap="round" stroke-linejoin="round" stroke-miterlimit="10" d="
			M134.747,352.065c-0.269,0.074-0.534,0.178-0.769,0.332c-0.24,0.156-0.451,0.357-0.632,0.578c-0.399,0.491-0.681,1.09-0.75,1.723
			c-0.045,0.396-0.015,0.8,0.036,1.194c0.128,0.934,0.355,1.896,0.58,2.811c0.705,2.723,1.557,5.477,3.051,7.879
			c0.179,0.232,0.421,0.416,0.694,0.523c0.177,0.07,0.365,0.11,0.554,0.128c6.403,0.665,13.128,1.004,19.565,0.936
			c6.446,0.068,13.182-0.272,19.595-0.939c0.187-0.02,0.374-0.063,0.549-0.135c0.272-0.111,0.511-0.299,0.686-0.534
			c1.479-2.402,2.334-5.142,3.035-7.857c0.224-0.915,0.453-1.877,0.58-2.811c0.051-0.394,0.081-0.798,0.036-1.194
			c-0.07-0.643-0.36-1.251-0.77-1.746c-0.184-0.219-0.396-0.418-0.639-0.571c-0.228-0.144-0.484-0.244-0.743-0.315"/>
	</g>
	<g id="POLYLINE_00000078025518596252308800000012699913150998820496_">
		
			<rect x="201.638" y="478.75" fill="none" stroke="#3A54F5" stroke-width="2.5" stroke-linecap="round" stroke-linejoin="round" stroke-miterlimit="10" width="1.273" height="7.639"/>
	</g>
	<g id="POLYLINE_00000144312206570608569210000005598008294850742705_">
		
			<rect x="201.638" y="371.801" fill="none" stroke="#3A54F5" stroke-width="2.5" stroke-linecap="round" stroke-linejoin="round" stroke-miterlimit="10" width="1.273" height="7.639"/>
	</g>
	<g id="POLYLINE_00000037668177562537306370000018255437548967373499_">
		
			<path fill="none" stroke="#3A54F5" stroke-width="2.5" stroke-linecap="round" stroke-linejoin="round" stroke-miterlimit="10" d="
			M197.5,445.329c-0.41-0.001-0.818,0.164-1.111,0.452c-0.401,0.384-0.572,0.984-0.434,1.522c0.114,0.473,0.458,0.881,0.904,1.074
			c0.152,0.067,0.315,0.11,0.479,0.126c0.047,0.005,0.096,0.008,0.144,0.008c0.028,0.011,4.129-0.008,4.155,0v-3.183H197.5z"/>
	</g>
	<g id="POLYLINE_00000090994245323578879230000013429368264369874585_">
		
			<rect x="201.638" y="443.1" fill="none" stroke="#3A54F5" stroke-width="2.5" stroke-linecap="round" stroke-linejoin="round" stroke-miterlimit="10" width="1.273" height="7.639"/>
	</g>
	<g id="POLYLINE_00000160183635805242384100000012359649758533434803_">
		
			<path fill="none" stroke="#3A54F5" stroke-width="2.5" stroke-linecap="round" stroke-linejoin="round" stroke-miterlimit="10" d="
			M199.092,448.511c0.003,0.114-0.005,29.93,0.003,30.034c0.007,0.168,0.032,0.336,0.072,0.498c0.066,0.266,0.176,0.523,0.323,0.754
			c0.454,0.726,1.292,1.187,2.149,1.18l0,3.183c-1.081,0.001-2.161-0.313-3.073-0.894c-0.912-0.578-1.654-1.42-2.111-2.398
			c-0.217-0.463-0.373-0.957-0.46-1.461c-0.037-0.216-0.063-0.438-0.075-0.656c-0.039-0.004,0.01-98.882-0.009-98.993
			c-0.001-0.839,0.187-1.679,0.544-2.438c0.468-1,1.234-1.858,2.174-2.437c0.898-0.557,1.954-0.857,3.011-0.855v3.183
			c-0.834-0.006-1.652,0.43-2.113,1.126c-0.16,0.237-0.279,0.503-0.351,0.779c-0.045,0.172-0.072,0.35-0.08,0.528
			c-0.012,0.136,0.003,65.548-0.003,65.684"/>
	</g>
</g>
<g id="_x32_D_x24_AG-BUILDINGS">
</g>
<g id="_x32_D_x24_AG-OUTLINE">
</g>
</svg>
