<?xml version="1.0" encoding="utf-8"?>
<!-- Generator: Adobe Illustrator 28.3.0, SVG Export Plug-In . SVG Version: 6.00 Build 0)  -->
<!DOCTYPE svg PUBLIC "-//W3C//DTD SVG 1.1//EN" "http://www.w3.org/Graphics/SVG/1.1/DTD/svg11.dtd" [
	<!ENTITY ns_extend "http://ns.adobe.com/Extensibility/1.0/">
	<!ENTITY ns_ai "http://ns.adobe.com/AdobeIllustrator/10.0/">
	<!ENTITY ns_graphs "http://ns.adobe.com/Graphs/1.0/">
	<!ENTITY ns_vars "http://ns.adobe.com/Variables/1.0/">
	<!ENTITY ns_imrep "http://ns.adobe.com/ImageReplacement/1.0/">
	<!ENTITY ns_sfw "http://ns.adobe.com/SaveForWeb/1.0/">
	<!ENTITY ns_custom "http://ns.adobe.com/GenericCustomNamespace/1.0/">
	<!ENTITY ns_adobe_xpath "http://ns.adobe.com/XPath/1.0/">
]>
<svg version="1.1" xmlns:x="&ns_extend;" xmlns:i="&ns_ai;" xmlns:graph="&ns_graphs;"
	 xmlns="http://www.w3.org/2000/svg" xmlns:xlink="http://www.w3.org/1999/xlink" x="0px" y="0px" width="1000px" height="625px"
	 viewBox="0 0 1000 625" enable-background="new 0 0 1000 625" xml:space="preserve">
<metadata>
	<sfw  xmlns="&ns_sfw;">
		<slices></slices>
		<sliceSourceBounds  bottomLeftOrigin="true" height="3473.752" width="10496.635" x="-4675.635" y="1300"></sliceSourceBounds>
	</sfw>
</metadata>
<g id="FILL-BACKGROUND">
</g>
<g id="N-DIMENSIONS">
</g>
<g id="N-TEXT">
</g>
<g id="_x32_D_x24_AG-DIAGRAM">
	<g id="POLYLINE_00000007428933071167479360000011668269330386701205_">
		<g>
			<g>
				<polyline fill="none" stroke="#3A54F5" stroke-width="3" stroke-linecap="round" stroke-linejoin="round" points="
					93.409,180.645 93.409,178.645 95.409,178.645 				"/>
				
					<line fill="none" stroke="#3A54F5" stroke-width="3" stroke-linecap="round" stroke-linejoin="round" stroke-dasharray="4.0199,6.0299" x1="101.439" y1="178.645" x2="259.221" y2="178.645"/>
				<polyline fill="none" stroke="#3A54F5" stroke-width="3" stroke-linecap="round" stroke-linejoin="round" points="
					262.236,178.645 264.236,178.645 264.236,180.645 				"/>
				
					<line fill="none" stroke="#3A54F5" stroke-width="3" stroke-linecap="round" stroke-linejoin="round" stroke-dasharray="4.0683,6.1024" x1="264.236" y1="186.747" x2="264.236" y2="458.304"/>
				<polyline fill="none" stroke="#3A54F5" stroke-width="3" stroke-linecap="round" stroke-linejoin="round" points="
					264.236,461.355 264.236,463.355 262.236,463.355 				"/>
				
					<line fill="none" stroke="#3A54F5" stroke-width="3" stroke-linecap="round" stroke-linejoin="round" stroke-dasharray="4.0199,6.0299" x1="256.206" y1="463.355" x2="98.424" y2="463.355"/>
				<polyline fill="none" stroke="#3A54F5" stroke-width="3" stroke-linecap="round" stroke-linejoin="round" points="
					95.409,463.355 93.409,463.355 93.409,461.355 				"/>
				
					<line fill="none" stroke="#3A54F5" stroke-width="3" stroke-linecap="round" stroke-linejoin="round" stroke-dasharray="4.0683,6.1024" x1="93.409" y1="455.253" x2="93.409" y2="183.696"/>
			</g>
		</g>
	</g>
	<g id="POLYLINE_00000007419271809223355690000013323714500892058300_">
		<g>
			<g>
				<polyline fill="none" stroke="#3A54F5" stroke-width="3" stroke-linecap="round" stroke-linejoin="round" points="
					735.765,95.231 735.765,93.231 737.765,93.231 				"/>
				
					<line fill="none" stroke="#3A54F5" stroke-width="3" stroke-linecap="round" stroke-linejoin="round" stroke-dasharray="4.0199,6.0299" x1="743.794" y1="93.231" x2="901.576" y2="93.231"/>
				<polyline fill="none" stroke="#3A54F5" stroke-width="3" stroke-linecap="round" stroke-linejoin="round" points="
					904.591,93.231 906.591,93.231 906.591,95.231 				"/>
				
					<line fill="none" stroke="#3A54F5" stroke-width="3" stroke-linecap="round" stroke-linejoin="round" stroke-dasharray="3.9609,5.9413" x1="906.591" y1="101.173" x2="906.591" y2="543.798"/>
				<polyline fill="none" stroke="#3A54F5" stroke-width="3" stroke-linecap="round" stroke-linejoin="round" points="
					906.591,546.769 906.591,548.769 904.591,548.769 				"/>
				
					<line fill="none" stroke="#3A54F5" stroke-width="3" stroke-linecap="round" stroke-linejoin="round" stroke-dasharray="4.0199,6.0299" x1="898.561" y1="548.769" x2="740.779" y2="548.769"/>
				<polyline fill="none" stroke="#3A54F5" stroke-width="3" stroke-linecap="round" stroke-linejoin="round" points="
					737.765,548.769 735.765,548.769 735.765,546.769 				"/>
				
					<line fill="none" stroke="#3A54F5" stroke-width="3" stroke-linecap="round" stroke-linejoin="round" stroke-dasharray="3.9609,5.9413" x1="735.765" y1="540.827" x2="735.765" y2="98.202"/>
			</g>
		</g>
	</g>
	<g id="POLYLINE_00000003804561681755264040000008273313010480818616_">
		<g>
			<g>
				<polyline fill="none" stroke="#3A54F5" stroke-width="3" stroke-linecap="round" stroke-linejoin="round" points="
					357.645,95.231 357.645,93.231 359.645,93.231 				"/>
				
					<line fill="none" stroke="#3A54F5" stroke-width="3" stroke-linecap="round" stroke-linejoin="round" stroke-dasharray="4.0683,6.1024" x1="365.747" y1="93.231" x2="637.304" y2="93.231"/>
				<polyline fill="none" stroke="#3A54F5" stroke-width="3" stroke-linecap="round" stroke-linejoin="round" points="
					640.355,93.231 642.355,93.231 642.355,95.231 				"/>
				
					<line fill="none" stroke="#3A54F5" stroke-width="3" stroke-linecap="round" stroke-linejoin="round" stroke-dasharray="3.9609,5.9413" x1="642.355" y1="101.173" x2="642.355" y2="543.798"/>
				<polyline fill="none" stroke="#3A54F5" stroke-width="3" stroke-linecap="round" stroke-linejoin="round" points="
					642.355,546.769 642.355,548.769 640.355,548.769 				"/>
				
					<line fill="none" stroke="#3A54F5" stroke-width="3" stroke-linecap="round" stroke-linejoin="round" stroke-dasharray="4.0683,6.1024" x1="634.253" y1="548.769" x2="362.696" y2="548.769"/>
				<polyline fill="none" stroke="#3A54F5" stroke-width="3" stroke-linecap="round" stroke-linejoin="round" points="
					359.645,548.769 357.645,548.769 357.645,546.769 				"/>
				
					<line fill="none" stroke="#3A54F5" stroke-width="3" stroke-linecap="round" stroke-linejoin="round" stroke-dasharray="3.9609,5.9413" x1="357.645" y1="540.827" x2="357.645" y2="98.202"/>
			</g>
		</g>
	</g>
</g>
<g id="_x32_D_x24_AG-DETAILS-DIAGRAM">
</g>
<g id="_x32_D_x24_AG-FIXTURES">
	<g id="POLYLINE_00000119836829348182988130000010867349268376797825_">
		
			<rect x="93.409" y="427.767" fill="none" stroke="#3A54F5" stroke-width="2.5" stroke-linecap="round" stroke-linejoin="round" stroke-miterlimit="10" width="2.373" height="14.236"/>
	</g>
	<g id="POLYLINE_00000032611954419758743840000017575357516020179885_">
		
			<rect x="93.409" y="228.469" fill="none" stroke="#3A54F5" stroke-width="2.5" stroke-linecap="round" stroke-linejoin="round" stroke-miterlimit="10" width="2.373" height="14.236"/>
	</g>
	<g id="POLYLINE_00000111155748746214462890000018350231791925664417_">
		
			<path fill="none" stroke="#3A54F5" stroke-width="2.5" stroke-linecap="round" stroke-linejoin="round" stroke-miterlimit="10" d="
			M103.492,365.486c0.752-0.003,1.498,0.296,2.042,0.815c0.767,0.72,1.096,1.843,0.837,2.863c-0.213,0.881-0.853,1.642-1.685,2.002
			c-0.283,0.124-0.586,0.204-0.894,0.236c-0.087,0.009-0.18,0.014-0.267,0.015c-0.036,0.013-7.706-0.009-7.743,0v-5.931H103.492z"/>
	</g>
	<g id="POLYLINE_00000133522858275877118680000016547996385295168441_">
		
			<rect x="93.409" y="361.334" fill="none" stroke="#3A54F5" stroke-width="2.5" stroke-linecap="round" stroke-linejoin="round" stroke-miterlimit="10" width="2.373" height="14.236"/>
	</g>
	<g id="POLYLINE_00000048470079036917971560000013197802506774178957_">
		
			<path fill="none" stroke="#3A54F5" stroke-width="2.5" stroke-linecap="round" stroke-linejoin="round" stroke-miterlimit="10" d="
			M100.527,371.417c-0.012,0.53,0.017,55.552-0.007,56.022c-0.019,0.332-0.073,0.665-0.16,0.985
			c-0.13,0.476-0.336,0.933-0.606,1.346c-0.857,1.327-2.392,2.158-3.972,2.149l0,5.931c4.062,0.011,7.84-2.353,9.604-6.013
			c0.703-1.446,1.073-3.055,1.072-4.663c0.005,0.016-0.003-183.987-0.001-183.994c-0.002-0.186-0.01-0.412-0.023-0.599
			c-0.027-0.406-0.08-0.826-0.154-1.226c-0.174-0.939-0.476-1.861-0.894-2.72c-1.761-3.654-5.537-6.026-9.604-6.013v5.931
			c1.537-0.009,3.037,0.778,3.904,2.048c0.293,0.423,0.517,0.897,0.658,1.392c0.092,0.321,0.15,0.654,0.172,0.987
			c0.041,0.346-0.007,122.15,0.011,122.508"/>
	</g>
	<g id="POLYLINE_00000183945480588817177960000005578565289586278313_">
		
			<rect x="261.863" y="427.767" fill="none" stroke="#3A54F5" stroke-width="2.5" stroke-linecap="round" stroke-linejoin="round" stroke-miterlimit="10" width="2.373" height="14.236"/>
	</g>
	<g id="POLYLINE_00000090268540966187155740000009326081612131035798_">
		
			<rect x="261.863" y="228.469" fill="none" stroke="#3A54F5" stroke-width="2.5" stroke-linecap="round" stroke-linejoin="round" stroke-miterlimit="10" width="2.373" height="14.236"/>
	</g>
	<g id="POLYLINE_00000150060599696596759830000006524114069401907386_">
		
			<path fill="none" stroke="#3A54F5" stroke-width="2.5" stroke-linecap="round" stroke-linejoin="round" stroke-miterlimit="10" d="
			M254.152,365.486c-0.752-0.003-1.498,0.296-2.042,0.815c-0.767,0.72-1.096,1.843-0.837,2.863c0.213,0.881,0.853,1.642,1.685,2.002
			c0.283,0.124,0.586,0.204,0.894,0.236c0.087,0.009,0.18,0.014,0.267,0.015c0.036,0.013,7.706-0.009,7.743,0v-5.931H254.152z"/>
	</g>
	<g id="POLYLINE_00000147193028414132555920000000423059864565802682_">
		
			<rect x="261.863" y="361.334" fill="none" stroke="#3A54F5" stroke-width="2.5" stroke-linecap="round" stroke-linejoin="round" stroke-miterlimit="10" width="2.373" height="14.236"/>
	</g>
	<g id="POLYLINE_00000172436028579192740500000008276213095962610572_">
		
			<path fill="none" stroke="#3A54F5" stroke-width="2.5" stroke-linecap="round" stroke-linejoin="round" stroke-miterlimit="10" d="
			M257.118,371.417c0.012,0.53-0.017,55.552,0.007,56.022c0.019,0.332,0.073,0.665,0.16,0.985c0.13,0.476,0.336,0.933,0.606,1.346
			c0.857,1.327,2.392,2.158,3.972,2.149l0,5.931c-4.062,0.011-7.84-2.353-9.604-6.013c-0.703-1.446-1.073-3.055-1.072-4.663
			c-0.005,0.016,0.003-183.987,0.001-183.994c0.002-0.186,0.01-0.412,0.023-0.599c0.027-0.406,0.08-0.826,0.154-1.226
			c0.174-0.939,0.476-1.861,0.894-2.72c1.761-3.654,5.537-6.026,9.604-6.013v5.931c-1.537-0.009-3.037,0.778-3.904,2.048
			c-0.293,0.423-0.517,0.897-0.658,1.392c-0.092,0.321-0.15,0.654-0.172,0.987c-0.041,0.346,0.007,122.15-0.011,122.508"/>
	</g>
	<g id="POLYLINE_00000116917512986684053430000001040448426168978049_">
		
			<path fill="none" stroke="#3A54F5" stroke-width="2.5" stroke-linecap="round" stroke-linejoin="round" stroke-miterlimit="10" d="
			M178.822,315.475c4.621,0.008,9.23-1.395,13.074-3.958c1.101-0.726,2.154-1.575,3.126-2.468c1.562-1.422,3.078-3.004,4.434-4.625
			c2.603-3.113,4.822-6.594,6.549-10.266c2.756-5.971,4.437-12.436,5.579-18.896c0.3-3.156,0.739-7.329,0.829-10.45
			c0.037-1.58-0.005-3.311-0.085-4.889c-0.244-4.628-0.965-9.28-2.043-13.787c-1.117-4.606-2.66-9.169-4.763-13.42
			c-0.153-0.29-0.426-0.515-0.743-0.603c-1.858-0.126-23.472-0.004-25.958-0.045c-0.018-0.004-25.636,0.003-25.652,0
			c-0.067,0.001-0.138,0.008-0.204,0.021c-0.104,0.02-0.207,0.054-0.302,0.101c-0.231,0.112-0.423,0.3-0.543,0.527
			c-2.102,4.251-3.647,8.815-4.763,13.42c-1.077,4.506-1.8,9.159-2.043,13.787c-0.08,1.578-0.122,3.309-0.085,4.889
			c0.08,3.121,0.542,7.32,0.829,10.45c1.142,6.46,2.823,12.924,5.579,18.896c1.727,3.671,3.946,7.153,6.549,10.266
			c1.356,1.621,2.872,3.202,4.434,4.625c0.971,0.892,2.025,1.742,3.126,2.468C169.592,314.08,174.201,315.483,178.822,315.475z"/>
	</g>
	<g id="POLYLINE_00000129173036690449453070000007300985283748118973_">
		
			<path fill="none" stroke="#3A54F5" stroke-width="2.5" stroke-linecap="round" stroke-linejoin="round" stroke-miterlimit="10" d="
			M152.339,215.32c-2.081,9.625-4.535,26.371-6.093,36.272"/>
	</g>
	<g id="POLYLINE_00000145759794882986883420000012715500699724922026_">
		
			<path fill="none" stroke="#3A54F5" stroke-width="2.5" stroke-linecap="round" stroke-linejoin="round" stroke-miterlimit="10" d="
			M205.306,215.32c2.081,9.625,4.535,26.371,6.093,36.272"/>
	</g>
	<g id="POLYLINE_00000139286536482253479440000012133185820557969830_">
		
			<path fill="none" stroke="#3A54F5" stroke-width="2.5" stroke-linecap="round" stroke-linejoin="round" stroke-miterlimit="10" d="
			M162.546,232.069c0.009-0.312-0.024-6.537,0.024-6.687c0.03-0.324,0.104-0.646,0.235-0.943c0.397-0.91,1.234-1.632,2.215-1.823
			c1.126-0.247,2.348,0.112,3.446,0.36c1.421,0.305,2.933,0.454,4.383,0.561c1.852,0.117,4.124,0.286,5.973,0.286
			c1.847,0,4.124-0.169,5.973-0.286c1.449-0.106,2.962-0.256,4.383-0.561c1.1-0.248,2.319-0.606,3.446-0.36
			c0.982,0.191,1.818,0.913,2.215,1.823c0.132,0.298,0.206,0.62,0.235,0.943c0.046,0.135,0.015,6.396,0.024,6.687
			C195.099,232.069,162.546,232.069,162.546,232.069z"/>
	</g>
	<g id="POLYLINE_00000114054640874276975180000000917611834431342747_">
		
			<rect x="156.619" y="228.691" fill="none" stroke="#3A54F5" stroke-width="2.5" stroke-linecap="round" stroke-linejoin="round" stroke-miterlimit="10" width="5.927" height="3.379"/>
	</g>
	<g id="POLYLINE_00000011746100113445641260000014544759963891745424_">
		
			<rect x="195.099" y="228.691" fill="none" stroke="#3A54F5" stroke-width="2.5" stroke-linecap="round" stroke-linejoin="round" stroke-miterlimit="10" width="5.927" height="3.379"/>
	</g>
	<g id="POLYLINE_00000118367927102613942700000016683156067317308056_">
		
			<path fill="none" stroke="#3A54F5" stroke-width="2.5" stroke-linecap="round" stroke-linejoin="round" stroke-miterlimit="10" d="
			M139.721,212.734c0.351,0.651,0.916,1.193,1.611,1.459c0.243,0.096,0.499,0.163,0.756,0.204c2.525,0.28,7.322,0.698,9.855,0.894
			c8.711,0.651,18.147,0.978,26.879,0.885c8.731,0.091,18.17-0.232,26.879-0.885c2.574-0.22,7.568-0.592,10.119-0.945
			c0.328-0.076,0.649-0.198,0.938-0.371c0.495-0.293,0.891-0.738,1.166-1.241c0.907-1.62,1.772-3.328,2.467-5.05
			c1.094-2.697,1.952-5.552,2.7-8.363c0.449-1.743,0.892-3.584,1.185-5.36c0.134-0.866,0.253-1.759,0.188-2.637
			c-0.063-0.983-0.403-1.935-0.925-2.767c-0.404-0.643-0.911-1.233-1.532-1.674c-0.884-0.631-1.982-0.843-3.034-1.018
			c-4.019-0.606-9.206-0.974-13.284-1.314c-7.764-0.563-16.614-1.036-24.393-1.146c-9.524-0.096-19.833,0.474-29.341,1.146
			c-3.931,0.329-9.032,0.7-12.923,1.258c-0.509,0.083-1.091,0.169-1.594,0.299c-0.833,0.201-1.619,0.542-2.265,1.149
			c-1.09,1.017-1.849,2.449-1.982,3.94c-0.075,0.805,0.01,1.626,0.125,2.424c0.203,1.361,0.528,2.806,0.846,4.146
			c0.826,3.345,1.801,6.718,3.091,9.916C137.949,209.405,138.811,211.115,139.721,212.734z"/>
	</g>
	<g id="POLYLINE_00000183244015869525632080000011130347161537455516_">
		
			<path fill="none" stroke="#3A54F5" stroke-width="2.5" stroke-linecap="round" stroke-linejoin="round" stroke-miterlimit="10" d="
			M745.848,384.467c0.752-0.002,1.498,0.296,2.042,0.815c0.778,0.727,1.105,1.882,0.825,2.91c-0.223,0.861-0.857,1.601-1.673,1.955
			c-0.296,0.13-0.616,0.212-0.938,0.24c-0.081,0.007-0.174,0.011-0.256,0.011c0,0-7.711,0-7.711,0v-5.931H745.848z"/>
	</g>
	<g id="POLYLINE_00000106870000310036040690000009841147253771689662_">
		
			<rect x="735.764" y="380.315" fill="none" stroke="#3A54F5" stroke-width="2.5" stroke-linecap="round" stroke-linejoin="round" stroke-miterlimit="10" width="2.373" height="14.236"/>
	</g>
	<g id="POLYLINE_00000088834354946703735110000013387620450105749656_">
		
			<rect x="735.764" y="266.43" fill="none" stroke="#3A54F5" stroke-width="2.5" stroke-linecap="round" stroke-linejoin="round" stroke-miterlimit="10" width="2.373" height="14.236"/>
	</g>
	<g id="POLYLINE_00000036932089060058138150000008136640764631325625_">
		
			<rect x="735.764" y="351.844" fill="none" stroke="#3A54F5" stroke-width="2.5" stroke-linecap="round" stroke-linejoin="round" stroke-miterlimit="10" width="2.373" height="14.236"/>
	</g>
	<g id="POLYLINE_00000164506636526390313540000014282402123252919215_">
		
			<path fill="none" stroke="#3A54F5" stroke-width="2.5" stroke-linecap="round" stroke-linejoin="round" stroke-miterlimit="10" d="
			M738.137,355.996c0.896,0.001,1.79-0.259,2.546-0.741c0.755-0.479,1.37-1.176,1.749-1.986c0.296-0.629,0.451-1.324,0.451-2.019
			c-0.015-0.416,0.02-69.905-0.007-70.257c-0.01-0.18-0.031-0.366-0.062-0.544c-0.072-0.417-0.201-0.827-0.381-1.21
			c-0.388-0.828-1.022-1.539-1.8-2.018c-0.744-0.461-1.619-0.71-2.494-0.708l0-5.931c4.063-0.011,7.84,2.353,9.604,6.013
			c0.703,1.446,1.073,3.055,1.072,4.663c0,0,0,69.992,0,69.992c0,0.189-0.006,0.407-0.017,0.596
			c-0.03,0.533-0.101,1.073-0.211,1.595c-0.179,0.852-0.464,1.688-0.845,2.472c-1.763,3.658-5.54,6.025-9.604,6.013V355.996z"/>
	</g>
	<g id="POLYLINE_00000080189495661900392520000018193299452155025083_">
		
			<path fill="none" stroke="#3A54F5" stroke-width="2.5" stroke-linecap="round" stroke-linejoin="round" stroke-miterlimit="10" d="
			M800.256,510.394c0.517,0.582,1.006,1.202,1.351,1.902c0.367,0.731,0.588,1.533,0.692,2.343c0.096,0.742,0.095,1.502,0.043,2.247
			c-0.04,0.377-0.068,0.877-0.12,1.257c0.016,0.112-3.216,29.311-3.197,29.413c-0.012,0.405,0.201,0.807,0.544,1.024
			c0.15,0.096,0.321,0.158,0.498,0.18c0.037,0.107,42-0.059,42.076,0.009c0.24,0,0.479-0.075,0.676-0.211
			c0.329-0.225,0.528-0.623,0.51-1.022c0.062-0.01-3.234-29.358-3.196-29.392c-0.041-0.296-0.095-0.959-0.12-1.257
			c-0.027-0.336-0.035-0.707-0.035-1.045c0.007-1.087,0.175-2.189,0.606-3.192c0.209-0.49,0.482-0.956,0.799-1.384
			c0.458-0.623,1.928-2.236,2.425-2.82c0.978-1.132,2.1-2.482,2.997-3.679c2.45-3.245,4.529-6.821,5.891-10.66
			c1.245-3.488,1.894-7.201,1.888-10.905c-0.023-0.791-0.064-1.603-0.307-2.361c-0.14-0.43-0.376-0.854-0.764-1.104
			c-0.29-0.191-0.637-0.274-0.979-0.305c-0.137-0.013-0.289-0.018-0.427-0.018c0,0-61.858,0-61.858,0
			c-0.483,0.001-0.993,0.053-1.406,0.323c-0.399,0.259-0.639,0.7-0.777,1.145c-0.231,0.747-0.273,1.544-0.294,2.321
			c-0.002,2.785,0.359,5.582,1.072,8.274c0.885,3.351,2.326,6.566,4.133,9.52C795.002,504.355,797.65,507.467,800.256,510.394z"/>
	</g>
	<g id="POLYLINE_00000085234710699059288130000015132445753195725191_">
		
			<path fill="none" stroke="#3A54F5" stroke-width="2.5" stroke-linecap="round" stroke-linejoin="round" stroke-miterlimit="10" d="
			M854.585,471.893c0.002-0.596-0.3-1.149-0.697-1.578c-0.491-0.533-1.114-0.93-1.756-1.257c-0.942-0.474-1.966-0.803-2.99-1.05
			c-1.319-0.314-2.683-0.494-4.037-0.571c-0.401-0.022-0.844-0.037-1.245-0.04c-0.151-0.01-44.931,0.005-45.124-0.001
			c-1.686,0.002-3.386,0.155-5.037,0.503c-1.55,0.34-3.117,0.823-4.437,1.73c-0.533,0.378-1.034,0.845-1.31,1.447
			c-0.074,0.164-0.129,0.339-0.158,0.516c-0.052,0.245-0.013,0.754-0.025,1.002c0.002,0.208,0.037,0.417,0.101,0.615
			c0.132,0.408,0.396,0.771,0.742,1.023c0.349,0.255,0.779,0.396,1.211,0.395c0.139-0.005,62.715,0.009,62.842-0.005
			c0.169-0.011,0.339-0.044,0.5-0.097c0.247-0.08,0.479-0.209,0.678-0.375c0.315-0.261,0.548-0.62,0.66-1.013
			c0.033-0.116,0.057-0.237,0.069-0.357c0.004-0.053,0.01-0.109,0.01-0.163c0,0,0-0.023,0-0.023s0-0.023,0-0.023V471.893z"/>
	</g>
	<g id="POLYLINE_00000152957367359945975570000009301848887529039760_">
		
			<path fill="none" stroke="#3A54F5" stroke-width="2.5" stroke-linecap="round" stroke-linejoin="round" stroke-miterlimit="10" d="
			M854.585,476.68c0.002-0.53-0.212-1.056-0.583-1.434c-0.354-0.366-0.848-0.591-1.357-0.618
			c-0.348-0.002-62.643-0.013-62.981,0.003c-0.203,0.016-0.405,0.063-0.595,0.138c-0.293,0.116-0.559,0.301-0.77,0.535
			c-0.231,0.256-0.396,0.571-0.474,0.906c-0.089,0.306-0.044,0.833-0.054,1.147c0.001,0.045,0.001,0.093,0.005,0.138
			c0.042,0.688,0.454,1.336,1.061,1.663c0.302,0.166,0.646,0.254,0.99,0.254c0.415-0.013,62.559,0.026,62.936-0.013
			c0.239-0.027,0.474-0.097,0.689-0.205c0.501-0.249,0.89-0.711,1.048-1.248c0.037-0.124,0.063-0.253,0.076-0.381
			c0.004-0.053,0.01-0.109,0.01-0.162c0,0,0-0.023,0-0.023s0-0.023,0-0.023S854.585,476.68,854.585,476.68z"/>
	</g>
	<g id="POLYLINE_00000028317854792772007650000013862383143688516019_">
		
			<line fill="none" stroke="#3A54F5" stroke-width="2.5" stroke-linecap="round" stroke-linejoin="round" stroke-miterlimit="10" x1="852.963" y1="474.671" x2="853.003" y2="474.57"/>
	</g>
	<g id="POLYLINE_00000132084322312539630500000014515566032005732018_">
		
			<line fill="none" stroke="#3A54F5" stroke-width="2.5" stroke-linecap="round" stroke-linejoin="round" stroke-miterlimit="10" x1="789.393" y1="474.671" x2="789.353" y2="474.57"/>
	</g>
	<g id="POLYLINE_00000096026987719859640000000016156323904168941482_">
		
			<path fill="none" stroke="#3A54F5" stroke-width="2.5" stroke-linecap="round" stroke-linejoin="round" stroke-miterlimit="10" d="
			M775.237,421.969c22.901,0,68.986,0,91.881,0"/>
	</g>
	<g id="POLYLINE_00000124153349390171722500000007177349246647252135_">
		
			<path fill="none" stroke="#3A54F5" stroke-width="2.5" stroke-linecap="round" stroke-linejoin="round" stroke-miterlimit="10" d="
			M787.77,477.252c-0.669-0.022-1.59-0.009-2.265-0.063c0,0-0.159-0.012-0.159-0.012s-0.072-0.007-0.072-0.007
			s-0.068-0.007-0.068-0.007l-0.064-0.007c-0.173-0.022-0.355-0.051-0.524-0.1c-0.827-0.225-1.576-0.717-2.124-1.374
			c-0.219-0.262-0.41-0.55-0.562-0.855c-0.179-0.354-0.299-0.746-0.412-1.125c-0.789-3.035-1.799-7.689-2.435-10.759
			c-0.773-3.874-1.399-8.129-1.874-12.055c-1.266-11.138-1.975-22.653-2.024-33.863c0.017-0.617,0.21-1.237,0.592-1.726
			c0.251-0.323,0.591-0.576,0.975-0.718c0.377-0.144,0.788-0.195,1.189-0.223c12.011-0.48,31.061-0.629,43.236-0.692
			c12.217,0.117,31.169,0.172,43.236,0.692c0.4,0.029,0.812,0.079,1.189,0.223c0.42,0.156,0.788,0.444,1.044,0.811
			c0.336,0.474,0.507,1.054,0.522,1.633c-0.05,11.21-0.758,22.725-2.024,33.863c-0.481,3.925-1.099,8.18-1.875,12.055
			c-0.663,3.214-1.622,7.575-2.435,10.759c-0.12,0.394-0.243,0.804-0.435,1.17c-0.156,0.303-0.35,0.589-0.572,0.848
			c-0.554,0.65-1.305,1.132-2.132,1.348c-0.223,0.061-0.458,0.09-0.688,0.11c-0.751,0.052-1.666,0.069-2.424,0.076"/>
	</g>
	<g id="POLYLINE_00000160869355496404470030000000405826940341390497_">
		
			<path fill="none" stroke="#3A54F5" stroke-width="2.5" stroke-linecap="round" stroke-linejoin="round" stroke-miterlimit="10" d="
			M896.508,384.467c-0.752-0.002-1.498,0.296-2.042,0.815c-0.778,0.727-1.105,1.882-0.825,2.91c0.223,0.861,0.857,1.601,1.673,1.955
			c0.296,0.13,0.616,0.212,0.938,0.24c0.081,0.007,0.174,0.011,0.256,0.011c0,0,7.711,0,7.711,0v-5.931H896.508z"/>
	</g>
	<g id="POLYLINE_00000129200864156914066920000000381991574173536439_">
		
			<rect x="904.218" y="380.315" fill="none" stroke="#3A54F5" stroke-width="2.5" stroke-linecap="round" stroke-linejoin="round" stroke-miterlimit="10" width="2.373" height="14.236"/>
	</g>
	<g id="POLYLINE_00000138565038950757580070000014367159818663083187_">
		
			<rect x="904.218" y="266.43" fill="none" stroke="#3A54F5" stroke-width="2.5" stroke-linecap="round" stroke-linejoin="round" stroke-miterlimit="10" width="2.373" height="14.236"/>
	</g>
	<g id="POLYLINE_00000026875695248332412340000014262031685025385146_">
		
			<rect x="904.218" y="351.844" fill="none" stroke="#3A54F5" stroke-width="2.5" stroke-linecap="round" stroke-linejoin="round" stroke-miterlimit="10" width="2.373" height="14.236"/>
	</g>
	<g id="POLYLINE_00000018943945736332899270000004098339957744242062_">
		
			<path fill="none" stroke="#3A54F5" stroke-width="2.5" stroke-linecap="round" stroke-linejoin="round" stroke-miterlimit="10" d="
			M904.218,355.996c-0.896,0.001-1.79-0.259-2.546-0.741c-0.755-0.479-1.37-1.176-1.749-1.986c-0.296-0.629-0.451-1.324-0.451-2.019
			c0.015-0.416-0.02-69.905,0.007-70.257c0.01-0.18,0.031-0.366,0.062-0.544c0.072-0.417,0.201-0.827,0.381-1.21
			c0.388-0.828,1.022-1.539,1.8-2.018c0.744-0.461,1.619-0.71,2.494-0.708l0-5.931c-4.063-0.011-7.84,2.353-9.604,6.013
			c-0.703,1.446-1.073,3.055-1.072,4.663c0,0,0,69.992,0,69.992c0,0.189,0.006,0.407,0.017,0.596
			c0.03,0.533,0.101,1.073,0.211,1.595c0.179,0.852,0.464,1.688,0.845,2.472c1.763,3.658,5.54,6.025,9.604,6.013V355.996z"/>
	</g>
	<g id="POLYLINE_00000044159586404393296590000000377043137027491513_">
		
			<path fill="none" stroke="#3A54F5" stroke-width="2.5" stroke-linecap="round" stroke-linejoin="round" stroke-miterlimit="10" d="
			M367.169,420.474v-5.298c0.002-0.032,0-0.072,0.004-0.104c0.009-0.12,0.032-0.241,0.069-0.356c0.129-0.405,0.439-0.746,0.83-0.913
			c0.182-0.079,0.382-0.121,0.58-0.122c6.829,0.065,16.821,0.02,23.535,0.547c2.341,0.162,5.13,0.412,7.462,0.67
			c0.094,0.01,0.189,0.03,0.279,0.058c0.543,0.164,0.963,0.657,1.036,1.22c0.008,0.059,0.014,0.122,0.014,0.181
			c0.011,0.023-0.007,4.09,0,4.115c0,0.094-0.009,0.19-0.027,0.282c-0.061,0.321-0.231,0.62-0.477,0.837
			c-0.167,0.148-0.369,0.258-0.584,0.319c-0.091,0.026-0.185,0.043-0.279,0.051c-0.155,0.025-30.823-0.005-31.001,0.005
			c-0.223-0.008-0.445-0.066-0.643-0.17C367.484,421.548,367.164,421.019,367.169,420.474z"/>
	</g>
	<g id="POLYLINE_00000013908221494293795400000011850038964909031304_">
		
			<path fill="none" stroke="#3A54F5" stroke-width="2.5" stroke-linecap="round" stroke-linejoin="round" stroke-miterlimit="10" d="
			M417.441,477.357c0.006-0.339-0.031-0.877,0.068-1.203c0.114-0.435,0.376-0.829,0.733-1.102c0.272-0.209,0.597-0.349,0.935-0.402
			c0.105-0.016,0.212-0.025,0.318-0.025c0.213,0.011,78.466-0.021,78.661,0.011c0.294,0.03,0.582,0.126,0.836,0.276
			c0.584,0.341,0.974,0.985,1.004,1.661c0.013,0.153-0.001,0.737,0,0.89c-0.008,0.141-0.029,0.284-0.066,0.42
			c-0.111,0.423-0.362,0.808-0.705,1.081c-0.277,0.221-0.613,0.369-0.963,0.424c-0.105,0.016-0.212,0.025-0.318,0.025
			c-0.366-0.022-78.382,0.034-78.696-0.015c-0.305-0.037-0.603-0.144-0.861-0.31C417.806,478.72,417.436,478.046,417.441,477.357z"
			/>
	</g>
	<g id="POLYLINE_00000103256294908820336090000001231061529307351946_">
		
			<path fill="none" stroke="#3A54F5" stroke-width="2.5" stroke-linecap="round" stroke-linejoin="round" stroke-miterlimit="10" d="
			M499.215,473.846c-0.099,0.263-0.286,0.497-0.54,0.625c-0.122,0.063-0.256,0.104-0.39,0.127c-0.082,0.014-0.167,0.022-0.25,0.026
			c-0.199,0.004-78.49,0.002-78.696,0c-0.296-0.01-0.608-0.066-0.84-0.262c-0.202-0.169-0.294-0.435-0.306-0.692
			c-0.017-0.31,0.049-0.621,0.135-0.917c0.036-0.263,1.53-3.72,1.66-4.066c0.115-0.275,0.273-0.536,0.485-0.746
			c0.366-0.371,0.883-0.537,1.396-0.545c19.35,0.102,41.356,0.676,60.604,2.006c4.015,0.317,10.853,0.698,14.772,1.2
			c0.388,0.07,0.766,0.216,1.081,0.456c0.388,0.289,0.709,0.682,0.872,1.141C499.381,472.727,499.351,473.309,499.215,473.846z"/>
	</g>
	<g id="POLYLINE_00000167365935934707615130000004351744203749451700_">
		
			<path fill="none" stroke="#3A54F5" stroke-width="2.5" stroke-linecap="round" stroke-linejoin="round" stroke-miterlimit="10" d="
			M367.842,421.722l1.033,51.979c0.001,0.127,0.005,0.278,0.012,0.405c0.025,0.434,0.088,0.873,0.226,1.286
			c0.112,0.334,0.277,0.655,0.512,0.919c0.231,0.262,0.533,0.459,0.862,0.575c0.25,0.089,0.516,0.136,0.781,0.153
			c0.064,0.004,0.135,0.007,0.199,0.007c0.054,0.006,25.024-0.004,25.077,0h-25.036"/>
	</g>
	<g id="POLYLINE_00000140011489753658060870000014600852611225058180_">
		
			<path fill="none" stroke="#3A54F5" stroke-width="2.5" stroke-linecap="round" stroke-linejoin="round" stroke-miterlimit="10" d="
			M400.283,421.737c-0.033,12.72-0.415,39.106-0.708,51.954c-0.021,0.337-0.063,0.681-0.138,1.01
			c-0.088,0.388-0.223,0.77-0.43,1.111c-0.236,0.393-0.579,0.723-0.99,0.926c-0.454,0.228-0.968,0.309-1.472,0.309v2.365h24.063"/>
	</g>
	<g id="POLYLINE_00000046297529018486605070000013363788355694261929_">
		
			<path fill="none" stroke="#3A54F5" stroke-width="2.5" stroke-linecap="round" stroke-linejoin="round" stroke-miterlimit="10" d="
			M371.509,481.778v-4.73v10.032c0.195,0.539,0.445,1.088,0.885,1.471c0.923,4.555,1.377,9.241,1.346,13.89
			c-0.014,3.296-0.264,6.661-0.951,9.889c-0.427,1.524-0.63,3.119-0.715,4.697v25.856c0,0.099-0.003,0.234-0.007,0.334
			c-0.015,0.335-0.048,0.677-0.115,1.006c-0.086,0.471-0.275,0.783-0.475,1.2c-0.124,0.266-0.21,0.552-0.277,0.838
			c-0.145,0.636-0.215,1.293-0.212,1.945c0.006,0.09,0.016,0.181,0.045,0.267c0.021,0.066,0.054,0.13,0.101,0.182
			c0.043,0.046,0.097,0.08,0.157,0.098c0.166,0.064,110.9-0.004,111.073,0.015c0.136-0.009,0.272-0.037,0.395-0.096
			c0.149-0.07,0.274-0.186,0.359-0.327c0.16-0.267,0.2-0.587,0.205-0.893c-0.038-1.418-4.82-32.099-4.804-32.878
			c-0.122-1.238-0.172-2.51-0.058-3.75c0.137-1.633,0.677-3.199,1.623-4.542c2.025-2.868,5.262-4.697,8.014-6.779
			c2.045-1.52,3.882-3.331,5.48-5.313c3.044-3.742,5.413-8.274,5.657-13.166c0.006-0.426-0.043-0.893-0.327-1.231
			c-0.234-0.28-0.612-0.381-0.965-0.377"/>
	</g>
	<g id="POLYLINE_00000005237855673157141660000009718364082062533284_">
		
			<path fill="none" stroke="#3A54F5" stroke-width="2.5" stroke-linecap="round" stroke-linejoin="round" stroke-miterlimit="10" d="
			M414.653,384.467h199.166c0.922-0.026,1.843,0.411,2.406,1.143c0.572,0.728,0.772,1.729,0.516,2.62
			c-0.203,0.736-0.703,1.384-1.365,1.766c-0.279,0.163-0.586,0.279-0.903,0.344c-0.168,0.034-0.339,0.054-0.51,0.058
			c0,0.004-199.261-0.002-199.31,0c-0.873,0.024-1.747-0.365-2.313-1.03c-0.516-0.596-0.779-1.403-0.708-2.189
			C411.763,385.626,413.094,384.429,414.653,384.467z"/>
	</g>
	<g id="POLYLINE_00000179641050925907206260000005378801715487146371_">
		
			<path fill="none" stroke="#3A54F5" stroke-width="2.5" stroke-linecap="round" stroke-linejoin="round" stroke-miterlimit="10" d="
			M544.486,358.896c-0.001-0.072,0.001-85.287-0.001-85.353c0-0.095,0.005-0.197,0.015-0.291c0.02-0.196,0.06-0.393,0.118-0.581
			c0.138-0.447,0.385-0.862,0.713-1.196c0.575-0.592,1.404-0.924,2.229-0.89c0.813,0.027,1.605,0.406,2.135,1.023
			c0.308,0.355,0.53,0.786,0.64,1.243c0.046,0.191,0.074,0.387,0.081,0.583c0.006,0.392,0.001,85.24,0,85.643
			c-0.009,0.22-0.042,0.442-0.1,0.655c-0.193,0.726-0.674,1.369-1.316,1.759c-0.608,0.374-1.354,0.517-2.057,0.392
			C545.505,361.637,544.45,360.355,544.486,358.896z"/>
	</g>
	<g id="POLYLINE_00000100379317560661295770000013159291683420797876_">
		
			<path fill="none" stroke="#3A54F5" stroke-width="2.5" stroke-linecap="round" stroke-linejoin="round" stroke-miterlimit="10" d="
			M550.417,352.491c3.043,1.388,4.714,4.751,3.983,8.014c-0.714,3.245-3.626,5.581-6.948,5.574
			c-3.323,0.007-6.235-2.329-6.948-5.574c-0.731-3.263,0.94-6.626,3.983-8.014"/>
	</g>
	<g id="POLYLINE_00000183245043898294934250000016791851470064381325_">
		
			<path fill="none" stroke="#3A54F5" stroke-width="2.5" stroke-linecap="round" stroke-linejoin="round" stroke-miterlimit="10" d="
			M544.486,280.019c-3.043-1.388-4.714-4.75-3.983-8.014c0.714-3.245,3.626-5.581,6.948-5.574c3.323-0.007,6.235,2.329,6.948,5.574
			c0.731,3.263-0.94,6.626-3.983,8.014"/>
	</g>
	<g id="POLYLINE_00000181797228917220818380000005556333350440986008_">
		
			<path fill="none" stroke="#3A54F5" stroke-width="2.5" stroke-linecap="round" stroke-linejoin="round" stroke-miterlimit="10" d="
			M607.414,384.467c1.388-3.043,4.75-4.714,8.014-3.983c3.245,0.714,5.581,3.626,5.574,6.948c0.007,3.323-2.329,6.235-5.574,6.948
			c-3.263,0.731-6.626-0.94-8.014-3.983"/>
	</g>
	<g id="POLYLINE_00000129894530167929688120000016886963079284126377_">
		
			<path fill="none" stroke="#3A54F5" stroke-width="2.5" stroke-linecap="round" stroke-linejoin="round" stroke-miterlimit="10" d="
			M421.057,390.398c-1.388,3.043-4.751,4.714-8.014,3.983c-3.245-0.714-5.581-3.626-5.574-6.948
			c-0.007-3.323,2.329-6.235,5.574-6.948c3.263-0.731,6.626,0.94,8.014,3.983"/>
	</g>
</g>
<g id="_x32_D_x24_AG-BUILDINGS">
</g>
<g id="_x32_D_x24_AG-OUTLINE">
</g>
</svg>
