<?xml version="1.0" encoding="utf-8"?>
<!-- Generator: Adobe Illustrator 28.2.0, SVG Export Plug-In . SVG Version: 6.00 Build 0)  -->
<!DOCTYPE svg PUBLIC "-//W3C//DTD SVG 1.1//EN" "http://www.w3.org/Graphics/SVG/1.1/DTD/svg11.dtd" [
	<!ENTITY ns_extend "http://ns.adobe.com/Extensibility/1.0/">
	<!ENTITY ns_ai "http://ns.adobe.com/AdobeIllustrator/10.0/">
	<!ENTITY ns_graphs "http://ns.adobe.com/Graphs/1.0/">
	<!ENTITY ns_vars "http://ns.adobe.com/Variables/1.0/">
	<!ENTITY ns_imrep "http://ns.adobe.com/ImageReplacement/1.0/">
	<!ENTITY ns_sfw "http://ns.adobe.com/SaveForWeb/1.0/">
	<!ENTITY ns_custom "http://ns.adobe.com/GenericCustomNamespace/1.0/">
	<!ENTITY ns_adobe_xpath "http://ns.adobe.com/XPath/1.0/">
]>
<svg version="1.1" xmlns:x="&ns_extend;" xmlns:i="&ns_ai;" xmlns:graph="&ns_graphs;"
	 xmlns="http://www.w3.org/2000/svg" xmlns:xlink="http://www.w3.org/1999/xlink" x="0px" y="0px" width="1000px" height="725px"
	 viewBox="0 0 1000 725" enable-background="new 0 0 1000 725" xml:space="preserve">
<metadata>
	<sfw  xmlns="&ns_sfw;">
		<slices></slices>
		<sliceSourceBounds  bottomLeftOrigin="true" height="3838.926" width="13163.316" x="-5041.316" y="3042"></sliceSourceBounds>
	</sfw>
</metadata>
<g id="FILL-BACKGROUND">
</g>
<g id="N-DIMENSIONS">
</g>
<g id="N-TEXT">
</g>
<g id="_x32_D_x24_AG-GUIDES">
</g>
<g id="_x32_D_x24_AG-DIAGRAM">
	<g id="POLYLINE_00000054244384941302305230000002128001681374189184_">
		<g>
			<g>
				<polyline fill="none" stroke="#3A54F5" stroke-width="1.5" stroke-linecap="round" stroke-linejoin="round" points="
					366.811,392.78 366.811,393.78 365.811,393.78 				"/>
				
					<line fill="none" stroke="#3A54F5" stroke-width="1.5" stroke-linecap="round" stroke-linejoin="round" stroke-dasharray="1.9977,2.9965" x1="362.814" y1="393.78" x2="234.462" y2="393.78"/>
				<polyline fill="none" stroke="#3A54F5" stroke-width="1.5" stroke-linecap="round" stroke-linejoin="round" points="
					232.964,393.78 231.964,393.78 231.964,392.78 				"/>
				
					<line fill="none" stroke="#3A54F5" stroke-width="1.5" stroke-linecap="round" stroke-linejoin="round" stroke-dasharray="2.0769,3.1154" x1="231.964" y1="389.665" x2="231.964" y2="328.914"/>
				<polyline fill="none" stroke="#3A54F5" stroke-width="1.5" stroke-linecap="round" stroke-linejoin="round" points="
					231.964,327.356 231.964,326.356 232.964,326.356 				"/>
				
					<line fill="none" stroke="#3A54F5" stroke-width="1.5" stroke-linecap="round" stroke-linejoin="round" stroke-dasharray="1.9977,2.9965" x1="235.96" y1="326.356" x2="364.312" y2="326.356"/>
				<polyline fill="none" stroke="#3A54F5" stroke-width="1.5" stroke-linecap="round" stroke-linejoin="round" points="
					365.811,326.356 366.811,326.356 366.811,327.356 				"/>
				
					<line fill="none" stroke="#3A54F5" stroke-width="1.5" stroke-linecap="round" stroke-linejoin="round" stroke-dasharray="2.0769,3.1154" x1="366.811" y1="330.472" x2="366.811" y2="391.222"/>
			</g>
		</g>
	</g>
	<g id="POLYLINE_00000133496652250576710580000014152913381326338733_">
		<g>
			<g>
				<polyline fill="none" stroke="#3A54F5" stroke-width="1.5" stroke-linecap="round" stroke-linejoin="round" points="
					187.723,517.929 187.723,518.929 186.723,518.929 				"/>
				
					<line fill="none" stroke="#3A54F5" stroke-width="1.5" stroke-linecap="round" stroke-linejoin="round" stroke-dasharray="2.0231,3.0346" x1="183.688" y1="518.929" x2="68.879" y2="518.929"/>
				<polyline fill="none" stroke="#3A54F5" stroke-width="1.5" stroke-linecap="round" stroke-linejoin="round" points="
					67.361,518.929 66.361,518.929 66.361,517.929 				"/>
				
					<line fill="none" stroke="#3A54F5" stroke-width="1.5" stroke-linecap="round" stroke-linejoin="round" stroke-dasharray="2.0233,3.0349" x1="66.361" y1="514.894" x2="66.361" y2="440.538"/>
				<polyline fill="none" stroke="#3A54F5" stroke-width="1.5" stroke-linecap="round" stroke-linejoin="round" points="
					66.361,439.021 66.361,438.021 67.361,438.021 				"/>
				
					<line fill="none" stroke="#3A54F5" stroke-width="1.5" stroke-linecap="round" stroke-linejoin="round" stroke-dasharray="2.0231,3.0346" x1="70.396" y1="438.021" x2="185.206" y2="438.021"/>
				<polyline fill="none" stroke="#3A54F5" stroke-width="1.5" stroke-linecap="round" stroke-linejoin="round" points="
					186.723,438.021 187.723,438.021 187.723,439.021 				"/>
				
					<line fill="none" stroke="#3A54F5" stroke-width="1.5" stroke-linecap="round" stroke-linejoin="round" stroke-dasharray="2.0233,3.0349" x1="187.723" y1="442.056" x2="187.723" y2="516.411"/>
			</g>
		</g>
	</g>
	<g id="POLYLINE_00000129175685042642454030000000728763926223066547_">
		<g>
			<g>
				<polyline fill="none" stroke="#3A54F5" stroke-width="1.5" stroke-linecap="round" stroke-linejoin="round" points="
					366.811,656.562 366.811,657.562 365.811,657.562 				"/>
				
					<line fill="none" stroke="#3A54F5" stroke-width="1.5" stroke-linecap="round" stroke-linejoin="round" stroke-dasharray="1.9977,2.9965" x1="362.814" y1="657.562" x2="234.462" y2="657.562"/>
				<polyline fill="none" stroke="#3A54F5" stroke-width="1.5" stroke-linecap="round" stroke-linejoin="round" points="
					232.964,657.562 231.964,657.562 231.964,656.562 				"/>
				
					<line fill="none" stroke="#3A54F5" stroke-width="1.5" stroke-linecap="round" stroke-linejoin="round" stroke-dasharray="1.9869,2.9804" x1="231.964" y1="653.582" x2="231.964" y2="565.66"/>
				<polyline fill="none" stroke="#3A54F5" stroke-width="1.5" stroke-linecap="round" stroke-linejoin="round" points="
					231.964,564.169 231.964,563.169 232.964,563.169 				"/>
				
					<line fill="none" stroke="#3A54F5" stroke-width="1.5" stroke-linecap="round" stroke-linejoin="round" stroke-dasharray="1.9977,2.9965" x1="235.96" y1="563.169" x2="364.312" y2="563.169"/>
				<polyline fill="none" stroke="#3A54F5" stroke-width="1.5" stroke-linecap="round" stroke-linejoin="round" points="
					365.811,563.169 366.811,563.169 366.811,564.169 				"/>
				
					<line fill="none" stroke="#3A54F5" stroke-width="1.5" stroke-linecap="round" stroke-linejoin="round" stroke-dasharray="1.9869,2.9804" x1="366.811" y1="567.15" x2="366.811" y2="655.072"/>
			</g>
		</g>
	</g>
	<g id="POLYLINE_00000093882766251617487100000008926770077252684470_">
		<g>
			<g>
				<polyline fill="none" stroke="#3A54F5" stroke-width="1.5" stroke-linecap="round" stroke-linejoin="round" points="
					187.723,656.562 187.723,657.562 186.723,657.562 				"/>
				
					<line fill="none" stroke="#3A54F5" stroke-width="1.5" stroke-linecap="round" stroke-linejoin="round" stroke-dasharray="2.0231,3.0346" x1="183.688" y1="657.562" x2="68.879" y2="657.562"/>
				<polyline fill="none" stroke="#3A54F5" stroke-width="1.5" stroke-linecap="round" stroke-linejoin="round" points="
					67.361,657.562 66.361,657.562 66.361,656.562 				"/>
				
					<line fill="none" stroke="#3A54F5" stroke-width="1.5" stroke-linecap="round" stroke-linejoin="round" stroke-dasharray="1.9869,2.9804" x1="66.361" y1="653.582" x2="66.361" y2="565.66"/>
				<polyline fill="none" stroke="#3A54F5" stroke-width="1.5" stroke-linecap="round" stroke-linejoin="round" points="
					66.361,564.169 66.361,563.169 67.361,563.169 				"/>
				
					<line fill="none" stroke="#3A54F5" stroke-width="1.5" stroke-linecap="round" stroke-linejoin="round" stroke-dasharray="2.0231,3.0346" x1="70.396" y1="563.169" x2="185.206" y2="563.169"/>
				<polyline fill="none" stroke="#3A54F5" stroke-width="1.5" stroke-linecap="round" stroke-linejoin="round" points="
					186.723,563.169 187.723,563.169 187.723,564.169 				"/>
				
					<line fill="none" stroke="#3A54F5" stroke-width="1.5" stroke-linecap="round" stroke-linejoin="round" stroke-dasharray="1.9869,2.9804" x1="187.723" y1="567.15" x2="187.723" y2="655.072"/>
			</g>
		</g>
	</g>
	<g id="POLYLINE_00000030444759533878625530000014529456432589348540_">
		<g>
			<g>
				<polyline fill="none" stroke="#3A54F5" stroke-width="1.5" stroke-linecap="round" stroke-linejoin="round" points="
					187.723,392.78 187.723,393.78 186.723,393.78 				"/>
				
					<line fill="none" stroke="#3A54F5" stroke-width="1.5" stroke-linecap="round" stroke-linejoin="round" stroke-dasharray="2.0231,3.0346" x1="183.688" y1="393.78" x2="68.879" y2="393.78"/>
				<polyline fill="none" stroke="#3A54F5" stroke-width="1.5" stroke-linecap="round" stroke-linejoin="round" points="
					67.361,393.78 66.361,393.78 66.361,392.78 				"/>
				
					<line fill="none" stroke="#3A54F5" stroke-width="1.5" stroke-linecap="round" stroke-linejoin="round" stroke-dasharray="2.0769,3.1154" x1="66.361" y1="389.665" x2="66.361" y2="328.914"/>
				<polyline fill="none" stroke="#3A54F5" stroke-width="1.5" stroke-linecap="round" stroke-linejoin="round" points="
					66.361,327.356 66.361,326.356 67.361,326.356 				"/>
				
					<line fill="none" stroke="#3A54F5" stroke-width="1.5" stroke-linecap="round" stroke-linejoin="round" stroke-dasharray="2.0231,3.0346" x1="70.396" y1="326.356" x2="185.206" y2="326.356"/>
				<polyline fill="none" stroke="#3A54F5" stroke-width="1.5" stroke-linecap="round" stroke-linejoin="round" points="
					186.723,326.356 187.723,326.356 187.723,327.356 				"/>
				
					<line fill="none" stroke="#3A54F5" stroke-width="1.5" stroke-linecap="round" stroke-linejoin="round" stroke-dasharray="2.0769,3.1154" x1="187.723" y1="330.472" x2="187.723" y2="391.222"/>
			</g>
		</g>
	</g>
	<g id="POLYLINE_00000070836090215838753160000000296657102306098587_">
		<g>
			<g>
				<polyline fill="none" stroke="#3A54F5" stroke-width="1.5" stroke-linecap="round" stroke-linejoin="round" points="
					366.811,517.929 366.811,518.929 365.811,518.929 				"/>
				
					<line fill="none" stroke="#3A54F5" stroke-width="1.5" stroke-linecap="round" stroke-linejoin="round" stroke-dasharray="1.9977,2.9965" x1="362.814" y1="518.929" x2="234.462" y2="518.929"/>
				<polyline fill="none" stroke="#3A54F5" stroke-width="1.5" stroke-linecap="round" stroke-linejoin="round" points="
					232.964,518.929 231.964,518.929 231.964,517.929 				"/>
				
					<line fill="none" stroke="#3A54F5" stroke-width="1.5" stroke-linecap="round" stroke-linejoin="round" stroke-dasharray="2.0233,3.0349" x1="231.964" y1="514.894" x2="231.964" y2="440.538"/>
				<polyline fill="none" stroke="#3A54F5" stroke-width="1.5" stroke-linecap="round" stroke-linejoin="round" points="
					231.964,439.021 231.964,438.021 232.964,438.021 				"/>
				
					<line fill="none" stroke="#3A54F5" stroke-width="1.5" stroke-linecap="round" stroke-linejoin="round" stroke-dasharray="1.9977,2.9965" x1="235.96" y1="438.021" x2="364.312" y2="438.021"/>
				<polyline fill="none" stroke="#3A54F5" stroke-width="1.5" stroke-linecap="round" stroke-linejoin="round" points="
					365.811,438.021 366.811,438.021 366.811,439.021 				"/>
				
					<line fill="none" stroke="#3A54F5" stroke-width="1.5" stroke-linecap="round" stroke-linejoin="round" stroke-dasharray="2.0233,3.0349" x1="366.811" y1="442.056" x2="366.811" y2="516.411"/>
			</g>
		</g>
	</g>
	<g id="POLYLINE_00000085233861055330902340000011394554168189228169_">
		<g>
			<g>
				<polyline fill="none" stroke="#3A54F5" stroke-width="1.5" stroke-linecap="round" stroke-linejoin="round" points="
					559.382,392.78 559.382,393.78 558.382,393.78 				"/>
				
					<line fill="none" stroke="#3A54F5" stroke-width="1.5" stroke-linecap="round" stroke-linejoin="round" stroke-dasharray="1.9774,2.9662" x1="555.417" y1="393.78" x2="413.535" y2="393.78"/>
				<polyline fill="none" stroke="#3A54F5" stroke-width="1.5" stroke-linecap="round" stroke-linejoin="round" points="
					412.051,393.78 411.051,393.78 411.051,392.78 				"/>
				
					<line fill="none" stroke="#3A54F5" stroke-width="1.5" stroke-linecap="round" stroke-linejoin="round" stroke-dasharray="2.0769,3.1154" x1="411.051" y1="389.665" x2="411.051" y2="328.914"/>
				<polyline fill="none" stroke="#3A54F5" stroke-width="1.5" stroke-linecap="round" stroke-linejoin="round" points="
					411.051,327.356 411.051,326.356 412.051,326.356 				"/>
				
					<line fill="none" stroke="#3A54F5" stroke-width="1.5" stroke-linecap="round" stroke-linejoin="round" stroke-dasharray="1.9774,2.9662" x1="415.018" y1="326.356" x2="556.899" y2="326.356"/>
				<polyline fill="none" stroke="#3A54F5" stroke-width="1.5" stroke-linecap="round" stroke-linejoin="round" points="
					558.382,326.356 559.382,326.356 559.382,327.356 				"/>
				
					<line fill="none" stroke="#3A54F5" stroke-width="1.5" stroke-linecap="round" stroke-linejoin="round" stroke-dasharray="2.0769,3.1154" x1="559.382" y1="330.472" x2="559.382" y2="391.222"/>
			</g>
		</g>
	</g>
	<g id="POLYLINE_00000160180664784889647540000018176092936691756160_">
		<g>
			<g>
				<polyline fill="none" stroke="#3A54F5" stroke-width="1.5" stroke-linecap="round" stroke-linejoin="round" points="
					559.382,517.929 559.382,518.929 558.382,518.929 				"/>
				
					<line fill="none" stroke="#3A54F5" stroke-width="1.5" stroke-linecap="round" stroke-linejoin="round" stroke-dasharray="1.9774,2.9662" x1="555.417" y1="518.929" x2="413.535" y2="518.929"/>
				<polyline fill="none" stroke="#3A54F5" stroke-width="1.5" stroke-linecap="round" stroke-linejoin="round" points="
					412.051,518.929 411.051,518.929 411.051,517.929 				"/>
				
					<line fill="none" stroke="#3A54F5" stroke-width="1.5" stroke-linecap="round" stroke-linejoin="round" stroke-dasharray="2.0233,3.0349" x1="411.051" y1="514.894" x2="411.051" y2="440.538"/>
				<polyline fill="none" stroke="#3A54F5" stroke-width="1.5" stroke-linecap="round" stroke-linejoin="round" points="
					411.051,439.021 411.051,438.021 412.051,438.021 				"/>
				
					<line fill="none" stroke="#3A54F5" stroke-width="1.5" stroke-linecap="round" stroke-linejoin="round" stroke-dasharray="1.9774,2.9662" x1="415.018" y1="438.021" x2="556.899" y2="438.021"/>
				<polyline fill="none" stroke="#3A54F5" stroke-width="1.5" stroke-linecap="round" stroke-linejoin="round" points="
					558.382,438.021 559.382,438.021 559.382,439.021 				"/>
				
					<line fill="none" stroke="#3A54F5" stroke-width="1.5" stroke-linecap="round" stroke-linejoin="round" stroke-dasharray="2.0233,3.0349" x1="559.382" y1="442.056" x2="559.382" y2="516.411"/>
			</g>
		</g>
	</g>
	<g id="POLYLINE_00000036214807220769451630000013093223210154285491_">
		<g>
			<g>
				<polyline fill="none" stroke="#3A54F5" stroke-width="1.5" stroke-linecap="round" stroke-linejoin="round" points="
					559.382,656.562 559.382,657.562 558.382,657.562 				"/>
				
					<line fill="none" stroke="#3A54F5" stroke-width="1.5" stroke-linecap="round" stroke-linejoin="round" stroke-dasharray="1.9774,2.9662" x1="555.417" y1="657.562" x2="413.535" y2="657.562"/>
				<polyline fill="none" stroke="#3A54F5" stroke-width="1.5" stroke-linecap="round" stroke-linejoin="round" points="
					412.051,657.562 411.051,657.562 411.051,656.562 				"/>
				
					<line fill="none" stroke="#3A54F5" stroke-width="1.5" stroke-linecap="round" stroke-linejoin="round" stroke-dasharray="1.9869,2.9804" x1="411.051" y1="653.582" x2="411.051" y2="565.66"/>
				<polyline fill="none" stroke="#3A54F5" stroke-width="1.5" stroke-linecap="round" stroke-linejoin="round" points="
					411.051,564.169 411.051,563.169 412.051,563.169 				"/>
				
					<line fill="none" stroke="#3A54F5" stroke-width="1.5" stroke-linecap="round" stroke-linejoin="round" stroke-dasharray="1.9774,2.9662" x1="415.018" y1="563.169" x2="556.899" y2="563.169"/>
				<polyline fill="none" stroke="#3A54F5" stroke-width="1.5" stroke-linecap="round" stroke-linejoin="round" points="
					558.382,563.169 559.382,563.169 559.382,564.169 				"/>
				
					<line fill="none" stroke="#3A54F5" stroke-width="1.5" stroke-linecap="round" stroke-linejoin="round" stroke-dasharray="1.9869,2.9804" x1="559.382" y1="567.15" x2="559.382" y2="655.072"/>
			</g>
		</g>
	</g>
	<g id="POLYLINE_00000157293827392206933610000010396693766328119482_">
		<g>
			<g>
				<polyline fill="none" stroke="#3A54F5" stroke-width="1.5" stroke-linecap="round" stroke-linejoin="round" points="
					187.723,67.361 187.723,66.361 186.723,66.361 				"/>
				
					<line fill="none" stroke="#3A54F5" stroke-width="1.5" stroke-linecap="round" stroke-linejoin="round" stroke-dasharray="2.0231,3.0346" x1="183.688" y1="66.361" x2="68.879" y2="66.361"/>
				<polyline fill="none" stroke="#3A54F5" stroke-width="1.5" stroke-linecap="round" stroke-linejoin="round" points="
					67.361,66.361 66.361,66.361 66.361,67.361 				"/>
				
					<line fill="none" stroke="#3A54F5" stroke-width="1.5" stroke-linecap="round" stroke-linejoin="round" stroke-dasharray="2.0071,3.0106" x1="66.361" y1="70.372" x2="66.361" y2="279.61"/>
				<polyline fill="none" stroke="#3A54F5" stroke-width="1.5" stroke-linecap="round" stroke-linejoin="round" points="
					66.361,281.116 66.361,282.116 67.361,282.116 				"/>
				
					<line fill="none" stroke="#3A54F5" stroke-width="1.5" stroke-linecap="round" stroke-linejoin="round" stroke-dasharray="2.0231,3.0346" x1="70.396" y1="282.116" x2="185.206" y2="282.116"/>
				<polyline fill="none" stroke="#3A54F5" stroke-width="1.5" stroke-linecap="round" stroke-linejoin="round" points="
					186.723,282.116 187.723,282.116 187.723,281.116 				"/>
				
					<line fill="none" stroke="#3A54F5" stroke-width="1.5" stroke-linecap="round" stroke-linejoin="round" stroke-dasharray="2.0071,3.0106" x1="187.723" y1="278.105" x2="187.723" y2="68.867"/>
			</g>
		</g>
	</g>
	<g id="POLYLINE_00000137091664205121476310000011884602225033548719_">
		<g>
			<g>
				<polyline fill="none" stroke="#3A54F5" stroke-width="1.5" stroke-linecap="round" stroke-linejoin="round" points="
					559.382,67.361 559.382,66.361 558.382,66.361 				"/>
				
					<line fill="none" stroke="#3A54F5" stroke-width="1.5" stroke-linecap="round" stroke-linejoin="round" stroke-dasharray="1.9774,2.9662" x1="555.417" y1="66.361" x2="413.535" y2="66.361"/>
				<polyline fill="none" stroke="#3A54F5" stroke-width="1.5" stroke-linecap="round" stroke-linejoin="round" points="
					412.051,66.361 411.051,66.361 411.051,67.361 				"/>
				
					<line fill="none" stroke="#3A54F5" stroke-width="1.5" stroke-linecap="round" stroke-linejoin="round" stroke-dasharray="2.0071,3.0106" x1="411.051" y1="70.372" x2="411.051" y2="279.61"/>
				<polyline fill="none" stroke="#3A54F5" stroke-width="1.5" stroke-linecap="round" stroke-linejoin="round" points="
					411.051,281.116 411.051,282.116 412.051,282.116 				"/>
				
					<line fill="none" stroke="#3A54F5" stroke-width="1.5" stroke-linecap="round" stroke-linejoin="round" stroke-dasharray="1.9774,2.9662" x1="415.018" y1="282.116" x2="556.899" y2="282.116"/>
				<polyline fill="none" stroke="#3A54F5" stroke-width="1.5" stroke-linecap="round" stroke-linejoin="round" points="
					558.382,282.116 559.382,282.116 559.382,281.116 				"/>
				
					<line fill="none" stroke="#3A54F5" stroke-width="1.5" stroke-linecap="round" stroke-linejoin="round" stroke-dasharray="2.0071,3.0106" x1="559.382" y1="278.105" x2="559.382" y2="68.867"/>
			</g>
		</g>
	</g>
	<g id="POLYLINE_00000044866765139061006200000000026630839542404277_">
		<g>
			<g>
				<polyline fill="none" stroke="#3A54F5" stroke-width="1.5" stroke-linecap="round" stroke-linejoin="round" points="
					366.811,67.361 366.811,66.361 365.811,66.361 				"/>
				
					<line fill="none" stroke="#3A54F5" stroke-width="1.5" stroke-linecap="round" stroke-linejoin="round" stroke-dasharray="1.9977,2.9965" x1="362.814" y1="66.361" x2="234.462" y2="66.361"/>
				<polyline fill="none" stroke="#3A54F5" stroke-width="1.5" stroke-linecap="round" stroke-linejoin="round" points="
					232.964,66.361 231.964,66.361 231.964,67.361 				"/>
				
					<line fill="none" stroke="#3A54F5" stroke-width="1.5" stroke-linecap="round" stroke-linejoin="round" stroke-dasharray="2.0071,3.0106" x1="231.964" y1="70.372" x2="231.964" y2="279.61"/>
				<polyline fill="none" stroke="#3A54F5" stroke-width="1.5" stroke-linecap="round" stroke-linejoin="round" points="
					231.964,281.116 231.964,282.116 232.964,282.116 				"/>
				
					<line fill="none" stroke="#3A54F5" stroke-width="1.5" stroke-linecap="round" stroke-linejoin="round" stroke-dasharray="1.9977,2.9965" x1="235.96" y1="282.116" x2="364.312" y2="282.116"/>
				<polyline fill="none" stroke="#3A54F5" stroke-width="1.5" stroke-linecap="round" stroke-linejoin="round" points="
					365.811,282.116 366.811,282.116 366.811,281.116 				"/>
				
					<line fill="none" stroke="#3A54F5" stroke-width="1.5" stroke-linecap="round" stroke-linejoin="round" stroke-dasharray="2.0071,3.0106" x1="366.811" y1="278.105" x2="366.811" y2="68.867"/>
			</g>
		</g>
	</g>
	<g id="POLYLINE_00000032630094924530516850000001569822037059609518_">
		<g>
			<g>
				<polyline fill="none" stroke="#3A54F5" stroke-width="1.5" stroke-linecap="round" stroke-linejoin="round" points="
					840.246,282.116 839.246,282.116 839.246,281.116 				"/>
				
					<line fill="none" stroke="#3A54F5" stroke-width="1.5" stroke-linecap="round" stroke-linejoin="round" stroke-dasharray="2.0071,3.0106" x1="839.246" y1="278.105" x2="839.246" y2="68.867"/>
				<polyline fill="none" stroke="#3A54F5" stroke-width="1.5" stroke-linecap="round" stroke-linejoin="round" points="
					839.246,67.361 839.246,66.361 840.246,66.361 				"/>
				
					<line fill="none" stroke="#3A54F5" stroke-width="1.5" stroke-linecap="round" stroke-linejoin="round" stroke-dasharray="1.9869,2.9804" x1="843.227" y1="66.361" x2="931.148" y2="66.361"/>
				<polyline fill="none" stroke="#3A54F5" stroke-width="1.5" stroke-linecap="round" stroke-linejoin="round" points="
					932.639,66.361 933.639,66.361 933.639,67.361 				"/>
				
					<line fill="none" stroke="#3A54F5" stroke-width="1.5" stroke-linecap="round" stroke-linejoin="round" stroke-dasharray="2.0071,3.0106" x1="933.639" y1="70.372" x2="933.639" y2="279.61"/>
				<polyline fill="none" stroke="#3A54F5" stroke-width="1.5" stroke-linecap="round" stroke-linejoin="round" points="
					933.639,281.116 933.639,282.116 932.639,282.116 				"/>
				
					<line fill="none" stroke="#3A54F5" stroke-width="1.5" stroke-linecap="round" stroke-linejoin="round" stroke-dasharray="1.9869,2.9804" x1="929.658" y1="282.116" x2="841.736" y2="282.116"/>
			</g>
		</g>
	</g>
	<g id="POLYLINE_00000069361502767224789700000007728293250186817673_">
		<g>
			<g>
				<polyline fill="none" stroke="#3A54F5" stroke-width="1.5" stroke-linecap="round" stroke-linejoin="round" points="
					715.097,282.116 714.097,282.116 714.097,281.116 				"/>
				
					<line fill="none" stroke="#3A54F5" stroke-width="1.5" stroke-linecap="round" stroke-linejoin="round" stroke-dasharray="2.0071,3.0106" x1="714.097" y1="278.105" x2="714.097" y2="68.867"/>
				<polyline fill="none" stroke="#3A54F5" stroke-width="1.5" stroke-linecap="round" stroke-linejoin="round" points="
					714.097,67.361 714.097,66.361 715.097,66.361 				"/>
				
					<line fill="none" stroke="#3A54F5" stroke-width="1.5" stroke-linecap="round" stroke-linejoin="round" stroke-dasharray="2.0233,3.0349" x1="718.132" y1="66.361" x2="792.488" y2="66.361"/>
				<polyline fill="none" stroke="#3A54F5" stroke-width="1.5" stroke-linecap="round" stroke-linejoin="round" points="
					794.005,66.361 795.005,66.361 795.005,67.361 				"/>
				
					<line fill="none" stroke="#3A54F5" stroke-width="1.5" stroke-linecap="round" stroke-linejoin="round" stroke-dasharray="2.0071,3.0106" x1="795.005" y1="70.372" x2="795.005" y2="279.61"/>
				<polyline fill="none" stroke="#3A54F5" stroke-width="1.5" stroke-linecap="round" stroke-linejoin="round" points="
					795.005,281.116 795.005,282.116 794.005,282.116 				"/>
				
					<line fill="none" stroke="#3A54F5" stroke-width="1.5" stroke-linecap="round" stroke-linejoin="round" stroke-dasharray="2.0233,3.0349" x1="790.97" y1="282.116" x2="716.615" y2="282.116"/>
			</g>
		</g>
	</g>
	<g id="POLYLINE_00000153671339899008370880000005317807151709679806_">
		<g>
			<g>
				<polyline fill="none" stroke="#3A54F5" stroke-width="1.5" stroke-linecap="round" stroke-linejoin="round" points="
					604.624,282.116 603.624,282.116 603.624,281.116 				"/>
				
					<line fill="none" stroke="#3A54F5" stroke-width="1.5" stroke-linecap="round" stroke-linejoin="round" stroke-dasharray="2.0071,3.0106" x1="603.624" y1="278.105" x2="603.624" y2="68.867"/>
				<polyline fill="none" stroke="#3A54F5" stroke-width="1.5" stroke-linecap="round" stroke-linejoin="round" points="
					603.624,67.361 603.624,66.361 604.624,66.361 				"/>
				
					<line fill="none" stroke="#3A54F5" stroke-width="1.5" stroke-linecap="round" stroke-linejoin="round" stroke-dasharray="2.0769,3.1154" x1="607.739" y1="66.361" x2="668.489" y2="66.361"/>
				<polyline fill="none" stroke="#3A54F5" stroke-width="1.5" stroke-linecap="round" stroke-linejoin="round" points="
					670.046,66.361 671.046,66.361 671.046,67.361 				"/>
				
					<line fill="none" stroke="#3A54F5" stroke-width="1.5" stroke-linecap="round" stroke-linejoin="round" stroke-dasharray="2.0071,3.0106" x1="671.046" y1="70.372" x2="671.046" y2="279.61"/>
				<polyline fill="none" stroke="#3A54F5" stroke-width="1.5" stroke-linecap="round" stroke-linejoin="round" points="
					671.046,281.116 671.046,282.116 670.046,282.116 				"/>
				
					<line fill="none" stroke="#3A54F5" stroke-width="1.5" stroke-linecap="round" stroke-linejoin="round" stroke-dasharray="2.0769,3.1154" x1="666.931" y1="282.116" x2="606.181" y2="282.116"/>
			</g>
		</g>
	</g>
</g>
<g id="_x32_D_x24_AG-DETAILS-DIAGRAM">
</g>
<g id="_x32_D_x24_AG-DETAILS">
</g>
<g id="_x32_D_x24_AG-FIXTURES">
	<g id="POLYLINE_00000135688249922515666960000001387034401311106494_">
		
			<path fill="none" stroke="#3A54F5" stroke-width="2.25" stroke-linecap="round" stroke-linejoin="round" stroke-miterlimit="10" d="
			M82.507,378.588c0.316-0.17,0.576-0.447,0.7-0.786c0.041-0.108,0.07-0.222,0.088-0.336c0.133-1.196,0.33-3.468,0.423-4.668
			c0.308-4.126,0.463-8.595,0.419-12.731c0.043-4.135-0.11-8.606-0.419-12.731c-0.11-1.238-0.276-3.535-0.442-4.768
			c-0.035-0.164-0.095-0.325-0.181-0.469c-0.139-0.235-0.349-0.422-0.588-0.552c-1.971-1.143-4.158-1.872-6.353-2.447
			c-0.879-0.226-1.801-0.449-2.699-0.586c-0.378-0.054-0.767-0.095-1.148-0.059c-0.463,0.04-0.908,0.21-1.297,0.462
			c-0.293,0.191-0.562,0.429-0.762,0.718c-0.288,0.415-0.385,0.926-0.467,1.415c-0.393,2.753-0.597,6.002-0.794,8.785
			c-0.195,3.237-0.375,6.996-0.379,10.232c0.004,3.233,0.183,6.998,0.379,10.232c0.191,2.72,0.4,5.919,0.767,8.614
			c0.096,0.637,0.213,1.321,0.669,1.809c0.379,0.417,0.882,0.724,1.424,0.876c0.355,0.098,0.729,0.11,1.094,0.082
			c1.453-0.151,2.94-0.566,4.345-0.959C79.094,380.203,80.877,379.53,82.507,378.588z"/>
	</g>
	<g id="POLYLINE_00000115477462240459955960000004857952666648127391_">
		
			<path fill="none" stroke="#3A54F5" stroke-width="2.25" stroke-linecap="round" stroke-linejoin="round" stroke-miterlimit="10" d="
			M68.245,221.352v-2.509c0.001-0.019,0.001-0.042,0.003-0.061c0.006-0.073,0.024-0.146,0.053-0.214
			c0.099-0.24,0.338-0.413,0.598-0.43c4.678,0.019,10.176,0.015,14.791,0.584c0.165,0.033,0.317,0.127,0.42,0.26
			c0.073,0.094,0.122,0.207,0.14,0.324c0.005,0.032,0.008,0.066,0.009,0.098c0,0.011,0,1.937,0,1.949
			c0,0.147-0.047,0.293-0.132,0.412c-0.13,0.184-0.351,0.297-0.576,0.296c-0.07-0.007-14.586,0.007-14.646-0.002
			c-0.081-0.006-0.162-0.025-0.236-0.058C68.415,221.892,68.242,221.627,68.245,221.352z"/>
	</g>
	<g id="POLYLINE_00000043417345300424092550000006252804747966830470_">
		
			<path fill="none" stroke="#3A54F5" stroke-width="2.25" stroke-linecap="round" stroke-linejoin="round" stroke-miterlimit="10" d="
			M92.055,248.293c0.003-0.182-0.018-0.444,0.047-0.618c0.065-0.203,0.198-0.383,0.374-0.503c0.161-0.112,0.357-0.173,0.553-0.172
			c0.226,0.017,37.116-0.026,37.306,0.012c0.177,0.028,0.346,0.105,0.482,0.222c0.149,0.127,0.258,0.301,0.308,0.49
			c0.054,0.16,0.025,0.407,0.032,0.57c-0.001,0.038-0.002,0.079-0.007,0.117c-0.041,0.358-0.296,0.68-0.637,0.799
			c-0.1,0.036-0.206,0.055-0.313,0.057c-0.296-0.018-37.084,0.035-37.356-0.017c-0.137-0.026-0.27-0.083-0.383-0.165
			C92.21,248.906,92.053,248.602,92.055,248.293z"/>
	</g>
	<g id="POLYLINE_00000144323447487443371190000008242590177807976873_">
		
			<path fill="none" stroke="#3A54F5" stroke-width="2.25" stroke-linecap="round" stroke-linejoin="round" stroke-miterlimit="10" d="
			M130.785,246.63c-0.065,0.172-0.197,0.296-0.375,0.342c-0.064,0.017-0.132,0.025-0.199,0.027
			c-0.158-0.006-37.2,0.014-37.348-0.007c-0.098-0.011-0.197-0.038-0.279-0.095c-0.063-0.044-0.112-0.107-0.139-0.179
			c-0.047-0.122-0.042-0.257-0.022-0.385c0.021-0.132,0.061-0.262,0.106-0.387c0.013-0.031,0.027-0.075,0.041-0.106
			c0,0,0.691-1.654,0.691-1.654c0.052-0.125,0.123-0.244,0.218-0.341c0.173-0.183,0.425-0.267,0.673-0.27
			c11.614,0.08,24.097,0.419,35.639,1.508c0.197,0.031,0.392,0.094,0.554,0.213c0.193,0.138,0.352,0.329,0.432,0.554
			C130.864,246.1,130.85,246.376,130.785,246.63z"/>
	</g>
	<g id="POLYLINE_00000143577329356614649480000014597731003392203392_">
		
			<path fill="none" stroke="#3A54F5" stroke-width="2.25" stroke-linecap="round" stroke-linejoin="round" stroke-miterlimit="10" d="
			M68.563,221.943l0.489,24.619c0,0.076,0.003,0.162,0.009,0.238c0.017,0.237,0.059,0.477,0.156,0.696
			c0.092,0.213,0.248,0.402,0.455,0.511c0.12,0.065,0.254,0.104,0.389,0.123c0.06,0.009,0.122,0.014,0.182,0.015
			c0.047,0.005,11.861-0.002,11.915,0.001H70.3"/>
	</g>
	<g id="POLYLINE_00000114061424585559104650000002319049392687234732_">
		
			<path fill="none" stroke="#3A54F5" stroke-width="2.25" stroke-linecap="round" stroke-linejoin="round" stroke-miterlimit="10" d="
			M83.929,221.95c-0.013,5.996-0.2,18.497-0.333,24.554c-0.008,0.17-0.027,0.343-0.063,0.509c-0.042,0.191-0.106,0.38-0.208,0.548
			c-0.112,0.186-0.274,0.342-0.469,0.439c-0.215,0.108-0.458,0.146-0.697,0.146v1.12h11.397"/>
	</g>
	<g id="POLYLINE_00000083777615202045233810000006067489126295726238_">
		
			<path fill="none" stroke="#3A54F5" stroke-width="2.25" stroke-linecap="round" stroke-linejoin="round" stroke-miterlimit="10" d="
			M70.3,250.387v-2.24v4.751c0.092,0.255,0.211,0.515,0.419,0.697c0.437,2.157,0.652,4.377,0.638,6.578
			c-0.006,1.561-0.125,3.155-0.451,4.684c-0.202,0.722-0.298,1.477-0.339,2.224c-0.001,0.063,0.001,12.242,0,12.298
			c-0.002,0.123-0.01,0.254-0.025,0.376c-0.022,0.179-0.057,0.359-0.134,0.523c-0.071,0.148-0.157,0.302-0.203,0.46
			c-0.108,0.359-0.152,0.736-0.151,1.11c0.003,0.042,0.008,0.086,0.021,0.126c0.01,0.032,0.026,0.063,0.05,0.088
			c0.021,0.022,0.048,0.038,0.078,0.046c0.081,0.025,52.522-0.001,52.602,0.006c0.063-0.004,0.126-0.017,0.184-0.044
			c0.071-0.032,0.131-0.087,0.171-0.153c0.082-0.134,0.099-0.297,0.099-0.451c-0.005-0.461-2.259-15.129-2.253-15.337
			c-0.07-0.622-0.106-1.262-0.058-1.886c0.052-0.803,0.311-1.593,0.777-2.251c0.959-1.359,2.492-2.224,3.796-3.211
			c1.009-0.749,1.909-1.648,2.689-2.632c1.396-1.747,2.473-3.854,2.586-6.12c0.003-0.202-0.02-0.423-0.155-0.583
			c-0.111-0.133-0.29-0.18-0.457-0.179"/>
	</g>
	<g id="POLYLINE_00000101083162189485122030000006480139407831248009_">
		
			<path fill="none" stroke="#3A54F5" stroke-width="2.25" stroke-linecap="round" stroke-linejoin="round" stroke-miterlimit="10" d="
			M233.847,221.352v-2.509c0.001-0.019,0.001-0.042,0.003-0.061c0.006-0.073,0.024-0.146,0.053-0.214
			c0.099-0.24,0.338-0.413,0.598-0.43c4.678,0.019,10.176,0.015,14.791,0.584c0.165,0.033,0.317,0.127,0.42,0.26
			c0.073,0.094,0.122,0.207,0.14,0.324c0.005,0.032,0.008,0.066,0.009,0.098c0,0.011,0,1.937,0,1.949
			c0,0.147-0.047,0.293-0.132,0.412c-0.13,0.184-0.351,0.297-0.576,0.296c-0.07-0.007-14.586,0.007-14.646-0.002
			c-0.081-0.006-0.162-0.025-0.236-0.058C234.018,221.892,233.845,221.627,233.847,221.352z"/>
	</g>
	<g id="POLYLINE_00000022544519810315044750000008419888711981230005_">
		
			<path fill="none" stroke="#3A54F5" stroke-width="2.25" stroke-linecap="round" stroke-linejoin="round" stroke-miterlimit="10" d="
			M257.658,248.293c0.003-0.182-0.018-0.444,0.047-0.618c0.065-0.203,0.198-0.383,0.374-0.503c0.161-0.112,0.357-0.173,0.553-0.172
			c0.226,0.017,37.116-0.026,37.306,0.012c0.177,0.028,0.346,0.105,0.482,0.222c0.149,0.127,0.258,0.301,0.308,0.49
			c0.054,0.16,0.025,0.407,0.032,0.57c-0.001,0.038-0.002,0.079-0.007,0.117c-0.041,0.358-0.296,0.68-0.637,0.799
			c-0.1,0.036-0.206,0.055-0.313,0.057c-0.296-0.018-37.084,0.035-37.356-0.017c-0.137-0.026-0.27-0.083-0.383-0.165
			C257.812,248.906,257.656,248.602,257.658,248.293z"/>
	</g>
	<g id="POLYLINE_00000101799700393303789040000016521373198471177390_">
		
			<path fill="none" stroke="#3A54F5" stroke-width="2.25" stroke-linecap="round" stroke-linejoin="round" stroke-miterlimit="10" d="
			M296.388,246.63c-0.065,0.172-0.197,0.296-0.375,0.342c-0.064,0.017-0.132,0.025-0.199,0.027
			c-0.158-0.006-37.2,0.014-37.348-0.007c-0.098-0.011-0.197-0.038-0.279-0.095c-0.063-0.044-0.112-0.107-0.139-0.179
			c-0.047-0.122-0.042-0.257-0.022-0.385c0.021-0.132,0.061-0.262,0.106-0.387c0.013-0.031,0.027-0.075,0.041-0.106
			c0,0,0.691-1.654,0.691-1.654c0.052-0.125,0.123-0.244,0.218-0.341c0.173-0.183,0.425-0.267,0.673-0.27
			c11.614,0.08,24.097,0.419,35.639,1.508c0.197,0.031,0.392,0.094,0.554,0.213c0.193,0.138,0.352,0.329,0.432,0.554
			C296.467,246.1,296.453,246.376,296.388,246.63z"/>
	</g>
	<g id="POLYLINE_00000137850370169159667450000016236218409794218409_">
		
			<path fill="none" stroke="#3A54F5" stroke-width="2.25" stroke-linecap="round" stroke-linejoin="round" stroke-miterlimit="10" d="
			M234.166,221.943l0.489,24.619c0,0.076,0.003,0.162,0.009,0.238c0.017,0.237,0.059,0.477,0.156,0.696
			c0.092,0.213,0.248,0.402,0.455,0.511c0.12,0.065,0.254,0.104,0.389,0.123c0.06,0.009,0.122,0.014,0.182,0.015
			c0.047,0.005,11.861-0.002,11.915,0.001h-11.858"/>
	</g>
	<g id="POLYLINE_00000142864875589109181770000016922958913794466971_">
		
			<path fill="none" stroke="#3A54F5" stroke-width="2.25" stroke-linecap="round" stroke-linejoin="round" stroke-miterlimit="10" d="
			M249.531,221.95c-0.013,5.996-0.2,18.497-0.333,24.554c-0.008,0.17-0.027,0.343-0.063,0.509c-0.042,0.191-0.106,0.38-0.208,0.548
			c-0.112,0.186-0.274,0.342-0.469,0.439c-0.215,0.108-0.458,0.146-0.697,0.146v1.12h11.397"/>
	</g>
	<g id="POLYLINE_00000032631440114877521590000009822430816409847985_">
		
			<path fill="none" stroke="#3A54F5" stroke-width="2.25" stroke-linecap="round" stroke-linejoin="round" stroke-miterlimit="10" d="
			M235.903,250.387v-2.24v4.751c0.092,0.255,0.211,0.515,0.419,0.697c0.437,2.157,0.652,4.377,0.638,6.578
			c-0.006,1.561-0.125,3.155-0.451,4.684c-0.202,0.722-0.298,1.477-0.339,2.224c-0.001,0.063,0.001,12.242,0,12.298
			c-0.002,0.123-0.01,0.254-0.025,0.376c-0.022,0.179-0.057,0.359-0.134,0.523c-0.071,0.148-0.157,0.302-0.203,0.46
			c-0.108,0.359-0.152,0.736-0.151,1.11c0.003,0.042,0.008,0.086,0.021,0.126c0.01,0.032,0.026,0.063,0.05,0.088
			c0.021,0.022,0.048,0.038,0.078,0.046c0.081,0.025,52.522-0.001,52.602,0.006c0.063-0.004,0.126-0.017,0.184-0.044
			c0.071-0.032,0.131-0.087,0.171-0.153c0.082-0.134,0.099-0.297,0.099-0.451c-0.005-0.461-2.259-15.129-2.253-15.337
			c-0.07-0.622-0.106-1.262-0.058-1.886c0.052-0.803,0.311-1.593,0.777-2.251c0.959-1.359,2.492-2.224,3.796-3.211
			c1.009-0.749,1.909-1.648,2.689-2.632c1.396-1.747,2.473-3.854,2.586-6.12c0.003-0.202-0.021-0.423-0.155-0.583
			c-0.111-0.133-0.29-0.18-0.457-0.179"/>
	</g>
	<g id="POLYLINE_00000170957412841873493580000011392209756706220213_">
		
			<path fill="none" stroke="#3A54F5" stroke-width="2.25" stroke-linecap="round" stroke-linejoin="round" stroke-miterlimit="10" d="
			M412.935,221.352v-2.509c0.001-0.019,0.001-0.042,0.003-0.061c0.006-0.073,0.024-0.146,0.053-0.214
			c0.099-0.24,0.338-0.413,0.598-0.43c4.678,0.019,10.176,0.015,14.791,0.584c0.165,0.033,0.317,0.127,0.42,0.26
			c0.073,0.094,0.122,0.207,0.14,0.324c0.005,0.032,0.008,0.066,0.009,0.098c0,0.011,0,1.937,0,1.949
			c0,0.147-0.047,0.293-0.132,0.412c-0.13,0.184-0.351,0.297-0.576,0.296c-0.07-0.007-14.586,0.007-14.646-0.002
			c-0.081-0.006-0.162-0.025-0.236-0.058C413.105,221.892,412.932,221.627,412.935,221.352z"/>
	</g>
	<g id="POLYLINE_00000038410643514822751050000000299057213471993492_">
		
			<path fill="none" stroke="#3A54F5" stroke-width="2.25" stroke-linecap="round" stroke-linejoin="round" stroke-miterlimit="10" d="
			M436.745,248.293c0.003-0.182-0.018-0.444,0.047-0.618c0.065-0.203,0.198-0.383,0.374-0.503c0.161-0.112,0.357-0.173,0.553-0.172
			c0.226,0.017,37.116-0.026,37.306,0.012c0.177,0.028,0.346,0.105,0.482,0.222c0.149,0.127,0.258,0.301,0.308,0.49
			c0.054,0.16,0.025,0.407,0.032,0.57c-0.001,0.038-0.002,0.079-0.007,0.117c-0.041,0.358-0.296,0.68-0.637,0.799
			c-0.1,0.036-0.206,0.055-0.313,0.057c-0.296-0.018-37.084,0.035-37.356-0.017c-0.137-0.026-0.27-0.083-0.383-0.165
			C436.9,248.906,436.743,248.602,436.745,248.293z"/>
	</g>
	<g id="POLYLINE_00000182529473373982766580000001460298651147197845_">
		
			<path fill="none" stroke="#3A54F5" stroke-width="2.25" stroke-linecap="round" stroke-linejoin="round" stroke-miterlimit="10" d="
			M475.475,246.63c-0.065,0.172-0.197,0.296-0.375,0.342c-0.064,0.017-0.132,0.025-0.199,0.027
			c-0.158-0.006-37.2,0.014-37.348-0.007c-0.098-0.011-0.197-0.038-0.279-0.095c-0.063-0.044-0.112-0.107-0.139-0.179
			c-0.047-0.122-0.042-0.257-0.022-0.385c0.021-0.132,0.061-0.262,0.106-0.387c0.013-0.031,0.027-0.075,0.041-0.106
			c0,0,0.691-1.654,0.691-1.654c0.052-0.125,0.123-0.244,0.218-0.341c0.173-0.183,0.425-0.267,0.673-0.27
			c11.614,0.08,24.097,0.419,35.639,1.508c0.197,0.031,0.392,0.094,0.554,0.213c0.193,0.138,0.352,0.329,0.432,0.554
			C475.554,246.1,475.54,246.376,475.475,246.63z"/>
	</g>
	<g id="POLYLINE_00000029755096557171209890000015381739491223202725_">
		
			<path fill="none" stroke="#3A54F5" stroke-width="2.25" stroke-linecap="round" stroke-linejoin="round" stroke-miterlimit="10" d="
			M413.253,221.943l0.489,24.619c0,0.076,0.003,0.162,0.009,0.238c0.017,0.237,0.059,0.477,0.156,0.696
			c0.092,0.213,0.248,0.402,0.455,0.511c0.12,0.065,0.254,0.104,0.389,0.123c0.06,0.009,0.122,0.014,0.182,0.015
			c0.047,0.005,11.861-0.002,11.915,0.001H414.99"/>
	</g>
	<g id="POLYLINE_00000070118056243288425510000016801674535343589307_">
		
			<path fill="none" stroke="#3A54F5" stroke-width="2.25" stroke-linecap="round" stroke-linejoin="round" stroke-miterlimit="10" d="
			M428.619,221.95c-0.013,5.996-0.2,18.497-0.333,24.554c-0.008,0.17-0.027,0.343-0.063,0.509c-0.042,0.191-0.106,0.38-0.208,0.548
			c-0.112,0.186-0.274,0.342-0.469,0.439c-0.215,0.108-0.458,0.146-0.697,0.146v1.12h11.397"/>
	</g>
	<g id="POLYLINE_00000029753739790703195390000015540800685670740646_">
		
			<path fill="none" stroke="#3A54F5" stroke-width="2.25" stroke-linecap="round" stroke-linejoin="round" stroke-miterlimit="10" d="
			M414.99,250.387v-2.24v4.751c0.092,0.255,0.211,0.515,0.419,0.697c0.437,2.157,0.652,4.377,0.638,6.578
			c-0.006,1.561-0.125,3.155-0.451,4.684c-0.202,0.722-0.298,1.477-0.339,2.224c-0.001,0.063,0.001,12.242,0,12.298
			c-0.002,0.123-0.01,0.254-0.025,0.376c-0.022,0.179-0.057,0.359-0.134,0.523c-0.071,0.148-0.157,0.302-0.203,0.46
			c-0.108,0.359-0.152,0.736-0.151,1.11c0.003,0.042,0.008,0.086,0.021,0.126c0.01,0.032,0.026,0.063,0.05,0.088
			c0.021,0.022,0.048,0.038,0.078,0.046c0.081,0.025,52.522-0.001,52.602,0.006c0.063-0.004,0.126-0.017,0.184-0.044
			c0.071-0.032,0.131-0.087,0.171-0.153c0.082-0.134,0.099-0.297,0.099-0.451c-0.005-0.461-2.259-15.129-2.253-15.337
			c-0.07-0.622-0.106-1.262-0.058-1.886c0.052-0.803,0.311-1.593,0.777-2.251c0.959-1.359,2.492-2.224,3.796-3.211
			c1.009-0.749,1.909-1.648,2.689-2.632c1.396-1.747,2.473-3.854,2.586-6.12c0.003-0.202-0.021-0.423-0.155-0.583
			c-0.111-0.133-0.29-0.18-0.457-0.179"/>
	</g>
	<g id="POLYLINE_00000072259730176905210250000005228859988907397813_">
		
			<path fill="none" stroke="#3A54F5" stroke-width="2.25" stroke-linecap="round" stroke-linejoin="round" stroke-miterlimit="10" d="
			M647.244,263.941c-0.238,0.268-0.464,0.553-0.626,0.873c-0.182,0.354-0.291,0.743-0.342,1.137
			c-0.045,0.351-0.045,0.711-0.02,1.064c0.019,0.179,0.032,0.416,0.057,0.595c0,0,1.511,13.882,1.511,13.882
			c0.012,0.109-0.009,0.223-0.06,0.32c-0.089,0.174-0.274,0.293-0.469,0.302c-0.065,0.01-19.85-0.005-19.919,0
			c-0.038-0.002-0.078-0.008-0.115-0.018c-0.157-0.041-0.294-0.154-0.363-0.301c-0.042-0.088-0.061-0.187-0.053-0.284
			c-0.011-0.006,1.52-13.891,1.513-13.901c0,0,0.037-0.355,0.037-0.355c0.056-0.579,0.06-1.175-0.082-1.743
			c-0.098-0.399-0.272-0.779-0.512-1.112c-0.231-0.326-0.927-1.081-1.184-1.384c-0.756-0.872-1.516-1.818-2.157-2.777
			c-0.983-1.462-1.787-3.063-2.295-4.752c-0.432-1.431-0.653-2.932-0.652-4.427c0.014-0.429,0.032-0.877,0.207-1.276
			c0.091-0.202,0.245-0.369,0.456-0.444c0.13-0.049,0.269-0.067,0.407-0.073c0.04-0.007,29.338,0.001,29.401-0.002
			c0.172,0,0.348,0.014,0.511,0.075c0.105,0.039,0.203,0.101,0.281,0.182c0.091,0.093,0.156,0.209,0.204,0.329
			c0.147,0.383,0.166,0.803,0.179,1.209c0.013,2.739-0.765,5.456-2.116,7.832C650.025,260.725,648.636,262.381,647.244,263.941z"/>
	</g>
	<g id="POLYLINE_00000034083768098509188810000002002159431339885714_">
		
			<path fill="none" stroke="#3A54F5" stroke-width="2.25" stroke-linecap="round" stroke-linejoin="round" stroke-miterlimit="10" d="
			M621.512,245.705c-0.001-0.282,0.142-0.544,0.33-0.747c0.233-0.252,0.528-0.441,0.832-0.596c0.482-0.242,1.006-0.405,1.531-0.524
			c0.627-0.141,1.274-0.22,1.916-0.25c0.188-0.008,0.397-0.014,0.585-0.014c0.122,0.003,21.266-0.003,21.372,0.001
			c0.8,0.008,1.606,0.088,2.387,0.263c0.493,0.112,0.988,0.264,1.445,0.482c0.305,0.147,0.602,0.326,0.846,0.564
			c0.197,0.192,0.361,0.436,0.395,0.714c0.003,0.027,0.006,0.056,0.006,0.083c0,0,0,0.012,0,0.012s0,0.012,0,0.012v0.321
			c0,0.09-0.013,0.181-0.038,0.268c-0.054,0.19-0.168,0.363-0.322,0.488c-0.098,0.08-0.213,0.14-0.334,0.177
			c-0.066,0.02-0.134,0.033-0.203,0.038c0.005,0.016-29.753-0.005-29.775,0.003c-0.378,0.003-0.742-0.233-0.891-0.581
			C621.486,246.182,621.516,245.953,621.512,245.705z"/>
	</g>
	<g id="POLYLINE_00000066508600264018961300000016545409412344458659_">
		
			<path fill="none" stroke="#3A54F5" stroke-width="2.25" stroke-linecap="round" stroke-linejoin="round" stroke-miterlimit="10" d="
			M621.512,247.973c-0.003-0.366,0.217-0.719,0.548-0.876c0.102-0.05,0.213-0.081,0.326-0.093
			c0.037-0.019,29.737,0.003,29.797-0.005c0.147,0,0.293,0.034,0.425,0.098c0.268,0.128,0.468,0.385,0.527,0.676
			c0.013,0.062,0.02,0.126,0.021,0.189c0.001,0.111,0.006,0.368-0.011,0.475c-0.013,0.089-0.039,0.177-0.077,0.26
			c-0.093,0.205-0.258,0.375-0.461,0.473c-0.109,0.053-0.228,0.085-0.349,0.095c-0.016,0.015-29.746-0.004-29.786,0.003
			c-0.056-0.001-0.112-0.006-0.166-0.016c-0.324-0.058-0.609-0.292-0.728-0.599c-0.03-0.076-0.051-0.156-0.061-0.237
			c-0.003-0.029-0.006-0.059-0.007-0.088c-0.002-0.009,0-0.023-0.001-0.032C621.512,248.293,621.512,247.973,621.512,247.973z"/>
	</g>
	<g id="POLYLINE_00000069385362920105306610000011458284335012927400_">
		
			<line fill="none" stroke="#3A54F5" stroke-width="2.25" stroke-linecap="round" stroke-linejoin="round" stroke-miterlimit="10" x1="622.281" y1="247.021" x2="622.262" y2="246.973"/>
	</g>
	<g id="POLYLINE_00000042724004220210410200000009518123153163501440_">
		
			<line fill="none" stroke="#3A54F5" stroke-width="2.25" stroke-linecap="round" stroke-linejoin="round" stroke-miterlimit="10" x1="652.389" y1="247.021" x2="652.408" y2="246.973"/>
	</g>
	<g id="POLYLINE_00000025416797192394746900000009034085662904390803_">
		
			<path fill="none" stroke="#3A54F5" stroke-width="2.25" stroke-linecap="round" stroke-linejoin="round" stroke-miterlimit="10" d="
			M653.158,248.243c0.365-0.016,0.817,0,1.182-0.039c0.13-0.012,0.261-0.035,0.385-0.076c0.377-0.119,0.715-0.356,0.961-0.665
			c0.317-0.38,0.43-0.879,0.55-1.348c0.514-2.24,1.135-4.853,1.475-7.117c0.653-4.129,0.993-8.469,1.217-12.644
			c0.098-2.13,0.209-4.565,0.187-6.695c-0.009-0.142-0.038-0.284-0.088-0.418c-0.09-0.243-0.253-0.464-0.477-0.597
			c-0.149-0.09-0.319-0.138-0.49-0.164c-5.796-0.285-14.849-0.307-20.726-0.354c-5.896,0.048-14.903,0.068-20.726,0.354
			c-0.171,0.026-0.341,0.074-0.49,0.164c-0.229,0.137-0.394,0.364-0.483,0.613c-0.05,0.138-0.077,0.285-0.084,0.431
			c-0.017,2.118,0.086,4.546,0.189,6.666c0.226,4.176,0.564,8.514,1.217,12.644c0.347,2.294,0.95,4.852,1.475,7.117
			c0.121,0.468,0.232,0.968,0.55,1.348c0.252,0.316,0.599,0.556,0.986,0.673c0.096,0.03,0.197,0.051,0.298,0.062
			c0.387,0.048,0.852,0.033,1.245,0.046"/>
	</g>
	<g id="POLYLINE_00000060725747709402017050000004791493246320039844_">
		
			<path fill="none" stroke="#3A54F5" stroke-width="2.25" stroke-linecap="round" stroke-linejoin="round" stroke-miterlimit="10" d="
			M764.46,263.941c-0.238,0.268-0.464,0.553-0.626,0.873c-0.182,0.354-0.291,0.743-0.342,1.137c-0.045,0.351-0.045,0.711-0.02,1.064
			c0.019,0.179,0.032,0.416,0.057,0.595c0,0,1.511,13.882,1.511,13.882c0.012,0.109-0.009,0.223-0.06,0.32
			c-0.089,0.174-0.274,0.293-0.469,0.302c-0.065,0.01-19.85-0.005-19.919,0c-0.039-0.002-0.078-0.008-0.115-0.018
			c-0.157-0.041-0.294-0.154-0.363-0.301c-0.042-0.088-0.061-0.187-0.053-0.284c-0.011-0.006,1.52-13.891,1.513-13.901
			c0,0,0.037-0.355,0.037-0.355c0.056-0.579,0.06-1.175-0.082-1.743c-0.098-0.399-0.272-0.779-0.512-1.112
			c-0.231-0.326-0.927-1.081-1.184-1.384c-0.756-0.872-1.516-1.818-2.157-2.777c-0.983-1.462-1.787-3.063-2.295-4.752
			c-0.432-1.431-0.653-2.932-0.652-4.427c0.014-0.429,0.032-0.877,0.207-1.276c0.091-0.202,0.245-0.369,0.456-0.444
			c0.13-0.049,0.269-0.067,0.407-0.073c0.04-0.007,29.338,0.001,29.401-0.002c0.172,0,0.348,0.014,0.51,0.075
			c0.105,0.039,0.203,0.101,0.281,0.182c0.091,0.093,0.156,0.209,0.204,0.329c0.147,0.383,0.166,0.803,0.179,1.209
			c0.013,2.739-0.765,5.456-2.116,7.832C767.241,260.725,765.853,262.381,764.46,263.941z"/>
	</g>
	<g id="POLYLINE_00000023986888486740150920000011921742190196813744_">
		
			<path fill="none" stroke="#3A54F5" stroke-width="2.25" stroke-linecap="round" stroke-linejoin="round" stroke-miterlimit="10" d="
			M738.729,245.705c-0.001-0.282,0.142-0.544,0.33-0.747c0.233-0.252,0.528-0.441,0.832-0.596c0.482-0.242,1.006-0.405,1.531-0.524
			c0.627-0.141,1.274-0.22,1.916-0.25c0.188-0.008,0.397-0.014,0.585-0.014c0.122,0.003,21.266-0.003,21.372,0.001
			c0.8,0.008,1.606,0.088,2.387,0.263c0.493,0.112,0.988,0.264,1.445,0.482c0.305,0.147,0.602,0.326,0.846,0.564
			c0.197,0.192,0.361,0.436,0.395,0.714c0.003,0.027,0.006,0.056,0.006,0.083c0,0,0,0.012,0,0.012s0,0.012,0,0.012s0,0.321,0,0.321
			c0,0.09-0.013,0.181-0.038,0.268c-0.054,0.19-0.168,0.363-0.322,0.488c-0.098,0.08-0.213,0.14-0.334,0.177
			c-0.066,0.02-0.134,0.033-0.203,0.038c0.005,0.016-29.753-0.005-29.775,0.003c-0.378,0.003-0.742-0.233-0.891-0.581
			C738.702,246.182,738.732,245.953,738.729,245.705z"/>
	</g>
	<g id="POLYLINE_00000008142177768924760530000005349845364962233766_">
		
			<path fill="none" stroke="#3A54F5" stroke-width="2.25" stroke-linecap="round" stroke-linejoin="round" stroke-miterlimit="10" d="
			M738.729,247.973c-0.003-0.366,0.217-0.719,0.548-0.876c0.102-0.05,0.213-0.081,0.326-0.093
			c0.037-0.019,29.737,0.003,29.797-0.005c0.147,0,0.293,0.034,0.425,0.098c0.268,0.128,0.468,0.385,0.528,0.676
			c0.013,0.062,0.02,0.126,0.021,0.189c0.001,0.111,0.006,0.368-0.01,0.475c-0.013,0.089-0.039,0.177-0.077,0.26
			c-0.093,0.205-0.258,0.375-0.461,0.473c-0.109,0.053-0.228,0.085-0.349,0.095c-0.016,0.015-29.746-0.004-29.786,0.003
			c-0.056-0.001-0.112-0.006-0.167-0.016c-0.324-0.058-0.609-0.292-0.728-0.599c-0.03-0.076-0.051-0.156-0.061-0.237
			c-0.003-0.029-0.006-0.059-0.007-0.088c-0.002-0.009,0-0.023-0.001-0.032C738.729,248.293,738.729,247.973,738.729,247.973z"/>
	</g>
	<g id="POLYLINE_00000105396071026797452550000012055555496391601572_">
		
			<line fill="none" stroke="#3A54F5" stroke-width="2.25" stroke-linecap="round" stroke-linejoin="round" stroke-miterlimit="10" x1="739.497" y1="247.021" x2="739.478" y2="246.973"/>
	</g>
	<g id="POLYLINE_00000114752773476102992440000013419432787776982400_">
		
			<line fill="none" stroke="#3A54F5" stroke-width="2.25" stroke-linecap="round" stroke-linejoin="round" stroke-miterlimit="10" x1="769.606" y1="247.021" x2="769.624" y2="246.973"/>
	</g>
	<g id="POLYLINE_00000166654606967877278480000013202015406965463725_">
		
			<path fill="none" stroke="#3A54F5" stroke-width="2.25" stroke-linecap="round" stroke-linejoin="round" stroke-miterlimit="10" d="
			M776.31,222.06c-10.847,0-32.674,0-43.517,0"/>
	</g>
	<g id="POLYLINE_00000149371427421707101220000007753180726524887961_">
		
			<path fill="none" stroke="#3A54F5" stroke-width="2.25" stroke-linecap="round" stroke-linejoin="round" stroke-miterlimit="10" d="
			M770.374,248.243c0.365-0.016,0.817,0,1.182-0.039c0.13-0.012,0.261-0.035,0.385-0.076c0.378-0.119,0.715-0.356,0.961-0.665
			c0.317-0.38,0.43-0.879,0.55-1.348c0.514-2.24,1.135-4.853,1.475-7.117c0.653-4.129,0.993-8.469,1.217-12.644
			c0.098-2.13,0.209-4.565,0.187-6.695c-0.009-0.142-0.038-0.284-0.088-0.418c-0.09-0.243-0.253-0.464-0.477-0.597
			c-0.149-0.09-0.319-0.138-0.49-0.164c-5.796-0.285-14.849-0.307-20.726-0.354c-5.896,0.048-14.903,0.068-20.726,0.354
			c-0.171,0.026-0.341,0.074-0.49,0.164c-0.229,0.137-0.394,0.364-0.483,0.613c-0.05,0.138-0.077,0.285-0.084,0.431
			c-0.017,2.118,0.086,4.546,0.189,6.666c0.226,4.176,0.564,8.514,1.217,12.644c0.347,2.294,0.95,4.852,1.475,7.117
			c0.121,0.468,0.232,0.968,0.55,1.348c0.252,0.316,0.599,0.556,0.986,0.673c0.096,0.03,0.197,0.051,0.298,0.062
			c0.387,0.048,0.852,0.033,1.245,0.046"/>
	</g>
	<g id="POLYLINE_00000111163037434435290410000012055519483279550362_">
		
			<path fill="none" stroke="#3A54F5" stroke-width="2.25" stroke-linecap="round" stroke-linejoin="round" stroke-miterlimit="10" d="
			M896.351,263.941c-0.238,0.268-0.464,0.553-0.626,0.873c-0.182,0.354-0.291,0.743-0.342,1.137
			c-0.045,0.351-0.045,0.711-0.02,1.064c0.019,0.179,0.032,0.416,0.057,0.595c0,0,1.511,13.882,1.511,13.882
			c0.012,0.109-0.009,0.223-0.06,0.32c-0.089,0.174-0.274,0.293-0.469,0.302c-0.065,0.01-19.85-0.005-19.919,0
			c-0.038-0.002-0.078-0.008-0.115-0.018c-0.157-0.041-0.293-0.154-0.363-0.301c-0.042-0.088-0.061-0.187-0.053-0.284
			c-0.011-0.006,1.52-13.891,1.513-13.901c0,0,0.037-0.355,0.037-0.355c0.056-0.579,0.06-1.175-0.082-1.743
			c-0.098-0.399-0.272-0.779-0.512-1.112c-0.231-0.326-0.927-1.081-1.184-1.384c-0.756-0.872-1.516-1.818-2.157-2.777
			c-0.983-1.462-1.787-3.063-2.295-4.752c-0.432-1.431-0.653-2.932-0.652-4.427c0.014-0.429,0.032-0.877,0.207-1.276
			c0.091-0.202,0.245-0.369,0.456-0.444c0.13-0.049,0.269-0.067,0.407-0.073c0.04-0.007,29.337,0.001,29.401-0.002
			c0.172,0,0.348,0.014,0.511,0.075c0.105,0.039,0.203,0.101,0.281,0.182c0.091,0.093,0.156,0.209,0.204,0.329
			c0.147,0.383,0.166,0.803,0.179,1.209c0.013,2.739-0.765,5.456-2.116,7.832C899.132,260.725,897.744,262.381,896.351,263.941z"/>
	</g>
	<g id="POLYLINE_00000021104481483993368360000004349135551903510938_">
		
			<path fill="none" stroke="#3A54F5" stroke-width="2.25" stroke-linecap="round" stroke-linejoin="round" stroke-miterlimit="10" d="
			M870.62,245.705c-0.001-0.282,0.142-0.544,0.33-0.747c0.233-0.252,0.528-0.441,0.832-0.596c0.482-0.242,1.006-0.405,1.531-0.524
			c0.627-0.141,1.275-0.22,1.916-0.25c0.188-0.008,0.397-0.014,0.586-0.014c0.122,0.003,21.266-0.003,21.372,0.001
			c0.8,0.008,1.606,0.088,2.387,0.263c0.493,0.112,0.988,0.264,1.445,0.482c0.305,0.147,0.602,0.326,0.846,0.564
			c0.197,0.192,0.361,0.436,0.395,0.714c0.003,0.027,0.006,0.056,0.006,0.083c0,0,0,0.012,0,0.012s0,0.012,0,0.012s0,0.321,0,0.321
			c0,0.09-0.013,0.181-0.038,0.268c-0.054,0.19-0.168,0.363-0.322,0.488c-0.098,0.08-0.213,0.14-0.334,0.177
			c-0.066,0.02-0.134,0.033-0.203,0.038c0.005,0.016-29.753-0.005-29.775,0.003c-0.378,0.003-0.742-0.233-0.891-0.581
			C870.594,246.182,870.624,245.953,870.62,245.705z"/>
	</g>
	<g id="POLYLINE_00000098903626861709321490000007937231581498758550_">
		
			<path fill="none" stroke="#3A54F5" stroke-width="2.25" stroke-linecap="round" stroke-linejoin="round" stroke-miterlimit="10" d="
			M870.62,247.973c-0.003-0.366,0.217-0.719,0.548-0.876c0.102-0.05,0.213-0.081,0.327-0.093c0.037-0.019,29.737,0.003,29.797-0.005
			c0.147,0,0.293,0.034,0.425,0.098c0.268,0.128,0.468,0.385,0.528,0.676c0.013,0.062,0.02,0.126,0.021,0.189
			c0.001,0.111,0.006,0.368-0.011,0.475c-0.013,0.089-0.039,0.177-0.077,0.26c-0.093,0.205-0.258,0.375-0.461,0.473
			c-0.109,0.053-0.228,0.085-0.349,0.095c-0.016,0.015-29.746-0.004-29.786,0.003c-0.056-0.001-0.112-0.006-0.166-0.016
			c-0.324-0.058-0.609-0.292-0.728-0.599c-0.03-0.076-0.051-0.156-0.061-0.237c-0.003-0.029-0.006-0.059-0.007-0.088
			c-0.002-0.009,0-0.023-0.001-0.032C870.62,248.293,870.62,247.973,870.62,247.973z"/>
	</g>
	<g id="POLYLINE_00000183218731706549761080000003043674449220892858_">
		
			<line fill="none" stroke="#3A54F5" stroke-width="2.25" stroke-linecap="round" stroke-linejoin="round" stroke-miterlimit="10" x1="871.388" y1="247.021" x2="871.369" y2="246.973"/>
	</g>
	<g id="POLYLINE_00000088843823452673430000000017227475501037382043_">
		
			<line fill="none" stroke="#3A54F5" stroke-width="2.25" stroke-linecap="round" stroke-linejoin="round" stroke-miterlimit="10" x1="901.497" y1="247.021" x2="901.515" y2="246.973"/>
	</g>
	<g id="POLYLINE_00000182530623042206293400000006988368776436306563_">
		
			<path fill="none" stroke="#3A54F5" stroke-width="2.25" stroke-linecap="round" stroke-linejoin="round" stroke-miterlimit="10" d="
			M908.201,222.06c-10.847,0-32.674,0-43.517,0"/>
	</g>
	<g id="POLYLINE_00000039853720288261005130000006845622671652481199_">
		
			<path fill="none" stroke="#3A54F5" stroke-width="2.25" stroke-linecap="round" stroke-linejoin="round" stroke-miterlimit="10" d="
			M902.265,248.243c0.365-0.016,0.817,0,1.182-0.039c0.13-0.012,0.261-0.035,0.385-0.076c0.377-0.119,0.715-0.356,0.961-0.665
			c0.317-0.38,0.43-0.879,0.55-1.348c0.514-2.24,1.135-4.853,1.475-7.117c0.653-4.129,0.993-8.469,1.217-12.644
			c0.098-2.13,0.209-4.565,0.187-6.695c-0.009-0.142-0.038-0.284-0.088-0.418c-0.09-0.243-0.253-0.464-0.477-0.597
			c-0.149-0.09-0.319-0.138-0.49-0.164c-5.796-0.285-14.849-0.307-20.726-0.354c-5.896,0.048-14.903,0.068-20.726,0.354
			c-0.171,0.026-0.341,0.074-0.49,0.164c-0.229,0.137-0.394,0.364-0.483,0.613c-0.05,0.138-0.077,0.285-0.084,0.431
			c-0.017,2.118,0.086,4.546,0.189,6.666c0.226,4.176,0.564,8.514,1.217,12.644c0.347,2.294,0.95,4.852,1.475,7.117
			c0.121,0.468,0.232,0.968,0.55,1.348c0.252,0.316,0.599,0.556,0.986,0.673c0.097,0.03,0.197,0.051,0.298,0.062
			c0.387,0.048,0.852,0.033,1.245,0.046"/>
	</g>
	<g id="POLYLINE_00000075858665308964135610000012430423598917663393_">
		
			<path fill="none" stroke="#3A54F5" stroke-width="2.25" stroke-linecap="round" stroke-linejoin="round" stroke-miterlimit="10" d="
			M659.094,222.06c-10.847,0-32.674,0-43.517,0"/>
	</g>
	<g id="POLYLINE_00000051357188455572602060000009022656977267526075_">
		
			<rect x="90.065" y="349.552" fill="none" stroke="#3A54F5" stroke-width="2.25" stroke-linecap="round" stroke-linejoin="round" stroke-miterlimit="10" width="1.6" height="2.807"/>
	</g>
	<g id="POLYLINE_00000041254685608700614250000003139911996335938220_">
		
			<rect x="90.065" y="367.777" fill="none" stroke="#3A54F5" stroke-width="2.25" stroke-linecap="round" stroke-linejoin="round" stroke-miterlimit="10" width="1.6" height="2.807"/>
	</g>
	<g id="POLYLINE_00000049203032610666594980000018038571875542430112_">
		
			<path fill="none" stroke="#3A54F5" stroke-width="2.25" stroke-linecap="round" stroke-linejoin="round" stroke-miterlimit="10" d="
			M91.665,367.777c-0.165-0.006-3.124,0.015-3.2-0.015c-0.148-0.016-0.296-0.054-0.432-0.116c-0.428-0.193-0.763-0.592-0.849-1.057
			c-0.111-0.528,0.058-1.102,0.174-1.616c0.144-0.673,0.215-1.389,0.266-2.076c0.055-0.877,0.135-1.953,0.136-2.829
			c0-0.875-0.08-1.953-0.136-2.829c-0.05-0.686-0.121-1.403-0.266-2.076c-0.117-0.521-0.287-1.099-0.17-1.632
			c0.089-0.459,0.423-0.85,0.845-1.041c0.146-0.067,0.305-0.105,0.465-0.119c0.064-0.022,3.03-0.007,3.167-0.011V367.777z"/>
	</g>
	<g id="POLYLINE_00000086659268348733204950000014114023057301549200_">
		
			<path fill="none" stroke="#3A54F5" stroke-width="2.25" stroke-linecap="round" stroke-linejoin="round" stroke-miterlimit="10" d="
			M83.732,347.525c4.559-0.986,12.49-2.147,17.179-2.886"/>
	</g>
	<g id="POLYLINE_00000172441929837648917410000000318403317057514125_">
		
			<path fill="none" stroke="#3A54F5" stroke-width="2.25" stroke-linecap="round" stroke-linejoin="round" stroke-miterlimit="10" d="
			M83.732,372.611c4.559,0.986,12.49,2.147,17.179,2.886"/>
	</g>
	<g id="POLYLINE_00000109711057905185885970000011454548976541911180_">
		
			<path fill="none" stroke="#3A54F5" stroke-width="2.25" stroke-linecap="round" stroke-linejoin="round" stroke-miterlimit="10" d="
			M131.168,360.068c0.004-2.189-0.661-4.372-1.874-6.192c-0.909-1.352-2.125-2.527-3.359-3.58c-1.474-1.233-3.123-2.284-4.862-3.102
			c-2.828-1.305-5.89-2.102-8.949-2.642c-2.349-0.227-4.916-0.514-7.265-0.352c-2.192,0.115-4.395,0.457-6.53,0.968
			c-2.19,0.533-4.363,1.264-6.382,2.27c-0.118,0.07-0.21,0.183-0.253,0.313c-0.08,0.909-0.003,11.116-0.029,12.318
			c0,0,0,12.14,0,12.14c0,0.032,0.003,0.065,0.008,0.096c0.008,0.048,0.023,0.095,0.043,0.139c0.048,0.106,0.13,0.197,0.23,0.257
			c2.019,1.006,4.192,1.738,6.382,2.27c2.134,0.51,4.338,0.852,6.53,0.968c2.345,0.17,4.924-0.132,7.265-0.352
			c3.06-0.541,6.121-1.337,8.949-2.642c1.739-0.818,3.388-1.869,4.862-3.102c1.235-1.054,2.45-2.229,3.359-3.58
			C130.507,364.44,131.171,362.257,131.168,360.068z"/>
	</g>
	<g id="POLYLINE_00000085973123156972511420000017247787916522615229_">
		
			<path fill="none" stroke="#3A54F5" stroke-width="2.25" stroke-linecap="round" stroke-linejoin="round" stroke-miterlimit="10" d="
			M248.11,378.588c0.316-0.17,0.576-0.447,0.7-0.786c0.041-0.108,0.07-0.222,0.088-0.336c0.133-1.196,0.33-3.468,0.423-4.668
			c0.308-4.126,0.463-8.595,0.419-12.731c0.043-4.135-0.11-8.606-0.419-12.731c-0.11-1.238-0.276-3.535-0.442-4.768
			c-0.035-0.164-0.095-0.325-0.181-0.469c-0.139-0.235-0.349-0.422-0.588-0.552c-1.971-1.143-4.158-1.872-6.353-2.447
			c-0.879-0.226-1.801-0.449-2.699-0.586c-0.378-0.054-0.767-0.095-1.148-0.059c-0.463,0.04-0.908,0.21-1.297,0.462
			c-0.293,0.191-0.562,0.429-0.762,0.718c-0.288,0.415-0.385,0.926-0.467,1.415c-0.393,2.753-0.597,6.002-0.794,8.785
			c-0.195,3.237-0.375,6.996-0.379,10.232c0.004,3.233,0.183,6.998,0.379,10.232c0.191,2.72,0.4,5.919,0.767,8.614
			c0.096,0.637,0.213,1.321,0.669,1.809c0.379,0.417,0.882,0.724,1.424,0.876c0.355,0.098,0.729,0.11,1.094,0.082
			c1.453-0.151,2.94-0.566,4.345-0.959C244.696,380.203,246.48,379.53,248.11,378.588z"/>
	</g>
	<g id="POLYLINE_00000087413205026928682450000005490234402706422454_">
		
			<rect x="255.667" y="349.552" fill="none" stroke="#3A54F5" stroke-width="2.25" stroke-linecap="round" stroke-linejoin="round" stroke-miterlimit="10" width="1.6" height="2.807"/>
	</g>
	<g id="POLYLINE_00000159429833326741735640000008359717294516183462_">
		
			<rect x="255.667" y="367.777" fill="none" stroke="#3A54F5" stroke-width="2.25" stroke-linecap="round" stroke-linejoin="round" stroke-miterlimit="10" width="1.6" height="2.807"/>
	</g>
	<g id="POLYLINE_00000083066961188458338270000017625895807550400402_">
		
			<path fill="none" stroke="#3A54F5" stroke-width="2.25" stroke-linecap="round" stroke-linejoin="round" stroke-miterlimit="10" d="
			M257.267,367.777c-0.165-0.006-3.124,0.015-3.2-0.015c-0.148-0.016-0.296-0.054-0.432-0.116c-0.428-0.193-0.763-0.592-0.849-1.057
			c-0.111-0.528,0.058-1.102,0.174-1.616c0.144-0.673,0.215-1.389,0.266-2.076c0.055-0.877,0.135-1.953,0.136-2.829
			c0-0.875-0.08-1.953-0.136-2.829c-0.05-0.686-0.121-1.403-0.266-2.076c-0.117-0.521-0.287-1.099-0.17-1.632
			c0.089-0.459,0.423-0.85,0.845-1.041c0.146-0.067,0.305-0.105,0.465-0.119c0.064-0.022,3.03-0.007,3.167-0.011V367.777z"/>
	</g>
	<g id="POLYLINE_00000099658393064227628980000012336032135018883474_">
		
			<path fill="none" stroke="#3A54F5" stroke-width="2.25" stroke-linecap="round" stroke-linejoin="round" stroke-miterlimit="10" d="
			M249.334,347.525c4.559-0.986,12.49-2.147,17.179-2.886"/>
	</g>
	<g id="POLYLINE_00000150090777544995378770000005214051393437615038_">
		
			<path fill="none" stroke="#3A54F5" stroke-width="2.25" stroke-linecap="round" stroke-linejoin="round" stroke-miterlimit="10" d="
			M249.334,372.611c4.559,0.986,12.49,2.147,17.179,2.886"/>
	</g>
	<g id="POLYLINE_00000029034156868270541960000017479496814580809355_">
		
			<path fill="none" stroke="#3A54F5" stroke-width="2.25" stroke-linecap="round" stroke-linejoin="round" stroke-miterlimit="10" d="
			M296.77,360.068c0.004-2.189-0.661-4.372-1.874-6.192c-0.909-1.352-2.125-2.527-3.359-3.58c-1.474-1.233-3.123-2.284-4.862-3.102
			c-2.828-1.305-5.89-2.102-8.949-2.642c-2.349-0.227-4.916-0.514-7.265-0.352c-2.192,0.115-4.395,0.457-6.53,0.968
			c-2.19,0.533-4.363,1.264-6.382,2.27c-0.118,0.07-0.21,0.183-0.253,0.313c-0.08,0.909-0.003,11.116-0.029,12.318
			c0,0,0,12.14,0,12.14c0,0.032,0.003,0.065,0.008,0.096c0.008,0.048,0.023,0.095,0.043,0.139c0.048,0.106,0.13,0.197,0.23,0.257
			c2.019,1.006,4.192,1.738,6.382,2.27c2.134,0.51,4.338,0.852,6.53,0.968c2.345,0.17,4.924-0.132,7.265-0.352
			c3.06-0.541,6.121-1.337,8.949-2.642c1.739-0.818,3.388-1.869,4.862-3.102c1.235-1.054,2.45-2.229,3.359-3.58
			C296.11,364.44,296.774,362.257,296.77,360.068z"/>
	</g>
	<g id="POLYLINE_00000165949495408011537350000009015039245237642137_">
		
			<path fill="none" stroke="#3A54F5" stroke-width="2.25" stroke-linecap="round" stroke-linejoin="round" stroke-miterlimit="10" d="
			M427.197,378.588c0.316-0.17,0.576-0.447,0.7-0.786c0.041-0.108,0.07-0.222,0.088-0.336c0.133-1.196,0.33-3.468,0.423-4.668
			c0.308-4.126,0.463-8.595,0.419-12.731c0.043-4.135-0.11-8.606-0.419-12.731c-0.11-1.238-0.276-3.535-0.442-4.768
			c-0.035-0.164-0.095-0.325-0.181-0.469c-0.139-0.235-0.349-0.422-0.588-0.552c-1.971-1.143-4.158-1.872-6.353-2.447
			c-0.879-0.226-1.801-0.449-2.699-0.586c-0.378-0.054-0.767-0.095-1.148-0.059c-0.463,0.04-0.908,0.21-1.297,0.462
			c-0.293,0.191-0.562,0.429-0.762,0.718c-0.288,0.415-0.385,0.926-0.467,1.415c-0.393,2.753-0.597,6.002-0.794,8.785
			c-0.195,3.237-0.375,6.996-0.379,10.232c0.004,3.233,0.183,6.998,0.379,10.232c0.191,2.72,0.4,5.919,0.767,8.614
			c0.096,0.637,0.213,1.321,0.669,1.809c0.379,0.417,0.882,0.724,1.424,0.876c0.355,0.098,0.729,0.11,1.094,0.082
			c1.453-0.151,2.94-0.566,4.345-0.959C423.784,380.203,425.567,379.53,427.197,378.588z"/>
	</g>
	<g id="POLYLINE_00000183963189096547565980000008300265082637862037_">
		
			<rect x="434.755" y="349.552" fill="none" stroke="#3A54F5" stroke-width="2.25" stroke-linecap="round" stroke-linejoin="round" stroke-miterlimit="10" width="1.6" height="2.807"/>
	</g>
	<g id="POLYLINE_00000180361187315248521410000005925758422218973370_">
		
			<rect x="434.755" y="367.777" fill="none" stroke="#3A54F5" stroke-width="2.25" stroke-linecap="round" stroke-linejoin="round" stroke-miterlimit="10" width="1.6" height="2.807"/>
	</g>
	<g id="POLYLINE_00000183936224904422912240000001350024288989260198_">
		
			<path fill="none" stroke="#3A54F5" stroke-width="2.25" stroke-linecap="round" stroke-linejoin="round" stroke-miterlimit="10" d="
			M436.355,367.777c-0.165-0.006-3.124,0.015-3.2-0.015c-0.148-0.016-0.296-0.054-0.432-0.116c-0.428-0.193-0.763-0.592-0.849-1.057
			c-0.111-0.528,0.058-1.102,0.174-1.616c0.144-0.673,0.215-1.389,0.266-2.076c0.055-0.877,0.135-1.953,0.136-2.829
			c0-0.875-0.08-1.953-0.136-2.829c-0.05-0.686-0.121-1.403-0.266-2.076c-0.117-0.521-0.287-1.099-0.17-1.632
			c0.089-0.459,0.423-0.85,0.845-1.041c0.146-0.067,0.305-0.105,0.465-0.119c0.064-0.022,3.03-0.007,3.167-0.011V367.777z"/>
	</g>
	<g id="POLYLINE_00000176724885786817512970000015151726134382769340_">
		
			<path fill="none" stroke="#3A54F5" stroke-width="2.25" stroke-linecap="round" stroke-linejoin="round" stroke-miterlimit="10" d="
			M428.422,347.525c4.559-0.986,12.49-2.147,17.179-2.886"/>
	</g>
	<g id="POLYLINE_00000091733806037929487970000002716486205518016946_">
		
			<path fill="none" stroke="#3A54F5" stroke-width="2.25" stroke-linecap="round" stroke-linejoin="round" stroke-miterlimit="10" d="
			M428.422,372.611c4.559,0.986,12.49,2.147,17.179,2.886"/>
	</g>
	<g id="POLYLINE_00000036232678564367352570000010805666233438212997_">
		
			<path fill="none" stroke="#3A54F5" stroke-width="2.25" stroke-linecap="round" stroke-linejoin="round" stroke-miterlimit="10" d="
			M475.858,360.068c0.004-2.189-0.661-4.372-1.874-6.192c-0.909-1.352-2.125-2.527-3.359-3.58c-1.474-1.233-3.123-2.284-4.862-3.102
			c-2.828-1.305-5.89-2.102-8.949-2.642c-2.349-0.227-4.916-0.514-7.265-0.352c-2.192,0.115-4.395,0.457-6.53,0.968
			c-2.19,0.533-4.363,1.264-6.382,2.27c-0.118,0.07-0.21,0.183-0.253,0.313c-0.08,0.909-0.003,11.116-0.029,12.318
			c0,0,0,12.14,0,12.14c0,0.032,0.003,0.065,0.008,0.096c0.008,0.048,0.023,0.095,0.043,0.139c0.048,0.106,0.13,0.197,0.23,0.257
			c2.019,1.006,4.192,1.738,6.382,2.27c2.134,0.51,4.338,0.852,6.53,0.968c2.345,0.17,4.924-0.132,7.265-0.352
			c3.06-0.541,6.121-1.337,8.949-2.642c1.739-0.818,3.388-1.869,4.862-3.102c1.235-1.054,2.45-2.229,3.359-3.58
			C475.197,364.44,475.861,362.257,475.858,360.068z"/>
	</g>
	<g id="POLYLINE_00000088093181701521626430000011947543315144353929_">
		
			<path fill="none" stroke="#3A54F5" stroke-width="2.25" stroke-linecap="round" stroke-linejoin="round" stroke-miterlimit="10" d="
			M82.507,496.994c0.316-0.17,0.576-0.447,0.7-0.786c0.041-0.108,0.07-0.222,0.088-0.336c0.133-1.196,0.33-3.468,0.423-4.668
			c0.308-4.126,0.463-8.595,0.419-12.731c0.043-4.135-0.11-8.606-0.419-12.731c-0.11-1.238-0.276-3.535-0.442-4.768
			c-0.035-0.164-0.095-0.325-0.181-0.469c-0.139-0.235-0.349-0.422-0.588-0.552c-1.971-1.143-4.158-1.872-6.353-2.447
			c-0.879-0.226-1.801-0.449-2.699-0.586c-0.378-0.054-0.767-0.095-1.148-0.059c-0.463,0.04-0.908,0.21-1.297,0.462
			c-0.293,0.191-0.562,0.429-0.762,0.718c-0.288,0.415-0.385,0.926-0.467,1.415c-0.393,2.753-0.597,6.002-0.794,8.785
			c-0.195,3.237-0.375,6.996-0.379,10.232c0.004,3.233,0.183,6.998,0.379,10.232c0.191,2.72,0.4,5.919,0.767,8.614
			c0.096,0.637,0.213,1.321,0.669,1.809c0.379,0.417,0.882,0.724,1.424,0.876c0.355,0.098,0.729,0.11,1.094,0.082
			c1.453-0.151,2.94-0.566,4.345-0.96C79.094,498.609,80.877,497.937,82.507,496.994z"/>
	</g>
	<g id="POLYLINE_00000078743648937115541950000016751002969155102651_">
		
			<rect x="90.065" y="467.958" fill="none" stroke="#3A54F5" stroke-width="2.25" stroke-linecap="round" stroke-linejoin="round" stroke-miterlimit="10" width="1.6" height="2.807"/>
	</g>
	<g id="POLYLINE_00000146469027275990329120000016972689252823312042_">
		
			<rect x="90.065" y="486.184" fill="none" stroke="#3A54F5" stroke-width="2.25" stroke-linecap="round" stroke-linejoin="round" stroke-miterlimit="10" width="1.6" height="2.807"/>
	</g>
	<g id="POLYLINE_00000022553809656926557450000017636548176438199182_">
		
			<path fill="none" stroke="#3A54F5" stroke-width="2.25" stroke-linecap="round" stroke-linejoin="round" stroke-miterlimit="10" d="
			M91.665,486.184c-0.165-0.006-3.124,0.015-3.2-0.015c-0.148-0.016-0.296-0.054-0.432-0.116c-0.428-0.193-0.763-0.592-0.849-1.057
			c-0.111-0.528,0.058-1.102,0.174-1.616c0.144-0.673,0.215-1.389,0.266-2.076c0.055-0.877,0.135-1.953,0.136-2.829
			c0-0.875-0.08-1.953-0.136-2.829c-0.05-0.686-0.121-1.403-0.266-2.076c-0.117-0.521-0.287-1.099-0.17-1.632
			c0.089-0.459,0.423-0.85,0.845-1.041c0.146-0.067,0.305-0.105,0.465-0.119c0.064-0.022,3.03-0.007,3.167-0.011V486.184z"/>
	</g>
	<g id="POLYLINE_00000114790013320065694710000016665303295329636031_">
		
			<path fill="none" stroke="#3A54F5" stroke-width="2.25" stroke-linecap="round" stroke-linejoin="round" stroke-miterlimit="10" d="
			M83.732,465.931c4.559-0.986,12.49-2.147,17.179-2.886"/>
	</g>
	<g id="POLYLINE_00000007419090857193721530000014426167737284939195_">
		
			<path fill="none" stroke="#3A54F5" stroke-width="2.25" stroke-linecap="round" stroke-linejoin="round" stroke-miterlimit="10" d="
			M83.732,491.018c4.559,0.986,12.49,2.147,17.179,2.886"/>
	</g>
	<g id="POLYLINE_00000175304493503218128860000006623606642289011123_">
		
			<path fill="none" stroke="#3A54F5" stroke-width="2.25" stroke-linecap="round" stroke-linejoin="round" stroke-miterlimit="10" d="
			M131.168,478.475c0.004-2.189-0.661-4.372-1.874-6.192c-0.909-1.352-2.125-2.526-3.359-3.58c-1.474-1.233-3.123-2.284-4.862-3.102
			c-2.828-1.305-5.89-2.102-8.949-2.642c-2.349-0.227-4.916-0.514-7.265-0.352c-2.192,0.115-4.395,0.457-6.53,0.968
			c-2.19,0.533-4.363,1.264-6.382,2.27c-0.118,0.07-0.21,0.183-0.253,0.313c-0.08,0.909-0.003,11.116-0.029,12.318
			c0,0,0,12.14,0,12.14c0,0.032,0.003,0.065,0.008,0.096c0.008,0.048,0.023,0.095,0.043,0.139c0.048,0.106,0.13,0.197,0.23,0.257
			c2.019,1.006,4.192,1.738,6.382,2.27c2.134,0.51,4.338,0.852,6.53,0.968c2.345,0.17,4.924-0.132,7.265-0.352
			c3.06-0.541,6.121-1.337,8.949-2.642c1.739-0.818,3.388-1.869,4.862-3.102c1.235-1.054,2.45-2.229,3.359-3.58
			C130.507,482.846,131.171,480.663,131.168,478.475z"/>
	</g>
	<g id="POLYLINE_00000078754717332137266630000010612998605341506691_">
		
			<path fill="none" stroke="#3A54F5" stroke-width="2.25" stroke-linecap="round" stroke-linejoin="round" stroke-miterlimit="10" d="
			M248.11,496.994c0.316-0.17,0.576-0.447,0.7-0.786c0.041-0.108,0.07-0.222,0.088-0.336c0.133-1.196,0.33-3.468,0.423-4.668
			c0.308-4.126,0.463-8.595,0.419-12.731c0.043-4.135-0.11-8.606-0.419-12.731c-0.11-1.238-0.276-3.535-0.442-4.768
			c-0.035-0.164-0.095-0.325-0.181-0.469c-0.139-0.235-0.349-0.422-0.588-0.552c-1.971-1.143-4.158-1.872-6.353-2.447
			c-0.879-0.226-1.801-0.449-2.699-0.586c-0.378-0.054-0.767-0.095-1.148-0.059c-0.463,0.04-0.908,0.21-1.297,0.462
			c-0.293,0.191-0.562,0.429-0.762,0.718c-0.288,0.415-0.385,0.926-0.467,1.415c-0.393,2.753-0.597,6.002-0.794,8.785
			c-0.195,3.237-0.375,6.996-0.379,10.232c0.004,3.233,0.183,6.998,0.379,10.232c0.191,2.72,0.4,5.919,0.767,8.614
			c0.096,0.637,0.213,1.321,0.669,1.809c0.379,0.417,0.882,0.724,1.424,0.876c0.355,0.098,0.729,0.11,1.094,0.082
			c1.453-0.151,2.94-0.566,4.345-0.96C244.696,498.609,246.48,497.937,248.11,496.994z"/>
	</g>
	<g id="POLYLINE_00000060021044761746376900000013706107520138799796_">
		
			<rect x="255.667" y="467.958" fill="none" stroke="#3A54F5" stroke-width="2.25" stroke-linecap="round" stroke-linejoin="round" stroke-miterlimit="10" width="1.6" height="2.807"/>
	</g>
	<g id="POLYLINE_00000108988820213349064440000010499522778055706548_">
		
			<rect x="255.667" y="486.184" fill="none" stroke="#3A54F5" stroke-width="2.25" stroke-linecap="round" stroke-linejoin="round" stroke-miterlimit="10" width="1.6" height="2.807"/>
	</g>
	<g id="POLYLINE_00000124129808062621119830000014199629445769113245_">
		
			<path fill="none" stroke="#3A54F5" stroke-width="2.25" stroke-linecap="round" stroke-linejoin="round" stroke-miterlimit="10" d="
			M257.267,486.184c-0.165-0.006-3.124,0.015-3.2-0.015c-0.148-0.016-0.296-0.054-0.432-0.116c-0.428-0.193-0.763-0.592-0.849-1.057
			c-0.111-0.528,0.058-1.102,0.174-1.616c0.144-0.673,0.215-1.389,0.266-2.076c0.055-0.877,0.135-1.953,0.136-2.829
			c0-0.875-0.08-1.953-0.136-2.829c-0.05-0.686-0.121-1.403-0.266-2.076c-0.117-0.521-0.287-1.099-0.17-1.632
			c0.089-0.459,0.423-0.85,0.845-1.041c0.146-0.067,0.305-0.105,0.465-0.119c0.064-0.022,3.03-0.007,3.167-0.011V486.184z"/>
	</g>
	<g id="POLYLINE_00000117673166812954765390000009547126250867943074_">
		
			<path fill="none" stroke="#3A54F5" stroke-width="2.25" stroke-linecap="round" stroke-linejoin="round" stroke-miterlimit="10" d="
			M249.334,465.931c4.559-0.986,12.49-2.147,17.179-2.886"/>
	</g>
	<g id="POLYLINE_00000029761886572603299040000001405757662796643518_">
		
			<path fill="none" stroke="#3A54F5" stroke-width="2.25" stroke-linecap="round" stroke-linejoin="round" stroke-miterlimit="10" d="
			M249.334,491.018c4.559,0.986,12.49,2.147,17.179,2.886"/>
	</g>
	<g id="POLYLINE_00000099640130568018957230000013485031809659216536_">
		
			<path fill="none" stroke="#3A54F5" stroke-width="2.25" stroke-linecap="round" stroke-linejoin="round" stroke-miterlimit="10" d="
			M296.77,478.475c0.004-2.189-0.661-4.372-1.874-6.192c-0.909-1.352-2.125-2.526-3.359-3.58c-1.474-1.233-3.123-2.284-4.862-3.102
			c-2.828-1.305-5.89-2.102-8.949-2.642c-2.349-0.227-4.916-0.514-7.265-0.352c-2.192,0.115-4.395,0.457-6.53,0.968
			c-2.19,0.533-4.363,1.264-6.382,2.27c-0.118,0.07-0.21,0.183-0.253,0.313c-0.08,0.909-0.003,11.116-0.029,12.318
			c0,0,0,12.14,0,12.14c0,0.032,0.003,0.065,0.008,0.096c0.008,0.048,0.023,0.095,0.043,0.139c0.048,0.106,0.13,0.197,0.23,0.257
			c2.019,1.006,4.192,1.738,6.382,2.27c2.134,0.51,4.338,0.852,6.53,0.968c2.345,0.17,4.924-0.132,7.265-0.352
			c3.06-0.541,6.121-1.337,8.949-2.642c1.739-0.818,3.388-1.869,4.862-3.102c1.235-1.054,2.45-2.229,3.359-3.58
			C296.11,482.846,296.774,480.663,296.77,478.475z"/>
	</g>
	<g id="POLYLINE_00000098904759569032525230000006203474102582184596_">
		
			<path fill="none" stroke="#3A54F5" stroke-width="2.25" stroke-linecap="round" stroke-linejoin="round" stroke-miterlimit="10" d="
			M427.197,496.994c0.316-0.17,0.576-0.447,0.7-0.786c0.041-0.108,0.07-0.222,0.088-0.336c0.133-1.196,0.33-3.468,0.423-4.668
			c0.308-4.126,0.463-8.595,0.419-12.731c0.043-4.135-0.11-8.606-0.419-12.731c-0.11-1.238-0.276-3.535-0.442-4.768
			c-0.035-0.164-0.095-0.325-0.181-0.469c-0.139-0.235-0.349-0.422-0.588-0.552c-1.971-1.143-4.158-1.872-6.353-2.447
			c-0.879-0.226-1.801-0.449-2.699-0.586c-0.378-0.054-0.767-0.095-1.148-0.059c-0.463,0.04-0.908,0.21-1.297,0.462
			c-0.293,0.191-0.562,0.429-0.762,0.718c-0.288,0.415-0.385,0.926-0.467,1.415c-0.393,2.753-0.597,6.002-0.794,8.785
			c-0.195,3.237-0.375,6.996-0.379,10.232c0.004,3.233,0.183,6.998,0.379,10.232c0.191,2.72,0.4,5.919,0.767,8.614
			c0.096,0.637,0.213,1.321,0.669,1.809c0.379,0.417,0.882,0.724,1.424,0.876c0.355,0.098,0.729,0.11,1.094,0.082
			c1.453-0.151,2.94-0.566,4.345-0.96C423.784,498.609,425.567,497.937,427.197,496.994z"/>
	</g>
	<g id="POLYLINE_00000056401013068362618180000002932057073981844142_">
		
			<rect x="434.755" y="467.958" fill="none" stroke="#3A54F5" stroke-width="2.25" stroke-linecap="round" stroke-linejoin="round" stroke-miterlimit="10" width="1.6" height="2.807"/>
	</g>
	<g id="POLYLINE_00000045614007165929200370000010802334172683516315_">
		
			<rect x="434.755" y="486.184" fill="none" stroke="#3A54F5" stroke-width="2.25" stroke-linecap="round" stroke-linejoin="round" stroke-miterlimit="10" width="1.6" height="2.807"/>
	</g>
	<g id="POLYLINE_00000000931826574166264580000001474927485185483653_">
		
			<path fill="none" stroke="#3A54F5" stroke-width="2.25" stroke-linecap="round" stroke-linejoin="round" stroke-miterlimit="10" d="
			M436.355,486.184c-0.165-0.006-3.124,0.015-3.2-0.015c-0.148-0.016-0.296-0.054-0.432-0.116c-0.428-0.193-0.763-0.592-0.849-1.057
			c-0.111-0.528,0.058-1.102,0.174-1.616c0.144-0.673,0.215-1.389,0.266-2.076c0.055-0.877,0.135-1.953,0.136-2.829
			c0-0.875-0.08-1.953-0.136-2.829c-0.05-0.686-0.121-1.403-0.266-2.076c-0.117-0.521-0.287-1.099-0.17-1.632
			c0.089-0.459,0.423-0.85,0.845-1.041c0.146-0.067,0.305-0.105,0.465-0.119c0.064-0.022,3.03-0.007,3.167-0.011V486.184z"/>
	</g>
	<g id="POLYLINE_00000120516919082634075070000000848226437061110434_">
		
			<path fill="none" stroke="#3A54F5" stroke-width="2.25" stroke-linecap="round" stroke-linejoin="round" stroke-miterlimit="10" d="
			M428.422,465.931c4.559-0.986,12.49-2.147,17.179-2.886"/>
	</g>
	<g id="POLYLINE_00000163071081442196482690000014094717326881139373_">
		
			<path fill="none" stroke="#3A54F5" stroke-width="2.25" stroke-linecap="round" stroke-linejoin="round" stroke-miterlimit="10" d="
			M428.422,491.018c4.559,0.986,12.49,2.147,17.179,2.886"/>
	</g>
	<g id="POLYLINE_00000170971426963295257370000006430665684595368846_">
		
			<path fill="none" stroke="#3A54F5" stroke-width="2.25" stroke-linecap="round" stroke-linejoin="round" stroke-miterlimit="10" d="
			M475.858,478.475c0.004-2.189-0.661-4.372-1.874-6.192c-0.909-1.352-2.125-2.526-3.359-3.58c-1.474-1.233-3.123-2.284-4.862-3.102
			c-2.828-1.305-5.89-2.102-8.949-2.642c-2.349-0.227-4.916-0.514-7.265-0.352c-2.192,0.115-4.395,0.457-6.53,0.968
			c-2.19,0.533-4.363,1.264-6.382,2.27c-0.118,0.07-0.21,0.183-0.253,0.313c-0.08,0.909-0.003,11.116-0.029,12.318
			c0,0,0,12.14,0,12.14c0,0.032,0.003,0.065,0.008,0.096c0.008,0.048,0.023,0.095,0.043,0.139c0.048,0.106,0.13,0.197,0.23,0.257
			c2.019,1.006,4.192,1.738,6.382,2.27c2.134,0.51,4.338,0.852,6.53,0.968c2.345,0.17,4.924-0.132,7.265-0.352
			c3.06-0.541,6.121-1.337,8.949-2.642c1.739-0.818,3.388-1.869,4.862-3.102c1.235-1.054,2.45-2.229,3.359-3.58
			C475.197,482.846,475.861,480.663,475.858,478.475z"/>
	</g>
	<g id="POLYLINE_00000096771352500265564280000012773848556635693441_">
		
			<path fill="none" stroke="#3A54F5" stroke-width="2.25" stroke-linecap="round" stroke-linejoin="round" stroke-miterlimit="10" d="
			M82.507,628.885c0.316-0.17,0.576-0.447,0.7-0.786c0.041-0.108,0.07-0.222,0.088-0.336c0.133-1.196,0.33-3.468,0.423-4.668
			c0.308-4.126,0.463-8.595,0.419-12.731c0.043-4.135-0.11-8.606-0.419-12.731c-0.11-1.238-0.276-3.535-0.442-4.768
			c-0.035-0.164-0.095-0.325-0.181-0.469c-0.139-0.235-0.349-0.422-0.588-0.552c-1.971-1.143-4.158-1.872-6.353-2.447
			c-0.879-0.226-1.801-0.449-2.699-0.586c-0.378-0.054-0.767-0.095-1.148-0.059c-0.463,0.039-0.908,0.21-1.297,0.462
			c-0.293,0.191-0.562,0.429-0.762,0.718c-0.288,0.415-0.385,0.926-0.467,1.415c-0.393,2.753-0.597,6.002-0.794,8.785
			c-0.195,3.237-0.375,6.996-0.379,10.232c0.004,3.233,0.183,6.998,0.379,10.232c0.191,2.72,0.4,5.919,0.767,8.614
			c0.096,0.637,0.213,1.321,0.669,1.809c0.379,0.417,0.882,0.724,1.424,0.876c0.355,0.098,0.729,0.11,1.094,0.082
			c1.453-0.151,2.94-0.566,4.345-0.96C79.094,630.5,80.877,629.828,82.507,628.885z"/>
	</g>
	<g id="POLYLINE_00000180335319960419164660000018038612875529910971_">
		
			<rect x="90.065" y="599.85" fill="none" stroke="#3A54F5" stroke-width="2.25" stroke-linecap="round" stroke-linejoin="round" stroke-miterlimit="10" width="1.6" height="2.807"/>
	</g>
	<g id="POLYLINE_00000008839479461909934920000001105890681476293808_">
		
			<rect x="90.065" y="618.075" fill="none" stroke="#3A54F5" stroke-width="2.25" stroke-linecap="round" stroke-linejoin="round" stroke-miterlimit="10" width="1.6" height="2.807"/>
	</g>
	<g id="POLYLINE_00000007406550304703578080000006578685701300501650_">
		
			<path fill="none" stroke="#3A54F5" stroke-width="2.25" stroke-linecap="round" stroke-linejoin="round" stroke-miterlimit="10" d="
			M91.665,618.075c-0.165-0.006-3.124,0.015-3.2-0.015c-0.148-0.016-0.296-0.054-0.432-0.116c-0.428-0.193-0.763-0.592-0.849-1.057
			c-0.111-0.528,0.058-1.102,0.174-1.616c0.144-0.673,0.215-1.389,0.266-2.076c0.055-0.877,0.135-1.953,0.136-2.829
			c0-0.875-0.08-1.953-0.136-2.829c-0.05-0.686-0.121-1.403-0.266-2.076c-0.117-0.521-0.287-1.099-0.17-1.632
			c0.089-0.459,0.423-0.85,0.845-1.041c0.146-0.067,0.305-0.105,0.465-0.119c0.064-0.022,3.03-0.007,3.167-0.011V618.075z"/>
	</g>
	<g id="POLYLINE_00000066473410600588631230000016152314459941577892_">
		
			<path fill="none" stroke="#3A54F5" stroke-width="2.25" stroke-linecap="round" stroke-linejoin="round" stroke-miterlimit="10" d="
			M83.732,597.823c4.559-0.986,12.49-2.147,17.179-2.886"/>
	</g>
	<g id="POLYLINE_00000125574616924873289940000002891044178097230010_">
		
			<path fill="none" stroke="#3A54F5" stroke-width="2.25" stroke-linecap="round" stroke-linejoin="round" stroke-miterlimit="10" d="
			M83.732,622.909c4.559,0.986,12.49,2.147,17.179,2.886"/>
	</g>
	<g id="POLYLINE_00000165200469490977814580000006735909301333624249_">
		
			<path fill="none" stroke="#3A54F5" stroke-width="2.25" stroke-linecap="round" stroke-linejoin="round" stroke-miterlimit="10" d="
			M131.168,610.366c0.004-2.189-0.661-4.372-1.874-6.192c-0.909-1.352-2.125-2.526-3.359-3.58c-1.474-1.233-3.123-2.284-4.862-3.102
			c-2.828-1.305-5.89-2.102-8.949-2.642c-2.349-0.227-4.916-0.514-7.265-0.352c-2.192,0.115-4.395,0.457-6.53,0.968
			c-2.19,0.533-4.363,1.264-6.382,2.27c-0.118,0.07-0.21,0.183-0.253,0.313c-0.08,0.909-0.003,11.116-0.029,12.318
			c0,0,0,12.14,0,12.14c0,0.032,0.003,0.065,0.008,0.096c0.008,0.048,0.023,0.095,0.043,0.139c0.048,0.106,0.13,0.197,0.23,0.257
			c2.019,1.006,4.192,1.738,6.382,2.27c2.134,0.51,4.338,0.852,6.53,0.968c2.345,0.17,4.924-0.132,7.265-0.352
			c3.06-0.541,6.121-1.337,8.949-2.642c1.739-0.818,3.388-1.869,4.862-3.102c1.235-1.054,2.45-2.229,3.359-3.58
			C130.507,614.737,131.171,612.555,131.168,610.366z"/>
	</g>
	<g id="POLYLINE_00000048479816285406873830000003827255701130315964_">
		
			<path fill="none" stroke="#3A54F5" stroke-width="2.25" stroke-linecap="round" stroke-linejoin="round" stroke-miterlimit="10" d="
			M248.11,628.885c0.316-0.17,0.576-0.447,0.7-0.786c0.041-0.108,0.07-0.222,0.088-0.336c0.133-1.196,0.33-3.468,0.423-4.668
			c0.308-4.126,0.463-8.595,0.419-12.731c0.043-4.135-0.11-8.606-0.419-12.731c-0.11-1.238-0.276-3.535-0.442-4.768
			c-0.035-0.164-0.095-0.325-0.181-0.469c-0.139-0.235-0.349-0.422-0.588-0.552c-1.971-1.143-4.158-1.872-6.353-2.447
			c-0.879-0.226-1.801-0.449-2.699-0.586c-0.378-0.054-0.767-0.095-1.148-0.059c-0.463,0.039-0.908,0.21-1.297,0.462
			c-0.293,0.191-0.562,0.429-0.762,0.718c-0.288,0.415-0.385,0.926-0.467,1.415c-0.393,2.753-0.597,6.002-0.794,8.785
			c-0.195,3.237-0.375,6.996-0.379,10.232c0.004,3.233,0.183,6.998,0.379,10.232c0.191,2.72,0.4,5.919,0.767,8.614
			c0.096,0.637,0.213,1.321,0.669,1.809c0.379,0.417,0.882,0.724,1.424,0.876c0.355,0.098,0.729,0.11,1.094,0.082
			c1.453-0.151,2.94-0.566,4.345-0.96C244.696,630.5,246.48,629.828,248.11,628.885z"/>
	</g>
	<g id="POLYLINE_00000091001576038462666940000008064819144591669916_">
		
			<rect x="255.667" y="599.85" fill="none" stroke="#3A54F5" stroke-width="2.25" stroke-linecap="round" stroke-linejoin="round" stroke-miterlimit="10" width="1.6" height="2.807"/>
	</g>
	<g id="POLYLINE_00000094581282653250232360000009841821107614543764_">
		
			<rect x="255.667" y="618.075" fill="none" stroke="#3A54F5" stroke-width="2.25" stroke-linecap="round" stroke-linejoin="round" stroke-miterlimit="10" width="1.6" height="2.807"/>
	</g>
	<g id="POLYLINE_00000143596475022601315470000015250459253124382339_">
		
			<path fill="none" stroke="#3A54F5" stroke-width="2.25" stroke-linecap="round" stroke-linejoin="round" stroke-miterlimit="10" d="
			M257.267,618.075c-0.165-0.006-3.124,0.015-3.2-0.015c-0.148-0.016-0.296-0.054-0.432-0.116c-0.428-0.193-0.763-0.592-0.849-1.057
			c-0.111-0.528,0.058-1.102,0.174-1.616c0.144-0.673,0.215-1.389,0.266-2.076c0.055-0.877,0.135-1.953,0.136-2.829
			c0-0.875-0.08-1.953-0.136-2.829c-0.05-0.686-0.121-1.403-0.266-2.076c-0.117-0.521-0.287-1.099-0.17-1.632
			c0.089-0.459,0.423-0.85,0.845-1.041c0.146-0.067,0.305-0.105,0.465-0.119c0.064-0.022,3.03-0.007,3.167-0.011V618.075z"/>
	</g>
	<g id="POLYLINE_00000170281087990133272260000009587592877876769686_">
		
			<path fill="none" stroke="#3A54F5" stroke-width="2.25" stroke-linecap="round" stroke-linejoin="round" stroke-miterlimit="10" d="
			M249.334,597.823c4.559-0.986,12.49-2.147,17.179-2.886"/>
	</g>
	<g id="POLYLINE_00000042712624020297158860000003266149588046062749_">
		
			<path fill="none" stroke="#3A54F5" stroke-width="2.25" stroke-linecap="round" stroke-linejoin="round" stroke-miterlimit="10" d="
			M249.334,622.909c4.559,0.986,12.49,2.147,17.179,2.886"/>
	</g>
	<g id="POLYLINE_00000003800859207773480930000015367005250487310470_">
		
			<path fill="none" stroke="#3A54F5" stroke-width="2.25" stroke-linecap="round" stroke-linejoin="round" stroke-miterlimit="10" d="
			M296.77,610.366c0.004-2.189-0.661-4.372-1.874-6.192c-0.909-1.352-2.125-2.526-3.359-3.58c-1.474-1.233-3.123-2.284-4.862-3.102
			c-2.828-1.305-5.89-2.102-8.949-2.642c-2.349-0.227-4.916-0.514-7.265-0.352c-2.192,0.115-4.395,0.457-6.53,0.968
			c-2.19,0.533-4.363,1.264-6.382,2.27c-0.118,0.07-0.21,0.183-0.253,0.313c-0.08,0.909-0.003,11.116-0.029,12.318
			c0,0,0,12.14,0,12.14c0,0.032,0.003,0.065,0.008,0.096c0.008,0.048,0.023,0.095,0.043,0.139c0.048,0.106,0.13,0.197,0.23,0.257
			c2.019,1.006,4.192,1.738,6.382,2.27c2.134,0.51,4.338,0.852,6.53,0.968c2.345,0.17,4.924-0.132,7.265-0.352
			c3.06-0.541,6.121-1.337,8.949-2.642c1.739-0.818,3.388-1.869,4.862-3.102c1.235-1.054,2.45-2.229,3.359-3.58
			C296.11,614.737,296.774,612.555,296.77,610.366z"/>
	</g>
	<g id="POLYLINE_00000155106839239714539030000009015994074714774927_">
		
			<path fill="none" stroke="#3A54F5" stroke-width="2.25" stroke-linecap="round" stroke-linejoin="round" stroke-miterlimit="10" d="
			M427.197,628.885c0.316-0.17,0.576-0.447,0.7-0.786c0.041-0.108,0.07-0.222,0.088-0.336c0.133-1.196,0.33-3.468,0.423-4.668
			c0.308-4.126,0.463-8.595,0.419-12.731c0.043-4.135-0.11-8.606-0.419-12.731c-0.11-1.238-0.276-3.535-0.442-4.768
			c-0.035-0.164-0.095-0.325-0.181-0.469c-0.139-0.235-0.349-0.422-0.588-0.552c-1.971-1.143-4.158-1.872-6.353-2.447
			c-0.879-0.226-1.801-0.449-2.699-0.586c-0.378-0.054-0.767-0.095-1.148-0.059c-0.463,0.039-0.908,0.21-1.297,0.462
			c-0.293,0.191-0.562,0.429-0.762,0.718c-0.288,0.415-0.385,0.926-0.467,1.415c-0.393,2.753-0.597,6.002-0.794,8.785
			c-0.195,3.237-0.375,6.996-0.379,10.232c0.004,3.233,0.183,6.998,0.379,10.232c0.191,2.72,0.4,5.919,0.767,8.614
			c0.096,0.637,0.213,1.321,0.669,1.809c0.379,0.417,0.882,0.724,1.424,0.876c0.355,0.098,0.729,0.11,1.094,0.082
			c1.453-0.151,2.94-0.566,4.345-0.96C423.784,630.5,425.567,629.828,427.197,628.885z"/>
	</g>
	<g id="POLYLINE_00000111903892093061746660000000217278295712973706_">
		
			<rect x="434.755" y="599.85" fill="none" stroke="#3A54F5" stroke-width="2.25" stroke-linecap="round" stroke-linejoin="round" stroke-miterlimit="10" width="1.6" height="2.807"/>
	</g>
	<g id="POLYLINE_00000095304635814994215380000009202531490762200254_">
		
			<rect x="434.755" y="618.075" fill="none" stroke="#3A54F5" stroke-width="2.25" stroke-linecap="round" stroke-linejoin="round" stroke-miterlimit="10" width="1.6" height="2.807"/>
	</g>
	<g id="POLYLINE_00000101065683209667482670000012106419593458045107_">
		
			<path fill="none" stroke="#3A54F5" stroke-width="2.25" stroke-linecap="round" stroke-linejoin="round" stroke-miterlimit="10" d="
			M436.355,618.075c-0.165-0.006-3.124,0.015-3.2-0.015c-0.148-0.016-0.296-0.054-0.432-0.116c-0.428-0.193-0.763-0.592-0.849-1.057
			c-0.111-0.528,0.058-1.102,0.174-1.616c0.144-0.673,0.215-1.389,0.266-2.076c0.055-0.877,0.135-1.953,0.136-2.829
			c0-0.875-0.08-1.953-0.136-2.829c-0.05-0.686-0.121-1.403-0.266-2.076c-0.117-0.521-0.287-1.099-0.17-1.632
			c0.089-0.459,0.423-0.85,0.845-1.041c0.146-0.067,0.305-0.105,0.465-0.119c0.064-0.022,3.03-0.007,3.167-0.011V618.075z"/>
	</g>
	<g id="POLYLINE_00000131333280270922426120000005697263283468300189_">
		
			<path fill="none" stroke="#3A54F5" stroke-width="2.25" stroke-linecap="round" stroke-linejoin="round" stroke-miterlimit="10" d="
			M428.422,597.823c4.559-0.986,12.49-2.147,17.179-2.886"/>
	</g>
	<g id="POLYLINE_00000123428888690468420750000018361432643661101705_">
		
			<path fill="none" stroke="#3A54F5" stroke-width="2.25" stroke-linecap="round" stroke-linejoin="round" stroke-miterlimit="10" d="
			M428.422,622.909c4.559,0.986,12.49,2.147,17.179,2.886"/>
	</g>
	<g id="POLYLINE_00000080900238658182423010000014326843534782346654_">
		
			<path fill="none" stroke="#3A54F5" stroke-width="2.25" stroke-linecap="round" stroke-linejoin="round" stroke-miterlimit="10" d="
			M475.858,610.366c0.004-2.189-0.661-4.372-1.874-6.192c-0.909-1.352-2.125-2.526-3.359-3.58c-1.474-1.233-3.123-2.284-4.862-3.102
			c-2.828-1.305-5.89-2.102-8.949-2.642c-2.349-0.227-4.916-0.514-7.265-0.352c-2.192,0.115-4.395,0.457-6.53,0.968
			c-2.19,0.533-4.363,1.264-6.382,2.27c-0.118,0.07-0.21,0.183-0.253,0.313c-0.08,0.909-0.003,11.116-0.029,12.318
			c0,0,0,12.14,0,12.14c0,0.032,0.003,0.065,0.008,0.096c0.008,0.048,0.023,0.095,0.043,0.139c0.048,0.106,0.13,0.197,0.23,0.257
			c2.019,1.006,4.192,1.738,6.382,2.27c2.134,0.51,4.338,0.852,6.53,0.968c2.345,0.17,4.924-0.132,7.265-0.352
			c3.06-0.541,6.121-1.337,8.949-2.642c1.739-0.818,3.388-1.869,4.862-3.102c1.235-1.054,2.45-2.229,3.359-3.58
			C475.197,614.737,475.861,612.555,475.858,610.366z"/>
	</g>
</g>
<g id="_x32_D_x24_AG-BUILDINGS">
</g>
<g id="_x32_D_x24_AG-FURNITURE">
</g>
<g id="_x32_D_x24_AG-OUTLINE">
</g>
</svg>
