<?xml version="1.0" encoding="utf-8"?>
<!-- Generator: Adobe Illustrator 28.3.0, SVG Export Plug-In . SVG Version: 6.00 Build 0)  -->
<!DOCTYPE svg PUBLIC "-//W3C//DTD SVG 1.1//EN" "http://www.w3.org/Graphics/SVG/1.1/DTD/svg11.dtd" [
	<!ENTITY ns_extend "http://ns.adobe.com/Extensibility/1.0/">
	<!ENTITY ns_ai "http://ns.adobe.com/AdobeIllustrator/10.0/">
	<!ENTITY ns_graphs "http://ns.adobe.com/Graphs/1.0/">
	<!ENTITY ns_vars "http://ns.adobe.com/Variables/1.0/">
	<!ENTITY ns_imrep "http://ns.adobe.com/ImageReplacement/1.0/">
	<!ENTITY ns_sfw "http://ns.adobe.com/SaveForWeb/1.0/">
	<!ENTITY ns_custom "http://ns.adobe.com/GenericCustomNamespace/1.0/">
	<!ENTITY ns_adobe_xpath "http://ns.adobe.com/XPath/1.0/">
]>
<svg version="1.1" xmlns:x="&ns_extend;" xmlns:i="&ns_ai;" xmlns:graph="&ns_graphs;"
	 xmlns="http://www.w3.org/2000/svg" xmlns:xlink="http://www.w3.org/1999/xlink" x="0px" y="0px" width="1000px" height="525px"
	 viewBox="0 0 1000 525" enable-background="new 0 0 1000 525" xml:space="preserve">
<metadata>
	<sfw  xmlns="&ns_sfw;">
		<slices></slices>
		<sliceSourceBounds  bottomLeftOrigin="true" height="8357.844" width="10589.988" x="-2600.988" y="-958"></sliceSourceBounds>
	</sfw>
</metadata>
<g id="FILL-BACKGROUND">
</g>
<g id="N-DIMENSIONS">
</g>
<g id="N-TEXT">
</g>
<g id="_x32_D_x24_AG-DIAGRAM">
	<g id="POLYLINE_00000127756389758591418630000012428467432791123586_">
		<g>
			<g>
				<polyline fill="none" stroke="#3A54F5" stroke-width="2.5" stroke-linecap="round" stroke-linejoin="round" points="
					363.138,453.793 363.138,455.293 364.638,455.293 				"/>
				
					<line fill="none" stroke="#3A54F5" stroke-width="2.5" stroke-linecap="round" stroke-linejoin="round" stroke-dasharray="3.0103,5.0172" x1="369.655" y1="455.293" x2="607.97" y2="455.293"/>
				<polyline fill="none" stroke="#3A54F5" stroke-width="2.5" stroke-linecap="round" stroke-linejoin="round" points="
					610.479,455.293 611.979,455.293 611.979,453.793 				"/>
				
					<line fill="none" stroke="#3A54F5" stroke-width="2.5" stroke-linecap="round" stroke-linejoin="round" stroke-dasharray="2.986,4.9766" x1="611.979" y1="448.817" x2="611.979" y2="61.137"/>
				<polyline fill="none" stroke="#3A54F5" stroke-width="2.5" stroke-linecap="round" stroke-linejoin="round" points="
					611.979,58.648 611.979,57.148 610.479,57.148 				"/>
				
					<line fill="none" stroke="#3A54F5" stroke-width="2.5" stroke-linecap="round" stroke-linejoin="round" stroke-dasharray="3.0103,5.0172" x1="605.461" y1="57.148" x2="367.146" y2="57.148"/>
				<polyline fill="none" stroke="#3A54F5" stroke-width="2.5" stroke-linecap="round" stroke-linejoin="round" points="
					364.638,57.148 363.138,57.148 363.138,58.648 				"/>
				
					<line fill="none" stroke="#3A54F5" stroke-width="2.5" stroke-linecap="round" stroke-linejoin="round" stroke-dasharray="2.986,4.9766" x1="363.138" y1="63.625" x2="363.138" y2="451.305"/>
			</g>
		</g>
	</g>
	<g id="POLYLINE_00000004543331217071047140000016142017441796032151_">
		<g>
			<g>
				<polyline fill="none" stroke="#3A54F5" stroke-width="2.5" stroke-linecap="round" stroke-linejoin="round" points="
					669.127,453.793 669.127,455.293 670.627,455.293 				"/>
				
					<line fill="none" stroke="#3A54F5" stroke-width="2.5" stroke-linecap="round" stroke-linejoin="round" stroke-dasharray="3.0192,5.0321" x1="675.659" y1="455.293" x2="938.835" y2="455.293"/>
				<polyline fill="none" stroke="#3A54F5" stroke-width="2.5" stroke-linecap="round" stroke-linejoin="round" points="
					941.352,455.293 942.852,455.293 942.852,453.793 				"/>
				
					<line fill="none" stroke="#3A54F5" stroke-width="2.5" stroke-linecap="round" stroke-linejoin="round" stroke-dasharray="2.986,4.9766" x1="942.852" y1="448.817" x2="942.852" y2="61.137"/>
				<polyline fill="none" stroke="#3A54F5" stroke-width="2.5" stroke-linecap="round" stroke-linejoin="round" points="
					942.852,58.648 942.852,57.148 941.352,57.148 				"/>
				
					<line fill="none" stroke="#3A54F5" stroke-width="2.5" stroke-linecap="round" stroke-linejoin="round" stroke-dasharray="3.0192,5.0321" x1="936.319" y1="57.148" x2="673.143" y2="57.148"/>
				<polyline fill="none" stroke="#3A54F5" stroke-width="2.5" stroke-linecap="round" stroke-linejoin="round" points="
					670.627,57.148 669.127,57.148 669.127,58.648 				"/>
				
					<line fill="none" stroke="#3A54F5" stroke-width="2.5" stroke-linecap="round" stroke-linejoin="round" stroke-dasharray="2.986,4.9766" x1="669.127" y1="63.625" x2="669.127" y2="451.305"/>
			</g>
		</g>
	</g>
	<g id="POLYLINE_00000033342910855649073940000006956840793363083961_">
		<g>
			<g>
				<polyline fill="none" stroke="#3A54F5" stroke-width="2.5" stroke-linecap="round" stroke-linejoin="round" points="
					57.148,391.583 57.148,393.083 58.648,393.083 				"/>
				
					<line fill="none" stroke="#3A54F5" stroke-width="2.5" stroke-linecap="round" stroke-linejoin="round" stroke-dasharray="3.0103,5.0172" x1="63.666" y1="393.083" x2="301.98" y2="393.083"/>
				<polyline fill="none" stroke="#3A54F5" stroke-width="2.5" stroke-linecap="round" stroke-linejoin="round" points="
					304.489,393.083 305.989,393.083 305.989,391.583 				"/>
				
					<line fill="none" stroke="#3A54F5" stroke-width="2.5" stroke-linecap="round" stroke-linejoin="round" stroke-dasharray="3.0192,5.0321" x1="305.989" y1="386.551" x2="305.989" y2="123.375"/>
				<polyline fill="none" stroke="#3A54F5" stroke-width="2.5" stroke-linecap="round" stroke-linejoin="round" points="
					305.989,120.858 305.989,119.358 304.489,119.358 				"/>
				
					<line fill="none" stroke="#3A54F5" stroke-width="2.5" stroke-linecap="round" stroke-linejoin="round" stroke-dasharray="3.0103,5.0172" x1="299.472" y1="119.358" x2="61.157" y2="119.358"/>
				<polyline fill="none" stroke="#3A54F5" stroke-width="2.5" stroke-linecap="round" stroke-linejoin="round" points="
					58.648,119.358 57.148,119.358 57.148,120.858 				"/>
				
					<line fill="none" stroke="#3A54F5" stroke-width="2.5" stroke-linecap="round" stroke-linejoin="round" stroke-dasharray="3.0192,5.0321" x1="57.148" y1="125.891" x2="57.148" y2="389.067"/>
			</g>
		</g>
	</g>
</g>
<g id="_x32_D_x24_AG-DETAILS-DIAGRAM">
	<g id="POLYLINE_00000150064080846580152920000004786730909429543862_">
		<g>
			
				<path fill="none" stroke="#3A54F5" stroke-width="2.5" stroke-linecap="round" stroke-linejoin="round" stroke-dasharray="2.9909,4.9849" d="
				M181.569,393.083c41.903,0.036,81.272-21.269,104.161-56.369c20.019-30.564,25.552-68.829,15.01-103.812
				c-10.241-34.276-35.12-62.761-67.708-77.518c-32.552-14.836-70.372-14.836-102.924,0c-33.282,15.074-58.462,44.413-68.312,79.597
				c-9.726,34.426-3.989,71.808,15.614,101.733C100.297,371.813,139.666,393.12,181.569,393.083z"/>
		</g>
	</g>
	<g id="POLYLINE_00000001638944226920982300000017047030968138906533_">
		<g>
			<g>
				
					<line fill="none" stroke="#3A54F5" stroke-width="2.5" stroke-linecap="round" stroke-linejoin="round" x1="305.989" y1="144.243" x2="304.489" y2="144.243"/>
				
					<line fill="none" stroke="#3A54F5" stroke-width="2.5" stroke-linecap="round" stroke-linejoin="round" stroke-dasharray="3.0103,5.0172" x1="299.472" y1="144.243" x2="61.157" y2="144.243"/>
				
					<line fill="none" stroke="#3A54F5" stroke-width="2.5" stroke-linecap="round" stroke-linejoin="round" x1="58.648" y1="144.243" x2="57.148" y2="144.243"/>
			</g>
		</g>
	</g>
</g>
<g id="_x32_D_x24_AG-FIXTURES">
	<g id="POLYLINE_00000080885087497469207980000002197830884651576207_">
		
			<path fill="none" stroke="#3A54F5" stroke-width="2.5" stroke-linecap="round" stroke-linejoin="round" stroke-miterlimit="10" d="
			M440.382,342.494c0,0.035,0,53.236,0,53.276c-0.002,0.103-0.01,0.211-0.024,0.312c-0.053,0.384-0.194,0.756-0.409,1.079
			c-0.04,0.06-0.087,0.125-0.132,0.181c-1.049,1.314-3.055,1.296-4.081-0.035c-0.209-0.271-0.364-0.586-0.452-0.917
			c-0.038-0.143-0.064-0.293-0.077-0.44c-0.046-0.197,0.013-53.234-0.01-53.455H440.382z"/>
	</g>
	<g id="POLYLINE_00000010297530701985723620000014420566760262722223_">
		
			<path fill="none" stroke="#3A54F5" stroke-width="2.5" stroke-linecap="round" stroke-linejoin="round" stroke-miterlimit="10" d="
			M440.382,387.079c2.59-1.031,4.334-3.59,4.347-6.377c0.035-2.832-1.716-5.449-4.347-6.497"/>
	</g>
	<g id="POLYLINE_00000086690029185276485260000008406463177874814625_">
		
			<path fill="none" stroke="#3A54F5" stroke-width="2.5" stroke-linecap="round" stroke-linejoin="round" stroke-miterlimit="10" d="
			M435.198,374.204c-2.59,1.031-4.334,3.59-4.347,6.377c-0.035,2.832,1.716,5.449,4.347,6.497"/>
	</g>
	<g id="POLYLINE_00000091722440261884712760000000338506553228818074_">
		
			<path fill="none" stroke="#3A54F5" stroke-width="2.5" stroke-linecap="round" stroke-linejoin="round" stroke-miterlimit="10" d="
			M471.265,296.67c1.013,0.053,2.162,0.241,2.777,1.137c0.223,0.314,0.373,0.676,0.496,1.039c0.463,1.376,0.656,3.267,0.886,4.707
			c0.344,2.53,0.904,5.566,0.863,8.11c-0.022,0.682-0.095,1.379-0.343,2.02c-0.055,0.127-0.102,0.261-0.184,0.375
			c-0.075,0.108-0.171,0.202-0.28,0.275c-0.11,0.073-0.234,0.124-0.363,0.151c-10.123,0.291-27.377,0.751-37.328,0.725
			c-9.889,0.012-27.29-0.413-37.328-0.725c-0.123-0.025-0.242-0.074-0.347-0.141c-0.116-0.074-0.218-0.171-0.296-0.285
			c-0.073-0.098-0.115-0.216-0.164-0.326c-0.28-0.695-0.349-1.458-0.365-2.201c-0.022-2.751,0.714-6.686,1.079-9.442
			c0.17-1.036,0.312-2.122,0.633-3.123c0.134-0.412,0.295-0.825,0.551-1.178c0.619-0.879,1.76-1.062,2.762-1.115"/>
	</g>
	<g id="POLYLINE_00000048475999889698155400000001870835147168838060_">
		
			<path fill="none" stroke="#3A54F5" stroke-width="2.5" stroke-linecap="round" stroke-linejoin="round" stroke-miterlimit="10" d="
			M400.459,328.228c10.093,0.266,27.418,0.737,37.331,0.709c9.85,0.029,27.325-0.445,37.331-0.709"/>
	</g>
	<g id="POLYLINE_00000040565975544048210240000007387060782207632523_">
		
			<path fill="none" stroke="#3A54F5" stroke-width="2.5" stroke-linecap="round" stroke-linejoin="round" stroke-miterlimit="10" d="
			M430.998,336.149c0.002,0.018,0.679,5.439,0.682,5.455c0.008,0.053,0.02,0.107,0.035,0.159c0.056,0.184,0.166,0.352,0.312,0.478
			c0.141,0.122,0.316,0.206,0.5,0.238c0.047,0.008,0.096,0.013,0.144,0.015c0.014,0.003,10.181-0.001,10.204,0.001
			c0.247,0.001,0.493-0.091,0.679-0.254c0.146-0.126,0.255-0.294,0.312-0.478c0.016-0.051,0.028-0.106,0.035-0.159
			c0.011-0.018,0.673-5.436,0.682-5.455"/>
	</g>
	<g id="POLYLINE_00000133496733091233603220000004822408713471753116_">
		
			<path fill="none" stroke="#3A54F5" stroke-width="2.5" stroke-linecap="round" stroke-linejoin="round" stroke-miterlimit="10" d="
			M464.317,328.533c-1.14,1.529-2.587,2.825-4.217,3.813c-2.564,1.56-5.504,2.416-8.435,2.971
			c-4.539,0.836-9.267,1.012-13.876,1.027c-4.431-0.013-8.982-0.181-13.354-0.932c-3.049-0.539-6.115-1.38-8.796-2.969
			c-1.694-1.001-3.201-2.33-4.378-3.91"/>
	</g>
	<g id="POLYLINE_00000014622980948416471760000015994189174704126898_">
		
			<rect x="433.604" y="287.213" fill="none" stroke="#3A54F5" stroke-width="2.5" stroke-linecap="round" stroke-linejoin="round" stroke-miterlimit="10" width="8.371" height="1.555"/>
	</g>
	<g id="POLYLINE_00000040545645804717145090000010506963059682295209_">
		
			<rect x="433.604" y="288.768" fill="none" stroke="#3A54F5" stroke-width="2.5" stroke-linecap="round" stroke-linejoin="round" stroke-miterlimit="10" width="8.371" height="5.703"/>
	</g>
	<g id="POLYLINE_00000180358163390953515070000013786558302703202468_">
		
			<polyline fill="none" stroke="#3A54F5" stroke-width="2.5" stroke-linecap="round" stroke-linejoin="round" stroke-miterlimit="10" points="
			435.179,294.471 435.179,295.507 440.363,295.507 440.363,294.471 		"/>
	</g>
	<g id="POLYLINE_00000076569065319739274960000005142702903229988249_">
		
			<rect x="433.604" y="295.507" fill="none" stroke="#3A54F5" stroke-width="2.5" stroke-linecap="round" stroke-linejoin="round" stroke-miterlimit="10" width="8.371" height="4.147"/>
	</g>
	<g id="POLYLINE_00000121274638447719116260000011748607798221172379_">
		
			<line fill="none" stroke="#3A54F5" stroke-width="2.5" stroke-linecap="round" stroke-linejoin="round" stroke-miterlimit="10" x1="433.604" y1="299.655" x2="433.604" y2="315.193"/>
	</g>
	<g id="POLYLINE_00000019647251306999764520000001724341106827619977_">
		
			<line fill="none" stroke="#3A54F5" stroke-width="2.5" stroke-linecap="round" stroke-linejoin="round" stroke-miterlimit="10" x1="437.79" y1="315.207" x2="437.79" y2="315.207"/>
	</g>
	<g id="POLYLINE_00000139270477024396190760000016028867722462369436_">
		
			<line fill="none" stroke="#3A54F5" stroke-width="2.5" stroke-linecap="round" stroke-linejoin="round" stroke-miterlimit="10" x1="441.975" y1="315.193" x2="441.975" y2="299.655"/>
	</g>
	<g id="POLYLINE_00000049933928381080951000000005442085840127018677_">
		
			<path fill="none" stroke="#3A54F5" stroke-width="2.5" stroke-linecap="round" stroke-linejoin="round" stroke-miterlimit="10" d="
			M475.121,328.23l4.694-0.138c0.033-0.003,0.074-0.002,0.107-0.007c0.124-0.012,0.249-0.04,0.367-0.082
			c0.398-0.14,0.732-0.449,0.902-0.835c0.065-0.147,0.108-0.306,0.125-0.466c0.006-0.062,0.01-0.126,0.009-0.188
			c0,0-0.032-1.473-0.032-1.473c-0.224-8.874-1.779-17.922-3.472-26.628c-0.094-0.485-0.368-0.932-0.758-1.235
			c-0.219-0.171-0.473-0.298-0.742-0.369c-0.11-0.029-0.224-0.05-0.337-0.061c-0.268-0.097-33.759-0.323-34.008-0.385"/>
	</g>
	<g id="POLYLINE_00000042726436548078042540000014087755352444660099_">
		
			<path fill="none" stroke="#3A54F5" stroke-width="2.5" stroke-linecap="round" stroke-linejoin="round" stroke-miterlimit="10" d="
			M433.604,296.363c0,0-33.843,0.376-33.843,0.376c-0.054,0.001-0.111,0.004-0.165,0.009c-0.113,0.011-0.227,0.031-0.337,0.061
			c-0.269,0.072-0.523,0.198-0.742,0.369c-0.39,0.303-0.665,0.75-0.758,1.235c-1.694,8.709-3.247,17.751-3.472,26.628
			c0,0-0.032,1.473-0.032,1.473c-0.001,0.061,0.002,0.127,0.009,0.188c0.018,0.169,0.064,0.336,0.136,0.49
			c0.176,0.383,0.516,0.687,0.916,0.82c0.144,0.048,0.297,0.076,0.448,0.08c0,0,4.694,0.138,4.694,0.138"/>
	</g>
	<g id="POLYLINE_00000168804919757257260490000012110409164085518510_">
		
			<path fill="none" stroke="#3A54F5" stroke-width="2.5" stroke-linecap="round" stroke-linejoin="round" stroke-miterlimit="10" d="
			M697.448,342.494c-0.002,0.136,0.005,46.739-0.002,46.864c-0.009,0.247-0.041,0.499-0.097,0.74
			c-0.091,0.396-0.245,0.781-0.453,1.129c-0.577,0.977-1.597,1.673-2.716,1.854c-1.163,0.2-2.403-0.165-3.272-0.964
			c-0.587-0.532-1.006-1.247-1.181-2.019c-0.05-0.218-0.082-0.448-0.094-0.671c-0.012-0.231-0.001-2.201-0.007-2.439
			c-0.022-1.307-0.332-2.612-0.899-3.789c-0.747-1.557-1.951-2.892-3.422-3.796c-0.978-0.603-2.078-1.02-3.21-1.217
			c-0.406-0.07-0.836-0.116-1.248-0.13c-0.073,0.002-0.239-0.009-0.314-0.005c0,0-5.183,0-5.183,0"/>
	</g>
	<g id="POLYLINE_00000006678526121008517030000017758351852117340604_">
		
			<path fill="none" stroke="#3A54F5" stroke-width="2.5" stroke-linecap="round" stroke-linejoin="round" stroke-miterlimit="10" d="
			M702.632,342.494c0,0,0,46.728,0,46.728c-0.006,0.079,0.001,0.237-0.005,0.316c-0.011,0.307-0.039,0.639-0.082,0.943
			c-0.08,0.569-0.216,1.143-0.403,1.686c-0.408,1.193-1.071,2.304-1.928,3.23c-3.212,3.481-8.599,3.902-12.313,0.964
			c-1.866-1.463-3.114-3.682-3.393-6.036c-0.13-0.844-0.035-2.52-0.072-3.383c-0.015-0.29-0.064-0.584-0.143-0.864
			c-0.231-0.823-0.743-1.565-1.431-2.074c-0.487-0.362-1.062-0.609-1.66-0.713c-0.259-0.113-5.434-0.038-5.855-0.058"/>
	</g>
	<g id="POLYLINE_00000146459851930644239990000001208549265262950809_">
		
			<line fill="none" stroke="#3A54F5" stroke-width="2.5" stroke-linecap="round" stroke-linejoin="round" stroke-miterlimit="10" x1="675.348" y1="383.233" x2="675.348" y2="378.049"/>
	</g>
	<g id="POLYLINE_00000109724757341410369430000006759681363992222854_">
		
			<path fill="none" stroke="#3A54F5" stroke-width="2.5" stroke-linecap="round" stroke-linejoin="round" stroke-miterlimit="10" d="
			M669.127,330.784c23.195-0.082,49.224,0.166,72.259-1.876c0.32-0.051,0.629-0.18,0.891-0.371c0.266-0.194,0.486-0.452,0.633-0.747
			c0.084-0.167,0.145-0.346,0.181-0.529c0.146-1.399,0.31-3.995,0.407-5.396c0.063-1.241,0.213-3.431,0.214-4.668
			c-0.016-0.247-0.061-0.494-0.135-0.73c-0.261-0.848-0.903-1.567-1.717-1.92c-0.287-0.126-0.595-0.209-0.907-0.244
			c-2.184-0.066-7.478,0.04-9.585-0.077c-8.298-0.383-16.664-1.856-24.751-3.719c-8.197-1.972-16.491-4.37-24.126-7.987
			c-1.727-0.842-3.479-1.784-5.058-2.883c-0.932-0.654-1.846-1.38-2.609-2.231c0,0-0.085-0.097-0.085-0.097l-0.083-0.097
			c0,0-0.08-0.097-0.08-0.097c-0.058-0.073-0.129-0.146-0.197-0.21c-0.167-0.154-0.361-0.282-0.569-0.374
			c-0.175-0.077-0.363-0.131-0.552-0.158c-0.053-0.007-0.124-0.015-0.179-0.017c0,0-0.036-0.002-0.036-0.002
			s-0.036-0.001-0.036-0.001s-0.036,0-0.036,0s-3.844,0-3.844,0S669.127,330.784,669.127,330.784z"/>
	</g>
	<g id="POLYLINE_00000039114523298089674890000012335491761013009843_">
		
			<line fill="none" stroke="#3A54F5" stroke-width="2.5" stroke-linecap="round" stroke-linejoin="round" stroke-miterlimit="10" x1="675.348" y1="378.049" x2="670.599" y2="373.702"/>
	</g>
	<g id="POLYLINE_00000075156800989282992620000016389529783763361465_">
		
			<line fill="none" stroke="#3A54F5" stroke-width="2.5" stroke-linecap="round" stroke-linejoin="round" stroke-miterlimit="10" x1="675.348" y1="383.233" x2="670.599" y2="387.581"/>
	</g>
	<g id="POLYLINE_00000010301059930984152170000012461791378176027532_">
		
			<rect x="669.127" y="373.702" fill="none" stroke="#3A54F5" stroke-width="2.5" stroke-linecap="round" stroke-linejoin="round" stroke-miterlimit="10" width="1.473" height="13.879"/>
	</g>
	<g id="POLYLINE_00000168109099470698209380000018056343145851679655_">
		
			<path fill="none" stroke="#3A54F5" stroke-width="2.5" stroke-linecap="round" stroke-linejoin="round" stroke-miterlimit="10" d="
			M733.633,329.513c-1.572,2.638-3.609,5.053-6.278,6.628c-2.016,1.213-4.292,1.954-6.584,2.443
			c-3.538,0.745-7.242,0.977-10.851,1.111c-0.755,0.026-2.196,0.055-2.951,0.072c-0.077,0.006-0.154,0.022-0.228,0.045
			c-0.28,0.088-0.516,0.3-0.633,0.569c-0.125,0.251-0.162,1.144-0.258,1.414c-0.07,0.205-0.208,0.387-0.386,0.511
			c-0.054,0.038-0.113,0.071-0.173,0.098c-0.11,0.049-0.229,0.079-0.349,0.087c-0.023,0.001-0.05,0.003-0.072,0.003
			c0,0-9.659,0-9.659,0c-0.114,0-0.229-0.019-0.337-0.056c-0.28-0.095-0.514-0.317-0.624-0.592c-0.027-0.067-0.047-0.137-0.06-0.208
			c-0.032-0.052-0.755-5.47-0.78-5.526c-0.017-0.106-0.051-0.21-0.099-0.306c-0.073-0.144-0.18-0.271-0.31-0.366
			c-0.123-0.089-0.271-0.148-0.402-0.224c-0.39-0.216-0.763-0.477-1.093-0.778c-1.048-0.94-1.613-2.307-1.777-3.687"/>
	</g>
	<g id="POLYLINE_00000013174204226906646810000011822641482749800848_">
		
			<path fill="none" stroke="#3A54F5" stroke-width="2.5" stroke-linecap="round" stroke-linejoin="round" stroke-miterlimit="10" d="
			M677.594,291.741l3.149,2.73h5.222v-5.703h10.368v-1.555c-4.637,0-14.146,0-18.739,0V291.741z"/>
	</g>
	<g id="POLYLINE_00000157281908550561376940000005463213251610249094_">
		
			<polyline fill="none" stroke="#3A54F5" stroke-width="2.5" stroke-linecap="round" stroke-linejoin="round" stroke-miterlimit="10" points="
			679.168,293.106 679.168,295.507 684.352,295.507 684.352,294.471 		"/>
	</g>
	<g id="POLYLINE_00000028298274511260712200000015068776459738777001_">
		
			<path fill="none" stroke="#3A54F5" stroke-width="2.5" stroke-linecap="round" stroke-linejoin="round" stroke-miterlimit="10" d="
			M685.965,304.075v-4.42h16.513v-4.147c-5.535,0-19.531,0-24.884,0v4.24"/>
	</g>
	<g id="POLYLINE_00000107546879477186439050000009324141726688430502_">
		
			<path fill="none" stroke="#3A54F5" stroke-width="2.5" stroke-linecap="round" stroke-linejoin="round" stroke-miterlimit="10" d="
			M88.254,119.359c0.009,23.462,1,47.967,3.236,71.322c0.069,0.473,0.308,0.918,0.664,1.237c0.31,0.28,0.707,0.463,1.121,0.516
			c12.632,0.982,25.857,1.571,38.526,1.577c12.668-0.006,25.896-0.595,38.526-1.577c0.414-0.053,0.812-0.236,1.121-0.516
			c0.356-0.319,0.595-0.765,0.664-1.237c2.234-23.353,3.229-47.863,3.236-71.322H88.254z"/>
	</g>
	<g id="POLYLINE_00000004518013753725965350000009095837442935392160_">
		
			<path fill="none" stroke="#3A54F5" stroke-width="2.5" stroke-linecap="round" stroke-linejoin="round" stroke-miterlimit="10" d="
			M93.792,185.471c-0.192-10.355-0.574-22.57-0.073-32.856c0.215-4.506,0.688-9.075,1.787-13.458
			c0.57-2.322,1.199-4.704,2.148-6.901c0.549-1.265,1.211-2.503,2.086-3.574c0.833-1.024,1.895-1.889,3.137-2.359
			c0.413-0.158,0.845-0.275,1.282-0.349c0.328-0.056,0.668-0.089,1.002-0.101c0.18-0.023,52.775,0.007,53.001-0.005
			c1.035-0.002,2.078,0.203,3.016,0.648c1.051,0.493,1.953,1.27,2.684,2.166c0.813,0.994,1.443,2.137,1.968,3.305
			c0.842,1.885,1.437,3.913,1.954,5.909c0.48,1.928,0.97,4.022,1.268,5.986c0.452,2.855,0.684,5.847,0.832,8.734
			c0.502,10.269,0.132,22.534-0.073,32.856"/>
	</g>
	<g id="POLYLINE_00000066495366101316369910000016392540510333327759_">
		
			<path fill="none" stroke="#3A54F5" stroke-width="2.5" stroke-linecap="round" stroke-linejoin="round" stroke-miterlimit="10" d="
			M135.986,132.011c0.003-1.037-0.398-2.067-1.101-2.829c-0.96-1.06-2.471-1.56-3.874-1.281c-1.307,0.243-2.463,1.149-3.012,2.36
			c-0.191,0.415-0.314,0.864-0.361,1.318c-0.012,0.115-0.02,0.245-0.022,0.36c-0.013,0.064,0.008,14.555-0.001,14.626h8.371V132.011
			z"/>
	</g>
	<g id="POLYLINE_00000043438754539105659250000000610120969962530228_">
		
			<path fill="none" stroke="#3A54F5" stroke-width="2.5" stroke-linecap="round" stroke-linejoin="round" stroke-miterlimit="10" d="
			M135.986,132.011c0.003-1.012-0.379-2.02-1.053-2.775c-0.891-1.019-2.295-1.551-3.637-1.379c-1.369,0.157-2.623,1.039-3.235,2.274
			c-0.216,0.429-0.358,0.899-0.416,1.376c-0.017,0.139-0.028,0.292-0.03,0.432c-0.029,0.086,0.019,20.684-0.001,20.771h8.371
			V132.011z"/>
	</g>
	<g id="POLYLINE_00000000203017351103360870000008514483245670586536_">
		
			<path fill="none" stroke="#3A54F5" stroke-width="2.5" stroke-linecap="round" stroke-linejoin="round" stroke-miterlimit="10" d="
			M127.615,140.089c-6.426,0.239-12.9,1.051-19.183,2.421c-1.314,0.285-2.559,0.898-3.585,1.767
			c-1.324,1.114-2.284,2.655-2.698,4.334c-0.091,0.368-0.161,0.758-0.2,1.135c-0.441,4.214-0.741,8.955-0.92,13.19
			c-0.093,2.206-0.239,7.567-0.252,9.829c0.02,0.524,0.091,1.058,0.21,1.568c0.483,2.109,1.83,4.001,3.667,5.146
			c0.893,0.561,1.899,0.951,2.937,1.139c7.955,1.438,16.128,2.129,24.21,2.128c8.082,0.001,16.255-0.689,24.21-2.128
			c1.038-0.187,2.044-0.577,2.937-1.139c1.836-1.145,3.185-3.036,3.667-5.146c0.118-0.511,0.19-1.044,0.21-1.568
			c-0.009-2.282-0.163-7.61-0.252-9.829c-0.183-4.236-0.476-8.976-0.92-13.19c-0.041-0.376-0.108-0.768-0.2-1.135
			c-0.415-1.68-1.374-3.221-2.698-4.334c-1.027-0.868-2.271-1.482-3.585-1.767c-6.283-1.369-12.757-2.182-19.183-2.421"/>
	</g>
</g>
<g id="_x32_D_x24_AG-BUILDINGS">
</g>
<g id="_x32_D_x24_AG-OUTLINE">
</g>
<g id="Isolation_Mode">
</g>
</svg>
