<?xml version="1.0" encoding="utf-8"?>
<!-- Generator: Adobe Illustrator 26.0.2, SVG Export Plug-In . SVG Version: 6.00 Build 0)  -->
<!DOCTYPE svg PUBLIC "-//W3C//DTD SVG 1.1//EN" "http://www.w3.org/Graphics/SVG/1.1/DTD/svg11.dtd" [
	<!ENTITY ns_flows "http://ns.adobe.com/Flows/1.0/">
	<!ENTITY ns_extend "http://ns.adobe.com/Extensibility/1.0/">
	<!ENTITY ns_ai "http://ns.adobe.com/AdobeIllustrator/10.0/">
	<!ENTITY ns_graphs "http://ns.adobe.com/Graphs/1.0/">
	<!ENTITY ns_vars "http://ns.adobe.com/Variables/1.0/">
	<!ENTITY ns_imrep "http://ns.adobe.com/ImageReplacement/1.0/">
	<!ENTITY ns_sfw "http://ns.adobe.com/SaveForWeb/1.0/">
	<!ENTITY ns_custom "http://ns.adobe.com/GenericCustomNamespace/1.0/">
	<!ENTITY ns_adobe_xpath "http://ns.adobe.com/XPath/1.0/">
]>
<svg version="1.1" xmlns:x="&ns_extend;" xmlns:i="&ns_ai;" xmlns:graph="&ns_graphs;"
	 xmlns="http://www.w3.org/2000/svg" xmlns:xlink="http://www.w3.org/1999/xlink" xmlns:a="http://ns.adobe.com/AdobeSVGViewerExtensions/3.0/"
	 x="0px" y="0px" width="1000px" height="400px" viewBox="0 0 1000 400" enable-background="new 0 0 1000 400" xml:space="preserve"
	>
<metadata>
	<sfw  xmlns="&ns_sfw;">
		<slices></slices>
		<sliceSourceBounds  bottomLeftOrigin="true" height="12900" width="3000" x="-2000" y="-6108"></sliceSourceBounds>
	</sfw>
</metadata>
<g id="FILL-BACKGROUND">
	<rect x="0" y="0" display="none" fill="#FFFFFF" width="1000" height="400"/>
</g>
<g id="_x32_D_x24_AG-DETAILS">
	<g id="POLYLINE_00000126305055320044776600000006279235766909750206_">
		
			<polyline fill="none" stroke="#3A54F5" stroke-width="1.5" stroke-linecap="round" stroke-linejoin="round" stroke-miterlimit="10" points="
			903.846,209.228 903.846,320.007 596.154,320.007 596.154,209.228 		"/>
	</g>
	<g id="POLYLINE_00000116227101944824424820000002570610193142196387_">
		
			<line fill="none" stroke="#3A54F5" stroke-width="1.5" stroke-linecap="round" stroke-linejoin="round" stroke-miterlimit="10" x1="781.681" y1="127.699" x2="822.318" y2="127.699"/>
	</g>
	<g id="POLYLINE_00000173148297628378062770000013533672046023505315_">
		
			<line fill="none" stroke="#3A54F5" stroke-width="1.5" stroke-linecap="round" stroke-linejoin="round" stroke-miterlimit="10" x1="677.682" y1="127.699" x2="718.319" y2="127.699"/>
	</g>
	<g id="POLYLINE_00000133489007975987561640000007238490428601479319_">
		
			<polyline fill="none" stroke="#3A54F5" stroke-width="1.5" stroke-linecap="round" stroke-linejoin="round" stroke-miterlimit="10" points="
			403.846,209.228 403.846,320.007 96.154,320.007 96.154,209.228 		"/>
	</g>
	<g id="POLYLINE_00000073717813165378842970000009676987114073526403_">
		
			<line fill="none" stroke="#3A54F5" stroke-width="1.5" stroke-linecap="round" stroke-linejoin="round" stroke-miterlimit="10" x1="281.681" y1="127.699" x2="322.317" y2="127.699"/>
	</g>
	<g id="POLYLINE_00000044864534924545223170000011181605748294847419_">
		
			<line fill="none" stroke="#3A54F5" stroke-width="1.5" stroke-linecap="round" stroke-linejoin="round" stroke-miterlimit="10" x1="177.683" y1="127.699" x2="218.319" y2="127.699"/>
	</g>
</g>
<g id="_x32_D_x24_AG-ANIMALS">
</g>
<g id="_x32_D_x24_AG-PEOPLE">
	<g id="POLYLINE_00000068676789050248851620000013950445202192895627_">
		
			<polyline fill="none" stroke="#3A54F5" stroke-width="1.75" stroke-linecap="round" stroke-linejoin="round" stroke-miterlimit="10" points="
			676.923,180.288 655.779,201.599 641.638,187.569 644.022,185.166 		"/>
	</g>
	<g id="POLYLINE_00000071549027049804136070000002322800132172765064_">
		
			<line fill="none" stroke="#3A54F5" stroke-width="1.75" stroke-linecap="round" stroke-linejoin="round" stroke-miterlimit="10" x1="652.21" y1="176.913" x2="661.549" y2="167.501"/>
	</g>
	<g id="POLYLINE_00000126283836516888172600000010175959502229180092_">
		
			<path fill="none" stroke="#3A54F5" stroke-width="1.75" stroke-linecap="round" stroke-linejoin="round" stroke-miterlimit="10" d="
			M619.394,179.545c1.403,1.192,3.087,2.616,4.378,3.897c3.371,3.297,8.781,9.614,12.097,13.005c0.383,0.367,0.783,0.739,1.26,0.98
			c0.33,0.169,0.713,0.241,1.079,0.166c0.589-0.117,1.099-0.478,1.531-0.882c0.968-0.903,1.535-2.245,2.25-3.337
			c0.673-1.073,1.78-1.925,2.653-2.826"/>
	</g>
	<g id="POLYLINE_00000007401219297687379820000000622501945034066345_">
		
			<path fill="none" stroke="#3A54F5" stroke-width="1.75" stroke-linecap="round" stroke-linejoin="round" stroke-miterlimit="10" d="
			M656.356,201.017c1.335,1.562,2.529,3.398,3.945,4.89c1.333,1.47,3.548,3.076,5.112,4.32c0.933,0.767,1.921,1.551,2.538,2.608
			c0.216,0.369,0.38,0.771,0.508,1.179c0.347,1.196,0.659,2.481,0.89,3.705c0.224,1.18,0.353,2.535,0.887,3.621
			c0.192,0.386,0.447,0.751,0.787,1.021c1.622,1.26,4.178-0.182,5.134-1.684c0.218-0.338,0.38-0.715,0.451-1.111
			c0.093-0.505,0.049-1.029-0.072-1.525c-0.507-2.036-2.124-3.626-3.11-5.426c-0.96-1.729-1.354-3.902-2.039-5.744
			c-0.869-2.412-2.103-4.71-3.433-6.897c-0.754-1.193-3.3-5.407-4.094-6.521"/>
	</g>
	<g id="POLYLINE_00000139273772706544802870000015758700669128584621_">
		
			<path fill="none" stroke="#3A54F5" stroke-width="1.75" stroke-linecap="round" stroke-linejoin="round" stroke-miterlimit="10" d="
			M643.198,191.938c2.126,0.862,4.163,1.991,6.094,3.226"/>
	</g>
	<g id="POLYLINE_00000050664550306440283200000006881736069659841973_">
		
			<line fill="none" stroke="#3A54F5" stroke-width="1.75" stroke-linecap="round" stroke-linejoin="round" stroke-miterlimit="10" x1="667.025" y1="190.264" x2="652.884" y2="176.234"/>
	</g>
	<g id="POLYLINE_00000035514095309660652490000018399926754983359874_">
		
			<path fill="none" stroke="#3A54F5" stroke-width="1.75" stroke-linecap="round" stroke-linejoin="round" stroke-miterlimit="10" d="
			M682.428,203.674c0.417,0.701,0.928,1.355,1.55,1.887c0.75,0.643,1.637,1.119,2.561,1.461c1.768,0.647,3.683,0.791,5.551,0.859
			c1.896,0.065,3.908-0.068,5.559-1.094c0.651-0.403,1.268-0.93,1.599-1.633c0.31-0.656,0.255-1.429-0.021-2.086
			c-0.505-1.223-1.61-2.064-2.733-2.693c-0.631-0.353-1.318-0.665-1.985-0.945c-1.034-0.437-2.128-0.768-3.249-0.879
			c-1.01-0.103-2.038-0.054-3.043,0.074c-0.499,0.073-1.101,0.155-1.557,0.364"/>
	</g>
	<g id="POLYLINE_00000155139163669765279110000006988720118788948353_">
		
			<path fill="none" stroke="#3A54F5" stroke-width="1.75" stroke-linecap="round" stroke-linejoin="round" stroke-miterlimit="10" d="
			M669.27,217.306c-0.299,0.427-0.592,0.882-0.697,1.4c-0.078,0.366-0.068,0.745-0.027,1.115c0.071,0.622,0.234,1.242,0.417,1.84
			c0.566,1.802,1.337,3.562,2.39,5.134c0.637,0.943,1.391,1.835,2.341,2.476c0.598,0.398,1.29,0.72,2.021,0.719
			c0.29-0.002,0.581-0.066,0.84-0.195c0.329-0.164,0.604-0.418,0.837-0.699c0.742-0.928,1.13-2.09,1.387-3.237
			c0.287-1.35,0.34-2.753,0.205-4.125c-0.113-1.092-0.335-2.188-0.765-3.202c-0.377-0.892-0.936-1.7-1.58-2.419
			c-0.634-0.706-1.358-1.341-2.158-1.852"/>
	</g>
	<g id="POLYLINE_00000091699780441249616240000017685473959438407578_">
		
			<path fill="none" stroke="#3A54F5" stroke-width="1.75" stroke-linecap="round" stroke-linejoin="round" stroke-miterlimit="10" d="
			M666.377,197.429c2.871,1.906,6.01,3.482,9.278,4.582c1.273,0.423,2.653,0.766,3.965,1.049c0.824,0.176,2.389,0.488,3.175,0.712
			c0.802,0.219,1.578,0.555,2.255,1.041c0.544,0.371,1.167,0.864,1.782,1.103c0.506,0.2,1.076,0.299,1.611,0.161
			c0.532-0.132,0.93-0.554,1.164-1.034c0.555-1.078,0.269-2.413,0.782-3.504c0.269-0.582,0.818-0.984,1.282-1.404
			c0.118-0.114,0.279-0.255,0.319-0.417l0.001-0.004l0.001-0.004l0.001-0.004l0.001-0.004l0.001-0.004l0-0.004l0-0.004l0-0.004
			l0-0.004l0-0.004l0-0.004l0-0.004l0-0.004l0-0.004l0-0.004l0-0.004l-0.001-0.004l-0.001-0.004l-0.001-0.004l-0.001-0.004
			l-0.001-0.004l-0.001-0.004l-0.001-0.004l-0.001-0.004l-0.001-0.004l-0.001-0.004l-0.002-0.004l-0.002-0.004l-0.002-0.004
			l-0.002-0.004l-0.002-0.004l-0.002-0.004l-0.002-0.004l-0.002-0.004l-0.002-0.004l-0.002-0.004l-0.002-0.004
			c-0.046-0.073-0.12-0.124-0.195-0.166c-0.169-0.092-0.357-0.147-0.543-0.194c-1.476-0.343-3.255-0.272-4.758-0.434
			c-0.936-0.095-1.875-0.275-2.753-0.62c-1.932-0.768-3.61-2.072-5.11-3.491l-1.509-1.477c-1.064-1.03-2.283-1.917-3.538-2.699
			c-1.43-0.887-2.955-1.692-4.517-2.32"/>
	</g>
	<g id="POLYLINE_00000150815330343319271530000001499226988204030092_">
		
			<path fill="none" stroke="#3A54F5" stroke-width="1.75" stroke-linecap="round" stroke-linejoin="round" stroke-miterlimit="10" d="
			M618.165,152.306c1.976-1.887,4.218-4.547,6.163-6.475c0.574-0.551,1.187-1.08,1.84-1.536c1.525-1.087,3.341-1.706,5.184-1.974
			c1.474-0.216,2.991-0.27,4.467-0.048c1.029,0.143,2.089,0.566,3.06,0.927c0.664,0.243,1.359,0.428,2.068,0.459
			c1.177,0.076,2.456-0.133,3.622,0.086c0.696,0.134,1.345,0.45,1.952,0.808c1.799,1.086,3.993,2.592,5.882,3.482
			c1.341,0.652,2.867,1.215,4.044,2.146c0.33,0.277,0.66,0.608,0.766,1.039c0.069,0.295,0.007,0.605-0.108,0.881
			c-0.274,0.671-0.857,1.246-1.329,1.784c-1.242,1.356-1.697,3.326-2.626,4.876c-0.172,0.283-0.362,0.564-0.605,0.791
			c-0.133,0.122-0.286,0.229-0.461,0.281c-0.298,0.09-0.616,0.003-0.883-0.137c-0.691-0.377-1.225-1.003-1.754-1.574
			c-0.644-0.729-1.41-1.674-2.161-2.283c-0.645-0.539-1.359-1.026-2.066-1.481c-0.869-0.552-1.786-1.075-2.726-1.496"/>
	</g>
	<g id="POLYLINE_00000123416447047898183890000012922227086201886352_">
		
			<path fill="none" stroke="#3A54F5" stroke-width="1.75" stroke-linecap="round" stroke-linejoin="round" stroke-miterlimit="10" d="
			M612.129,169.163c-0.675-1.958-1.026-4.078-1.347-6.122c-0.12-0.856-0.233-1.738-0.123-2.6c0.066-0.55,0.281-1.077,0.617-1.517
			c0.167-0.225,0.362-0.439,0.559-0.64c1.368-1.307,3.798-3.521,5.157-4.836"/>
	</g>
	<g id="POLYLINE_00000180362824049316257690000015827928538056202407_">
		
			<path fill="none" stroke="#3A54F5" stroke-width="1.75" stroke-linecap="round" stroke-linejoin="round" stroke-miterlimit="10" d="
			M610.997,169.932c-0.901-1.972-1.696-4.032-2.15-6.157c-0.298-1.324-0.356-2.891-0.553-4.234
			c-0.048-0.298-0.109-0.603-0.198-0.891c-0.088-0.299-0.269-0.689-0.391-0.978c-0.149-0.353-0.262-0.731-0.248-1.118
			c0.028-0.703,0.371-1.382,0.704-1.989c0.851-1.472,1.955-2.799,3.151-4.003c0.66-0.673,1.603-1.411,2.339-2.008
			c0.433-0.359,0.856-0.749,1.204-1.192c0.567-0.72,1.114-1.813,1.575-2.612c0.594-1.04,1.297-2.039,2.2-2.834
			c0.774-0.692,1.65-1.273,2.578-1.736c0.848-0.42,1.752-0.751,2.685-0.921c0.568-0.104,1.153-0.133,1.728-0.092
			c0.879,0.054,1.955,0.316,2.823,0.485c1.745,0.373,3.775,0.218,5.551,0.276c0.465,0.02,0.937,0.075,1.385,0.207
			c0.849,0.26,1.727,0.704,2.539,1.065c1.496,0.707,3.001,1.477,4.333,2.464"/>
	</g>
	<g id="POLYLINE_00000003105982186987361910000010426448103973798553_">
		
			<path fill="none" stroke="#3A54F5" stroke-width="1.75" stroke-linecap="round" stroke-linejoin="round" stroke-miterlimit="10" d="
			M652.531,159.566l3.65,3.093c0.858,0.733,4.349,3.92,5.25,4.739c1.156,1.023,2.403,2.057,3.67,2.934
			c1.3,0.912,2.948,1.962,4.069,3.076c0.725,0.705,1.378,1.496,1.916,2.352c0.543,0.827,1.051,2.078,1.461,2.985
			c0.279,0.59,0.584,1.196,1.074,1.64c0.179,0.159,0.38,0.303,0.611,0.374c0.107,0.031,0.224,0.045,0.332,0.009
			c0.083-0.027,0.152-0.086,0.202-0.156c0.081-0.113,0.126-0.248,0.16-0.382c0.075-0.31,0.091-0.636,0.101-0.954l0.006-0.614
			c0.006-0.157,0.005-0.322,0.055-0.472c0.012-0.033,0.028-0.066,0.054-0.09l0.002-0.002l0.002-0.002l0.002-0.001l0.002-0.001
			l0.002-0.001l0.002-0.001l0.002-0.001l0.002-0.001l0.002-0.001l0.002-0.001l0.002-0.001l0.002-0.001l0.002-0.001l0.002-0.001
			l0.002-0.001l0.002-0.001l0.002-0.001l0.002-0.001l0.002-0.001l0.002-0.001l0.002-0.001l0.002-0.001l0.002-0.001l0.002-0.001
			l0.002-0.001l0.002-0.001l0.002,0l0.002,0l0.002,0l0.002,0l0.002,0l0.003,0l0.003,0l0.003,0l0.003,0h0.003l0.003,0l0.003,0
			l0.004,0l0.004,0l0.004,0l0.004,0l0.004,0.001l0.004,0.001l0.004,0.001l0.004,0.001l0.004,0.001
			c0.063,0.016,0.118,0.053,0.17,0.09c0.12,0.09,0.227,0.2,0.328,0.311c0.481,0.555,0.9,1.178,1.182,1.858
			c0.359,0.881,0.376,1.888,0.657,2.791c0.075,0.222,0.181,0.519,0.394,0.638c0.132,0.071,0.291,0.034,0.417-0.031
			c0.173-0.088,0.321-0.22,0.455-0.358c0.221-0.231,0.41-0.496,0.573-0.769c0.686-1.142,0.863-2.534,0.653-3.837
			c-0.162-1.026-0.539-2.025-1.134-2.878c-0.597-0.873-1.466-1.52-2.386-2.023c-0.76-0.433-1.849-0.855-2.632-1.248
			c-0.38-0.194-0.747-0.426-1.068-0.708c-0.395-0.347-0.74-0.759-1.065-1.172c-0.902-1.186-1.988-2.723-2.911-3.893
			c-0.874-1.103-11.088-14.321-11.716-14.96"/>
	</g>
	<g id="POLYLINE_00000098932509070953159230000013197364017691390342_">
		
			<path fill="none" stroke="#3A54F5" stroke-width="1.75" stroke-linecap="round" stroke-linejoin="round" stroke-miterlimit="10" d="
			M643.052,183.643c0.815,1.44,1.84,2.778,3.047,3.912c0.845,0.789,1.802,1.48,2.759,2.126c1.284,0.859,2.686,1.724,4.033,2.479
			c0.467,0.251,0.957,0.51,1.493,0.562c0.281,0.027,0.569-0.02,0.826-0.135c0.384-0.171,0.712-0.446,1.007-0.742
			c0.495-0.504,0.908-1.093,1.258-1.705c0.342-0.624,0.704-1.34,0.665-2.07c-0.015-0.227-0.08-0.452-0.196-0.648
			c-0.197-0.334-0.5-0.592-0.806-0.823c-0.935-0.678-2.005-1.236-2.844-2.039c-0.221-0.212-0.432-0.443-0.583-0.711
			c-0.075-0.136-0.134-0.285-0.149-0.441c-0.015-0.149,0.013-0.3,0.074-0.436c0.128-0.287,0.374-0.507,0.641-0.665
			c0.257-0.16,0.623-0.269,0.905-0.38c0.278-0.107,0.557-0.237,0.77-0.449c0.209-0.208,0.345-0.481,0.423-0.763
			c0.046-0.177,0.074-0.365,0.042-0.547c-0.016-0.086-0.05-0.175-0.118-0.234l-0.004-0.003l-0.004-0.003l-0.004-0.003l-0.004-0.003
			l-0.004-0.003l-0.004-0.003l-0.004-0.003l-0.004-0.003l-0.004-0.003l-0.004-0.003l-0.004-0.002
			c-0.081-0.045-0.177-0.05-0.267-0.044c-0.211,0.018-0.416,0.088-0.616,0.154c-0.618,0.222-1.278,0.48-1.935,0.535
			c-0.89,0.094-1.816-0.054-2.694-0.201"/>
	</g>
	<g id="POLYLINE_00000158723809908078462080000013182192546182331292_">
		
			<path fill="none" stroke="#3A54F5" stroke-width="1.75" stroke-linecap="round" stroke-linejoin="round" stroke-miterlimit="10" d="
			M610.687,170.749c-0.51,0.361-0.953,0.828-1.248,1.381c-0.269,0.499-0.408,1.069-0.381,1.636c0.03,0.738,0.323,1.439,0.709,2.06
			c0.5,0.802,1.149,1.51,1.879,2.11c0.602,0.49,1.27,0.911,1.995,1.193c0.696,0.271,1.442,0.402,2.185,0.452
			c0.948,0.078,2.343-0.01,3.304-0.03c0.822-0.023,1.691-0.006,2.511,0.049c1.684,0.109,3.498,0.367,5.166,0.635
			c3.559,0.608,8.016,1.361,11.507,2.193"/>
	</g>
	<g id="POLYLINE_00000022519714689050019840000011463530221131706046_">
		
			<path fill="none" stroke="#3A54F5" stroke-width="1.75" stroke-linecap="round" stroke-linejoin="round" stroke-miterlimit="10" d="
			M645.689,159.452c0.241-1.02,0.743-3.068,1.002-4.083"/>
	</g>
	<g id="POLYLINE_00000039133685849090510910000012491192208894577338_">
		
			<path fill="none" stroke="#3A54F5" stroke-width="1.75" stroke-linecap="round" stroke-linejoin="round" stroke-miterlimit="10" d="
			M628.915,175.638c-0.705,0.657-1.517,1.205-2.374,1.644c-0.727,0.366-1.503,0.666-2.312,0.781
			c-0.542,0.08-1.096,0.022-1.625-0.113c-0.617-0.157-1.254-0.371-1.885-0.461c-0.529-0.082-1.072-0.084-1.605-0.049
			c-1.657,0.097-3.44,0.527-5.103,0.506c-0.319-0.013-0.646-0.044-0.945-0.166c-0.201-0.082-0.378-0.223-0.499-0.404
			c-0.166-0.245-0.243-0.539-0.304-0.825c-0.054-0.288-0.138-0.755-0.209-1.036c-0.074-0.283-0.175-0.569-0.282-0.841
			c-0.405-1.014-1.004-2.094-1.092-3.2c-0.044-0.52-0.011-1.093,0.308-1.528c0.236-0.315,0.593-0.509,0.938-0.683
			c0.259-0.126,0.787-0.381,1.034-0.515c0.821-0.443,2.157-1.213,3.001-1.572"/>
	</g>
	<g id="POLYLINE_00000029004770849966639450000012914483540484631440_">
		
			<path fill="none" stroke="#3A54F5" stroke-width="1.75" stroke-linecap="round" stroke-linejoin="round" stroke-miterlimit="10" d="
			M627.552,165.894c-0.852-0.369-1.679-0.829-2.377-1.445c-0.915-0.809-1.619-1.835-2.257-2.869l-1.147-1.966
			c-0.247-0.41-0.518-0.823-0.815-1.199c-0.542-0.681-1.284-1.417-1.862-2.072c-0.837-0.961-1.707-2.049-2.252-3.205
			c-0.101-0.238-0.222-0.533-0.179-0.795l0.002-0.008l0.002-0.008l0.002-0.008l0.002-0.007l0.002-0.007l0.002-0.007l0.002-0.007
			l0.003-0.007l0.003-0.007l0.003-0.007l0.003-0.007l0.003-0.007l0.003-0.007l0.003-0.006l0.003-0.006l0.004-0.006l0.004-0.006
			l0.004-0.006l0.004-0.006l0.004-0.006l0.004-0.006l0.004-0.006l0.005-0.005l0.005-0.005l0.005-0.005l0.005-0.005l0.005-0.005
			l0.005-0.005l0.005-0.005l0.005-0.005l0.006-0.004l0.007-0.005l0.007-0.005l0.007-0.005l0.008-0.005l0.008-0.005l0.008-0.004
			l0.008-0.004l0.008-0.004l0.009-0.004l0.009-0.004l0.009-0.004l0.009-0.003l0.009-0.003l0.01-0.003l0.01-0.003l0.01-0.003
			l0.01-0.003l0.01-0.002l0.01-0.002c0.146-0.029,0.297-0.014,0.443,0.009c0.309,0.052,0.613,0.152,0.907,0.261
			c0.728,0.276,1.44,0.634,2.12,1.012c0.637,0.359,1.272,0.753,1.85,1.202c0.417,0.312,0.932,0.805,1.42,0.988
			c0.221,0.086,0.459,0.126,0.694,0.15c0.719,0.064,1.565,0.045,2.273,0.19c1.082,0.2,2.062,0.761,2.926,1.425
			c1.027,0.8,1.927,1.774,2.626,2.873"/>
	</g>
	<g id="POLYLINE_00000103957067145622964900000006526255564068085395_">
		
			<path fill="none" stroke="#3A54F5" stroke-width="1.75" stroke-linecap="round" stroke-linejoin="round" stroke-miterlimit="10" d="
			M627.125,167.316c-0.135,0.753-0.037,1.526,0.141,2.264c0.229,0.861,0.558,2.448,0.739,3.335c0.241,1.097,0.567,2.199,1.155,3.164
			c0.59,0.99,1.429,1.811,2.327,2.523c1.049,0.832,2.21,1.565,3.377,2.219c1.309,0.731,2.692,1.373,4.118,1.843
			c1.355,0.444,2.76,0.792,4.172,0.995c0.658,0.089,1.338,0.155,1.994,0.023c0.893-0.179,1.727-0.595,2.521-1.028
			c1.028-0.58,2.017-1.264,2.862-2.091c0.492-0.488,0.946-1.034,1.236-1.668c0.297-0.644,0.407-1.358,0.447-2.061
			c0.039-0.748,0.03-1.599,0.198-2.33c0.219-0.982,0.683-1.951,0.756-2.964c0.049-0.621-0.062-1.245-0.23-1.841
			c-0.37-1.3-1.045-2.586-1.62-3.806c-0.567-1.178-1.256-2.314-2.068-3.339c-0.609-0.773-1.282-1.514-2.041-2.141
			c-0.49-0.402-1.026-0.765-1.618-0.998c-0.542-0.215-1.127-0.31-1.705-0.362l-1.446-0.112c-0.585-0.053-1.171-0.171-1.736-0.33
			l-1.685-0.49c-0.647-0.171-1.32-0.333-1.993-0.268c-0.323,0.033-0.637,0.136-0.928,0.279c-0.584,0.284-1.175,0.79-1.726,1.132
			c-0.589,0.377-1.398,0.639-2.053,0.885c-0.431,0.163-0.861,0.355-1.235,0.627c-0.47,0.335-0.865,0.769-1.22,1.222
			c-0.726,0.95-1.382,1.978-1.922,3.044C627.584,165.761,627.265,166.52,627.125,167.316z"/>
	</g>
	<g id="POLYLINE_00000119104133456613934630000014434161777570786225_">
		
			<path fill="none" stroke="#3A54F5" stroke-width="1.75" stroke-linecap="round" stroke-linejoin="round" stroke-miterlimit="10" d="
			M825.403,188.983c-1.316,0.943-4.562,3.934-5.832,5.04c-0.295,0.267-0.599,0.549-0.862,0.847
			c-0.285,0.324-0.547,0.685-0.685,1.098c-0.18,0.535-0.126,1.118,0.027,1.652c0.203,0.694,0.525,1.355,0.909,1.966
			c0.434,0.675,0.975,1.309,1.674,1.718c0.603,0.355,1.32,0.502,2.014,0.43c0.893-0.087,1.717-0.5,2.463-0.977
			c0.66-0.423,1.299-0.929,1.9-1.433c1.308-1.098,3.608-3.249,4.901-4.404c0.877-0.821,1.835-1.754,2.646-2.636"/>
	</g>
	<g id="POLYLINE_00000157304003219318084380000013904439623761978505_">
		
			<path fill="none" stroke="#3A54F5" stroke-width="1.75" stroke-linecap="round" stroke-linejoin="round" stroke-miterlimit="10" d="
			M839.636,203.954c-2.202,1.611-4.076,3.666-5.807,5.763c-0.464,0.585-0.911,1.204-1.295,1.845
			c-0.259,0.438-0.468,0.921-0.512,1.432c-0.066,0.665,0.166,1.319,0.492,1.89c0.47,0.82,1.096,1.555,1.793,2.191
			c0.702,0.622,1.582,1.28,2.575,1.104c0.663-0.119,1.244-0.5,1.789-0.878c0.596-0.423,1.183-0.923,1.73-1.407
			c1.263-1.172,4.048-3.704,5.258-4.883"/>
	</g>
	<g id="POLYLINE_00000140007369155766755130000004287024542471381909_">
		
			<path fill="none" stroke="#3A54F5" stroke-width="1.75" stroke-linecap="round" stroke-linejoin="round" stroke-miterlimit="10" d="
			M832.145,170.257c-1.627,1.107-3.234,2.34-4.666,3.687c-1.871,1.749-3.759,3.65-5.416,5.602c-0.523,0.636-1.063,1.308-1.296,2.111
			c-0.15,0.514-0.138,1.065-0.022,1.584c0.403,1.726,1.619,3.128,2.91,4.283c1.163,1.074,2.82,2.185,3.881,3.345l0.558,0.644
			c0.204,0.229,0.43,0.444,0.689,0.61c0.435,0.277,0.932,0.449,1.429,0.575c1.155,0.281,2.4,0.331,3.533-0.067
			c0.781-0.274,1.518-0.69,2.159-1.213c0.42-0.351,0.811-0.764,1.038-1.268c0.199-0.444,0.23-0.942,0.207-1.423
			c-0.04-0.695-0.146-1.47-0.11-2.166c0.031-0.781,0.189-1.578,0.602-2.251c0.287-0.468,0.687-0.859,1.119-1.193
			c0.66-0.51,1.412-0.913,2.155-1.288l3.722-1.788c3.564-1.724,7.145-4.407,10.619-6.302c0.78-0.414,1.589-0.816,2.434-1.078
			c0.488-0.142,1.076-0.282,1.57-0.106c0.306,0.112,0.516,0.379,0.593,0.691c0.128,0.511-0.039,1.04-0.245,1.507
			c-0.52,1.124-1.336,2.144-2.082,3.127c-3.11,3.974-7.492,9.179-10.083,13.437c-1.328,2.141-2.902,5.249-4.511,7.169
			c-0.899,1.118-2.081,2.207-2.928,3.367c-0.171,0.246-0.324,0.51-0.419,0.796c-0.115,0.335-0.129,0.702-0.036,1.044
			c0.189,0.683,0.645,1.265,1.056,1.83c1.245,1.621,2.529,3.305,4.023,4.703c0.508,0.455,1.064,0.897,1.722,1.107
			c0.386,0.125,0.792,0.125,1.175-0.009c0.576-0.2,1.083-0.568,1.572-0.924c0.619-0.461,1.264-1.009,1.849-1.517
			c2.128-1.895,8.724-7.979,10.787-9.913"/>
	</g>
	<g id="POLYLINE_00000098200543084764540130000008351592943362104251_">
		
			<path fill="none" stroke="#3A54F5" stroke-width="1.75" stroke-linecap="round" stroke-linejoin="round" stroke-miterlimit="10" d="
			M863.252,158.351c-0.421,0.788-0.702,1.662-0.757,2.557c-0.066,1.029,0.165,2.064,0.585,3.001
			c0.444,0.993,1.089,1.893,1.792,2.718c1.029,1.198,2.22,2.276,3.484,3.221c0.597,0.44,1.227,0.858,1.915,1.143
			c0.394,0.161,0.817,0.279,1.245,0.275c0.593-0.004,1.151-0.264,1.629-0.599"/>
	</g>
	<g id="POLYLINE_00000121990596101012352610000016775391494826915714_">
		
			<path fill="none" stroke="#3A54F5" stroke-width="1.75" stroke-linecap="round" stroke-linejoin="round" stroke-miterlimit="10" d="
			M872.841,197.605c-1.118,0.784-2.231,1.629-3.096,2.696c-0.783,0.943-1.626,2.12-2.661,2.794c-0.824,0.559-1.837,0.932-2.841,0.77
			c-0.586-0.093-1.128-0.372-1.601-0.721c-0.574-0.429-1.075-0.969-1.426-1.595c-0.176-0.322-0.316-0.677-0.321-1.048
			c-0.009-0.385,0.157-0.753,0.391-1.052c0.275-0.355,0.628-0.648,0.98-0.925c0.67-0.527,1.595-1.113,2.185-1.727
			c0.123-0.137,0.248-0.287,0.292-0.47l0.002-0.008l0.002-0.008l0.001-0.008l0.001-0.008l0.001-0.008l0.001-0.008l0.001-0.008
			l0.001-0.008l0-0.008l0-0.008l0-0.008l0-0.008c-0.002-0.133-0.084-0.248-0.175-0.337c-0.415-0.375-0.997-0.574-1.397-0.977
			c-0.217-0.218-0.391-0.495-0.437-0.803c-0.023-0.164-0.001-0.34,0.093-0.479c0.175-0.25,0.52-0.333,0.806-0.381
			c0.513-0.078,1.047-0.05,1.563-0.012c0.33,0.027,0.754,0.067,1.083,0.046c0.399-0.02,0.792-0.127,1.162-0.274
			c0.447-0.178,0.874-0.413,1.268-0.689"/>
	</g>
	<g id="POLYLINE_00000023967149827196690150000017161563786564377486_">
		
			<path fill="none" stroke="#3A54F5" stroke-width="1.75" stroke-linecap="round" stroke-linejoin="round" stroke-miterlimit="10" d="
			M835.46,157.577c-0.582,0.744-1.349,1.738-1.98,2.428c-0.505,0.577-1.529,1.527-2.091,2.07c-0.811,0.797-1.583,1.677-2.057,2.721
			c-0.272,0.601-0.433,1.268-0.364,1.929c0.09,0.86,0.556,1.637,1.122,2.272c0.381,0.419,0.824,0.795,1.333,1.048
			c0.28,0.137,0.589,0.231,0.903,0.216c0.389-0.015,0.747-0.202,1.048-0.439c1.005-0.812,1.701-2.087,2.667-2.939
			c0.143-0.116,0.299-0.234,0.483-0.27l0.008-0.001l0.008-0.001l0.008-0.001l0.008-0.001l0.008-0.001l0.008-0.001l0.008,0l0.008,0
			l0.008,0l0.008,0l0.008,0l0.008,0c0.147,0.009,0.265,0.114,0.355,0.222c0.387,0.502,0.563,1.179,1.069,1.588
			c0.25,0.204,0.583,0.365,0.912,0.293c0.174-0.039,0.308-0.161,0.395-0.313c0.114-0.198,0.17-0.424,0.21-0.647
			c0.126-0.72,0.048-1.481,0.052-2.208c0.001-0.605,0.19-1.192,0.468-1.725c0.305-0.588,0.697-1.14,1.181-1.594"/>
	</g>
	<g id="POLYLINE_00000137830490404655148980000013894246461553151133_">
		
			<path fill="none" stroke="#3A54F5" stroke-width="1.75" stroke-linecap="round" stroke-linejoin="round" stroke-miterlimit="10" d="
			M851.404,152.884c0.287,3.458,1.156,6.932,2.897,9.954c0.752,1.306,1.708,2.575,2.639,3.761c2.167,2.684,4.912,6.3,7.264,8.779
			c0.758,0.795,1.567,1.575,2.45,2.23c0.937,0.715,2.348,1.481,3.368,2.081c1.923,1.136,4.464,3.066,6.293,4.392"/>
	</g>
	<g id="POLYLINE_00000063624303969651611500000013423995053533605785_">
		
			<path fill="none" stroke="#3A54F5" stroke-width="1.75" stroke-linecap="round" stroke-linejoin="round" stroke-miterlimit="10" d="
			M880.256,145.283c-1.529-0.443-3.141-0.474-4.707-0.23c-1.54,0.235-3.059,0.706-4.428,1.455c-1.896,1.028-3.367,2.674-4.682,4.351
			c-0.407,0.537-1.49,1.962-1.88,2.481c-0.431,0.582-0.835,1.205-1.052,1.902c-0.356,1.17-0.293,2.426-0.226,3.633
			c0.039,0.462,0.102,1.306,0.152,1.764c0.044,0.428,0.129,0.859,0.31,1.252c0.25,0.551,0.616,1.05,0.982,1.53
			c0.666,0.854,1.408,1.666,2.187,2.418c0.556,0.528,1.139,1.052,1.789,1.461c0.465,0.299,1.014,0.52,1.479,0.82
			c0.6,0.392,1.086,1.017,1.589,1.52c0.504,0.511,1.083,1.012,1.804,1.163c0.542,0.12,1.107,0.074,1.648-0.027
			c1.051-0.209,2.09-0.594,3.098-0.952c2.082-0.774,4.153-1.717,5.901-3.107c1.997-1.6,3.58-3.775,4.306-6.242
			c0.444-1.514,0.554-3.115,0.478-4.686c-0.091-1.649-0.399-3.321-1.136-4.81c-0.778-1.561-2.068-2.813-3.504-3.777
			C883.107,146.356,881.718,145.689,880.256,145.283z"/>
	</g>
	<g id="POLYLINE_00000165937164626127935900000010171232963525252994_">
		
			<path fill="none" stroke="#3A54F5" stroke-width="1.75" stroke-linecap="round" stroke-linejoin="round" stroke-miterlimit="10" d="
			M856.814,148.978c-1.799,1.145-3.787,2.672-5.494,3.97c-0.995,0.762-2.002,1.584-2.89,2.467c-1.392,1.339-2.81,3.352-4.012,4.874
			c-0.376,0.467-0.772,0.946-1.202,1.364c-0.243,0.233-0.502,0.46-0.8,0.62c-0.164,0.087-0.345,0.15-0.532,0.15
			c-0.18,0.002-0.356-0.053-0.513-0.137c-0.167-0.088-0.32-0.206-0.464-0.327c-0.792-0.724-1.649-1.524-2.484-2.202
			c-0.63-0.517-1.325-1.06-1.997-1.519c-0.288-0.203-0.875-0.561-1.132-0.797c-0.164-0.147-0.325-0.326-0.361-0.551
			c-0.023-0.14,0.01-0.284,0.061-0.415c0.056-0.144,0.137-0.281,0.222-0.41c0.237-0.367,0.884-1.119,1.163-1.47
			c1.47-1.854,2.601-4.299,4.063-6.16c0.887-1.163,1.977-2.169,3.143-3.047c2.401-1.785,5.845-3.671,8.405-5.265
			c3.002-1.771,6.189-3.363,9.602-4.152c1.393-0.303,2.864-0.504,4.272-0.182c0.583,0.138,1.134,0.393,1.64,0.71
			c0.368,0.228,0.74,0.503,1.083,0.767c2.636,2.101,6.992,5.397,9.436,7.646"/>
	</g>
	<g id="POLYLINE_00000028309007182648641310000002709636582936763832_">
		
			<path fill="none" stroke="#3A54F5" stroke-width="1.75" stroke-linecap="round" stroke-linejoin="round" stroke-miterlimit="10" d="
			M888.959,158.159c0.978,1.111,1.96,2.278,2.745,3.533c0.809,1.275,1.454,2.668,1.983,4.081c0.864,2.368,1.656,4.827,1.843,7.354
			c0.12,1.696-0.089,3.472-0.944,4.968c-0.507,0.901-1.193,1.697-1.914,2.433c-0.666,0.709-2.169,2.013-2.891,2.691
			c-1.005,0.907-4.54,4.499-5.551,5.506c-2.163,2.089-6.398,6.153-8.386,8.348c-0.48,0.477-0.965,0.989-1.553,1.334
			c-0.143,0.078-0.299,0.147-0.465,0.155c-0.329,0.014-0.543-0.286-0.71-0.529l-0.348-0.533c-1.068-1.563-2.635-3.063-3.715-4.617
			c-0.194-0.291-0.38-0.596-0.494-0.929c-0.077-0.224-0.108-0.471-0.04-0.7c0.078-0.27,0.268-0.491,0.468-0.681
			c0.751-0.681,1.862-1.31,2.676-1.914c0.849-0.601,1.619-1.327,2.326-2.088c0.579-0.627,1.75-1.944,2.348-2.513
			c0.705-0.688,1.805-1.668,2.496-2.363c1.053-1.043,1.943-2.265,2.756-3.501"/>
	</g>
</g>
<g id="_x32_D_x24_AG-FURNITURE">
	<g id="POLYLINE_00000178185905569904134770000002114877672205363118_">
		
			<line fill="none" stroke="#3A54F5" stroke-width="1.75" stroke-linecap="round" stroke-linejoin="round" stroke-miterlimit="10" x1="844.889" y1="195.659" x2="837.081" y2="187.85"/>
	</g>
	<g id="POLYLINE_00000062891441118695877240000017068961466500115082_">
		
			<path fill="none" stroke="#3A54F5" stroke-width="1.75" stroke-linecap="round" stroke-linejoin="round" stroke-miterlimit="10" d="
			M925.974,166.764c-0.199,0.187-52.127,52.152-52.323,52.31c-0.252,0.221-0.533,0.41-0.832,0.562
			c-0.457,0.232-0.959,0.377-1.469,0.423c-0.57,0.052-1.152-0.019-1.693-0.207c-0.432-0.15-0.84-0.374-1.198-0.659
			c-0.106-0.085-0.212-0.178-0.309-0.273c-0.051-0.036-13.414-13.424-13.462-13.461"/>
	</g>
	<g id="POLYLINE_00000048471650110414958260000016835730254838643390_">
		
			<path fill="none" stroke="#3A54F5" stroke-width="1.75" stroke-linecap="round" stroke-linejoin="round" stroke-miterlimit="10" d="
			M825.29,176.059c-0.032-0.032-12.635-12.635-12.664-12.664c-0.095-0.097-0.189-0.203-0.273-0.309
			c-0.296-0.371-0.526-0.796-0.675-1.246c-0.181-0.543-0.245-1.127-0.185-1.696c0.051-0.492,0.194-0.976,0.418-1.417
			c0.151-0.298,0.341-0.579,0.561-0.831c0.162-0.215,52.12-52.109,52.31-52.323"/>
	</g>
	<g id="POLYLINE_00000008840916825686325500000004832384246182355634_">
		
			<path fill="none" stroke="#3A54F5" stroke-width="1.75" stroke-linecap="round" stroke-linejoin="round" stroke-miterlimit="10" d="
			M676.783,173.987c0.063-0.065,10.571-10.567,10.623-10.624c0.105-0.11,0.207-0.23,0.3-0.351c0.31-0.407,0.541-0.875,0.678-1.369
			c0.149-0.536,0.185-1.105,0.106-1.656c-0.067-0.471-0.219-0.931-0.445-1.349c-0.143-0.265-0.317-0.516-0.516-0.743
			c-0.162-0.214-52.12-52.109-52.31-52.323"/>
	</g>
	<g id="POLYLINE_00000182505968282920939800000006699082389743641236_">
		
			<path fill="none" stroke="#3A54F5" stroke-width="1.75" stroke-linecap="round" stroke-linejoin="round" stroke-miterlimit="10" d="
			M574.026,166.764c0.007,0.007,52.145,52.145,52.156,52.156c0.064,0.062,0.134,0.127,0.202,0.185
			c0.255,0.218,0.54,0.405,0.841,0.554c0.476,0.235,1,0.375,1.529,0.409c0.587,0.038,1.183-0.054,1.731-0.267
			c0.32-0.125,0.626-0.291,0.905-0.492c0.124-0.09,0.247-0.19,0.361-0.294c0.165-0.129,20.552-20.566,20.71-20.705"/>
	</g>
	<g id="POLYLINE_00000086676492074699885330000002144018733054941886_">
		
			<path fill="none" stroke="#3A54F5" stroke-width="1.75" stroke-linecap="round" stroke-linejoin="round" stroke-miterlimit="10" d="
			M572.721,165.458l0.076,0.074l0.077,0.072l0.078,0.07l0.079,0.068l0.08,0.066l0.081,0.064l0.082,0.062l0.082,0.06l0.083,0.058
			l0.084,0.056l0.085,0.053l0.086,0.051l0.087,0.049l0.088,0.047l0.089,0.045l0.09,0.043l0.091,0.041l0.091,0.039l0.092,0.038
			l0.093,0.036l0.094,0.034l0.095,0.032l0.096,0.03l0.097,0.028l0.097,0.026l0.098,0.024l0.099,0.022l0.1,0.02l0.101,0.018
			l0.102,0.017l0.102,0.015l0.103,0.013l0.104,0.011l0.105,0.009c1.952,0.133,3.852-0.567,5.593-1.382
			c3.006-1.454,5.756-3.459,8.374-5.517c6.573-5.189,13.88-12.626,19.881-18.556c5.97-6.043,13.406-13.352,18.644-19.969
			c2.078-2.638,4.103-5.408,5.578-8.435c0.826-1.752,1.541-3.662,1.418-5.629l-0.009-0.105l-0.01-0.104l-0.012-0.104l-0.014-0.103
			l-0.016-0.102l-0.018-0.101l-0.02-0.1l-0.022-0.099l-0.024-0.099l-0.026-0.098l-0.027-0.097l-0.029-0.096l-0.031-0.095
			l-0.033-0.094l-0.035-0.093l-0.037-0.093l-0.039-0.092l-0.041-0.091l-0.043-0.09l-0.045-0.089l-0.047-0.088l-0.049-0.087
			l-0.051-0.086l-0.053-0.085l-0.055-0.084l-0.057-0.084l-0.06-0.083l-0.062-0.082l-0.064-0.081l-0.066-0.08l-0.068-0.079
			l-0.07-0.078l-0.072-0.077c-0.153-0.156-0.36-0.362-0.518-0.511c0,0-0.1-0.106-0.1-0.106c-0.031-0.03-0.069-0.074-0.099-0.103
			c0,0-10.362-10.362-10.362-10.362s-0.148-0.146-0.148-0.146c-0.14-0.134-0.3-0.284-0.445-0.41
			c-0.484-0.422-1.012-0.804-1.583-1.099c-0.571-0.296-1.193-0.503-1.831-0.589c-0.666-0.091-1.349-0.053-2.008,0.077
			c-1.017,0.201-1.989,0.607-2.906,1.082c-1.355,0.707-2.647,1.604-3.868,2.522c-8.585,6.596-24.548,23.535-32.525,31.246
			c-4.382,4.473-9.268,9.346-13.242,14.168c-1.287,1.588-2.563,3.262-3.557,5.052c-0.555,1.011-1.038,2.087-1.268,3.222
			c-0.133,0.655-0.174,1.334-0.087,1.998c0.082,0.634,0.284,1.254,0.575,1.822c0.29,0.569,0.666,1.095,1.081,1.579
			c0.196,0.227,10.769,10.853,11.191,11.229C572.404,165.14,572.597,165.334,572.721,165.458z"/>
	</g>
	<g id="POLYLINE_00000152978594741136500900000008436095908332989321_">
		
			<line fill="none" stroke="#3A54F5" stroke-width="1.75" stroke-linecap="round" stroke-linejoin="round" stroke-miterlimit="10" x1="558.255" y1="150.992" x2="547.427" y2="140.164"/>
	</g>
	<g id="POLYLINE_00000131346922536684516840000012079373161486371502_">
		
			<line fill="none" stroke="#3A54F5" stroke-width="1.75" stroke-linecap="round" stroke-linejoin="round" stroke-miterlimit="10" x1="619.447" y1="89.8" x2="608.619" y2="78.972"/>
	</g>
	<g id="POLYLINE_00000085221080873391003110000006443615530935588764_">
		
			<path fill="none" stroke="#3A54F5" stroke-width="1.75" stroke-linecap="round" stroke-linejoin="round" stroke-miterlimit="10" d="
			M619.447,89.8c0.104,0.099,68.498,68.507,68.598,68.594c0.146,0.134,0.307,0.255,0.475,0.359c0.316,0.196,0.668,0.337,1.032,0.413
			c0.883,0.189,1.841-0.021,2.565-0.562c0.106-0.079,0.212-0.167,0.308-0.259c0,0,0.026-0.025,0.026-0.025s0.025-0.025,0.025-0.025
			l5.636-5.636c0,0,0.025-0.025,0.025-0.025s0.025-0.026,0.025-0.026c0.189-0.198,0.354-0.421,0.486-0.66
			c0.453-0.808,0.529-1.814,0.199-2.68c-0.122-0.325-0.297-0.631-0.517-0.9c-0.048-0.358-77.188-77.015-77.325-77.348
			c-0.39-0.373-0.877-0.646-1.4-0.783c-0.571-0.151-1.185-0.14-1.75,0.033c-0.373,0.114-0.726,0.296-1.034,0.536
			c-2.149,2.07-64.913,64.896-69.393,69.358c-0.018,0.027-7.909,7.902-7.927,7.927c-0.074,0.077-0.15,0.16-0.216,0.245
			c-0.242,0.304-0.429,0.654-0.547,1.024c-0.146,0.458-0.187,0.95-0.119,1.426c0.061,0.424,0.207,0.835,0.428,1.202
			c0.104,0.17,0.222,0.332,0.355,0.481c0.228,0.314,77.045,77.007,77.309,77.31c0.295,0.264,0.641,0.473,1.012,0.612
			c0.878,0.333,1.9,0.253,2.714-0.218c0.237-0.135,0.457-0.301,0.652-0.492c0.017,0.014,5.64-5.662,5.661-5.661
			c0.013-0.012,0.037-0.038,0.05-0.051c0.092-0.097,0.18-0.2,0.259-0.308c0.541-0.724,0.751-1.681,0.562-2.565
			c-0.076-0.364-0.217-0.716-0.413-1.032c-0.104-0.169-0.226-0.328-0.359-0.475c-0.116,0.028-68.474-68.587-68.594-68.598"/>
	</g>
	<g id="POLYLINE_00000017486585828548495910000017112288048544704150_">
		
			<path fill="none" stroke="#3A54F5" stroke-width="1.75" stroke-linecap="round" stroke-linejoin="round" stroke-miterlimit="10" d="
			M880.553,89.8c-0.104,0.099-68.498,68.507-68.598,68.594c-0.146,0.134-0.307,0.255-0.475,0.359
			c-0.316,0.196-0.668,0.337-1.032,0.413c-0.883,0.189-1.841-0.021-2.565-0.562c-0.106-0.079-0.212-0.167-0.308-0.259
			c0,0-0.026-0.025-0.026-0.025s-0.025-0.025-0.025-0.025s-5.636-5.636-5.636-5.636s-0.025-0.025-0.025-0.025
			s-0.025-0.026-0.025-0.026c-0.189-0.198-0.354-0.421-0.486-0.66c-0.453-0.808-0.529-1.814-0.199-2.68
			c0.122-0.325,0.297-0.631,0.517-0.9c0.048-0.358,77.188-77.015,77.325-77.348c0.39-0.373,0.877-0.646,1.4-0.783
			c0.571-0.151,1.185-0.14,1.75,0.033c0.373,0.114,0.726,0.296,1.034,0.536c2.149,2.07,64.913,64.896,69.393,69.358
			c0.018,0.027,7.909,7.902,7.927,7.927c0.074,0.077,0.15,0.16,0.216,0.245c0.242,0.304,0.429,0.654,0.547,1.024
			c0.146,0.458,0.187,0.95,0.119,1.426c-0.061,0.424-0.207,0.835-0.428,1.202c-0.104,0.17-0.222,0.332-0.355,0.481
			c-0.228,0.314-77.045,77.007-77.309,77.31c-0.295,0.264-0.641,0.473-1.012,0.612c-0.878,0.333-1.9,0.253-2.714-0.218
			c-0.237-0.135-0.457-0.301-0.652-0.492c-0.017,0.014-5.64-5.662-5.661-5.661c-0.013-0.012-0.037-0.038-0.05-0.051
			c-0.092-0.097-0.18-0.2-0.259-0.308c-0.541-0.724-0.751-1.681-0.562-2.565c0.076-0.364,0.217-0.716,0.413-1.032
			c0.104-0.169,0.226-0.328,0.359-0.475c0.116,0.028,68.474-68.587,68.594-68.598"/>
	</g>
	<g id="POLYLINE_00000104686519242442275740000010324338267160116156_">
		
			<line fill="none" stroke="#3A54F5" stroke-width="1.75" stroke-linecap="round" stroke-linejoin="round" stroke-miterlimit="10" x1="880.553" y1="89.8" x2="891.381" y2="78.972"/>
	</g>
	<g id="POLYLINE_00000029017791755865232860000000416497377910307737_">
		
			<line fill="none" stroke="#3A54F5" stroke-width="1.75" stroke-linecap="round" stroke-linejoin="round" stroke-miterlimit="10" x1="941.745" y1="150.992" x2="952.573" y2="140.164"/>
	</g>
	<g id="POLYLINE_00000162349058322801382310000015705683981459439290_">
		
			<path fill="none" stroke="#3A54F5" stroke-width="1.75" stroke-linecap="round" stroke-linejoin="round" stroke-miterlimit="10" d="
			M927.279,165.458l-0.076,0.074l-0.077,0.072l-0.078,0.07l-0.079,0.068l-0.08,0.066l-0.081,0.064l-0.082,0.062l-0.082,0.06
			l-0.083,0.058l-0.084,0.056l-0.085,0.053l-0.086,0.051l-0.087,0.049l-0.088,0.047l-0.089,0.045l-0.09,0.043l-0.091,0.041
			l-0.091,0.039l-0.092,0.038l-0.093,0.036l-0.094,0.034l-0.095,0.032l-0.096,0.03l-0.097,0.028l-0.097,0.026l-0.098,0.024
			l-0.099,0.022l-0.1,0.02l-0.101,0.018l-0.102,0.017l-0.102,0.015l-0.103,0.013l-0.104,0.011l-0.105,0.009
			c-1.952,0.133-3.852-0.567-5.593-1.382c-3.006-1.454-5.756-3.459-8.374-5.517c-6.573-5.189-13.88-12.626-19.881-18.556
			c-5.97-6.043-13.406-13.352-18.644-19.969c-2.078-2.638-4.103-5.408-5.578-8.435c-0.826-1.752-1.541-3.662-1.418-5.629
			l0.009-0.105l0.01-0.104l0.012-0.104l0.014-0.103l0.016-0.102l0.018-0.101l0.02-0.1l0.022-0.099l0.024-0.099l0.026-0.098
			l0.027-0.097l0.029-0.096l0.031-0.095l0.033-0.094l0.035-0.093l0.037-0.093l0.039-0.092l0.041-0.091l0.043-0.09l0.045-0.089
			l0.047-0.088l0.049-0.087l0.051-0.086l0.053-0.085l0.055-0.084l0.057-0.084l0.06-0.083l0.062-0.082l0.064-0.081l0.066-0.08
			l0.068-0.079l0.07-0.078l0.072-0.077c0.153-0.156,0.36-0.362,0.518-0.511c0,0,0.1-0.106,0.1-0.106
			c0.031-0.03,0.069-0.074,0.099-0.103c0,0,10.362-10.362,10.362-10.362l0.148-0.146c0.14-0.134,0.3-0.284,0.445-0.41
			c0.484-0.422,1.012-0.804,1.583-1.099c0.571-0.296,1.193-0.503,1.831-0.589c0.666-0.091,1.349-0.053,2.008,0.077
			c1.017,0.201,1.989,0.607,2.906,1.082c1.355,0.707,2.647,1.604,3.868,2.522c8.585,6.596,24.548,23.535,32.525,31.246
			c4.382,4.473,9.268,9.346,13.242,14.168c1.287,1.588,2.563,3.262,3.557,5.052c0.555,1.011,1.038,2.087,1.268,3.222
			c0.133,0.655,0.174,1.334,0.087,1.998c-0.082,0.634-0.284,1.254-0.575,1.822c-0.29,0.569-0.666,1.095-1.081,1.579
			c-0.196,0.227-10.769,10.853-11.191,11.229C927.596,165.14,927.403,165.334,927.279,165.458z"/>
	</g>
	<g id="POLYLINE_00000139269721362250881100000004135804883247524496_">
		
			<path fill="none" stroke="#3A54F5" stroke-width="1.75" stroke-linecap="round" stroke-linejoin="round" stroke-miterlimit="10" d="
			M717.949,122.844c-0.025,10.757,5.502,20.97,14.521,26.832c16.481,10.719,38.543,4.307,46.711-13.575
			c3.818-8.341,3.818-18.173,0-26.514c-8.169-17.882-30.231-24.294-46.711-13.575C723.451,101.874,717.923,112.087,717.949,122.844z
			"/>
	</g>
	<g id="POLYLINE_00000086650952381847028530000011266644902847829149_">
		
			<path fill="none" stroke="#3A54F5" stroke-width="1.75" stroke-linecap="round" stroke-linejoin="round" stroke-miterlimit="10" d="
			M72.721,165.458l0.076,0.074l0.077,0.072l0.078,0.07l0.079,0.068l0.08,0.066l0.081,0.064l0.082,0.062l0.082,0.06l0.083,0.058
			l0.084,0.056l0.085,0.053l0.086,0.051l0.087,0.049l0.088,0.047l0.089,0.045l0.09,0.043l0.091,0.041l0.091,0.039l0.092,0.038
			l0.093,0.036l0.094,0.034l0.095,0.032l0.096,0.03l0.097,0.028l0.097,0.026l0.098,0.024l0.099,0.022l0.1,0.02l0.101,0.018
			l0.102,0.017l0.102,0.015l0.103,0.013l0.104,0.011l0.105,0.009c1.952,0.133,3.852-0.567,5.593-1.382
			c3.006-1.454,5.756-3.459,8.374-5.517c6.573-5.189,13.88-12.626,19.881-18.556c5.97-6.043,13.406-13.352,18.644-19.969
			c2.078-2.638,4.103-5.408,5.578-8.435c0.826-1.752,1.541-3.662,1.418-5.629l-0.009-0.105l-0.011-0.104l-0.012-0.104l-0.014-0.103
			l-0.016-0.102l-0.018-0.101l-0.02-0.1l-0.022-0.099l-0.024-0.099l-0.026-0.098l-0.027-0.097l-0.029-0.096l-0.031-0.095
			l-0.033-0.094l-0.035-0.093l-0.037-0.093l-0.039-0.092l-0.041-0.091l-0.043-0.09l-0.045-0.089l-0.047-0.088l-0.049-0.087
			l-0.051-0.086l-0.053-0.085l-0.055-0.084l-0.057-0.084l-0.06-0.083l-0.062-0.082l-0.064-0.081l-0.066-0.08l-0.068-0.079
			l-0.07-0.078l-0.072-0.077c-0.153-0.156-0.36-0.362-0.518-0.511c0,0-0.1-0.106-0.1-0.106c-0.031-0.03-0.069-0.074-0.099-0.103
			c0,0-10.362-10.362-10.362-10.362s-0.148-0.146-0.148-0.146c-0.14-0.134-0.3-0.284-0.445-0.41
			c-0.484-0.422-1.012-0.804-1.583-1.099c-0.571-0.296-1.193-0.503-1.83-0.589c-0.666-0.091-1.349-0.053-2.008,0.077
			c-1.017,0.201-1.989,0.607-2.906,1.082c-1.355,0.707-2.647,1.604-3.868,2.522c-8.585,6.596-24.548,23.535-32.525,31.246
			c-4.382,4.473-9.268,9.346-13.242,14.168c-1.287,1.588-2.563,3.262-3.557,5.052c-0.555,1.011-1.038,2.087-1.268,3.222
			c-0.133,0.655-0.174,1.334-0.087,1.998c0.082,0.634,0.284,1.254,0.575,1.822c0.29,0.569,0.665,1.095,1.081,1.579
			c0.196,0.227,10.769,10.853,11.191,11.229C72.404,165.14,72.597,165.334,72.721,165.458z"/>
	</g>
	<g id="POLYLINE_00000079469676162654700750000003505651519721896585_">
		
			<line fill="none" stroke="#3A54F5" stroke-width="1.75" stroke-linecap="round" stroke-linejoin="round" stroke-miterlimit="10" x1="58.255" y1="150.992" x2="47.427" y2="140.164"/>
	</g>
	<g id="POLYLINE_00000062903762796102242330000006834065106052453303_">
		
			<line fill="none" stroke="#3A54F5" stroke-width="1.75" stroke-linecap="round" stroke-linejoin="round" stroke-miterlimit="10" x1="119.447" y1="89.8" x2="108.619" y2="78.972"/>
	</g>
	<g id="POLYLINE_00000047776307990651808750000008317820574097862556_">
		
			<path fill="none" stroke="#3A54F5" stroke-width="1.75" stroke-linecap="round" stroke-linejoin="round" stroke-miterlimit="10" d="
			M119.447,89.8c0.104,0.099,68.498,68.507,68.598,68.594c0.146,0.134,0.307,0.255,0.475,0.359c0.316,0.196,0.668,0.337,1.032,0.413
			c0.883,0.189,1.841-0.021,2.565-0.562c0.106-0.079,0.212-0.167,0.308-0.259c0,0,0.026-0.025,0.026-0.025s0.025-0.025,0.025-0.025
			l5.636-5.636c0,0,0.025-0.025,0.025-0.025l0.025-0.026c0.189-0.198,0.354-0.421,0.486-0.66c0.453-0.808,0.529-1.814,0.199-2.68
			c-0.122-0.325-0.297-0.631-0.517-0.9c-0.048-0.358-77.189-77.015-77.325-77.348c-0.39-0.373-0.877-0.646-1.4-0.783
			c-0.571-0.151-1.185-0.14-1.75,0.033c-0.373,0.114-0.726,0.296-1.034,0.536c-2.149,2.07-64.913,64.896-69.393,69.358
			c-0.018,0.027-7.909,7.902-7.927,7.927c-0.074,0.077-0.15,0.16-0.216,0.245c-0.242,0.304-0.429,0.654-0.547,1.024
			c-0.146,0.458-0.187,0.95-0.119,1.426c0.061,0.424,0.207,0.835,0.428,1.202c0.104,0.17,0.222,0.332,0.355,0.481
			c0.228,0.314,77.045,77.007,77.309,77.31c0.295,0.264,0.641,0.473,1.012,0.612c0.878,0.333,1.9,0.253,2.714-0.218
			c0.237-0.135,0.457-0.301,0.652-0.492c0.017,0.014,5.64-5.662,5.661-5.661c0.013-0.012,0.037-0.038,0.05-0.051
			c0.092-0.097,0.18-0.2,0.259-0.308c0.541-0.724,0.751-1.681,0.562-2.565c-0.076-0.364-0.217-0.716-0.413-1.032
			c-0.104-0.169-0.226-0.328-0.359-0.475c-0.116,0.028-68.474-68.587-68.594-68.598"/>
	</g>
	<g id="POLYLINE_00000093873287164125654080000001587790739242045079_">
		
			<path fill="none" stroke="#3A54F5" stroke-width="1.75" stroke-linecap="round" stroke-linejoin="round" stroke-miterlimit="10" d="
			M74.027,166.764c0.02,0.051,52.159,52.139,52.188,52.187c0.088,0.083,0.182,0.167,0.277,0.242c0.2,0.159,0.418,0.301,0.645,0.42
			c0.561,0.294,1.193,0.454,1.827,0.462c0.652,0.009,1.307-0.143,1.888-0.439c0.243-0.124,0.475-0.273,0.689-0.443
			c0.095-0.076,0.189-0.158,0.277-0.242c0.019-0.009,55.491-55.495,55.525-55.524c0.767-0.761,1.205-1.838,1.187-2.918
			c-0.008-0.634-0.167-1.266-0.462-1.827c-0.119-0.226-0.26-0.445-0.42-0.645c-0.076-0.093-0.158-0.19-0.242-0.277
			c-0.025-0.114-52.147-52.086-52.187-52.189"/>
	</g>
	<g id="POLYLINE_00000077297588295458364140000014226390654670539927_">
		
			<path fill="none" stroke="#3A54F5" stroke-width="1.75" stroke-linecap="round" stroke-linejoin="round" stroke-miterlimit="10" d="
			M425.973,166.764c-0.02,0.051-52.159,52.139-52.188,52.187c-0.088,0.083-0.182,0.167-0.277,0.242
			c-0.2,0.159-0.418,0.301-0.645,0.42c-0.561,0.294-1.193,0.454-1.827,0.462c-0.652,0.009-1.307-0.143-1.888-0.439
			c-0.243-0.124-0.475-0.273-0.689-0.443c-0.095-0.076-0.189-0.158-0.277-0.242c-0.019-0.009-55.491-55.495-55.525-55.524
			c-0.767-0.761-1.205-1.838-1.187-2.918c0.008-0.634,0.167-1.266,0.462-1.827c0.119-0.226,0.26-0.445,0.42-0.645
			c0.076-0.093,0.158-0.19,0.242-0.277c0.025-0.114,52.147-52.086,52.187-52.189"/>
	</g>
	<g id="POLYLINE_00000117674575651323055610000003883479105401049760_">
		
			<path fill="none" stroke="#3A54F5" stroke-width="1.75" stroke-linecap="round" stroke-linejoin="round" stroke-miterlimit="10" d="
			M380.553,89.8c-0.104,0.099-68.498,68.507-68.598,68.594c-0.146,0.134-0.307,0.255-0.475,0.359
			c-0.316,0.196-0.668,0.337-1.032,0.413c-0.883,0.189-1.841-0.021-2.565-0.562c-0.106-0.079-0.212-0.167-0.307-0.259
			c0,0-0.026-0.025-0.026-0.025s-0.025-0.025-0.025-0.025l-5.636-5.636c0,0-0.025-0.025-0.025-0.025s-0.025-0.026-0.025-0.026
			c-0.189-0.198-0.354-0.421-0.486-0.66c-0.453-0.808-0.529-1.814-0.199-2.68c0.122-0.325,0.297-0.631,0.517-0.9
			c0.048-0.358,77.189-77.015,77.325-77.348c0.39-0.373,0.877-0.646,1.4-0.783c0.571-0.151,1.185-0.14,1.75,0.033
			c0.373,0.114,0.726,0.296,1.034,0.536c2.149,2.07,64.913,64.896,69.393,69.358c0.018,0.027,7.909,7.902,7.927,7.927
			c0.074,0.077,0.15,0.16,0.216,0.245c0.242,0.304,0.429,0.654,0.547,1.024c0.146,0.458,0.187,0.95,0.119,1.426
			c-0.061,0.424-0.207,0.835-0.428,1.202c-0.104,0.17-0.222,0.332-0.355,0.481c-0.228,0.314-77.045,77.007-77.309,77.31
			c-0.295,0.264-0.641,0.473-1.012,0.612c-0.878,0.333-1.9,0.253-2.714-0.218c-0.237-0.135-0.457-0.301-0.652-0.492
			c-0.017,0.014-5.64-5.662-5.661-5.661c-0.013-0.012-0.037-0.038-0.05-0.051c-0.092-0.097-0.18-0.2-0.259-0.308
			c-0.541-0.724-0.751-1.681-0.562-2.565c0.076-0.364,0.217-0.716,0.413-1.032c0.104-0.169,0.226-0.328,0.359-0.475
			c0.116,0.028,68.474-68.587,68.594-68.598"/>
	</g>
	<g id="POLYLINE_00000132806461532523556880000007569120736450843016_">
		
			<line fill="none" stroke="#3A54F5" stroke-width="1.75" stroke-linecap="round" stroke-linejoin="round" stroke-miterlimit="10" x1="380.553" y1="89.8" x2="391.381" y2="78.972"/>
	</g>
	<g id="POLYLINE_00000163049064638743760160000012605893458322662296_">
		
			<line fill="none" stroke="#3A54F5" stroke-width="1.75" stroke-linecap="round" stroke-linejoin="round" stroke-miterlimit="10" x1="441.745" y1="150.992" x2="452.573" y2="140.164"/>
	</g>
	<g id="POLYLINE_00000091724385889973745610000007805212131296050599_">
		
			<path fill="none" stroke="#3A54F5" stroke-width="1.75" stroke-linecap="round" stroke-linejoin="round" stroke-miterlimit="10" d="
			M427.279,165.458l-0.076,0.074l-0.077,0.072l-0.078,0.07l-0.079,0.068l-0.08,0.066l-0.081,0.064l-0.082,0.062l-0.082,0.06
			l-0.083,0.058l-0.084,0.056l-0.085,0.053l-0.086,0.051l-0.087,0.049l-0.088,0.047l-0.089,0.045l-0.09,0.043l-0.091,0.041
			l-0.091,0.039l-0.092,0.038l-0.093,0.036l-0.094,0.034l-0.095,0.032l-0.096,0.03l-0.097,0.028l-0.097,0.026l-0.098,0.024
			l-0.099,0.022l-0.1,0.02l-0.101,0.018l-0.102,0.017l-0.102,0.015l-0.103,0.013l-0.104,0.011l-0.105,0.009
			c-1.952,0.133-3.852-0.567-5.593-1.382c-3.006-1.454-5.756-3.459-8.374-5.517c-6.573-5.189-13.88-12.626-19.881-18.556
			c-5.97-6.043-13.406-13.352-18.644-19.969c-2.078-2.638-4.103-5.408-5.578-8.435c-0.826-1.752-1.541-3.662-1.418-5.629
			l0.009-0.105l0.011-0.104l0.012-0.104l0.014-0.103l0.016-0.102l0.018-0.101l0.02-0.1l0.022-0.099l0.024-0.099l0.026-0.098
			l0.027-0.097l0.029-0.096l0.031-0.095l0.033-0.094l0.035-0.093l0.037-0.093l0.039-0.092l0.041-0.091l0.043-0.09l0.045-0.089
			l0.047-0.088l0.049-0.087l0.051-0.086l0.053-0.085l0.055-0.084l0.057-0.084l0.06-0.083l0.062-0.082l0.064-0.081l0.066-0.08
			l0.068-0.079l0.07-0.078l0.072-0.077c0.153-0.156,0.36-0.362,0.518-0.511c0,0,0.1-0.106,0.1-0.106
			c0.031-0.03,0.069-0.074,0.099-0.103c0,0,10.362-10.362,10.362-10.362s0.148-0.146,0.148-0.146c0.14-0.134,0.3-0.284,0.445-0.41
			c0.484-0.422,1.012-0.804,1.583-1.099c0.571-0.296,1.193-0.503,1.831-0.589c0.666-0.091,1.349-0.053,2.008,0.077
			c1.017,0.201,1.989,0.607,2.906,1.082c1.355,0.707,2.647,1.604,3.868,2.522c8.585,6.596,24.548,23.535,32.525,31.246
			c4.382,4.473,9.268,9.346,13.242,14.168c1.286,1.588,2.563,3.262,3.557,5.052c0.555,1.011,1.038,2.087,1.268,3.222
			c0.133,0.655,0.174,1.334,0.087,1.998c-0.082,0.634-0.284,1.254-0.575,1.822c-0.29,0.569-0.665,1.095-1.081,1.579
			c-0.196,0.227-10.769,10.853-11.191,11.229C427.596,165.14,427.403,165.334,427.279,165.458z"/>
	</g>
	<g id="POLYLINE_00000133507790270240520760000003661951738649967518_">
		
			<path fill="none" stroke="#3A54F5" stroke-width="1.75" stroke-linecap="round" stroke-linejoin="round" stroke-miterlimit="10" d="
			M217.949,122.844c-0.025,10.757,5.502,20.97,14.521,26.832c16.481,10.719,38.543,4.307,46.712-13.575
			c3.818-8.341,3.818-18.173,0-26.514c-8.169-17.882-30.231-24.294-46.712-13.575C223.451,101.874,217.923,112.087,217.949,122.844z
			"/>
	</g>
</g>
<g id="_x32_D_x24_AG-OUTLINE">
	<g id="POLYLINE_00000039842344355797457290000015142207663916447421_">
		
			<path fill="none" stroke="#3A54F5" stroke-width="2.35" stroke-linecap="round" stroke-linejoin="round" stroke-miterlimit="10" d="
			M717.949,122.844c-0.021-10.911,5.638-21.213,14.857-27.049c16.618-10.509,38.576-3.834,46.533,14.146
			c3.553,8.021,3.611,17.374,0.159,25.439c-7.8,18.228-29.933,25.108-46.692,14.513
			C723.586,144.057,717.927,133.756,717.949,122.844z"/>
	</g>
	<g id="POLYLINE_00000183220817039085162170000014350103346734433669_">
		
			<path fill="none" stroke="#3A54F5" stroke-width="2.35" stroke-linecap="round" stroke-linejoin="round" stroke-miterlimit="10" d="
			M676.783,173.987c0.901,0.514,1.731,1.19,2.29,2.074c0.517,0.797,0.852,1.708,1.008,2.643c0.157,0.942,0.125,1.926-0.166,2.839
			c-0.15,0.472-0.369,0.924-0.649,1.333c-0.183,0.264-0.39,0.52-0.644,0.721c-0.176,0.134-0.426,0.284-0.644,0.159
			c-0.147-0.09-0.23-0.253-0.297-0.406c-0.379-0.978-0.344-2.092-0.758-3.061l-7.833,7.895c1.55,0.627,3.063,1.428,4.483,2.31
			c1.249,0.78,2.461,1.663,3.52,2.688l1.509,1.477c1.546,1.461,3.282,2.807,5.291,3.559c1.032,0.38,2.14,0.532,3.232,0.609
			c0.715-0.18,1.469-0.259,2.204-0.307c0.982-0.059,1.981-0.016,2.944,0.189c0.947,0.195,1.865,0.55,2.747,0.94
			c0.795,0.353,1.593,0.749,2.309,1.244c0.633,0.438,1.217,0.971,1.62,1.632c0.292,0.478,0.494,1.024,0.509,1.588
			c0.014,0.442-0.101,0.886-0.328,1.265c-0.408,0.682-1.061,1.182-1.748,1.563c-1.696,0.942-3.701,1.006-5.595,0.929
			c-1.805-0.078-3.656-0.241-5.357-0.888c-0.911-0.349-1.783-0.83-2.517-1.476c-0.593-0.521-1.083-1.154-1.486-1.831
			c-2.305-0.542-4.82-0.967-7.054-1.757c-3.163-1.099-6.208-2.635-8.997-4.488c1.667,2.662,3.451,5.504,4.617,8.419
			c0.711,1.661,1.164,3.672,1.79,5.366c0.397,1.094,1.027,2.101,1.697,3.047c0.833,0.532,1.583,1.198,2.236,1.939
			c0.611,0.697,1.141,1.476,1.503,2.332c0.43,1.013,0.652,2.11,0.765,3.202c0.135,1.372,0.082,2.775-0.205,4.125
			c-0.259,1.156-0.653,2.333-1.409,3.263c-0.234,0.278-0.511,0.528-0.841,0.686c-0.253,0.121-0.534,0.18-0.814,0.182
			c-0.731,0.002-1.422-0.321-2.021-0.719c-0.949-0.64-1.704-1.533-2.341-2.476c-1.053-1.572-1.824-3.332-2.39-5.134
			c-0.188-0.615-0.355-1.251-0.422-1.892c-0.036-0.363-0.041-0.735,0.039-1.093c0.109-0.506,0.397-0.952,0.691-1.371
			c-0.215-1.051-0.491-2.176-0.785-3.208c-0.137-0.453-0.316-0.899-0.559-1.306c-0.619-1.036-1.593-1.809-2.513-2.566
			c-1.573-1.252-3.772-2.844-5.112-4.32c-1.416-1.492-2.61-3.329-3.945-4.89l-0.577,0.582l-3.317-3.291l-20.58,20.58
			c-0.048,0.048-0.103,0.101-0.154,0.146c-0.197,0.178-0.414,0.337-0.642,0.473c-0.338,0.201-0.707,0.353-1.089,0.449
			c-1.235,0.317-2.607,0.005-3.583-0.816c0,0,0.167,0.175,0.167,0.175s0.169,0.172,0.169,0.172s0.025,0.025,0.025,0.025
			c0.049,0.048,0.1,0.108,0.146,0.16c0.164,0.192,0.306,0.405,0.42,0.63c0.411,0.801,0.46,1.776,0.13,2.614
			c-0.139,0.356-0.343,0.689-0.598,0.974c0,0-0.024,0.027-0.024,0.027s-0.024,0.026-0.024,0.026s-0.025,0.026-0.025,0.026
			s-0.025,0.026-0.025,0.026s-0.025,0.025-0.025,0.025l-5.636,5.636c-0.111,0.11-0.232,0.216-0.358,0.309
			c-0.854,0.641-2.035,0.809-3.033,0.426c-0.325-0.122-0.631-0.297-0.9-0.517c-0.431-0.485-76.969-76.873-77.421-77.405
			c-0.184-0.206-0.343-0.438-0.468-0.684c-0.303-0.595-0.414-1.287-0.309-1.947c0.076-0.484,0.264-0.952,0.547-1.352
			c0.086-0.119,0.178-0.236,0.279-0.342c0.024-0.023,0.051-0.055,0.074-0.077c0,0,7.902-7.902,7.902-7.902
			c0.054-0.082,69.114-69.097,69.171-69.168c0.098-0.09,0.204-0.179,0.312-0.257c0.407-0.295,0.886-0.492,1.383-0.569
			c0.66-0.104,1.352,0.005,1.947,0.309c0.247,0.126,0.478,0.283,0.685,0.468c0.119-0.035,77.062,77.158,77.187,77.179
			c0.074,0.076,0.151,0.158,0.218,0.241c0.219,0.269,0.395,0.575,0.517,0.9c0.212,0.565,0.26,1.191,0.136,1.781
			c-0.114,0.547-0.375,1.063-0.748,1.48c-0.036,0.043-0.084,0.09-0.123,0.13c0,0-5.636,5.636-5.636,5.636
			c-0.077,0.076-0.157,0.15-0.241,0.218c-0.3,0.245-0.647,0.435-1.014,0.557c-0.828,0.279-1.765,0.197-2.532-0.22
			c-0.178-0.096-0.347-0.21-0.504-0.337c-0.058-0.044-0.11-0.095-0.164-0.143c-0.028-0.021-0.051-0.052-0.077-0.074
			c-0.075-0.09-0.267-0.25-0.348-0.336c0.821,0.976,1.133,2.348,0.816,3.583c-0.095,0.382-0.247,0.751-0.449,1.089
			c-0.106,0.178-0.228,0.351-0.36,0.511c-0.063,0.076-0.132,0.154-0.2,0.225C687.356,163.418,676.837,173.93,676.783,173.987z"/>
	</g>
	<g id="POLYLINE_00000144301781791913177930000012751346789593605506_">
		
			<path fill="none" stroke="#3A54F5" stroke-width="2.35" stroke-linecap="round" stroke-linejoin="round" stroke-miterlimit="10" d="
			M812.406,157.959l-0.175,0.167c0,0-0.172,0.169-0.172,0.169l-0.025,0.025c-0.048,0.049-0.108,0.1-0.16,0.146
			c-0.192,0.164-0.405,0.306-0.63,0.42c-0.801,0.412-1.776,0.46-2.614,0.13c-0.356-0.139-0.689-0.342-0.974-0.598
			c0,0-0.027-0.024-0.027-0.024s-0.026-0.024-0.026-0.024l-0.026-0.025c0,0-0.026-0.025-0.026-0.025s-0.025-0.025-0.025-0.025
			l-5.636-5.636c-0.11-0.111-0.216-0.232-0.309-0.358c-0.641-0.854-0.809-2.035-0.426-3.033c0.122-0.325,0.297-0.631,0.517-0.9
			c0.485-0.431,76.873-76.969,77.404-77.421c0.206-0.184,0.438-0.343,0.684-0.468c0.595-0.303,1.287-0.414,1.947-0.309
			c0.484,0.076,0.952,0.264,1.352,0.547c0.119,0.086,0.236,0.178,0.342,0.279c0.023,0.024,0.055,0.051,0.077,0.074
			c0,0,7.902,7.902,7.902,7.902c0.082,0.054,69.097,69.114,69.168,69.171c0.09,0.098,0.179,0.204,0.257,0.312
			c0.295,0.407,0.492,0.886,0.569,1.383c0.104,0.66-0.005,1.352-0.309,1.947c-0.126,0.247-0.283,0.478-0.468,0.684
			c0.035,0.119-77.158,77.062-77.179,77.187c-0.076,0.074-0.158,0.151-0.241,0.218c-0.269,0.219-0.575,0.395-0.9,0.517
			c-0.565,0.212-1.191,0.26-1.781,0.136c-0.547-0.114-1.063-0.375-1.479-0.748c-0.043-0.036-0.09-0.084-0.13-0.123
			c0,0-5.636-5.636-5.636-5.636c-0.076-0.077-0.15-0.157-0.218-0.241c-0.245-0.3-0.435-0.647-0.557-1.014
			c-0.279-0.827-0.197-1.765,0.22-2.532c0.096-0.178,0.21-0.347,0.337-0.504c0.044-0.058,0.095-0.11,0.143-0.164
			c0.021-0.028,0.052-0.051,0.074-0.077c0.09-0.075,0.25-0.267,0.336-0.348c-0.976,0.821-2.348,1.133-3.583,0.816
			c-0.382-0.095-0.751-0.247-1.089-0.449c-0.178-0.106-0.351-0.228-0.511-0.36c-0.076-0.063-0.154-0.132-0.224-0.2
			c-0.062-0.051-13.425-13.431-13.49-13.489c-1.79,1.626-4.024,3.836-5.979,5.219c-0.338,0.231-0.69,0.455-1.072,0.604
			c-0.268,0.105-0.559,0.163-0.847,0.137c-0.405-0.034-0.787-0.2-1.132-0.407c-1.294,1.238-4.223,3.958-5.551,5.141
			c-0.583,0.503-1.198,1.012-1.848,1.426c-0.425,0.267-0.88,0.516-1.379,0.601c-0.992,0.175-1.873-0.482-2.575-1.104
			c-0.697-0.637-1.322-1.371-1.793-2.191c-0.327-0.571-0.558-1.224-0.492-1.89c0.044-0.512,0.253-0.994,0.512-1.432
			c0.384-0.64,0.831-1.26,1.295-1.845c1.731-2.097,3.604-4.152,5.807-5.763c-0.13-0.328-0.186-0.69-0.119-1.039
			c0.079-0.431,0.308-0.817,0.562-1.167c0.796-1.055,1.894-2.097,2.733-3.117c0.778-0.918,1.457-1.943,2.078-2.972l-7.809-7.809
			l0.053,0.616c0.043,0.57,0.044,1.171-0.2,1.701c-0.18,0.394-0.466,0.732-0.779,1.028c-0.472,0.441-1.022,0.8-1.598,1.09
			c-0.81,0.881-1.769,1.816-2.646,2.636c-1.469,1.305-3.755,3.47-5.249,4.693c-0.493,0.401-1.017,0.8-1.552,1.144
			c-0.747,0.477-1.57,0.89-2.463,0.977c-0.695,0.073-1.411-0.075-2.014-0.43c-0.699-0.409-1.24-1.043-1.674-1.718
			c-0.384-0.611-0.705-1.273-0.909-1.966c-0.153-0.534-0.207-1.118-0.027-1.652c0.138-0.413,0.399-0.774,0.685-1.098
			c0.263-0.298,0.567-0.581,0.862-0.847c1.283-1.116,4.492-4.079,5.832-5.04c-1.623-1.313-3.36-2.687-4.266-4.618
			c-0.324-0.695-0.547-1.469-0.462-2.242c0.067-0.62,0.358-1.19,0.708-1.697c1.131-1.549,2.574-2.989,3.907-4.367
			c-0.076-0.08-12.627-12.623-12.691-12.693c-0.068-0.071-0.137-0.149-0.2-0.225c-0.142-0.172-0.271-0.358-0.383-0.551
			c-0.19-0.327-0.334-0.683-0.425-1.049C811.273,160.307,811.585,158.935,812.406,157.959z"/>
	</g>
	<g id="POLYLINE_00000111870958631892964430000014465031348172933026_">
		
			<path fill="none" stroke="#3A54F5" stroke-width="2.35" stroke-linecap="round" stroke-linejoin="round" stroke-miterlimit="10" d="
			M610.997,169.932c-0.901-1.972-1.696-4.032-2.15-6.157c-0.298-1.324-0.356-2.891-0.553-4.234
			c-0.048-0.298-0.109-0.603-0.198-0.891c-0.088-0.299-0.269-0.689-0.391-0.978c-0.149-0.353-0.262-0.731-0.248-1.118
			c0.028-0.703,0.371-1.382,0.704-1.989c0.851-1.472,1.955-2.799,3.151-4.003c0.66-0.673,1.603-1.411,2.339-2.008
			c0.433-0.359,0.856-0.749,1.204-1.192c0.567-0.72,1.114-1.813,1.575-2.612c0.594-1.04,1.297-2.039,2.2-2.834
			c0.774-0.692,1.65-1.273,2.578-1.736c0.848-0.42,1.752-0.751,2.685-0.921c0.568-0.104,1.153-0.133,1.728-0.092
			c0.879,0.054,1.955,0.316,2.823,0.485c1.745,0.373,3.775,0.218,5.551,0.276c0.465,0.02,0.937,0.075,1.385,0.207
			c0.849,0.26,1.727,0.704,2.539,1.065c1.496,0.707,3.001,1.477,4.333,2.464l0.807-0.02c0.697-0.012,1.41,0.021,2.074,0.25
			c0.386,0.128,0.761,0.307,1.116,0.505c0.413,0.216,2.71,1.683,3.158,1.959c0.896,0.55,1.85,1.122,2.795,1.581
			c1.062,0.519,2.315,1.028,3.334,1.624c0.387,0.228,0.771,0.479,1.1,0.785c0.191,0.18,0.369,0.383,0.485,0.621
			c0.144,0.284,0.147,0.616,0.057,0.918l1.111,1.345c3.093,4.026,10.494,13.347,13.357,17.303c0.341,0.444,0.7,0.892,1.11,1.274
			c0.786,0.763,2.043,1.182,3.015,1.652c1.068,0.51,2.13,1.126,2.894,2.049c0.723,0.874,1.183,1.952,1.39,3.063
			c0.252,1.335,0.109,2.775-0.579,3.963c-0.251,0.427-0.585,0.902-1.011,1.165c-0.123,0.071-0.271,0.128-0.414,0.087
			c-0.106-0.031-0.187-0.115-0.248-0.204c-0.114-0.17-0.181-0.369-0.239-0.564c-0.254-0.892-0.281-1.87-0.644-2.732l-7.833,7.895
			c1.55,0.627,3.063,1.428,4.483,2.31c1.249,0.78,2.461,1.663,3.52,2.688l1.509,1.477c1.546,1.461,3.282,2.807,5.291,3.559
			c1.032,0.38,2.14,0.532,3.232,0.609c0.715-0.18,1.469-0.259,2.204-0.307c0.982-0.059,1.981-0.016,2.944,0.189
			c0.947,0.195,1.865,0.55,2.747,0.94c0.795,0.353,1.593,0.749,2.309,1.244c0.633,0.438,1.217,0.971,1.62,1.632
			c0.292,0.478,0.494,1.024,0.509,1.588c0.014,0.442-0.101,0.886-0.328,1.265c-0.408,0.682-1.061,1.182-1.748,1.563
			c-1.696,0.942-3.701,1.006-5.595,0.929c-1.805-0.078-3.656-0.241-5.357-0.888c-0.911-0.349-1.783-0.83-2.517-1.476
			c-0.593-0.521-1.083-1.154-1.486-1.831c-2.305-0.542-4.82-0.967-7.054-1.757c-3.163-1.099-6.208-2.635-8.997-4.488
			c1.667,2.662,3.451,5.504,4.617,8.419c0.711,1.661,1.164,3.672,1.79,5.366c0.397,1.094,1.027,2.101,1.697,3.047
			c0.833,0.532,1.583,1.198,2.236,1.939c0.611,0.697,1.141,1.476,1.503,2.332c0.43,1.013,0.652,2.11,0.765,3.202
			c0.135,1.372,0.082,2.775-0.205,4.125c-0.259,1.156-0.653,2.333-1.409,3.263c-0.234,0.278-0.511,0.528-0.841,0.686
			c-0.253,0.121-0.534,0.18-0.814,0.182c-0.731,0.002-1.422-0.321-2.021-0.719c-0.949-0.64-1.704-1.533-2.341-2.476
			c-1.053-1.572-1.824-3.332-2.39-5.134c-0.188-0.615-0.355-1.251-0.422-1.892c-0.036-0.363-0.041-0.735,0.039-1.093
			c0.109-0.506,0.397-0.952,0.691-1.371c-0.215-1.051-0.491-2.176-0.785-3.208c-0.137-0.453-0.316-0.899-0.559-1.306
			c-0.619-1.036-1.593-1.809-2.513-2.566c-1.573-1.252-3.772-2.844-5.112-4.32c-1.416-1.492-2.61-3.329-3.945-4.89l-0.577,0.582
			l-6.486-6.436c-1.931-1.235-3.968-2.363-6.094-3.226c-0.565,0.54-1.062,1.157-1.456,1.833c-0.601,0.996-1.168,2.183-2.037,2.974
			c-0.35,0.323-0.749,0.609-1.201,0.77c-0.197,0.069-0.405,0.111-0.613,0.109c-0.219-0.001-0.437-0.053-0.638-0.139
			c-0.491-0.213-0.898-0.579-1.284-0.942c-3.028-3.065-8.427-9.319-11.457-12.365c-1.528-1.575-3.434-3.214-5.117-4.634
			c-2.022,0.032-4.323,0.319-6.193-0.606c-0.852-0.411-1.618-0.993-2.282-1.664c-0.568-0.579-1.075-1.232-1.438-1.96
			c-0.307-0.616-0.484-1.312-0.41-2.002c0.104-1.048,0.769-1.97,1.616-2.563C610.725,170.459,610.816,170.166,610.997,169.932z"/>
	</g>
	<g id="POLYLINE_00000096750114358231740390000009741653991386485142_">
		
			<path fill="none" stroke="#3A54F5" stroke-width="2.35" stroke-linecap="round" stroke-linejoin="round" stroke-miterlimit="10" d="
			M835.46,157.577c-0.248-0.195-0.534-0.442-0.534-0.784c0.001-0.14,0.046-0.276,0.104-0.402c0.272-0.566,0.962-1.296,1.348-1.795
			c1.47-1.854,2.601-4.299,4.063-6.16c0.887-1.163,1.977-2.169,3.143-3.047c2.401-1.785,5.845-3.671,8.405-5.265
			c3.002-1.771,6.189-3.363,9.602-4.152c1.393-0.303,2.864-0.504,4.272-0.182c0.583,0.138,1.134,0.393,1.64,0.71
			c0.368,0.228,0.74,0.503,1.083,0.767c2.636,2.101,6.992,5.397,9.436,7.646c1.887,0.099,3.713,0.756,5.351,1.675
			c1.357,0.774,2.63,1.745,3.598,2.979c0.873,1.094,1.416,2.418,1.711,3.779c0.342,1.574,0.417,3.21,0.277,4.813
			c0.978,1.111,1.96,2.278,2.745,3.533c0.809,1.275,1.454,2.668,1.983,4.081c0.864,2.368,1.656,4.827,1.843,7.354
			c0.12,1.696-0.089,3.472-0.944,4.968c-0.507,0.901-1.193,1.697-1.914,2.433c-0.666,0.709-2.169,2.013-2.891,2.691
			c-1.005,0.907-4.54,4.499-5.551,5.506c-2.163,2.089-6.398,6.153-8.386,8.348c-0.487,0.483-1.014,1.043-1.621,1.37
			c-0.148,0.073-0.312,0.134-0.479,0.115c-0.115-0.013-0.221-0.069-0.308-0.143c-0.237-0.203-0.423-0.552-0.597-0.809
			c-1.118,0.784-2.231,1.629-3.096,2.696c-0.667,0.797-1.436,1.857-2.254,2.493c-0.781,0.625-1.739,1.103-2.757,1.108
			c-1.194,0.009-2.252-0.741-3.004-1.615c-0.279-0.332-0.526-0.701-0.688-1.105c-0.105-0.263-0.168-0.549-0.142-0.834
			c0.037-0.439,0.29-0.824,0.583-1.139c-2.863,2.607-9.044,8.485-12.006,10.897c-0.516,0.397-1.049,0.804-1.638,1.087
			c-0.304,0.143-0.637,0.243-0.976,0.228c-0.431-0.018-0.839-0.193-1.205-0.411c-1.294,1.238-4.223,3.958-5.551,5.141
			c-0.583,0.503-1.198,1.012-1.848,1.426c-0.425,0.267-0.88,0.516-1.379,0.601c-0.992,0.175-1.873-0.482-2.575-1.104
			c-0.697-0.637-1.322-1.371-1.793-2.191c-0.327-0.571-0.558-1.224-0.492-1.89c0.044-0.512,0.253-0.994,0.512-1.432
			c0.384-0.64,0.831-1.26,1.295-1.845c1.731-2.097,3.604-4.152,5.807-5.763c-0.096-0.246-0.155-0.511-0.147-0.776
			c0.007-0.272,0.083-0.539,0.198-0.785c0.115-0.247,0.268-0.479,0.429-0.698c0.79-1.03,1.87-2.064,2.695-3.066
			c1.68-1.956,3.271-5.119,4.633-7.316c2.579-4.241,6.997-9.496,10.083-13.437c0.746-0.984,1.562-2.002,2.082-3.127
			c0.206-0.467,0.373-0.996,0.245-1.507c-0.077-0.312-0.287-0.579-0.593-0.691c-0.494-0.176-1.082-0.036-1.57,0.106
			c-0.845,0.261-1.654,0.664-2.434,1.078c-3.476,1.896-7.053,4.576-10.619,6.302l-3.722,1.788c-0.743,0.375-1.495,0.778-2.155,1.288
			c-0.432,0.335-0.832,0.725-1.119,1.193c-0.413,0.673-0.571,1.471-0.602,2.251c-0.048,0.829,0.123,1.713,0.115,2.541
			c-0.008,0.416-0.088,0.839-0.29,1.207c-0.206,0.38-0.502,0.706-0.824,0.992c-0.446,0.392-0.953,0.719-1.483,0.986
			c-0.81,0.881-1.769,1.816-2.646,2.636c-1.469,1.305-3.755,3.47-5.249,4.693c-0.493,0.401-1.017,0.8-1.552,1.144
			c-0.747,0.477-1.57,0.89-2.463,0.977c-0.695,0.073-1.411-0.075-2.014-0.43c-0.699-0.409-1.24-1.043-1.674-1.718
			c-0.384-0.611-0.705-1.273-0.909-1.966c-0.153-0.534-0.207-1.118-0.027-1.652c0.138-0.413,0.399-0.774,0.685-1.098
			c0.263-0.298,0.567-0.581,0.862-0.847c1.283-1.116,4.492-4.079,5.832-5.04c-1.551-1.256-3.202-2.559-4.139-4.362
			c-0.343-0.662-0.599-1.392-0.608-2.144c-0.024-1.141,0.712-2.097,1.407-2.932c1.656-1.951,3.546-3.854,5.416-5.602
			c1.431-1.346,3.041-2.582,4.666-3.687c-0.339-0.027-0.66-0.166-0.951-0.337c-0.453-0.27-0.852-0.629-1.195-1.028
			c-0.614-0.72-1.09-1.631-1.043-2.599c0.023-0.625,0.229-1.232,0.516-1.784c0.48-0.921,1.181-1.711,1.918-2.435
			c0.568-0.548,1.582-1.488,2.091-2.07C834.108,159.318,834.882,158.317,835.46,157.577z"/>
	</g>
	<g id="POLYLINE_00000073691431681538378140000006664320146898494910_">
		
			<path fill="none" stroke="#3A54F5" stroke-width="2.35" stroke-linecap="round" stroke-linejoin="round" stroke-miterlimit="10" d="
			M217.949,122.844c-0.025-10.757,5.502-20.97,14.521-26.832c16.481-10.719,38.543-4.307,46.712,13.575
			c3.818,8.341,3.818,18.173,0,26.514c-8.169,17.882-30.231,24.294-46.712,13.575C223.451,143.814,217.923,133.601,217.949,122.844z
			"/>
	</g>
	<g id="POLYLINE_00000147222294715543772550000007343136121437679237_">
		
			<path fill="none" stroke="#3A54F5" stroke-width="2.35" stroke-linecap="round" stroke-linejoin="round" stroke-miterlimit="10" d="
			M312.406,157.959l-0.175,0.167c0,0-0.172,0.169-0.172,0.169l-0.025,0.025c-0.048,0.049-0.108,0.1-0.16,0.146
			c-0.192,0.164-0.405,0.306-0.63,0.42c-0.801,0.412-1.776,0.46-2.614,0.13c-0.356-0.139-0.689-0.342-0.974-0.598
			c0,0-0.027-0.024-0.027-0.024l-0.026-0.024c0,0-0.026-0.025-0.026-0.025s-0.026-0.025-0.026-0.025s-0.025-0.025-0.025-0.025
			s-5.636-5.636-5.636-5.636c-0.11-0.111-0.216-0.232-0.309-0.358c-0.641-0.854-0.809-2.035-0.426-3.033
			c0.122-0.325,0.297-0.631,0.517-0.9c0.485-0.431,76.873-76.969,77.405-77.421c0.206-0.184,0.438-0.343,0.684-0.468
			c0.595-0.303,1.287-0.414,1.947-0.309c0.484,0.076,0.952,0.264,1.352,0.547c0.119,0.086,0.236,0.178,0.342,0.279
			c0.023,0.024,0.055,0.051,0.077,0.074c0,0,7.902,7.902,7.902,7.902c0.082,0.054,69.097,69.114,69.168,69.171
			c0.09,0.098,0.179,0.204,0.257,0.312c0.295,0.407,0.492,0.886,0.569,1.383c0.104,0.66-0.005,1.352-0.309,1.947
			c-0.126,0.247-0.283,0.478-0.468,0.684c0.035,0.119-77.158,77.062-77.179,77.187c-0.076,0.074-0.158,0.151-0.241,0.218
			c-0.269,0.219-0.575,0.395-0.9,0.517c-0.565,0.212-1.191,0.26-1.781,0.136c-0.547-0.114-1.063-0.375-1.48-0.748
			c-0.043-0.036-0.09-0.084-0.13-0.123c0,0-5.636-5.636-5.636-5.636c-0.076-0.077-0.15-0.157-0.218-0.241
			c-0.245-0.3-0.435-0.647-0.557-1.014c-0.279-0.827-0.197-1.765,0.22-2.532c0.096-0.178,0.21-0.347,0.337-0.504
			c0.044-0.058,0.095-0.11,0.144-0.164c0.021-0.028,0.052-0.051,0.074-0.077c0.09-0.075,0.25-0.267,0.336-0.347
			c-0.638,0.531-1.442,0.859-2.269,0.924c-0.818,0.067-1.654-0.121-2.363-0.534c-0.231-0.134-0.449-0.291-0.649-0.467
			c-0.087-0.047-55.53-55.535-55.647-55.635c-0.259-0.259-0.484-0.556-0.665-0.875c-0.413-0.729-0.591-1.588-0.502-2.421
			C311.573,159.338,311.895,158.571,312.406,157.959z"/>
	</g>
	<g id="POLYLINE_00000182489536198520650230000013300968335728101274_">
		
			<path fill="none" stroke="#3A54F5" stroke-width="2.35" stroke-linecap="round" stroke-linejoin="round" stroke-miterlimit="10" d="
			M126.414,219.139c0,0,0.167,0.175,0.167,0.175s0.169,0.172,0.169,0.172s0.025,0.025,0.025,0.025c0.049,0.048,0.1,0.108,0.146,0.16
			c0.164,0.192,0.306,0.405,0.42,0.63c0.412,0.801,0.46,1.776,0.13,2.614c-0.139,0.356-0.342,0.689-0.598,0.974
			c0,0-0.024,0.027-0.024,0.027s-0.024,0.026-0.024,0.026s-0.025,0.026-0.025,0.026s-0.025,0.026-0.025,0.026
			s-0.025,0.025-0.025,0.025s-5.636,5.636-5.636,5.636c-0.111,0.11-0.232,0.216-0.358,0.309c-0.854,0.641-2.035,0.809-3.033,0.426
			c-0.325-0.122-0.631-0.297-0.9-0.517c-0.431-0.485-76.969-76.873-77.421-77.405c-0.184-0.206-0.343-0.438-0.468-0.684
			c-0.303-0.595-0.414-1.287-0.309-1.947c0.076-0.484,0.264-0.952,0.547-1.352c0.086-0.119,0.178-0.236,0.279-0.342
			c0.024-0.023,0.051-0.055,0.074-0.077c0,0,7.902-7.902,7.902-7.902c0.054-0.082,69.114-69.097,69.171-69.168
			c0.098-0.09,0.204-0.179,0.312-0.257c0.407-0.295,0.886-0.492,1.383-0.569c0.66-0.104,1.352,0.005,1.947,0.309
			c0.247,0.126,0.478,0.283,0.684,0.468c0.119-0.035,77.062,77.158,77.187,77.179c0.074,0.076,0.151,0.158,0.218,0.241
			c0.219,0.269,0.395,0.575,0.517,0.9c0.212,0.565,0.26,1.191,0.136,1.781c-0.114,0.547-0.375,1.063-0.748,1.48
			c-0.036,0.043-0.084,0.09-0.123,0.13c0,0-5.636,5.636-5.636,5.636c-0.077,0.076-0.157,0.15-0.241,0.218
			c-0.3,0.245-0.647,0.435-1.014,0.557c-0.827,0.279-1.765,0.197-2.532-0.22c-0.178-0.096-0.347-0.21-0.504-0.337
			c-0.058-0.044-0.11-0.095-0.164-0.143c-0.028-0.021-0.051-0.052-0.077-0.074c-0.075-0.09-0.267-0.25-0.348-0.336
			c0.532,0.637,0.859,1.442,0.924,2.269c0.067,0.818-0.121,1.654-0.534,2.363c-0.134,0.231-0.291,0.45-0.467,0.649
			c-0.047,0.087-55.535,55.53-55.635,55.647c-0.259,0.259-0.556,0.484-0.875,0.665c-0.729,0.413-1.588,0.591-2.421,0.502
			C127.792,219.972,127.026,219.65,126.414,219.139z"/>
	</g>
</g>
</svg>
