<?xml version="1.0" encoding="utf-8"?>
<!-- Generator: Adobe Illustrator 26.0.2, SVG Export Plug-In . SVG Version: 6.00 Build 0)  -->
<!DOCTYPE svg PUBLIC "-//W3C//DTD SVG 1.1//EN" "http://www.w3.org/Graphics/SVG/1.1/DTD/svg11.dtd" [
	<!ENTITY ns_flows "http://ns.adobe.com/Flows/1.0/">
	<!ENTITY ns_extend "http://ns.adobe.com/Extensibility/1.0/">
	<!ENTITY ns_ai "http://ns.adobe.com/AdobeIllustrator/10.0/">
	<!ENTITY ns_graphs "http://ns.adobe.com/Graphs/1.0/">
	<!ENTITY ns_vars "http://ns.adobe.com/Variables/1.0/">
	<!ENTITY ns_imrep "http://ns.adobe.com/ImageReplacement/1.0/">
	<!ENTITY ns_sfw "http://ns.adobe.com/SaveForWeb/1.0/">
	<!ENTITY ns_custom "http://ns.adobe.com/GenericCustomNamespace/1.0/">
	<!ENTITY ns_adobe_xpath "http://ns.adobe.com/XPath/1.0/">
]>
<svg version="1.1" xmlns:x="&ns_extend;" xmlns:i="&ns_ai;" xmlns:graph="&ns_graphs;"
	 xmlns="http://www.w3.org/2000/svg" xmlns:xlink="http://www.w3.org/1999/xlink" xmlns:a="http://ns.adobe.com/AdobeSVGViewerExtensions/3.0/"
	 x="0px" y="0px" width="1000px" height="425px" viewBox="0 0 1000 425" enable-background="new 0 0 1000 425" xml:space="preserve"
	>
<metadata>
	<sfw  xmlns="&ns_sfw;">
		<slices></slices>
		<sliceSourceBounds  bottomLeftOrigin="true" height="12900" width="3000" x="-2000" y="-6108"></sliceSourceBounds>
	</sfw>
</metadata>
<g id="FILL-BACKGROUND">
	<rect x="0" y="0" display="none" fill="#FFFFFF" width="1000" height="425"/>
</g>
<g id="_x32_D_x24_AG-DETAILS">
	<g id="POLYLINE_00000035491261279983124190000007728290968746392986_">
		
			<rect x="557.692" y="57.692" fill="none" stroke="#3A54F5" stroke-width="1.5" stroke-linecap="round" stroke-linejoin="round" stroke-miterlimit="10" width="384.615" height="307.692"/>
	</g>
	<g id="POLYLINE_00000111913590481954675440000002904017974028628926_">
		
			<rect x="57.692" y="57.692" fill="none" stroke="#3A54F5" stroke-width="1.5" stroke-linecap="round" stroke-linejoin="round" stroke-miterlimit="10" width="384.615" height="307.692"/>
	</g>
</g>
<g id="_x32_D_x24_AG-ANIMALS">
</g>
<g id="_x32_D_x24_AG-PEOPLE">
	<g id="POLYLINE_00000064336559790737129790000008582560549699607222_">
		
			<path fill="none" stroke="#3A54F5" stroke-width="1.75" stroke-linecap="round" stroke-linejoin="round" stroke-miterlimit="10" d="
			M625.086,156.122c-0.038-0.09-0.098-0.175-0.15-0.258c-0.056-0.088-0.083-0.121-0.161-0.192c-0.371-0.336-0.814-0.613-1.236-0.883
			"/>
	</g>
	<g id="POLYLINE_00000074442012590677810540000012077298499327585711_">
		
			<path fill="none" stroke="#3A54F5" stroke-width="1.75" stroke-linecap="round" stroke-linejoin="round" stroke-miterlimit="10" d="
			M610.79,150.408c0.986,1.316,2.083,2.808,2.975,4.184c0.466,0.755,0.996,1.503,1.576,2.173c1.341,1.633,3.199,2.963,4.879,4.23
			c0.406,0.302,0.831,0.601,1.284,0.828c0.25,0.123,0.515,0.229,0.793,0.26c0.169,0.024,0.349-0.008,0.516-0.033
			c0.27-0.04,0.54-0.109,0.78-0.24c0.358-0.192,0.636-0.502,0.871-0.828"/>
	</g>
	<g id="POLYLINE_00000087370146626360098360000003061460227853610925_">
		
			<path fill="none" stroke="#3A54F5" stroke-width="1.75" stroke-linecap="round" stroke-linejoin="round" stroke-miterlimit="10" d="
			M632.124,94.6c0.486,0.208,0.932,0.509,1.349,0.831c0.6,0.469,1.157,1.008,1.673,1.569c0.812,0.888,1.547,1.858,2.19,2.875
			c0.548,0.877,1.051,1.801,1.388,2.781c0.191,0.559,0.302,1.15,0.319,1.74c0.015,0.826-0.057,1.673-0.164,2.491
			c-0.14,0.959-0.405,1.938-1.007,2.716c-0.493,0.632-1.168,1.095-1.842,1.513l-1.691,1.002c-1.159,0.67-2.17,1.655-3.203,2.48
			c-0.503,0.389-1.046,0.752-1.657,0.944c-0.753,0.243-1.563,0.142-2.327,0.005c-0.635-0.115-1.504-0.324-2.14-0.354
			c-0.388-0.023-0.785,0.012-1.151,0.148c-0.55,0.198-1.033,0.607-1.271,1.145c-0.169,0.372-0.192,0.795-0.128,1.195
			c0.102,0.636,0.376,1.234,0.663,1.805c0.126,0.273,0.468,0.856,0.572,1.13c0.079,0.188,0.15,0.385,0.168,0.59
			c0.018,0.191-0.028,0.38-0.154,0.528c-0.161,0.191-0.389,0.311-0.616,0.404c-0.427,0.17-0.888,0.254-1.344,0.304
			c-1.31,0.153-2.62-0.146-3.862-0.54c-1.079-0.343-2.177-0.722-3.147-1.316c-0.43-0.274-0.863-0.602-1.091-1.071
			c-0.203-0.403-0.213-0.923-0.267-1.363c-0.04-0.364-0.134-0.727-0.322-1.043c-0.376-0.658-0.979-1.215-1.318-1.895
			c-0.215-0.42-0.234-0.879-0.139-1.335c0.064-0.321,0.177-0.643,0.29-0.95c0.386-0.946,0.876-2.463,1.19-3.448
			c0.231-0.669,0.476-1.357,0.847-1.963c0.255-0.429,0.686-0.844,1.032-1.203c0.227-0.24,0.438-0.501,0.599-0.79
			c0.173-0.309,0.293-0.649,0.395-0.988c0.48-1.662,0.651-3.591,1.383-5.173c0.378-0.818,0.948-1.547,1.65-2.112
			c0.848-0.688,1.859-1.151,2.89-1.494c1.914-0.624,3.959-0.922,5.954-1.16c0.425-0.044,1.849-0.196,2.249-0.228
			C630.779,94.307,631.471,94.311,632.124,94.6z"/>
	</g>
	<g id="POLYLINE_00000120534023266623582550000005064497201886691736_">
		
			<path fill="none" stroke="#3A54F5" stroke-width="1.75" stroke-linecap="round" stroke-linejoin="round" stroke-miterlimit="10" d="
			M636.696,110.68c-0.856,1.745-2.023,4.662-2.753,6.493c-0.223,0.513-0.451,1.091-0.737,1.569
			c-0.138,0.228-0.309,0.438-0.517,0.605c-0.257,0.208-0.558,0.357-0.861,0.484c-0.517,0.214-1.069,0.367-1.613,0.494
			c-1.432,0.319-2.916,0.502-4.385,0.428c-0.759-0.04-1.519-0.189-2.25-0.391"/>
	</g>
	<g id="POLYLINE_00000107585481436330779760000004807697898035676084_">
		
			<path fill="none" stroke="#3A54F5" stroke-width="1.75" stroke-linecap="round" stroke-linejoin="round" stroke-miterlimit="10" d="
			M610.892,123.632c0.034,1.115,0.2,2.743,0.305,3.87c0.101,1.088,0.248,2.215,0.511,3.275c0.245,0.974,0.502,1.975,0.963,2.872
			c0.108,0.19,0.228,0.4,0.421,0.514c0.222,0.127,0.526,0.037,0.765,0.017c0.352-0.039,0.733-0.039,1.088-0.036
			c1.717,0.032,4.184,0.21,5.888,0.114c1.538-0.063,3.146-0.26,4.672-0.473c3.965-0.565,8.239-1.315,12.152-2.171"/>
	</g>
	<g id="POLYLINE_00000049202513394115733980000017175560301639297677_">
		
			<path fill="none" stroke="#3A54F5" stroke-width="1.75" stroke-linecap="round" stroke-linejoin="round" stroke-miterlimit="10" d="
			M640.364,118.387c-0.006,1.777-0.051,3.601-0.362,5.353c-0.354,2.059-1.046,4.138-1.721,6.114
			c-0.641,1.74-3.144,9.099-3.85,10.664c-0.378,0.869-0.822,1.729-1.356,2.513c-0.311,0.463-0.834,1.172-1.1,1.65
			c-0.089,0.16-0.171,0.328-0.226,0.504c-0.05,0.16-0.077,0.333-0.04,0.499c0.077,0.326,0.365,0.543,0.637,0.707
			c0.192,0.114,0.401,0.21,0.606,0.296c0.814,0.335,2.059,0.738,2.893,1.033c0.502,0.169,1.025,0.299,1.555,0.338
			c0.599,0.044,1.206-0.012,1.793-0.134c0.731-0.16,1.467-0.419,2.049-0.902c0.392-0.327,0.666-0.774,0.858-1.243
			c0.242-0.56,0.534-1.69,0.719-2.284c1.233-3.995,3.279-9.046,4.459-13.052c0.924-3.095,1.67-6.964,2.877-9.961
			c0.212-0.586,0.388-1.196,0.474-1.815c0.109-0.779,0.104-1.583,0.06-2.367c-0.104-1.636-0.398-3.27-0.85-4.845
			c-0.618-2.081-1.564-4.229-3.281-5.632c-0.832-0.674-1.836-1.104-2.861-1.389c-1.525-0.427-3.124-0.613-4.704-0.648"/>
	</g>
	<g id="POLYLINE_00000053544339427565094490000008957067931021027213_">
		
			<path fill="none" stroke="#3A54F5" stroke-width="1.75" stroke-linecap="round" stroke-linejoin="round" stroke-miterlimit="10" d="
			M613.581,108.182c-2.064,0.507-4.173,1.063-6.12,1.924c-1.61,0.716-3.179,1.75-3.992,3.366c-0.636,1.195-1.038,2.943-1.431,4.243
			c-0.396,1.344-0.94,2.693-1.502,3.977c-0.902,2.049-2.537,5.377-3.212,7.467c-0.228,0.704-0.426,1.433-0.495,2.171
			c-0.035,0.382-0.032,0.772,0.045,1.149c0.07,0.347,0.203,0.68,0.369,0.991c0.266,0.513,1.029,1.576,1.35,2.072
			c2.485,3.8,5.362,9.168,7.79,13.013c0.351,0.537,0.717,1.109,1.13,1.601c0.409,0.484,0.953,1.003,1.637,0.932
			c0.708-0.073,1.377-0.537,1.986-0.883c0.932-0.557,1.849-1.176,2.648-1.915c0.382-0.359,0.754-0.749,1.003-1.214
			c0.112-0.213,0.196-0.448,0.205-0.69c0.009-0.221-0.05-0.44-0.145-0.638c-0.196-0.406-0.511-0.745-0.821-1.066
			c-0.962-0.957-2.031-1.961-2.796-3.084c-1.267-1.871-2.091-4.04-2.884-6.144c-0.393-1.108-0.756-2.258-0.935-3.422
			c-0.103-0.685-0.139-1.393,0.011-2.073c0.102-0.476,0.289-0.933,0.513-1.364c0.185-0.405,1.584-2.694,1.814-3.119
			c0.609-1.028,1.261-2.097,2.005-3.034"/>
	</g>
	<g id="POLYLINE_00000021092356619418302920000015047413115272502686_">
		
			<path fill="none" stroke="#3A54F5" stroke-width="1.75" stroke-linecap="round" stroke-linejoin="round" stroke-miterlimit="10" d="
			M609.905,139.249c0.673-1.001,1.666-2.36,2.211-3.42c0.307-0.589,0.554-1.226,0.766-1.855"/>
	</g>
	<g id="POLYLINE_00000032631261582782503160000013428334681157804950_">
		
			<path fill="none" stroke="#3A54F5" stroke-width="1.75" stroke-linecap="round" stroke-linejoin="round" stroke-miterlimit="10" d="
			M636.657,147.949c-1.307,1.719-2.657,3.599-3.816,5.422c-0.604,1.019-1.323,1.989-2.123,2.861
			c-1.297,1.438-3.104,2.749-4.639,3.93c-0.391,0.278-0.803,0.547-1.253,0.722c-0.217,0.079-0.457,0.148-0.687,0.09
			c-0.222-0.055-0.381-0.244-0.466-0.447c-0.127-0.301-0.152-0.637-0.141-0.961c0.034-0.935,0.46-1.804,0.971-2.569
			c0.414-0.613,0.886-1.275,1.153-1.966c0.079-0.201,0.157-0.408,0.188-0.622c0.011-0.094,0.017-0.197-0.03-0.282
			c-0.074-0.123-0.252-0.107-0.375-0.09c-0.353,0.061-0.697,0.216-1.028,0.35c-0.646,0.262-1.2,0.592-1.789,0.879
			c-0.163,0.07-0.339,0.133-0.519,0.117c-0.113-0.011-0.219-0.064-0.302-0.141c-0.12-0.112-0.215-0.285-0.174-0.452
			c0.038-0.138,0.154-0.236,0.263-0.32c1.869-1.197,4.096-2.715,5.914-4c1.665-1.183,3.276-2.497,4.644-4.018"/>
	</g>
	<g id="POLYLINE_00000080171329540482723760000016933677399863256486_">
		
			<path fill="none" stroke="#3A54F5" stroke-width="1.75" stroke-linecap="round" stroke-linejoin="round" stroke-miterlimit="10" d="
			M622.462,154.096c-2.809-1.878-5.916-3.776-8.235-6.253"/>
	</g>
	<g id="POLYLINE_00000142144065533897814760000011700606809558108800_">
		
			<path fill="none" stroke="#3A54F5" stroke-width="1.75" stroke-linecap="round" stroke-linejoin="round" stroke-miterlimit="10" d="
			M647.802,128.569c0.415,0.894,0.797,1.828,1.041,2.784c0.408,1.597,0.566,3.287,0.69,4.928l0.279,5.204
			c0.072,1.077,0.182,2.203,0.361,3.268l0.437,2.426c0.082,0.521,0.167,1.058,0.143,1.587c-0.012,0.23-0.051,0.462-0.144,0.674
			c-0.087,0.199-0.224,0.374-0.39,0.514c-0.381,0.317-0.859,0.49-1.331,0.621c-1.157,0.306-2.381,0.345-3.572,0.346
			c-2.158-0.013-4.911-0.205-7.065-0.123c-1.323,0.045-2.68,0.21-3.984,0.435"/>
	</g>
	<g id="POLYLINE_00000125569173697840606490000017074614548779359890_">
		
			<path fill="none" stroke="#3A54F5" stroke-width="1.75" stroke-linecap="round" stroke-linejoin="round" stroke-miterlimit="10" d="
			M624.035,153.066c-0.665,0.084-2.006,0.238-2.672,0.306"/>
	</g>
	<g id="POLYLINE_00000138562011928940070890000006697511106916638860_">
		
			<path fill="none" stroke="#3A54F5" stroke-width="1.75" stroke-linecap="round" stroke-linejoin="round" stroke-miterlimit="10" d="
			M613.285,153.865c-2.309-0.005-4.674-0.228-6.828-1.11c-0.611-0.263-1.241-0.571-1.692-1.074
			c-0.172-0.196-0.295-0.439-0.318-0.701c-0.038-0.438,0.129-0.864,0.279-1.267l0.929-2.321"/>
	</g>
	<g id="POLYLINE_00000157309582015347626580000016847871770483675816_">
		
			<path fill="none" stroke="#3A54F5" stroke-width="1.75" stroke-linecap="round" stroke-linejoin="round" stroke-miterlimit="10" d="
			M638.046,217.969c1.553-2.244,3.16-4.554,4.031-7.163c0.402-1.193,0.494-2.588,0.813-3.803c0.313-1.218,0.887-2.539,1.223-3.75
			c0.066-0.263,0.113-0.536,0.108-0.808c-0.004-0.317-0.089-0.634-0.251-0.908c-0.151-0.26-0.362-0.481-0.588-0.678
			c-1.24-1.037-2.931-1.709-4.381-2.405c-0.166-0.078-0.547-0.282-0.715-0.371"/>
	</g>
	<g id="POLYLINE_00000178166274951094137250000008500605498653039252_">
		
			<path fill="none" stroke="#3A54F5" stroke-width="1.75" stroke-linecap="round" stroke-linejoin="round" stroke-miterlimit="10" d="
			M637.996,199.651c0.345,0.891,0.77,1.915,0.987,2.84c0.138,0.569,0.221,1.156,0.252,1.741c0.08,1.534-0.172,3.093-0.761,4.512
			c-0.541,1.265-1.302,2.473-2.296,3.431"/>
	</g>
	<g id="POLYLINE_00000090976255475967643520000014738824015397568410_">
		
			<path fill="none" stroke="#3A54F5" stroke-width="1.75" stroke-linecap="round" stroke-linejoin="round" stroke-miterlimit="10" d="
			M636.632,214.24c0.215,0.338,0.37,0.723,0.522,1.093c0.373,0.939,0.694,1.945,0.973,2.916c0.411,1.463,0.765,2.975,0.879,4.494
			c0.064,0.932,0.046,1.89-0.198,2.797c-0.152,0.536-0.4,1.1-0.894,1.401c-0.382,0.23-0.856,0.233-1.279,0.136
			c-1.077-0.259-1.945-1.046-2.575-1.928c-0.872-1.189-1.695-3.103-2.363-4.429c-0.92-1.904-2.338-4.163-2.972-6.174
			c-0.159-0.535-0.249-1.096-0.219-1.655c0.046-0.862,0.35-1.692,0.722-2.464c0.115-0.225,0.236-0.456,0.401-0.649
			c0.04-0.044,0.083-0.088,0.137-0.114l0.003-0.001l0.003-0.001l0.003-0.001l0.003-0.001l0.003-0.001l0.003-0.001l0.003-0.001
			l0.003-0.001l0.003-0.001l0.003-0.001l0.003-0.001l0.003-0.001l0.003,0l0.003,0c0.003,0,0.007-0.001,0.011-0.001l0.002,0h0.002
			l0.002,0l0.002,0l0.002,0l0.002,0l0.002,0l0.002,0l0.002,0l0.002,0l0.002,0l0.002,0l0.002,0l0.002,0l0.002,0l0.002,0l0.002,0
			c0.043,0.013,0.072,0.051,0.094,0.088c0.122,0.21,0.257,1.142,0.321,1.402c0.364,1.7,0.916,3.426,2.035,4.788
			c0.292,0.355,0.62,0.69,1.003,0.946c0.216,0.142,0.455,0.262,0.713,0.3c0.423,0.065,0.818-0.134,1.095-0.446
			c0.533-0.614,0.729-1.464,0.968-2.224c0.049-0.143,0.104-0.345,0.208-0.454c0.021-0.02,0.046-0.036,0.075-0.039
			c0.027-0.003,0.054,0.004,0.078,0.017C636.522,214.079,636.578,214.162,636.632,214.24z"/>
	</g>
	<g id="POLYLINE_00000021085786542551536250000017464426349145420712_">
		
			<path fill="none" stroke="#3A54F5" stroke-width="1.75" stroke-linecap="round" stroke-linejoin="round" stroke-miterlimit="10" d="
			M646.216,150.91c-0.663,1.597-2.153,5.711-2.775,7.391c-0.557,1.526-1.714,4.316-2.344,5.844
			c-0.708,1.813-1.398,3.703-1.461,5.667c-0.049,1.777,0.457,3.79,0.674,5.551c0.242,1.782,0.253,3.61,0.166,5.404
			c-0.168,3.573-0.731,7.628-1.23,11.185c-0.25,1.631-0.765,5.214-1.075,6.796c-0.234,1.251-0.526,2.649-0.86,3.876
			c-0.245,0.896-0.743,2.624-0.92,3.533c-0.528,2.589-0.401,5.285,0.052,7.876"/>
	</g>
	<g id="POLYLINE_00000075129621148599890960000015949785059106919832_">
		
			<path fill="none" stroke="#3A54F5" stroke-width="1.75" stroke-linecap="round" stroke-linejoin="round" stroke-miterlimit="10" d="
			M627.739,158.883l0.701,4.662c1.164,8.708,1.893,18.081,2.309,26.859c0.067,2.23,0.309,9.938,0.341,12.027
			c0.005,1.525,0.023,3.114-0.282,4.612c-0.187,0.962-0.61,1.889-0.803,2.849"/>
	</g>
	<g id="POLYLINE_00000013897141820189154190000005554128230062931635_">
		
			<path fill="none" stroke="#3A54F5" stroke-width="1.75" stroke-linecap="round" stroke-linejoin="round" stroke-miterlimit="10" d="
			M612.695,153.859c1.741,6.405,3.771,13.011,6.231,19.176c0.921,2.315,4.104,8.355,5.244,10.671
			c1.819,3.742,4.747,9.948,6.795,13.505"/>
	</g>
	<g id="POLYLINE_00000042707133020517849750000000839650135426534316_">
		
			<path fill="none" stroke="#3A54F5" stroke-width="1.75" stroke-linecap="round" stroke-linejoin="round" stroke-miterlimit="10" d="
			M771.53,196.849c0.016,0.849,0.028,5.073,0.093,5.822c0.05,0.669,0.164,1.342,0.377,1.98c0.53,1.561,1.581,3.155,3.218,3.681
			c0.934,0.307,1.991,0.275,2.884-0.15c0.576-0.273,1.064-0.719,1.408-1.253c0.453-0.696,0.669-1.518,0.798-2.331
			c0.13-0.831,0.172-1.701,0.187-2.542c0.024-1.603-0.059-4.166-0.078-5.785"/>
	</g>
	<g id="POLYLINE_00000018956899884158966550000018253294906228238007_">
		
			<path fill="none" stroke="#3A54F5" stroke-width="1.75" stroke-linecap="round" stroke-linejoin="round" stroke-miterlimit="10" d="
			M791.517,193.659c-0.215,2.406,0.03,4.858,0.363,7.243c0.142,0.982,0.327,1.987,0.603,2.939c0.12,0.419,0.257,0.843,0.458,1.232
			c0.213,0.417,0.503,0.796,0.858,1.102c0.372,0.325,0.811,0.569,1.264,0.763c0.996,0.416,2.074,0.666,3.154,0.689
			c0.629,0.006,1.324-0.087,1.787-0.554c0.426-0.43,0.582-1.044,0.686-1.622c0.355-2.123,0.03-6.084,0.012-8.265"/>
	</g>
	<g id="POLYLINE_00000117661050456148038250000012770047871371363733_">
		
			<path fill="none" stroke="#3A54F5" stroke-width="1.75" stroke-linecap="round" stroke-linejoin="round" stroke-miterlimit="10" d="
			M829.826,162.455c0.339,0.957,0.656,1.973,0.903,2.958c0.192,0.782,0.426,1.841,0.718,2.584c0.441,1.18,1.06,2.532,1.134,3.799
			c0.079,1.03-0.111,2.138-0.784,2.952c-0.396,0.481-0.938,0.822-1.507,1.064c-0.676,0.282-1.412,0.446-2.146,0.427
			c-0.374-0.013-0.758-0.078-1.082-0.274c-0.313-0.185-0.536-0.491-0.677-0.822c-0.169-0.392-0.253-0.819-0.319-1.238
			c-0.148-0.919-0.186-2.081-0.446-2.975c-0.06-0.18-0.13-0.367-0.27-0.501l-0.006-0.006l-0.007-0.006l-0.007-0.005l-0.007-0.005
			l-0.007-0.005l-0.007-0.005l-0.007-0.005l-0.007-0.005l-0.007-0.004l-0.007-0.004l-0.007-0.004l-0.007-0.004
			c-0.115-0.064-0.254-0.053-0.377-0.019c-0.512,0.159-0.993,0.565-1.522,0.728c-0.36,0.112-0.776,0.135-1.118-0.047
			c-0.194-0.106-0.321-0.282-0.337-0.505c-0.016-0.199,0.032-0.398,0.095-0.586c0.272-0.782,0.815-1.452,1.252-2.146
			c0.449-0.706,0.576-1.561,0.575-2.385"/>
	</g>
	<g id="POLYLINE_00000000914439067843982610000000265305977264660402_">
		
			<path fill="none" stroke="#3A54F5" stroke-width="1.75" stroke-linecap="round" stroke-linejoin="round" stroke-miterlimit="10" d="
			M753.253,162.133c-0.497,1.413-1.053,2.864-1.816,4.155c-0.986,1.714-2.332,3.574-2.525,5.591
			c-0.051,0.543-0.008,1.103,0.179,1.618c0.353,0.978,1.2,1.69,2.096,2.167c0.592,0.302,1.255,0.545,1.929,0.512
			c0.406-0.022,0.773-0.197,1.054-0.49c0.28-0.288,0.478-0.646,0.65-1.006c0.456-0.959,0.773-2.176,1.309-3.095
			c0.102-0.159,0.217-0.324,0.385-0.418l0.008-0.004l0.008-0.004l0.008-0.004l0.008-0.003l0.008-0.003l0.008-0.003l0.008-0.003
			l0.008-0.003l0.008-0.003l0.008-0.002l0.008-0.002l0.008-0.002c0.137-0.036,0.277,0.018,0.394,0.088
			c0.499,0.324,0.858,0.859,1.391,1.136c0.263,0.137,0.565,0.221,0.863,0.183c0.163-0.021,0.327-0.088,0.439-0.212
			c0.095-0.105,0.143-0.244,0.166-0.382c0.051-0.34-0.012-0.686-0.087-1.018c-0.166-0.77-0.563-1.523-0.701-2.267
			c-0.07-0.395-0.057-0.801-0.007-1.198c0.074-0.568,0.226-1.131,0.45-1.659"/>
	</g>
	<g id="POLYLINE_00000114776685190486960550000002262669855498699669_">
		
			<path fill="none" stroke="#3A54F5" stroke-width="1.75" stroke-linecap="round" stroke-linejoin="round" stroke-miterlimit="10" d="
			M782.009,144.728c0.316,0.829,0.781,1.61,1.405,2.245c0.738,0.755,1.685,1.288,2.688,1.606c1.007,0.322,2.076,0.443,3.13,0.471
			c1.62,0.038,3.259-0.14,4.846-0.461c0.8-0.166,1.609-0.37,2.351-0.718c0.425-0.202,0.838-0.459,1.151-0.816
			c0.409-0.464,0.589-1.082,0.652-1.687"/>
	</g>
	<g id="POLYLINE_00000126298346147045971690000006338740435356449952_">
		
			<path fill="none" stroke="#3A54F5" stroke-width="1.75" stroke-linecap="round" stroke-linejoin="round" stroke-miterlimit="10" d="
			M783.353,122.731c-1.377,0.888-2.485,2.112-3.354,3.493c-0.877,1.385-1.549,2.919-1.884,4.527
			c-0.45,2.129-0.167,4.338,0.237,6.452c0.141,0.678,0.516,2.479,0.655,3.131c0.161,0.727,0.37,1.46,0.764,2.098
			c0.665,1.063,1.685,1.866,2.664,2.627c0.384,0.282,1.081,0.802,1.47,1.072c0.341,0.24,0.708,0.455,1.107,0.581
			c0.617,0.198,1.277,0.252,1.92,0.294c1.037,0.057,2.092,0.035,3.127-0.045c0.828-0.071,1.671-0.166,2.472-0.393
			c0.58-0.158,1.146-0.452,1.723-0.62c0.749-0.21,1.597-0.151,2.367-0.214c0.689-0.05,1.411-0.168,1.98-0.589
			c0.47-0.34,0.823-0.817,1.114-1.313c0.547-0.955,0.949-2.021,1.352-3.043c0.804-2.136,1.471-4.377,1.573-6.67
			c0.107-2.628-0.51-5.322-1.933-7.549c-0.874-1.366-2.041-2.531-3.309-3.533c-1.339-1.042-2.843-1.932-4.494-2.365
			c-1.735-0.451-3.576-0.295-5.291,0.167C786.108,121.245,784.654,121.871,783.353,122.731z"/>
	</g>
	<g id="POLYLINE_00000144305632256124261560000014727118966499445173_">
		
			<path fill="none" stroke="#3A54F5" stroke-width="1.75" stroke-linecap="round" stroke-linejoin="round" stroke-miterlimit="10" d="
			M797.897,123.444c2.16,0.01,4.463-0.005,6.538,0.655c1.337,0.423,2.695,1.326,3.897,2.044c2.761,1.62,5.991,3.263,8.102,5.713
			c0.951,1.068,1.764,2.274,2.484,3.507c2.646,4.472,4.924,10.778,6.851,15.637c0.61,1.495,1.321,3.174,2.042,4.611
			c0.511,1.051,1.398,2.537,1.992,3.56c0.303,0.548,0.628,1.113,0.796,1.72c0.05,0.191,0.082,0.391,0.057,0.589
			c-0.032,0.279-0.204,0.521-0.417,0.695c-0.122,0.102-0.259,0.19-0.397,0.27c-0.519,0.295-1.364,0.643-1.914,0.895
			c-0.785,0.344-1.807,0.936-2.559,1.368c-0.384,0.213-0.789,0.435-1.197,0.594c-0.21,0.079-0.43,0.152-0.657,0.152
			c-0.119,0-0.239-0.032-0.336-0.103c-0.199-0.148-0.296-0.389-0.389-0.61l-0.307-0.801c-1.876-4.439-4.714-9.201-7.121-13.4
			c-0.359-0.603-0.722-1.286-1.189-1.813c-1.216-1.329-2.555-2.574-3.976-3.683"/>
	</g>
	<g id="POLYLINE_00000101088193011043903750000000900379483505203642_">
		
			<path fill="none" stroke="#3A54F5" stroke-width="1.75" stroke-linecap="round" stroke-linejoin="round" stroke-miterlimit="10" d="
			M771.181,142.372c-0.767,1.679-1.756,4.015-2.449,5.729c-1.121,3.104-2.314,6.299-3.98,9.154c-0.747,1.302-2.12,3.354-2.841,4.667
			c-0.461,0.806-0.918,1.927-1.301,2.779c-0.138,0.291-0.279,0.592-0.477,0.847c-0.07,0.087-0.148,0.17-0.246,0.225
			c-0.093,0.053-0.205,0.065-0.309,0.043c-0.068-0.014-0.134-0.039-0.197-0.068c-0.313-0.161-0.76-0.458-1.069-0.632l-1.637-1.027
			c-0.331-0.2-0.716-0.421-1.057-0.601c-0.441-0.227-1.315-0.663-1.727-0.913c-0.303-0.185-0.606-0.385-0.849-0.646
			c-0.115-0.125-0.217-0.267-0.277-0.427c-0.053-0.14-0.07-0.293-0.06-0.442c0.032-0.408,0.222-0.785,0.406-1.144
			c0.778-1.364,1.41-2.628,2.018-4.076c0.351-0.835,1.998-4.794,2.333-5.531c0.328-0.764,2.211-4.717,2.603-5.55
			c0.478-1.036,1.022-2.263,1.431-3.325c0.294-0.752,1.105-3.063,1.391-3.817c0.531-1.402,1.127-2.818,1.99-4.051
			c0.576-0.826,1.295-1.55,2.067-2.193c1.026-0.87,2.65-1.912,3.757-2.682c0.869-0.602,2.459-1.827,3.299-2.46
			c1.017-0.743,2.078-1.485,3.272-1.912c1.505-0.545,3.189-0.543,4.772-0.58"/>
	</g>
	<g id="POLYLINE_00000125592190852685082560000001793958315768764341_">
		
			<path fill="none" stroke="#3A54F5" stroke-width="1.75" stroke-linecap="round" stroke-linejoin="round" stroke-miterlimit="10" d="
			M771.831,147.537c-0.508,1.581-1.018,3.263-1.371,4.883c-0.417,1.881-0.694,3.876-0.906,5.791
			c-0.423,3.981-0.645,8.055-0.556,12.059c0.071,3.123,0.477,7.088,0.606,10.216c0.152,4.006,0.054,8.2-0.178,12.202
			c-0.027,0.646-0.246,2.463-0.157,3.067c0.021,0.137,0.059,0.275,0.134,0.392c0.095,0.151,0.251,0.252,0.414,0.319
			c0.377,0.152,0.84,0.216,1.239,0.299c1.071,0.196,2.177,0.355,3.266,0.388c1.126,0.055,2.47-0.211,3.584-0.391l1.246-0.174
			c0.741-0.121,1.552-0.289,2.086-0.859c0.273-0.295,0.424-0.679,0.517-1.064c0.128-0.534,0.159-1.096,0.173-1.643
			c0.019-1.755-0.135-3.739,0.13-5.475c0.275-2.184,1.195-5.193,1.707-7.35c0.7-2.833,1.459-8.08,2.003-10.986
			c0.345-1.879,0.824-3.83,1.377-5.66c0,0,1.239-4.012,1.239-4.012l0.14-0.476c0.182-0.618,0.526-1.98,0.718-2.595
			c0.09-0.274,0.18-0.566,0.333-0.814c0.035-0.054,0.076-0.109,0.127-0.149l0.004-0.003l0.004-0.003l0.005-0.003l0.004-0.003
			l0.004-0.003l0.004-0.003l0.005-0.003l0.005-0.003l0.004-0.002l0.005-0.002l0.005-0.002l0.005-0.002l0.005-0.002l0.005-0.002
			l0.005-0.002l0.005-0.002l0.005-0.001l0.005-0.001l0.005-0.001l0.005-0.001l0.005-0.001l0.003,0l0.003,0l0.003,0l0.003,0l0.003,0
			l0.003,0l0.003,0l0.003,0l0.003,0c0.1,0.001,0.179,0.078,0.242,0.148c0.152,0.182,0.256,0.402,0.354,0.617
			c0.451,1.031,0.718,2.156,0.965,3.251c0.583,2.825,1.536,7.767,2.251,10.486c0.434,1.831,1.782,5.979,2.358,7.836
			c0.334,1.109,0.677,2.269,0.873,3.411c0.107,0.638,0.17,1.294,0.115,1.94c-0.07,0.945-0.46,1.844-1.033,2.593
			c-0.455,0.602-1.021,1.134-1.702,1.469c-0.368,0.191-0.831,0.398-1.154,0.66c-0.419,0.322-0.79,0.711-1.127,1.116
			c-0.567,0.686-1.099,1.464-1.143,2.382c-0.027,0.441,0.029,0.886,0.153,1.31c0.12,0.406,0.306,0.799,0.581,1.124
			c0.262,0.312,0.598,0.557,0.949,0.759c0.626,0.356,1.685,0.801,2.349,1.11c1.208,0.532,2.47,1.002,3.768,1.257
			c1.164,0.232,2.37,0.278,3.554,0.257c0.741-0.024,1.543-0.046,2.278-0.142c0.211-0.033,0.424-0.082,0.623-0.16
			c0.652-0.259,1.154-0.784,1.609-1.301c1.33-1.589,2.31-3.467,3.028-5.405c0.628-1.681,0.906-3.467,0.954-5.256
			c0.032-4.956,0.097-10.913,0.354-15.863c0.131-3.376,0.54-7.883,0.6-11.25c0.018-1.464-0.066-2.957-0.337-4.397
			c-0.287-1.606-0.848-3.397-1.071-5.016"/>
	</g>
	<g id="POLYLINE_00000065053376569255305360000001947696606381640608_">
		
			<path fill="none" stroke="#3A54F5" stroke-width="1.75" stroke-linecap="round" stroke-linejoin="round" stroke-miterlimit="10" d="
			M769.452,146.344c0.487,0.112,0.943,0.332,1.365,0.596c1.261,0.841,2.605,1.304,4.046,1.737c3.431,1.02,7.023,1.566,10.596,1.732
			c2.084,0.1,6.634,0.27,8.75,0.343c4.439,0.081,9.025,0.14,13.315-1.146c1.093-0.343,2.205-0.759,3.083-1.516
			c0.508-0.434,1.087-0.923,1.625-1.315"/>
	</g>
</g>
<g id="_x32_D_x24_AG-FURNITURE">
	<g id="POLYLINE_00000048502188037007662730000014071598970565741967_">
		
			<line fill="none" stroke="#3A54F5" stroke-width="1.75" stroke-linecap="round" stroke-linejoin="round" stroke-miterlimit="10" x1="781.915" y1="189.103" x2="791.869" y2="189.103"/>
	</g>
	<g id="POLYLINE_00000065792170702703115240000008255028298280551085_">
		
			<path fill="none" stroke="#3A54F5" stroke-width="1.75" stroke-linecap="round" stroke-linejoin="round" stroke-miterlimit="10" d="
			M669.825,185.05c-0.006,1.851,1.283,3.498,3.083,3.935c0.248,0.061,0.505,0.099,0.76,0.112c0.249,0.016,75.273,0.001,75.528,0.004
			c0.395-0.009,0.791-0.076,1.167-0.199c0.837-0.271,1.579-0.824,2.077-1.549c0.465-0.671,0.72-1.487,0.719-2.304
			c-0.009,1.385,0.742,2.731,1.926,3.45c0.336,0.207,0.707,0.366,1.089,0.468c0.178,0.047,0.367,0.083,0.549,0.106
			c0.135,0.016,0.282,0.027,0.419,0.029c0.057,0.003,12.388-0.001,12.454,0.001"/>
	</g>
	<g id="POLYLINE_00000086668515853645498830000003580780270941460874_">
		
			<path fill="none" stroke="#3A54F5" stroke-width="1.75" stroke-linecap="round" stroke-linejoin="round" stroke-miterlimit="10" d="
			M810.063,189.103h20.77c0.063,0,0.149-0.002,0.212-0.006c0.281-0.015,0.565-0.06,0.837-0.133c0.409-0.109,0.803-0.285,1.158-0.516
			c1.137-0.727,1.855-2.049,1.845-3.399"/>
	</g>
	<g id="POLYLINE_00000106133018683811988000000000166160746863915963_">
		
			<line fill="none" stroke="#3A54F5" stroke-width="1.75" stroke-linecap="round" stroke-linejoin="round" stroke-miterlimit="10" x1="753.159" y1="159.825" x2="753.159" y2="109.489"/>
	</g>
	<g id="POLYLINE_00000003798944134248898380000014351785689635828653_">
		
			<line fill="none" stroke="#3A54F5" stroke-width="1.75" stroke-linecap="round" stroke-linejoin="round" stroke-miterlimit="10" x1="753.159" y1="162.397" x2="753.159" y2="162.049"/>
	</g>
	<g id="POLYLINE_00000007392213093370852090000007381660028738334885_">
		
			<line fill="none" stroke="#3A54F5" stroke-width="1.75" stroke-linecap="round" stroke-linejoin="round" stroke-miterlimit="10" x1="753.159" y1="185.05" x2="753.159" y2="176.172"/>
	</g>
	<g id="POLYLINE_00000108299496381457708200000001260993136415965095_">
		
			<path fill="none" stroke="#3A54F5" stroke-width="1.75" stroke-linecap="round" stroke-linejoin="round" stroke-miterlimit="10" d="
			M602.085,117.557c-2.901-0.401-5.846-0.934-8.582-2.005c-1.515-0.61-3.019-1.406-4.11-2.649c-0.506-0.58-0.899-1.265-1.106-2.008
			c-0.194-0.657-0.204-1.348-0.182-2.028c-0.001-0.453-0.036-15.545,0.02-15.755c0.044-0.64,0.146-1.283,0.338-1.897
			c0.199-0.637,0.503-1.247,0.91-1.777c0.404-0.529,0.907-0.98,1.458-1.351c0.807-0.544,1.717-0.933,2.639-1.238
			c1.388-0.456,2.865-0.737,4.31-0.951c8.905-1.206,22.113-0.792,31.207-0.922c9.136,0.133,22.312-0.291,31.272,0.922
			c1.432,0.215,2.901,0.495,4.278,0.952c0.911,0.305,1.812,0.693,2.607,1.238c0.543,0.372,1.039,0.824,1.434,1.351
			c0.383,0.509,0.672,1.089,0.866,1.695c0.195,0.608,0.301,1.245,0.348,1.881c0.024,0.298,0.058,15.29,0.026,15.853
			c0.024,0.714,0.009,1.428-0.207,2.115c-0.323,1.095-1.053,2.03-1.93,2.744c-1.67,1.347-3.743,2.088-5.786,2.663
			c-3.638,0.98-7.456,1.4-11.205,1.696"/>
	</g>
	<g id="POLYLINE_00000031205762960485305240000001425392914981718177_">
		
			<rect x="721.107" y="246.795" fill="none" stroke="#3A54F5" stroke-width="1.75" stroke-linecap="round" stroke-linejoin="round" stroke-miterlimit="10" width="128.205" height="76.923"/>
	</g>
	<g id="POLYLINE_00000008124179504932198390000013084770521262814612_">
		
			<path fill="none" stroke="#3A54F5" stroke-width="1.75" stroke-linecap="round" stroke-linejoin="round" stroke-miterlimit="10" d="
			M669.825,185.05c0.016,0.012-0.011,80.156,0,80.173c-0.002,0.136-0.01,0.277-0.026,0.412c-0.029,0.254-0.082,0.509-0.159,0.753
			c-0.189,0.605-0.523,1.165-0.965,1.619c-0.751,0.777-1.822,1.228-2.902,1.224c-0.037,0.002-73.667,0-73.712-0.001
			c-0.12-0.003-0.248-0.011-0.367-0.025c-0.271-0.031-0.541-0.089-0.8-0.174c-0.62-0.202-1.191-0.557-1.646-1.024
			c-0.443-0.454-0.777-1.014-0.965-1.619c-0.076-0.244-0.13-0.499-0.159-0.753c-0.012-0.12-0.023-0.246-0.025-0.367
			c-0.057-0.1,0.039-79.268-0.001-79.371"/>
	</g>
	<g id="POLYLINE_00000114796540856254981650000008027594623613799598_">
		
			<path fill="none" stroke="#3A54F5" stroke-width="1.75" stroke-linecap="round" stroke-linejoin="round" stroke-miterlimit="10" d="
			M588.098,93.925c0.008,0.049-0.004,92.022-0.002,92.079c-0.006,0.184-0.029,0.371-0.066,0.551
			c-0.07,0.335-0.195,0.661-0.368,0.957c-0.416,0.719-1.122,1.261-1.924,1.477c-0.251,0.068-0.513,0.107-0.773,0.112
			c0,0-0.036,0.001-0.036,0.001s-0.035,0-0.035,0h-7.97c-0.35,0-0.7-0.058-1.031-0.17c-0.634-0.214-1.196-0.633-1.582-1.179
			c-0.298-0.419-0.493-0.911-0.562-1.421c-0.016-0.12-0.026-0.243-0.029-0.364c-0.009-0.043,0.005-109.019-0.001-109.081
			c0.005-0.498,0.129-0.995,0.358-1.437c0.386-0.752,1.082-1.338,1.89-1.587c0.228-0.071,0.467-0.118,0.705-0.136
			c0.082-0.003,0.169-0.012,0.252-0.01c0,0,11.175,0,11.175,0V93.925z"/>
	</g>
	<g id="POLYLINE_00000031913524685350065620000007767108439123381632_">
		
			<line fill="none" stroke="#3A54F5" stroke-width="1.75" stroke-linecap="round" stroke-linejoin="round" stroke-miterlimit="10" x1="588.098" y1="73.718" x2="834.91" y2="73.718"/>
	</g>
	<g id="POLYLINE_00000006705784570299966680000002023434526372220838_">
		
			<path fill="none" stroke="#3A54F5" stroke-width="1.75" stroke-linecap="round" stroke-linejoin="round" stroke-miterlimit="10" d="
			M834.91,73.718c0,0,11.174,0,11.174,0c0.07,0.003,0.146,0,0.215,0.007c0.238,0.016,0.476,0.059,0.704,0.127
			c0.876,0.259,1.624,0.91,1.998,1.744c0.144,0.316,0.236,0.657,0.271,1.002c0.063,0.176-0.01,109.118,0.016,109.37
			c-0.012,0.554-0.171,1.104-0.456,1.579c-0.532,0.899-1.525,1.499-2.569,1.55c-0.331-0.008-8.476,0.05-8.658-0.036
			c-0.62-0.099-1.208-0.385-1.668-0.812c-0.447-0.413-0.773-0.956-0.925-1.546C834.713,171.252,835.01,87.262,834.91,73.718z"/>
	</g>
	<g id="POLYLINE_00000014611623850421389770000009687481200982807204_">
		
			<line fill="none" stroke="#3A54F5" stroke-width="1.75" stroke-linecap="round" stroke-linejoin="round" stroke-miterlimit="10" x1="669.825" y1="185.05" x2="669.825" y2="109.489"/>
	</g>
	<g id="POLYLINE_00000082355352020571128450000006310678578971362988_">
		
			<path fill="none" stroke="#3A54F5" stroke-width="1.75" stroke-linecap="round" stroke-linejoin="round" stroke-miterlimit="10" d="
			M753.159,109.489l0.001,0.106l0.003,0.105l0.005,0.105l0.007,0.104l0.009,0.103l0.011,0.102l0.013,0.101l0.015,0.1l0.017,0.1
			l0.018,0.099l0.02,0.098l0.022,0.097l0.024,0.096l0.026,0.096l0.028,0.095l0.03,0.094l0.031,0.093l0.033,0.093l0.035,0.092
			l0.037,0.091l0.039,0.09l0.041,0.089l0.042,0.089l0.044,0.088l0.046,0.087l0.048,0.086l0.049,0.086l0.051,0.085l0.053,0.084
			l0.055,0.083l0.056,0.083l0.058,0.082l0.06,0.081l0.061,0.081c1.138,1.443,2.829,2.319,4.511,2.978
			c2.905,1.101,6.029,1.626,9.1,2.02c7.971,1.002,18.044,0.881,26.139,0.937c8.122-0.059,18.158,0.065,26.163-0.937
			c3.076-0.394,6.205-0.919,9.116-2.02c1.685-0.658,3.379-1.534,4.521-2.978l0.062-0.081l0.06-0.081l0.058-0.082l0.056-0.083
			l0.055-0.083l0.053-0.084l0.051-0.085l0.05-0.086l0.048-0.086l0.046-0.087l0.044-0.088l0.042-0.089l0.041-0.089l0.039-0.09
			l0.037-0.091l0.035-0.092l0.033-0.093l0.032-0.093l0.03-0.094l0.028-0.095l0.026-0.096l0.024-0.096l0.022-0.097l0.02-0.098
			l0.018-0.099l0.017-0.1l0.015-0.1l0.013-0.101l0.011-0.102l0.009-0.103l0.007-0.104l0.005-0.105l0.003-0.105
			c0.002-0.218,0.001-0.51-0.005-0.728c0.001-0.453,0.036-15.545-0.02-15.755c-0.044-0.64-0.146-1.283-0.338-1.897
			c-0.199-0.637-0.503-1.247-0.91-1.777c-0.404-0.529-0.907-0.98-1.458-1.351c-0.807-0.544-1.717-0.933-2.639-1.238
			c-1.388-0.456-2.865-0.737-4.31-0.951c-8.905-1.206-22.113-0.792-31.207-0.922c-9.136,0.133-22.312-0.291-31.272,0.922
			c-1.432,0.215-2.901,0.495-4.277,0.952c-0.911,0.305-1.812,0.693-2.607,1.238c-0.543,0.372-1.039,0.824-1.434,1.351
			c-0.383,0.509-0.672,1.089-0.866,1.695c-0.195,0.608-0.301,1.245-0.348,1.881c-0.024,0.298-0.058,15.29-0.026,15.853
			C753.159,109.04,753.159,109.313,753.159,109.489z"/>
	</g>
	<g id="POLYLINE_00000083788855037843174510000008339333954187168434_">
		
			<path fill="none" stroke="#3A54F5" stroke-width="1.75" stroke-linecap="round" stroke-linejoin="round" stroke-miterlimit="10" d="
			M669.825,109.489l0.001,0.106l0.003,0.105l0.005,0.105l0.007,0.104l0.009,0.103l0.011,0.102l0.013,0.101l0.015,0.1l0.017,0.1
			l0.019,0.099l0.021,0.098l0.023,0.097l0.025,0.096l0.027,0.096l0.029,0.095l0.031,0.094l0.033,0.093l0.034,0.093l0.036,0.092
			l0.038,0.091l0.04,0.09l0.042,0.089l0.044,0.089l0.046,0.088l0.048,0.087l0.049,0.086l0.051,0.086l0.053,0.085l0.055,0.084
			l0.057,0.083l0.058,0.083l0.06,0.082l0.062,0.081l0.064,0.081c1.19,1.455,2.933,2.321,4.659,2.978
			c2.993,1.1,6.199,1.626,9.354,2.02c8.098,0.995,18.283,0.883,26.504,0.937c8.247-0.057,18.395,0.058,26.526-0.937
			c3.159-0.395,6.37-0.92,9.369-2.02c1.729-0.657,3.475-1.523,4.668-2.978l0.064-0.081l0.062-0.081l0.06-0.082l0.058-0.083
			l0.057-0.083l0.055-0.084l0.053-0.085l0.051-0.086l0.049-0.086l0.048-0.087l0.046-0.088l0.044-0.089l0.042-0.089l0.04-0.09
			l0.038-0.091l0.036-0.092l0.035-0.093l0.033-0.093l0.031-0.094l0.029-0.095l0.027-0.096l0.025-0.096l0.023-0.097l0.021-0.098
			l0.019-0.099l0.017-0.1l0.015-0.1l0.013-0.101l0.011-0.102l0.009-0.103l0.007-0.104l0.005-0.105l0.003-0.105
			c0.002-0.218,0.001-0.51-0.005-0.728c0.001-0.453,0.036-15.545-0.02-15.755c-0.044-0.641-0.146-1.284-0.339-1.897
			c-0.192-0.612-0.481-1.197-0.866-1.711c-0.398-0.533-0.897-0.99-1.445-1.365c-0.837-0.574-1.787-0.976-2.748-1.29
			c-1.41-0.457-2.91-0.737-4.376-0.951c-9.093-1.209-22.604-0.791-31.888-0.922c-9.329,0.134-22.806-0.294-31.956,0.922
			c-1.454,0.214-2.945,0.494-4.344,0.952c-0.921,0.304-1.834,0.692-2.64,1.238c-0.548,0.371-1.049,0.822-1.448,1.351
			c-0.386,0.508-0.677,1.088-0.872,1.695c-0.195,0.608-0.302,1.245-0.35,1.881c-0.023,0.299-0.058,15.29-0.026,15.853
			C669.826,109.04,669.826,109.313,669.825,109.489z"/>
	</g>
	<g id="POLYLINE_00000062875326346244453250000003142537895846257312_">
		
			<path fill="none" stroke="#3A54F5" stroke-width="1.75" stroke-linecap="round" stroke-linejoin="round" stroke-miterlimit="10" d="
			M862.109,147.436c-0.025,10.757,5.502,20.97,14.521,26.832c16.481,10.719,38.543,4.307,46.711-13.575
			c3.818-8.341,3.818-18.173,0-26.514c-8.169-17.882-30.231-24.294-46.712-13.575C867.611,126.466,862.083,136.68,862.109,147.436z"
			/>
	</g>
	<g id="POLYLINE_00000015318195823063543890000017061452420510248840_">
		
			<rect x="221.107" y="246.795" fill="none" stroke="#3A54F5" stroke-width="1.75" stroke-linecap="round" stroke-linejoin="round" stroke-miterlimit="10" width="128.205" height="76.923"/>
	</g>
	<g id="POLYLINE_00000014597429652924483860000005254037392207139201_">
		
			<path fill="none" stroke="#3A54F5" stroke-width="1.75" stroke-linecap="round" stroke-linejoin="round" stroke-miterlimit="10" d="
			M169.825,185.05c0.016,0.012-0.011,80.156,0,80.173c-0.002,0.136-0.01,0.277-0.026,0.412c-0.029,0.254-0.082,0.509-0.159,0.753
			c-0.189,0.605-0.523,1.165-0.965,1.619c-0.751,0.777-1.822,1.228-2.902,1.224c-0.037,0.002-73.667,0-73.712-0.001
			c-0.12-0.003-0.248-0.011-0.367-0.025c-0.271-0.031-0.541-0.089-0.8-0.174c-0.62-0.202-1.191-0.557-1.646-1.024
			c-0.443-0.454-0.777-1.014-0.965-1.619c-0.076-0.244-0.13-0.499-0.159-0.753c-0.012-0.12-0.023-0.246-0.025-0.367
			c-0.057-0.1,0.039-79.268-0.001-79.371"/>
	</g>
	<g id="POLYLINE_00000173129611321746970370000001131428798702105785_">
		
			<path fill="none" stroke="#3A54F5" stroke-width="1.75" stroke-linecap="round" stroke-linejoin="round" stroke-miterlimit="10" d="
			M169.825,185.05c-0.006,1.851,1.283,3.498,3.083,3.935c0.248,0.061,0.505,0.099,0.76,0.112c0.249,0.016,75.273,0.001,75.528,0.004
			c0.395-0.009,0.791-0.076,1.167-0.199c0.837-0.271,1.579-0.824,2.077-1.549c0.465-0.671,0.72-1.487,0.719-2.304
			c-0.002,0.886,0.299,1.77,0.841,2.472c0.525,0.685,1.276,1.194,2.106,1.427c0.29,0.082,0.594,0.133,0.895,0.148
			c-0.004,0.025,73.764-0.006,73.832,0.005c0.376,0,0.756-0.053,1.117-0.157c0.862-0.245,1.636-0.787,2.161-1.513
			c0.5-0.686,0.776-1.533,0.774-2.382"/>
	</g>
	<g id="POLYLINE_00000103986646298195596010000007010608236446005160_">
		
			<path fill="none" stroke="#3A54F5" stroke-width="1.75" stroke-linecap="round" stroke-linejoin="round" stroke-miterlimit="10" d="
			M88.098,93.925c0.008,0.049-0.004,92.022-0.002,92.079c-0.006,0.184-0.029,0.371-0.066,0.551c-0.07,0.335-0.195,0.661-0.368,0.957
			c-0.416,0.719-1.122,1.261-1.924,1.477c-0.251,0.068-0.513,0.107-0.773,0.112c0,0-0.036,0.001-0.036,0.001s-0.035,0-0.035,0
			s-7.97,0-7.97,0c-0.35,0-0.7-0.058-1.031-0.17c-0.634-0.214-1.196-0.633-1.582-1.179c-0.298-0.419-0.493-0.911-0.562-1.421
			c-0.016-0.12-0.026-0.243-0.029-0.364c-0.009-0.043,0.005-109.019-0.001-109.081c0.005-0.498,0.129-0.995,0.358-1.437
			c0.386-0.752,1.082-1.338,1.89-1.587c0.228-0.071,0.467-0.118,0.705-0.136c0.082-0.003,0.169-0.012,0.252-0.01
			c0,0,11.175,0,11.175,0V93.925z"/>
	</g>
	<g id="POLYLINE_00000158742126064677564100000017939327484125470342_">
		
			<line fill="none" stroke="#3A54F5" stroke-width="1.75" stroke-linecap="round" stroke-linejoin="round" stroke-miterlimit="10" x1="88.098" y1="73.718" x2="334.91" y2="73.718"/>
	</g>
	<g id="POLYLINE_00000034789973751980288020000016190522190934417340_">
		
			<path fill="none" stroke="#3A54F5" stroke-width="1.75" stroke-linecap="round" stroke-linejoin="round" stroke-miterlimit="10" d="
			M334.91,73.718h11.174c0.07,0.003,0.146,0,0.215,0.007c0.238,0.016,0.476,0.059,0.704,0.127c0.876,0.259,1.624,0.91,1.998,1.744
			c0.144,0.316,0.236,0.657,0.271,1.002c0.063,0.176-0.01,109.118,0.016,109.37c-0.012,0.554-0.171,1.104-0.456,1.579
			c-0.532,0.899-1.525,1.499-2.569,1.55c-0.331-0.008-8.476,0.05-8.658-0.036c-0.62-0.099-1.208-0.385-1.668-0.812
			c-0.447-0.413-0.773-0.956-0.925-1.546C334.713,171.252,335.01,87.262,334.91,73.718z"/>
	</g>
	<g id="POLYLINE_00000026157645796963833290000007504009297865520008_">
		
			<line fill="none" stroke="#3A54F5" stroke-width="1.75" stroke-linecap="round" stroke-linejoin="round" stroke-miterlimit="10" x1="169.825" y1="185.05" x2="169.825" y2="109.489"/>
	</g>
	<g id="POLYLINE_00000011025142476557916580000003385100311027593871_">
		
			<line fill="none" stroke="#3A54F5" stroke-width="1.75" stroke-linecap="round" stroke-linejoin="round" stroke-miterlimit="10" x1="253.159" y1="185.05" x2="253.159" y2="109.489"/>
	</g>
	<g id="POLYLINE_00000089531726401286363940000010135619915894531254_">
		
			<path fill="none" stroke="#3A54F5" stroke-width="1.75" stroke-linecap="round" stroke-linejoin="round" stroke-miterlimit="10" d="
			M169.825,109.489l-0.001,0.106l-0.003,0.105l-0.005,0.105l-0.007,0.104l-0.009,0.103l-0.011,0.102l-0.013,0.101l-0.015,0.1
			l-0.017,0.1l-0.018,0.099l-0.02,0.098l-0.022,0.097l-0.024,0.096l-0.026,0.096l-0.028,0.095l-0.03,0.094l-0.031,0.093
			l-0.033,0.093l-0.035,0.092l-0.037,0.091l-0.039,0.09l-0.041,0.089l-0.042,0.089l-0.044,0.088l-0.046,0.087l-0.048,0.086
			l-0.049,0.086l-0.051,0.085l-0.053,0.084l-0.055,0.083l-0.056,0.083l-0.058,0.082l-0.06,0.081l-0.061,0.081
			c-1.138,1.443-2.829,2.319-4.511,2.978c-2.905,1.101-6.029,1.626-9.1,2.02c-7.971,1.002-18.044,0.881-26.139,0.937
			c-8.122-0.059-18.158,0.065-26.163-0.937c-3.076-0.394-6.205-0.919-9.116-2.02c-1.685-0.658-3.379-1.534-4.521-2.978l-0.062-0.081
			l-0.06-0.081l-0.058-0.082l-0.056-0.083l-0.055-0.083l-0.053-0.084l-0.051-0.085l-0.05-0.086l-0.048-0.086l-0.046-0.087
			l-0.044-0.088l-0.042-0.089l-0.041-0.089l-0.039-0.09l-0.037-0.091l-0.035-0.092l-0.033-0.093l-0.032-0.093l-0.03-0.094
			l-0.028-0.095l-0.026-0.096l-0.024-0.096l-0.022-0.097l-0.02-0.098l-0.018-0.099l-0.017-0.1l-0.015-0.1l-0.013-0.101l-0.011-0.102
			l-0.009-0.103l-0.007-0.104l-0.005-0.105l-0.003-0.105c-0.002-0.218-0.001-0.51,0.005-0.728
			c-0.001-0.453-0.036-15.545,0.02-15.755c0.044-0.64,0.146-1.283,0.338-1.897c0.199-0.637,0.503-1.247,0.91-1.777
			c0.404-0.529,0.907-0.98,1.458-1.351c0.807-0.544,1.717-0.933,2.639-1.238c1.388-0.456,2.865-0.737,4.31-0.951
			c8.905-1.206,22.113-0.792,31.207-0.922c9.136,0.133,22.312-0.291,31.272,0.922c1.432,0.215,2.901,0.495,4.278,0.952
			c0.911,0.305,1.812,0.693,2.607,1.238c0.543,0.372,1.039,0.824,1.434,1.351c0.383,0.509,0.672,1.089,0.866,1.695
			c0.195,0.608,0.301,1.245,0.348,1.881c0.024,0.298,0.058,15.29,0.026,15.853C169.825,109.04,169.825,109.313,169.825,109.489z"/>
	</g>
	<g id="POLYLINE_00000007425105905757913790000002852820055525317774_">
		
			<path fill="none" stroke="#3A54F5" stroke-width="1.75" stroke-linecap="round" stroke-linejoin="round" stroke-miterlimit="10" d="
			M253.159,109.489l0.001,0.106l0.003,0.105l0.005,0.105l0.007,0.104l0.009,0.103l0.011,0.102l0.013,0.101l0.015,0.1l0.017,0.1
			l0.018,0.099l0.02,0.098l0.022,0.097l0.024,0.096l0.026,0.096l0.028,0.095l0.03,0.094l0.031,0.093l0.033,0.093l0.035,0.092
			l0.037,0.091l0.039,0.09l0.041,0.089l0.042,0.089l0.044,0.088l0.046,0.087l0.048,0.086l0.049,0.086l0.051,0.085l0.053,0.084
			l0.055,0.083l0.056,0.083l0.058,0.082l0.06,0.081l0.061,0.081c1.138,1.443,2.829,2.319,4.511,2.978
			c2.905,1.101,6.029,1.626,9.1,2.02c7.971,1.002,18.044,0.881,26.139,0.937c8.122-0.059,18.158,0.065,26.163-0.937
			c3.076-0.394,6.205-0.919,9.116-2.02c1.685-0.658,3.379-1.534,4.521-2.978l0.062-0.081l0.06-0.081l0.058-0.082l0.056-0.083
			l0.055-0.083l0.053-0.084l0.051-0.085l0.05-0.086l0.048-0.086l0.046-0.087l0.044-0.088l0.042-0.089l0.041-0.089l0.039-0.09
			l0.037-0.091l0.035-0.092l0.033-0.093l0.032-0.093l0.03-0.094l0.028-0.095l0.026-0.096l0.024-0.096l0.022-0.097l0.02-0.098
			l0.018-0.099l0.017-0.1l0.015-0.1l0.013-0.101l0.011-0.102l0.009-0.103l0.007-0.104l0.005-0.105l0.003-0.105
			c0.002-0.218,0.001-0.51-0.005-0.728c0.001-0.453,0.036-15.545-0.02-15.755c-0.044-0.64-0.146-1.283-0.338-1.897
			c-0.199-0.637-0.503-1.247-0.91-1.777c-0.404-0.529-0.907-0.98-1.458-1.351c-0.807-0.544-1.717-0.933-2.639-1.238
			c-1.388-0.456-2.865-0.737-4.31-0.951c-8.905-1.206-22.113-0.792-31.207-0.922c-9.136,0.133-22.312-0.291-31.272,0.922
			c-1.432,0.215-2.901,0.495-4.278,0.952c-0.911,0.305-1.812,0.693-2.607,1.238c-0.543,0.372-1.039,0.824-1.434,1.351
			c-0.383,0.509-0.672,1.089-0.866,1.695c-0.195,0.608-0.301,1.245-0.348,1.881c-0.024,0.298-0.058,15.29-0.026,15.853
			C253.159,109.04,253.159,109.313,253.159,109.489z"/>
	</g>
	<g id="POLYLINE_00000085947516125898677520000004582033087026407555_">
		
			<path fill="none" stroke="#3A54F5" stroke-width="1.75" stroke-linecap="round" stroke-linejoin="round" stroke-miterlimit="10" d="
			M169.825,109.489l0.001,0.106l0.003,0.105l0.005,0.105l0.007,0.104l0.009,0.103l0.011,0.102l0.013,0.101l0.015,0.1l0.017,0.1
			l0.019,0.099l0.021,0.098l0.023,0.097l0.025,0.096l0.027,0.096l0.029,0.095l0.031,0.094l0.033,0.093l0.035,0.093l0.036,0.092
			l0.038,0.091l0.04,0.09l0.042,0.089l0.044,0.089l0.046,0.088l0.048,0.087l0.049,0.086l0.051,0.086l0.053,0.085l0.055,0.084
			l0.057,0.083l0.058,0.083l0.06,0.082l0.062,0.081l0.064,0.081c1.19,1.455,2.933,2.321,4.659,2.978
			c2.993,1.1,6.199,1.626,9.354,2.02c8.098,0.995,18.283,0.883,26.504,0.937c8.247-0.057,18.395,0.058,26.526-0.937
			c3.159-0.395,6.37-0.92,9.369-2.02c1.729-0.657,3.475-1.523,4.668-2.978l0.064-0.081l0.062-0.081l0.06-0.082l0.058-0.083
			l0.057-0.083l0.055-0.084l0.053-0.085l0.051-0.086l0.049-0.086l0.048-0.087l0.046-0.088l0.044-0.089l0.042-0.089l0.04-0.09
			l0.038-0.091l0.036-0.092l0.035-0.093l0.033-0.093l0.031-0.094l0.029-0.095l0.027-0.096l0.025-0.096l0.023-0.097l0.021-0.098
			l0.019-0.099l0.017-0.1l0.015-0.1l0.013-0.101l0.011-0.102l0.009-0.103l0.007-0.104l0.005-0.105l0.003-0.105
			c0.002-0.218,0.001-0.51-0.005-0.728c0.001-0.453,0.036-15.545-0.02-15.755c-0.044-0.641-0.146-1.284-0.339-1.897
			c-0.192-0.612-0.481-1.197-0.866-1.711c-0.398-0.533-0.897-0.99-1.445-1.365c-0.837-0.574-1.787-0.976-2.748-1.29
			c-1.41-0.457-2.91-0.737-4.376-0.951c-9.093-1.209-22.604-0.791-31.888-0.922c-9.329,0.134-22.806-0.294-31.956,0.922
			c-1.454,0.214-2.945,0.494-4.344,0.952c-0.921,0.304-1.834,0.692-2.64,1.238c-0.548,0.371-1.049,0.822-1.448,1.351
			c-0.386,0.508-0.677,1.088-0.872,1.695c-0.195,0.608-0.302,1.245-0.35,1.881c-0.023,0.299-0.058,15.29-0.026,15.853
			C169.826,109.04,169.825,109.313,169.825,109.489z"/>
	</g>
	<g id="POLYLINE_00000160869537249058811000000014359958041406728116_">
		
			<path fill="none" stroke="#3A54F5" stroke-width="1.75" stroke-linecap="round" stroke-linejoin="round" stroke-miterlimit="10" d="
			M362.109,147.436c-0.025,10.757,5.502,20.97,14.521,26.832c16.481,10.719,38.543,4.307,46.711-13.575
			c3.818-8.341,3.818-18.173,0-26.514c-8.169-17.882-30.231-24.294-46.711-13.575C367.611,126.466,362.083,136.68,362.109,147.436z"
			/>
	</g>
</g>
<g id="_x32_D_x24_AG-OUTLINE">
	<g id="POLYLINE_00000178189302058407698480000003780191424143451271_">
		
			<rect x="721.107" y="246.795" fill="none" stroke="#3A54F5" stroke-width="2.35" stroke-linecap="round" stroke-linejoin="round" stroke-miterlimit="10" width="128.205" height="76.923"/>
	</g>
	<g id="POLYLINE_00000091737605651369137940000008270729961841924247_">
		
			<path fill="none" stroke="#3A54F5" stroke-width="2.35" stroke-linecap="round" stroke-linejoin="round" stroke-miterlimit="10" d="
			M862.109,147.436c-0.021-10.911,5.638-21.213,14.857-27.049c16.618-10.509,38.576-3.834,46.533,14.146
			c3.553,8.021,3.611,17.374,0.159,25.439c-7.8,18.228-29.933,25.108-46.692,14.513C867.747,168.65,862.088,158.348,862.109,147.436
			z"/>
	</g>
	<g id="POLYLINE_00000102523845342217381290000001076174603929403313_">
		
			<path fill="none" stroke="#3A54F5" stroke-width="2.35" stroke-linecap="round" stroke-linejoin="round" stroke-miterlimit="10" d="
			M834.91,73.718c0.036,0,11.176,0,11.209,0c0.07,0.004,0.146,0.002,0.216,0.01c0.161,0.013,0.324,0.038,0.481,0.075
			c0.699,0.163,1.338,0.568,1.782,1.132c0.338,0.427,0.564,0.941,0.65,1.479c0.021,0.133,0.034,0.267,0.039,0.402
			c-0.001,0.285,0.011,108.977-0.003,109.26c-0.047,0.904-0.499,1.777-1.212,2.335c-0.513,0.407-1.155,0.651-1.809,0.686
			c-0.057,0-0.122,0.007-0.179,0.005c0,0-7.97,0-7.97,0c-0.107-0.001-0.218-0.005-0.325-0.016c-0.359-0.036-0.713-0.134-1.039-0.288
			c-0.828-0.385-1.471-1.14-1.718-2.019c-0.055-0.194-0.093-0.394-0.111-0.594c-0.025-0.324-0.01-0.805-0.024-1.135
			c0.005,1.367-0.729,2.695-1.888,3.42c-0.355,0.226-0.747,0.396-1.155,0.502c-0.259,0.067-0.527,0.109-0.795,0.124
			c-0.072,0.004-0.154,0.006-0.226,0.006c0,0-20.77,0-20.77,0c-0.487,1.674-1.227,3.287-2.142,4.77
			c-0.57,0.899-1.2,1.791-2.008,2.492c-0.258,0.219-0.546,0.412-0.865,0.53c-0.232,0.087-0.479,0.136-0.725,0.167
			c-1.187,0.117-2.428,0.155-3.62,0.116c0.007,2.209,0.351,6.128-0.012,8.273c-0.104,0.578-0.26,1.193-0.686,1.622
			c-0.463,0.467-1.158,0.561-1.787,0.554c-1.03-0.02-2.057-0.253-3.014-0.631c-0.485-0.196-0.958-0.444-1.359-0.782
			c-0.362-0.302-0.661-0.679-0.88-1.096c-0.213-0.401-0.357-0.841-0.481-1.277c-0.276-0.952-0.461-1.958-0.603-2.939
			c-0.329-2.356-0.571-4.776-0.371-7.154c-0.301-0.378-0.489-0.837-0.597-1.306c-0.104-0.466-0.133-0.954-0.049-1.425
			c0.127-0.725,0.555-1.35,1.006-1.915h-9.954c-0.075,1.451,0.085,3.227-0.026,4.676c-0.036,0.41-0.096,0.826-0.232,1.217
			c-0.095,0.274-0.234,0.538-0.435,0.749c-0.222,0.236-0.507,0.405-0.806,0.526c0.017,1.833,0.119,4.439,0.067,6.25
			c-0.023,0.688-0.07,1.396-0.176,2.077c-0.129,0.813-0.344,1.635-0.798,2.331c-0.344,0.535-0.832,0.981-1.408,1.253
			c-0.911,0.433-1.992,0.458-2.941,0.131c-1.607-0.544-2.636-2.119-3.161-3.662c-0.198-0.595-0.312-1.222-0.366-1.846
			c-0.087-0.851-0.08-5.031-0.104-5.956c-0.539-0.106-1.227-0.19-1.731-0.391c-0.111-0.048-0.218-0.111-0.304-0.197
			c-0.093-0.092-0.155-0.213-0.19-0.339c-0.055-0.197-0.062-0.406-0.062-0.609c-0.004-0.319,0.148-2.095,0.171-2.447
			c0.072-1.113,0.142-2.647,0.181-3.764h-12.384c-0.068,0-0.144-0.002-0.212-0.006c-0.265-0.014-0.531-0.054-0.789-0.12
			c-0.366-0.093-0.721-0.238-1.047-0.428c-1.121-0.644-1.892-1.848-2.005-3.136c-0.077,0.827-0.416,1.628-0.956,2.259
			c-0.532,0.626-1.257,1.084-2.051,1.294c-0.258,0.069-0.524,0.112-0.79,0.129c-0.096,0.029-75.328-0.004-75.483,0.008
			c-0.367,0-0.736-0.05-1.089-0.149c-0.807-0.223-1.541-0.705-2.067-1.357c-0.503-0.619-0.816-1.389-0.888-2.183
			c0.016,0.012-0.019,79.792-0.008,79.809c-0.002,0.136-0.01,0.277-0.026,0.412c-0.029,0.254-0.082,0.509-0.159,0.753
			c-0.189,0.605-0.523,1.165-0.965,1.619c-0.751,0.777-1.822,1.228-2.902,1.224c-0.037,0.002-73.667,0-73.712-0.001
			c-0.12-0.003-0.248-0.011-0.367-0.025c-0.271-0.031-0.541-0.089-0.8-0.174c-0.62-0.202-1.191-0.557-1.646-1.024
			c-0.443-0.454-0.777-1.014-0.965-1.619c-0.076-0.244-0.13-0.499-0.159-0.753c-0.012-0.12-0.023-0.246-0.025-0.367
			c-0.057-0.1,0.032-78.98-0.007-79.083c-0.055,0.602-0.285,1.187-0.655,1.665c-0.36,0.468-0.851,0.833-1.403,1.042
			c-0.29,0.11-0.596,0.178-0.905,0.201c-0.077,0.004-0.158,0.01-0.236,0.009c0,0-7.97,0-7.97,0c-0.082-0.001-0.17-0.003-0.252-0.01
			c-0.629-0.049-1.242-0.289-1.736-0.681c-0.461-0.364-0.819-0.857-1.021-1.409c-0.079-0.216-0.136-0.442-0.167-0.671
			c-0.015-0.108-0.024-0.219-0.028-0.328c-0.016-0.076,0.008-108.99-0.002-109.081c-0.005-0.938,0.429-1.865,1.153-2.462
			c0.57-0.477,1.309-0.745,2.052-0.743c0,0,11.175,0,11.175,0H834.91z"/>
	</g>
	<g id="POLYLINE_00000105402548566369319920000006028354047105053075_">
		
			<path fill="none" stroke="#3A54F5" stroke-width="2.35" stroke-linecap="round" stroke-linejoin="round" stroke-miterlimit="10" d="
			M613.581,108.182c0.138-0.303,0.295-0.605,0.49-0.876c0.227-0.326,0.614-0.702,0.891-0.991c0.227-0.24,0.438-0.501,0.599-0.79
			c0.173-0.309,0.293-0.649,0.395-0.988c0.48-1.662,0.651-3.591,1.383-5.173c0.378-0.818,0.948-1.547,1.65-2.112
			c0.848-0.688,1.859-1.151,2.89-1.494c1.914-0.624,3.959-0.922,5.954-1.16c0.425-0.044,1.849-0.196,2.249-0.228
			c0.504-0.041,1.023-0.062,1.518,0.057c0.51,0.119,0.978,0.376,1.41,0.666c0.838,0.572,1.577,1.288,2.257,2.038
			c0.849,0.947,1.613,1.982,2.272,3.069c0.655,1.11,1.276,2.295,1.456,3.586c1.581,0.036,3.18,0.222,4.704,0.648
			c1.025,0.286,2.029,0.715,2.861,1.389c1.717,1.403,2.663,3.55,3.281,5.632c0.452,1.575,0.746,3.209,0.85,4.845
			c0.045,0.784,0.05,1.588-0.06,2.367c-0.085,0.618-0.261,1.229-0.474,1.815c-0.911,2.2-1.739,5.758-2.354,8.087
			c0.415,0.894,0.797,1.828,1.041,2.784c0.408,1.597,0.566,3.287,0.69,4.928l0.279,5.204c0.072,1.077,0.182,2.203,0.361,3.268
			l0.437,2.426c0.084,0.53,0.171,1.076,0.142,1.614c-0.018,0.315-0.095,0.636-0.284,0.894c-0.272,0.372-0.703,0.586-1.125,0.744
			c-0.999,0.353-2.075,0.442-3.128,0.478c-0.663,1.597-2.153,5.711-2.775,7.391c-0.557,1.526-1.714,4.316-2.344,5.844
			c-0.734,1.881-1.452,3.847-1.465,5.89c-0.013,1.395,0.352,3.143,0.564,4.529c0.185,1.197,0.306,2.436,0.324,3.647
			c0.042,2.69-0.236,5.518-0.537,8.194c-0.453,3.669-1.068,8.043-1.693,11.682l0.461,0.244c0.062,0.032,0.189,0.095,0.251,0.125
			c1.453,0.699,3.138,1.366,4.381,2.404c0.226,0.196,0.437,0.417,0.588,0.678c0.162,0.274,0.247,0.59,0.251,0.908
			c0.005,0.272-0.042,0.545-0.108,0.808c-0.336,1.212-0.91,2.532-1.223,3.75c-0.319,1.215-0.41,2.61-0.813,3.803
			c-0.871,2.608-2.478,4.92-4.031,7.163c0.434,1.502,0.811,3.053,0.947,4.613c0.079,0.969,0.072,1.966-0.173,2.912
			c-0.148,0.541-0.388,1.111-0.876,1.427c-0.328,0.211-0.737,0.248-1.115,0.191c-1.013-0.166-1.873-0.841-2.507-1.621
			c-1.045-1.285-1.877-3.293-2.625-4.772c-0.92-1.904-2.338-4.163-2.972-6.174c-0.159-0.535-0.249-1.096-0.219-1.655
			c0.046-0.862,0.35-1.692,0.722-2.464c0.115-0.225,0.236-0.456,0.401-0.649c0.04-0.044,0.083-0.088,0.137-0.114l0.003-0.001
			l0.003-0.001l0.003-0.001l0.003-0.001l0.003-0.001l0.003-0.001l0.003-0.001l0.003-0.001l0.003-0.001l0.003-0.001l0.003-0.001
			l0.003-0.001l0.003,0l0.003,0c0.021-0.003,0.042,0.001,0.061,0.012c0.075,0.045,0.108,0.152,0.135,0.231
			c0.193-0.96,0.616-1.888,0.803-2.849c0.306-1.498,0.287-3.088,0.282-4.612l-0.125-5.219c-2.033-3.53-4.98-9.771-6.795-13.505
			c-1.161-2.356-4.308-8.325-5.244-10.671c-2.46-6.165-4.49-12.772-6.231-19.176c-2.188-0.045-4.425-0.312-6.447-1.194
			c-0.563-0.26-1.152-0.568-1.545-1.06c-0.147-0.188-0.243-0.416-0.258-0.655c-0.027-0.428,0.135-0.843,0.282-1.237l0.929-2.321
			c-1.994-3.291-4.972-8.661-7.063-11.85c-0.339-0.526-1.095-1.571-1.371-2.112c-0.157-0.299-0.282-0.619-0.349-0.951
			c-0.077-0.377-0.079-0.767-0.045-1.149c0.07-0.738,0.268-1.467,0.495-2.171c0.669-2.077,2.318-5.441,3.212-7.467
			c0.562-1.284,1.106-2.632,1.502-3.977c0.396-1.307,0.794-3.042,1.431-4.243c0.812-1.615,2.383-2.651,3.992-3.366
			C609.408,109.245,611.518,108.689,613.581,108.182z"/>
	</g>
	<g id="POLYLINE_00000012453416419245261100000006391265851629257863_">
		
			<path fill="none" stroke="#3A54F5" stroke-width="2.35" stroke-linecap="round" stroke-linejoin="round" stroke-miterlimit="10" d="
			M753.253,162.133c-0.214-0.182-0.416-0.4-0.504-0.672c-0.079-0.244-0.05-0.509,0.021-0.751c0.06-0.207,0.15-0.411,0.245-0.605
			c0.38-0.737,0.883-1.564,1.232-2.313c0.642-1.288,2.141-4.981,2.728-6.361c0.627-1.518,2.369-5.139,3.09-6.67
			c0.478-1.036,1.022-2.263,1.431-3.325c0.294-0.751,1.105-3.064,1.391-3.817c0.515-1.361,1.093-2.736,1.915-3.944
			c0.589-0.87,1.336-1.63,2.142-2.3c1.025-0.868,2.651-1.913,3.757-2.682c0.866-0.599,2.462-1.829,3.299-2.46
			c1.017-0.743,2.078-1.485,3.272-1.912c1.505-0.545,3.189-0.543,4.772-0.58c1.31-1.177,2.9-2.02,4.558-2.593
			c1.503-0.51,3.1-0.824,4.691-0.727c2.485,0.138,4.734,1.458,6.604,3.023c2.16,0.01,4.463-0.005,6.538,0.655
			c1.337,0.423,2.695,1.326,3.897,2.044c2.761,1.62,5.991,3.263,8.102,5.713c0.951,1.068,1.764,2.274,2.484,3.507
			c2.646,4.472,4.924,10.778,6.851,15.637c0.61,1.495,1.321,3.174,2.042,4.611c0.511,1.051,1.398,2.537,1.992,3.56
			c0.32,0.583,0.672,1.182,0.824,1.834c0.038,0.182,0.055,0.373,0.016,0.556c-0.09,0.42-0.464,0.693-0.817,0.893
			c0.339,0.957,0.656,1.973,0.903,2.958c0.192,0.782,0.426,1.841,0.718,2.584c0.441,1.18,1.06,2.532,1.134,3.799
			c0.079,1.03-0.111,2.138-0.784,2.952c-0.396,0.481-0.938,0.822-1.507,1.064c-0.676,0.282-1.412,0.446-2.146,0.427
			c-0.374-0.013-0.758-0.078-1.082-0.274c-0.313-0.185-0.536-0.491-0.677-0.822c-0.169-0.392-0.253-0.819-0.319-1.238
			c-0.148-0.919-0.186-2.081-0.446-2.975c-0.06-0.18-0.13-0.367-0.27-0.501l-0.006-0.006l-0.007-0.006l-0.007-0.005l-0.007-0.005
			l-0.007-0.005l-0.007-0.005l-0.007-0.005l-0.007-0.005l-0.007-0.004l-0.007-0.004l-0.007-0.004l-0.007-0.004
			c-0.115-0.064-0.254-0.053-0.377-0.019c-0.512,0.159-0.993,0.565-1.522,0.728c-0.36,0.112-0.776,0.135-1.118-0.047
			c-0.194-0.106-0.321-0.282-0.337-0.505c-0.016-0.199,0.032-0.398,0.095-0.586c0.272-0.782,0.815-1.452,1.252-2.146
			c0.449-0.706,0.576-1.561,0.575-2.385c-0.184,0.044-0.388,0.073-0.566-0.008c-0.258-0.122-0.373-0.414-0.479-0.662l-0.307-0.801
			c-1.876-4.439-4.714-9.201-7.121-13.4c-0.359-0.603-0.722-1.286-1.189-1.813c-0.611-0.668-1.279-1.339-1.943-1.954
			c-0.692,0.492-1.341,1.109-2.018,1.622c0.138,1.012,0.506,2.527,0.76,3.539c0.24,1.031,0.446,2.096,0.546,3.148
			c0.107,1.081,0.115,2.225,0.092,3.313c-0.1,3.124-0.456,7.523-0.59,10.664c-0.129,2.865-0.275,7.103-0.312,9.955
			c-0.018,1.384,0.021,5.505-0.089,6.816c-0.078,1.144-0.262,2.294-0.592,3.392c-0.488,1.631-1.214,3.203-2.108,4.651
			c-0.565,0.893-1.191,1.776-1.99,2.476c-0.263,0.226-0.556,0.425-0.883,0.545c-0.232,0.088-0.479,0.136-0.725,0.167
			c-1.187,0.117-2.428,0.156-3.62,0.116c0.007,2.206,0.351,6.131-0.012,8.273c-0.104,0.578-0.26,1.193-0.686,1.622
			c-0.463,0.467-1.158,0.561-1.787,0.554c-1.03-0.02-2.057-0.253-3.014-0.631c-0.485-0.196-0.958-0.444-1.359-0.782
			c-0.362-0.302-0.661-0.679-0.88-1.096c-0.213-0.401-0.357-0.841-0.481-1.277c-0.276-0.952-0.461-1.958-0.603-2.939
			c-0.329-2.356-0.571-4.776-0.371-7.154c-0.343-0.433-0.541-0.966-0.637-1.506c-0.102-0.581-0.078-1.193,0.138-1.747
			c0.271-0.695,0.756-1.289,1.245-1.843c0.287-0.313,0.598-0.612,0.943-0.86c0.296-0.22,0.717-0.412,1.046-0.58
			c0.681-0.335,1.247-0.867,1.702-1.469c0.573-0.749,0.963-1.647,1.033-2.593c0.055-0.646-0.007-1.302-0.115-1.94
			c-0.197-1.141-0.539-2.302-0.873-3.411c-0.58-1.867-1.916-5.979-2.358-7.836c-0.713-2.71-1.676-7.699-2.251-10.486
			c-0.246-1.096-0.513-2.22-0.965-3.251c-0.098-0.215-0.202-0.435-0.354-0.617c-0.063-0.07-0.141-0.147-0.242-0.148l-0.003,0
			l-0.003,0l-0.003,0l-0.003,0l-0.003,0l-0.003,0l-0.003,0l-0.003,0l-0.003,0l-0.005,0.001l-0.005,0.001l-0.005,0.001l-0.005,0.001
			l-0.005,0.001l-0.005,0.002l-0.005,0.002l-0.005,0.002l-0.005,0.002l-0.005,0.002l-0.005,0.002l-0.005,0.002l-0.004,0.002
			l-0.005,0.003l-0.005,0.003l-0.004,0.003l-0.004,0.003l-0.004,0.003l-0.005,0.003l-0.004,0.003l-0.004,0.003
			c-0.092,0.075-0.151,0.183-0.205,0.288c-0.073,0.145-0.134,0.312-0.187,0.467c-0.236,0.701-0.573,2.088-0.786,2.804
			c-0.676,2.298-1.779,5.568-2.286,7.876c-0.674,2.87-1.423,8.179-2.004,11.094c-0.649,3.624-2.185,7.504-2.324,11.206
			c-0.064,1.455,0.103,3.251-0.036,4.702c-0.039,0.364-0.102,0.734-0.226,1.08c-0.097,0.269-0.237,0.528-0.437,0.734
			c-0.22,0.229-0.5,0.395-0.793,0.513c0.017,1.833,0.119,4.439,0.067,6.25c-0.023,0.688-0.07,1.396-0.176,2.077
			c-0.129,0.813-0.344,1.635-0.798,2.331c-0.344,0.535-0.832,0.981-1.408,1.253c-0.911,0.433-1.992,0.458-2.941,0.131
			c-1.607-0.544-2.636-2.119-3.161-3.662c-0.198-0.595-0.312-1.222-0.366-1.846c-0.087-0.851-0.08-5.031-0.104-5.956
			c-0.458-0.083-1.005-0.173-1.452-0.293c-0.112-0.032-0.226-0.07-0.331-0.121c-0.107-0.052-0.208-0.12-0.285-0.21
			c-0.098-0.113-0.152-0.257-0.181-0.403c-0.028-0.144-0.036-0.293-0.037-0.439c-0.01-0.371,0.158-2.291,0.182-2.696
			c0.232-4.003,0.33-8.195,0.178-12.202c-0.129-3.13-0.535-7.092-0.606-10.216c-0.09-4.003,0.133-8.078,0.556-12.059
			c0.213-1.915,0.489-3.911,0.906-5.791c0.353-1.619,0.864-3.305,1.371-4.883c-0.522-0.264-1.009-0.627-1.533-0.888
			c-0.269-0.133-0.555-0.235-0.846-0.305l-0.72,1.757c-1.121,3.104-2.314,6.299-3.98,9.154c-0.747,1.302-2.12,3.354-2.841,4.667
			c-0.413,0.722-0.866,1.789-1.202,2.56c-0.181,0.39-0.353,0.808-0.636,1.136c-0.074,0.08-0.16,0.155-0.265,0.189
			c-0.095,0.031-0.199,0.022-0.293-0.006c-0.224,0.528-0.375,1.09-0.45,1.659c-0.05,0.396-0.063,0.803,0.007,1.198
			c0.137,0.742,0.535,1.498,0.701,2.267c0.075,0.336,0.14,0.688,0.084,1.033c-0.023,0.133-0.071,0.266-0.163,0.368
			c-0.112,0.125-0.275,0.191-0.439,0.212c-0.297,0.038-0.6-0.046-0.863-0.183c-0.537-0.279-0.901-0.825-1.403-1.144
			c-0.114-0.066-0.25-0.116-0.382-0.081l-0.008,0.002l-0.008,0.002l-0.008,0.002l-0.008,0.003l-0.008,0.003l-0.008,0.003
			l-0.008,0.003l-0.008,0.003l-0.008,0.003l-0.008,0.004l-0.008,0.004l-0.008,0.004c-0.176,0.099-0.294,0.274-0.4,0.442
			c-0.536,0.935-0.854,2.164-1.324,3.132c-0.165,0.338-0.356,0.674-0.621,0.945c-0.286,0.298-0.659,0.473-1.073,0.491
			c-0.669,0.026-1.322-0.214-1.91-0.513c-0.896-0.477-1.743-1.189-2.096-2.167c-0.194-0.536-0.233-1.12-0.172-1.684
			c0.214-1.985,1.544-3.835,2.518-5.524C752.2,164.997,752.757,163.545,753.253,162.133z"/>
	</g>
	<g id="POLYLINE_00000110452021776249838330000014952354301099903677_">
		
			<path fill="none" stroke="#3A54F5" stroke-width="2.35" stroke-linecap="round" stroke-linejoin="round" stroke-miterlimit="10" d="
			M362.109,147.436c-0.025-10.757,5.502-20.97,14.521-26.832c16.481-10.719,38.543-4.307,46.711,13.575
			c3.818,8.341,3.818,18.173,0,26.514c-8.169,17.882-30.231,24.294-46.711,13.575C367.611,168.406,362.083,158.193,362.109,147.436z
			"/>
	</g>
	<g id="POLYLINE_00000021109328960966228320000016571744667908287414_">
		
			<path fill="none" stroke="#3A54F5" stroke-width="2.35" stroke-linecap="round" stroke-linejoin="round" stroke-miterlimit="10" d="
			M88.098,185.897c0.001,0.605-0.175,1.209-0.5,1.719c-0.386,0.612-0.988,1.084-1.674,1.315c-0.239,0.081-0.492,0.135-0.743,0.157
			c-0.09,0.007-0.196,0.014-0.288,0.013c0,0-7.97,0-7.97,0s-0.035,0-0.035,0s-0.036-0.001-0.036-0.001s-0.036-0.001-0.036-0.001
			l-0.036-0.001c0,0-0.036-0.002-0.036-0.002c-0.668-0.036-1.323-0.289-1.841-0.712c-0.404-0.328-0.727-0.756-0.93-1.235
			c-0.13-0.306-0.213-0.634-0.242-0.966c-0.269-0.292,0.166-109.011-0.013-109.334c0.014-0.663,0.241-1.321,0.64-1.851
			c0.368-0.492,0.881-0.875,1.459-1.086c9.715-0.557,260.117-0.012,270.266-0.197c0.482,0,0.966,0.111,1.4,0.322
			c0.654,0.316,1.194,0.861,1.501,1.52c0.121,0.259,0.209,0.535,0.258,0.817c0.023,0.145,0.042,0.292,0.045,0.439
			c0.064,0.078-0.043,108.989,0.002,109.081c0.001,1.506-1.064,2.83-2.548,3.137c-0.217,0.045-0.437,0.068-0.658,0.068
			c0,0-7.97,0-7.97,0c-0.06-0.001-0.12-0.001-0.179-0.005c-0.409-0.023-0.814-0.125-1.184-0.299c-0.696-0.324-1.263-0.907-1.57-1.61
			c-0.13-0.294-0.214-0.609-0.251-0.929c-0.015-0.096-0.015-0.194-0.02-0.29c-0.007-0.238-0.001-0.678-0.012-0.918
			c-0.001,0.888-0.304,1.771-0.848,2.472c-0.535,0.695-1.301,1.208-2.147,1.437c-0.347,0.095-0.708,0.143-1.068,0.143
			c-0.295-0.009-73.59,0.014-73.848-0.006c-0.284-0.016-0.568-0.062-0.842-0.137c-0.879-0.238-1.671-0.784-2.206-1.52
			c-0.503-0.687-0.781-1.537-0.779-2.389c0.002,0.887-0.299,1.771-0.841,2.472c-0.533,0.695-1.298,1.208-2.143,1.437
			c-0.347,0.095-0.708,0.143-1.068,0.143c-0.27-0.008-75.215,0.013-75.454-0.006c-0.284-0.016-0.568-0.062-0.842-0.137
			c-0.879-0.238-1.671-0.784-2.206-1.52c-0.503-0.687-0.781-1.537-0.779-2.389c0.016,0.012-0.011,80.156,0,80.173
			c-0.002,0.136-0.01,0.277-0.026,0.412c-0.029,0.254-0.082,0.509-0.159,0.753c-0.189,0.605-0.523,1.165-0.965,1.619
			c-0.751,0.777-1.822,1.228-2.902,1.224c-0.037,0.002-73.667,0-73.712-0.001c-0.12-0.003-0.248-0.011-0.367-0.025
			c-0.271-0.031-0.541-0.089-0.8-0.174c-0.62-0.202-1.191-0.557-1.646-1.024c-0.443-0.454-0.777-1.014-0.965-1.619
			c-0.076-0.244-0.13-0.499-0.159-0.753c-0.012-0.12-0.023-0.246-0.025-0.367C88.042,265.168,88.138,186,88.098,185.897z"/>
	</g>
	<g id="POLYLINE_00000140728930385300005320000007118282276454104704_">
		
			<rect x="221.107" y="246.795" fill="none" stroke="#3A54F5" stroke-width="2.35" stroke-linecap="round" stroke-linejoin="round" stroke-miterlimit="10" width="128.205" height="76.923"/>
	</g>
</g>
</svg>
