<?xml version="1.0" encoding="utf-8"?>
<!-- Generator: Adobe Illustrator 26.0.2, SVG Export Plug-In . SVG Version: 6.00 Build 0)  -->
<!DOCTYPE svg PUBLIC "-//W3C//DTD SVG 1.1//EN" "http://www.w3.org/Graphics/SVG/1.1/DTD/svg11.dtd" [
	<!ENTITY ns_flows "http://ns.adobe.com/Flows/1.0/">
	<!ENTITY ns_extend "http://ns.adobe.com/Extensibility/1.0/">
	<!ENTITY ns_ai "http://ns.adobe.com/AdobeIllustrator/10.0/">
	<!ENTITY ns_graphs "http://ns.adobe.com/Graphs/1.0/">
	<!ENTITY ns_vars "http://ns.adobe.com/Variables/1.0/">
	<!ENTITY ns_imrep "http://ns.adobe.com/ImageReplacement/1.0/">
	<!ENTITY ns_sfw "http://ns.adobe.com/SaveForWeb/1.0/">
	<!ENTITY ns_custom "http://ns.adobe.com/GenericCustomNamespace/1.0/">
	<!ENTITY ns_adobe_xpath "http://ns.adobe.com/XPath/1.0/">
]>
<svg version="1.1" xmlns:x="&ns_extend;" xmlns:i="&ns_ai;" xmlns:graph="&ns_graphs;"
	 xmlns="http://www.w3.org/2000/svg" xmlns:xlink="http://www.w3.org/1999/xlink" xmlns:a="http://ns.adobe.com/AdobeSVGViewerExtensions/3.0/"
	 x="0px" y="0px" width="1000px" height="450px" viewBox="0 0 1000 450" enable-background="new 0 0 1000 450" xml:space="preserve"
	>
<metadata>
	<sfw  xmlns="&ns_sfw;">
		<slices></slices>
		<sliceSourceBounds  bottomLeftOrigin="true" height="12900" width="3000" x="-2000" y="-6108"></sliceSourceBounds>
	</sfw>
</metadata>
<g id="FILL-BACKGROUND">
	<rect x="0" y="0" display="none" fill="#FFFFFF" width="1000" height="450"/>
</g>
<g id="_x32_D_x24_AG-DETAILS">
	<g id="POLYLINE_00000031194297189278428750000017658759227216999055_">
		
			<polyline fill="none" stroke="#3A54F5" stroke-width="1.5" stroke-linecap="round" stroke-linejoin="round" stroke-miterlimit="10" points="
			842.842,93.75 593.75,93.75 593.75,216.069 		"/>
	</g>
	<g id="POLYLINE_00000070824533132168926350000012877473101035374003_">
		
			<polyline fill="none" stroke="#3A54F5" stroke-width="1.5" stroke-linecap="round" stroke-linejoin="round" stroke-miterlimit="10" points="
			786.478,343.75 906.25,343.75 906.25,162.826 		"/>
	</g>
	<g id="POLYLINE_00000168117452512809668070000011420330094577946789_">
		
			<polyline fill="none" stroke="#3A54F5" stroke-width="1.5" stroke-linecap="round" stroke-linejoin="round" stroke-miterlimit="10" points="
			342.842,93.75 93.75,93.75 93.75,216.069 		"/>
	</g>
	<g id="POLYLINE_00000067217912373680161650000001790901855103406498_">
		
			<polyline fill="none" stroke="#3A54F5" stroke-width="1.5" stroke-linecap="round" stroke-linejoin="round" stroke-miterlimit="10" points="
			286.478,343.75 406.25,343.75 406.25,162.826 		"/>
	</g>
</g>
<g id="_x32_D_x24_AG-ANIMALS">
</g>
<g id="_x32_D_x24_AG-PEOPLE">
	<g id="POLYLINE_00000035504554830096829090000005407771722521870757_">
		
			<path fill="none" stroke="#3A54F5" stroke-width="1.75" stroke-linecap="round" stroke-linejoin="round" stroke-miterlimit="10" d="
			M599.891,344.049c-2.107-0.623-4.064-1.7-5.92-2.857c-2.18-1.361-4.385-2.825-6.347-4.486c-1.335-1.131-2.553-2.427-3.565-3.855
			c-0.799-1.13-1.471-2.378-1.81-3.726c-0.525-2.115-0.283-4.344-0.014-6.48c0.322-2.392,0.759-4.849,1.391-7.179
			c0.333-1.313,0.95-2.931,1.407-4.213c0.363-1.047,0.682-2.138,0.697-3.254c0.018-0.813-0.145-1.769-0.206-2.581
			c-0.01-0.167-0.016-0.339-0.001-0.506c0.013-0.138,0.038-0.281,0.113-0.4c0.086-0.14,0.245-0.213,0.404-0.23
			c0.4-0.037,0.794,0.106,1.168,0.228c0.761,0.264,1.61,0.636,2.427,0.626l0.538-0.002c0.182,0.005,0.38,0.008,0.539,0.108
			c0.082,0.053,0.138,0.137,0.173,0.227c0.082,0.224,0.075,0.471,0.067,0.706c-0.19,2.031-0.458,4.581-0.587,6.621
			c-0.194,2.659-0.322,6.821-0.413,9.511c-0.007,0.314-0.002,0.639,0.112,0.936c0.168,0.441,0.508,0.812,0.926,1.029
			c0.521,0.264,1.127,0.271,1.699,0.277l1.192-0.013l1.669,0.012c0.892-0.009,1.81-0.052,2.659-0.349
			c0.621-0.218,1.176-0.595,1.694-0.994l0.947-0.744c0.928-0.734,2.025-1.229,3.156-1.562c2.17-0.623,4.436-0.95,6.684-1.125
			c1.33-0.082,2.708-0.169,4.011,0.163c0.914,0.236,1.742,0.726,2.502,1.276c1.237,0.905,2.376,1.97,3.411,3.099
			c1.094,1.233,2.26,2.573,3.568,3.576c0.238,0.176,0.485,0.355,0.763,0.461c0.142,0.053,0.302,0.084,0.449,0.034
			c0.132-0.044,0.233-0.148,0.309-0.261l0.015-0.023l0.015-0.024l0.015-0.024l0.014-0.025l0.014-0.026l0.014-0.027
			c0.284-0.597,0.353-1.289,0.422-1.94c0.198-2.5,0.016-5.119-0.147-7.619c0,0-0.501-5.925-0.501-5.925
			c-0.01-0.118-0.022-0.248-0.04-0.364c-0.004-0.022-0.011-0.067-0.015-0.089c0,0-0.009-0.045-0.009-0.045
			c-0.064-0.323-0.188-0.634-0.325-0.932c-0.371-0.805-0.903-1.717-1.116-2.58c-0.057-0.252-0.092-0.527,0.012-0.771
			c0.081-0.196,0.258-0.34,0.456-0.406c0.327-0.117,0.759-0.062,1.101-0.067c0.384,0.005,0.776-0.038,1.108-0.245
			c0.499-0.291,0.85-0.789,1.306-1.133c0.152-0.109,0.331-0.2,0.523-0.189c0.179,0.011,0.336,0.114,0.464,0.232
			c0.161,0.149,0.294,0.329,0.417,0.51c0.461,0.7,0.85,1.471,1.21,2.227c1.666,3.608,2.808,7.488,3.547,11.388
			c0.552,2.968,0.915,6.012,0.978,9.032c0.018,1.523-0.014,3.085-0.316,4.582c-0.138,0.692-0.385,1.375-0.822,1.937
			c-0.507,0.664-1.17,1.2-1.829,1.706c-1.244,0.938-2.621,1.782-3.982,2.54c-1.632,0.896-3.345,1.72-5.119,2.292
			c-2.157,0.72-4.655,1.109-6.893,1.528"/>
	</g>
	<g id="POLYLINE_00000108284419087261239820000008197562411120693649_">
		
			<path fill="none" stroke="#3A54F5" stroke-width="1.75" stroke-linecap="round" stroke-linejoin="round" stroke-miterlimit="10" d="
			M601.315,346.13c-0.235-0.175-0.452-0.378-0.63-0.611c-0.356-0.476-0.6-1.041-0.842-1.581c-0.379-0.887-0.68-1.82-0.841-2.773
			c-0.154-0.903-0.158-1.841-0.126-2.754l0.134-2.653c0.087-1.527-0.112-3.241,0.169-4.75c0.085-0.41,0.22-0.821,0.473-1.159
			c0.176-0.236,0.413-0.42,0.669-0.562c0.637-0.355,1.42-0.495,2.093-0.765c0.235-0.094,0.458-0.219,0.659-0.372
			c0.332-0.25,0.652-0.594,0.981-0.848c0.438-0.349,0.966-0.566,1.505-0.707c0.771-0.201,1.576-0.273,2.372-0.245
			c0.888,0.033,1.78,0.204,2.594,0.567c1.291,0.545,2.403,1.566,3.622,2.238c0.455,0.246,1.018,0.499,1.401,0.847
			c0.194,0.174,0.353,0.385,0.47,0.618c0.206,0.408,0.315,0.861,0.398,1.309c0.14,0.713,0.447,4.076,0.537,4.864
			c0.066,0.686,0.112,1.41,0.11,2.098c-0.006,1.316-0.152,2.648-0.539,3.91c-0.329,1.079-0.872,2.114-1.702,2.892
			c-1.24,1.177-2.898,1.812-4.554,2.138c-2.075,0.403-4.253,0.255-6.26-0.406C603.065,347.108,602.125,346.717,601.315,346.13z"/>
	</g>
	<g id="POLYLINE_00000137837715878299729470000011430713913624610209_">
		
			<path fill="none" stroke="#3A54F5" stroke-width="1.75" stroke-linecap="round" stroke-linejoin="round" stroke-miterlimit="10" d="
			M615.448,329.915c-0.22-1.356-0.703-2.761-1.747-3.704c-0.652-0.581-1.481-0.921-2.318-1.141c-1.36-0.342-2.785-0.449-4.184-0.475
			c-1.279-0.002-2.594,0.08-3.805,0.524c-0.98,0.361-1.802,1.047-2.399,1.897c-0.564,0.787-0.974,1.69-1.176,2.638"/>
	</g>
	<g id="POLYLINE_00000015357042071701492890000017881738062164811189_">
		
			<path fill="none" stroke="#3A54F5" stroke-width="1.75" stroke-linecap="round" stroke-linejoin="round" stroke-miterlimit="10" d="
			M586.318,304.282c-0.268-3.257-0.445-6.704-0.442-9.971c0.017-0.428,0.034-0.871,0.159-1.283c0.073-0.238,0.2-0.426,0.414-0.558
			c0.043-0.027,0.091-0.055,0.137-0.079c0,0,0.024-0.013,0.024-0.013s0.05-0.026,0.05-0.026l2.525-1.254
			c0.369-0.179,0.752-0.362,1.148-0.472c0.293-0.082,0.604-0.111,0.906-0.059c0.32,0.055,0.63,0.179,0.9,0.361
			c0.193,0.132,0.37,0.302,0.468,0.517c0.077,0.165,0.105,0.348,0.112,0.528c-0.009,1.066-0.556,5.06-0.529,6.107
			c0.011,0.22,0.041,0.447,0.149,0.642c0.049,0.087,0.115,0.168,0.203,0.217c0.065,0.037,0.142,0.051,0.215,0.036
			c0.101-0.021,0.189-0.082,0.267-0.146c0.524-0.471,0.848-1.17,1.358-1.654c0.076-0.067,0.159-0.133,0.258-0.159
			c0.089-0.024,0.179,0.006,0.244,0.071c0.115,0.118,0.158,0.286,0.184,0.444c0.059,0.424,0.009,0.857-0.055,1.277
			c-0.102,0.62-0.269,1.236-0.528,1.809c-0.16,0.349-0.349,0.692-0.605,0.98c-0.63,0.681-1.526,1.157-2.202,1.789
			c-0.517,0.483-0.856,1.139-1.035,1.819"/>
	</g>
	<g id="POLYLINE_00000088827485543622350500000012377069809080879259_">
		
			<path fill="none" stroke="#3A54F5" stroke-width="1.75" stroke-linecap="round" stroke-linejoin="round" stroke-miterlimit="10" d="
			M624.322,307.402c-0.796-2.691-1.765-5.695-2.747-8.322c-0.128-0.349-0.219-0.723-0.056-1.077c0.19-0.419,0.656-0.599,1.092-0.596
			c0.449,0.001,0.886,0.155,1.276,0.37c0.5,0.279,0.941,0.661,1.305,1.103c0.295,0.358,0.535,0.763,0.723,1.187
			c0.257,0.573,0.537,1.41,0.768,1.996c0.241,0.633,1.271,3.026,1.549,3.685"/>
	</g>
	<g id="POLYLINE_00000065792843917916899950000017929579949383153815_">
		
			<path fill="none" stroke="#3A54F5" stroke-width="1.75" stroke-linecap="round" stroke-linejoin="round" stroke-miterlimit="10" d="
			M593.88,324.535c0.85-3.185,1.869-7.12,2.464-10.337c0.555-2.808,1.838-11.466,2.306-14.418c0.635-3.854,1.449-7.857,2.649-11.572
			"/>
	</g>
	<g id="POLYLINE_00000007394144171514032380000009607531219552591766_">
		
			<path fill="none" stroke="#3A54F5" stroke-width="1.75" stroke-linecap="round" stroke-linejoin="round" stroke-miterlimit="10" d="
			M609.349,260.226c-0.204-0.402-0.359-0.833-0.441-1.277c-0.093-0.493-0.095-1.002-0.052-1.5c0.103-1.226,0.561-2.98,0.822-4.195
			c0.37-1.538,0.767-4.418,1.013-6.008c0.234-1.368,0.501-2.77,1.113-4.026c0.33-0.67,0.777-1.304,1.395-1.736
			c0.601-0.422,1.351-0.628,2.083-0.569c0.641,0.049,1.263,0.314,1.737,0.749c0.417,0.381,0.725,0.868,0.963,1.376
			c0.347,0.749,0.554,1.561,0.66,2.378c0.128,0.973,0.084,1.966-0.08,2.932c-0.09,0.542-0.223,1.108-0.363,1.64
			c-0.401,1.516-1.44,4.794-1.886,6.332c-0.421,1.331-0.902,2.755-1.433,4.043"/>
	</g>
	<g id="POLYLINE_00000147933382223726677080000002790778992298471308_">
		
			<path fill="none" stroke="#3A54F5" stroke-width="1.75" stroke-linecap="round" stroke-linejoin="round" stroke-miterlimit="10" d="
			M603.919,253.019c-0.09,2.172,0.257,4.387,0.635,6.521"/>
	</g>
	<g id="POLYLINE_00000018207603835284409770000004299493213073933226_">
		
			<path fill="none" stroke="#3A54F5" stroke-width="1.75" stroke-linecap="round" stroke-linejoin="round" stroke-miterlimit="10" d="
			M597.915,261.168c-0.351-0.188-0.681-0.432-0.915-0.758c-0.4-0.563-0.564-1.259-0.653-1.935c-0.077-0.659-0.067-1.334,0.073-1.984
			c0.169-0.832,0.664-1.744,1.023-2.512c0.711-1.521,1.042-3.199,1.179-4.864c0.103-1.173-0.023-2.524,0.102-3.695
			c0.078-0.775,0.296-1.533,0.609-2.245c0.495-1.125,1.175-2.178,2.004-3.085c0.474-0.508,1.003-0.992,1.643-1.279
			c0.383-0.171,0.812-0.25,1.228-0.181c0.355,0.057,0.69,0.209,0.99,0.404c0.43,0.281,0.801,0.653,1.094,1.075
			c0.23,0.333,0.413,0.702,0.517,1.094c0.105,0.393,0.127,0.806,0.102,1.21c-0.031,0.519-0.139,1.048-0.249,1.556
			c-0.313,1.283-0.633,3.019-0.847,4.329c-0.204,1.101-0.393,2.288-0.799,3.333c-0.186,0.475-0.454,0.94-0.874,1.245
			c-0.494,0.377-1.153,0.443-1.743,0.56c-0.324,0.067-0.646,0.166-0.938,0.322c-0.613,0.332-1.121,0.837-1.533,1.395
			c-0.376,0.518-0.669,1.105-0.804,1.733c-0.161,0.741-0.114,1.517,0.055,2.253"/>
	</g>
	<g id="POLYLINE_00000072987961158123506290000012220632861343816592_">
		
			<path fill="none" stroke="#3A54F5" stroke-width="1.75" stroke-linecap="round" stroke-linejoin="round" stroke-miterlimit="10" d="
			M605.165,310.806c-0.214-1.269-5.444-31.494-5.43-31.732c-0.698-4.809-1.561-11.052-2.006-15.873
			c-0.033-0.478-0.065-0.97,0.019-1.444c0.128-0.679,0.475-1.298,0.85-1.87c0.323-0.476,0.699-0.924,1.147-1.287
			c0.311-0.25,0.664-0.462,1.053-0.562c0.887-0.225,1.803,0.119,2.559,0.574c0.771,0.464,1.464,1.083,1.92,1.866
			c0.371,0.618,0.63,1.305,0.848,1.99c0.887,2.815,1.811,8.593,2.429,11.537c0.536,2.555,1.2,5.3,1.961,7.794
			c0.63,2.145,2.304,6.69,3.065,8.85c1.104,3.151,2.038,6.621,2.798,9.878c0.598,2.6,3.035,13.929,3.703,16.255
			c0.35,1.336,1.064,3.734,1.289,5.066c0.208,1.098,0.202,2.232,0.015,3.332"/>
	</g>
	<g id="POLYLINE_00000167375616876291801000000003829979669984841895_">
		
			<path fill="none" stroke="#3A54F5" stroke-width="1.75" stroke-linecap="round" stroke-linejoin="round" stroke-miterlimit="10" d="
			M607.705,269.635c0.306-1.829,1.047-6.785,1.43-8.514c0.111-0.507,0.237-1.031,0.401-1.523c0.145-0.426,0.319-0.854,0.593-1.214
			c0.17-0.222,0.386-0.411,0.64-0.532c0.282-0.135,0.596-0.191,0.907-0.2c0.896-0.016,1.816,0.323,2.44,0.973
			c0.444,0.459,0.664,1.084,0.768,1.704c0.101,0.595,0.115,1.212,0.111,1.815c-0.154,4.834-1.366,17.392-1.3,22.122l0.099,7.066"/>
	</g>
	<g id="POLYLINE_00000007399960659998573970000017883393517073246629_">
		
			<path fill="none" stroke="#3A54F5" stroke-width="1.75" stroke-linecap="round" stroke-linejoin="round" stroke-miterlimit="10" d="
			M881.307,105.978c-0.338-0.666-0.711-1.33-1.147-1.937c-0.158-0.213-0.327-0.427-0.542-0.585c-0.131-0.097-0.286-0.167-0.45-0.18
			c-0.188-0.016-0.375,0.036-0.553,0.093c-0.935,0.343-2.029,0.547-2.911,1.018c-0.395,0.205-0.821,0.53-1.278,0.315
			c-0.361-0.17-0.633-0.482-0.87-0.795c-0.227-0.309-0.421-0.648-0.571-1.001c-0.191-0.441-0.32-1.001-0.444-1.467
			c-0.079-0.292-0.175-0.586-0.306-0.859c-0.181-0.373-0.457-0.77-0.664-1.129c-0.15-0.265-0.29-0.548-0.322-0.855
			c-0.019-0.182,0.011-0.368,0.074-0.539c0.19-0.497,0.616-0.91,1.111-1.103c0.516-0.196,1.114-0.147,1.646-0.271
			c1.101-0.265,2.319-0.956,3.403-1.324c1.614-0.582,3.305-1.004,5.008-1.218c1.143-0.135,2.318-0.187,3.455,0.022
			c1.453,0.262,2.745,1.05,3.924,1.905"/>
	</g>
	<g id="POLYLINE_00000106854028016690195370000007711148247455920571_">
		
			<path fill="none" stroke="#3A54F5" stroke-width="1.75" stroke-linecap="round" stroke-linejoin="round" stroke-miterlimit="10" d="
			M901.361,122.143c-0.36,0.77-0.749,1.58-1.376,2.169c-0.447,0.43-0.992,0.75-1.553,1.008c-0.776,0.353-1.607,0.594-2.444,0.749
			c-1.034,0.2-2.237,0.262-3.286,0.373c-0.526,0.058-1.052,0.173-1.556,0.335l-1.327,0.437c-1.027,0.323-2.117,0.576-3.196,0.408
			c-0.565-0.086-1.128-0.282-1.576-0.645c-0.551-0.443-0.848-1.137-1.178-1.745c-0.133-0.244-0.279-0.487-0.464-0.695
			c-0.19-0.217-0.417-0.402-0.652-0.568c-0.455-0.317-1.023-0.646-1.465-0.977c-0.453-0.334-0.89-0.704-1.269-1.122
			c-0.45-0.49-0.816-1.079-0.932-1.742c-0.09-0.48-0.064-0.978,0.051-1.451c0.104-0.438,0.294-0.856,0.495-1.257
			c0.259-0.497,0.601-1.174,0.804-1.691c0.312-0.795,0.561-1.627,0.662-2.477c0.051-0.454,0.05-0.925-0.093-1.363
			c-0.111-0.344-0.31-0.663-0.586-0.897c-0.189-0.164-0.418-0.279-0.656-0.354c-0.221-0.074-0.486-0.131-0.662-0.293
			c-0.144-0.13-0.224-0.315-0.272-0.5c-0.118-0.477-0.052-0.994,0.154-1.437c0.382-0.787,1.201-1.383,1.835-1.962
			c0.446-0.405,0.891-0.843,1.154-1.393c0.443-0.957,0.268-2.1,0.229-3.121c-0.021-0.568-0.038-1.166,0.188-1.7
			c0.154-0.364,0.43-0.663,0.74-0.902c0.531-0.409,1.168-0.708,1.769-1.002c2.186-0.965,4.946-2.468,7.253-3.02
			c0.861-0.196,1.764-0.233,2.633-0.064c0.983,0.19,1.922,0.581,2.817,1.022c0.856,0.437,1.705,0.932,2.416,1.585
			c0.452,0.416,0.814,0.926,1.051,1.493c0.438,1.012,0.652,2.307,0.913,3.378c0.127,0.511,0.274,1.03,0.505,1.504
			c0.148,0.305,0.345,0.586,0.578,0.831c0.375,0.403,0.948,0.786,1.387,1.117c0.476,0.364,0.941,0.761,1.305,1.24
			c0.335,0.442,0.582,0.957,0.694,1.502c0.133,0.645,0.06,1.344,0.057,1.999c-0.002,0.802,0.041,1.735-0.167,2.512
			c-0.263,1.028-0.838,1.951-1.408,2.835c-0.432,0.653-1.414,2.088-1.801,2.739C902.687,119.77,901.742,121.355,901.361,122.143z"/>
	</g>
	<g id="POLYLINE_00000150805215376513641190000017178358141886949800_">
		
			<path fill="none" stroke="#3A54F5" stroke-width="1.75" stroke-linecap="round" stroke-linejoin="round" stroke-miterlimit="10" d="
			M905.378,115.558c0.441,0.549,0.793,1.171,1.069,1.818c0.239,0.569,0.428,1.167,0.508,1.78c0.103,0.741,0.003,1.494-0.156,2.22
			c-0.206,0.919-0.456,1.915-0.476,2.856c-0.031,0.561-0.042,1.18-0.159,1.728c-0.12,0.6-0.322,1.188-0.604,1.731
			c-0.765,1.531-2.297,2.426-3.773,3.168c-1.449,0.709-6.438,2.987-7.932,3.656c-0.366,0.153-0.759,0.313-1.142,0.419
			c-0.267,0.071-0.554,0.135-0.826,0.06c-0.143-0.04-0.27-0.128-0.368-0.239c-0.094-0.105-0.171-0.226-0.239-0.349
			c-0.168-0.298-0.433-0.97-0.574-1.291c-0.448-0.985-0.974-2.029-1.699-2.839c-0.226-0.257-0.57-0.5-0.615-0.863
			c-0.03-0.303,0.117-0.613,0.261-0.872c0.321-0.546,0.769-1.048,1.317-1.372"/>
	</g>
	<g id="POLYLINE_00000076605105141709013590000012911801352953096065_">
		
			<path fill="none" stroke="#3A54F5" stroke-width="1.75" stroke-linecap="round" stroke-linejoin="round" stroke-miterlimit="10" d="
			M891.614,134.845c-1.641,1.403-3.412,2.71-5.399,3.577c-1.384,0.619-2.983,1.189-4.332,1.877c-0.885,0.452-1.745,0.976-2.535,1.58
			c-0.534,0.414-1.053,0.869-1.47,1.403c-0.277,0.354-0.496,0.755-0.678,1.166c-0.31,0.735-0.665,1.522-1.098,2.189
			c-0.775,1.221-1.718,2.353-2.836,3.274c-0.462,0.374-0.957,0.724-1.5,0.97c-0.282,0.124-0.583,0.225-0.893,0.231
			c-0.194,0.004-0.39-0.038-0.562-0.127c-0.205-0.104-0.373-0.272-0.497-0.464c-0.241-0.38-0.329-0.835-0.388-1.276
			c-0.078-0.754-0.123-1.532-0.078-2.29c0.037-0.523,0.173-1.046,0.445-1.498c0.305-0.521,0.769-0.929,1.267-1.26
			c0.98-0.655,2.155-1.135,3.125-1.806c0.487-0.331,0.968-0.722,1.415-1.105c1.265-1.096,4.242-3.879,5.471-5.015
			c1.245-1.165,4.917-4.862,6.203-5.846c0.357-0.288,0.815-0.518,1.22-0.731"/>
	</g>
	<g id="POLYLINE_00000060724876635650472080000000376798324734415035_">
		
			<path fill="none" stroke="#3A54F5" stroke-width="1.75" stroke-linecap="round" stroke-linejoin="round" stroke-miterlimit="10" d="
			M873.657,104.039c-0.36,0.176-0.72,0.373-1.029,0.63c-0.164,0.138-0.315,0.298-0.414,0.49c-0.154,0.291-0.172,0.63-0.162,0.953
			l0.039,0.799c0.034,1.02-0.068,2.373-0.13,3.402c-0.17,2.451-0.392,5.167-0.747,7.593l-0.432,2.772
			c-0.159,1.195-0.335,2.449,0.005,3.628c0.299,1.01,0.903,2.019,1.221,3.023c0.164,0.508,0.334,1.034,0.339,1.572
			c-0.004,0.114-0.015,0.235-0.076,0.334l-0.003,0.005l-0.003,0.004l-0.003,0.004l-0.003,0.004l-0.003,0.004l-0.003,0.004
			l-0.003,0.004l-0.003,0.004c-0.123,0.139-0.334,0.091-0.481,0.02c-0.53-0.258-0.757-0.867-1.029-1.352
			c-0.045-0.074-0.089-0.157-0.16-0.21l-0.002-0.001l-0.002-0.001l-0.002-0.001l-0.002-0.001l-0.002-0.001l-0.002-0.001
			l-0.002-0.001l-0.002-0.001l-0.002-0.001l-0.002-0.001l-0.002-0.001l-0.002-0.001l-0.002-0.001l-0.002-0.001l-0.001,0l-0.001,0
			l-0.001,0l-0.001,0l-0.001,0l-0.001,0l-0.001,0l-0.001,0l-0.001,0l-0.001,0l-0.001,0l-0.001,0l-0.001,0l-0.001,0l-0.001,0
			l-0.001,0l-0.001,0l-0.001,0l-0.001,0l-0.001,0l-0.001,0l-0.001,0l-0.001,0l-0.001,0l-0.001,0l-0.001,0l-0.001,0l-0.001,0
			l-0.001,0l-0.001,0c-0.027,0.009-0.048,0.03-0.065,0.052c-0.05,0.071-0.075,0.156-0.095,0.24
			c-0.071,0.311-0.047,0.639-0.022,0.954c0.057,0.664,0.177,1.391,0.007,2.045c-0.124,0.492-0.383,0.952-0.751,1.303
			c-0.32,0.307-0.725,0.51-1.138,0.66c-0.189,0.07-0.396,0.135-0.598,0.079c-0.155-0.041-0.288-0.139-0.404-0.246
			c-0.47-0.458-0.794-1.049-1.08-1.634c-0.379-0.816-0.689-1.7-0.663-2.61c0.013-0.534,0.149-1.059,0.328-1.559
			c0.156-0.457,0.786-1.971,0.972-2.44c0.188-0.485,0.385-0.988,0.421-1.511c0.038-0.503-0.068-1.009-0.177-1.498
			c-0.301-1.195-0.599-2.458-0.67-3.688c-0.135-1.563,0.031-3.838,0.093-5.422c0.072-2.74-0.124-7.066-0.221-9.818
			c0.004-0.241,0.032-0.485,0.111-0.714c0.098-0.287,0.264-0.549,0.461-0.778c0.37-0.434,0.861-0.745,1.363-1.005
			c0.319-0.164,1.043-0.507,1.352-0.678c0.421-0.227,1.105-0.655,1.517-0.909"/>
	</g>
	<g id="POLYLINE_00000047060264259207577470000002405755717712544641_">
		
			<path fill="none" stroke="#3A54F5" stroke-width="1.75" stroke-linecap="round" stroke-linejoin="round" stroke-miterlimit="10" d="
			M888.67,137.086c-2.052,2.437-4.663,5.138-6.912,7.42c-2.476,2.618-4.89,5.4-6.916,8.384c-0.836,1.277-3.914,5.766-4.622,6.998
			c-0.345,0.581-0.776,1.442-1.165,1.989c-0.187,0.259-0.397,0.516-0.677,0.679c-0.52,0.301-1.131,0.033-1.628-0.19
			c-0.962-0.458-1.992-0.931-2.885-1.512c-0.787-0.507-1.523-1.108-2.171-1.783c-0.744-0.787-1.419-1.699-1.693-2.762
			c-0.453-1.779,0.347-3.685,0.845-5.375c0.255-0.87,0.486-1.777,0.429-2.689c-0.058-0.878-0.387-1.729-0.889-2.448
			c-0.2-0.287-0.433-0.554-0.69-0.791c-0.465-0.438-1.211-0.905-1.737-1.275c-1.407-0.992-2.726-2.202-3.517-3.754
			c-0.642-1.212-1.031-2.728-1.572-3.986c-0.237-0.561-0.647-1.19-0.478-1.822c0.078-0.291,0.24-0.552,0.419-0.791
			c0.897-1.167,2.357-2.026,3.567-2.838c1.285-0.86,2.424-1.956,3.492-3.068c1.887-1.98,3.702-4.175,5.344-6.364l1.488-2.034"/>
	</g>
	<g id="POLYLINE_00000073722385158059171530000009251195103519810711_">
		
			<path fill="none" stroke="#3A54F5" stroke-width="1.75" stroke-linecap="round" stroke-linejoin="round" stroke-miterlimit="10" d="
			M871.826,112.161c1.34-1.687,2.695-3.519,4.334-4.925c1.306-1.099,2.82-1.962,4.406-2.588"/>
	</g>
	<g id="POLYLINE_00000085963311584777385950000005183773286044836781_">
		
			<path fill="none" stroke="#3A54F5" stroke-width="1.75" stroke-linecap="round" stroke-linejoin="round" stroke-miterlimit="10" d="
			M855.766,141.852c-0.721,0.96-1.657,1.749-2.658,2.405c-0.771,0.491-1.593,0.946-2.489,1.154
			c-0.737,0.163-1.575,0.129-2.214-0.309c-0.676-0.462-0.78-1.351-0.682-2.104c0.166-1.3,0.914-2.431,1.695-3.449
			c1.03-1.277,2.175-2.669,3.323-3.839"/>
	</g>
	<g id="POLYLINE_00000007416863193486787910000004572889696708503200_">
		
			<path fill="none" stroke="#3A54F5" stroke-width="1.75" stroke-linecap="round" stroke-linejoin="round" stroke-miterlimit="10" d="
			M866.993,162.473c-1.923,2.046-4.092,3.915-6.357,5.573c-2.101,1.572-4.438,3.043-6.738,4.31c-0.814,0.48-1.635,0.998-2.291,1.686
			"/>
	</g>
	<g id="POLYLINE_00000044868257371798175570000005609781112226082743_">
		
			<path fill="none" stroke="#3A54F5" stroke-width="1.75" stroke-linecap="round" stroke-linejoin="round" stroke-miterlimit="10" d="
			M844.841,173.798c0.982-0.734,2.892-2.322,3.92-2.955c0.084-0.045,0.17-0.093,0.264-0.111c0.013-0.002,0.027-0.003,0.04,0.002l0,0
			l0,0l0,0l0,0l0,0l0,0l0,0l0,0l0,0l0,0l0,0l0,0l0,0l0,0l0,0l0,0l0,0l0,0l0,0l0,0l0,0l0,0l0,0l0,0l0,0l0,0l0,0l0,0l0,0l0,0l0,0l0,0
			l0,0l0,0l0,0l0,0l0,0l0,0l0,0l0,0l0,0l0,0l0,0l0,0l0,0l0,0l0,0.001v0.001v0.001v0.001v0.001v0.001v0.001l0,0.001l0,0.001
			c-0.006,0.033-0.045,0.073-0.067,0.098c-0.493,0.497-1.057,1.163-1.552,1.665c-0.403,0.442-0.821,0.904-1.043,1.467
			c-0.181,0.458-0.1,0.963,0.158,1.375c0.169,0.267,0.398,0.518,0.701,0.629c0.275,0.097,0.576,0.066,0.859,0.019
			c0.453-0.082,0.891-0.244,1.296-0.461c0.675-0.355,1.557-1.055,2.178-1.504c-0.023,0.227-0.076,0.454-0.164,0.665
			c-0.161,0.368-0.415,0.692-0.66,1.007c-0.434,0.539-0.914,1.059-1.446,1.503c-0.555,0.466-1.461,1.006-2.073,1.406
			c-0.648,0.409-1.366,1.029-1.95,1.534c-0.387,0.323-0.794,0.643-1.248,0.866c-0.412,0.203-0.867,0.325-1.328,0.331
			c-0.459,0.008-0.918-0.103-1.326-0.312c-0.503-0.259-0.957-0.64-1.25-1.128c-0.174-0.292-0.276-0.639-0.22-0.98
			c0.068-0.432,0.321-0.809,0.59-1.143c0.19-0.233,0.409-0.461,0.623-0.673C842.264,176.061,843.681,174.8,844.841,173.798z"/>
	</g>
	<g id="POLYLINE_00000141454166012053156140000005716588038367040175_">
		
			<path fill="none" stroke="#3A54F5" stroke-width="1.75" stroke-linecap="round" stroke-linejoin="round" stroke-miterlimit="10" d="
			M849.065,170.786c1.707-1.238,3.41-2.583,4.813-4.161c2.571-2.859,4.76-6.096,6.379-9.586"/>
	</g>
</g>
<g id="_x32_D_x24_AG-FURNITURE">
	<g id="POLYLINE_00000109018847523287076510000010094790956859165313_">
		
			<path fill="none" stroke="#3A54F5" stroke-width="1.75" stroke-linecap="round" stroke-linejoin="round" stroke-miterlimit="10" d="
			M590.393,338.835c-3.151,0.23-6.362,0.561-9.426,1.351c-1.685,0.454-3.394,1.039-4.799,2.102c-0.751,0.574-1.394,1.33-1.694,2.238
			c-0.209,0.597-0.229,1.213-0.207,1.839c-0.033,0.37-0.005,12.626,0.016,12.801c0.034,0.497,0.111,0.996,0.254,1.474
			c0.155,0.521,0.395,1.021,0.72,1.457c0.335,0.453,0.759,0.838,1.225,1.152c0.655,0.442,1.395,0.758,2.144,1.006
			c1.128,0.37,2.328,0.599,3.502,0.773c7.235,0.98,17.967,0.644,25.356,0.749c7.423-0.108,18.128,0.237,25.409-0.749
			c1.164-0.174,2.357-0.402,3.475-0.773c0.74-0.248,1.472-0.563,2.118-1.006c0.46-0.314,0.877-0.7,1.205-1.152
			c0.305-0.419,0.534-0.895,0.684-1.39c0.153-0.499,0.233-1.021,0.268-1.541c0.063-0.161,0.003-12.431,0.016-12.801
			c0.019-0.568,0.007-1.148-0.161-1.696c-0.181-0.621-0.522-1.189-0.956-1.666c-0.895-0.978-2.103-1.608-3.32-2.093
			c-2.248-0.871-4.667-1.301-7.048-1.625"/>
	</g>
	<g id="POLYLINE_00000020368472747751866070000012206459901355538060_">
		
			<path fill="none" stroke="#3A54F5" stroke-width="1.75" stroke-linecap="round" stroke-linejoin="round" stroke-miterlimit="10" d="
			M855.339,131.227l-14.397-14.397c-0.032-0.033-0.07-0.072-0.102-0.106c-0.076-0.083-0.149-0.172-0.216-0.262
			c-0.166-0.224-0.304-0.47-0.408-0.728c-0.174-0.43-0.255-0.897-0.237-1.36c0.017-0.432,0.12-0.862,0.302-1.254
			c0.126-0.272,0.29-0.528,0.485-0.756c0.159-0.19,42.337-42.346,42.526-42.541"/>
	</g>
	<g id="POLYLINE_00000119823629691589184610000017714432410532130709_">
		
			<path fill="none" stroke="#3A54F5" stroke-width="1.75" stroke-linecap="round" stroke-linejoin="round" stroke-miterlimit="10" d="
			M933.011,119.541c-0.162,0.152-42.353,42.373-42.512,42.502c-0.195,0.17-0.411,0.318-0.64,0.438
			c-0.381,0.199-0.802,0.323-1.229,0.362c-0.463,0.042-0.936-0.015-1.375-0.168c-0.351-0.122-0.683-0.304-0.973-0.535
			c-0.086-0.069-0.172-0.145-0.251-0.222c-0.041-0.029-10.257-10.266-10.296-10.296"/>
	</g>
	<g id="POLYLINE_00000062873187411178294210000004472404401283993236_">
		
			<rect x="682.331" y="171.798" fill="none" stroke="#3A54F5" stroke-width="1.75" stroke-linecap="round" stroke-linejoin="round" stroke-miterlimit="10" width="104.167" height="62.5"/>
	</g>
	<g id="POLYLINE_00000099627742960067018050000012277296784005270678_">
		
			<path fill="none" stroke="#3A54F5" stroke-width="1.75" stroke-linecap="round" stroke-linejoin="round" stroke-miterlimit="10" d="
			M896.107,57.008c-0.084,0.081-55.655,55.662-55.736,55.732c-0.119,0.109-0.249,0.207-0.386,0.292
			c-0.266,0.165-0.564,0.282-0.871,0.342c-0.718,0.144-1.494-0.035-2.075-0.481c0,0-0.024-0.018-0.024-0.018
			s-0.024-0.019-0.024-0.019s-0.023-0.019-0.023-0.019c-0.066-0.055-0.135-0.116-0.196-0.177c0,0-4.579-4.579-4.579-4.579
			s-0.02-0.021-0.02-0.021s-0.02-0.021-0.02-0.021c-0.154-0.161-0.287-0.342-0.395-0.536c-0.368-0.656-0.429-1.474-0.161-2.177
			c0.103-0.273,0.252-0.531,0.439-0.755c0.036-0.264,62.708-62.576,62.808-62.822c0.317-0.303,0.713-0.525,1.137-0.636
			c0.453-0.12,0.94-0.114,1.39,0.018c0.324,0.094,0.631,0.253,0.895,0.463c1.688,1.638,52.755,52.742,56.358,56.335
			c0.04,0.041,6.424,6.423,6.461,6.462c0.081,0.086,0.16,0.179,0.229,0.275c0.246,0.34,0.408,0.741,0.467,1.157
			c0.068,0.473,0.003,0.965-0.188,1.403c-0.103,0.237-0.241,0.46-0.41,0.657c0.115,0.134-62.775,62.62-62.747,62.759
			c-0.262,0.262-0.581,0.467-0.928,0.597c-0.714,0.271-1.544,0.205-2.205-0.177c-0.192-0.11-0.372-0.245-0.53-0.4
			c-0.039-0.014-4.58-4.597-4.62-4.62c-0.075-0.078-0.147-0.16-0.213-0.246c-0.446-0.582-0.625-1.356-0.481-2.075
			c0.06-0.308,0.177-0.605,0.342-0.871c0.085-0.137,0.183-0.267,0.292-0.386c0.095,0.023,55.635-55.727,55.733-55.736"/>
	</g>
	<g id="POLYLINE_00000156577568884227207510000003347993220300301985_">
		
			<line fill="none" stroke="#3A54F5" stroke-width="1.75" stroke-linecap="round" stroke-linejoin="round" stroke-miterlimit="10" x1="896.107" y1="57.008" x2="904.905" y2="48.211"/>
	</g>
	<g id="POLYLINE_00000003811922150241124300000018379839318221255813_">
		
			<line fill="none" stroke="#3A54F5" stroke-width="1.75" stroke-linecap="round" stroke-linejoin="round" stroke-miterlimit="10" x1="945.826" y1="106.727" x2="954.623" y2="97.929"/>
	</g>
	<g id="POLYLINE_00000043450737691803180720000010248796782013676726_">
		
			<path fill="none" stroke="#3A54F5" stroke-width="1.75" stroke-linecap="round" stroke-linejoin="round" stroke-miterlimit="10" d="
			M934.072,118.48l-0.062,0.06l-0.062,0.059l-0.063,0.057l-0.064,0.055l-0.065,0.054l-0.065,0.052l-0.066,0.05l-0.067,0.048
			l-0.068,0.047l-0.068,0.045l-0.069,0.043l-0.07,0.042l-0.071,0.04l-0.071,0.039l-0.072,0.037l-0.073,0.035l-0.074,0.034
			l-0.074,0.032l-0.075,0.03l-0.076,0.029l-0.076,0.027l-0.077,0.026l-0.078,0.024l-0.078,0.023l-0.079,0.021l-0.08,0.02
			l-0.081,0.018l-0.081,0.016l-0.082,0.015l-0.082,0.013l-0.083,0.012l-0.084,0.01l-0.084,0.009l-0.085,0.007
			c-1.586,0.108-3.13-0.461-4.545-1.123c-2.443-1.182-4.677-2.81-6.804-4.483c-5.34-4.216-11.278-10.259-16.154-15.077
			c-4.851-4.91-10.893-10.848-15.148-16.225c-1.738-2.208-3.434-4.526-4.637-7.076c-0.62-1.359-1.144-2.837-1.047-4.351l0.007-0.086
			l0.009-0.085l0.01-0.084l0.012-0.084l0.013-0.083l0.015-0.082l0.016-0.082l0.018-0.081l0.019-0.08l0.021-0.079l0.022-0.079
			l0.024-0.078l0.025-0.077l0.027-0.077l0.029-0.076l0.03-0.075l0.032-0.075l0.033-0.074l0.035-0.073l0.037-0.072l0.038-0.072
			l0.04-0.071l0.042-0.07l0.043-0.069l0.045-0.069l0.047-0.068l0.048-0.067l0.05-0.066l0.052-0.066l0.053-0.065l0.055-0.064
			l0.057-0.063l0.059-0.062c0.124-0.127,0.293-0.294,0.421-0.415c0.052-0.052,0.111-0.12,0.162-0.169c0,0,8.419-8.419,8.419-8.419
			c0.148-0.153,0.324-0.31,0.482-0.452c0.376-0.327,0.784-0.626,1.224-0.861c0.481-0.258,1.008-0.439,1.55-0.511
			c0.567-0.078,1.148-0.04,1.707,0.078c0.798,0.168,1.564,0.49,2.286,0.864c1.101,0.574,2.151,1.303,3.143,2.049
			c6.975,5.36,19.945,19.123,26.427,25.387c3.56,3.634,7.53,7.594,10.759,11.512c1.045,1.29,2.082,2.651,2.89,4.105
			c0.451,0.821,0.843,1.696,1.03,2.618c0.108,0.532,0.142,1.084,0.07,1.623c-0.067,0.515-0.231,1.019-0.467,1.481
			c-0.236,0.462-0.541,0.89-0.878,1.283c-0.159,0.185-8.75,8.818-9.093,9.123C934.329,118.222,934.173,118.38,934.072,118.48z"/>
	</g>
	<g id="POLYLINE_00000146492633318305214830000017203075558669214896_">
		
			<path fill="none" stroke="#3A54F5" stroke-width="1.75" stroke-linecap="round" stroke-linejoin="round" stroke-miterlimit="10" d="
			M927.898,192.738c-6.193-6.162-8.888-15.213-7.073-23.758c3.308-15.625,19.673-24.619,34.636-19.038
			c6.978,2.592,12.641,8.255,15.233,15.233c5.582,14.964-3.413,31.329-19.037,34.636
			C943.111,201.625,934.06,198.931,927.898,192.738z"/>
	</g>
	<g id="POLYLINE_00000093147338110357880090000006602657414062805944_">
		
			<path fill="none" stroke="#3A54F5" stroke-width="1.75" stroke-linecap="round" stroke-linejoin="round" stroke-miterlimit="10" d="
			M640.664,284.466c0.016-0.039-0.011-65.134-0.001-65.177c-0.003-0.098-0.009-0.201-0.02-0.298
			c-0.024-0.207-0.067-0.413-0.129-0.612c-0.149-0.478-0.41-0.922-0.755-1.284c-0.612-0.649-1.495-1.029-2.388-1.025
			c-0.03-0.001-59.855,0-59.891,0.001c-0.098,0.002-0.201,0.009-0.298,0.02c-0.22,0.025-0.44,0.073-0.65,0.141
			c-0.504,0.164-0.968,0.452-1.337,0.832c-0.36,0.369-0.631,0.824-0.784,1.315c-0.062,0.198-0.106,0.405-0.129,0.612
			c-0.01,0.097-0.019,0.2-0.02,0.298c-0.046,0.082,0.032,64.405-0.001,64.489"/>
	</g>
	<g id="POLYLINE_00000020399511149859350030000015494411237222406058_">
		
			<path fill="none" stroke="#3A54F5" stroke-width="1.75" stroke-linecap="round" stroke-linejoin="round" stroke-miterlimit="10" d="
			M640.664,284.466c-0.002-0.739,0.256-1.476,0.718-2.053c0.448-0.564,1.087-0.973,1.786-1.144c0.201-0.049,0.411-0.081,0.617-0.091
			c0.041-0.019,61.235,0.004,61.33-0.004c0.32,0.004,0.641,0.054,0.947,0.15c0.682,0.212,1.29,0.653,1.702,1.236
			c0.393,0.552,0.609,1.228,0.608,1.906c-0.001-0.72,0.243-1.438,0.683-2.008c0.427-0.556,1.036-0.97,1.711-1.16
			c0.236-0.067,0.483-0.108,0.727-0.12c-0.003-0.02,59.933,0.005,59.988-0.004c0.305,0,0.615,0.043,0.908,0.128
			c0.7,0.199,1.33,0.64,1.756,1.23c0.406,0.557,0.63,1.246,0.629,1.935"/>
	</g>
	<g id="POLYLINE_00000080165739291681444600000001705705260567672251_">
		
			<path fill="none" stroke="#3A54F5" stroke-width="1.75" stroke-linecap="round" stroke-linejoin="round" stroke-miterlimit="10" d="
			M574.261,358.505c0.006-0.04-0.003-74.768-0.001-74.814c-0.005-0.15-0.023-0.301-0.054-0.448
			c-0.057-0.273-0.159-0.537-0.299-0.777c-0.327-0.565-0.876-0.998-1.503-1.183c-0.223-0.067-0.456-0.104-0.689-0.109
			c0,0-0.029,0-0.029,0s-0.029,0-0.029,0h-6.476c-0.273,0-0.548,0.044-0.808,0.128c-0.506,0.164-0.958,0.488-1.276,0.914
			c-0.258,0.344-0.429,0.753-0.492,1.179c-0.014,0.098-0.024,0.198-0.027,0.297c-0.013,0.062,0.006,88.555-0.001,88.629
			c0,0.425,0.106,0.85,0.306,1.225c0.321,0.607,0.892,1.075,1.551,1.27c0.176,0.052,0.359,0.087,0.543,0.101
			c0.067,0.003,0.138,0.01,0.204,0.008c0,0,9.08,0,9.08,0V358.505z"/>
	</g>
	<g id="POLYLINE_00000116207392373839756360000009396178673932771723_">
		
			<line fill="none" stroke="#3A54F5" stroke-width="1.75" stroke-linecap="round" stroke-linejoin="round" stroke-miterlimit="10" x1="574.261" y1="374.923" x2="774.795" y2="374.923"/>
	</g>
	<g id="POLYLINE_00000085218339984159737180000004144503618951667078_">
		
			<path fill="none" stroke="#3A54F5" stroke-width="1.75" stroke-linecap="round" stroke-linejoin="round" stroke-miterlimit="10" d="
			M774.795,374.923c0.029,0,9.081,0,9.107,0c0.077-0.002,0.158-0.004,0.235-0.013c0.152-0.016,0.306-0.045,0.453-0.087
			c0.714-0.201,1.328-0.723,1.64-1.396c0.125-0.265,0.204-0.552,0.234-0.844c0.051-0.144-0.008-88.658,0.013-88.863
			c-0.01-0.461-0.145-0.919-0.388-1.311c-0.446-0.732-1.271-1.211-2.129-1.234c-0.265,0.013-6.871-0.043-7.006,0.037
			c-0.503,0.086-0.98,0.325-1.349,0.678c-0.358,0.34-0.617,0.784-0.735,1.263C774.649,295.683,774.869,363.95,774.795,374.923z"/>
	</g>
	<g id="POLYLINE_00000016759255163966385130000018017136484445130894_">
		
			<line fill="none" stroke="#3A54F5" stroke-width="1.75" stroke-linecap="round" stroke-linejoin="round" stroke-miterlimit="10" x1="640.664" y1="284.466" x2="640.664" y2="345.86"/>
	</g>
	<g id="POLYLINE_00000133487607893188875080000009286202314169941670_">
		
			<line fill="none" stroke="#3A54F5" stroke-width="1.75" stroke-linecap="round" stroke-linejoin="round" stroke-miterlimit="10" x1="708.372" y1="284.466" x2="708.372" y2="345.86"/>
	</g>
	<g id="POLYLINE_00000114759806751652739600000010204442974893847724_">
		
			<path fill="none" stroke="#3A54F5" stroke-width="1.75" stroke-linecap="round" stroke-linejoin="round" stroke-miterlimit="10" d="
			M708.372,345.86l0.001-0.086l0.002-0.086l0.004-0.085l0.006-0.084l0.007-0.084l0.009-0.083l0.01-0.082l0.012-0.082l0.013-0.081
			l0.015-0.08l0.016-0.08l0.018-0.079l0.02-0.078l0.021-0.078l0.023-0.077l0.024-0.076l0.026-0.076l0.027-0.075l0.029-0.075
			l0.03-0.074l0.031-0.073l0.033-0.073l0.034-0.072l0.036-0.071l0.037-0.071l0.039-0.07l0.04-0.07l0.042-0.069l0.043-0.068
			l0.044-0.068l0.046-0.067l0.047-0.067l0.049-0.066l0.05-0.065c0.925-1.173,2.299-1.884,3.665-2.419
			c2.361-0.894,4.898-1.321,7.394-1.641c6.476-0.814,14.661-0.716,21.238-0.762c6.357,0.044,14.369-0.041,20.635,0.688
			c2.634,0.311,5.312,0.728,7.815,1.634c1.446,0.543,2.91,1.267,3.888,2.5l0.05,0.065l0.049,0.066l0.047,0.067l0.046,0.067
			l0.044,0.068l0.043,0.068l0.042,0.069l0.04,0.07l0.039,0.07l0.037,0.071l0.036,0.071l0.034,0.072l0.033,0.073l0.032,0.073
			l0.03,0.074l0.029,0.075l0.027,0.075l0.026,0.076l0.024,0.076l0.023,0.077l0.021,0.078l0.02,0.078l0.018,0.079l0.017,0.08
			l0.015,0.08l0.013,0.081l0.012,0.082l0.01,0.082l0.009,0.083l0.007,0.084l0.006,0.084l0.004,0.085l0.002,0.086
			c0.002,0.177,0.001,0.415-0.004,0.591c0.033,0.37,0.005,12.626-0.016,12.801c-0.034,0.497-0.111,0.996-0.254,1.474
			c-0.155,0.521-0.395,1.021-0.72,1.457c-0.335,0.453-0.759,0.838-1.225,1.152c-0.655,0.442-1.395,0.758-2.144,1.006
			c-1.128,0.37-2.328,0.599-3.502,0.773c-7.235,0.98-17.967,0.644-25.356,0.749c-7.423-0.108-18.128,0.237-25.409-0.749
			c-1.164-0.174-2.357-0.402-3.476-0.773c-0.74-0.248-1.472-0.563-2.118-1.006c-0.46-0.314-0.877-0.7-1.205-1.152
			c-0.305-0.419-0.534-0.895-0.684-1.39c-0.153-0.499-0.233-1.021-0.268-1.541c-0.064-0.161-0.003-12.431-0.016-12.801
			C708.373,346.224,708.372,346.002,708.372,345.86z"/>
	</g>
	<g id="POLYLINE_00000044888263215940367780000017883126626192490638_">
		
			<path fill="none" stroke="#3A54F5" stroke-width="1.75" stroke-linecap="round" stroke-linejoin="round" stroke-miterlimit="10" d="
			M640.664,345.86l0.001-0.086l0.002-0.086l0.004-0.085l0.006-0.084l0.007-0.084l0.009-0.083l0.011-0.082l0.012-0.082l0.014-0.081
			l0.016-0.08l0.017-0.08l0.019-0.079l0.02-0.078l0.022-0.078l0.023-0.077l0.025-0.076l0.026-0.076l0.028-0.075l0.03-0.075
			l0.031-0.074l0.033-0.073l0.034-0.073l0.036-0.072l0.037-0.071l0.039-0.071l0.04-0.07l0.042-0.07l0.043-0.069l0.044-0.068
			l0.046-0.068l0.047-0.067l0.049-0.067l0.05-0.066l0.052-0.065c0.967-1.182,2.383-1.886,3.785-2.419
			c2.432-0.893,5.037-1.321,7.6-1.641c6.58-0.808,14.855-0.717,21.535-0.762c6.453,0.043,14.551-0.036,20.914,0.688
			c2.704,0.311,5.452,0.729,8.028,1.634c1.483,0.542,2.992,1.257,4.014,2.5l0.052,0.065l0.05,0.066l0.049,0.067l0.047,0.067
			l0.046,0.068l0.045,0.068l0.043,0.069l0.042,0.07l0.04,0.07l0.039,0.071l0.037,0.071l0.036,0.072l0.034,0.073l0.033,0.073
			l0.031,0.074l0.03,0.075l0.028,0.075l0.027,0.076l0.025,0.076l0.023,0.077l0.022,0.078l0.02,0.078l0.019,0.079l0.017,0.08
			l0.016,0.08l0.014,0.081l0.012,0.082l0.011,0.082l0.009,0.083l0.007,0.084l0.006,0.084l0.004,0.085l0.003,0.086
			c0.002,0.177,0.001,0.415-0.004,0.591c0.034,0.37,0.005,12.626-0.016,12.801c-0.034,0.497-0.111,0.996-0.255,1.474
			c-0.156,0.521-0.397,1.021-0.724,1.457c-0.339,0.454-0.767,0.839-1.237,1.152c-0.664,0.443-1.413,0.758-2.171,1.006
			c-1.146,0.371-2.365,0.599-3.556,0.773c-7.388,0.982-18.366,0.643-25.909,0.749c-7.579-0.109-18.53,0.239-25.964-0.749
			c-1.181-0.174-2.393-0.401-3.53-0.773c-0.749-0.247-1.49-0.562-2.145-1.006c-0.889-0.591-1.566-1.45-1.885-2.475
			c-0.159-0.494-0.245-1.012-0.284-1.528c-0.019-0.243-0.047-12.423-0.021-12.881C640.665,346.224,640.664,346.002,640.664,345.86z"
			/>
	</g>
	<g id="POLYLINE_00000025401098303314740260000007828766909570499244_">
		
			<rect x="182.331" y="171.798" fill="none" stroke="#3A54F5" stroke-width="1.75" stroke-linecap="round" stroke-linejoin="round" stroke-miterlimit="10" width="104.167" height="62.5"/>
	</g>
	<g id="POLYLINE_00000027571208012364114170000005289437348945308809_">
		
			<path fill="none" stroke="#3A54F5" stroke-width="1.75" stroke-linecap="round" stroke-linejoin="round" stroke-miterlimit="10" d="
			M433.011,119.541c-0.007,0.02-42.366,42.357-42.377,42.376c-0.08,0.077-0.165,0.154-0.251,0.222
			c-0.163,0.129-0.339,0.245-0.524,0.341c-0.456,0.239-0.97,0.369-1.485,0.375c-0.53,0.007-1.062-0.116-1.534-0.357
			c-0.198-0.1-0.386-0.222-0.56-0.36c-0.077-0.062-0.154-0.128-0.225-0.196c-0.015-0.007-45.087-45.09-45.114-45.113
			c-0.623-0.618-0.979-1.493-0.964-2.371c0.006-0.515,0.136-1.029,0.375-1.485c0.097-0.184,0.212-0.361,0.341-0.524
			c0.062-0.076,0.128-0.155,0.196-0.225c0.02-0.092,42.369-42.32,42.402-42.403"/>
	</g>
	<g id="POLYLINE_00000141425220344521928230000010432531662068971658_">
		
			<path fill="none" stroke="#3A54F5" stroke-width="1.75" stroke-linecap="round" stroke-linejoin="round" stroke-miterlimit="10" d="
			M396.107,57.008c-0.084,0.081-55.655,55.662-55.736,55.732c-0.119,0.109-0.249,0.207-0.386,0.292
			c-0.266,0.165-0.564,0.282-0.871,0.342c-0.719,0.144-1.494-0.035-2.075-0.481c0,0-0.024-0.018-0.024-0.018
			s-0.024-0.019-0.024-0.019s-0.023-0.019-0.023-0.019c-0.066-0.055-0.135-0.116-0.196-0.177c0,0-4.579-4.579-4.579-4.579
			s-0.02-0.021-0.02-0.021s-0.02-0.021-0.02-0.021c-0.154-0.161-0.287-0.342-0.395-0.536c-0.368-0.656-0.429-1.474-0.162-2.177
			c0.103-0.273,0.252-0.531,0.439-0.755c0.036-0.264,62.708-62.576,62.808-62.822c0.317-0.303,0.713-0.525,1.137-0.636
			c0.453-0.12,0.94-0.114,1.39,0.018c0.324,0.094,0.631,0.253,0.895,0.463c1.688,1.638,52.755,52.742,56.358,56.335
			c0.04,0.041,6.424,6.423,6.461,6.462c0.081,0.086,0.16,0.179,0.229,0.275c0.246,0.34,0.408,0.741,0.467,1.157
			c0.068,0.473,0.003,0.965-0.188,1.403c-0.103,0.237-0.241,0.46-0.41,0.657c0.115,0.134-62.775,62.62-62.747,62.759
			c-0.262,0.262-0.581,0.467-0.928,0.597c-0.714,0.271-1.544,0.205-2.205-0.177c-0.192-0.11-0.371-0.245-0.53-0.4
			c-0.039-0.014-4.58-4.597-4.62-4.62c-0.075-0.078-0.147-0.16-0.213-0.246c-0.446-0.582-0.625-1.356-0.481-2.075
			c0.06-0.308,0.177-0.605,0.342-0.871c0.085-0.137,0.183-0.267,0.292-0.386c0.094,0.023,55.635-55.727,55.732-55.736"/>
	</g>
	<g id="POLYLINE_00000067921152896903905200000004933243854347211415_">
		
			<line fill="none" stroke="#3A54F5" stroke-width="1.75" stroke-linecap="round" stroke-linejoin="round" stroke-miterlimit="10" x1="396.107" y1="57.008" x2="404.905" y2="48.211"/>
	</g>
	<g id="POLYLINE_00000165216412730736925310000001619659028784278946_">
		
			<line fill="none" stroke="#3A54F5" stroke-width="1.75" stroke-linecap="round" stroke-linejoin="round" stroke-miterlimit="10" x1="445.826" y1="106.727" x2="454.623" y2="97.929"/>
	</g>
	<g id="POLYLINE_00000124161601574766630970000005969850076274567831_">
		
			<path fill="none" stroke="#3A54F5" stroke-width="1.75" stroke-linecap="round" stroke-linejoin="round" stroke-miterlimit="10" d="
			M434.072,118.48l-0.062,0.06l-0.062,0.059l-0.063,0.057l-0.064,0.055l-0.065,0.054l-0.065,0.052l-0.066,0.05l-0.067,0.048
			l-0.068,0.047l-0.068,0.045l-0.069,0.043l-0.07,0.042l-0.071,0.04l-0.071,0.039l-0.072,0.037l-0.073,0.035l-0.074,0.034
			l-0.074,0.032l-0.075,0.03l-0.076,0.029l-0.076,0.027l-0.077,0.026l-0.078,0.024l-0.078,0.023l-0.079,0.021l-0.08,0.02
			l-0.081,0.018l-0.081,0.016l-0.082,0.015l-0.083,0.013l-0.083,0.012l-0.084,0.01l-0.084,0.009l-0.085,0.007
			c-1.586,0.108-3.13-0.461-4.545-1.123c-2.443-1.182-4.677-2.81-6.804-4.483c-5.34-4.216-11.278-10.259-16.154-15.077
			c-4.851-4.91-10.892-10.848-15.148-16.225c-1.738-2.208-3.434-4.526-4.637-7.076c-0.62-1.359-1.144-2.837-1.047-4.351l0.007-0.086
			l0.009-0.085l0.01-0.084l0.012-0.084l0.013-0.083l0.015-0.082l0.016-0.082l0.018-0.081l0.019-0.08l0.021-0.079l0.022-0.079
			l0.024-0.078l0.025-0.077l0.027-0.077l0.029-0.076l0.03-0.075l0.032-0.075l0.033-0.074l0.035-0.073l0.037-0.072l0.038-0.072
			l0.04-0.071l0.042-0.07l0.043-0.069l0.045-0.069l0.047-0.068l0.048-0.067l0.05-0.066l0.052-0.066l0.053-0.065l0.055-0.064
			l0.057-0.063l0.059-0.062c0.124-0.127,0.293-0.294,0.421-0.415c0.052-0.052,0.111-0.12,0.162-0.169c0,0,8.419-8.419,8.419-8.419
			c0.148-0.153,0.324-0.31,0.482-0.452c0.376-0.327,0.784-0.626,1.224-0.861c0.481-0.258,1.008-0.439,1.55-0.511
			c0.567-0.078,1.148-0.04,1.707,0.078c0.798,0.168,1.564,0.49,2.286,0.864c1.101,0.574,2.151,1.303,3.143,2.049
			c6.975,5.36,19.945,19.123,26.427,25.387c3.56,3.634,7.53,7.594,10.759,11.512c1.045,1.29,2.082,2.651,2.89,4.105
			c0.451,0.821,0.843,1.696,1.03,2.618c0.108,0.532,0.142,1.084,0.07,1.623c-0.067,0.515-0.231,1.019-0.467,1.481
			c-0.236,0.462-0.541,0.89-0.878,1.283c-0.159,0.185-8.75,8.818-9.093,9.123C434.329,118.222,434.173,118.38,434.072,118.48z"/>
	</g>
	<g id="POLYLINE_00000069393536051601362340000007986983123642059711_">
		
			<path fill="none" stroke="#3A54F5" stroke-width="1.75" stroke-linecap="round" stroke-linejoin="round" stroke-miterlimit="10" d="
			M427.898,192.738c-6.193-6.162-8.888-15.213-7.073-23.758c3.308-15.625,19.673-24.619,34.636-19.038
			c6.978,2.592,12.641,8.255,15.233,15.233c5.582,14.964-3.413,31.329-19.038,34.636
			C443.111,201.625,434.06,198.931,427.898,192.738z"/>
	</g>
	<g id="POLYLINE_00000070826578337558524910000006804278181446068133_">
		
			<path fill="none" stroke="#3A54F5" stroke-width="1.75" stroke-linecap="round" stroke-linejoin="round" stroke-miterlimit="10" d="
			M140.664,284.466c0.016-0.039-0.011-65.134-0.001-65.177c-0.003-0.098-0.009-0.201-0.02-0.298
			c-0.024-0.207-0.067-0.413-0.129-0.612c-0.149-0.478-0.41-0.922-0.755-1.284c-0.612-0.649-1.495-1.029-2.388-1.025
			c-0.03-0.001-59.855,0-59.891,0.001c-0.098,0.002-0.201,0.009-0.298,0.02c-0.22,0.025-0.44,0.073-0.65,0.141
			c-0.504,0.164-0.968,0.452-1.337,0.832c-0.36,0.369-0.631,0.824-0.784,1.315c-0.062,0.198-0.106,0.405-0.129,0.612
			c-0.01,0.097-0.019,0.2-0.02,0.298c-0.046,0.082,0.032,64.405-0.001,64.489"/>
	</g>
	<g id="POLYLINE_00000003077165054017576810000004248694149580399236_">
		
			<path fill="none" stroke="#3A54F5" stroke-width="1.75" stroke-linecap="round" stroke-linejoin="round" stroke-miterlimit="10" d="
			M140.664,284.466c-0.001-0.739,0.256-1.476,0.718-2.053c0.448-0.564,1.087-0.973,1.786-1.144c0.201-0.049,0.411-0.081,0.618-0.091
			c0.041-0.019,61.235,0.004,61.33-0.004c0.32,0.004,0.641,0.054,0.947,0.15c0.682,0.212,1.29,0.653,1.702,1.236
			c0.393,0.552,0.609,1.228,0.608,1.906c-0.001-0.72,0.243-1.438,0.683-2.008c0.427-0.556,1.036-0.97,1.711-1.16
			c0.236-0.067,0.483-0.108,0.727-0.12c-0.003-0.02,59.933,0.005,59.988-0.004c0.305,0,0.615,0.043,0.908,0.128
			c0.7,0.199,1.33,0.64,1.756,1.23c0.406,0.557,0.63,1.246,0.629,1.935"/>
	</g>
	<g id="POLYLINE_00000175310678860662474340000012143614510657155002_">
		
			<path fill="none" stroke="#3A54F5" stroke-width="1.75" stroke-linecap="round" stroke-linejoin="round" stroke-miterlimit="10" d="
			M74.261,358.505c0.006-0.04-0.003-74.768-0.001-74.814c-0.005-0.15-0.023-0.301-0.054-0.448c-0.057-0.273-0.159-0.537-0.299-0.777
			c-0.327-0.565-0.876-0.998-1.503-1.183c-0.223-0.067-0.456-0.104-0.689-0.109c0,0-0.029,0-0.029,0s-0.029,0-0.029,0
			s-6.476,0-6.476,0c-0.273,0-0.548,0.044-0.808,0.128c-0.506,0.164-0.958,0.488-1.276,0.914c-0.258,0.344-0.429,0.753-0.492,1.179
			c-0.014,0.098-0.024,0.198-0.027,0.297c-0.013,0.062,0.006,88.555-0.001,88.629c0,0.425,0.106,0.85,0.306,1.225
			c0.321,0.607,0.892,1.075,1.551,1.27c0.176,0.052,0.359,0.087,0.543,0.101c0.067,0.003,0.138,0.01,0.204,0.008c0,0,9.08,0,9.08,0
			V358.505z"/>
	</g>
	<g id="POLYLINE_00000176001553461223703680000006797967434616052141_">
		
			<line fill="none" stroke="#3A54F5" stroke-width="1.75" stroke-linecap="round" stroke-linejoin="round" stroke-miterlimit="10" x1="74.261" y1="374.923" x2="274.795" y2="374.923"/>
	</g>
	<g id="POLYLINE_00000152232522628068386380000010791758968099057085_">
		
			<path fill="none" stroke="#3A54F5" stroke-width="1.75" stroke-linecap="round" stroke-linejoin="round" stroke-miterlimit="10" d="
			M274.795,374.923c0.029,0,9.081,0,9.107,0c0.077-0.002,0.158-0.004,0.235-0.013c0.152-0.016,0.306-0.045,0.453-0.087
			c0.714-0.201,1.328-0.723,1.64-1.396c0.125-0.265,0.204-0.552,0.234-0.844c0.051-0.144-0.008-88.658,0.013-88.863
			c-0.01-0.461-0.145-0.919-0.388-1.311c-0.446-0.732-1.271-1.211-2.129-1.234c-0.265,0.013-6.871-0.043-7.006,0.037
			c-0.503,0.086-0.98,0.325-1.349,0.678c-0.359,0.34-0.617,0.784-0.735,1.263C274.649,295.683,274.869,363.95,274.795,374.923z"/>
	</g>
	<g id="POLYLINE_00000167390581835547678570000008422067643821302431_">
		
			<line fill="none" stroke="#3A54F5" stroke-width="1.75" stroke-linecap="round" stroke-linejoin="round" stroke-miterlimit="10" x1="140.664" y1="284.466" x2="140.664" y2="345.86"/>
	</g>
	<g id="POLYLINE_00000104693602251478761010000016120986304717966239_">
		
			<line fill="none" stroke="#3A54F5" stroke-width="1.75" stroke-linecap="round" stroke-linejoin="round" stroke-miterlimit="10" x1="208.372" y1="284.466" x2="208.372" y2="345.86"/>
	</g>
	<g id="POLYLINE_00000144303650487453405800000016922198009822104249_">
		
			<path fill="none" stroke="#3A54F5" stroke-width="1.75" stroke-linecap="round" stroke-linejoin="round" stroke-miterlimit="10" d="
			M140.664,345.86l-0.001-0.086l-0.002-0.086l-0.004-0.085l-0.006-0.084l-0.007-0.084l-0.009-0.083l-0.01-0.082l-0.012-0.082
			l-0.013-0.081l-0.015-0.08l-0.016-0.08l-0.018-0.079l-0.02-0.078l-0.021-0.078l-0.023-0.077l-0.024-0.076l-0.026-0.076
			l-0.027-0.075l-0.029-0.075l-0.03-0.074l-0.031-0.073l-0.033-0.073l-0.034-0.072l-0.036-0.071l-0.037-0.071l-0.039-0.07
			l-0.04-0.07l-0.042-0.069l-0.043-0.068l-0.044-0.068l-0.046-0.067l-0.047-0.067l-0.049-0.066l-0.05-0.065
			c-0.925-1.173-2.299-1.884-3.665-2.419c-2.361-0.894-4.898-1.321-7.394-1.641c-6.476-0.814-14.661-0.716-21.238-0.762
			c-6.357,0.044-14.368-0.041-20.635,0.688c-2.634,0.311-5.313,0.728-7.815,1.634c-1.446,0.543-2.91,1.267-3.888,2.5l-0.05,0.065
			l-0.049,0.066L75,343.485l-0.046,0.067l-0.044,0.068l-0.043,0.068l-0.042,0.069l-0.04,0.07l-0.039,0.07l-0.037,0.071l-0.036,0.071
			l-0.034,0.072l-0.033,0.073l-0.032,0.073l-0.03,0.074l-0.029,0.075l-0.027,0.075l-0.026,0.076l-0.024,0.076l-0.023,0.077
			l-0.021,0.078l-0.02,0.078l-0.018,0.079l-0.017,0.08l-0.015,0.08l-0.013,0.081l-0.012,0.082l-0.01,0.082l-0.009,0.083
			l-0.007,0.084l-0.006,0.084l-0.004,0.085l-0.002,0.086c-0.002,0.177-0.001,0.415,0.004,0.591
			c-0.033,0.37-0.005,12.626,0.016,12.801c0.034,0.497,0.111,0.996,0.254,1.474c0.155,0.521,0.395,1.021,0.72,1.457
			c0.335,0.453,0.759,0.838,1.225,1.152c0.655,0.442,1.395,0.758,2.144,1.006c1.128,0.37,2.328,0.599,3.502,0.773
			c7.235,0.98,17.967,0.644,25.356,0.749c7.423-0.108,18.128,0.237,25.409-0.749c1.164-0.174,2.357-0.402,3.475-0.773
			c0.74-0.248,1.472-0.563,2.118-1.006c0.46-0.314,0.877-0.7,1.205-1.152c0.305-0.419,0.534-0.895,0.684-1.39
			c0.153-0.499,0.233-1.021,0.268-1.541c0.064-0.161,0.003-12.431,0.016-12.801C140.663,346.224,140.664,346.002,140.664,345.86z"/>
	</g>
	<g id="POLYLINE_00000021815963056728145040000018027660343115096226_">
		
			<path fill="none" stroke="#3A54F5" stroke-width="1.75" stroke-linecap="round" stroke-linejoin="round" stroke-miterlimit="10" d="
			M208.372,345.86l0.001-0.086l0.002-0.086l0.004-0.085l0.006-0.084l0.007-0.084l0.009-0.083l0.01-0.082l0.012-0.082l0.013-0.081
			l0.015-0.08l0.016-0.08l0.018-0.079l0.02-0.078l0.021-0.078l0.023-0.077l0.024-0.076l0.026-0.076l0.027-0.075l0.029-0.075
			l0.03-0.074l0.031-0.073l0.033-0.073l0.034-0.072l0.036-0.071l0.037-0.071l0.039-0.07l0.04-0.07l0.042-0.069l0.043-0.068
			l0.044-0.068l0.046-0.067l0.047-0.067l0.049-0.066l0.05-0.065c0.925-1.173,2.299-1.884,3.665-2.419
			c2.361-0.894,4.898-1.321,7.394-1.641c6.476-0.814,14.661-0.716,21.238-0.762c6.357,0.044,14.368-0.041,20.635,0.688
			c2.634,0.311,5.313,0.728,7.815,1.634c1.446,0.543,2.91,1.267,3.888,2.5l0.05,0.065l0.049,0.066l0.047,0.067l0.046,0.067
			l0.044,0.068l0.043,0.068l0.042,0.069l0.04,0.07l0.039,0.07l0.037,0.071l0.036,0.071l0.034,0.072l0.033,0.073l0.032,0.073
			l0.03,0.074l0.029,0.075l0.027,0.075l0.026,0.076l0.024,0.076l0.023,0.077l0.021,0.078l0.02,0.078l0.018,0.079l0.017,0.08
			l0.015,0.08l0.013,0.081l0.012,0.082l0.01,0.082l0.009,0.083l0.007,0.084l0.006,0.084l0.004,0.085l0.002,0.086
			c0.002,0.177,0.001,0.415-0.004,0.591c0.033,0.37,0.005,12.626-0.016,12.801c-0.034,0.497-0.111,0.996-0.254,1.474
			c-0.155,0.521-0.395,1.021-0.72,1.457c-0.335,0.453-0.759,0.838-1.225,1.152c-0.655,0.442-1.395,0.758-2.144,1.006
			c-1.128,0.37-2.328,0.599-3.502,0.773c-7.235,0.98-17.967,0.644-25.356,0.749c-7.423-0.108-18.128,0.237-25.409-0.749
			c-1.164-0.174-2.357-0.402-3.475-0.773c-0.74-0.248-1.472-0.563-2.118-1.006c-0.46-0.314-0.877-0.7-1.205-1.152
			c-0.305-0.419-0.534-0.895-0.684-1.39c-0.153-0.499-0.233-1.021-0.268-1.541c-0.064-0.161-0.003-12.431-0.016-12.801
			C208.373,346.224,208.372,346.002,208.372,345.86z"/>
	</g>
	<g id="POLYLINE_00000102536167210035560820000004539014185743972504_">
		
			<path fill="none" stroke="#3A54F5" stroke-width="1.75" stroke-linecap="round" stroke-linejoin="round" stroke-miterlimit="10" d="
			M140.664,345.86l0.001-0.086l0.002-0.086l0.004-0.085l0.006-0.084l0.007-0.084l0.009-0.083l0.011-0.082l0.012-0.082l0.014-0.081
			l0.016-0.08l0.017-0.08l0.019-0.079l0.02-0.078l0.022-0.078l0.023-0.077l0.025-0.076l0.027-0.076l0.028-0.075l0.03-0.075
			l0.031-0.074l0.033-0.073l0.034-0.073l0.036-0.072l0.037-0.071l0.039-0.071l0.04-0.07l0.042-0.07l0.043-0.069l0.044-0.068
			l0.046-0.068l0.047-0.067l0.049-0.067l0.05-0.066l0.052-0.065c0.967-1.182,2.383-1.886,3.785-2.419
			c2.432-0.893,5.037-1.321,7.6-1.641c6.58-0.808,14.855-0.717,21.535-0.762c6.453,0.043,14.551-0.036,20.914,0.688
			c2.704,0.311,5.452,0.729,8.028,1.634c1.483,0.542,2.992,1.257,4.014,2.5l0.052,0.065l0.05,0.066l0.049,0.067l0.047,0.067
			l0.046,0.068l0.045,0.068l0.043,0.069l0.042,0.07l0.04,0.07l0.039,0.071l0.037,0.071l0.036,0.072l0.034,0.073l0.033,0.073
			l0.031,0.074l0.03,0.075l0.028,0.075l0.027,0.076l0.025,0.076l0.023,0.077l0.022,0.078l0.02,0.078l0.019,0.079l0.017,0.08
			l0.016,0.08l0.014,0.081l0.012,0.082l0.011,0.082l0.009,0.083l0.007,0.084l0.006,0.084l0.004,0.085l0.003,0.086
			c0.002,0.177,0.001,0.415-0.004,0.591c0.034,0.37,0.005,12.626-0.016,12.801c-0.034,0.497-0.111,0.996-0.255,1.474
			c-0.156,0.521-0.397,1.021-0.724,1.457c-0.338,0.454-0.767,0.839-1.237,1.152c-0.664,0.443-1.413,0.758-2.171,1.006
			c-1.146,0.371-2.365,0.599-3.556,0.773c-7.388,0.982-18.366,0.643-25.909,0.749c-7.579-0.109-18.53,0.239-25.964-0.749
			c-1.181-0.174-2.393-0.401-3.53-0.773c-0.749-0.247-1.49-0.562-2.145-1.006c-0.889-0.591-1.566-1.45-1.885-2.475
			c-0.159-0.494-0.245-1.012-0.284-1.528c-0.019-0.243-0.047-12.423-0.021-12.881C140.665,346.224,140.664,346.002,140.664,345.86z"
			/>
	</g>
</g>
<g id="_x32_D_x24_AG-OUTLINE">
	<g id="POLYLINE_00000181076930558134523770000015501580404780564659_">
		
			<rect x="682.331" y="171.798" fill="none" stroke="#3A54F5" stroke-width="2.35" stroke-linecap="round" stroke-linejoin="round" stroke-miterlimit="10" width="104.167" height="62.5"/>
	</g>
	<g id="POLYLINE_00000147936788536246888080000016352943294662323871_">
		
			<path fill="none" stroke="#3A54F5" stroke-width="2.35" stroke-linecap="round" stroke-linejoin="round" stroke-miterlimit="10" d="
			M927.898,192.738c-6.195-6.167-8.885-15.198-7.075-23.75c3.337-15.759,19.907-24.74,34.932-18.933
			c6.643,2.562,12.062,7.913,14.707,14.524c6.041,15.078-2.923,31.867-18.813,35.234
			C943.096,201.622,934.065,198.933,927.898,192.738z"/>
	</g>
	<g id="POLYLINE_00000132793527594177898950000017248423249929991605_">
		
			<path fill="none" stroke="#3A54F5" stroke-width="2.35" stroke-linecap="round" stroke-linejoin="round" stroke-miterlimit="10" d="
			M774.785,284.466c0,0,0.009,0,0.009,0c0,0,0-0.688,0-0.688s0-0.029,0-0.029s0-0.029,0-0.029s0.001-0.029,0.001-0.029
			c0.001-0.087,0.012-0.18,0.023-0.266c0.032-0.239,0.099-0.474,0.196-0.695c0.266-0.611,0.778-1.11,1.395-1.361
			c0.303-0.125,0.632-0.191,0.96-0.195c0.027,0,6.476,0,6.505,0c0.231,0,0.463,0.031,0.686,0.092
			c0.575,0.156,1.093,0.517,1.437,1.004c0.311,0.437,0.482,0.972,0.481,1.508c0.006,0.086-0.002,88.549-0.001,88.628
			c-0.005,0.118-0.016,0.24-0.037,0.357c-0.042,0.24-0.117,0.475-0.223,0.694c-0.252,0.521-0.683,0.954-1.205,1.205
			c-0.353,0.171-0.745,0.262-1.137,0.262c-8.17-0.144-211.716,0.275-219.561-0.149c-0.513-0.181-0.966-0.527-1.274-0.975
			c-0.282-0.408-0.445-0.898-0.46-1.394c-0.003-0.168-0.003-88.548,0-88.715c0.005-0.088,0.009-0.18,0.023-0.267
			c0.049-0.359,0.174-0.708,0.365-1.015c0.303-0.492,0.774-0.878,1.317-1.076c0.287-0.105,0.593-0.16,0.898-0.16
			c0,0,6.476,0,6.476,0c0.387,0,0.774,0.087,1.123,0.254c0.82,0.385,1.399,1.214,1.476,2.116
			c-0.013-0.009,0.015-64.204,0.005-64.218c0.002-0.111,0.008-0.225,0.021-0.335c0.024-0.207,0.067-0.413,0.129-0.612
			c0.153-0.492,0.425-0.947,0.784-1.315c0.37-0.38,0.833-0.668,1.337-0.832c0.211-0.069,0.43-0.116,0.65-0.141
			c0.098-0.011,0.199-0.018,0.298-0.02c0.015-0.006,59.856,0.002,59.891-0.001c0.892-0.004,1.776,0.376,2.388,1.025
			c0.354,0.373,0.62,0.83,0.767,1.323c0.055,0.186,0.096,0.38,0.117,0.573c0.01,0.097,0.019,0.2,0.02,0.298
			c0.046,0.082-0.025,64.798,0.007,64.881c0.061-0.672,0.335-1.322,0.773-1.835c0.439-0.518,1.042-0.894,1.7-1.06
			c0.209-0.053,0.425-0.086,0.64-0.097c-0.005-0.02,61.241,0.005,61.295-0.005c0.274,0,0.548,0.034,0.813,0.102
			c0.672,0.17,1.286,0.558,1.728,1.091c0.424,0.508,0.69,1.146,0.751,1.805c0.062-0.672,0.337-1.322,0.776-1.835
			c0.44-0.518,1.044-0.895,1.703-1.061c0.209-0.053,0.425-0.086,0.641-0.097c-0.004-0.02,59.935,0.005,59.99-0.005
			c0.293,0,0.586,0.039,0.868,0.116c0.715,0.193,1.359,0.637,1.796,1.235C774.557,283.083,774.784,283.773,774.785,284.466z"/>
	</g>
	<g id="POLYLINE_00000114761395839983932570000002233716340739104189_">
		
			<path fill="none" stroke="#3A54F5" stroke-width="2.35" stroke-linecap="round" stroke-linejoin="round" stroke-miterlimit="10" d="
			M840.738,112.388c0,0-0.142,0.135-0.142,0.135l-0.14,0.138l-0.021,0.02l-0.021,0.02c-0.047,0.047-0.103,0.094-0.155,0.137
			c-0.177,0.144-0.374,0.265-0.582,0.359c-0.627,0.284-1.368,0.302-2.008,0.05c-0.29-0.113-0.56-0.278-0.791-0.486
			c-0.155-0.146-4.861-4.827-4.918-4.946c-0.529-0.687-0.676-1.644-0.375-2.458c0.099-0.276,0.246-0.535,0.431-0.762
			c0.228-0.299,62.602-62.595,62.869-62.885c0.173-0.158,0.369-0.294,0.578-0.4c0.483-0.247,1.046-0.336,1.582-0.251
			c0.394,0.061,0.773,0.215,1.099,0.445c0.105,0.075,0.207,0.157,0.299,0.246c0.039,0.036,6.42,6.42,6.462,6.461
			c0.066,0.044,56.141,56.155,56.199,56.201c0.073,0.08,0.146,0.165,0.209,0.253c0.246,0.34,0.408,0.741,0.467,1.157
			c0.078,0.537-0.018,1.097-0.271,1.577c-0.104,0.198-0.234,0.384-0.385,0.55c-0.267,0.258-62.605,62.642-62.884,62.869
			c-0.227,0.185-0.487,0.332-0.763,0.432c-0.896,0.328-1.94,0.121-2.641-0.528c-0.028-0.029-0.058-0.051-0.084-0.08
			c0,0-4.579-4.579-4.579-4.579c-0.062-0.062-0.122-0.128-0.177-0.196c-0.199-0.244-0.354-0.525-0.453-0.824
			c-0.223-0.662-0.162-1.411,0.164-2.029c0.086-0.164,0.19-0.319,0.308-0.461c0.036-0.046,0.078-0.088,0.118-0.132
			c0.083-0.09,0.231-0.232,0.314-0.324c-0.803,0.676-1.936,0.926-2.949,0.653c-0.308-0.081-0.606-0.208-0.878-0.374
			c-0.174-0.106-0.339-0.229-0.49-0.365c-0.041-0.037-0.086-0.08-0.125-0.119c0,0-10.27-10.27-10.27-10.27
			c-1.066,1.484-4.066,5.995-5.073,7.54c-0.494,0.757-0.985,1.744-1.468,2.509c-0.208,0.314-0.437,0.633-0.754,0.846
			c-0.153,0.102-0.334,0.163-0.518,0.171c-0.322,0.015-0.635-0.095-0.929-0.215c-1.923,2.046-4.092,3.915-6.357,5.573
			c-2.101,1.572-4.438,3.043-6.738,4.31c-0.814,0.48-1.635,0.998-2.291,1.686c-0.023,0.227-0.076,0.454-0.164,0.665
			c-0.161,0.368-0.415,0.692-0.66,1.007c-0.434,0.539-0.914,1.059-1.446,1.503c-0.555,0.466-1.461,1.006-2.073,1.406
			c-0.648,0.409-1.366,1.029-1.95,1.534c-0.387,0.323-0.794,0.643-1.248,0.866c-0.412,0.203-0.867,0.325-1.328,0.331
			c-0.459,0.008-0.918-0.103-1.326-0.312c-0.503-0.259-0.957-0.64-1.25-1.128c-0.174-0.292-0.276-0.639-0.22-0.98
			c0.068-0.432,0.321-0.809,0.59-1.143c0.19-0.233,0.409-0.461,0.623-0.673c1.109-1.06,2.525-2.32,3.685-3.323
			c0.982-0.734,2.892-2.322,3.92-2.955c0.084-0.045,0.17-0.093,0.264-0.111c0.013-0.002,0.027-0.003,0.04,0.002l0,0l0,0l0,0l0,0l0,0
			l0,0l0,0l0,0l0,0l0,0l0,0l0,0l0,0l0,0l0,0l0,0l0,0l0,0l0,0l0,0l0,0l0,0l0,0l0,0l0,0l0,0l0,0l0,0l0,0l0,0l0,0l0,0l0,0l0,0l0,0l0,0
			l0,0l0,0l0,0l0,0l0,0l0,0l0,0l0,0l0,0l0,0l0,0.001v0.001v0.001v0.001v0.001v0.001v0.001l0,0.001l0,0.001
			c-0.001,0.012-0.007,0.022-0.013,0.032c1.707-1.238,3.41-2.583,4.813-4.161c2.571-2.859,4.76-6.096,6.379-9.586
			c-0.294-0.636-0.416-1.345-0.388-2.044c0.039-1.311,0.602-2.809,0.976-4.061c0.255-0.87,0.486-1.777,0.429-2.689
			c-0.058-0.878-0.387-1.729-0.889-2.448c-0.2-0.287-0.433-0.554-0.69-0.791c-0.465-0.438-1.211-0.905-1.737-1.275
			c-0.784-0.553-1.539-1.173-2.191-1.879c-0.721,0.96-1.657,1.749-2.658,2.405c-0.771,0.491-1.593,0.946-2.489,1.154
			c-0.737,0.163-1.575,0.129-2.214-0.309c-0.676-0.462-0.78-1.351-0.682-2.104c0.166-1.3,0.914-2.431,1.695-3.449
			c1.03-1.277,2.175-2.669,3.323-3.839c-0.214-0.471-0.489-0.989-0.353-1.52c0.102-0.394,0.35-0.733,0.61-1.039
			c0.667-0.761,1.502-1.366,2.342-1.921l-14.397-14.397c-0.039-0.039-0.082-0.084-0.119-0.125c-0.136-0.151-0.259-0.316-0.365-0.49
			c-0.166-0.272-0.293-0.57-0.374-0.878C839.811,114.324,840.062,113.191,840.738,112.388z"/>
	</g>
	<g id="POLYLINE_00000106827252043728612500000009118396679482081448_">
		
			<path fill="none" stroke="#3A54F5" stroke-width="2.35" stroke-linecap="round" stroke-linejoin="round" stroke-miterlimit="10" d="
			M597.915,261.168c-0.351-0.188-0.681-0.432-0.915-0.757c-0.4-0.563-0.564-1.259-0.653-1.935c-0.077-0.659-0.067-1.334,0.073-1.984
			c0.169-0.832,0.664-1.744,1.023-2.512c0.711-1.521,1.042-3.199,1.179-4.864c0.116-1.311-0.055-2.775,0.152-4.078
			c0.25-1.539,1.011-2.959,1.935-4.197c0.472-0.613,1.002-1.203,1.631-1.658c0.389-0.278,0.833-0.503,1.313-0.561
			c0.779-0.102,1.522,0.312,2.073,0.831c0.45,0.426,0.815,0.954,1.018,1.541c0.142,0.412,0.188,0.854,0.172,1.288
			c-0.016,0.465-0.098,0.934-0.191,1.389c-0.332,1.403-0.683,3.196-0.911,4.628c-0.21,1.128-0.4,2.344-0.83,3.411
			c-0.214,0.53-0.552,1.034-1.066,1.31c-0.09,2.172,0.257,4.386,0.635,6.521c0.647,0.649,1.063,1.489,1.373,2.342
			c0.821,2.343,1.291,5.307,1.779,7.754c0.403-2.327,1.062-7.186,1.644-9.409c-0.204-0.402-0.359-0.833-0.441-1.277
			c-0.093-0.493-0.095-1.002-0.052-1.5c0.103-1.226,0.561-2.98,0.822-4.195c0.37-1.538,0.767-4.418,1.013-6.008
			c0.234-1.368,0.501-2.77,1.113-4.026c0.33-0.67,0.777-1.304,1.395-1.736c0.601-0.422,1.351-0.628,2.083-0.569
			c0.641,0.049,1.263,0.314,1.737,0.749c0.417,0.381,0.725,0.868,0.963,1.376c0.347,0.749,0.554,1.561,0.66,2.378
			c0.128,0.973,0.084,1.966-0.08,2.932c-0.09,0.542-0.223,1.108-0.363,1.64c-0.401,1.515-1.438,4.786-1.883,6.324
			c-0.42,1.329-0.899,2.75-1.429,4.036c0.09,0.542,0.109,1.104,0.108,1.652c0.014,1.717-1.014,14.991-1.129,16.999
			c-0.096,1.669-0.18,3.6-0.172,5.265l0.098,7.01c1.009,2.94,1.873,6.219,2.584,9.251c0.598,2.6,3.035,13.929,3.703,16.255
			c0.35,1.336,1.064,3.734,1.289,5.066c0.208,1.098,0.202,2.232,0.015,3.332c0.813,0.918,1.684,1.819,2.64,2.588
			c0.279,0.216,0.567,0.439,0.896,0.573c0.145,0.056,0.31,0.093,0.463,0.044c0.135-0.042,0.239-0.148,0.316-0.263l0.015-0.023
			l0.015-0.024l0.015-0.024l0.014-0.025l0.014-0.026l0.014-0.027c0.146-0.292,0.224-0.618,0.288-0.937
			c0.119-0.634,0.166-1.302,0.195-1.947c0.15-3.769-0.414-8.896-0.717-12.694c-0.021-0.249-0.065-0.5-0.142-0.737
			c-0.373-1.095-1.138-2.148-1.377-3.29c-0.034-0.183-0.049-0.374,0-0.556c0.043-0.166,0.147-0.316,0.291-0.411
			c-0.796-2.691-1.765-5.695-2.747-8.322c-0.128-0.349-0.219-0.723-0.056-1.077c0.19-0.419,0.656-0.599,1.092-0.596
			c0.449,0.001,0.886,0.155,1.276,0.37c0.5,0.279,0.941,0.661,1.305,1.103c0.295,0.358,0.535,0.763,0.723,1.187
			c0.257,0.573,0.537,1.41,0.768,1.996c0.241,0.632,1.269,3.021,1.547,3.679c0.128-0.063,0.276-0.095,0.417-0.063
			c0.176,0.04,0.322,0.158,0.446,0.285c0.283,0.296,0.496,0.669,0.705,1.02c0.857,1.496,1.536,3.139,2.138,4.754
			c1.595,4.343,2.559,8.934,3.014,13.534c0.235,2.627,0.391,5.321-0.008,7.939c-0.09,0.519-0.203,1.047-0.413,1.532
			c-0.154,0.358-0.366,0.691-0.613,0.991c-0.605,0.724-1.373,1.308-2.131,1.864c-1.459,1.045-3.058,1.986-4.652,2.81
			c-1.365,0.699-2.794,1.329-4.26,1.784c-2.078,0.669-4.505,1.05-6.655,1.452c-0.334,0.792-0.821,1.526-1.456,2.108
			c-0.969,0.899-2.199,1.474-3.461,1.834c-2.471,0.707-5.158,0.604-7.577-0.257c-0.639-0.225-1.273-0.498-1.859-0.838
			c-0.363-0.213-0.72-0.456-1.007-0.766c-0.438-0.478-0.698-1.092-0.967-1.674c-2.107-0.623-4.064-1.7-5.92-2.857
			c-2.18-1.361-4.385-2.825-6.347-4.486c-1.335-1.131-2.553-2.427-3.565-3.855c-0.799-1.13-1.471-2.378-1.81-3.726
			c-0.525-2.115-0.283-4.344-0.014-6.48c0.322-2.392,0.759-4.849,1.391-7.179c0.333-1.313,0.95-2.931,1.407-4.213
			c0.355-1.026,0.669-2.094,0.696-3.186c0.035-0.945-0.19-1.996-0.214-2.94c0.001-0.153,0.009-0.31,0.053-0.458
			c0.036-0.129,0.116-0.25,0.236-0.314c0.156-0.086,0.342-0.089,0.515-0.072c-0.268-3.257-0.445-6.704-0.442-9.971
			c0.017-0.428,0.034-0.871,0.159-1.283c0.073-0.238,0.2-0.426,0.414-0.558c0.043-0.027,0.091-0.055,0.137-0.079
			c0,0,0.024-0.013,0.024-0.013s0.05-0.026,0.05-0.026l2.525-1.254c0.369-0.179,0.752-0.362,1.148-0.472
			c0.293-0.082,0.604-0.111,0.906-0.059c0.32,0.055,0.63,0.179,0.9,0.361c0.193,0.132,0.37,0.302,0.468,0.517
			c0.077,0.165,0.105,0.348,0.112,0.528c-0.009,1.066-0.556,5.06-0.529,6.107c0.011,0.22,0.041,0.447,0.149,0.642
			c0.049,0.087,0.115,0.168,0.203,0.217c0.065,0.037,0.142,0.051,0.215,0.036c0.101-0.021,0.189-0.082,0.267-0.146
			c0.524-0.471,0.848-1.17,1.358-1.654c0.076-0.067,0.159-0.133,0.258-0.159c0.089-0.024,0.179,0.006,0.244,0.071
			c0.115,0.118,0.158,0.286,0.184,0.444c0.059,0.424,0.009,0.857-0.055,1.277c-0.102,0.62-0.269,1.236-0.528,1.809
			c-0.16,0.349-0.349,0.692-0.605,0.98c-0.63,0.681-1.526,1.157-2.202,1.789c-0.517,0.483-0.856,1.139-1.035,1.819
			c0.162,0.067,0.242,0.221,0.277,0.384c0.046,0.214,0.039,0.438,0.028,0.655c-0.577,5.138-0.861,10.878-0.997,16.062
			c-0.007,0.314-0.002,0.639,0.112,0.936c0.168,0.441,0.508,0.812,0.926,1.029c0.521,0.264,1.127,0.271,1.699,0.277l1.192-0.013
			c0.85-3.185,1.869-7.12,2.464-10.337c0.555-2.808,1.838-11.466,2.306-14.418c0.635-3.847,1.446-7.844,2.644-11.553
			c-1.075-5.774-2.198-13.178-2.902-19.008c-0.219-1.938-0.585-4.623-0.693-6.547C597.677,262.164,597.723,261.644,597.915,261.168z
			"/>
	</g>
	<g id="POLYLINE_00000153698919860752850160000016880060256236015038_">
		
			<path fill="none" stroke="#3A54F5" stroke-width="2.35" stroke-linecap="round" stroke-linejoin="round" stroke-miterlimit="10" d="
			M866.701,119.075c-0.331-2.039-0.126-4.566-0.04-6.634c0.072-2.74-0.124-7.066-0.221-9.818c0.004-0.241,0.032-0.485,0.111-0.714
			c0.098-0.287,0.264-0.549,0.461-0.778c0.37-0.434,0.861-0.745,1.363-1.005c0.319-0.164,1.043-0.507,1.352-0.678
			c0.421-0.227,1.105-0.655,1.517-0.909c-0.014-0.266,0.074-0.529,0.21-0.755c0.187-0.309,0.46-0.567,0.778-0.738
			c0.198-0.106,0.417-0.169,0.638-0.205c0.412-0.068,0.886-0.07,1.292-0.175c0.715-0.172,1.706-0.654,2.392-0.941
			c1.711-0.715,3.527-1.215,5.358-1.503c1.29-0.19,2.622-0.291,3.915-0.079c1.498,0.242,2.831,1.047,4.042,1.926
			c1.189-0.479,2.436-0.926,3.733-0.931c1.497-0.013,2.922,0.581,4.234,1.249c0.92,0.493,1.846,1.047,2.542,1.838
			c0.336,0.385,0.588,0.838,0.771,1.313c0.459,1.163,0.642,2.585,0.995,3.782c0.138,0.457,0.308,0.914,0.578,1.311
			c0.417,0.634,1.133,1.095,1.732,1.544c0.476,0.364,0.941,0.761,1.305,1.24c0.335,0.442,0.582,0.957,0.694,1.502
			c0.133,0.645,0.06,1.344,0.057,1.999c-0.002,0.776,0.038,1.687-0.149,2.441c-0.186,0.786-0.568,1.514-0.981,2.202
			c0.5,0.623,0.886,1.336,1.174,2.079c0.255,0.662,0.433,1.364,0.444,2.076c0.025,1.238-0.458,2.478-0.608,3.697
			c-0.101,0.805-0.055,1.665-0.208,2.463c-0.156,0.83-0.463,1.64-0.932,2.343c-0.434,0.652-1.032,1.182-1.676,1.62
			c-0.936,0.633-2,1.136-3.023,1.614c-1.294,0.561-6.378,3.015-7.634,3.422c-0.415,0.125-0.932,0.285-1.301-0.027
			c-0.93,0.791-1.92,1.575-2.944,2.241c-2.052,2.437-4.663,5.138-6.912,7.42c-2.476,2.618-4.89,5.4-6.916,8.384
			c-0.727,1.107-3.866,5.715-4.478,6.755c-0.38,0.618-0.825,1.509-1.226,2.111c-0.198,0.289-0.416,0.579-0.714,0.772
			c-0.442,0.293-0.981,0.135-1.431-0.054c-1.923,2.046-4.092,3.915-6.357,5.573c-2.101,1.572-4.438,3.043-6.738,4.31
			c-0.814,0.48-1.635,0.998-2.291,1.686c-0.023,0.227-0.076,0.454-0.164,0.665c-0.161,0.368-0.415,0.692-0.66,1.007
			c-0.434,0.539-0.914,1.059-1.446,1.503c-0.555,0.466-1.461,1.006-2.073,1.406c-0.648,0.409-1.366,1.029-1.95,1.534
			c-0.387,0.323-0.794,0.643-1.248,0.866c-0.412,0.203-0.867,0.325-1.328,0.331c-0.459,0.008-0.918-0.103-1.326-0.312
			c-0.503-0.259-0.957-0.64-1.25-1.128c-0.174-0.292-0.276-0.639-0.22-0.98c0.068-0.432,0.321-0.809,0.59-1.143
			c0.19-0.233,0.409-0.461,0.623-0.673c1.109-1.06,2.525-2.32,3.685-3.323c0.982-0.734,2.892-2.322,3.92-2.955
			c0.084-0.045,0.17-0.093,0.264-0.111c0.013-0.002,0.027-0.003,0.04,0.002l0,0l0,0l0,0l0,0l0,0l0,0l0,0l0,0l0,0l0,0l0,0l0,0l0,0
			l0,0l0,0l0,0l0,0l0,0l0,0l0,0l0,0l0,0l0,0l0,0l0,0l0,0l0,0l0,0l0,0l0,0l0,0l0,0l0,0l0,0l0,0l0,0l0,0l0,0l0,0l0,0l0,0l0,0l0,0l0,0
			l0,0l0,0l0,0.001v0.001v0.001v0.001v0.001v0.001v0.001l0,0.001l0,0.001c-0.001,0.012-0.007,0.022-0.013,0.032
			c1.707-1.238,3.41-2.583,4.813-4.161c2.571-2.859,4.76-6.096,6.379-9.586c-0.294-0.636-0.416-1.345-0.388-2.044
			c0.039-1.311,0.602-2.809,0.976-4.061c0.255-0.87,0.486-1.777,0.429-2.689c-0.058-0.878-0.387-1.729-0.889-2.448
			c-0.2-0.287-0.433-0.554-0.69-0.791c-0.465-0.438-1.211-0.905-1.737-1.275c-0.784-0.553-1.539-1.173-2.191-1.879
			c-0.721,0.96-1.657,1.749-2.658,2.405c-0.771,0.491-1.593,0.946-2.489,1.154c-0.737,0.163-1.575,0.129-2.214-0.309
			c-0.676-0.462-0.78-1.351-0.682-2.104c0.166-1.3,0.914-2.431,1.695-3.449c1.03-1.277,2.175-2.669,3.323-3.839l-0.139-0.304
			c-0.189-0.42-0.343-0.87-0.182-1.326c0.102-0.301,0.284-0.569,0.482-0.815c0.894-1.098,2.308-1.941,3.477-2.723
			c1.285-0.86,2.424-1.956,3.492-3.068c1.887-1.98,3.702-4.175,5.344-6.364L866.701,119.075z"/>
	</g>
	<g id="POLYLINE_00000134246391027377519610000010672888447262556830_">
		
			<path fill="none" stroke="#3A54F5" stroke-width="2.35" stroke-linecap="round" stroke-linejoin="round" stroke-miterlimit="10" d="
			M74.261,283.777c0.001-0.447-0.117-0.894-0.338-1.283c-0.268-0.476-0.691-0.862-1.188-1.087c-0.337-0.153-0.708-0.234-1.078-0.234
			c-0.01,0.006-6.492-0.005-6.504,0c-0.085,0.002-0.179,0.006-0.265,0.016c-0.163,0.019-0.327,0.053-0.484,0.102
			c-0.582,0.181-1.095,0.573-1.42,1.088c-0.2,0.315-0.332,0.674-0.382,1.044c-0.011,0.098-0.023,0.197-0.023,0.296
			c-0.056,0.086,0.039,88.567,0,88.657c0.012,0.55,0.203,1.096,0.54,1.531c0.298,0.387,0.706,0.688,1.165,0.856
			c7.893,0.453,211.345,0.01,219.591,0.16c0.392,0,0.785-0.09,1.137-0.262c0.521-0.252,0.954-0.683,1.205-1.205
			c0.106-0.219,0.182-0.454,0.223-0.694c0.018-0.118,0.034-0.237,0.037-0.357c0.052-0.063-0.035-88.554,0.002-88.629
			c0.001-0.603-0.216-1.205-0.604-1.667c-0.372-0.447-0.896-0.763-1.466-0.881c-0.176-0.036-0.355-0.056-0.534-0.055
			c0,0-6.476,0-6.476,0c-0.048,0.001-0.098,0.001-0.145,0.004c-0.332,0.018-0.661,0.102-0.962,0.243
			c-0.605,0.282-1.089,0.805-1.325,1.428c-0.082,0.213-0.134,0.438-0.158,0.665c-0.024,0.273-0.011,0.673-0.022,0.952
			c-0.001-0.721-0.247-1.439-0.689-2.009c-0.435-0.565-1.057-0.981-1.745-1.168c-0.282-0.077-0.576-0.116-0.868-0.116
			c-0.24,0.007-59.792-0.011-60.002,0.005c-0.23,0.013-0.462,0.05-0.684,0.111c-0.714,0.193-1.357,0.637-1.792,1.235
			c-0.409,0.558-0.634,1.249-0.633,1.941c0.001-0.721-0.243-1.439-0.684-2.009c-0.433-0.565-1.054-0.982-1.741-1.168
			c-0.223-0.061-0.453-0.098-0.684-0.111c0.001-0.022-61.246,0.005-61.307-0.005c-0.292,0-0.586,0.039-0.868,0.116
			c-0.714,0.193-1.357,0.637-1.792,1.235c-0.409,0.558-0.634,1.249-0.633,1.941c0.016-0.039-0.011-65.134-0.001-65.177
			c-0.003-0.098-0.009-0.201-0.02-0.298c-0.024-0.207-0.067-0.413-0.129-0.612c-0.149-0.478-0.41-0.922-0.755-1.284
			c-0.612-0.649-1.495-1.029-2.388-1.025c-0.03-0.001-59.855,0-59.891,0.001c-0.098,0.002-0.201,0.009-0.298,0.02
			c-0.22,0.025-0.44,0.073-0.65,0.141c-0.504,0.164-0.968,0.452-1.337,0.832c-0.36,0.369-0.631,0.824-0.784,1.315
			c-0.062,0.198-0.106,0.405-0.129,0.612c-0.01,0.097-0.019,0.2-0.02,0.298C74.215,219.37,74.293,283.694,74.261,283.777z"/>
	</g>
	<g id="POLYLINE_00000078015989445506834960000003010624200023181462_">
		
			<path fill="none" stroke="#3A54F5" stroke-width="2.35" stroke-linecap="round" stroke-linejoin="round" stroke-miterlimit="10" d="
			M427.898,192.738c6.162,6.193,15.213,8.888,23.758,7.073c15.625-3.308,24.619-19.673,19.038-34.636
			c-2.592-6.978-8.255-12.641-15.233-15.233c-14.964-5.582-31.329,3.413-34.636,19.038
			C419.01,177.525,421.705,186.576,427.898,192.738z"/>
	</g>
	<g id="POLYLINE_00000022520693266594063530000010862919986758485174_">
		
			<path fill="none" stroke="#3A54F5" stroke-width="2.35" stroke-linecap="round" stroke-linejoin="round" stroke-miterlimit="10" d="
			M390.446,162.097l-0.135,0.142c0,0-0.138,0.14-0.138,0.14s-0.02,0.021-0.02,0.021l-0.02,0.021
			c-0.047,0.047-0.094,0.103-0.137,0.155c-0.144,0.177-0.265,0.374-0.359,0.582c-0.284,0.627-0.302,1.368-0.05,2.008
			c0.113,0.29,0.278,0.56,0.486,0.791c0.146,0.155,4.827,4.861,4.946,4.918c0.687,0.529,1.644,0.676,2.458,0.376
			c0.276-0.1,0.535-0.246,0.762-0.431c0.299-0.228,62.595-62.602,62.885-62.869c0.158-0.173,0.294-0.369,0.4-0.578
			c0.247-0.483,0.336-1.046,0.251-1.582c-0.061-0.394-0.215-0.773-0.445-1.099c-0.075-0.105-0.157-0.207-0.246-0.299
			c-0.036-0.039-6.42-6.42-6.461-6.462c-0.044-0.066-56.155-56.141-56.201-56.199c-0.08-0.073-0.165-0.146-0.253-0.209
			c-0.34-0.246-0.741-0.408-1.157-0.467c-0.537-0.078-1.097,0.018-1.577,0.271c-0.198,0.104-0.384,0.234-0.55,0.385
			c-0.258,0.267-62.642,62.605-62.869,62.884c-0.185,0.227-0.332,0.487-0.432,0.763c-0.328,0.896-0.121,1.94,0.528,2.641
			c0.029,0.028,0.052,0.058,0.08,0.084c0,0,4.579,4.579,4.579,4.579c0.062,0.062,0.128,0.122,0.196,0.177
			c0.244,0.199,0.525,0.354,0.824,0.453c0.662,0.223,1.411,0.162,2.029-0.164c0.164-0.086,0.319-0.19,0.461-0.308
			c0.046-0.036,0.088-0.078,0.132-0.118c0.089-0.083,0.232-0.231,0.324-0.313c-0.432,0.518-0.698,1.172-0.751,1.844
			c-0.056,0.677,0.105,1.369,0.453,1.952c0.11,0.186,0.24,0.361,0.384,0.522c-0.019,0.008,45.15,45.143,45.18,45.187
			c0.193,0.193,0.412,0.363,0.647,0.503c0.594,0.355,1.303,0.514,1.992,0.449C389.301,162.784,389.939,162.52,390.446,162.097z"/>
	</g>
	<g id="POLYLINE_00000162348519324087540210000018078461512981785001_">
		
			<rect x="182.331" y="171.798" fill="none" stroke="#3A54F5" stroke-width="2.35" stroke-linecap="round" stroke-linejoin="round" stroke-miterlimit="10" width="104.167" height="62.5"/>
	</g>
</g>
</svg>
