<?xml version="1.0" encoding="utf-8"?>
<!-- Generator: Adobe Illustrator 26.0.2, SVG Export Plug-In . SVG Version: 6.00 Build 0)  -->
<!DOCTYPE svg PUBLIC "-//W3C//DTD SVG 1.1//EN" "http://www.w3.org/Graphics/SVG/1.1/DTD/svg11.dtd" [
	<!ENTITY ns_flows "http://ns.adobe.com/Flows/1.0/">
	<!ENTITY ns_extend "http://ns.adobe.com/Extensibility/1.0/">
	<!ENTITY ns_ai "http://ns.adobe.com/AdobeIllustrator/10.0/">
	<!ENTITY ns_graphs "http://ns.adobe.com/Graphs/1.0/">
	<!ENTITY ns_vars "http://ns.adobe.com/Variables/1.0/">
	<!ENTITY ns_imrep "http://ns.adobe.com/ImageReplacement/1.0/">
	<!ENTITY ns_sfw "http://ns.adobe.com/SaveForWeb/1.0/">
	<!ENTITY ns_custom "http://ns.adobe.com/GenericCustomNamespace/1.0/">
	<!ENTITY ns_adobe_xpath "http://ns.adobe.com/XPath/1.0/">
]>
<svg version="1.1" xmlns:x="&ns_extend;" xmlns:i="&ns_ai;" xmlns:graph="&ns_graphs;"
	 xmlns="http://www.w3.org/2000/svg" xmlns:xlink="http://www.w3.org/1999/xlink" xmlns:a="http://ns.adobe.com/AdobeSVGViewerExtensions/3.0/"
	 x="0px" y="0px" width="1000px" height="450px" viewBox="0 0 1000 450" enable-background="new 0 0 1000 450" xml:space="preserve"
	>
<metadata>
	<sfw  xmlns="&ns_sfw;">
		<slices></slices>
		<sliceSourceBounds  bottomLeftOrigin="true" height="12900" width="3000" x="-2000" y="-6108"></sliceSourceBounds>
	</sfw>
</metadata>
<g id="FILL-BACKGROUND">
	<rect x="0" y="0" display="none" fill="#FFFFFF" width="1000" height="450"/>
</g>
<g id="_x32_D_x24_AG-DETAILS">
	<g id="POLYLINE_00000044889939187467818970000004282565458580634509_">
		
			<polyline fill="none" stroke="#3A54F5" stroke-width="1.5" stroke-linecap="round" stroke-linejoin="round" stroke-miterlimit="10" points="
			571.429,234.873 571.429,342.143 645.899,342.143 		"/>
	</g>
	<g id="POLYLINE_00000060722205132510885520000013057403565472578176_">
		
			<polyline fill="none" stroke="#3A54F5" stroke-width="1.5" stroke-linecap="round" stroke-linejoin="round" stroke-miterlimit="10" points="
			901.786,342.143 928.571,342.143 928.571,56.429 571.429,56.429 571.429,127.809 		"/>
	</g>
	<g id="POLYLINE_00000134223880860194629180000007958427991306005647_">
		
			<polyline fill="none" stroke="#3A54F5" stroke-width="1.5" stroke-linecap="round" stroke-linejoin="round" stroke-miterlimit="10" points="
			98.429,234.873 98.429,342.143 172.899,342.143 		"/>
	</g>
	<g id="POLYLINE_00000083770039408817351320000013465659145906929069_">
		
			<polyline fill="none" stroke="#3A54F5" stroke-width="1.5" stroke-linecap="round" stroke-linejoin="round" stroke-miterlimit="10" points="
			428.786,342.143 455.571,342.143 455.571,56.429 98.429,56.429 98.429,127.809 		"/>
	</g>
</g>
<g id="_x32_D_x24_AG-ANIMALS">
</g>
<g id="_x32_D_x24_AG-PEOPLE">
	<g id="POLYLINE_00000137099746941090605830000017789659719496025241_">
		
			<path fill="none" stroke="#3A54F5" stroke-width="1.75" stroke-linecap="round" stroke-linejoin="round" stroke-miterlimit="10" d="
			M608.607,185.815c0.326,0.631,0.835,1.146,1.381,1.589c0.655,0.506,1.793,1.49,2.428,2.041c0.77,0.649,1.6,1.259,2.538,1.64
			c1.021,0.427,2.14,0.568,3.24,0.586c1.243,0.021,2.513-0.094,3.743-0.271c1.378-0.2,2.76-0.508,4.076-0.966
			c1.249-0.438,2.482-0.974,3.638-1.621c0.535-0.305,1.074-0.641,1.483-1.109c0.557-0.636,0.937-1.414,1.278-2.181
			c0.431-1.008,0.773-2.071,0.93-3.158c0.087-0.637,0.114-1.297-0.031-1.928c-0.144-0.643-0.467-1.231-0.834-1.772
			c-0.383-0.558-0.859-1.169-1.146-1.78c-0.409-0.861-0.611-1.857-1.139-2.661c-0.341-0.524-0.819-0.946-1.322-1.31
			c-0.978-0.704-2.16-1.257-3.231-1.809c-1.133-0.574-2.338-1.036-3.573-1.335c-0.86-0.21-1.748-0.364-2.634-0.388
			c-0.561-0.013-1.131,0.025-1.672,0.18c-0.521,0.148-1.006,0.407-1.462,0.696l-1.129,0.734c-0.461,0.291-0.96,0.535-1.466,0.737
			l-1.519,0.591c-0.573,0.239-1.161,0.5-1.621,0.928c-0.209,0.196-0.376,0.435-0.506,0.689c-0.286,0.551-0.435,1.271-0.654,1.849
			c-0.221,0.611-0.67,1.26-1.014,1.811c-0.233,0.375-0.446,0.772-0.568,1.198c-0.157,0.532-0.198,1.094-0.198,1.647
			c0.009,1.078,0.103,2.175,0.302,3.234C608.068,184.409,608.261,185.148,608.607,185.815z"/>
	</g>
	<g id="POLYLINE_00000041993814979085471220000004777715278533670276_">
		
			<path fill="none" stroke="#3A54F5" stroke-width="1.75" stroke-linecap="round" stroke-linejoin="round" stroke-miterlimit="10" d="
			M608.119,184.525c-0.836,0.209-1.705,0.337-2.568,0.277c-1.131-0.08-2.229-0.439-3.284-0.841l-1.955-0.802
			c-0.414-0.163-0.847-0.315-1.278-0.423c-0.784-0.196-1.747-0.32-2.542-0.476c-1.162-0.236-2.412-0.546-3.47-1.091
			c-0.209-0.119-0.465-0.268-0.581-0.485l-0.003-0.007l-0.003-0.007l-0.003-0.007l-0.003-0.007l-0.003-0.007l-0.002-0.007
			l-0.002-0.007l-0.002-0.007l-0.002-0.007l-0.002-0.007l-0.002-0.007l-0.002-0.007l-0.001-0.007l-0.001-0.007l-0.001-0.007
			l-0.001-0.007l-0.001-0.007l-0.001-0.007l0-0.007l0-0.007l0-0.007l0-0.007l0-0.007l0-0.007l0.001-0.007l0.001-0.007l0.001-0.007
			l0.001-0.006l0.001-0.006l0.001-0.006l0.002-0.006l0.002-0.008l0.002-0.008l0.003-0.008l0.003-0.008l0.003-0.008l0.003-0.008
			l0.004-0.008l0.004-0.008l0.004-0.008l0.004-0.008l0.005-0.008l0.005-0.008l0.005-0.008l0.005-0.008l0.006-0.008l0.006-0.008
			l0.006-0.008l0.006-0.008l0.006-0.008c0.091-0.104,0.212-0.178,0.332-0.244c0.257-0.136,0.538-0.234,0.816-0.32
			c0.693-0.208,1.42-0.346,2.135-0.451c0.672-0.095,1.363-0.163,2.043-0.158c0.483-0.005,1.142,0.068,1.604-0.073
			c0.212-0.061,0.409-0.166,0.596-0.281c0.567-0.359,1.179-0.85,1.783-1.143c0.91-0.463,1.95-0.603,2.962-0.602
			c1.209,0.01,2.422,0.22,3.558,0.636"/>
	</g>
	<g id="POLYLINE_00000008848997453930492810000007621378362038142131_">
		
			<path fill="none" stroke="#3A54F5" stroke-width="1.75" stroke-linecap="round" stroke-linejoin="round" stroke-miterlimit="10" d="
			M614.625,190.94c-0.149,0.883-0.438,1.745-0.823,2.552c-0.34,0.701-0.757,1.382-1.315,1.931c-0.344,0.341-0.767,0.594-1.211,0.784
			c-0.523,0.224-1.095,0.421-1.595,0.694c-0.426,0.227-0.82,0.516-1.185,0.83c-1.179,1.003-2.255,2.328-3.486,3.272
			c-0.255,0.186-0.527,0.364-0.832,0.455c-0.214,0.065-0.447,0.061-0.657-0.018c-0.421-0.151-0.784-0.55-1.118-0.836
			c-1.167-1.058-2.913-1.447-3.848-2.775c-0.199-0.283-0.359-0.613-0.363-0.964c-0.004-0.365,0.15-0.71,0.306-1.033
			c0.12-0.239,0.365-0.725,0.471-0.963c0.355-0.79,0.906-2.112,1.325-2.853"/>
	</g>
	<g id="POLYLINE_00000059275688024201804070000000748163894805167786_">
		
			<path fill="none" stroke="#3A54F5" stroke-width="1.75" stroke-linecap="round" stroke-linejoin="round" stroke-miterlimit="10" d="
			M617.854,169.537c-0.398-0.888-1.184-2.682-1.566-3.576"/>
	</g>
	<g id="POLYLINE_00000050651398070647675130000011075789268595871647_">
		
			<path fill="none" stroke="#3A54F5" stroke-width="1.75" stroke-linecap="round" stroke-linejoin="round" stroke-miterlimit="10" d="
			M598.427,197.626c-0.178,0.574-0.239,1.192-0.13,1.785c0.094,0.523,0.329,1.022,0.683,1.419c0.453,0.515,1.072,0.854,1.709,1.087
			c0.829,0.3,1.712,0.449,2.592,0.469c0.72,0.014,1.45-0.062,2.14-0.276c0.633-0.195,1.228-0.509,1.779-0.874
			c1.375-0.932,2.693-2.215,4.084-3.125c1.37-0.932,2.92-1.805,4.38-2.592c2.967-1.561,6.678-3.522,9.721-4.879"/>
	</g>
	<g id="POLYLINE_00000011750350452361236650000012418777460121832087_">
		
			<path fill="none" stroke="#3A54F5" stroke-width="1.75" stroke-linecap="round" stroke-linejoin="round" stroke-miterlimit="10" d="
			M629.567,188.86c1.414,0.601,2.925,1.009,4.455,1.164c1.068,0.104,2.164,0.074,3.235,0.01c1.432-0.092,2.953-0.246,4.373-0.449
			c0.716-0.11,1.541-0.271,1.929-0.955c0.193-0.334,0.284-0.719,0.339-1.098c0.085-0.631,0.064-1.277-0.013-1.908
			c-0.054-0.417-0.131-0.839-0.267-1.238c-0.096-0.275-0.224-0.546-0.416-0.768c-0.137-0.16-0.31-0.29-0.504-0.372
			c-0.31-0.13-0.653-0.156-0.986-0.159c-0.989,0.011-2.011,0.188-3.001,0.129c-0.358-0.02-0.724-0.06-1.063-0.181
			c-0.157-0.057-0.31-0.135-0.432-0.251c-0.099-0.094-0.17-0.215-0.209-0.345c-0.086-0.289-0.032-0.603,0.075-0.879
			c0.099-0.273,0.312-0.564,0.461-0.813c0.144-0.235,0.277-0.489,0.315-0.766c0.036-0.263-0.014-0.532-0.11-0.777
			c-0.068-0.168-0.158-0.335-0.295-0.457c-0.059-0.052-0.132-0.095-0.212-0.1l-0.005,0l-0.005,0l-0.005,0l-0.005,0l-0.005,0
			l-0.005,0l-0.005,0l-0.005,0l-0.005,0l-0.005,0.001l-0.005,0.001c-0.085,0.012-0.158,0.063-0.221,0.119
			c-0.145,0.132-0.257,0.3-0.367,0.461c-0.33,0.512-0.671,1.076-1.125,1.487c-0.603,0.572-1.369,0.985-2.1,1.373"/>
	</g>
	<g id="POLYLINE_00000057149050575837059370000014048375850428780949_">
		
			<path fill="none" stroke="#3A54F5" stroke-width="1.75" stroke-linecap="round" stroke-linejoin="round" stroke-miterlimit="10" d="
			M622.963,165.758l4.437,0.22c1.047,0.056,5.419,0.435,6.546,0.53c1.43,0.101,2.933,0.16,4.362,0.091
			c1.474-0.062,3.281-0.217,4.736-0.03c0.932,0.11,1.86,0.325,2.74,0.652c0.868,0.303,1.948,0.938,2.762,1.376
			c0.531,0.273,1.089,0.544,1.691,0.601c0.233,0.019,0.476,0.014,0.697-0.07c0.093-0.037,0.183-0.093,0.241-0.177
			c0.044-0.064,0.062-0.143,0.061-0.22c-0.002-0.141-0.051-0.277-0.108-0.404c-0.119-0.262-0.287-0.505-0.455-0.738l-0.342-0.457
			c-0.082-0.116-0.172-0.234-0.222-0.368c-0.012-0.035-0.021-0.072-0.014-0.108l0-0.002l0-0.002l0-0.002l0-0.002l0-0.002
			l0.001-0.002l0.001-0.002l0.001-0.002l0.001-0.002l0.001-0.002l0.001-0.002l0.001-0.002l0.001-0.002l0.001-0.002l0.001-0.002
			l0.001-0.002l0.001-0.002l0.001-0.002l0.001-0.002l0.001-0.002l0.001-0.002l0.001-0.002l0.001-0.002l0.001-0.002l0.001-0.002
			l0.001-0.002l0.001-0.002l0.001-0.002l0.001-0.002l0.001-0.002l0.002-0.002l0.002-0.002l0.002-0.002l0.002-0.002l0.002-0.002
			l0.003-0.002l0.003-0.002l0.003-0.002l0.003-0.002l0.003-0.002l0.003-0.002l0.003-0.002l0.003-0.002l0.003-0.002l0.003-0.002
			l0.003-0.002l0.003-0.002c0.155-0.06,0.398-0.017,0.561,0.009c0.698,0.139,1.394,0.374,2.006,0.741
			c0.746,0.453,1.32,1.178,2.034,1.673c0.176,0.116,0.415,0.266,0.633,0.228c0.137-0.027,0.23-0.147,0.286-0.267
			c0.074-0.16,0.108-0.336,0.128-0.51c0.033-0.295,0.022-0.597-0.011-0.891c-0.139-1.229-0.794-2.355-1.684-3.197
			c-0.714-0.679-1.577-1.212-2.521-1.501c-0.916-0.288-1.899-0.27-2.84-0.125c-0.752,0.101-1.767,0.388-2.513,0.54
			c-0.447,0.091-0.91,0.139-1.366,0.103c-0.471-0.036-0.943-0.142-1.4-0.259c-1.334-0.366-3.003-0.885-4.344-1.227
			c-1.267-0.32-16.259-4.299-17.083-4.415"/>
	</g>
	<g id="POLYLINE_00000175323585269971159360000016533276380995876030_">
		
			<path fill="none" stroke="#3A54F5" stroke-width="1.75" stroke-linecap="round" stroke-linejoin="round" stroke-miterlimit="10" d="
			M598.194,196.848c-1.778-0.945-3.526-2.016-5.061-3.325c-0.967-0.808-1.894-1.93-2.798-2.809
			c-0.203-0.192-0.421-0.384-0.649-0.546c-0.234-0.171-0.588-0.356-0.841-0.5c-0.309-0.176-0.606-0.391-0.814-0.684
			c-0.377-0.536-0.506-1.227-0.604-1.864c-0.204-1.565-0.139-3.168,0.063-4.73c0.107-0.869,0.385-1.945,0.591-2.801
			c0.117-0.509,0.209-1.035,0.214-1.559c0.012-0.85-0.202-1.966-0.313-2.815c-0.15-1.102-0.195-2.236,0.022-3.332
			c0.18-0.947,0.498-1.87,0.921-2.735c0.388-0.789,0.867-1.543,1.46-2.195c0.36-0.397,0.775-0.749,1.222-1.043
			c0.678-0.456,1.62-0.871,2.355-1.236c1.497-0.71,2.906-1.971,4.248-2.931c0.354-0.248,0.733-0.473,1.138-0.629
			c0.773-0.288,1.67-0.456,2.473-0.648c1.502-0.324,3.046-0.606,4.586-0.63"/>
	</g>
	<g id="POLYLINE_00000104675383799377439560000004911765240395653257_">
		
			<path fill="none" stroke="#3A54F5" stroke-width="1.75" stroke-linecap="round" stroke-linejoin="round" stroke-miterlimit="10" d="
			M598.594,195.643c-1.532-1.012-2.932-2.314-4.264-3.575c-0.552-0.533-1.113-1.086-1.55-1.719
			c-0.353-0.506-0.578-1.064-0.592-1.687c-0.011-0.29,0.013-0.586,0.049-0.873c0.271-1.735,0.812-4.74,1.071-6.477"/>
	</g>
	<g id="POLYLINE_00000090979237260921866370000005168928689508506810_">
		
			<path fill="none" stroke="#3A54F5" stroke-width="1.75" stroke-linecap="round" stroke-linejoin="round" stroke-miterlimit="10" d="
			M593.528,179.807c0.279-1.88,0.536-4.815,0.701-6.738c0.076-0.733,0.17-1.508,0.311-2.231c0.206-1.076,0.54-2.14,1.054-3.111
			c0.526-1.004,1.235-1.912,2.02-2.726c0.762-0.787,1.611-1.51,2.527-2.113c0.441-0.288,0.911-0.555,1.394-0.766
			c0.633-0.285,1.459-0.513,2.124-0.722c0.627-0.195,1.243-0.451,1.783-0.829c0.911-0.609,1.736-1.485,2.719-1.982
			c0.589-0.294,1.245-0.427,1.895-0.506c1.94-0.215,4.407-0.343,6.303-0.754c1.373-0.279,2.831-0.734,4.241-0.699
			c0.384,0.021,0.795,0.083,1.103,0.332c0.193,0.159,0.318,0.386,0.392,0.622c0.213,0.675,0.099,1.46,0.054,2.154
			c-0.16,1.807,0.722,3.595,0.843,5.377c0.016,0.365,0.013,0.782-0.206,1.092c-0.169,0.234-0.452,0.349-0.729,0.397
			c-0.724,0.112-1.468-0.048-2.182-0.17c-0.886-0.174-1.985-0.438-2.881-0.463c-0.78-0.033-1.582,0.011-2.359,0.074
			c-0.952,0.083-1.924,0.215-2.855,0.436"/>
	</g>
	<g id="POLYLINE_00000119796443345488857660000001309898048408146073_">
		
			<path fill="none" stroke="#3A54F5" stroke-width="1.75" stroke-linecap="round" stroke-linejoin="round" stroke-miterlimit="10" d="
			M654.546,185.856c3.331-0.228,6.674-0.875,9.82-1.999c1.035-0.375,2.125-0.855,3.122-1.325c0.823-0.388,2.155-1.056,2.991-1.362
			c0.393-0.145,0.802-0.264,1.216-0.333c0.447-0.076,1.11-0.092,1.569-0.112c0.418-0.022,0.845-0.061,1.246-0.187
			c0.46-0.146,0.908-0.395,1.203-0.785c0.303-0.393,0.353-0.922,0.257-1.397c-0.201-1.116-1.177-1.942-1.407-3.046
			c-0.122-0.574,0.054-1.173,0.157-1.737c0.023-0.151,0.062-0.346,0-0.487l-0.002-0.004l-0.002-0.004l-0.002-0.004l-0.002-0.004
			l-0.002-0.003l-0.002-0.003l-0.002-0.003l-0.002-0.003l-0.002-0.003l-0.002-0.003l-0.002-0.003l-0.002-0.003l-0.003-0.003
			l-0.003-0.003l-0.003-0.003l-0.003-0.003l-0.003-0.003l-0.003-0.003l-0.003-0.003l-0.003-0.003l-0.003-0.003l-0.003-0.003
			l-0.003-0.002l-0.003-0.002l-0.003-0.002l-0.003-0.002l-0.003-0.002l-0.004-0.002l-0.004-0.002l-0.004-0.002l-0.004-0.002
			l-0.004-0.002l-0.004-0.002l-0.004-0.002l-0.004-0.002l-0.004-0.002l-0.004-0.002c-0.076-0.028-0.159-0.023-0.237-0.012
			c-0.176,0.028-0.346,0.094-0.51,0.163c-1.282,0.58-2.553,1.637-3.753,2.366c-0.743,0.459-1.538,0.856-2.38,1.097
			c-1.858,0.525-3.831,0.511-5.738,0.311l-1.946-0.237c-1.366-0.159-2.765-0.124-4.133,0.007c-1.555,0.154-3.134,0.421-4.64,0.84"/>
	</g>
	<g id="POLYLINE_00000069381843688143581400000015255249946377951656_">
		
			<path fill="none" stroke="#3A54F5" stroke-width="1.75" stroke-linecap="round" stroke-linejoin="round" stroke-miterlimit="10" d="
			M667.901,198.877c0.02,0.474,0.059,0.966,0.265,1.401c0.149,0.324,0.376,0.606,0.621,0.862c0.403,0.419,0.874,0.784,1.346,1.121
			c1.401,0.986,2.925,1.832,4.546,2.396c1.001,0.346,2.06,0.591,3.125,0.549c0.69-0.033,1.41-0.174,1.976-0.592
			c0.219-0.164,0.406-0.375,0.53-0.619c0.154-0.302,0.217-0.644,0.233-0.98c0.032-1.059-0.309-2.096-0.734-3.054
			c-0.555-1.215-1.335-2.33-2.246-3.305c-0.677-0.717-1.432-1.38-2.286-1.88c-0.772-0.454-1.634-0.745-2.51-0.92
			c-0.9-0.179-1.828-0.246-2.743-0.168"/>
	</g>
	<g id="POLYLINE_00000134210233308127034730000003167014806925554828_">
		
			<path fill="none" stroke="#3A54F5" stroke-width="1.75" stroke-linecap="round" stroke-linejoin="round" stroke-miterlimit="10" d="
			M669.905,181.399c0.703,0.281,1.45,0.475,2.208,0.516c0.916,0.051,1.839-0.099,2.713-0.369c1.669-0.521,3.162-1.496,4.577-2.501
			c1.404-1.002,2.783-2.201,3.439-3.839c0.268-0.666,0.442-1.403,0.317-2.121c-0.13-0.755-0.679-1.35-1.345-1.691
			c-1-0.522-2.175-0.532-3.27-0.387c-0.711,0.094-1.435,0.26-2.129,0.442c-0.963,0.251-1.914,0.6-2.77,1.113
			c-0.816,0.485-1.556,1.098-2.235,1.758c-0.352,0.355-0.798,0.796-1.031,1.235"/>
	</g>
	<g id="POLYLINE_00000136405522500029892460000008853292424680501179_">
		
			<line fill="none" stroke="#3A54F5" stroke-width="1.75" stroke-linecap="round" stroke-linejoin="round" stroke-miterlimit="10" x1="650.979" y1="180.207" x2="632.633" y2="177.847"/>
	</g>
	<g id="POLYLINE_00000145052640862860553090000016264317410441364127_">
		
			<path fill="none" stroke="#3A54F5" stroke-width="1.75" stroke-linecap="round" stroke-linejoin="round" stroke-miterlimit="10" d="
			M634.357,194.893c2.054-0.564,4.193-0.883,6.314-1.062"/>
	</g>
	<g id="POLYLINE_00000152949600478405581630000003111865627915323284_">
		
			<path fill="none" stroke="#3A54F5" stroke-width="1.75" stroke-linecap="round" stroke-linejoin="round" stroke-miterlimit="10" d="
			M649.184,194.159c1.866,0.397,3.783,1.077,5.669,1.378c1.813,0.331,4.352,0.264,6.207,0.299c1.106,0.038,2.26,0.059,3.301,0.473
			c0.383,0.153,0.746,0.362,1.082,0.6c0.931,0.686,1.886,1.457,2.748,2.229c0.796,0.713,1.631,1.6,2.577,2.107
			c0.402,0.214,0.849,0.369,1.308,0.371c1.906-0.016,2.968-2.545,2.799-4.195c-0.035-0.362-0.132-0.72-0.302-1.042
			c-0.225-0.431-0.565-0.796-0.945-1.095c-1.52-1.185-3.586-1.447-5.313-2.211c-1.684-0.733-3.201-2.112-4.746-3.084
			c-2.002-1.287-4.21-2.285-6.424-3.147c-1.229-0.453-5.486-2.123-6.699-2.496"/>
	</g>
	<g id="POLYLINE_00000127756875789942145540000006670482336092540311_">
		
			<path fill="none" stroke="#3A54F5" stroke-width="1.75" stroke-linecap="round" stroke-linejoin="round" stroke-miterlimit="10" d="
			M609.812,199.195c1.707,0.087,3.753,0.186,5.428,0.402c4.347,0.528,11.901,2.131,16.26,2.759c0.49,0.055,0.995,0.102,1.482,0.012
			c0.333-0.061,0.651-0.219,0.878-0.474c0.367-0.408,0.542-0.952,0.635-1.484c0.218-1.226-0.127-2.55-0.218-3.773
			c-0.109-1.171,0.225-2.424,0.36-3.581"/>
	</g>
	<g id="POLYLINE_00000048474449310890660850000013109737223264441250_">
		
			<line fill="none" stroke="#3A54F5" stroke-width="1.75" stroke-linecap="round" stroke-linejoin="round" stroke-miterlimit="10" x1="632.519" y1="178.729" x2="634.09" y2="166.518"/>
	</g>
	<g id="POLYLINE_00000006705117920610792620000014848615772240624005_">
		
			<polyline fill="none" stroke="#3A54F5" stroke-width="1.75" stroke-linecap="round" stroke-linejoin="round" stroke-miterlimit="10" points="
			652.644,167.265 649.086,194.913 630.74,192.553 631.141,189.435 		"/>
	</g>
	<g id="POLYLINE_00000064322944097423849600000004182693193673016197_">
		
			<path fill="none" stroke="#3A54F5" stroke-width="1.75" stroke-linecap="round" stroke-linejoin="round" stroke-miterlimit="10" d="
			M679.038,299.591c-0.276-0.974-0.501-1.981-0.589-2.991c-0.096-1.078-0.013-2.287-0.003-3.371
			c0.004-0.545-0.016-1.105-0.094-1.645c-0.18-1.267-0.658-2.706-1.005-3.94c-0.211-0.674-0.434-1.368-0.817-1.967
			c-0.175-0.269-0.397-0.521-0.689-0.665c-0.245-0.124-0.52-0.176-0.791-0.2c-0.601-0.042-1.277-0.018-1.868-0.145
			c-1.037-0.198-2.042-0.625-2.851-1.311c-0.525-0.417-1.079-0.982-1.747-1.153c-0.162-0.038-0.338-0.04-0.493,0.028
			c-0.268,0.122-0.413,0.402-0.519,0.662c-0.3,0.808-0.358,1.691-0.41,2.544c-0.219,4.738,0.852,10.116,1.141,14.844
			c0.031,0.789,0.041,1.6-0.127,2.375c-0.101,0.481-0.293,1.026-0.429,1.499c-0.139,0.48-0.262,1.011-0.365,1.501
			c-0.326,1.597-0.577,3.294-0.757,4.913c-0.021,0.195-0.028,0.396-0.027,0.592c0,0.779,0.182,1.746,0.274,2.518
			c0.071,0.573,0.081,1.283,0.21,1.848c0.071,0.313,0.191,0.618,0.378,0.879c0.251,0.353,0.594,0.632,0.956,0.864
			c0.571,0.362,1.208,0.624,1.845,0.845c1.109,0.381,2.295,0.644,3.443,0.881l6.022,1.093c0.248,0.035,4.974,1.084,5.381,1.172"/>
	</g>
	<g id="POLYLINE_00000124852901313890972080000003241709388127221128_">
		
			<path fill="none" stroke="#3A54F5" stroke-width="1.75" stroke-linecap="round" stroke-linejoin="round" stroke-miterlimit="10" d="
			M702.414,321.032c3.717-0.194,8.303-0.908,11.993-1.481c1.538-0.276,3.098-0.622,4.567-1.161c0.835-0.311,1.662-0.687,2.383-1.216
			c0.556-0.408,1.029-0.931,1.368-1.532c0.426-0.749,0.643-1.601,0.743-2.452c0.136-1.259,0.109-2.551-0.139-3.794
			c-0.181-0.869-0.483-1.738-1.033-2.446l-0.268-0.337c-0.246-0.316-0.483-0.696-0.697-1.036c-1.065-1.713-2.431-4.211-3.699-5.749
			c-0.529-0.628-1.14-1.225-1.899-1.562c-0.429-0.193-0.901-0.27-1.368-0.284c-0.985-0.045-2.064,0.153-3.039,0.297"/>
	</g>
	<g id="POLYLINE_00000133526648256891568590000009385101527460393860_">
		
			<path fill="none" stroke="#3A54F5" stroke-width="1.75" stroke-linecap="round" stroke-linejoin="round" stroke-miterlimit="10" d="
			M700.158,323.352c1.153-0.769,2.074-1.861,2.699-3.094c1.024-2.047,1.353-4.381,1.474-6.644c0.085-1.93-0.236-3.87-0.75-5.726
			c-0.508-1.769-1.277-3.556-2.705-4.777c-0.654-0.574-1.409-1.037-2.2-1.398c-0.679-0.311-1.397-0.558-2.137-0.672
			c-0.851-0.133-1.725-0.123-2.583-0.074c-1.096,0.071-2.201,0.22-3.265,0.497c-0.467,0.124-0.937,0.277-1.374,0.485
			c-0.483,0.216-1.008,0.58-1.466,0.845c-0.364,0.218-0.762,0.382-1.18,0.463l-0.7,0.137c-0.481,0.098-0.94,0.258-1.281,0.628
			c-0.292,0.308-0.496,0.689-0.663,1.076c-0.323,0.766-0.525,1.605-0.712,2.414c-0.411,1.864-0.626,3.793-0.507,5.702
			c0.111,1.717,0.498,3.418,1.045,5.047c0.311,0.907,0.673,1.842,1.096,2.703c0.301,0.603,0.648,1.197,1.094,1.706
			c0.367,0.421,0.813,0.781,1.326,1.007c1.305,0.574,2.903,0.502,4.286,0.746c1.243,0.203,2.716,0.523,3.972,0.435
			C697.232,324.758,698.82,324.242,700.158,323.352z"/>
	</g>
	<g id="POLYLINE_00000058588212160481712850000011839835687053467821_">
		
			<path fill="none" stroke="#3A54F5" stroke-width="1.75" stroke-linecap="round" stroke-linejoin="round" stroke-miterlimit="10" d="
			M701.553,303.785c-0.176-0.78-0.475-1.536-0.864-2.234c-0.467-0.847-1.147-1.602-2.032-2.018c-0.75-0.358-1.582-0.518-2.405-0.602
			c-1.27-0.119-2.563-0.059-3.827,0.094c-0.915,0.118-1.837,0.302-2.697,0.642c-0.548,0.219-1.08,0.509-1.509,0.918
			c-0.726,0.689-1.092,1.661-1.314,2.617"/>
	</g>
	<g id="POLYLINE_00000083805921558370093430000003938929287235920522_">
		
			<path fill="none" stroke="#3A54F5" stroke-width="1.75" stroke-linecap="round" stroke-linejoin="round" stroke-miterlimit="10" d="
			M711.569,299.855c-0.379-2.378-0.738-4.97-0.868-7.368c-0.257-4.719-0.13-11.064-0.133-15.828c0.16-1.394,0.282-2.856,0.26-4.257
			c-0.037-2.42-0.219-4.927-0.557-7.323c-0.125-0.777-0.244-1.598-0.675-2.273c-0.259-0.404-0.643-0.715-1.065-0.936
			c-1.4-0.717-3.045-0.689-4.567-0.484c-1.3,0.156-2.881,0.576-4.191,0.607l-0.735-0.002c-0.264,0.003-0.532,0.028-0.786,0.103
			c-0.427,0.126-0.819,0.352-1.183,0.604c-0.858,0.606-1.61,1.414-1.985,2.408c-0.255,0.672-0.397,1.394-0.406,2.113
			c0,0.453,0.054,0.92,0.254,1.331c0.178,0.366,0.477,0.658,0.793,0.908c0.501,0.387,1.087,0.77,1.536,1.218
			c0.451,0.438,0.844,0.958,1.044,1.56c0.148,0.445,0.181,0.922,0.16,1.389c-0.036,0.738-0.204,1.474-0.385,2.189l-0.944,3.433
			c-0.921,3.379-1.184,7.302-1.969,10.713c-0.165,0.677-0.354,1.365-0.643,2.001c-0.185,0.388-0.422,0.83-0.812,1.041
			c-0.239,0.127-0.524,0.112-0.762-0.008c-0.409-0.204-0.661-0.616-0.85-1.017c-0.437-0.974-0.638-2.082-0.855-3.124
			c-0.824-4.272-1.728-10.069-3.03-14.165c-0.64-2.076-1.771-4.859-2.109-6.993c-0.222-1.236-0.255-2.638-0.545-3.861
			c-0.064-0.24-0.149-0.478-0.278-0.691c-0.161-0.272-0.408-0.489-0.696-0.619c-0.541-0.241-1.156-0.275-1.739-0.326
			c-1.839-0.108-3.744-0.246-5.576-0.014c-0.477,0.073-0.963,0.182-1.387,0.421c-0.304,0.168-0.558,0.423-0.698,0.743
			c-0.163,0.359-0.225,0.757-0.274,1.146c-0.26,2.584,0.049,7.191,0.083,9.83"/>
	</g>
	<g id="POLYLINE_00000173869185615297905850000016968648514247280791_">
		
			<path fill="none" stroke="#3A54F5" stroke-width="1.75" stroke-linecap="round" stroke-linejoin="round" stroke-miterlimit="10" d="
			M714.399,303.184l-2.213-2.621c-0.874-0.975-1.759-2.084-2.793-2.886c-1.436-1.088-3.153-1.761-4.906-2.138
			c-2.566-0.553-5.251-0.521-7.863-0.45c-2.473,0.125-7.182,0.06-9.566,0.564c-2.046,0.401-3.996,1.249-5.773,2.328
			c-1.047,0.642-2.057,1.384-2.943,2.236c-0.563,0.54-1.073,1.151-1.545,1.772"/>
	</g>
	<g id="POLYLINE_00000166675170217682092230000018156877673643367819_">
		
			<path fill="none" stroke="#3A54F5" stroke-width="1.75" stroke-linecap="round" stroke-linejoin="round" stroke-miterlimit="10" d="
			M715.354,298.134c-0.391-0.757-0.905-1.743-1.232-2.517c-0.242-0.549-0.506-1.321-0.706-1.894
			c-0.37-1.075-0.832-2.144-1.531-3.049c-0.371-0.484-0.796-0.941-1.306-1.282"/>
	</g>
	<g id="POLYLINE_00000057118345916419169330000013590469986189702066_">
		
			<path fill="none" stroke="#3A54F5" stroke-width="1.75" stroke-linecap="round" stroke-linejoin="round" stroke-miterlimit="10" d="
			M669.05,282.391c0.494-1.48,1.093-3.011,1.712-4.443c0.38-0.835,0.821-1.659,1.384-2.385c0.329-0.418,0.711-0.811,1.18-1.07
			c0.275-0.151,0.583-0.249,0.898-0.262c0.758-0.025,1.477,0.312,2.101,0.714c0.431,0.284,0.832,0.62,1.18,1.003
			c0.41,0.449,0.736,0.994,0.844,1.599c0.115,0.632,0.027,1.288-0.157,1.899c-0.115,0.369-0.27,0.731-0.484,1.054
			c-0.153,0.231-0.347,0.436-0.55,0.624c-0.399,0.366-0.862,0.74-1.076,1.25c-0.022,0.062-0.043,0.133-0.021,0.198l0.001,0.002
			l0.001,0.002l0.001,0.002l0.001,0.002l0.001,0.002l0.001,0.002l0.001,0.002l0.001,0.002l0.001,0.002l0.001,0.002l0.001,0.002
			l0.001,0.002l0.001,0.002l0.001,0.002l0.001,0.002l0.001,0.002l0.001,0.002l0.001,0.002l0.001,0.002l0.001,0.002l0.001,0.002
			l0.002,0.002l0.001,0.001l0.002,0.001l0.002,0.001l0.002,0.001l0.002,0.001l0.002,0.001l0.002,0.002l0.002,0.002l0.002,0.002
			l0.002,0.002l0.002,0.001l0.002,0.001l0.003,0.001l0.003,0.001l0.003,0.001l0.003,0.001l0.003,0.001l0.003,0.001l0.003,0.001
			c0.111,0.04,0.263,0.012,0.379-0.001c0.336-0.043,0.71-0.138,1.043-0.039c0.16,0.052,0.297,0.167,0.375,0.316
			c0.06,0.113,0.087,0.247,0.061,0.374c-0.02,0.101-0.081,0.188-0.155,0.258c-0.263,0.235-0.625,0.352-0.904,0.566
			c-0.365,0.272-0.606,0.678-0.836,1.063"/>
	</g>
	<g id="POLYLINE_00000048474627515984279700000006704686433683248807_">
		
			<path fill="none" stroke="#3A54F5" stroke-width="1.75" stroke-linecap="round" stroke-linejoin="round" stroke-miterlimit="10" d="
			M684.411,262.453c0.199-2.344-0.077-4.726-0.461-7.039c-0.117-0.633-0.268-1.274-0.467-1.887
			c-0.141-0.423-0.341-0.839-0.657-1.159c-0.394-0.41-0.944-0.625-1.493-0.734c-0.843-0.166-1.72-0.17-2.57-0.058
			c-0.772,0.11-1.65,0.336-2.063,1.062c-0.26,0.45-0.346,0.977-0.409,1.487c-0.077,0.676-0.085,1.387-0.08,2.067
			c0.047,1.485,0.117,4.73,0.199,6.184"/>
	</g>
	<g id="POLYLINE_00000048502391329923475380000007817988029494536064_">
		
			<path fill="none" stroke="#3A54F5" stroke-width="1.75" stroke-linecap="round" stroke-linejoin="round" stroke-miterlimit="10" d="
			M702.206,261.672c0.132-1.389,0.024-5.194,0.023-6.646c-0.006-0.343-0.018-0.701-0.063-1.04c-0.048-0.358-0.131-0.721-0.31-1.038
			c-0.243-0.434-0.662-0.739-1.106-0.947c-0.566-0.26-1.178-0.426-1.793-0.522c-0.685-0.1-1.403-0.107-2.065,0.116
			c-0.587,0.196-1.098,0.594-1.446,1.104c-0.415,0.599-0.607,1.32-0.72,2.032c-0.089,0.571-0.129,1.166-0.148,1.742
			c-0.051,1.655,0.06,4.393,0.08,6.071c0.037,1.035,0.102,2.186,0.217,3.213"/>
	</g>
</g>
<g id="_x32_D_x24_AG-FURNITURE">
	<g id="POLYLINE_00000024698516945621546090000014058654796320513981_">
		
			<line fill="none" stroke="#3A54F5" stroke-width="1.75" stroke-linecap="round" stroke-linejoin="round" stroke-miterlimit="10" x1="697.209" y1="270.627" x2="686.852" y2="270.627"/>
	</g>
	<g id="POLYLINE_00000172417084587654735920000006625056102919562676_">
		
			<path fill="none" stroke="#3A54F5" stroke-width="1.75" stroke-linecap="round" stroke-linejoin="round" stroke-miterlimit="10" d="
			M888.433,274.39c0.001-0.81-0.269-1.619-0.758-2.265c-0.487-0.648-1.189-1.131-1.968-1.353c-0.336-0.096-0.688-0.146-1.037-0.146
			c-0.21,0.006-68.368-0.01-68.558,0.005c-0.28,0.015-0.563,0.061-0.832,0.138c-0.792,0.223-1.506,0.715-1.995,1.377
			c-0.479,0.642-0.743,1.442-0.742,2.243c0.006-1.768-1.257-3.325-2.989-3.682c-0.211-0.044-0.429-0.071-0.644-0.078
			c-0.365-0.003-69.794-0.007-70.153,0.001c-0.369,0.016-0.738,0.088-1.087,0.212c-0.741,0.261-1.396,0.761-1.841,1.408
			c-0.432,0.623-0.669,1.381-0.667,2.139c0.009-1.261-0.667-2.496-1.734-3.169c-0.327-0.21-0.69-0.369-1.066-0.469
			c-0.25-0.066-0.511-0.107-0.769-0.12c-0.057-0.003-0.137-0.005-0.195-0.005c0,0-20.622,0-20.622,0"/>
	</g>
	<g id="POLYLINE_00000062908739293789933120000016185717631167920044_">
		
			<path fill="none" stroke="#3A54F5" stroke-width="1.75" stroke-linecap="round" stroke-linejoin="round" stroke-miterlimit="10" d="
			M674.886,270.627h-11.851c-0.128,0-0.266,0.007-0.393,0.021c-0.172,0.018-0.35,0.049-0.517,0.091
			c-0.36,0.09-0.71,0.235-1.028,0.426c-1.119,0.661-1.834,1.926-1.825,3.225"/>
	</g>
	<g id="POLYLINE_00000059994707779878776000000006612449525448024487_">
		
			<path fill="none" stroke="#3A54F5" stroke-width="1.75" stroke-linecap="round" stroke-linejoin="round" stroke-miterlimit="10" d="
			M642.912,194.119v23.638c0,0.067-0.002,0.143-0.006,0.21c-0.008,0.143-0.025,0.29-0.049,0.431c-0.052,0.3-0.141,0.595-0.263,0.874
			c-0.207,0.47-0.512,0.898-0.889,1.247c-0.351,0.325-0.766,0.583-1.214,0.754c-0.321,0.123-0.661,0.201-1.004,0.232
			c-0.082,0.007-0.172,0.013-0.255,0.014c-0.116,0.008-68.421-0.004-68.533,0.001"/>
	</g>
	<g id="POLYLINE_00000000940359681103201400000017189521221412980134_">
		
			<path fill="none" stroke="#3A54F5" stroke-width="1.75" stroke-linecap="round" stroke-linejoin="round" stroke-miterlimit="10" d="
			M570.7,141.162h68.449c0.097,0,0.199,0.004,0.295,0.012c0.311,0.024,0.62,0.088,0.915,0.188c0.451,0.153,0.874,0.394,1.236,0.704
			c0.392,0.335,0.714,0.752,0.939,1.216c0.179,0.369,0.298,0.769,0.349,1.176c0.016,0.126,0.025,0.257,0.028,0.384
			c0.01,0.077-0.005,18.032,0.001,18.116"/>
	</g>
	<g id="POLYLINE_00000168096300761312966080000008951053526383171203_">
		
			<path fill="none" stroke="#3A54F5" stroke-width="1.75" stroke-linecap="round" stroke-linejoin="round" stroke-miterlimit="10" d="
			M888.433,359.006c0.003-0.133-0.006-85.413,0.003-85.535c0.007-0.16,0.027-0.322,0.06-0.478c0.065-0.311,0.181-0.614,0.342-0.889
			c0.386-0.667,1.042-1.171,1.787-1.372c0.233-0.064,0.476-0.099,0.718-0.104c0,0,0.033-0.001,0.033-0.001s0.033,0,0.033,0h7.401
			c0.325,0,0.65,0.054,0.958,0.158c0.588,0.199,1.11,0.588,1.469,1.095c0.277,0.389,0.458,0.846,0.522,1.319
			c0.015,0.112,0.024,0.225,0.027,0.338c0.005,0.079-0.001,101.236,0,101.323c-0.01,0.464-0.131,0.925-0.349,1.334
			c-0.367,0.694-1.02,1.229-1.773,1.451c-0.146,0.043-0.298,0.078-0.45,0.098c-0.054,0.007-0.116,0.014-0.17,0.018
			c-0.076,0.003-0.157,0.011-0.234,0.009c0,0-10.377,0-10.377,0V359.006z"/>
	</g>
	<g id="POLYLINE_00000175321519455762183520000001218258916996635793_">
		
			<line fill="none" stroke="#3A54F5" stroke-width="1.75" stroke-linecap="round" stroke-linejoin="round" stroke-miterlimit="10" x1="888.433" y1="377.77" x2="659.251" y2="377.77"/>
	</g>
	<g id="POLYLINE_00000044166000063200060270000013223034205288277660_">
		
			<path fill="none" stroke="#3A54F5" stroke-width="1.75" stroke-linecap="round" stroke-linejoin="round" stroke-miterlimit="10" d="
			M659.251,377.77c0,0-10.376,0-10.376,0c-0.076-0.002-0.157-0.002-0.234-0.009c-0.209-0.017-0.419-0.055-0.62-0.116
			c-0.802-0.237-1.488-0.827-1.84-1.585c-0.143-0.303-0.234-0.631-0.267-0.965c-0.058-0.164,0.009-101.323-0.015-101.558
			c0.011-0.514,0.159-1.025,0.424-1.466c0.494-0.835,1.416-1.392,2.385-1.44c0.262,0.009,7.983-0.052,8.074,0.039
			c0.563,0.097,1.096,0.36,1.514,0.748c0.415,0.383,0.718,0.888,0.859,1.435C659.433,287.202,659.157,365.193,659.251,377.77z"/>
	</g>
	<g id="POLYLINE_00000101825260473083429990000014267509941718954914_">
		
			<line fill="none" stroke="#3A54F5" stroke-width="1.75" stroke-linecap="round" stroke-linejoin="round" stroke-miterlimit="10" x1="812.543" y1="274.39" x2="812.543" y2="344.554"/>
	</g>
	<g id="POLYLINE_00000121257672919561926460000018342052007201416082_">
		
			<line fill="none" stroke="#3A54F5" stroke-width="1.75" stroke-linecap="round" stroke-linejoin="round" stroke-miterlimit="10" x1="735.162" y1="274.39" x2="735.162" y2="344.554"/>
	</g>
	<g id="POLYLINE_00000116205196800149940170000007661020826535675028_">
		
			<path fill="none" stroke="#3A54F5" stroke-width="1.75" stroke-linecap="round" stroke-linejoin="round" stroke-miterlimit="10" d="
			M812.543,344.554l0.001-0.099l0.003-0.098l0.005-0.097l0.006-0.096l0.008-0.096l0.01-0.095l0.012-0.094l0.014-0.093l0.015-0.093
			l0.017-0.092l0.019-0.091l0.021-0.09l0.022-0.09l0.024-0.089l0.026-0.088l0.027-0.087l0.029-0.087l0.031-0.086l0.033-0.085
			l0.034-0.085l0.036-0.084l0.038-0.083l0.039-0.082l0.041-0.082l0.043-0.081l0.044-0.08l0.046-0.08l0.047-0.079l0.049-0.078
			l0.051-0.078l0.052-0.077l0.054-0.076l0.056-0.076l0.057-0.075c1.057-1.34,2.627-2.154,4.189-2.765
			c2.698-1.022,5.598-1.51,8.45-1.876c7.401-0.93,16.755-0.818,24.272-0.87c7.542,0.055,16.861-0.06,24.294,0.87
			c2.857,0.366,5.762,0.854,8.465,1.876c1.565,0.611,3.138,1.424,4.198,2.765l0.057,0.075l0.056,0.076l0.054,0.076l0.052,0.077
			l0.051,0.078l0.049,0.078l0.048,0.079l0.046,0.08l0.044,0.08l0.043,0.081l0.041,0.082l0.039,0.082l0.038,0.083l0.036,0.084
			l0.034,0.085l0.033,0.085l0.031,0.086l0.029,0.087l0.028,0.087l0.026,0.088l0.024,0.089l0.022,0.09l0.021,0.09l0.019,0.091
			l0.017,0.092l0.015,0.093l0.014,0.093l0.012,0.094l0.01,0.095l0.008,0.096l0.006,0.096l0.005,0.097l0.003,0.098
			c0.002,0.203,0.001,0.474-0.005,0.676c0.001,0.421,0.033,14.435-0.019,14.63c-0.039,0.568-0.127,1.138-0.291,1.684
			c-0.177,0.595-0.451,1.167-0.823,1.666c-0.383,0.517-0.868,0.957-1.4,1.316c-0.749,0.505-1.595,0.866-2.45,1.149
			c-1.289,0.423-2.661,0.684-4.002,0.884c-8.269,1.12-20.534,0.736-28.978,0.856c-8.484-0.123-20.718,0.27-29.038-0.856
			c-1.33-0.199-2.694-0.46-3.972-0.884c-0.846-0.283-1.683-0.644-2.421-1.149c-0.504-0.345-0.965-0.765-1.332-1.255
			c-0.356-0.472-0.624-1.011-0.804-1.574c-0.181-0.564-0.279-1.156-0.324-1.746c-0.022-0.277-0.053-14.198-0.024-14.721
			C812.544,344.97,812.543,344.717,812.543,344.554z"/>
	</g>
	<g id="POLYLINE_00000011021885727293986530000004771203142455326628_">
		
			<path fill="none" stroke="#3A54F5" stroke-width="1.75" stroke-linecap="round" stroke-linejoin="round" stroke-miterlimit="10" d="
			M735.162,344.554l-0.001-0.099l-0.003-0.098l-0.005-0.097l-0.006-0.096l-0.008-0.096l-0.01-0.095l-0.012-0.094l-0.014-0.093
			l-0.015-0.093l-0.017-0.092l-0.019-0.091l-0.021-0.09l-0.022-0.09l-0.024-0.089l-0.026-0.088l-0.027-0.087l-0.029-0.087
			l-0.031-0.086l-0.033-0.085l-0.034-0.085l-0.036-0.084l-0.038-0.083l-0.039-0.082l-0.041-0.082l-0.043-0.081l-0.044-0.08
			l-0.046-0.08l-0.047-0.079l-0.049-0.078l-0.051-0.078l-0.052-0.077l-0.054-0.076l-0.056-0.076l-0.057-0.075
			c-1.057-1.34-2.627-2.154-4.189-2.765c-2.698-1.022-5.598-1.51-8.45-1.876c-7.401-0.93-16.755-0.818-24.272-0.87
			c-7.542,0.055-16.861-0.06-24.294,0.87c-2.857,0.366-5.762,0.854-8.465,1.876c-1.565,0.611-3.138,1.424-4.198,2.765l-0.057,0.075
			l-0.056,0.076l-0.054,0.076l-0.052,0.077l-0.051,0.078l-0.049,0.078l-0.048,0.079l-0.046,0.08l-0.044,0.08l-0.043,0.081
			l-0.041,0.082l-0.039,0.082l-0.038,0.083l-0.036,0.084l-0.034,0.085l-0.033,0.085l-0.031,0.086l-0.029,0.087l-0.028,0.087
			l-0.026,0.088l-0.024,0.089l-0.022,0.09l-0.021,0.09l-0.019,0.091l-0.017,0.092l-0.015,0.093l-0.014,0.093l-0.012,0.094
			l-0.01,0.095l-0.008,0.096l-0.006,0.096l-0.005,0.097l-0.003,0.098c-0.002,0.203-0.001,0.474,0.005,0.676
			c-0.001,0.421-0.033,14.435,0.019,14.63c0.039,0.568,0.127,1.138,0.291,1.684c0.177,0.595,0.451,1.167,0.823,1.666
			c0.383,0.517,0.868,0.957,1.4,1.316c0.749,0.505,1.595,0.866,2.45,1.149c1.289,0.423,2.661,0.684,4.002,0.884
			c8.269,1.12,20.534,0.736,28.978,0.856c8.484-0.123,20.718,0.27,29.038-0.856c1.33-0.199,2.694-0.46,3.972-0.884
			c0.846-0.283,1.683-0.644,2.421-1.149c0.504-0.345,0.965-0.765,1.332-1.255c0.356-0.472,0.624-1.011,0.804-1.574
			c0.181-0.564,0.279-1.156,0.324-1.746c0.022-0.277,0.053-14.198,0.024-14.721C735.161,344.97,735.162,344.717,735.162,344.554z"/>
	</g>
	<g id="POLYLINE_00000008869518363308786300000008795405384876494208_">
		
			<path fill="none" stroke="#3A54F5" stroke-width="1.75" stroke-linecap="round" stroke-linejoin="round" stroke-miterlimit="10" d="
			M812.543,344.554l-0.001-0.099l-0.003-0.098l-0.005-0.097l-0.007-0.096l-0.008-0.096l-0.01-0.095l-0.012-0.094l-0.014-0.093
			l-0.016-0.093l-0.018-0.092l-0.02-0.091l-0.021-0.09l-0.023-0.09l-0.025-0.089l-0.027-0.088l-0.029-0.087l-0.03-0.087
			l-0.032-0.086l-0.034-0.085l-0.036-0.085l-0.037-0.084l-0.039-0.083l-0.041-0.082l-0.042-0.082l-0.044-0.081l-0.046-0.08
			l-0.047-0.08l-0.049-0.079l-0.051-0.078l-0.053-0.078l-0.054-0.077l-0.056-0.076l-0.057-0.076l-0.059-0.075
			c-1.105-1.351-2.724-2.155-4.326-2.765c-2.779-1.021-5.757-1.509-8.685-1.876c-7.52-0.924-16.977-0.82-24.611-0.87
			c-7.658,0.053-17.081-0.054-24.631,0.87c-2.933,0.366-5.915,0.855-8.699,1.876c-1.605,0.61-3.227,1.414-4.334,2.765l-0.059,0.075
			l-0.057,0.076l-0.056,0.076l-0.054,0.077l-0.053,0.078l-0.051,0.078l-0.049,0.079l-0.048,0.08l-0.046,0.08l-0.044,0.081
			l-0.042,0.082l-0.041,0.082l-0.039,0.083l-0.037,0.084l-0.036,0.085l-0.034,0.085l-0.032,0.086l-0.03,0.087l-0.029,0.087
			l-0.027,0.088l-0.025,0.089l-0.023,0.09l-0.021,0.09l-0.02,0.091l-0.018,0.092l-0.016,0.093l-0.014,0.093l-0.012,0.094
			l-0.01,0.095l-0.008,0.096l-0.007,0.096l-0.005,0.097l-0.003,0.098c-0.002,0.203-0.001,0.474,0.005,0.676
			c-0.001,0.421-0.033,14.434,0.019,14.63c0.039,0.568,0.127,1.138,0.292,1.684c0.178,0.596,0.454,1.167,0.828,1.666
			c0.387,0.519,0.876,0.958,1.414,1.316c0.759,0.507,1.615,0.867,2.481,1.149c1.31,0.424,2.702,0.684,4.064,0.884
			c8.443,1.123,20.99,0.735,29.611,0.856c8.662-0.124,21.177,0.273,29.674-0.856c1.35-0.199,2.735-0.459,4.034-0.884
			c0.856-0.282,1.703-0.642,2.451-1.149c0.509-0.344,0.974-0.764,1.345-1.255c0.358-0.472,0.629-1.011,0.809-1.574
			c0.182-0.564,0.28-1.156,0.325-1.746c0.022-0.277,0.054-14.197,0.024-14.721C812.542,344.97,812.543,344.717,812.543,344.554z"/>
	</g>
	<g id="POLYLINE_00000067951594732494847910000015353254507698475176_">
		
			<path fill="none" stroke="#3A54F5" stroke-width="1.75" stroke-linecap="round" stroke-linejoin="round" stroke-miterlimit="10" d="
			M633.994,309.317c0.023-9.988-5.109-19.472-13.484-24.916c-15.304-9.953-35.79-3.999-43.375,12.606
			c-3.545,7.741-3.545,16.879,0,24.62c7.585,16.605,28.072,22.559,43.375,12.606C628.885,328.789,634.018,319.305,633.994,309.317z"
			/>
	</g>
	<g id="POLYLINE_00000015318957981422098830000011754029148074522535_">
		
			<rect x="702.424" y="145.627" fill="none" stroke="#3A54F5" stroke-width="1.75" stroke-linecap="round" stroke-linejoin="round" stroke-miterlimit="10" width="142.857" height="71.429"/>
	</g>
	<g id="POLYLINE_00000022525003673919475290000007106970236594364841_">
		
			<path fill="none" stroke="#3A54F5" stroke-width="1.75" stroke-linecap="round" stroke-linejoin="round" stroke-miterlimit="10" d="
			M568.985,141.162l0.099,0.001l0.098,0.003l0.097,0.005l0.096,0.007l0.096,0.009l0.095,0.011l0.094,0.013l0.093,0.015l0.093,0.017
			l0.092,0.019l0.091,0.021l0.09,0.023l0.09,0.025l0.089,0.027l0.088,0.028l0.087,0.03l0.087,0.032l0.086,0.034l0.085,0.036
			l0.085,0.038l0.084,0.04l0.083,0.042l0.082,0.043l0.082,0.045l0.081,0.047l0.08,0.049l0.08,0.051l0.079,0.052l0.078,0.054
			l0.078,0.056l0.077,0.058l0.076,0.059l0.075,0.061l0.075,0.063c1.369,1.194,2.157,2.902,2.765,4.58
			c1.019,2.929,1.508,6.051,1.876,9.121c0.909,7.722,0.823,17.404,0.87,25.238c-0.048,7.888,0.036,17.569-0.87,25.353
			c-0.368,3.096-0.857,6.245-1.876,9.201c-0.608,1.693-1.393,3.416-2.765,4.627l-0.075,0.063l-0.075,0.062l-0.076,0.06l-0.077,0.058
			l-0.078,0.056l-0.078,0.055l-0.079,0.053l-0.08,0.051l-0.08,0.049l-0.081,0.047l-0.082,0.046l-0.082,0.044l-0.083,0.042
			l-0.084,0.04l-0.085,0.038l-0.085,0.036l-0.086,0.034l-0.087,0.033l-0.087,0.031l-0.088,0.029l-0.089,0.027l-0.09,0.025
			l-0.09,0.023l-0.091,0.021l-0.092,0.019l-0.093,0.017l-0.093,0.015l-0.094,0.013l-0.095,0.011l-0.096,0.009l-0.096,0.007
			l-0.097,0.005l-0.098,0.003c-0.203,0.002-0.474,0.001-0.676-0.005c0,0-0.135,0.004-0.135,0.004
			c-0.04-0.001-0.094,0.004-0.132,0.002c0,0-13.607,0-13.607,0l-0.193-0.002c-0.179-0.004-0.384-0.01-0.562-0.023
			c-0.568-0.039-1.139-0.128-1.684-0.294c-0.597-0.18-1.169-0.46-1.666-0.839c-0.521-0.395-0.96-0.895-1.316-1.442
			c-0.51-0.781-0.868-1.659-1.149-2.546c-0.426-1.354-0.685-2.791-0.884-4.196c-1.306-9.968-0.665-31.572-0.84-41.872
			c0.06-5.814,0.051-12.222,0.608-17.998c0.198-1.887,0.459-3.825,0.982-5.653c0.299-1.028,0.689-2.052,1.283-2.948
			c0.343-0.517,0.762-0.991,1.255-1.369c0.47-0.362,1.01-0.637,1.574-0.819c0.564-0.183,1.156-0.282,1.746-0.327
			c0.278-0.021,14.197-0.055,14.721-0.025C568.569,141.163,568.822,141.162,568.985,141.162z"/>
	</g>
	<g id="POLYLINE_00000095308385163837737780000004615786760464490928_">
		
			<line fill="none" stroke="#3A54F5" stroke-width="1.75" stroke-linecap="round" stroke-linejoin="round" stroke-miterlimit="10" x1="549.988" y1="141.162" x2="535.769" y2="141.162"/>
	</g>
	<g id="POLYLINE_00000125580664768479530910000001979760835680842934_">
		
			<line fill="none" stroke="#3A54F5" stroke-width="1.75" stroke-linecap="round" stroke-linejoin="round" stroke-miterlimit="10" x1="549.988" y1="221.52" x2="535.769" y2="221.52"/>
	</g>
	<g id="POLYLINE_00000063601946762636903420000001106431827474480794_">
		
			<path fill="none" stroke="#3A54F5" stroke-width="1.75" stroke-linecap="round" stroke-linejoin="round" stroke-miterlimit="10" d="
			M549.988,221.52c0.133,0.003,89.958-0.006,90.08,0.003c0.184,0.008,0.369,0.034,0.548,0.076c0.336,0.079,0.66,0.217,0.949,0.406
			c0.704,0.456,1.196,1.223,1.315,2.053c0.017,0.121,0.029,0.249,0.032,0.372c0,0,0.001,0.033,0.001,0.033l0,0.033v7.401l0,0.033
			c0,0-0.001,0.033-0.001,0.033c-0.006,0.254-0.044,0.509-0.114,0.753c-0.233,0.828-0.844,1.538-1.629,1.89
			c-0.294,0.133-0.61,0.219-0.931,0.252c-0.267,0.203-101.249-0.114-101.558,0.015c-0.501-0.011-1-0.152-1.433-0.405
			c-0.474-0.276-0.87-0.686-1.127-1.171c-0.17-0.32-0.282-0.671-0.327-1.031c-0.052-2.77-0.011-85.232-0.023-91.104
			c0.006-0.03-0.005-10.382,0-10.41c0.002-0.111,0.008-0.227,0.023-0.337c0.043-0.347,0.149-0.687,0.309-0.997
			c0.205-0.397,0.501-0.747,0.859-1.014c0.318-0.238,0.685-0.413,1.07-0.508c0.169-0.041,0.342-0.069,0.515-0.08
			c0.337-0.101,101.184,0.053,101.556-0.002c0.367,0.021,0.732,0.11,1.066,0.263c0.785,0.353,1.397,1.062,1.629,1.89
			c0.067,0.234,0.105,0.477,0.113,0.72c0.003,0.027,0,0.072,0.002,0.099c0,0,0,7.401,0,7.401c-0.002,0.067-0.001,0.134-0.007,0.2
			c-0.006,0.08-0.013,0.16-0.026,0.238c-0.12,0.831-0.611,1.597-1.315,2.053c-0.289,0.189-0.612,0.327-0.949,0.406
			c-0.179,0.042-0.364,0.067-0.547,0.076c-0.058-0.095-89.994,0.075-90.08,0.003"/>
	</g>
	<g id="POLYLINE_00000112610972235766968680000014347498263791117984_">
		
			<path fill="none" stroke="#3A54F5" stroke-width="1.75" stroke-linecap="round" stroke-linejoin="round" stroke-miterlimit="10" d="
			M633.984,89.207c0.023,9.988-5.109,19.472-13.484,24.916c-15.304,9.953-35.79,3.999-43.375-12.606
			c-3.545-7.741-3.545-16.879,0-24.62c7.585-16.605,28.072-22.559,43.375-12.606C628.875,69.735,634.007,79.219,633.984,89.207z"/>
	</g>
	<g id="POLYLINE_00000067946743162544140100000011198280883303244424_">
		
			<path fill="none" stroke="#3A54F5" stroke-width="1.75" stroke-linecap="round" stroke-linejoin="round" stroke-miterlimit="10" d="
			M415.433,359.006c0.003-0.133-0.006-85.413,0.003-85.535c0.007-0.16,0.028-0.322,0.06-0.478c0.065-0.311,0.181-0.614,0.342-0.889
			c0.386-0.667,1.042-1.171,1.787-1.372c0.233-0.064,0.476-0.099,0.718-0.104c0,0,0.033-0.001,0.033-0.001l0.033,0
			c0,0,7.401,0,7.401,0c0.325,0,0.65,0.054,0.958,0.158c0.588,0.199,1.11,0.588,1.469,1.095c0.277,0.389,0.458,0.846,0.522,1.319
			c0.015,0.112,0.024,0.225,0.027,0.338c0.005,0.079-0.001,101.236,0,101.323c-0.01,0.464-0.131,0.925-0.349,1.334
			c-0.367,0.694-1.02,1.229-1.773,1.451c-0.146,0.043-0.298,0.078-0.45,0.098c-0.054,0.007-0.116,0.014-0.17,0.018
			c-0.076,0.003-0.157,0.011-0.234,0.009c0,0-10.377,0-10.377,0V359.006z"/>
	</g>
	<g id="POLYLINE_00000108999211830015101680000016871337718999163788_">
		
			<line fill="none" stroke="#3A54F5" stroke-width="1.75" stroke-linecap="round" stroke-linejoin="round" stroke-miterlimit="10" x1="415.433" y1="377.77" x2="186.251" y2="377.77"/>
	</g>
	<g id="POLYLINE_00000008139882740007073920000010062643895033921437_">
		
			<path fill="none" stroke="#3A54F5" stroke-width="1.75" stroke-linecap="round" stroke-linejoin="round" stroke-miterlimit="10" d="
			M186.251,377.77c0,0-10.376,0-10.376,0c-0.076-0.002-0.158-0.002-0.234-0.009c-0.209-0.017-0.419-0.055-0.62-0.116
			c-0.802-0.237-1.488-0.827-1.84-1.585c-0.143-0.303-0.234-0.631-0.267-0.965c-0.058-0.164,0.009-101.323-0.015-101.558
			c0.011-0.514,0.159-1.025,0.424-1.466c0.494-0.835,1.416-1.392,2.385-1.44c0.262,0.009,7.983-0.052,8.074,0.039
			c0.563,0.097,1.096,0.36,1.514,0.748c0.415,0.383,0.718,0.888,0.859,1.435C186.433,287.202,186.157,365.193,186.251,377.77z"/>
	</g>
	<g id="POLYLINE_00000065069294862196069910000018433912561873836962_">
		
			<line fill="none" stroke="#3A54F5" stroke-width="1.75" stroke-linecap="round" stroke-linejoin="round" stroke-miterlimit="10" x1="339.543" y1="274.39" x2="339.543" y2="344.554"/>
	</g>
	<g id="POLYLINE_00000134962141110740703490000008186090533895844284_">
		
			<line fill="none" stroke="#3A54F5" stroke-width="1.75" stroke-linecap="round" stroke-linejoin="round" stroke-miterlimit="10" x1="262.162" y1="274.39" x2="262.162" y2="344.554"/>
	</g>
	<g id="POLYLINE_00000023239918766822824790000005541633904032838022_">
		
			<path fill="none" stroke="#3A54F5" stroke-width="1.75" stroke-linecap="round" stroke-linejoin="round" stroke-miterlimit="10" d="
			M339.543,344.554l0.001-0.099l0.003-0.098l0.005-0.097l0.006-0.096l0.008-0.096l0.01-0.095l0.012-0.094l0.014-0.093l0.015-0.093
			l0.017-0.092l0.019-0.091l0.021-0.09l0.022-0.09l0.024-0.089l0.026-0.088l0.028-0.087l0.029-0.087l0.031-0.086l0.033-0.085
			l0.034-0.085l0.036-0.084l0.038-0.083l0.039-0.082l0.041-0.082l0.043-0.081l0.044-0.08l0.046-0.08l0.048-0.079l0.049-0.078
			l0.051-0.078l0.052-0.077l0.054-0.076l0.055-0.076l0.057-0.075c1.057-1.34,2.627-2.154,4.189-2.765
			c2.698-1.022,5.598-1.51,8.45-1.876c7.401-0.93,16.755-0.818,24.272-0.87c7.542,0.055,16.861-0.06,24.294,0.87
			c2.857,0.366,5.762,0.854,8.465,1.876c1.565,0.611,3.138,1.424,4.198,2.765l0.057,0.075l0.056,0.076l0.054,0.076l0.052,0.077
			l0.051,0.078l0.049,0.078l0.048,0.079l0.046,0.08l0.044,0.08l0.043,0.081l0.041,0.082l0.039,0.082l0.038,0.083l0.036,0.084
			l0.034,0.085l0.033,0.085l0.031,0.086l0.029,0.087l0.028,0.087l0.026,0.088l0.024,0.089l0.022,0.09l0.021,0.09l0.019,0.091
			l0.017,0.092l0.015,0.093l0.014,0.093l0.012,0.094l0.01,0.095l0.008,0.096l0.006,0.096l0.005,0.097l0.003,0.098
			c0.002,0.203,0.001,0.474-0.005,0.676c0.001,0.421,0.033,14.435-0.019,14.63c-0.039,0.568-0.127,1.138-0.291,1.684
			c-0.177,0.595-0.451,1.167-0.823,1.666c-0.383,0.517-0.868,0.957-1.4,1.316c-0.749,0.505-1.595,0.866-2.45,1.149
			c-1.289,0.423-2.661,0.684-4.002,0.884c-8.269,1.12-20.534,0.736-28.978,0.856c-8.484-0.123-20.718,0.27-29.038-0.856
			c-1.33-0.199-2.694-0.46-3.972-0.884c-0.846-0.283-1.683-0.644-2.421-1.149c-0.504-0.345-0.965-0.765-1.332-1.255
			c-0.356-0.472-0.624-1.011-0.804-1.574c-0.181-0.564-0.279-1.156-0.324-1.746c-0.022-0.277-0.053-14.198-0.024-14.721
			C339.544,344.97,339.543,344.717,339.543,344.554z"/>
	</g>
	<g id="POLYLINE_00000013894905053718093140000009744973474368403646_">
		
			<path fill="none" stroke="#3A54F5" stroke-width="1.75" stroke-linecap="round" stroke-linejoin="round" stroke-miterlimit="10" d="
			M262.162,344.554l-0.001-0.099l-0.003-0.098l-0.005-0.097l-0.006-0.096l-0.008-0.096l-0.01-0.095l-0.012-0.094l-0.014-0.093
			l-0.015-0.093l-0.017-0.092l-0.019-0.091l-0.021-0.09l-0.022-0.09l-0.024-0.089l-0.026-0.088l-0.028-0.087l-0.029-0.087
			l-0.031-0.086l-0.033-0.085l-0.034-0.085l-0.036-0.084l-0.038-0.083l-0.039-0.082l-0.041-0.082l-0.043-0.081l-0.044-0.08
			l-0.046-0.08l-0.047-0.079l-0.049-0.078l-0.051-0.078l-0.052-0.077l-0.054-0.076l-0.055-0.076l-0.057-0.075
			c-1.057-1.34-2.627-2.154-4.189-2.765c-2.698-1.022-5.598-1.51-8.45-1.876c-7.401-0.93-16.755-0.818-24.272-0.87
			c-7.542,0.055-16.861-0.06-24.294,0.87c-2.857,0.366-5.762,0.854-8.465,1.876c-1.565,0.611-3.138,1.424-4.198,2.765l-0.057,0.075
			l-0.056,0.076l-0.054,0.076l-0.052,0.077l-0.051,0.078l-0.049,0.078l-0.048,0.079l-0.046,0.08l-0.044,0.08l-0.043,0.081
			l-0.041,0.082l-0.039,0.082l-0.038,0.083l-0.036,0.084l-0.034,0.085l-0.033,0.085l-0.031,0.086l-0.029,0.087l-0.028,0.087
			l-0.026,0.088l-0.024,0.089l-0.022,0.09l-0.021,0.09l-0.019,0.091l-0.017,0.092l-0.015,0.093l-0.014,0.093l-0.012,0.094
			l-0.01,0.095l-0.008,0.096l-0.006,0.096l-0.005,0.097l-0.003,0.098c-0.002,0.203-0.001,0.474,0.005,0.676
			c-0.001,0.421-0.033,14.435,0.019,14.63c0.039,0.568,0.127,1.138,0.291,1.684c0.177,0.595,0.451,1.167,0.823,1.666
			c0.383,0.517,0.868,0.957,1.4,1.316c0.749,0.505,1.595,0.866,2.45,1.149c1.289,0.423,2.661,0.684,4.002,0.884
			c8.269,1.12,20.534,0.736,28.978,0.856c8.484-0.123,20.718,0.27,29.038-0.856c1.33-0.199,2.694-0.46,3.972-0.884
			c0.846-0.283,1.683-0.644,2.421-1.149c0.504-0.345,0.965-0.765,1.332-1.255c0.356-0.472,0.624-1.011,0.804-1.574
			c0.181-0.564,0.279-1.156,0.324-1.746c0.022-0.277,0.053-14.198,0.024-14.721C262.161,344.97,262.162,344.717,262.162,344.554z"/>
	</g>
	<g id="POLYLINE_00000070100833137003014390000009046769609414327472_">
		
			<path fill="none" stroke="#3A54F5" stroke-width="1.75" stroke-linecap="round" stroke-linejoin="round" stroke-miterlimit="10" d="
			M339.543,344.554l-0.001-0.099l-0.003-0.098l-0.005-0.097l-0.007-0.096l-0.008-0.096l-0.01-0.095l-0.012-0.094l-0.014-0.093
			l-0.016-0.093l-0.018-0.092l-0.02-0.091l-0.021-0.09l-0.023-0.09l-0.025-0.089l-0.027-0.088l-0.029-0.087l-0.03-0.087
			l-0.032-0.086l-0.034-0.085l-0.036-0.085l-0.037-0.084l-0.039-0.083l-0.041-0.082l-0.042-0.082l-0.044-0.081l-0.046-0.08
			l-0.048-0.08l-0.049-0.079l-0.051-0.078l-0.053-0.078l-0.054-0.077l-0.056-0.076l-0.057-0.076l-0.059-0.075
			c-1.105-1.351-2.724-2.155-4.326-2.765c-2.779-1.021-5.757-1.509-8.685-1.876c-7.52-0.924-16.977-0.82-24.611-0.87
			c-7.658,0.053-17.081-0.054-24.631,0.87c-2.933,0.366-5.915,0.855-8.699,1.876c-1.605,0.61-3.227,1.414-4.334,2.765l-0.059,0.075
			l-0.058,0.076l-0.056,0.076l-0.054,0.077l-0.053,0.078l-0.051,0.078l-0.049,0.079l-0.048,0.08l-0.046,0.08l-0.044,0.081
			l-0.043,0.082l-0.041,0.082l-0.039,0.083l-0.037,0.084l-0.036,0.085l-0.034,0.085l-0.032,0.086l-0.03,0.087l-0.029,0.087
			l-0.027,0.088l-0.025,0.089l-0.023,0.09l-0.021,0.09l-0.02,0.091l-0.018,0.092l-0.016,0.093l-0.014,0.093l-0.012,0.094
			l-0.01,0.095l-0.009,0.096l-0.007,0.096l-0.005,0.097l-0.003,0.098c-0.002,0.203-0.001,0.474,0.005,0.676
			c-0.001,0.421-0.033,14.434,0.019,14.63c0.039,0.568,0.127,1.138,0.292,1.684c0.178,0.596,0.454,1.167,0.828,1.666
			c0.387,0.519,0.876,0.958,1.414,1.316c0.759,0.507,1.615,0.867,2.481,1.149c1.31,0.424,2.702,0.684,4.064,0.884
			c8.443,1.123,20.99,0.735,29.611,0.856c8.662-0.124,21.177,0.273,29.674-0.856c1.35-0.199,2.735-0.459,4.034-0.884
			c0.856-0.282,1.703-0.642,2.451-1.149c0.509-0.344,0.974-0.764,1.345-1.255c0.358-0.472,0.629-1.011,0.809-1.574
			c0.182-0.564,0.28-1.156,0.325-1.746c0.022-0.277,0.054-14.197,0.024-14.721C339.542,344.97,339.543,344.717,339.543,344.554z"/>
	</g>
	<g id="POLYLINE_00000147196748113327777710000001557594909960851626_">
		
			<path fill="none" stroke="#3A54F5" stroke-width="1.75" stroke-linecap="round" stroke-linejoin="round" stroke-miterlimit="10" d="
			M415.433,274.39c0.001-0.81-0.269-1.619-0.758-2.265c-0.486-0.648-1.189-1.131-1.968-1.353c-0.336-0.096-0.688-0.146-1.037-0.146
			c-0.21,0.006-68.368-0.01-68.558,0.005c-0.28,0.015-0.563,0.061-0.832,0.138c-0.792,0.223-1.506,0.715-1.995,1.377
			c-0.479,0.642-0.743,1.442-0.742,2.243c0.006-1.768-1.257-3.325-2.989-3.682c-0.211-0.044-0.429-0.071-0.644-0.078
			c-0.365-0.003-69.794-0.007-70.153,0.001c-0.369,0.016-0.738,0.088-1.087,0.212c-0.741,0.261-1.396,0.761-1.841,1.408
			c-0.432,0.623-0.669,1.381-0.667,2.139c0.002-0.823-0.277-1.644-0.781-2.295c-0.488-0.636-1.184-1.108-1.956-1.325
			c-0.27-0.076-0.552-0.123-0.831-0.138c0.004-0.023-68.495,0.006-68.558-0.005c-0.349,0-0.702,0.05-1.038,0.146
			c-0.8,0.228-1.52,0.731-2.007,1.405c-0.464,0.637-0.72,1.424-0.719,2.212"/>
	</g>
	<g id="POLYLINE_00000141449455988382376900000009062728702032148626_">
		
			<path fill="none" stroke="#3A54F5" stroke-width="1.75" stroke-linecap="round" stroke-linejoin="round" stroke-miterlimit="10" d="
			M160.994,309.317c0.023-9.988-5.109-19.472-13.484-24.916c-15.304-9.953-35.79-3.999-43.375,12.606
			c-3.545,7.741-3.545,16.879,0,24.62c7.585,16.605,28.072,22.559,43.375,12.606C155.885,328.789,161.018,319.305,160.994,309.317z"
			/>
	</g>
	<g id="POLYLINE_00000085939240172232838740000001536943872654849699_">
		
			<rect x="229.424" y="145.627" fill="none" stroke="#3A54F5" stroke-width="1.75" stroke-linecap="round" stroke-linejoin="round" stroke-miterlimit="10" width="142.857" height="71.429"/>
	</g>
	<g id="POLYLINE_00000096758847381997427280000016109545152342961030_">
		
			<path fill="none" stroke="#3A54F5" stroke-width="1.75" stroke-linecap="round" stroke-linejoin="round" stroke-miterlimit="10" d="
			M95.985,141.162l0.099,0.001l0.098,0.003l0.097,0.005l0.096,0.007l0.096,0.009l0.095,0.011l0.094,0.013l0.093,0.015l0.093,0.017
			l0.092,0.019l0.091,0.021l0.09,0.023l0.09,0.025l0.089,0.027l0.088,0.028l0.087,0.03l0.087,0.032l0.086,0.034l0.085,0.036
			l0.085,0.038l0.084,0.04l0.083,0.042l0.082,0.043l0.082,0.045l0.081,0.047l0.08,0.049l0.08,0.051l0.079,0.052l0.078,0.054
			l0.078,0.056l0.077,0.058l0.076,0.059l0.075,0.061l0.075,0.063c1.369,1.194,2.157,2.902,2.765,4.58
			c1.019,2.929,1.508,6.051,1.876,9.121c0.909,7.722,0.823,17.404,0.87,25.238c-0.048,7.888,0.036,17.569-0.87,25.353
			c-0.368,3.096-0.857,6.245-1.876,9.201c-0.608,1.693-1.393,3.416-2.765,4.627l-0.075,0.063l-0.075,0.062l-0.076,0.06l-0.077,0.058
			l-0.078,0.056l-0.078,0.055l-0.079,0.053l-0.08,0.051l-0.08,0.049l-0.081,0.047l-0.082,0.046l-0.082,0.044l-0.083,0.042
			l-0.084,0.04l-0.085,0.038l-0.085,0.036l-0.086,0.034l-0.087,0.033l-0.087,0.031l-0.088,0.029l-0.089,0.027l-0.09,0.025
			l-0.09,0.023l-0.091,0.021l-0.092,0.019l-0.093,0.017l-0.093,0.015l-0.094,0.013l-0.095,0.011l-0.096,0.009l-0.096,0.007
			l-0.097,0.005l-0.098,0.003c-0.203,0.002-0.474,0.001-0.676-0.005l-0.135,0.004c-0.04-0.001-0.094,0.004-0.132,0.002
			c0,0-13.607,0-13.607,0s-0.193-0.002-0.193-0.002c-0.179-0.004-0.384-0.01-0.562-0.023c-0.568-0.039-1.139-0.128-1.684-0.294
			c-0.597-0.18-1.169-0.46-1.666-0.839c-0.521-0.395-0.96-0.895-1.316-1.442c-0.51-0.781-0.868-1.659-1.149-2.546
			c-0.426-1.354-0.685-2.791-0.884-4.196c-1.306-9.968-0.665-31.572-0.84-41.872c0.06-5.814,0.051-12.222,0.608-17.998
			c0.198-1.887,0.459-3.825,0.982-5.653c0.299-1.028,0.689-2.052,1.283-2.948c0.343-0.517,0.762-0.991,1.255-1.369
			c0.47-0.362,1.01-0.637,1.574-0.819c0.564-0.183,1.156-0.282,1.746-0.327c0.278-0.021,14.197-0.055,14.721-0.025
			C95.569,141.163,95.822,141.162,95.985,141.162z"/>
	</g>
	<g id="POLYLINE_00000178165057491626949580000018255801821639507090_">
		
			<line fill="none" stroke="#3A54F5" stroke-width="1.75" stroke-linecap="round" stroke-linejoin="round" stroke-miterlimit="10" x1="76.988" y1="141.162" x2="62.769" y2="141.162"/>
	</g>
	<g id="POLYLINE_00000078727201672179518010000006929644198980124301_">
		
			<line fill="none" stroke="#3A54F5" stroke-width="1.75" stroke-linecap="round" stroke-linejoin="round" stroke-miterlimit="10" x1="76.988" y1="221.52" x2="62.769" y2="221.52"/>
	</g>
	<g id="POLYLINE_00000154401707818657826460000010683724101028527512_">
		
			<path fill="none" stroke="#3A54F5" stroke-width="1.75" stroke-linecap="round" stroke-linejoin="round" stroke-miterlimit="10" d="
			M76.988,221.52c0.133,0.003,89.958-0.006,90.08,0.003c0.184,0.008,0.369,0.034,0.548,0.076c0.336,0.079,0.66,0.217,0.949,0.406
			c0.704,0.456,1.196,1.223,1.315,2.053c0.018,0.121,0.029,0.249,0.032,0.372c0,0,0.001,0.033,0.001,0.033s0,0.033,0,0.033v7.401
			c0,0,0,0.033,0,0.033s-0.001,0.033-0.001,0.033c-0.006,0.254-0.044,0.509-0.114,0.753c-0.233,0.828-0.844,1.538-1.629,1.89
			c-0.294,0.133-0.61,0.219-0.931,0.252c-0.267,0.203-101.249-0.114-101.558,0.015c-0.501-0.011-1-0.152-1.433-0.405
			c-0.474-0.276-0.87-0.686-1.127-1.171c-0.17-0.32-0.282-0.671-0.327-1.031c-0.052-2.77-0.011-85.232-0.023-91.104
			c0.006-0.03-0.005-10.382,0-10.41c0.002-0.111,0.008-0.227,0.023-0.337c0.043-0.347,0.149-0.687,0.309-0.997
			c0.205-0.397,0.501-0.747,0.859-1.014c0.318-0.238,0.685-0.413,1.07-0.508c0.169-0.041,0.342-0.069,0.515-0.08
			c0.337-0.101,101.184,0.053,101.556-0.002c0.367,0.021,0.732,0.11,1.066,0.263c0.785,0.353,1.397,1.062,1.629,1.89
			c0.067,0.234,0.105,0.477,0.113,0.72c0.003,0.027,0,0.072,0.002,0.099c0,0,0,7.401,0,7.401c-0.002,0.067-0.001,0.134-0.007,0.2
			c-0.006,0.08-0.013,0.16-0.026,0.238c-0.12,0.831-0.611,1.597-1.315,2.053c-0.289,0.189-0.612,0.327-0.949,0.406
			c-0.179,0.042-0.364,0.067-0.547,0.076c-0.058-0.095-89.994,0.075-90.08,0.003"/>
	</g>
	<g id="POLYLINE_00000167390594950212236270000001292015625879851454_">
		
			<path fill="none" stroke="#3A54F5" stroke-width="1.75" stroke-linecap="round" stroke-linejoin="round" stroke-miterlimit="10" d="
			M97.7,141.162c0.022-0.011,68.467,0.008,68.491,0c0.141,0.002,0.286,0.011,0.426,0.029c0.237,0.03,0.473,0.082,0.7,0.156
			c0.545,0.177,1.049,0.482,1.459,0.882c0.423,0.412,0.747,0.925,0.937,1.484c0.082,0.241,0.139,0.491,0.171,0.743
			c0.017,0.141,0.027,0.284,0.029,0.426c0.003-0.015-0.002,72.87,0,72.873c0.004,1.003-0.416,1.998-1.137,2.695
			c-0.41,0.4-0.914,0.705-1.459,0.882c-0.227,0.074-0.463,0.127-0.7,0.156c-0.14,0.017-0.285,0.028-0.426,0.029
			c-0.036,0.035-68.451-0.025-68.491,0"/>
	</g>
	<g id="POLYLINE_00000011749844766680788620000015232988261942852255_">
		
			<path fill="none" stroke="#3A54F5" stroke-width="1.75" stroke-linecap="round" stroke-linejoin="round" stroke-miterlimit="10" d="
			M160.984,89.207c0.023,9.988-5.109,19.472-13.484,24.916c-15.304,9.953-35.79,3.999-43.375-12.606
			c-3.545-7.741-3.545-16.879,0-24.62c7.585-16.605,28.072-22.559,43.375-12.606C155.875,69.735,161.007,79.219,160.984,89.207z"/>
	</g>
</g>
<g id="_x32_D_x24_AG-OUTLINE">
	<g id="POLYLINE_00000024724165011180359610000000523495350674710176_">
		
			<path fill="none" stroke="#3A54F5" stroke-width="2.35" stroke-linecap="round" stroke-linejoin="round" stroke-miterlimit="10" d="
			M633.994,309.317c0.021-10.129-5.237-19.701-13.796-25.117c-15.56-9.838-36.115-3.448-43.357,13.477
			c-3.155,7.367-3.155,15.914,0,23.281c7.242,16.925,27.797,23.314,43.357,13.477C628.757,329.018,634.015,319.446,633.994,309.317z
			"/>
	</g>
	<g id="POLYLINE_00000103263381496295574870000001278823391393343398_">
		
			<rect x="702.424" y="145.627" fill="none" stroke="#3A54F5" stroke-width="2.35" stroke-linecap="round" stroke-linejoin="round" stroke-miterlimit="10" width="142.857" height="71.429"/>
	</g>
	<g id="POLYLINE_00000052062993904947869720000011273180986372247721_">
		
			<path fill="none" stroke="#3A54F5" stroke-width="2.35" stroke-linecap="round" stroke-linejoin="round" stroke-miterlimit="10" d="
			M633.984,89.207c0.021-10.129-5.237-19.701-13.796-25.117c-15.56-9.838-36.116-3.448-43.357,13.477
			c-3.155,7.367-3.155,15.914,0,23.281c7.242,16.925,27.797,23.314,43.357,13.477C628.746,108.908,634.005,99.336,633.984,89.207z"
			/>
	</g>
	<g id="POLYLINE_00000044164081915186212850000013329017130694140805_">
		
			<path fill="none" stroke="#3A54F5" stroke-width="2.35" stroke-linecap="round" stroke-linejoin="round" stroke-miterlimit="10" d="
			M639.487,141.17c0,0,0.225-0.006,0.225-0.006s0.224-0.002,0.224-0.002s0.033,0,0.033,0c0.076,0,0.159-0.006,0.234-0.012
			c0.234-0.021,0.468-0.071,0.69-0.146c0.781-0.261,1.438-0.864,1.767-1.62c0.143-0.325,0.228-0.677,0.247-1.032
			c0-0.05,0.007-0.116,0.005-0.166c0,0,0-7.401,0-7.401c0-0.145-0.011-0.294-0.032-0.438c-0.14-0.982-0.805-1.867-1.712-2.271
			c-0.294-0.133-0.61-0.219-0.931-0.252c-0.499-0.172-101.157,0.084-101.691-0.009c-0.245,0.017-0.49,0.064-0.723,0.14
			c-0.59,0.191-1.117,0.573-1.481,1.075c-0.261,0.358-0.442,0.776-0.522,1.213c-0.026,0.146-0.044,0.294-0.048,0.442
			c0,0.03-0.003,0.069-0.002,0.099c0,0,0,10.377,0,10.377c-0.018,0.089,0.011,90.749,0.002,90.833
			c0.005,0.124,0.016,0.252,0.036,0.374c0.074,0.461,0.259,0.905,0.534,1.282c0.365,0.502,0.891,0.884,1.481,1.075
			c0.234,0.076,0.478,0.124,0.723,0.14c0.669,0.075,101.037-0.022,101.691-0.008c0.321-0.033,0.638-0.118,0.931-0.252
			c0.51-0.231,0.953-0.611,1.259-1.081c0.284-0.434,0.452-0.944,0.48-1.462c0-0.057,0.007-0.11,0.005-0.166c0,0,0-7.401,0-7.401
			c-0.001-0.112-0.006-0.225-0.019-0.335c-0.039-0.346-0.14-0.686-0.296-0.998c-0.36-0.726-1.03-1.288-1.807-1.518
			c-0.18-0.054-0.366-0.091-0.552-0.11c-0.229-0.027-0.517-0.01-0.75-0.023c1.165-0.101,2.258-0.78,2.865-1.779
			c0.2-0.324,0.35-0.679,0.444-1.048c0.061-0.239,0.098-0.486,0.111-0.732c0.003-0.063,0.005-0.134,0.005-0.197
			c0,0,0-23.638,0-23.638l6.174,0.794l0.097-0.755c1.866,0.397,3.783,1.077,5.669,1.378c1.813,0.331,4.352,0.264,6.207,0.299
			c1.106,0.038,2.26,0.059,3.301,0.473c0.409,0.163,0.793,0.39,1.149,0.647c0.799,0.594,1.638,1.268,2.39,1.922
			c0.02,0.474,0.059,0.966,0.265,1.401c0.149,0.324,0.376,0.606,0.621,0.862c0.403,0.419,0.874,0.784,1.346,1.121
			c1.401,0.986,2.925,1.832,4.546,2.396c1.001,0.346,2.06,0.591,3.125,0.549c0.69-0.033,1.41-0.174,1.976-0.592
			c0.219-0.164,0.406-0.375,0.53-0.619c0.154-0.302,0.217-0.644,0.233-0.98c0.032-1.059-0.309-2.096-0.734-3.054
			c-0.555-1.215-1.335-2.33-2.246-3.305c-0.677-0.717-1.432-1.38-2.286-1.88c-0.772-0.454-1.634-0.745-2.51-0.92
			c-0.9-0.179-1.828-0.246-2.743-0.168c-1.029-0.319-2.061-0.705-2.971-1.288c-1.419-0.896-2.886-2.122-4.349-2.946
			c-2.503-1.49-5.43-2.581-8.157-3.6c3.101-0.208,6.214-0.795,9.166-1.77c2.092-0.678,4.189-1.786,6.193-2.687
			c0.679,0.271,1.398,0.462,2.129,0.511c0.906,0.062,1.821-0.076,2.689-0.333c1.62-0.483,3.076-1.407,4.451-2.369
			c1.425-1.002,2.851-2.165,3.577-3.792c0.296-0.661,0.5-1.39,0.437-2.12c-0.038-0.441-0.211-0.868-0.496-1.207
			c-0.351-0.425-0.84-0.719-1.356-0.902c-0.684-0.244-1.424-0.29-2.144-0.245c-0.86,0.055-1.722,0.238-2.556,0.449
			c-0.819,0.206-1.639,0.467-2.395,0.846c-0.845,0.416-1.618,0.981-2.32,1.606c-0.456,0.41-0.911,0.849-1.291,1.33
			c-0.874,0.577-1.804,1.103-2.812,1.403c-1.882,0.552-3.888,0.539-5.824,0.337l-1.946-0.237c-1.36-0.158-2.752-0.125-4.113,0.005
			c-1.545,0.151-3.113,0.415-4.609,0.828l1.318-10.243c0.668,0.382,1.203,0.988,1.792,1.474c0.19,0.155,0.388,0.309,0.61,0.414
			c0.127,0.057,0.276,0.105,0.412,0.052c0.163-0.07,0.241-0.248,0.291-0.407c0.139-0.504,0.098-1.058,0.008-1.568
			c-0.351-1.839-1.78-3.333-3.444-4.105c-0.669-0.307-1.399-0.484-2.136-0.496c-1.301-0.044-2.669,0.369-3.93,0.641
			c-0.432,0.087-0.878,0.136-1.319,0.106c-0.683-0.048-1.359-0.235-2.017-0.418c-0.003-0.107,0.003-18.019-0.001-18.111
			c-0.002-0.091-0.008-0.188-0.016-0.279c-0.02-0.206-0.057-0.413-0.11-0.613c-0.094-0.354-0.241-0.695-0.433-1.007
			C641.745,141.95,640.652,141.271,639.487,141.17z"/>
	</g>
	<g id="POLYLINE_00000140010493754751847220000009828403037552123532_">
		
			<path fill="none" stroke="#3A54F5" stroke-width="2.35" stroke-linecap="round" stroke-linejoin="round" stroke-miterlimit="10" d="
			M686.852,270.627c-0.325-1.006-0.616-2.048-0.775-3.094c-0.184-1.104-0.245-2.391-0.468-3.488
			c-0.086-0.389-0.211-0.785-0.467-1.097c-0.188-0.232-0.45-0.395-0.73-0.494c0.199-2.344-0.077-4.726-0.461-7.039
			c-0.117-0.633-0.268-1.274-0.467-1.887c-0.141-0.423-0.341-0.839-0.657-1.159c-0.394-0.41-0.944-0.625-1.493-0.734
			c-0.843-0.166-1.72-0.17-2.57-0.058c-0.772,0.11-1.65,0.336-2.063,1.062c-0.26,0.45-0.346,0.977-0.409,1.487
			c-0.077,0.676-0.085,1.387-0.08,2.067c0.047,1.485,0.117,4.73,0.199,6.184c-0.323,0.105-0.641,0.256-0.89,0.491
			c-0.187,0.175-0.319,0.403-0.405,0.643c-0.114,0.319-0.168,0.658-0.209,0.993c-0.198,1.961-0.068,4.15-0.021,6.124
			c-0.042,0-11.854,0-11.892,0c-0.097,0.001-0.2,0.006-0.297,0.015c-0.205,0.018-0.411,0.054-0.61,0.106
			c-0.347,0.09-0.683,0.231-0.99,0.415c-1.123,0.664-1.839,1.921-1.835,3.226c0,0-0.01,0-0.01,0v-0.787c0,0,0-0.033,0-0.033
			s-0.001-0.033-0.001-0.033l-0.001-0.033c0-0.088-0.012-0.183-0.021-0.27c-0.034-0.272-0.107-0.542-0.214-0.794
			c-0.3-0.714-0.892-1.298-1.609-1.589c-0.357-0.147-0.744-0.223-1.13-0.223c0,0-7.401,0-7.401,0c-0.276,0-0.554,0.039-0.819,0.115
			c-0.656,0.186-1.243,0.607-1.63,1.169c-0.341,0.493-0.529,1.092-0.528,1.692c-0.007,0.098,0.003,101.199,0.002,101.289
			c0.006,0.147,0.02,0.298,0.048,0.443c0.051,0.274,0.141,0.543,0.266,0.792c0.301,0.603,0.814,1.098,1.429,1.376
			c0.167,0.075,0.34,0.137,0.517,0.18c0.202,0.049,0.408,0.079,0.615,0.085c0.029,0.001,0.07,0.002,0.099,0.002
			c0,0,10.376,0,10.376,0h229.182c0,0,10.377,0,10.377,0c0.386,0,0.773-0.076,1.13-0.223c0.588-0.24,1.096-0.675,1.422-1.221
			c0.276-0.46,0.426-0.995,0.425-1.532c0.008-0.029-0.006-101.196,0-101.223c-0.003-0.099-0.006-0.204-0.019-0.303
			c-0.037-0.321-0.126-0.638-0.264-0.931c-0.227-0.485-0.588-0.906-1.033-1.204c-0.423-0.284-0.919-0.458-1.427-0.497
			c-0.074-0.007-0.158-0.009-0.234-0.009c0,0-7.401,0-7.401,0c-0.032,0.001-0.068,0-0.099,0.002
			c-0.207,0.007-0.414,0.036-0.615,0.085c-0.836,0.203-1.564,0.786-1.946,1.556c-0.141,0.281-0.237,0.585-0.283,0.895
			c-0.023,0.145-0.031,0.292-0.032,0.438c-0.013,0.111,0.005,0.337-0.008,0.449c-0.07-0.768-0.383-1.511-0.883-2.097
			c-0.484-0.57-1.141-0.99-1.861-1.19c-0.252-0.07-0.513-0.114-0.774-0.131c-0.09-0.027-68.455,0.003-68.6-0.007
			c-0.341,0-0.683,0.047-1.011,0.138c-0.736,0.204-1.406,0.638-1.893,1.225c-0.485,0.58-0.789,1.31-0.859,2.063
			c-0.071-0.768-0.385-1.511-0.887-2.097c-0.485-0.57-1.143-0.991-1.864-1.191c-0.329-0.092-0.671-0.138-1.012-0.138
			c-0.336,0.011-69.802-0.017-70.091,0.007c-0.261,0.016-0.523,0.061-0.775,0.131c-0.75,0.208-1.432,0.655-1.922,1.26
			c-0.468,0.574-0.761,1.29-0.83,2.027c-0.103-1.166-0.784-2.258-1.784-2.866c-0.312-0.192-0.654-0.339-1.008-0.433
			c-0.252-0.067-0.513-0.108-0.774-0.122c-0.063-0.003-0.134-0.005-0.197-0.005c0,0-20.622,0-20.622,0
			c-0.123-2.166-0.266-4.401-0.684-6.531c-0.117-0.515-0.289-1.035-0.617-1.457c-0.428-0.555-1.079-0.887-1.736-1.092
			c-1.8-0.554-3.724-0.194-5.534,0.125c0.132-1.389,0.024-5.194,0.023-6.646c-0.006-0.343-0.018-0.701-0.063-1.04
			c-0.048-0.358-0.131-0.721-0.31-1.038c-0.243-0.434-0.662-0.739-1.106-0.947c-0.566-0.26-1.178-0.426-1.793-0.522
			c-0.685-0.1-1.403-0.107-2.065,0.116c-0.587,0.196-1.098,0.594-1.446,1.104c-0.415,0.599-0.607,1.32-0.72,2.032
			c-0.089,0.571-0.129,1.166-0.148,1.742c-0.051,1.655,0.06,4.393,0.08,6.071c0.037,1.035,0.102,2.186,0.217,3.213
			c-0.157,0.623-0.24,1.276-0.177,1.918c0.042,0.422,0.164,0.847,0.424,1.188c0.198,0.266,0.454,0.485,0.717,0.685
			c0.445,0.332,0.971,0.693,1.37,1.079H686.852z"/>
	</g>
	<g id="POLYLINE_00000067936965460325634330000015409899605945022891_">
		
			<path fill="none" stroke="#3A54F5" stroke-width="2.35" stroke-linecap="round" stroke-linejoin="round" stroke-miterlimit="10" d="
			M670.631,175.172c0.381-0.481,0.835-0.92,1.291-1.33c0.702-0.625,1.475-1.19,2.32-1.606c0.756-0.379,1.576-0.64,2.395-0.846
			c0.834-0.21,1.696-0.393,2.556-0.449c0.72-0.046,1.46,0.001,2.144,0.245c0.515,0.183,1.005,0.477,1.356,0.902
			c0.284,0.34,0.458,0.767,0.495,1.207c0.063,0.73-0.141,1.459-0.437,2.12c-0.726,1.626-2.153,2.789-3.577,3.792
			c-1.375,0.962-2.831,1.886-4.451,2.369c-0.868,0.257-1.783,0.395-2.689,0.333c-0.731-0.049-1.45-0.24-2.129-0.511
			c-2.005,0.902-4.1,2.009-6.193,2.687c-2.952,0.976-6.065,1.562-9.166,1.77c2.732,1.022,5.652,2.109,8.157,3.6
			c1.462,0.823,2.931,2.05,4.349,2.946c0.91,0.583,1.943,0.969,2.971,1.288c0.915-0.078,1.843-0.011,2.743,0.168
			c0.876,0.175,1.738,0.466,2.51,0.92c0.853,0.5,1.609,1.162,2.286,1.88c0.911,0.975,1.691,2.089,2.246,3.305
			c0.429,0.967,0.775,2.016,0.733,3.085c-0.018,0.326-0.082,0.656-0.231,0.949c-0.121,0.238-0.301,0.445-0.514,0.607
			c-0.568,0.427-1.296,0.571-1.992,0.604c-1.065,0.042-2.124-0.203-3.125-0.549c-1.621-0.565-3.145-1.411-4.546-2.396
			c-0.472-0.338-0.943-0.702-1.346-1.121c-0.245-0.256-0.472-0.539-0.621-0.862c-0.206-0.435-0.245-0.926-0.265-1.401
			c-0.752-0.654-1.59-1.328-2.39-1.922c-0.356-0.257-0.74-0.485-1.149-0.647c-1.041-0.414-2.195-0.434-3.301-0.473
			c-1.867-0.035-4.386,0.033-6.207-0.299c-1.886-0.3-3.804-0.98-5.669-1.378l-0.097,0.755l-8.415-1.083
			c-2.121,0.179-4.26,0.498-6.314,1.062c-0.111,0.717-0.13,1.453-0.039,2.173c0.119,1.073,0.371,2.269,0.177,3.343
			c-0.075,0.436-0.208,0.872-0.451,1.245c-0.222,0.345-0.539,0.586-0.939,0.685c-0.482,0.12-0.989,0.08-1.479,0.031
			c-3.962-0.55-11.474-2.113-15.427-2.648c-2.016-0.299-4.346-0.431-6.389-0.527c-1.473,1.165-3.007,2.675-4.908,3.049
			c-0.83,0.172-1.693,0.18-2.532,0.074c-0.752-0.099-1.501-0.288-2.189-0.613c-0.589-0.278-1.131-0.688-1.48-1.245
			c-0.534-0.835-0.569-1.906-0.276-2.834c-0.136-0.236-0.234-0.502-0.232-0.778c-1.778-0.945-3.526-2.016-5.061-3.325
			c-0.967-0.808-1.894-1.93-2.798-2.809c-0.203-0.192-0.421-0.384-0.649-0.546c-0.234-0.171-0.588-0.356-0.841-0.5
			c-0.309-0.176-0.606-0.391-0.814-0.684c-0.377-0.536-0.506-1.227-0.604-1.864c-0.204-1.565-0.139-3.168,0.063-4.73
			c0.107-0.869,0.385-1.945,0.591-2.801c0.117-0.509,0.209-1.035,0.214-1.559c0.012-0.85-0.202-1.966-0.313-2.815
			c-0.15-1.102-0.195-2.236,0.022-3.332c0.18-0.947,0.498-1.87,0.921-2.735c0.388-0.789,0.867-1.543,1.46-2.195
			c0.36-0.397,0.775-0.749,1.222-1.043c0.678-0.456,1.62-0.871,2.355-1.236c1.497-0.71,2.906-1.971,4.248-2.931
			c0.354-0.248,0.733-0.473,1.138-0.629c0.773-0.288,1.67-0.456,2.473-0.648c1.502-0.324,3.046-0.606,4.586-0.63l0.583-0.47
			c0.507-0.402,1.051-0.781,1.67-0.987c0.357-0.124,0.734-0.203,1.108-0.258c0.426-0.074,2.948-0.289,3.434-0.339
			c1.042-0.107,2.132-0.234,3.154-0.454c1.04-0.22,2.225-0.536,3.279-0.656c0.41-0.045,0.83-0.071,1.241-0.019
			c0.231,0.03,0.463,0.086,0.667,0.2c0.241,0.132,0.413,0.364,0.51,0.618l1.578,0.364c4.553,1.223,15.271,3.916,19.616,5.216
			c0.487,0.131,0.989,0.254,1.49,0.308c1.114,0.138,2.347-0.324,3.431-0.526c1.003-0.198,2.055-0.308,3.062-0.076
			c1.007,0.231,1.937,0.751,2.708,1.432c0.962,0.847,1.69,2.005,1.856,3.29c0.056,0.457,0.079,0.995-0.088,1.43
			c-0.049,0.119-0.124,0.241-0.247,0.294c-0.086,0.037-0.184,0.028-0.272,0.004c-0.162-0.046-0.309-0.137-0.447-0.232
			c-0.732-0.518-1.315-1.263-2.099-1.71l-1.318,10.243c1.497-0.412,3.065-0.676,4.609-0.828c1.361-0.13,2.753-0.163,4.113-0.005
			l1.946,0.237c1.965,0.204,4.005,0.217,5.91-0.363C668.88,176.246,669.782,175.733,670.631,175.172z"/>
	</g>
	<g id="POLYLINE_00000048494755431910990540000001429637018765936024_">
		
			<path fill="none" stroke="#3A54F5" stroke-width="2.35" stroke-linecap="round" stroke-linejoin="round" stroke-miterlimit="10" d="
			M715.351,298.128c0.842,0.247,1.525,0.847,2.099,1.49c1.378,1.587,2.76,4.165,3.881,5.96c0.214,0.34,0.451,0.719,0.697,1.036
			l0.268,0.337c0.55,0.708,0.852,1.577,1.033,2.446c0.248,1.244,0.275,2.535,0.139,3.794c-0.1,0.851-0.317,1.703-0.743,2.452
			c-0.339,0.601-0.812,1.124-1.368,1.532c-0.721,0.529-1.548,0.905-2.383,1.216c-1.469,0.538-3.029,0.885-4.567,1.161
			c-3.693,0.572-8.269,1.285-11.993,1.481c-0.548,0.856-1.256,1.615-2.086,2.203c-1.245,0.878-2.73,1.409-4.241,1.584
			c-1.422,0.186-3.026-0.162-4.43-0.397c-1.003-0.17-2.271-0.208-3.265-0.422c-0.568-0.122-1.131-0.318-1.608-0.657
			c-0.739-0.522-1.259-1.293-1.68-2.081c-0.428-0.092-5.116-1.134-5.381-1.172l-6.022-1.093c-1.248-0.259-2.529-0.542-3.726-0.982
			c-0.646-0.241-1.289-0.527-1.846-0.94c-0.291-0.218-0.559-0.475-0.75-0.786c-0.158-0.255-0.257-0.544-0.317-0.837
			c-0.111-0.535-0.127-1.228-0.193-1.772c-0.093-0.774-0.274-1.747-0.274-2.518c-0.001-0.197,0.007-0.397,0.027-0.592
			c0.193-1.722,0.457-3.513,0.82-5.207c0.097-0.443,0.215-0.922,0.346-1.355c0.134-0.448,0.311-0.965,0.4-1.42
			c0.153-0.753,0.142-1.54,0.112-2.305c-0.278-4.525-1.278-9.74-1.161-14.273c0.037-1.005,0.075-2.044,0.39-3.006
			c0.084-0.232,0.188-0.466,0.366-0.64c0.121-0.12,0.29-0.187,0.461-0.185c0.246,0,0.48,0.098,0.693,0.212
			c0.494-1.48,1.093-3.011,1.712-4.443c0.47-1.017,1.011-2.036,1.79-2.851c0.364-0.37,0.803-0.693,1.315-0.815
			c0.37-0.09,0.76-0.056,1.125,0.041c-0.039-2.441-0.297-6.985-0.128-9.363c0.038-0.451,0.084-0.916,0.218-1.35
			c0.082-0.264,0.212-0.519,0.409-0.714c0.253-0.252,0.584-0.411,0.92-0.521c-0.073-1.542-0.183-4.987-0.201-6.52
			c0.003-0.641,0.02-1.306,0.109-1.941c0.066-0.445,0.159-0.9,0.391-1.291c0.43-0.735,1.332-0.948,2.119-1.056
			c0.83-0.102,1.684-0.096,2.505,0.066c0.556,0.111,1.112,0.33,1.508,0.75c0.308,0.318,0.503,0.727,0.642,1.144
			c0.199,0.613,0.349,1.254,0.467,1.887c0.384,2.313,0.66,4.695,0.461,7.039c0.215,0.077,0.42,0.188,0.588,0.344
			c0.173,0.158,0.304,0.359,0.398,0.573c0.096,0.215,0.16,0.445,0.211,0.674c0.223,1.097,0.284,2.385,0.468,3.488
			c0.321,2.2,1.478,5.025,2.135,7.155c1.298,4.078,2.215,9.926,3.03,14.165c0.222,1.062,0.424,2.19,0.881,3.179
			c0.184,0.379,0.43,0.761,0.815,0.957c0.24,0.124,0.529,0.141,0.771,0.013c0.391-0.211,0.628-0.653,0.812-1.041
			c0.289-0.636,0.478-1.324,0.643-2.001c0.785-3.412,1.048-7.332,1.969-10.713l0.944-3.433c0.181-0.715,0.349-1.451,0.385-2.189
			c0.022-0.466-0.012-0.943-0.16-1.389c-0.219-0.661-0.668-1.219-1.175-1.685c-0.514-0.488-1.184-0.87-1.703-1.351
			c-0.269-0.252-0.49-0.562-0.602-0.916c-0.251-0.81-0.147-1.717,0.052-2.527c-0.115-1.026-0.18-2.179-0.217-3.213
			c-0.016-1.864-0.15-4.62-0.065-6.455c0.031-0.591,0.087-1.195,0.208-1.775c0.119-0.569,0.311-1.135,0.644-1.616
			c0.355-0.522,0.883-0.926,1.487-1.117c0.651-0.209,1.353-0.201,2.024-0.102c0.615,0.096,1.227,0.262,1.793,0.522
			c0.444,0.208,0.863,0.512,1.106,0.947c0.179,0.317,0.262,0.68,0.31,1.038c0.045,0.34,0.057,0.698,0.063,1.04
			c-0.001,1.466,0.11,5.231-0.023,6.646c1.695-0.297,3.477-0.633,5.18-0.222c0.625,0.152,1.244,0.398,1.738,0.818
			c0.755,0.63,0.96,1.65,1.11,2.575c0.331,2.182,0.499,4.488,0.577,6.694c0.065,1.692-0.042,3.439-0.244,5.122
			c-0.012,3.449-0.055,9.327,0.013,12.732c0.784,0.533,1.379,1.306,1.862,2.113c0.559,0.939,0.917,2.057,1.279,3.086
			C714.131,295.773,714.772,297.014,715.351,298.128z"/>
	</g>
	<g id="POLYLINE_00000178191240159343349210000006348004812861527722_">
		
			<path fill="none" stroke="#3A54F5" stroke-width="2.35" stroke-linecap="round" stroke-linejoin="round" stroke-miterlimit="10" d="
			M160.984,89.207c0.023,9.988-5.109,19.472-13.484,24.916c-15.304,9.953-35.79,3.999-43.375-12.606
			c-3.545-7.741-3.545-16.879,0-24.62c7.585-16.605,28.072-22.559,43.375-12.606C155.875,69.735,161.007,79.219,160.984,89.207z"/>
	</g>
	<g id="POLYLINE_00000095338810266272836080000015723978415116809355_">
		
			<path fill="none" stroke="#3A54F5" stroke-width="2.35" stroke-linecap="round" stroke-linejoin="round" stroke-miterlimit="10" d="
			M166.487,141.17c0.768,0.07,1.511,0.383,2.097,0.883c0.57,0.484,0.99,1.141,1.19,1.861c0.07,0.252,0.114,0.513,0.131,0.774
			c0.026,0.087-0.003,72.925,0.007,73.068c0,0.341-0.047,0.683-0.138,1.011c-0.207,0.75-0.655,1.431-1.26,1.919
			c-0.574,0.467-1.289,0.758-2.027,0.825c0,0,0.225,0.006,0.225,0.006l0.224,0.002c0,0,0.033,0,0.033,0
			c0.076,0,0.159,0.006,0.234,0.012c0.234,0.021,0.468,0.071,0.69,0.146c0.781,0.261,1.438,0.864,1.767,1.62
			c0.143,0.325,0.228,0.677,0.247,1.032c0,0.05,0.007,0.116,0.005,0.166c0,0,0,7.401,0,7.401c0,0.145-0.011,0.294-0.032,0.438
			c-0.14,0.982-0.805,1.867-1.712,2.271c-0.294,0.133-0.61,0.219-0.931,0.252c-0.499,0.172-101.157-0.084-101.691,0.009
			c-0.245-0.017-0.49-0.064-0.723-0.14c-0.59-0.191-1.117-0.573-1.481-1.075c-0.262-0.358-0.442-0.776-0.522-1.213
			c-0.026-0.146-0.044-0.294-0.048-0.442c0.001-0.03-0.003-0.069-0.002-0.099c0,0,0-10.377,0-10.377
			c-0.018-0.089,0.011-90.749,0.002-90.833c0.005-0.124,0.016-0.252,0.036-0.374c0.074-0.461,0.259-0.905,0.534-1.282
			c0.365-0.502,0.891-0.884,1.481-1.075c0.234-0.076,0.478-0.124,0.723-0.14c0.669-0.075,101.037,0.022,101.692,0.008
			c0.321,0.033,0.638,0.118,0.931,0.252c0.51,0.231,0.953,0.611,1.259,1.081c0.284,0.434,0.452,0.944,0.48,1.462
			c0,0.057,0.007,0.11,0.005,0.166c0,0,0,7.401,0,7.401c-0.001,0.112-0.006,0.225-0.019,0.335c-0.039,0.346-0.14,0.686-0.296,0.998
			c-0.36,0.726-1.03,1.288-1.807,1.518c-0.18,0.054-0.366,0.091-0.552,0.11C167.008,141.174,166.72,141.158,166.487,141.17z"/>
	</g>
	<g id="POLYLINE_00000124873275053536489740000017164938497000365444_">
		
			<rect x="229.424" y="145.627" fill="none" stroke="#3A54F5" stroke-width="2.35" stroke-linecap="round" stroke-linejoin="round" stroke-miterlimit="10" width="142.857" height="71.429"/>
	</g>
	<g id="POLYLINE_00000046304558080713490450000018300403896216673717_">
		
			<path fill="none" stroke="#3A54F5" stroke-width="2.35" stroke-linecap="round" stroke-linejoin="round" stroke-miterlimit="10" d="
			M160.994,309.317c0.023,9.988-5.109,19.472-13.484,24.916c-15.304,9.953-35.79,3.999-43.375-12.606
			c-3.545-7.741-3.545-16.879,0-24.62c7.585-16.605,28.072-22.559,43.375-12.606C155.885,289.844,161.018,299.328,160.994,309.317z"
			/>
	</g>
	<g id="POLYLINE_00000155132244857397366390000017311522130365915315_">
		
			<path fill="none" stroke="#3A54F5" stroke-width="2.35" stroke-linecap="round" stroke-linejoin="round" stroke-miterlimit="10" d="
			M415.433,274.39v-0.787c0,0,0-0.033,0-0.033s0.001-0.033,0.001-0.033s0.001-0.033,0.001-0.033c0-0.088,0.012-0.183,0.021-0.27
			c0.034-0.272,0.107-0.542,0.214-0.794c0.3-0.714,0.892-1.298,1.609-1.589c0.357-0.147,0.744-0.223,1.13-0.223c0,0,7.401,0,7.401,0
			c0.276,0,0.554,0.039,0.819,0.115c0.656,0.186,1.243,0.607,1.63,1.169c0.341,0.493,0.529,1.092,0.528,1.692
			c-0.005,0.167,0.009,101.203-0.005,101.356c-0.012,0.208-0.045,0.418-0.101,0.618c-0.129,0.472-0.376,0.911-0.713,1.265
			c-0.271,0.285-0.6,0.517-0.96,0.675c-0.146,0.062-0.295,0.117-0.449,0.156c-0.245,0.063-0.497,0.096-0.75,0.096
			c0,0-10.377,0-10.377,0H186.251c-0.066-0.001-10.381,0.001-10.441-0.001c-0.158-0.004-0.32-0.02-0.476-0.049
			c-0.225-0.042-0.447-0.11-0.657-0.202c-0.36-0.158-0.69-0.389-0.96-0.675c-0.345-0.363-0.597-0.815-0.722-1.3
			c-0.048-0.191-0.081-0.387-0.091-0.583c-0.14-0.095,0.091-101.232-0.005-101.357c-0.001-1.399,0.988-2.628,2.366-2.913
			c0.169-0.035,0.339-0.056,0.511-0.062c0.033,0,0.068-0.002,0.099-0.002c0,0,7.401,0,7.401,0c0.062-0.001,0.137,0.003,0.2,0.007
			c0.368,0.025,0.732,0.119,1.066,0.276c0.646,0.301,1.173,0.843,1.458,1.495c0.098,0.22,0.167,0.454,0.208,0.691
			c0.023,0.123,0.033,0.249,0.041,0.374c0.002,0.241,0.008,0.673,0.013,0.919c0.001-0.808,0.271-1.612,0.758-2.257
			c0.489-0.652,1.195-1.138,1.979-1.361c0.336-0.096,0.686-0.145,1.036-0.145c0.274,0.008,68.333-0.013,68.573,0.006
			c0.279,0.016,0.558,0.063,0.826,0.139c0.799,0.227,1.516,0.728,2.004,1.4c0.467,0.638,0.725,1.427,0.723,2.218
			c-0.002-0.807,0.266-1.612,0.752-2.257c0.487-0.653,1.192-1.138,1.975-1.361c0.268-0.077,0.547-0.124,0.825-0.139
			c-0.002-0.026,69.995,0.006,70.065-0.006c0.349,0,0.7,0.049,1.036,0.145c0.799,0.227,1.516,0.728,2.004,1.4
			c0.467,0.638,0.725,1.427,0.723,2.218c-0.002-0.807,0.266-1.612,0.752-2.257c0.487-0.653,1.192-1.138,1.976-1.361
			c0.268-0.077,0.547-0.124,0.825-0.139c0-0.026,68.503,0.006,68.573-0.006c0.349,0,0.7,0.049,1.036,0.145
			c0.799,0.227,1.516,0.728,2.004,1.4C415.177,272.81,415.434,273.599,415.433,274.39z"/>
	</g>
</g>
</svg>
