<?xml version="1.0" encoding="utf-8"?>
<!-- Generator: Adobe Illustrator 23.0.2, SVG Export Plug-In . SVG Version: 6.00 Build 0)  -->
<!DOCTYPE svg PUBLIC "-//W3C//DTD SVG 1.1//EN" "http://www.w3.org/Graphics/SVG/1.1/DTD/svg11.dtd" [
	<!ENTITY ns_flows "http://ns.adobe.com/Flows/1.0/">
	<!ENTITY ns_extend "http://ns.adobe.com/Extensibility/1.0/">
	<!ENTITY ns_ai "http://ns.adobe.com/AdobeIllustrator/10.0/">
	<!ENTITY ns_graphs "http://ns.adobe.com/Graphs/1.0/">
	<!ENTITY ns_vars "http://ns.adobe.com/Variables/1.0/">
	<!ENTITY ns_imrep "http://ns.adobe.com/ImageReplacement/1.0/">
	<!ENTITY ns_sfw "http://ns.adobe.com/SaveForWeb/1.0/">
	<!ENTITY ns_custom "http://ns.adobe.com/GenericCustomNamespace/1.0/">
	<!ENTITY ns_adobe_xpath "http://ns.adobe.com/XPath/1.0/">
]>
<svg version="1.1" xmlns:x="&ns_extend;" xmlns:i="&ns_ai;" xmlns:graph="&ns_graphs;"
	 xmlns="http://www.w3.org/2000/svg" xmlns:xlink="http://www.w3.org/1999/xlink" xmlns:a="http://ns.adobe.com/AdobeSVGViewerExtensions/3.0/"
	 x="0px" y="0px" viewBox="0 0 750 700" enable-background="new 0 0 750 700" xml:space="preserve">
<metadata>
	<sfw  xmlns="&ns_sfw;">
		<slices></slices>
		<sliceSourceBounds  bottomLeftOrigin="true" height="9185.057" width="6115.224" x="-5706.937" y="-3923.667">
			</sliceSourceBounds>
	</sfw>
</metadata>
<g id="FILL-BACKGROUND">
</g>
<g id="N-DIMENSIONS" display="none">
	<g id="MTEXT_101_" display="inline">
		<g>
			<g>
				<path fill="#3A54F5" d="M139.164,588.838v-2.376h4.572v12.708h-2.664v-10.332H139.164z"/>
				<path fill="#3A54F5" d="M152.529,586.426c0.618,0.3,1.086,0.714,1.404,1.242c0.318,0.528,0.477,1.116,0.477,1.764
					c0,0.816-0.222,1.485-0.666,2.007s-1.032,0.843-1.764,0.963v0.09c1.776,0.528,2.664,1.572,2.664,3.132
					c0,1.092-0.366,1.977-1.098,2.655c-0.732,0.678-1.764,1.017-3.096,1.017c-1.416,0-2.544-0.351-3.384-1.053
					c-0.84-0.702-1.308-1.761-1.404-3.177h2.484c0.06,0.648,0.273,1.161,0.639,1.539c0.366,0.378,0.885,0.567,1.557,0.567
					c0.576,0,1.026-0.159,1.35-0.477c0.324-0.318,0.486-0.735,0.486-1.251c0-0.612-0.234-1.08-0.702-1.404
					c-0.468-0.324-1.158-0.486-2.07-0.486h-0.522v-2.07h0.522c1.68,0.024,2.52-0.558,2.52-1.746c0-0.516-0.15-0.921-0.45-1.215
					s-0.708-0.441-1.224-0.441c-0.54,0-0.984,0.171-1.332,0.513c-0.349,0.342-0.546,0.819-0.594,1.431h-2.484
					c0.072-1.296,0.492-2.295,1.26-2.997c0.768-0.702,1.836-1.053,3.204-1.053C151.17,585.977,151.911,586.126,152.529,586.426z"/>
				<path fill="#3A54F5" d="M161.34,588.046c-0.84,0-1.452,0.369-1.836,1.107c-0.384,0.738-0.552,1.893-0.504,3.465
					c0.192-0.576,0.567-1.035,1.125-1.377c0.558-0.342,1.208-0.513,1.953-0.513c1.224,0,2.187,0.369,2.889,1.107
					c0.702,0.738,1.053,1.785,1.053,3.141c0,0.84-0.168,1.584-0.504,2.232c-0.336,0.648-0.837,1.158-1.503,1.53
					c-0.666,0.372-1.473,0.558-2.421,0.558c-1.848,0-3.12-0.573-3.816-1.719c-0.696-1.146-1.044-2.727-1.044-4.743
					c0-2.316,0.375-4.032,1.125-5.148c0.75-1.116,1.965-1.674,3.645-1.674c1.284,0,2.268,0.366,2.952,1.098
					c0.684,0.732,1.074,1.668,1.17,2.808h-2.376C163.056,588.67,162.42,588.046,161.34,588.046z M159.801,596.461
					c0.39,0.438,0.963,0.657,1.719,0.657c0.648,0,1.164-0.192,1.548-0.576c0.384-0.384,0.576-0.918,0.576-1.602
					c0-0.72-0.195-1.272-0.585-1.656c-0.39-0.384-0.916-0.576-1.575-0.576c-0.624,0-1.158,0.18-1.602,0.54
					c-0.444,0.36-0.666,0.876-0.666,1.548C159.216,595.469,159.411,596.023,159.801,596.461z"/>
				<path fill="#3A54F5" d="M175.362,587.794c-0.3,0.264-0.45,0.726-0.45,1.386v0.018h2.016v2.142h-2.016v7.83h-2.538v-7.83h-1.278
					v-2.142h1.278v-0.234c0-1.188,0.339-2.103,1.017-2.745c0.678-0.642,1.683-0.963,3.015-0.963c0.228,0,0.402,0.006,0.522,0.018
					v2.196C176.184,587.422,175.662,587.531,175.362,587.794z"/>
				<path fill="#3A54F5" d="M183.768,596.992v2.178h-1.332c-1.116,0-1.971-0.27-2.565-0.81c-0.594-0.54-0.891-1.44-0.891-2.7v-4.32
					h-1.386v-2.142h1.386v-2.466h2.538v2.466h2.232v2.142h-2.232v4.356c0,0.48,0.096,0.816,0.288,1.008
					c0.192,0.192,0.516,0.288,0.972,0.288H183.768z"/>
				<path fill="#3A54F5" d="M188.379,587.919c0-0.329-0.079-0.588-0.236-0.777c-0.157-0.189-0.404-0.283-0.74-0.283
					c-0.692,0-1.06,0.472-1.102,1.417h-1.438c0.042-0.874,0.308-1.537,0.798-1.988c0.489-0.451,1.108-0.677,1.857-0.677
					c0.762,0,1.348,0.198,1.757,0.593c0.41,0.395,0.614,0.922,0.614,1.579c0,0.518-0.152,1.038-0.457,1.559s-0.691,1-1.16,1.438
					c-0.469,0.438-0.962,0.813-1.479,1.128h3.243v1.207h-5.216v-1.102C187.193,590.368,188.379,589.003,188.379,587.919z"/>
				<path fill="#3A54F5" d="M139.164,610.438v-2.376h4.572v12.708h-2.664v-10.332H139.164z"/>
				<path fill="#3A54F5" d="M151.656,611.752c0-0.564-0.135-1.008-0.405-1.332c-0.27-0.324-0.693-0.486-1.269-0.486
					c-1.188,0-1.818,0.81-1.89,2.43h-2.466c0.072-1.5,0.528-2.637,1.368-3.411s1.902-1.161,3.186-1.161
					c1.308,0,2.313,0.339,3.015,1.017c0.702,0.678,1.053,1.581,1.053,2.709c0,0.888-0.261,1.779-0.783,2.673
					c-0.522,0.894-1.186,1.716-1.989,2.466c-0.804,0.75-1.65,1.395-2.538,1.935h5.562v2.07h-8.946v-1.89
					C149.622,615.953,151.656,613.613,151.656,611.752z"/>
				<path fill="#3A54F5" d="M158.333,618.125v2.646h-2.736v-2.646H158.333z"/>
				<path fill="#3A54F5" d="M164.544,609.646c-0.84,0-1.452,0.369-1.836,1.107c-0.384,0.738-0.552,1.893-0.504,3.465
					c0.192-0.576,0.567-1.035,1.125-1.377c0.558-0.342,1.208-0.513,1.953-0.513c1.224,0,2.187,0.369,2.889,1.107
					c0.702,0.738,1.053,1.785,1.053,3.141c0,0.84-0.168,1.584-0.504,2.232c-0.336,0.648-0.837,1.158-1.503,1.53
					c-0.666,0.372-1.473,0.558-2.421,0.558c-1.848,0-3.12-0.573-3.816-1.719c-0.696-1.146-1.044-2.727-1.044-4.743
					c0-2.316,0.375-4.032,1.125-5.148c0.75-1.116,1.965-1.674,3.645-1.674c1.284,0,2.268,0.366,2.952,1.098
					c0.684,0.732,1.074,1.668,1.17,2.808h-2.376C166.26,610.271,165.624,609.646,164.544,609.646z M163.005,618.062
					c0.39,0.438,0.963,0.657,1.719,0.657c0.648,0,1.164-0.192,1.548-0.576c0.384-0.384,0.576-0.918,0.576-1.602
					c0-0.72-0.195-1.272-0.585-1.656c-0.39-0.384-0.916-0.576-1.575-0.576c-0.624,0-1.158,0.18-1.602,0.54
					c-0.444,0.36-0.666,0.876-0.666,1.548C162.42,617.069,162.615,617.624,163.005,618.062z"/>
				<path fill="#3A54F5" d="M190.761,611.779c0.702,0.75,1.053,1.815,1.053,3.195v5.796h-2.52v-5.508
					c0-0.768-0.195-1.359-0.585-1.773c-0.39-0.414-0.927-0.621-1.611-0.621c-0.708,0-1.272,0.222-1.692,0.666
					s-0.63,1.092-0.63,1.944v5.292h-2.52v-5.508c0-0.768-0.195-1.359-0.585-1.773c-0.39-0.414-0.927-0.621-1.611-0.621
					c-0.708,0-1.272,0.222-1.692,0.666s-0.63,1.092-0.63,1.944v5.292H175.2v-9.972h2.538v1.89c0.264-0.648,0.681-1.149,1.251-1.503
					s1.233-0.531,1.989-0.531c0.804,0,1.503,0.192,2.097,0.576c0.594,0.384,1.041,0.936,1.341,1.656
					c0.312-0.684,0.777-1.227,1.395-1.629c0.618-0.402,1.311-0.603,2.079-0.603C189.102,610.654,190.059,611.03,190.761,611.779z"/>
				<path fill="#3A54F5" d="M196.839,609.519c0-0.329-0.079-0.588-0.236-0.777c-0.157-0.189-0.404-0.283-0.74-0.283
					c-0.692,0-1.06,0.472-1.102,1.417h-1.438c0.042-0.874,0.308-1.537,0.798-1.988c0.489-0.451,1.108-0.677,1.857-0.677
					c0.762,0,1.348,0.198,1.757,0.593c0.41,0.395,0.614,0.922,0.614,1.579c0,0.518-0.152,1.038-0.457,1.559s-0.691,1-1.16,1.438
					c-0.469,0.438-0.962,0.813-1.479,1.128h3.243v1.207h-5.216v-1.102C195.653,611.968,196.839,610.604,196.839,609.519z"/>
			</g>
		</g>
	</g>
	<g display="inline">
		<g id="POLYLINE_864_">
			
				<line fill="none" stroke="#3A54F5" stroke-width="2" stroke-linecap="round" stroke-linejoin="round" stroke-miterlimit="10" x1="627.809" y1="86.86" x2="435" y2="86.86"/>
		</g>
		<g id="LINE_49_">
			
				<line fill="none" stroke="#3A54F5" stroke-width="2" stroke-linecap="round" stroke-linejoin="round" stroke-miterlimit="10" x1="328.327" y1="86.86" x2="140.267" y2="86.86"/>
		</g>
		<g id="POLYLINE_863_">
			
				<polyline fill="none" stroke="#3A54F5" stroke-width="2" stroke-linecap="round" stroke-linejoin="round" stroke-miterlimit="10" points="
				146.895,93.488 140.267,86.86 146.895,80.232 			"/>
		</g>
		<g id="POLYLINE_862_">
			
				<polyline fill="none" stroke="#3A54F5" stroke-width="2" stroke-linecap="round" stroke-linejoin="round" stroke-miterlimit="10" points="
				621.182,80.232 627.809,86.86 621.182,93.488 			"/>
		</g>
		<g id="MTEXT_98_">
			<g>
				<g>
					<path fill="#3A54F5" d="M341.382,93.076c-0.072-0.078-0.108-0.177-0.108-0.297V82.627l-3.024,2.322
						c-0.084,0.072-0.174,0.108-0.27,0.108c-0.108,0-0.21-0.061-0.306-0.181l-0.432-0.558c-0.06-0.084-0.09-0.168-0.09-0.252
						c0-0.132,0.06-0.24,0.18-0.324l3.906-3.023c0.132-0.084,0.288-0.126,0.468-0.126h0.846c0.12,0,0.219,0.039,0.297,0.116
						c0.078,0.078,0.117,0.178,0.117,0.298v11.771c0,0.12-0.039,0.219-0.117,0.297s-0.177,0.117-0.297,0.117h-0.882
						C341.55,93.193,341.454,93.154,341.382,93.076z"/>
					<path fill="#3A54F5" d="M347.25,92.914c-0.684-0.306-1.203-0.704-1.557-1.196s-0.543-1.002-0.567-1.53
						c0-0.108,0.036-0.195,0.108-0.261c0.072-0.066,0.162-0.1,0.27-0.1h0.81c0.132,0,0.24,0.027,0.324,0.081
						c0.083,0.054,0.15,0.159,0.198,0.315c0.156,0.611,0.495,1.044,1.017,1.296s1.137,0.378,1.845,0.378
						c0.864,0,1.551-0.207,2.061-0.621c0.51-0.414,0.765-1.005,0.765-1.773c0-1.464-0.894-2.195-2.682-2.195h-1.692
						c-0.12,0-0.219-0.039-0.297-0.117s-0.117-0.177-0.117-0.297v-0.468c0-0.181,0.066-0.336,0.198-0.469l3.51-3.888h-5.328
						c-0.12,0-0.219-0.036-0.297-0.108c-0.078-0.071-0.117-0.168-0.117-0.287v-0.648c0-0.132,0.039-0.237,0.117-0.315
						c0.078-0.077,0.177-0.116,0.297-0.116h7.128c0.132,0,0.237,0.039,0.315,0.116c0.078,0.078,0.117,0.184,0.117,0.315v0.594
						c0,0.133-0.061,0.271-0.18,0.414l-3.51,3.942h0.288c1.224,0.036,2.193,0.354,2.907,0.954c0.714,0.6,1.071,1.476,1.071,2.628
						c0,0.792-0.195,1.473-0.585,2.043c-0.39,0.57-0.933,1.008-1.629,1.313c-0.696,0.307-1.482,0.459-2.358,0.459
						C348.744,93.373,347.934,93.221,347.25,92.914z"/>
					<path fill="#3A54F5" d="M356.214,83.734c-0.048-0.065-0.066-0.159-0.054-0.279l0.396-2.52c0.048-0.348,0.216-0.522,0.504-0.522
						h1.152c0.083,0,0.153,0.03,0.207,0.09c0.054,0.061,0.081,0.133,0.081,0.217c0,0.12-0.018,0.216-0.054,0.288l-0.936,2.43
						c-0.06,0.132-0.126,0.231-0.198,0.297c-0.072,0.066-0.18,0.099-0.324,0.099h-0.558
						C356.333,83.833,356.262,83.801,356.214,83.734z"/>
					<path fill="#3A54F5" d="M365.087,96.82c-0.072-0.078-0.108-0.177-0.108-0.297V77.479c0-0.12,0.036-0.219,0.108-0.297
						s0.168-0.117,0.288-0.117h0.666c0.12,0,0.219,0.039,0.297,0.117s0.117,0.177,0.117,0.297v19.044
						c0,0.12-0.039,0.219-0.117,0.297s-0.177,0.117-0.297,0.117h-0.666C365.255,96.938,365.159,96.898,365.087,96.82z"/>
					<path fill="#3A54F5" d="M375.113,92.914c-0.684-0.306-1.203-0.704-1.557-1.196s-0.543-1.002-0.567-1.53
						c0-0.108,0.036-0.195,0.108-0.261c0.072-0.066,0.162-0.1,0.27-0.1h0.81c0.132,0,0.24,0.027,0.324,0.081
						c0.083,0.054,0.15,0.159,0.198,0.315c0.156,0.611,0.495,1.044,1.017,1.296s1.137,0.378,1.845,0.378
						c0.864,0,1.551-0.207,2.061-0.621c0.51-0.414,0.765-1.005,0.765-1.773c0-1.464-0.894-2.195-2.682-2.195h-1.692
						c-0.12,0-0.219-0.039-0.297-0.117s-0.117-0.177-0.117-0.297v-0.468c0-0.181,0.066-0.336,0.198-0.469l3.51-3.888h-5.328
						c-0.12,0-0.219-0.036-0.297-0.108c-0.078-0.071-0.117-0.168-0.117-0.287v-0.648c0-0.132,0.039-0.237,0.117-0.315
						c0.078-0.077,0.177-0.116,0.297-0.116h7.128c0.132,0,0.237,0.039,0.315,0.116c0.078,0.078,0.117,0.184,0.117,0.315v0.594
						c0,0.133-0.061,0.271-0.18,0.414l-3.51,3.942h0.288c1.224,0.036,2.193,0.354,2.907,0.954c0.714,0.6,1.071,1.476,1.071,2.628
						c0,0.792-0.195,1.473-0.585,2.043c-0.39,0.57-0.933,1.008-1.629,1.313c-0.696,0.307-1.482,0.459-2.358,0.459
						C376.607,93.373,375.797,93.221,375.113,92.914z"/>
					<path fill="#3A54F5" d="M384.319,93.076c-0.078-0.078-0.117-0.177-0.117-0.297v-1.242c0-0.119,0.039-0.222,0.117-0.306
						s0.177-0.126,0.297-0.126h1.242c0.12,0,0.219,0.042,0.297,0.126s0.117,0.187,0.117,0.306v1.242c0,0.12-0.039,0.219-0.117,0.297
						s-0.177,0.117-0.297,0.117h-1.242C384.497,93.193,384.397,93.154,384.319,93.076z"/>
					<path fill="#3A54F5" d="M389.9,93.076c-0.066-0.078-0.099-0.171-0.099-0.279c0-0.083,0.024-0.161,0.072-0.233l2.772-3.853
						c-0.288,0.072-0.624,0.108-1.008,0.108c-0.864-0.012-1.62-0.213-2.268-0.603c-0.648-0.391-1.143-0.9-1.485-1.53
						c-0.342-0.63-0.513-1.305-0.513-2.025c0-0.72,0.171-1.403,0.513-2.052c0.342-0.648,0.852-1.176,1.53-1.584
						c0.678-0.408,1.497-0.612,2.457-0.612c0.96,0,1.782,0.198,2.466,0.595c0.684,0.396,1.2,0.915,1.548,1.557
						s0.522,1.329,0.522,2.061c0,0.66-0.117,1.242-0.351,1.746c-0.234,0.504-0.543,1.026-0.927,1.566l-3.492,4.896
						c-0.084,0.108-0.165,0.195-0.243,0.262c-0.078,0.065-0.189,0.099-0.333,0.099h-0.9C390.053,93.193,389.966,93.154,389.9,93.076
						z M393.293,87.056c0.432-0.229,0.774-0.549,1.026-0.963s0.378-0.892,0.378-1.432c0-0.552-0.126-1.037-0.378-1.458
						c-0.252-0.42-0.594-0.744-1.026-0.972s-0.906-0.342-1.422-0.342c-0.504,0-0.969,0.114-1.395,0.342
						c-0.426,0.228-0.765,0.552-1.017,0.972c-0.252,0.421-0.378,0.906-0.378,1.458c0,0.54,0.126,1.018,0.378,1.432
						s0.588,0.734,1.008,0.963c0.42,0.228,0.888,0.342,1.404,0.342C392.387,87.397,392.861,87.283,393.293,87.056z"/>
					<path fill="#3A54F5" d="M400.16,92.788c-0.702-0.39-1.236-0.915-1.602-1.575c-0.366-0.659-0.549-1.379-0.549-2.159
						c0-1.032,0.414-2.136,1.242-3.312l3.438-4.788c0.012-0.012,0.045-0.054,0.099-0.126c0.054-0.072,0.123-0.129,0.207-0.171
						c0.083-0.042,0.18-0.062,0.288-0.062h0.882c0.108,0,0.195,0.039,0.261,0.116c0.066,0.078,0.099,0.172,0.099,0.279
						c0,0.061-0.03,0.139-0.09,0.234l-2.628,3.672c0.312-0.072,0.66-0.108,1.044-0.108c0.875,0,1.647,0.195,2.313,0.585
						c0.666,0.391,1.182,0.906,1.548,1.548c0.366,0.643,0.549,1.348,0.549,2.115c0,0.769-0.183,1.485-0.549,2.151
						c-0.366,0.666-0.897,1.197-1.593,1.593c-0.696,0.396-1.519,0.594-2.466,0.594C401.692,93.373,400.861,93.179,400.16,92.788z
						 M404.092,91.556c0.444-0.216,0.798-0.537,1.062-0.963s0.396-0.939,0.396-1.539c0-0.588-0.135-1.096-0.405-1.521
						s-0.627-0.75-1.071-0.972c-0.444-0.222-0.924-0.333-1.44-0.333s-0.996,0.111-1.44,0.333s-0.798,0.546-1.062,0.972
						s-0.396,0.934-0.396,1.521c0,0.6,0.132,1.113,0.396,1.539s0.618,0.747,1.062,0.963s0.924,0.323,1.44,0.323
						C403.163,91.879,403.648,91.771,404.092,91.556z"/>
					<path fill="#3A54F5" d="M413.821,93.076c-0.078-0.078-0.117-0.177-0.117-0.297v-8.532c0-0.119,0.039-0.219,0.117-0.297
						s0.177-0.117,0.297-0.117h0.756c0.12,0,0.216,0.039,0.288,0.117c0.072,0.078,0.108,0.178,0.108,0.297v0.612
						c0.648-0.804,1.524-1.206,2.628-1.206c1.32,0,2.256,0.552,2.808,1.656c0.288-0.504,0.699-0.906,1.233-1.206
						c0.534-0.3,1.131-0.45,1.791-0.45c0.984,0,1.788,0.336,2.412,1.008c0.624,0.673,0.936,1.645,0.936,2.916v5.202
						c0,0.12-0.039,0.219-0.117,0.297s-0.177,0.117-0.297,0.117h-0.774c-0.12,0-0.219-0.039-0.297-0.117s-0.117-0.177-0.117-0.297
						v-5.04c0-0.96-0.198-1.646-0.594-2.061s-0.918-0.621-1.566-0.621c-0.576,0-1.071,0.213-1.485,0.639s-0.621,1.107-0.621,2.043
						v5.04c0,0.12-0.039,0.219-0.117,0.297s-0.177,0.117-0.297,0.117h-0.792c-0.12,0-0.219-0.039-0.297-0.117
						c-0.078-0.078-0.117-0.177-0.117-0.297v-5.04c0-0.947-0.207-1.632-0.621-2.052c-0.414-0.42-0.927-0.63-1.539-0.63
						c-0.576,0-1.071,0.21-1.485,0.63s-0.621,1.098-0.621,2.034v5.058c0,0.12-0.04,0.219-0.117,0.297
						c-0.078,0.078-0.177,0.117-0.297,0.117h-0.792C413.999,93.193,413.899,93.154,413.821,93.076z"/>
				</g>
			</g>
		</g>
	</g>
	<g display="inline">
		<g id="POLYLINE_861_">
			
				<line fill="none" stroke="#3A54F5" stroke-width="2" stroke-linecap="round" stroke-linejoin="round" stroke-miterlimit="10" x1="545.809" y1="445.86" x2="528" y2="445.86"/>
		</g>
		<g id="LINE_48_">
			
				<line fill="none" stroke="#3A54F5" stroke-width="2" stroke-linecap="round" stroke-linejoin="round" stroke-miterlimit="10" x1="431" y1="445.86" x2="413.267" y2="445.86"/>
		</g>
		<g id="POLYLINE_860_">
			
				<polyline fill="none" stroke="#3A54F5" stroke-width="2" stroke-linecap="round" stroke-linejoin="round" stroke-miterlimit="10" points="
				419.896,452.488 413.267,445.86 419.896,439.232 			"/>
		</g>
		<g id="POLYLINE_859_">
			
				<polyline fill="none" stroke="#3A54F5" stroke-width="2" stroke-linecap="round" stroke-linejoin="round" stroke-miterlimit="10" points="
				539.182,439.232 545.809,445.86 539.182,452.488 			"/>
		</g>
		<g id="MTEXT_49_">
			<g>
				<g>
					<g>
						<path fill="#3A54F5" d="M441.072,450.977c-0.532-0.238-0.936-0.549-1.211-0.932c-0.275-0.382-0.422-0.778-0.441-1.189
							c0-0.084,0.028-0.151,0.084-0.203c0.056-0.051,0.126-0.077,0.21-0.077h0.63c0.103,0,0.187,0.021,0.252,0.063
							s0.117,0.123,0.154,0.245c0.121,0.476,0.385,0.812,0.791,1.008c0.406,0.195,0.884,0.294,1.435,0.294
							c0.672,0,1.206-0.161,1.603-0.483c0.396-0.322,0.595-0.781,0.595-1.379c0-1.139-0.695-1.708-2.086-1.708h-1.316
							c-0.094,0-0.17-0.03-0.231-0.091c-0.061-0.061-0.091-0.138-0.091-0.231v-0.363c0-0.141,0.051-0.262,0.154-0.364l2.73-3.024
							h-4.144c-0.093,0-0.17-0.027-0.231-0.084c-0.061-0.056-0.091-0.13-0.091-0.224v-0.504c0-0.103,0.03-0.185,0.091-0.245
							c0.061-0.061,0.138-0.091,0.231-0.091h5.544c0.103,0,0.184,0.03,0.245,0.091c0.061,0.061,0.091,0.143,0.091,0.245v0.462
							c0,0.103-0.047,0.21-0.14,0.322l-2.73,3.065h0.224c0.952,0.028,1.706,0.275,2.261,0.742c0.555,0.467,0.833,1.148,0.833,2.044
							c0,0.616-0.152,1.146-0.455,1.589c-0.304,0.443-0.726,0.784-1.267,1.022c-0.542,0.238-1.153,0.356-1.834,0.356
							C442.234,451.333,441.604,451.215,441.072,450.977z"/>
						<path fill="#3A54F5" d="M448.044,443.836c-0.038-0.051-0.051-0.123-0.042-0.217l0.308-1.96
							c0.037-0.271,0.168-0.406,0.392-0.406h0.896c0.065,0,0.119,0.023,0.161,0.07s0.063,0.103,0.063,0.168
							c0,0.094-0.014,0.168-0.042,0.225l-0.728,1.89c-0.046,0.103-0.098,0.18-0.154,0.23c-0.056,0.052-0.14,0.077-0.252,0.077
							h-0.434C448.137,443.913,448.081,443.888,448.044,443.836z"/>
						<path fill="#3A54F5" d="M454.945,454.015c-0.056-0.062-0.084-0.138-0.084-0.231v-14.812c0-0.094,0.028-0.171,0.084-0.231
							c0.056-0.061,0.131-0.091,0.224-0.091h0.518c0.093,0,0.17,0.03,0.231,0.091s0.091,0.138,0.091,0.231v14.812
							c0,0.094-0.031,0.17-0.091,0.231c-0.061,0.061-0.138,0.091-0.231,0.091h-0.518
							C455.076,454.105,455.001,454.075,454.945,454.015z"/>
						<path fill="#3A54F5" d="M461.532,451.103c-0.061-0.061-0.091-0.138-0.091-0.231v-0.966c0-0.093,0.03-0.173,0.091-0.238
							c0.061-0.064,0.138-0.098,0.231-0.098h0.966c0.093,0,0.17,0.033,0.231,0.098c0.061,0.065,0.091,0.146,0.091,0.238v0.966
							c0,0.094-0.03,0.171-0.091,0.231c-0.061,0.061-0.138,0.091-0.231,0.091h-0.966
							C461.67,451.193,461.593,451.163,461.532,451.103z"/>
						<path fill="#3A54F5" d="M465.872,451.103c-0.052-0.061-0.077-0.133-0.077-0.217c0-0.065,0.019-0.126,0.056-0.183l2.156-2.996
							c-0.224,0.057-0.485,0.084-0.784,0.084c-0.672-0.009-1.26-0.165-1.764-0.469c-0.504-0.303-0.889-0.7-1.155-1.189
							c-0.266-0.49-0.399-1.016-0.399-1.575c0-0.561,0.133-1.092,0.399-1.597c0.266-0.504,0.663-0.914,1.19-1.231
							s1.165-0.477,1.911-0.477s1.386,0.154,1.918,0.463c0.532,0.308,0.933,0.711,1.204,1.211c0.271,0.499,0.406,1.033,0.406,1.603
							c0,0.514-0.091,0.966-0.273,1.358c-0.182,0.392-0.422,0.798-0.721,1.218l-2.716,3.808c-0.065,0.084-0.128,0.152-0.189,0.203
							c-0.061,0.052-0.147,0.077-0.259,0.077h-0.7C465.991,451.193,465.923,451.163,465.872,451.103z M468.511,446.419
							c0.336-0.177,0.602-0.427,0.798-0.749c0.196-0.321,0.294-0.692,0.294-1.112c0-0.43-0.098-0.808-0.294-1.134
							c-0.196-0.327-0.462-0.579-0.798-0.757c-0.336-0.177-0.705-0.266-1.106-0.266c-0.392,0-0.754,0.089-1.085,0.266
							c-0.332,0.178-0.595,0.43-0.791,0.757c-0.196,0.326-0.294,0.704-0.294,1.134c0,0.42,0.098,0.791,0.294,1.112
							c0.196,0.322,0.457,0.572,0.784,0.749c0.327,0.178,0.69,0.267,1.092,0.267S468.175,446.597,468.511,446.419z"/>
						<path fill="#3A54F5" d="M475.273,451.103c-0.056-0.061-0.084-0.138-0.084-0.231v-7.896l-2.352,1.806
							c-0.065,0.056-0.136,0.084-0.21,0.084c-0.084,0-0.164-0.047-0.238-0.14l-0.336-0.435c-0.047-0.064-0.07-0.13-0.07-0.195
							c0-0.103,0.046-0.187,0.14-0.252l3.038-2.353c0.103-0.065,0.224-0.098,0.364-0.098h0.658c0.093,0,0.17,0.03,0.231,0.091
							c0.061,0.061,0.091,0.138,0.091,0.231v9.155c0,0.094-0.03,0.171-0.091,0.231c-0.061,0.061-0.138,0.091-0.231,0.091h-0.686
							C475.403,451.193,475.329,451.163,475.273,451.103z"/>
						<path fill="#3A54F5" d="M482.167,451.103c-0.061-0.061-0.091-0.138-0.091-0.231v-6.636c0-0.093,0.03-0.17,0.091-0.231
							c0.061-0.061,0.138-0.091,0.231-0.091h0.588c0.093,0,0.168,0.03,0.224,0.091c0.056,0.062,0.084,0.139,0.084,0.231v0.476
							c0.504-0.625,1.185-0.938,2.044-0.938c1.026,0,1.754,0.43,2.184,1.288c0.224-0.393,0.543-0.705,0.959-0.938
							c0.415-0.232,0.879-0.35,1.393-0.35c0.765,0,1.391,0.262,1.876,0.784c0.485,0.522,0.728,1.278,0.728,2.268v4.046
							c0,0.094-0.031,0.171-0.091,0.231s-0.138,0.091-0.231,0.091h-0.602c-0.093,0-0.17-0.03-0.231-0.091s-0.091-0.138-0.091-0.231
							v-3.92c0-0.746-0.154-1.281-0.462-1.603c-0.308-0.322-0.714-0.483-1.218-0.483c-0.448,0-0.833,0.166-1.155,0.497
							c-0.322,0.331-0.483,0.861-0.483,1.589v3.92c0,0.094-0.031,0.171-0.091,0.231s-0.138,0.091-0.231,0.091h-0.616
							c-0.094,0-0.17-0.03-0.231-0.091c-0.061-0.061-0.091-0.138-0.091-0.231v-3.92c0-0.737-0.161-1.269-0.483-1.596
							s-0.721-0.49-1.197-0.49c-0.448,0-0.833,0.163-1.155,0.49c-0.322,0.327-0.483,0.854-0.483,1.582v3.934
							c0,0.094-0.03,0.171-0.091,0.231c-0.061,0.061-0.138,0.091-0.231,0.091h-0.616
							C482.305,451.193,482.228,451.163,482.167,451.103z"/>
						<path fill="#3A54F5" d="M498.043,451.103c-0.061-0.061-0.091-0.138-0.091-0.231v-6.636c0-0.093,0.03-0.17,0.091-0.231
							c0.061-0.061,0.138-0.091,0.231-0.091h0.588c0.093,0,0.168,0.03,0.224,0.091c0.056,0.062,0.084,0.139,0.084,0.231v0.476
							c0.504-0.625,1.185-0.938,2.044-0.938c1.026,0,1.754,0.43,2.184,1.288c0.224-0.393,0.543-0.705,0.959-0.938
							c0.415-0.232,0.879-0.35,1.393-0.35c0.765,0,1.391,0.262,1.876,0.784c0.485,0.522,0.728,1.278,0.728,2.268v4.046
							c0,0.094-0.031,0.171-0.091,0.231s-0.138,0.091-0.231,0.091h-0.602c-0.093,0-0.17-0.03-0.231-0.091s-0.091-0.138-0.091-0.231
							v-3.92c0-0.746-0.154-1.281-0.462-1.603c-0.308-0.322-0.714-0.483-1.218-0.483c-0.448,0-0.833,0.166-1.155,0.497
							c-0.322,0.331-0.483,0.861-0.483,1.589v3.92c0,0.094-0.031,0.171-0.091,0.231s-0.138,0.091-0.231,0.091h-0.616
							c-0.094,0-0.17-0.03-0.231-0.091c-0.061-0.061-0.091-0.138-0.091-0.231v-3.92c0-0.737-0.161-1.269-0.483-1.596
							s-0.721-0.49-1.197-0.49c-0.448,0-0.833,0.163-1.155,0.49c-0.322,0.327-0.483,0.854-0.483,1.582v3.934
							c0,0.094-0.03,0.171-0.091,0.231c-0.061,0.061-0.138,0.091-0.231,0.091h-0.616
							C498.181,451.193,498.104,451.163,498.043,451.103z"/>
						<path fill="#3A54F5" d="M510.363,442.45c-0.061-0.061-0.091-0.138-0.091-0.23v-0.729c0-0.093,0.03-0.173,0.091-0.238
							c0.061-0.064,0.138-0.098,0.231-0.098h0.826c0.093,0,0.173,0.033,0.238,0.098c0.065,0.065,0.098,0.146,0.098,0.238v0.729
							c0,0.093-0.033,0.17-0.098,0.23c-0.065,0.061-0.145,0.091-0.238,0.091h-0.826C510.5,442.541,510.423,442.511,510.363,442.45z
							 M510.475,451.103c-0.061-0.061-0.091-0.138-0.091-0.231v-6.636c0-0.093,0.03-0.17,0.091-0.231
							c0.061-0.061,0.138-0.091,0.231-0.091h0.616c0.093,0,0.17,0.03,0.231,0.091c0.061,0.062,0.091,0.139,0.091,0.231v6.636
							c0,0.094-0.03,0.171-0.091,0.231c-0.061,0.061-0.138,0.091-0.231,0.091h-0.616
							C510.613,451.193,510.536,451.163,510.475,451.103z"/>
						<path fill="#3A54F5" d="M513.835,451.103c-0.061-0.061-0.091-0.138-0.091-0.231v-6.636c0-0.093,0.03-0.17,0.091-0.231
							c0.061-0.061,0.138-0.091,0.231-0.091h0.602c0.103,0,0.182,0.028,0.238,0.084c0.056,0.057,0.084,0.136,0.084,0.238v0.616
							c0.28-0.346,0.604-0.611,0.973-0.798s0.828-0.28,1.379-0.28c0.896,0,1.591,0.287,2.086,0.861
							c0.495,0.573,0.742,1.332,0.742,2.274v3.962c0,0.094-0.03,0.171-0.091,0.231c-0.061,0.061-0.138,0.091-0.231,0.091h-0.644
							c-0.093,0-0.17-0.03-0.231-0.091s-0.091-0.138-0.091-0.231v-3.878c0-0.672-0.164-1.194-0.49-1.567
							c-0.327-0.374-0.793-0.561-1.4-0.561c-0.597,0-1.073,0.189-1.428,0.567c-0.355,0.378-0.532,0.898-0.532,1.561v3.878
							c0,0.094-0.03,0.171-0.091,0.231c-0.061,0.061-0.138,0.091-0.231,0.091h-0.644
							C513.973,451.193,513.896,451.163,513.835,451.103z"/>
						<path fill="#3A54F5" d="M522.193,451.103c-0.061-0.061-0.091-0.138-0.091-0.231v-0.966c0-0.093,0.03-0.173,0.091-0.238
							c0.061-0.064,0.138-0.098,0.231-0.098h0.966c0.093,0,0.17,0.033,0.231,0.098c0.061,0.065,0.091,0.146,0.091,0.238v0.966
							c0,0.094-0.03,0.171-0.091,0.231c-0.061,0.061-0.138,0.091-0.231,0.091h-0.966
							C522.331,451.193,522.253,451.163,522.193,451.103z"/>
						<path fill="#3A54F5" d="M417.615,469.776c-0.532-0.238-0.936-0.549-1.211-0.932c-0.275-0.382-0.422-0.778-0.441-1.189
							c0-0.084,0.028-0.151,0.084-0.203c0.056-0.051,0.126-0.077,0.21-0.077h0.63c0.103,0,0.187,0.021,0.252,0.063
							s0.117,0.123,0.154,0.245c0.121,0.476,0.385,0.812,0.791,1.008c0.406,0.195,0.884,0.294,1.435,0.294
							c0.672,0,1.206-0.161,1.603-0.483c0.396-0.322,0.595-0.781,0.595-1.379c0-1.139-0.695-1.708-2.086-1.708h-1.316
							c-0.094,0-0.17-0.03-0.231-0.091c-0.061-0.061-0.091-0.138-0.091-0.231v-0.363c0-0.141,0.051-0.262,0.154-0.364l2.73-3.024
							h-4.144c-0.093,0-0.17-0.027-0.231-0.084c-0.061-0.056-0.091-0.13-0.091-0.224v-0.504c0-0.103,0.03-0.185,0.091-0.245
							c0.061-0.061,0.138-0.091,0.231-0.091h5.544c0.103,0,0.184,0.03,0.245,0.091c0.061,0.061,0.091,0.143,0.091,0.245v0.462
							c0,0.103-0.047,0.21-0.14,0.322l-2.73,3.065h0.224c0.952,0.028,1.706,0.275,2.261,0.742c0.555,0.467,0.833,1.148,0.833,2.044
							c0,0.616-0.152,1.146-0.455,1.589c-0.304,0.443-0.726,0.784-1.267,1.022c-0.542,0.238-1.153,0.356-1.834,0.356
							C418.777,470.133,418.147,470.015,417.615,469.776z"/>
						<path fill="#3A54F5" d="M424.587,462.636c-0.038-0.051-0.051-0.123-0.042-0.217l0.308-1.96
							c0.037-0.271,0.168-0.406,0.392-0.406h0.896c0.065,0,0.119,0.023,0.161,0.07s0.063,0.103,0.063,0.168
							c0,0.094-0.014,0.168-0.042,0.225l-0.728,1.89c-0.046,0.103-0.098,0.18-0.154,0.23c-0.056,0.052-0.14,0.077-0.252,0.077
							h-0.434C424.681,462.713,424.625,462.688,424.587,462.636z"/>
						<path fill="#3A54F5" d="M430.551,469.902c-0.056-0.061-0.084-0.138-0.084-0.231v-7.896l-2.352,1.806
							c-0.065,0.056-0.136,0.084-0.21,0.084c-0.084,0-0.164-0.047-0.238-0.14l-0.336-0.435c-0.047-0.064-0.07-0.13-0.07-0.195
							c0-0.103,0.046-0.187,0.14-0.252l3.038-2.353c0.103-0.065,0.224-0.098,0.364-0.098h0.658c0.093,0,0.17,0.03,0.231,0.091
							c0.061,0.061,0.091,0.138,0.091,0.231v9.155c0,0.094-0.03,0.171-0.091,0.231c-0.061,0.061-0.138,0.091-0.231,0.091h-0.686
							C430.682,469.993,430.607,469.963,430.551,469.902z"/>
						<path fill="#3A54F5" d="M434.646,469.076c-0.556-0.705-0.852-1.626-0.889-2.765l-0.014-1.204l0.014-1.246
							c0.028-1.129,0.324-2.046,0.889-2.751c0.564-0.705,1.444-1.058,2.639-1.058c1.204,0,2.088,0.353,2.653,1.058
							c0.564,0.705,0.861,1.622,0.889,2.751c0.009,0.262,0.014,0.677,0.014,1.246c0,0.551-0.005,0.952-0.014,1.204
							c-0.037,1.139-0.333,2.06-0.889,2.765c-0.556,0.705-1.44,1.057-2.653,1.057C436.081,470.133,435.201,469.781,434.646,469.076z
							 M438.909,468.257c0.364-0.476,0.555-1.147,0.574-2.016c0.009-0.271,0.014-0.658,0.014-1.162c0-0.513-0.005-0.896-0.014-1.147
							c-0.019-0.859-0.212-1.528-0.581-2.01c-0.369-0.48-0.908-0.721-1.617-0.721s-1.246,0.24-1.61,0.721
							c-0.364,0.481-0.555,1.15-0.574,2.01l-0.014,1.147l0.014,1.162c0.019,0.868,0.21,1.54,0.574,2.016
							c0.364,0.477,0.9,0.714,1.61,0.714C438.003,468.971,438.545,468.733,438.909,468.257z"/>
						<path fill="#3A54F5" d="M442.57,462.629c-0.042-0.056-0.054-0.126-0.035-0.21l0.308-1.96c0.037-0.271,0.168-0.406,0.392-0.406
							h0.896c0.065,0,0.119,0.023,0.161,0.07s0.063,0.103,0.063,0.168c0,0.094-0.014,0.168-0.042,0.225l-0.728,1.89
							c-0.046,0.103-0.098,0.18-0.154,0.23c-0.056,0.052-0.14,0.077-0.252,0.077h-0.434
							C442.67,462.713,442.612,462.686,442.57,462.629z M444.768,462.629c-0.042-0.056-0.054-0.126-0.035-0.21l0.308-1.96
							c0.037-0.271,0.168-0.406,0.392-0.406h0.896c0.065,0,0.119,0.023,0.161,0.07s0.063,0.103,0.063,0.168
							c0,0.094-0.014,0.168-0.042,0.225l-0.728,1.89c-0.047,0.103-0.098,0.18-0.154,0.23c-0.056,0.052-0.14,0.077-0.252,0.077
							h-0.434C444.868,462.713,444.81,462.686,444.768,462.629z"/>
						<path fill="#3A54F5" d="M451.676,472.814c-0.056-0.062-0.084-0.138-0.084-0.231v-14.812c0-0.094,0.028-0.171,0.084-0.231
							c0.056-0.061,0.131-0.091,0.224-0.091h0.518c0.093,0,0.17,0.03,0.231,0.091s0.091,0.138,0.091,0.231v14.812
							c0,0.094-0.031,0.17-0.091,0.231c-0.061,0.061-0.138,0.091-0.231,0.091H451.9
							C451.807,472.905,451.732,472.875,451.676,472.814z"/>
						<path fill="#3A54F5" d="M460.86,469.902c-0.056-0.061-0.084-0.138-0.084-0.231v-7.896l-2.352,1.806
							c-0.065,0.056-0.136,0.084-0.21,0.084c-0.084,0-0.164-0.047-0.238-0.14l-0.336-0.435c-0.047-0.064-0.07-0.13-0.07-0.195
							c0-0.103,0.046-0.187,0.14-0.252l3.038-2.353c0.103-0.065,0.224-0.098,0.364-0.098h0.658c0.093,0,0.17,0.03,0.231,0.091
							c0.061,0.061,0.091,0.138,0.091,0.231v9.155c0,0.094-0.03,0.171-0.091,0.231c-0.061,0.061-0.138,0.091-0.231,0.091h-0.686
							C460.991,469.993,460.916,469.963,460.86,469.902z"/>
						<path fill="#3A54F5" d="M464.213,469.902c-0.061-0.061-0.091-0.138-0.091-0.231v-0.966c0-0.093,0.03-0.173,0.091-0.238
							c0.061-0.064,0.138-0.098,0.231-0.098h0.966c0.093,0,0.17,0.033,0.231,0.098c0.061,0.065,0.091,0.146,0.091,0.238v0.966
							c0,0.094-0.03,0.171-0.091,0.231c-0.061,0.061-0.138,0.091-0.231,0.091h-0.966
							C464.351,469.993,464.273,469.963,464.213,469.902z"/>
						<path fill="#3A54F5" d="M469.372,469.902c-0.056-0.061-0.084-0.138-0.084-0.231v-7.896l-2.352,1.806
							c-0.065,0.056-0.136,0.084-0.21,0.084c-0.084,0-0.164-0.047-0.238-0.14l-0.336-0.435c-0.047-0.064-0.07-0.13-0.07-0.195
							c0-0.103,0.046-0.187,0.14-0.252l3.038-2.353c0.103-0.065,0.224-0.098,0.364-0.098h0.658c0.093,0,0.17,0.03,0.231,0.091
							c0.061,0.061,0.091,0.138,0.091,0.231v9.155c0,0.094-0.03,0.171-0.091,0.231c-0.061,0.061-0.138,0.091-0.231,0.091h-0.686
							C469.502,469.993,469.428,469.963,469.372,469.902z"/>
						<path fill="#3A54F5" d="M473.579,469.902c-0.051-0.061-0.077-0.133-0.077-0.217l0.028-0.126l3.5-8.19h-4.62
							c-0.093,0-0.17-0.03-0.231-0.091c-0.061-0.061-0.091-0.138-0.091-0.231v-0.518c0-0.103,0.028-0.185,0.084-0.245
							c0.056-0.061,0.135-0.091,0.238-0.091h5.712c0.103,0,0.182,0.03,0.238,0.091c0.056,0.061,0.084,0.143,0.084,0.245v0.476
							c0,0.168-0.038,0.351-0.112,0.546l-3.458,8.093c-0.047,0.103-0.098,0.187-0.154,0.252s-0.135,0.098-0.238,0.098h-0.7
							C473.698,469.993,473.63,469.963,473.579,469.902z"/>
						<path fill="#3A54F5" d="M483.407,469.902c-0.061-0.061-0.091-0.138-0.091-0.231v-6.636c0-0.093,0.03-0.17,0.091-0.231
							c0.061-0.061,0.138-0.091,0.231-0.091h0.588c0.093,0,0.168,0.03,0.224,0.091c0.056,0.062,0.084,0.139,0.084,0.231v0.476
							c0.504-0.625,1.185-0.938,2.044-0.938c1.026,0,1.754,0.43,2.184,1.288c0.224-0.393,0.543-0.705,0.959-0.938
							c0.415-0.232,0.879-0.35,1.393-0.35c0.765,0,1.391,0.262,1.876,0.784c0.485,0.522,0.728,1.278,0.728,2.268v4.046
							c0,0.094-0.031,0.171-0.091,0.231s-0.138,0.091-0.231,0.091h-0.602c-0.093,0-0.17-0.03-0.231-0.091s-0.091-0.138-0.091-0.231
							v-3.92c0-0.746-0.154-1.281-0.462-1.603c-0.308-0.322-0.714-0.483-1.218-0.483c-0.448,0-0.833,0.166-1.155,0.497
							c-0.322,0.331-0.483,0.861-0.483,1.589v3.92c0,0.094-0.031,0.171-0.091,0.231s-0.138,0.091-0.231,0.091h-0.616
							c-0.094,0-0.17-0.03-0.231-0.091c-0.061-0.061-0.091-0.138-0.091-0.231v-3.92c0-0.737-0.161-1.269-0.483-1.596
							s-0.721-0.49-1.197-0.49c-0.448,0-0.833,0.163-1.155,0.49c-0.322,0.327-0.483,0.854-0.483,1.582v3.934
							c0,0.094-0.03,0.171-0.091,0.231c-0.061,0.061-0.138,0.091-0.231,0.091h-0.616
							C483.544,469.993,483.467,469.963,483.407,469.902z"/>
						<path fill="#3A54F5" d="M500.052,469.818c-0.443-0.21-0.772-0.45-0.987-0.722c-0.215-0.271-0.322-0.494-0.322-0.672
							c0-0.093,0.033-0.165,0.098-0.217c0.065-0.051,0.135-0.077,0.21-0.077h0.588c0.056,0,0.1,0.01,0.133,0.028
							s0.077,0.061,0.133,0.126c0.214,0.262,0.455,0.467,0.721,0.616c0.266,0.149,0.623,0.224,1.071,0.224
							c0.504,0,0.907-0.093,1.211-0.28c0.303-0.187,0.455-0.457,0.455-0.812c0-0.233-0.065-0.42-0.196-0.56
							c-0.131-0.141-0.348-0.267-0.651-0.379c-0.303-0.111-0.754-0.232-1.351-0.363c-0.812-0.178-1.386-0.435-1.722-0.771
							c-0.336-0.336-0.504-0.77-0.504-1.302c0-0.345,0.103-0.679,0.308-1.001c0.205-0.322,0.511-0.583,0.917-0.784
							c0.406-0.2,0.889-0.301,1.449-0.301c0.588,0,1.089,0.098,1.505,0.294c0.415,0.196,0.728,0.425,0.938,0.686
							c0.21,0.262,0.315,0.481,0.315,0.658c0,0.084-0.03,0.154-0.091,0.21c-0.061,0.057-0.133,0.084-0.217,0.084h-0.532
							c-0.131,0-0.224-0.051-0.28-0.153c-0.159-0.178-0.292-0.315-0.399-0.413c-0.107-0.099-0.264-0.183-0.469-0.252
							c-0.206-0.07-0.462-0.105-0.77-0.105c-0.458,0-0.808,0.096-1.05,0.287s-0.364,0.446-0.364,0.763
							c0,0.196,0.051,0.362,0.154,0.497c0.103,0.136,0.299,0.262,0.588,0.378c0.29,0.117,0.719,0.236,1.288,0.357
							c0.887,0.187,1.514,0.453,1.883,0.798c0.368,0.346,0.553,0.789,0.553,1.33c0,0.401-0.114,0.766-0.343,1.092
							c-0.229,0.327-0.569,0.584-1.022,0.771c-0.453,0.187-0.992,0.279-1.617,0.279
							C501.039,470.133,500.495,470.028,500.052,469.818z"/>
						<path fill="#3A54F5" d="M506.408,469.902c-0.061-0.061-0.091-0.138-0.091-0.231v-9.296c0-0.103,0.03-0.182,0.091-0.238
							c0.061-0.056,0.138-0.084,0.231-0.084h0.644c0.103,0,0.182,0.028,0.238,0.084c0.056,0.057,0.084,0.136,0.084,0.238v3.262
							c0.271-0.345,0.59-0.608,0.959-0.791c0.369-0.182,0.824-0.272,1.365-0.272c0.896,0,1.594,0.287,2.093,0.861
							c0.499,0.573,0.749,1.332,0.749,2.274v3.962c0,0.094-0.03,0.171-0.091,0.231c-0.061,0.061-0.138,0.091-0.231,0.091h-0.658
							c-0.093,0-0.17-0.03-0.231-0.091c-0.061-0.061-0.091-0.138-0.091-0.231v-3.878c0-0.672-0.163-1.194-0.49-1.567
							c-0.327-0.374-0.798-0.561-1.414-0.561c-0.598,0-1.073,0.189-1.428,0.567c-0.354,0.378-0.532,0.898-0.532,1.561v3.878
							c0,0.094-0.03,0.171-0.091,0.231c-0.061,0.061-0.138,0.091-0.231,0.091h-0.644
							C506.546,469.993,506.469,469.963,506.408,469.902z"/>
						<path fill="#3A54F5" d="M515.382,469.266c-0.555-0.579-0.852-1.349-0.889-2.311l-0.014-0.602l0.014-0.603
							c0.037-0.961,0.338-1.731,0.903-2.31c0.564-0.579,1.351-0.868,2.359-0.868c1.008,0,1.794,0.289,2.359,0.868
							c0.565,0.578,0.866,1.349,0.903,2.31c0.019,0.206,0.028,0.406,0.028,0.603c0,0.195-0.009,0.396-0.028,0.602
							c-0.038,0.962-0.334,1.731-0.889,2.311c-0.555,0.578-1.346,0.867-2.373,0.867S515.937,469.844,515.382,469.266z
							 M519.176,468.517c0.35-0.379,0.539-0.922,0.567-1.632c0.009-0.093,0.014-0.271,0.014-0.531c0-0.262-0.005-0.438-0.014-0.532
							c-0.028-0.709-0.217-1.253-0.567-1.631c-0.35-0.378-0.824-0.567-1.421-0.567s-1.071,0.189-1.421,0.567
							s-0.539,0.922-0.567,1.631l-0.014,0.532l0.014,0.531c0.028,0.71,0.217,1.253,0.567,1.632c0.35,0.378,0.824,0.566,1.421,0.566
							S518.826,468.895,519.176,468.517z"/>
						<path fill="#3A54F5" d="M524.251,469.909c-0.065-0.056-0.117-0.145-0.154-0.266l-1.988-6.496l-0.028-0.141
							c0-0.084,0.028-0.153,0.084-0.21c0.056-0.056,0.126-0.084,0.21-0.084h0.574c0.093,0,0.17,0.026,0.231,0.077
							c0.061,0.052,0.095,0.101,0.105,0.147l1.582,5.348l1.68-5.278c0.019-0.074,0.061-0.142,0.126-0.203
							c0.065-0.061,0.154-0.091,0.266-0.091h0.448c0.112,0,0.2,0.03,0.266,0.091c0.065,0.062,0.107,0.129,0.126,0.203l1.68,5.278
							l1.582-5.348c0.009-0.047,0.044-0.096,0.105-0.147c0.061-0.051,0.138-0.077,0.231-0.077h0.574c0.084,0,0.154,0.028,0.21,0.084
							c0.056,0.057,0.084,0.126,0.084,0.21l-0.028,0.141l-1.988,6.496c-0.038,0.121-0.089,0.21-0.154,0.266
							c-0.065,0.056-0.164,0.084-0.294,0.084h-0.504c-0.243,0-0.401-0.116-0.476-0.35l-1.638-5.068l-1.638,5.068
							c-0.075,0.233-0.233,0.35-0.476,0.35h-0.504C524.414,469.993,524.316,469.965,524.251,469.909z"/>
						<path fill="#3A54F5" d="M533.904,469.902c-0.061-0.061-0.091-0.138-0.091-0.231v-6.636c0-0.093,0.03-0.17,0.091-0.231
							c0.061-0.061,0.138-0.091,0.231-0.091h0.602c0.103,0,0.182,0.028,0.238,0.084c0.056,0.057,0.084,0.136,0.084,0.238v0.616
							c0.28-0.346,0.604-0.611,0.973-0.798s0.828-0.28,1.379-0.28c0.896,0,1.591,0.287,2.086,0.861
							c0.495,0.573,0.742,1.332,0.742,2.274v3.962c0,0.094-0.03,0.171-0.091,0.231c-0.061,0.061-0.138,0.091-0.231,0.091h-0.644
							c-0.093,0-0.17-0.03-0.231-0.091s-0.091-0.138-0.091-0.231v-3.878c0-0.672-0.164-1.194-0.49-1.567
							c-0.327-0.374-0.793-0.561-1.4-0.561c-0.597,0-1.073,0.189-1.428,0.567c-0.355,0.378-0.532,0.898-0.532,1.561v3.878
							c0,0.094-0.03,0.171-0.091,0.231c-0.061,0.061-0.138,0.091-0.231,0.091h-0.644
							C534.042,469.993,533.965,469.963,533.904,469.902z"/>
					</g>
				</g>
			</g>
		</g>
	</g>
	<g display="inline">
		<g id="POLYLINE_858_">
			
				<line fill="none" stroke="#3A54F5" stroke-width="2" stroke-linecap="round" stroke-linejoin="round" stroke-miterlimit="10" x1="113.744" y1="571.562" x2="113.744" y2="348.185"/>
		</g>
		<g id="LINE_47_">
			
				<line fill="none" stroke="#3A54F5" stroke-width="2" stroke-linecap="round" stroke-linejoin="round" stroke-miterlimit="10" x1="113.744" y1="298.219" x2="113.744" y2="111.877"/>
		</g>
		<g id="POLYLINE_857_">
			
				<polyline fill="none" stroke="#3A54F5" stroke-width="2" stroke-linecap="round" stroke-linejoin="round" stroke-miterlimit="10" points="
				107.116,118.506 113.744,111.877 120.372,118.506 			"/>
		</g>
		<g id="POLYLINE_856_">
			
				<polyline fill="none" stroke="#3A54F5" stroke-width="2" stroke-linecap="round" stroke-linejoin="round" stroke-miterlimit="10" points="
				120.372,564.935 113.744,571.562 107.116,564.935 			"/>
		</g>
		<g id="MTEXT_48_">
			<g>
				<g>
					<g>
						<path fill="#3A54F5" d="M87.141,319.822c-0.072-0.078-0.108-0.177-0.108-0.297v-10.152l-3.024,2.322
							c-0.084,0.072-0.174,0.108-0.27,0.108c-0.108,0-0.21-0.061-0.306-0.181l-0.432-0.558c-0.06-0.084-0.09-0.168-0.09-0.252
							c0-0.132,0.06-0.24,0.18-0.324l3.906-3.023c0.132-0.084,0.288-0.126,0.468-0.126h0.846c0.12,0,0.219,0.039,0.297,0.116
							c0.078,0.078,0.117,0.178,0.117,0.298v11.771c0,0.12-0.039,0.219-0.117,0.297s-0.177,0.117-0.297,0.117h-0.882
							C87.309,319.939,87.213,319.9,87.141,319.822z"/>
						<path fill="#3A54F5" d="M91.11,319.822c-0.078-0.078-0.117-0.177-0.117-0.297v-0.54c0-0.275,0.15-0.54,0.45-0.792l3.924-3.906
							c0.888-0.756,1.5-1.374,1.836-1.854s0.504-0.99,0.504-1.53c0-0.708-0.198-1.263-0.594-1.665
							c-0.396-0.401-0.972-0.603-1.728-0.603c-0.72,0-1.29,0.21-1.71,0.63s-0.678,0.984-0.774,1.691
							c-0.024,0.133-0.084,0.234-0.18,0.307s-0.192,0.107-0.288,0.107h-0.864c-0.108,0-0.198-0.035-0.27-0.107
							s-0.108-0.156-0.108-0.252c0.024-0.636,0.195-1.251,0.513-1.846c0.318-0.594,0.789-1.079,1.413-1.458
							c0.624-0.378,1.38-0.566,2.268-0.566c1.344,0,2.355,0.351,3.033,1.053c0.678,0.702,1.017,1.593,1.017,2.673
							c0,0.756-0.183,1.438-0.549,2.043c-0.366,0.606-0.939,1.245-1.719,1.917l-3.546,3.601h5.67c0.132,0,0.234,0.036,0.306,0.107
							c0.072,0.072,0.108,0.175,0.108,0.307v0.684c0,0.12-0.04,0.219-0.117,0.297c-0.078,0.078-0.177,0.117-0.297,0.117h-7.884
							C91.287,319.939,91.188,319.9,91.11,319.822z"/>
						<path fill="#3A54F5" d="M101.721,310.48c-0.048-0.065-0.066-0.159-0.054-0.279l0.396-2.52
							c0.048-0.348,0.216-0.522,0.504-0.522h1.152c0.083,0,0.153,0.03,0.207,0.09c0.054,0.061,0.081,0.133,0.081,0.217
							c0,0.12-0.018,0.216-0.054,0.288l-0.936,2.43c-0.06,0.132-0.126,0.231-0.198,0.297c-0.072,0.066-0.18,0.099-0.324,0.099
							h-0.558C101.84,310.579,101.769,310.547,101.721,310.48z"/>
						<path fill="#3A54F5" d="M111.647,319.822c-0.078-0.078-0.117-0.177-0.117-0.297v-2.628h-5.85c-0.12,0-0.219-0.039-0.297-0.117
							s-0.117-0.177-0.117-0.297v-0.666c0-0.168,0.066-0.348,0.198-0.54l5.418-7.632c0.06-0.096,0.15-0.171,0.27-0.225
							c0.12-0.055,0.252-0.081,0.396-0.081h1.224c0.132,0,0.234,0.035,0.306,0.107c0.072,0.072,0.108,0.174,0.108,0.307v7.632h1.638
							c0.12,0,0.219,0.039,0.297,0.117c0.078,0.078,0.117,0.177,0.117,0.297v0.684c0,0.12-0.039,0.219-0.117,0.297
							c-0.078,0.078-0.177,0.117-0.297,0.117h-1.638v2.628c0,0.12-0.039,0.219-0.117,0.297s-0.177,0.117-0.297,0.117h-0.828
							C111.824,319.939,111.726,319.9,111.647,319.822z M107.139,315.422h4.41v-6.265L107.139,315.422z"/>
						<path fill="#3A54F5" d="M116.921,310.472c-0.054-0.072-0.069-0.162-0.045-0.271l0.396-2.52
							c0.048-0.348,0.216-0.522,0.504-0.522h1.152c0.083,0,0.153,0.03,0.207,0.09c0.054,0.061,0.081,0.133,0.081,0.217
							c0,0.12-0.018,0.216-0.054,0.288l-0.936,2.43c-0.06,0.132-0.126,0.231-0.198,0.297c-0.072,0.066-0.18,0.099-0.324,0.099
							h-0.558C117.05,310.579,116.976,310.543,116.921,310.472z M119.748,310.472c-0.054-0.072-0.069-0.162-0.045-0.271l0.396-2.52
							c0.048-0.348,0.216-0.522,0.504-0.522h1.152c0.084,0,0.153,0.03,0.207,0.09c0.054,0.061,0.081,0.133,0.081,0.217
							c0,0.12-0.018,0.216-0.054,0.288l-0.936,2.43c-0.061,0.132-0.126,0.231-0.198,0.297c-0.072,0.066-0.18,0.099-0.324,0.099
							h-0.558C119.876,310.579,119.802,310.543,119.748,310.472z"/>
						<path fill="#3A54F5" d="M71.085,339.26c-0.684-0.306-1.203-0.704-1.557-1.196s-0.543-1.002-0.567-1.53
							c0-0.108,0.036-0.195,0.108-0.261c0.072-0.066,0.162-0.1,0.27-0.1h0.81c0.132,0,0.24,0.027,0.324,0.081
							c0.083,0.054,0.15,0.159,0.198,0.315c0.156,0.611,0.495,1.044,1.017,1.296s1.137,0.378,1.845,0.378
							c0.864,0,1.551-0.207,2.061-0.621c0.51-0.414,0.765-1.005,0.765-1.773c0-1.464-0.894-2.195-2.682-2.195h-1.692
							c-0.12,0-0.219-0.039-0.297-0.117s-0.117-0.177-0.117-0.297v-0.468c0-0.181,0.066-0.336,0.198-0.469l3.51-3.888h-5.328
							c-0.12,0-0.219-0.036-0.297-0.108c-0.078-0.071-0.117-0.168-0.117-0.287v-0.648c0-0.132,0.039-0.237,0.117-0.315
							c0.078-0.077,0.177-0.116,0.297-0.116h7.128c0.132,0,0.237,0.039,0.315,0.116c0.078,0.078,0.117,0.184,0.117,0.315v0.594
							c0,0.133-0.061,0.271-0.18,0.414l-3.51,3.942h0.288c1.224,0.036,2.193,0.354,2.907,0.954c0.714,0.6,1.071,1.476,1.071,2.628
							c0,0.792-0.195,1.473-0.585,2.043c-0.39,0.57-0.933,1.008-1.629,1.313c-0.696,0.307-1.482,0.459-2.358,0.459
							C72.579,339.719,71.769,339.566,71.085,339.26z"/>
						<path fill="#3A54F5" d="M80.292,339.422c-0.078-0.078-0.117-0.177-0.117-0.297v-1.242c0-0.119,0.039-0.222,0.117-0.306
							s0.177-0.126,0.297-0.126h1.242c0.12,0,0.219,0.042,0.297,0.126s0.117,0.187,0.117,0.306v1.242
							c0,0.12-0.039,0.219-0.117,0.297s-0.177,0.117-0.297,0.117h-1.242C80.469,339.539,80.37,339.5,80.292,339.422z"/>
						<path fill="#3A54F5" d="M85.35,339.422c-0.066-0.078-0.099-0.171-0.099-0.279l0.036-0.161l4.5-10.53h-5.94
							c-0.12,0-0.219-0.039-0.297-0.117c-0.078-0.078-0.117-0.177-0.117-0.297v-0.666c0-0.132,0.036-0.237,0.108-0.315
							c0.072-0.077,0.174-0.116,0.306-0.116h7.344c0.132,0,0.234,0.039,0.306,0.116c0.072,0.078,0.108,0.184,0.108,0.315v0.612
							c0,0.216-0.048,0.449-0.144,0.702l-4.446,10.403c-0.06,0.133-0.126,0.24-0.198,0.324c-0.072,0.084-0.174,0.126-0.306,0.126
							h-0.9C85.502,339.539,85.416,339.5,85.35,339.422z"/>
						<path fill="#3A54F5" d="M94.566,339.134c-0.702-0.39-1.236-0.915-1.602-1.575c-0.366-0.659-0.549-1.379-0.549-2.159
							c0-1.032,0.414-2.136,1.242-3.312l3.438-4.788c0.012-0.012,0.045-0.054,0.099-0.126c0.054-0.072,0.123-0.129,0.207-0.171
							c0.083-0.042,0.18-0.062,0.288-0.062h0.882c0.108,0,0.195,0.039,0.261,0.116c0.066,0.078,0.099,0.172,0.099,0.279
							c0,0.061-0.03,0.139-0.09,0.234l-2.628,3.672c0.312-0.072,0.66-0.108,1.044-0.108c0.875,0,1.647,0.195,2.313,0.585
							c0.666,0.391,1.182,0.906,1.548,1.548c0.366,0.643,0.549,1.348,0.549,2.115c0,0.769-0.183,1.485-0.549,2.151
							c-0.366,0.666-0.897,1.197-1.593,1.593c-0.696,0.396-1.519,0.594-2.466,0.594C96.099,339.719,95.268,339.524,94.566,339.134z
							 M98.499,337.901c0.444-0.216,0.798-0.537,1.062-0.963s0.396-0.939,0.396-1.539c0-0.588-0.135-1.096-0.405-1.521
							s-0.627-0.75-1.071-0.972c-0.444-0.222-0.924-0.333-1.44-0.333s-0.996,0.111-1.44,0.333s-0.798,0.546-1.062,0.972
							s-0.396,0.934-0.396,1.521c0,0.6,0.132,1.113,0.396,1.539s0.618,0.747,1.062,0.963s0.924,0.323,1.44,0.323
							C97.569,338.225,98.055,338.117,98.499,337.901z"/>
						<path fill="#3A54F5" d="M108.228,339.422c-0.078-0.078-0.117-0.177-0.117-0.297v-8.532c0-0.119,0.039-0.219,0.117-0.297
							s0.177-0.117,0.297-0.117h0.756c0.12,0,0.216,0.039,0.288,0.117c0.072,0.078,0.108,0.178,0.108,0.297v0.612
							c0.648-0.804,1.524-1.206,2.628-1.206c1.32,0,2.256,0.552,2.808,1.656c0.288-0.504,0.699-0.906,1.233-1.206
							c0.534-0.3,1.131-0.45,1.791-0.45c0.984,0,1.788,0.336,2.412,1.008c0.624,0.673,0.936,1.645,0.936,2.916v5.202
							c0,0.12-0.039,0.219-0.117,0.297s-0.177,0.117-0.297,0.117h-0.774c-0.12,0-0.219-0.039-0.297-0.117s-0.117-0.177-0.117-0.297
							v-5.04c0-0.96-0.198-1.646-0.594-2.061s-0.918-0.621-1.566-0.621c-0.576,0-1.071,0.213-1.485,0.639s-0.621,1.107-0.621,2.043
							v5.04c0,0.12-0.039,0.219-0.117,0.297s-0.177,0.117-0.297,0.117h-0.792c-0.12,0-0.219-0.039-0.297-0.117
							c-0.078-0.078-0.117-0.177-0.117-0.297v-5.04c0-0.947-0.207-1.632-0.621-2.052c-0.414-0.42-0.927-0.63-1.539-0.63
							c-0.576,0-1.071,0.21-1.485,0.63s-0.621,1.098-0.621,2.034v5.058c0,0.12-0.04,0.219-0.117,0.297
							c-0.078,0.078-0.177,0.117-0.297,0.117h-0.792C108.405,339.539,108.306,339.5,108.228,339.422z"/>
					</g>
				</g>
			</g>
		</g>
	</g>
	<g display="inline">
		<g id="POLYLINE_855_">
			
				<line fill="none" stroke="#3A54F5" stroke-width="2" stroke-linecap="round" stroke-linejoin="round" stroke-miterlimit="10" x1="650.744" y1="422.562" x2="650.744" y2="386.185"/>
		</g>
		<g id="LINE_46_">
			
				<line fill="none" stroke="#3A54F5" stroke-width="2" stroke-linecap="round" stroke-linejoin="round" stroke-miterlimit="10" x1="650.744" y1="336.219" x2="650.744" y2="111.877"/>
		</g>
		<g id="POLYLINE_854_">
			
				<polyline fill="none" stroke="#3A54F5" stroke-width="2" stroke-linecap="round" stroke-linejoin="round" stroke-miterlimit="10" points="
				644.116,118.506 650.744,111.877 657.372,118.506 			"/>
		</g>
		<g id="POLYLINE_853_">
			
				<polyline fill="none" stroke="#3A54F5" stroke-width="2" stroke-linecap="round" stroke-linejoin="round" stroke-miterlimit="10" points="
				657.372,415.935 650.744,422.562 644.116,415.935 			"/>
		</g>
		<g id="MTEXT_43_">
			<g>
				<g>
					<g>
						<path fill="#3A54F5" d="M647.011,357.66c-0.714-0.306-1.269-0.747-1.665-1.322c-0.396-0.576-0.594-1.248-0.594-2.017
							c0-0.708,0.177-1.329,0.531-1.863c0.354-0.533,0.831-0.944,1.431-1.232c-0.48-0.276-0.853-0.639-1.116-1.089
							c-0.264-0.45-0.396-0.981-0.396-1.594c0-1.044,0.39-1.868,1.17-2.475c0.78-0.605,1.806-0.909,3.078-0.909
							s2.295,0.301,3.069,0.9s1.161,1.428,1.161,2.483c0,0.601-0.132,1.125-0.396,1.575c-0.264,0.45-0.63,0.819-1.098,1.107
							c0.6,0.288,1.077,0.699,1.431,1.232c0.354,0.534,0.531,1.161,0.531,1.882c0,0.768-0.198,1.437-0.594,2.007
							s-0.951,1.008-1.665,1.313c-0.714,0.307-1.527,0.459-2.439,0.459C648.538,358.119,647.725,357.967,647.011,357.66z
							 M651.583,356.067c0.57-0.432,0.855-1.008,0.855-1.728c0-0.721-0.285-1.297-0.855-1.729s-1.281-0.647-2.133-0.647
							c-0.864,0-1.581,0.216-2.151,0.647c-0.57,0.432-0.855,1.008-0.855,1.729c0,0.72,0.285,1.296,0.855,1.728
							c0.57,0.432,1.287,0.648,2.151,0.648C650.302,356.716,651.013,356.499,651.583,356.067z M651.304,350.02
							c0.504-0.36,0.756-0.84,0.756-1.44c0-0.611-0.249-1.101-0.747-1.467s-1.119-0.549-1.863-0.549
							c-0.756,0-1.38,0.183-1.872,0.549c-0.492,0.366-0.738,0.855-0.738,1.467c0,0.612,0.246,1.102,0.738,1.468
							c0.492,0.366,1.116,0.549,1.872,0.549C650.182,350.571,650.8,350.38,651.304,350.02z"/>
						<path fill="#3A54F5" d="M656.254,348.48c-0.048-0.065-0.066-0.159-0.054-0.279l0.396-2.52
							c0.048-0.348,0.216-0.522,0.504-0.522h1.152c0.083,0,0.153,0.03,0.207,0.09c0.054,0.061,0.081,0.133,0.081,0.217
							c0,0.12-0.018,0.216-0.054,0.288l-0.936,2.43c-0.06,0.132-0.126,0.231-0.198,0.297c-0.072,0.066-0.18,0.099-0.324,0.099
							h-0.558C656.374,348.579,656.302,348.547,656.254,348.48z"/>
						<path fill="#3A54F5" d="M666.181,357.822c-0.078-0.078-0.117-0.177-0.117-0.297v-2.628h-5.85c-0.12,0-0.219-0.039-0.297-0.117
							s-0.117-0.177-0.117-0.297v-0.666c0-0.168,0.066-0.348,0.198-0.54l5.418-7.632c0.06-0.096,0.15-0.171,0.27-0.225
							c0.12-0.055,0.252-0.081,0.396-0.081h1.224c0.132,0,0.234,0.035,0.306,0.107c0.072,0.072,0.108,0.174,0.108,0.307v7.632h1.638
							c0.12,0,0.219,0.039,0.297,0.117c0.078,0.078,0.117,0.177,0.117,0.297v0.684c0,0.12-0.039,0.219-0.117,0.297
							c-0.078,0.078-0.177,0.117-0.297,0.117h-1.638v2.628c0,0.12-0.039,0.219-0.117,0.297s-0.177,0.117-0.297,0.117h-0.828
							C666.357,357.939,666.259,357.9,666.181,357.822z M661.672,353.422h4.41v-6.265L661.672,353.422z"/>
						<path fill="#3A54F5" d="M671.455,348.472c-0.054-0.072-0.069-0.162-0.045-0.271l0.396-2.52
							c0.048-0.348,0.216-0.522,0.504-0.522h1.152c0.083,0,0.153,0.03,0.207,0.09c0.054,0.061,0.081,0.133,0.081,0.217
							c0,0.12-0.018,0.216-0.054,0.288l-0.936,2.43c-0.06,0.132-0.126,0.231-0.198,0.297c-0.072,0.066-0.18,0.099-0.324,0.099
							h-0.558C671.583,348.579,671.509,348.543,671.455,348.472z M674.281,348.472c-0.054-0.072-0.069-0.162-0.045-0.271l0.396-2.52
							c0.048-0.348,0.216-0.522,0.504-0.522h1.152c0.084,0,0.153,0.03,0.207,0.09c0.054,0.061,0.081,0.133,0.081,0.217
							c0,0.12-0.018,0.216-0.054,0.288l-0.936,2.43c-0.061,0.132-0.126,0.231-0.198,0.297c-0.072,0.066-0.18,0.099-0.324,0.099
							h-0.558C674.41,348.579,674.335,348.543,674.281,348.472z"/>
						<path fill="#3A54F5" d="M644.743,377.422c-0.078-0.078-0.117-0.177-0.117-0.297v-0.54c0-0.275,0.15-0.54,0.45-0.792
							l3.924-3.906c0.888-0.756,1.5-1.374,1.836-1.854s0.504-0.99,0.504-1.53c0-0.708-0.198-1.263-0.594-1.665
							c-0.396-0.401-0.972-0.603-1.728-0.603c-0.72,0-1.29,0.21-1.71,0.63s-0.678,0.984-0.774,1.691
							c-0.024,0.133-0.084,0.234-0.18,0.307s-0.192,0.107-0.288,0.107h-0.864c-0.108,0-0.198-0.035-0.27-0.107
							s-0.108-0.156-0.108-0.252c0.024-0.636,0.195-1.251,0.513-1.846c0.318-0.594,0.789-1.079,1.413-1.458
							c0.624-0.378,1.38-0.566,2.268-0.566c1.344,0,2.355,0.351,3.033,1.053c0.678,0.702,1.017,1.593,1.017,2.673
							c0,0.756-0.183,1.438-0.549,2.043c-0.366,0.606-0.939,1.245-1.719,1.917l-3.546,3.601h5.67c0.132,0,0.234,0.036,0.306,0.107
							c0.072,0.072,0.108,0.175,0.108,0.307v0.684c0,0.12-0.04,0.219-0.117,0.297c-0.078,0.078-0.177,0.117-0.297,0.117h-7.884
							C644.92,377.539,644.821,377.5,644.743,377.422z"/>
						<path fill="#3A54F5" d="M655.597,377.422c-0.078-0.078-0.117-0.177-0.117-0.297v-1.242c0-0.119,0.039-0.222,0.117-0.306
							s0.177-0.126,0.297-0.126h1.242c0.12,0,0.219,0.042,0.297,0.126s0.117,0.187,0.117,0.306v1.242
							c0,0.12-0.039,0.219-0.117,0.297s-0.177,0.117-0.297,0.117h-1.242C655.774,377.539,655.675,377.5,655.597,377.422z"/>
						<path fill="#3A54F5" d="M661.654,377.233c-0.66-0.324-1.164-0.747-1.512-1.27c-0.349-0.521-0.534-1.083-0.558-1.683v-0.036
							c0-0.096,0.036-0.174,0.108-0.234c0.072-0.06,0.156-0.09,0.252-0.09h0.882c0.252,0,0.414,0.133,0.486,0.396
							c0.18,0.647,0.513,1.131,0.999,1.448c0.486,0.318,1.047,0.478,1.683,0.478c0.816,0,1.494-0.249,2.034-0.747
							s0.81-1.185,0.81-2.061c0-0.805-0.27-1.443-0.81-1.918c-0.54-0.474-1.218-0.711-2.034-0.711c-0.432,0-0.78,0.055-1.044,0.162
							c-0.264,0.108-0.534,0.265-0.81,0.469c-0.156,0.12-0.285,0.207-0.387,0.261c-0.102,0.054-0.213,0.081-0.333,0.081h-0.864
							c-0.108,0-0.204-0.039-0.288-0.117c-0.084-0.078-0.12-0.171-0.108-0.279l0.558-5.994c0.036-0.3,0.186-0.449,0.45-0.449h6.228
							c0.132,0,0.234,0.035,0.306,0.107c0.072,0.072,0.108,0.174,0.108,0.307v0.666c0,0.119-0.039,0.216-0.117,0.287
							c-0.078,0.072-0.177,0.108-0.297,0.108h-5.184l-0.324,3.618c0.576-0.408,1.35-0.612,2.322-0.612
							c0.804,0,1.536,0.159,2.196,0.478c0.66,0.317,1.185,0.782,1.575,1.395c0.39,0.612,0.585,1.338,0.585,2.178
							c0,0.889-0.195,1.653-0.585,2.295c-0.39,0.643-0.93,1.129-1.62,1.458c-0.69,0.33-1.479,0.495-2.367,0.495
							C663.094,377.719,662.314,377.557,661.654,377.233z"/>
						<path fill="#3A54F5" d="M676.351,377.422c-0.078-0.078-0.117-0.177-0.117-0.297v-2.628h-5.85c-0.12,0-0.219-0.039-0.297-0.117
							s-0.117-0.177-0.117-0.297v-0.666c0-0.168,0.066-0.348,0.198-0.54l5.418-7.632c0.06-0.096,0.15-0.171,0.27-0.225
							c0.12-0.055,0.252-0.081,0.396-0.081h1.224c0.132,0,0.234,0.035,0.306,0.107c0.072,0.072,0.108,0.174,0.108,0.307v7.632h1.638
							c0.12,0,0.219,0.039,0.297,0.117c0.078,0.078,0.117,0.177,0.117,0.297v0.684c0,0.12-0.039,0.219-0.117,0.297
							c-0.078,0.078-0.177,0.117-0.297,0.117h-1.638v2.628c0,0.12-0.039,0.219-0.117,0.297s-0.177,0.117-0.297,0.117h-0.828
							C676.528,377.539,676.429,377.5,676.351,377.422z M671.842,373.021h4.41v-6.265L671.842,373.021z"/>
						<path fill="#3A54F5" d="M686.431,377.422c-0.078-0.078-0.117-0.177-0.117-0.297v-8.532c0-0.119,0.039-0.219,0.117-0.297
							s0.177-0.117,0.297-0.117h0.756c0.12,0,0.216,0.039,0.288,0.117c0.072,0.078,0.108,0.178,0.108,0.297v0.612
							c0.648-0.804,1.524-1.206,2.628-1.206c1.32,0,2.256,0.552,2.808,1.656c0.288-0.504,0.699-0.906,1.233-1.206
							c0.534-0.3,1.131-0.45,1.791-0.45c0.984,0,1.788,0.336,2.412,1.008c0.624,0.673,0.936,1.645,0.936,2.916v5.202
							c0,0.12-0.039,0.219-0.117,0.297s-0.177,0.117-0.297,0.117H698.5c-0.12,0-0.219-0.039-0.297-0.117s-0.117-0.177-0.117-0.297
							v-5.04c0-0.96-0.198-1.646-0.594-2.061s-0.918-0.621-1.566-0.621c-0.576,0-1.071,0.213-1.485,0.639s-0.621,1.107-0.621,2.043
							v5.04c0,0.12-0.039,0.219-0.117,0.297s-0.177,0.117-0.297,0.117h-0.792c-0.12,0-0.219-0.039-0.297-0.117
							c-0.078-0.078-0.117-0.177-0.117-0.297v-5.04c0-0.947-0.207-1.632-0.621-2.052c-0.414-0.42-0.927-0.63-1.539-0.63
							c-0.576,0-1.071,0.21-1.485,0.63s-0.621,1.098-0.621,2.034v5.058c0,0.12-0.04,0.219-0.117,0.297
							c-0.078,0.078-0.177,0.117-0.297,0.117h-0.792C686.608,377.539,686.509,377.5,686.431,377.422z"/>
					</g>
				</g>
			</g>
		</g>
	</g>
	<g display="inline">
		<g id="POLYLINE_852_">
			
				<line fill="none" stroke="#3A54F5" stroke-width="2" stroke-linecap="round" stroke-linejoin="round" stroke-miterlimit="10" x1="238.866" y1="564.961" x2="238.866" y2="531.671"/>
		</g>
		<g id="LINE_45_">
			
				<line fill="none" stroke="#3A54F5" stroke-width="2" stroke-linecap="round" stroke-linejoin="round" stroke-miterlimit="10" x1="238.866" y1="484.271" x2="238.866" y2="456.361"/>
		</g>
		<g id="POLYLINE_851_">
			
				<polyline fill="none" stroke="#3A54F5" stroke-width="2" stroke-linecap="round" stroke-linejoin="round" stroke-miterlimit="10" points="
				232.238,462.99 238.866,456.361 245.494,462.99 			"/>
		</g>
		<g id="POLYLINE_850_">
			
				<polyline fill="none" stroke="#3A54F5" stroke-width="2" stroke-linecap="round" stroke-linejoin="round" stroke-miterlimit="10" points="
				245.494,558.334 238.866,564.961 232.238,558.334 			"/>
		</g>
		<g id="MTEXT_39_">
			<g>
				<g>
					<g>
						<path fill="#3A54F5" d="M225.321,504.148c-0.684-0.306-1.203-0.704-1.557-1.196s-0.543-1.002-0.567-1.53
							c0-0.108,0.036-0.195,0.108-0.261c0.072-0.066,0.162-0.1,0.27-0.1h0.81c0.132,0,0.24,0.027,0.324,0.081
							c0.083,0.054,0.15,0.159,0.198,0.315c0.156,0.611,0.495,1.044,1.017,1.296s1.137,0.378,1.845,0.378
							c0.864,0,1.551-0.207,2.061-0.621c0.51-0.414,0.765-1.005,0.765-1.773c0-1.464-0.894-2.195-2.682-2.195h-1.692
							c-0.12,0-0.219-0.039-0.297-0.117s-0.117-0.177-0.117-0.297v-0.468c0-0.181,0.066-0.336,0.198-0.469l3.51-3.888h-5.328
							c-0.12,0-0.219-0.036-0.297-0.108c-0.078-0.071-0.117-0.168-0.117-0.287v-0.648c0-0.132,0.039-0.237,0.117-0.315
							c0.078-0.077,0.177-0.116,0.297-0.116h7.128c0.132,0,0.237,0.039,0.315,0.116c0.078,0.078,0.117,0.184,0.117,0.315v0.594
							c0,0.133-0.061,0.271-0.18,0.414l-3.51,3.942h0.288c1.224,0.036,2.193,0.354,2.907,0.954c0.714,0.6,1.071,1.476,1.071,2.628
							c0,0.792-0.195,1.473-0.585,2.043c-0.39,0.57-0.933,1.008-1.629,1.313c-0.696,0.307-1.482,0.459-2.358,0.459
							C226.815,504.607,226.005,504.455,225.321,504.148z"/>
						<path fill="#3A54F5" d="M234.285,494.969c-0.048-0.065-0.066-0.159-0.054-0.279l0.396-2.52
							c0.048-0.348,0.216-0.522,0.504-0.522h1.152c0.083,0,0.153,0.03,0.207,0.09c0.054,0.061,0.081,0.133,0.081,0.217
							c0,0.12-0.018,0.216-0.054,0.288l-0.936,2.43c-0.06,0.132-0.126,0.231-0.198,0.297c-0.072,0.066-0.18,0.099-0.324,0.099
							h-0.558C234.405,495.067,234.333,495.035,234.285,494.969z"/>
						<path fill="#3A54F5" d="M244.212,504.311c-0.078-0.078-0.117-0.177-0.117-0.297v-2.628h-5.85c-0.12,0-0.219-0.039-0.297-0.117
							s-0.117-0.177-0.117-0.297v-0.666c0-0.168,0.066-0.348,0.198-0.54l5.418-7.632c0.06-0.096,0.15-0.171,0.27-0.225
							c0.12-0.055,0.252-0.081,0.396-0.081h1.224c0.132,0,0.234,0.035,0.306,0.107c0.072,0.072,0.108,0.174,0.108,0.307v7.632h1.638
							c0.12,0,0.219,0.039,0.297,0.117c0.078,0.078,0.117,0.177,0.117,0.297v0.684c0,0.12-0.039,0.219-0.117,0.297
							c-0.078,0.078-0.177,0.117-0.297,0.117h-1.638v2.628c0,0.12-0.039,0.219-0.117,0.297s-0.177,0.117-0.297,0.117h-0.828
							C244.389,504.428,244.29,504.389,244.212,504.311z M239.703,499.91h4.41v-6.265L239.703,499.91z"/>
						<path fill="#3A54F5" d="M249.486,494.96c-0.054-0.072-0.069-0.162-0.045-0.271l0.396-2.52
							c0.048-0.348,0.216-0.522,0.504-0.522h1.152c0.083,0,0.153,0.03,0.207,0.09c0.054,0.061,0.081,0.133,0.081,0.217
							c0,0.12-0.018,0.216-0.054,0.288l-0.936,2.43c-0.06,0.132-0.126,0.231-0.198,0.297c-0.072,0.066-0.18,0.099-0.324,0.099
							h-0.558C249.615,495.067,249.54,495.031,249.486,494.96z M252.312,494.96c-0.054-0.072-0.069-0.162-0.045-0.271l0.396-2.52
							c0.048-0.348,0.216-0.522,0.504-0.522h1.152c0.084,0,0.153,0.03,0.207,0.09c0.054,0.061,0.081,0.133,0.081,0.217
							c0,0.12-0.018,0.216-0.054,0.288l-0.936,2.43c-0.061,0.132-0.126,0.231-0.198,0.297c-0.072,0.066-0.18,0.099-0.324,0.099
							h-0.558C252.441,495.067,252.366,495.031,252.312,494.96z"/>
						<path fill="#3A54F5" d="M213.613,523.91c-0.072-0.078-0.108-0.177-0.108-0.297v-10.152l-3.024,2.322
							c-0.084,0.072-0.174,0.108-0.27,0.108c-0.108,0-0.21-0.061-0.306-0.181l-0.432-0.558c-0.06-0.084-0.09-0.168-0.09-0.252
							c0-0.132,0.06-0.24,0.18-0.324l3.906-3.023c0.132-0.084,0.288-0.126,0.468-0.126h0.846c0.12,0,0.219,0.039,0.297,0.116
							c0.078,0.078,0.117,0.178,0.117,0.298v11.771c0,0.12-0.039,0.219-0.117,0.297s-0.177,0.117-0.297,0.117H213.9
							C213.781,524.027,213.685,523.988,213.613,523.91z"/>
						<path fill="#3A54F5" d="M218.877,522.849c-0.714-0.906-1.095-2.091-1.143-3.556l-0.018-1.548l0.018-1.602
							c0.036-1.452,0.417-2.631,1.143-3.537s1.857-1.359,3.393-1.359c1.548,0,2.685,0.453,3.411,1.359
							c0.726,0.906,1.107,2.085,1.143,3.537c0.012,0.336,0.018,0.87,0.018,1.602c0,0.708-0.006,1.225-0.018,1.548
							c-0.048,1.465-0.429,2.649-1.143,3.556c-0.714,0.906-1.851,1.358-3.411,1.358
							C220.723,524.207,219.591,523.755,218.877,522.849z M224.358,521.795c0.468-0.611,0.714-1.476,0.738-2.592
							c0.012-0.348,0.018-0.846,0.018-1.494c0-0.659-0.006-1.151-0.018-1.476c-0.024-1.104-0.273-1.965-0.747-2.583
							c-0.474-0.618-1.167-0.927-2.079-0.927c-0.912,0-1.602,0.309-2.07,0.927c-0.468,0.618-0.714,1.479-0.738,2.583l-0.018,1.476
							l0.018,1.494c0.024,1.116,0.27,1.98,0.738,2.592c0.468,0.612,1.158,0.918,2.07,0.918
							C223.194,522.713,223.891,522.407,224.358,521.795z"/>
						<path fill="#3A54F5" d="M228.975,523.91c-0.078-0.078-0.117-0.177-0.117-0.297v-0.54c0-0.275,0.15-0.54,0.45-0.792
							l3.924-3.906c0.888-0.756,1.5-1.374,1.836-1.854s0.504-0.99,0.504-1.53c0-0.708-0.198-1.263-0.594-1.665
							c-0.396-0.401-0.972-0.603-1.728-0.603c-0.72,0-1.29,0.21-1.71,0.63s-0.678,0.984-0.774,1.691
							c-0.024,0.133-0.084,0.234-0.18,0.307s-0.192,0.107-0.288,0.107h-0.864c-0.108,0-0.198-0.035-0.27-0.107
							s-0.108-0.156-0.108-0.252c0.024-0.636,0.195-1.251,0.513-1.846c0.318-0.594,0.789-1.079,1.413-1.458
							c0.624-0.378,1.38-0.566,2.268-0.566c1.344,0,2.355,0.351,3.033,1.053c0.678,0.702,1.017,1.593,1.017,2.673
							c0,0.756-0.183,1.438-0.549,2.043c-0.366,0.606-0.939,1.245-1.719,1.917l-3.546,3.601h5.67c0.132,0,0.234,0.036,0.306,0.107
							c0.072,0.072,0.108,0.175,0.108,0.307v0.684c0,0.12-0.04,0.219-0.117,0.297c-0.078,0.078-0.177,0.117-0.297,0.117h-7.884
							C229.152,524.027,229.053,523.988,228.975,523.91z"/>
						<path fill="#3A54F5" d="M245.004,523.118c-0.72-0.726-1.098-1.743-1.134-3.051l-0.018-0.72l0.018-0.721
							c0.036-1.308,0.414-2.324,1.134-3.051c0.72-0.726,1.722-1.089,3.006-1.089c0.864,0,1.593,0.153,2.187,0.459
							c0.594,0.306,1.038,0.688,1.332,1.143c0.294,0.457,0.453,0.912,0.477,1.368c0.012,0.108-0.027,0.204-0.117,0.288
							c-0.09,0.084-0.189,0.126-0.297,0.126H250.8c-0.12,0-0.21-0.026-0.27-0.081c-0.06-0.054-0.12-0.152-0.18-0.297
							c-0.216-0.588-0.513-1.005-0.891-1.251s-0.855-0.369-1.431-0.369c-0.756,0-1.356,0.234-1.8,0.702
							c-0.444,0.468-0.684,1.183-0.72,2.143l-0.018,0.63l0.018,0.63c0.036,0.96,0.276,1.674,0.72,2.142
							c0.444,0.468,1.044,0.702,1.8,0.702c0.588,0,1.068-0.123,1.44-0.369s0.666-0.663,0.882-1.251
							c0.06-0.144,0.12-0.243,0.18-0.297s0.15-0.081,0.27-0.081h0.792c0.108,0,0.207,0.042,0.297,0.126
							c0.09,0.084,0.129,0.18,0.117,0.288c-0.024,0.444-0.183,0.895-0.477,1.35c-0.294,0.457-0.738,0.841-1.332,1.152
							c-0.594,0.312-1.323,0.468-2.187,0.468C246.726,524.207,245.724,523.845,245.004,523.118z"/>
						<path fill="#3A54F5" d="M254.283,523.91c-0.078-0.078-0.117-0.177-0.117-0.297v-8.532c0-0.119,0.039-0.219,0.117-0.297
							s0.177-0.117,0.297-0.117h0.756c0.12,0,0.216,0.039,0.288,0.117c0.072,0.078,0.108,0.178,0.108,0.297v0.612
							c0.648-0.804,1.524-1.206,2.628-1.206c1.32,0,2.256,0.552,2.808,1.656c0.288-0.504,0.699-0.906,1.233-1.206
							c0.534-0.3,1.131-0.45,1.791-0.45c0.984,0,1.788,0.336,2.412,1.008c0.624,0.673,0.936,1.645,0.936,2.916v5.202
							c0,0.12-0.039,0.219-0.117,0.297s-0.177,0.117-0.297,0.117h-0.774c-0.12,0-0.219-0.039-0.297-0.117s-0.117-0.177-0.117-0.297
							v-5.04c0-0.96-0.198-1.646-0.594-2.061s-0.918-0.621-1.566-0.621c-0.576,0-1.071,0.213-1.485,0.639s-0.621,1.107-0.621,2.043
							v5.04c0,0.12-0.039,0.219-0.117,0.297s-0.177,0.117-0.297,0.117h-0.792c-0.12,0-0.219-0.039-0.297-0.117
							c-0.078-0.078-0.117-0.177-0.117-0.297v-5.04c0-0.947-0.207-1.632-0.621-2.052c-0.414-0.42-0.927-0.63-1.539-0.63
							c-0.576,0-1.071,0.21-1.485,0.63s-0.621,1.098-0.621,2.034v5.058c0,0.12-0.04,0.219-0.117,0.297
							c-0.078,0.078-0.177,0.117-0.297,0.117h-0.792C254.46,524.027,254.361,523.988,254.283,523.91z"/>
					</g>
				</g>
			</g>
		</g>
	</g>
	<g display="inline">
		<g id="POLYLINE_849_">
			
				<line fill="none" stroke="#3A54F5" stroke-width="2" stroke-linecap="round" stroke-linejoin="round" stroke-miterlimit="10" x1="238.866" y1="437.961" x2="238.866" y2="404.671"/>
		</g>
		<g id="LINE_44_">
			
				<line fill="none" stroke="#3A54F5" stroke-width="2" stroke-linecap="round" stroke-linejoin="round" stroke-miterlimit="10" x1="238.866" y1="357.271" x2="238.866" y2="196.361"/>
		</g>
		<g id="POLYLINE_848_">
			
				<polyline fill="none" stroke="#3A54F5" stroke-width="2" stroke-linecap="round" stroke-linejoin="round" stroke-miterlimit="10" points="
				232.238,202.99 238.866,196.361 245.494,202.99 			"/>
		</g>
		<g id="POLYLINE_847_">
			
				<polyline fill="none" stroke="#3A54F5" stroke-width="2" stroke-linecap="round" stroke-linejoin="round" stroke-miterlimit="10" points="
				245.494,431.334 238.866,437.961 232.238,431.334 			"/>
		</g>
		<g id="MTEXT_30_">
			<g>
				<g>
					<g>
						<path fill="#3A54F5" d="M233.12,377.189c-0.513-0.252-0.905-0.581-1.176-0.986c-0.271-0.406-0.416-0.843-0.434-1.31v-0.027
							c0-0.075,0.028-0.136,0.084-0.183s0.121-0.07,0.196-0.07h0.686c0.196,0,0.322,0.104,0.378,0.309
							c0.14,0.504,0.399,0.88,0.777,1.127s0.814,0.371,1.309,0.371c0.634,0,1.162-0.193,1.582-0.581
							c0.42-0.388,0.63-0.922,0.63-1.604c0-0.625-0.21-1.122-0.63-1.49c-0.42-0.369-0.947-0.554-1.582-0.554
							c-0.336,0-0.607,0.042-0.812,0.126c-0.206,0.084-0.416,0.206-0.63,0.364c-0.121,0.094-0.222,0.161-0.301,0.203
							c-0.08,0.042-0.166,0.062-0.259,0.062h-0.672c-0.084,0-0.159-0.029-0.224-0.091c-0.065-0.061-0.093-0.133-0.084-0.217
							l0.434-4.662c0.028-0.233,0.145-0.35,0.35-0.35h4.844c0.103,0,0.182,0.027,0.238,0.084c0.056,0.056,0.084,0.135,0.084,0.238
							v0.518c0,0.094-0.03,0.168-0.091,0.224c-0.061,0.057-0.138,0.084-0.231,0.084h-4.032l-0.252,2.814
							c0.448-0.317,1.05-0.477,1.806-0.477c0.625,0,1.194,0.124,1.708,0.371c0.513,0.248,0.921,0.609,1.225,1.085
							c0.303,0.477,0.455,1.041,0.455,1.694c0,0.69-0.152,1.286-0.455,1.785s-0.723,0.877-1.26,1.134s-1.15,0.385-1.841,0.385
							C234.24,377.567,233.633,377.441,233.12,377.189z"/>
						<path fill="#3A54F5" d="M240.008,370.07c-0.038-0.051-0.051-0.123-0.042-0.217l0.308-1.96
							c0.037-0.271,0.168-0.406,0.392-0.406h0.896c0.065,0,0.119,0.023,0.161,0.07s0.063,0.103,0.063,0.168
							c0,0.094-0.014,0.168-0.042,0.225l-0.728,1.89c-0.046,0.103-0.098,0.18-0.154,0.23c-0.056,0.052-0.14,0.077-0.252,0.077
							h-0.434C240.102,370.147,240.045,370.122,240.008,370.07z"/>
						<path fill="#3A54F5" d="M246.91,380.249c-0.056-0.062-0.084-0.138-0.084-0.231v-14.812c0-0.094,0.028-0.171,0.084-0.231
							c0.056-0.061,0.131-0.091,0.224-0.091h0.518c0.093,0,0.17,0.03,0.231,0.091s0.091,0.138,0.091,0.231v14.812
							c0,0.094-0.031,0.17-0.091,0.231c-0.061,0.061-0.138,0.091-0.231,0.091h-0.518C247.041,380.34,246.966,380.31,246.91,380.249z
							"/>
						<path fill="#3A54F5" d="M256.094,377.337c-0.056-0.061-0.084-0.138-0.084-0.231v-7.896l-2.352,1.806
							c-0.065,0.056-0.136,0.084-0.21,0.084c-0.084,0-0.164-0.047-0.238-0.14l-0.336-0.435c-0.047-0.064-0.07-0.13-0.07-0.195
							c0-0.103,0.046-0.187,0.14-0.252l3.038-2.353c0.103-0.065,0.224-0.098,0.364-0.098h0.658c0.093,0,0.17,0.03,0.231,0.091
							c0.061,0.061,0.091,0.138,0.091,0.231v9.155c0,0.094-0.03,0.171-0.091,0.231c-0.061,0.061-0.138,0.091-0.231,0.091h-0.686
							C256.224,377.428,256.149,377.397,256.094,377.337z"/>
						<path fill="#3A54F5" d="M259.446,377.337c-0.061-0.061-0.091-0.138-0.091-0.231v-0.966c0-0.093,0.03-0.173,0.091-0.238
							c0.061-0.064,0.138-0.098,0.231-0.098h0.966c0.093,0,0.17,0.033,0.231,0.098c0.061,0.065,0.091,0.146,0.091,0.238v0.966
							c0,0.094-0.03,0.171-0.091,0.231c-0.061,0.061-0.138,0.091-0.231,0.091h-0.966
							C259.584,377.428,259.507,377.397,259.446,377.337z"/>
						<path fill="#3A54F5" d="M264.157,377.189c-0.513-0.252-0.905-0.581-1.176-0.986c-0.271-0.406-0.416-0.843-0.434-1.31v-0.027
							c0-0.075,0.028-0.136,0.084-0.183s0.121-0.07,0.196-0.07h0.686c0.196,0,0.322,0.104,0.378,0.309
							c0.14,0.504,0.399,0.88,0.777,1.127s0.814,0.371,1.309,0.371c0.634,0,1.162-0.193,1.582-0.581
							c0.42-0.388,0.63-0.922,0.63-1.604c0-0.625-0.21-1.122-0.63-1.49c-0.42-0.369-0.947-0.554-1.582-0.554
							c-0.336,0-0.607,0.042-0.812,0.126c-0.206,0.084-0.416,0.206-0.63,0.364c-0.121,0.094-0.222,0.161-0.301,0.203
							c-0.08,0.042-0.166,0.062-0.259,0.062h-0.672c-0.084,0-0.159-0.029-0.224-0.091c-0.065-0.061-0.093-0.133-0.084-0.217
							l0.434-4.662c0.028-0.233,0.145-0.35,0.35-0.35h4.844c0.103,0,0.182,0.027,0.238,0.084c0.056,0.056,0.084,0.135,0.084,0.238
							v0.518c0,0.094-0.03,0.168-0.091,0.224c-0.061,0.057-0.138,0.084-0.231,0.084h-4.032l-0.252,2.814
							c0.448-0.317,1.05-0.477,1.806-0.477c0.625,0,1.194,0.124,1.708,0.371c0.513,0.248,0.921,0.609,1.225,1.085
							c0.303,0.477,0.455,1.041,0.455,1.694c0,0.69-0.152,1.286-0.455,1.785s-0.723,0.877-1.26,1.134s-1.15,0.385-1.841,0.385
							C265.277,377.567,264.67,377.441,264.157,377.189z"/>
						<path fill="#3A54F5" d="M272.445,377.211c-0.532-0.238-0.936-0.549-1.211-0.932c-0.275-0.382-0.422-0.778-0.441-1.189
							c0-0.084,0.028-0.151,0.084-0.203c0.056-0.051,0.126-0.077,0.21-0.077h0.63c0.103,0,0.187,0.021,0.252,0.063
							s0.117,0.123,0.154,0.245c0.121,0.476,0.385,0.812,0.791,1.008c0.406,0.195,0.884,0.294,1.435,0.294
							c0.672,0,1.206-0.161,1.603-0.483c0.396-0.322,0.595-0.781,0.595-1.379c0-1.139-0.695-1.708-2.086-1.708h-1.316
							c-0.094,0-0.17-0.03-0.231-0.091c-0.061-0.061-0.091-0.138-0.091-0.231v-0.363c0-0.141,0.051-0.262,0.154-0.364l2.73-3.024
							h-4.144c-0.093,0-0.17-0.027-0.231-0.084c-0.061-0.056-0.091-0.13-0.091-0.224v-0.504c0-0.103,0.03-0.185,0.091-0.245
							c0.061-0.061,0.138-0.091,0.231-0.091h5.544c0.103,0,0.184,0.03,0.245,0.091c0.061,0.061,0.091,0.143,0.091,0.245v0.462
							c0,0.103-0.047,0.21-0.14,0.322l-2.73,3.065h0.224c0.952,0.028,1.706,0.275,2.261,0.742c0.555,0.467,0.833,1.148,0.833,2.044
							c0,0.616-0.152,1.146-0.455,1.589c-0.304,0.443-0.726,0.784-1.267,1.022c-0.542,0.238-1.153,0.356-1.834,0.356
							C273.607,377.567,272.978,377.449,272.445,377.211z"/>
						<path fill="#3A54F5" d="M283.148,377.337c-0.061-0.061-0.091-0.138-0.091-0.231v-6.636c0-0.093,0.03-0.17,0.091-0.231
							c0.061-0.061,0.138-0.091,0.231-0.091h0.588c0.093,0,0.168,0.03,0.224,0.091c0.056,0.062,0.084,0.139,0.084,0.231v0.476
							c0.504-0.625,1.185-0.938,2.044-0.938c1.026,0,1.754,0.43,2.184,1.288c0.224-0.393,0.543-0.705,0.959-0.938
							c0.415-0.232,0.879-0.35,1.393-0.35c0.765,0,1.391,0.262,1.876,0.784c0.485,0.522,0.728,1.278,0.728,2.268v4.046
							c0,0.094-0.031,0.171-0.091,0.231s-0.138,0.091-0.231,0.091h-0.602c-0.093,0-0.17-0.03-0.231-0.091s-0.091-0.138-0.091-0.231
							v-3.92c0-0.746-0.154-1.281-0.462-1.603c-0.308-0.322-0.714-0.483-1.218-0.483c-0.448,0-0.833,0.166-1.155,0.497
							c-0.322,0.331-0.483,0.861-0.483,1.589v3.92c0,0.094-0.031,0.171-0.091,0.231s-0.138,0.091-0.231,0.091h-0.616
							c-0.094,0-0.17-0.03-0.231-0.091c-0.061-0.061-0.091-0.138-0.091-0.231v-3.92c0-0.737-0.161-1.269-0.483-1.596
							s-0.721-0.49-1.197-0.49c-0.448,0-0.833,0.163-1.155,0.49c-0.322,0.327-0.483,0.854-0.483,1.582v3.934
							c0,0.094-0.03,0.171-0.091,0.231c-0.061,0.061-0.138,0.091-0.231,0.091h-0.616
							C283.286,377.428,283.208,377.397,283.148,377.337z"/>
						<path fill="#3A54F5" d="M299.023,377.337c-0.061-0.061-0.091-0.138-0.091-0.231v-6.636c0-0.093,0.03-0.17,0.091-0.231
							c0.061-0.061,0.138-0.091,0.231-0.091h0.588c0.093,0,0.168,0.03,0.224,0.091c0.056,0.062,0.084,0.139,0.084,0.231v0.476
							c0.504-0.625,1.185-0.938,2.044-0.938c1.026,0,1.754,0.43,2.184,1.288c0.224-0.393,0.543-0.705,0.959-0.938
							c0.415-0.232,0.879-0.35,1.393-0.35c0.765,0,1.391,0.262,1.876,0.784c0.485,0.522,0.728,1.278,0.728,2.268v4.046
							c0,0.094-0.031,0.171-0.091,0.231s-0.138,0.091-0.231,0.091h-0.602c-0.093,0-0.17-0.03-0.231-0.091s-0.091-0.138-0.091-0.231
							v-3.92c0-0.746-0.154-1.281-0.462-1.603c-0.308-0.322-0.714-0.483-1.218-0.483c-0.448,0-0.833,0.166-1.155,0.497
							c-0.322,0.331-0.483,0.861-0.483,1.589v3.92c0,0.094-0.031,0.171-0.091,0.231s-0.138,0.091-0.231,0.091h-0.616
							c-0.094,0-0.17-0.03-0.231-0.091c-0.061-0.061-0.091-0.138-0.091-0.231v-3.92c0-0.737-0.161-1.269-0.483-1.596
							s-0.721-0.49-1.197-0.49c-0.448,0-0.833,0.163-1.155,0.49c-0.322,0.327-0.483,0.854-0.483,1.582v3.934
							c0,0.094-0.03,0.171-0.091,0.231c-0.061,0.061-0.138,0.091-0.231,0.091h-0.616
							C299.161,377.428,299.084,377.397,299.023,377.337z"/>
						<path fill="#3A54F5" d="M311.343,368.685c-0.061-0.061-0.091-0.138-0.091-0.23v-0.729c0-0.093,0.03-0.173,0.091-0.238
							c0.061-0.064,0.138-0.098,0.231-0.098h0.826c0.093,0,0.173,0.033,0.238,0.098c0.065,0.065,0.098,0.146,0.098,0.238v0.729
							c0,0.093-0.033,0.17-0.098,0.23c-0.065,0.061-0.145,0.091-0.238,0.091h-0.826
							C311.481,368.775,311.404,368.745,311.343,368.685z M311.456,377.337c-0.061-0.061-0.091-0.138-0.091-0.231v-6.636
							c0-0.093,0.03-0.17,0.091-0.231c0.061-0.061,0.138-0.091,0.231-0.091h0.616c0.093,0,0.17,0.03,0.231,0.091
							c0.061,0.062,0.091,0.139,0.091,0.231v6.636c0,0.094-0.03,0.171-0.091,0.231c-0.061,0.061-0.138,0.091-0.231,0.091h-0.616
							C311.593,377.428,311.516,377.397,311.456,377.337z"/>
						<path fill="#3A54F5" d="M314.815,377.337c-0.061-0.061-0.091-0.138-0.091-0.231v-6.636c0-0.093,0.03-0.17,0.091-0.231
							c0.061-0.061,0.139-0.091,0.231-0.091h0.603c0.102,0,0.182,0.028,0.237,0.084c0.056,0.057,0.084,0.136,0.084,0.238v0.616
							c0.28-0.346,0.604-0.611,0.973-0.798c0.369-0.187,0.829-0.28,1.38-0.28c0.896,0,1.591,0.287,2.086,0.861
							c0.494,0.573,0.741,1.332,0.741,2.274v3.962c0,0.094-0.03,0.171-0.091,0.231s-0.138,0.091-0.23,0.091h-0.645
							c-0.093,0-0.17-0.03-0.23-0.091c-0.062-0.061-0.091-0.138-0.091-0.231v-3.878c0-0.672-0.164-1.194-0.49-1.567
							c-0.327-0.374-0.794-0.561-1.4-0.561c-0.598,0-1.073,0.189-1.428,0.567s-0.532,0.898-0.532,1.561v3.878
							c0,0.094-0.03,0.171-0.091,0.231s-0.138,0.091-0.231,0.091h-0.644C314.954,377.428,314.875,377.397,314.815,377.337z"/>
						<path fill="#3A54F5" d="M323.16,368.685c-0.062-0.061-0.091-0.138-0.091-0.23v-0.729c0-0.093,0.029-0.173,0.091-0.238
							c0.061-0.064,0.138-0.098,0.23-0.098h0.826c0.093,0,0.173,0.033,0.238,0.098c0.065,0.065,0.098,0.146,0.098,0.238v0.729
							c0,0.093-0.032,0.17-0.098,0.23s-0.146,0.091-0.238,0.091h-0.826C323.297,368.775,323.22,368.745,323.16,368.685z
							 M323.271,377.337c-0.061-0.061-0.091-0.138-0.091-0.231v-6.636c0-0.093,0.03-0.17,0.091-0.231
							c0.061-0.061,0.138-0.091,0.231-0.091h0.616c0.093,0,0.17,0.03,0.23,0.091c0.061,0.062,0.091,0.139,0.091,0.231v6.636
							c0,0.094-0.03,0.171-0.091,0.231s-0.138,0.091-0.23,0.091h-0.616C323.409,377.428,323.332,377.397,323.271,377.337z"/>
						<path fill="#3A54F5" d="M326.63,377.337c-0.061-0.061-0.091-0.138-0.091-0.231v-6.636c0-0.093,0.03-0.17,0.091-0.231
							c0.061-0.061,0.138-0.091,0.231-0.091h0.588c0.093,0,0.168,0.03,0.224,0.091c0.057,0.062,0.084,0.139,0.084,0.231v0.476
							c0.505-0.625,1.186-0.938,2.044-0.938c1.027,0,1.755,0.43,2.185,1.288c0.224-0.393,0.544-0.705,0.959-0.938
							c0.415-0.232,0.88-0.35,1.393-0.35c0.766,0,1.391,0.262,1.876,0.784s0.729,1.278,0.729,2.268v4.046
							c0,0.094-0.03,0.171-0.091,0.231c-0.062,0.061-0.138,0.091-0.231,0.091h-0.602c-0.094,0-0.171-0.03-0.231-0.091
							s-0.091-0.138-0.091-0.231v-3.92c0-0.746-0.154-1.281-0.462-1.603c-0.309-0.322-0.714-0.483-1.218-0.483
							c-0.448,0-0.833,0.166-1.155,0.497s-0.483,0.861-0.483,1.589v3.92c0,0.094-0.03,0.171-0.091,0.231s-0.138,0.091-0.23,0.091
							h-0.616c-0.094,0-0.171-0.03-0.231-0.091s-0.091-0.138-0.091-0.231v-3.92c0-0.737-0.161-1.269-0.483-1.596
							c-0.321-0.327-0.721-0.49-1.196-0.49c-0.448,0-0.833,0.163-1.155,0.49s-0.483,0.854-0.483,1.582v3.934
							c0,0.094-0.03,0.171-0.091,0.231s-0.138,0.091-0.23,0.091h-0.616C326.768,377.428,326.691,377.397,326.63,377.337z"/>
						<path fill="#3A54F5" d="M339.629,376.707c-0.485-0.574-0.728-1.337-0.728-2.289v-3.948c0-0.093,0.029-0.17,0.091-0.231
							c0.061-0.061,0.138-0.091,0.23-0.091h0.645c0.093,0,0.17,0.03,0.23,0.091c0.061,0.062,0.091,0.139,0.091,0.231v3.878
							c0,1.419,0.616,2.128,1.849,2.128c0.597,0,1.07-0.188,1.421-0.566c0.35-0.379,0.524-0.898,0.524-1.562v-3.878
							c0-0.093,0.03-0.17,0.092-0.231c0.061-0.061,0.138-0.091,0.23-0.091h0.645c0.093,0,0.17,0.03,0.23,0.091
							c0.061,0.062,0.091,0.139,0.091,0.231v6.636c0,0.094-0.03,0.171-0.091,0.231s-0.138,0.091-0.23,0.091h-0.603
							c-0.093,0-0.17-0.03-0.23-0.091c-0.062-0.061-0.092-0.138-0.092-0.231v-0.63c-0.271,0.364-0.588,0.637-0.951,0.819
							c-0.364,0.182-0.826,0.272-1.387,0.272C340.8,377.567,340.115,377.28,339.629,376.707z"/>
						<path fill="#3A54F5" d="M347.462,377.337c-0.061-0.061-0.091-0.138-0.091-0.231v-6.636c0-0.093,0.03-0.17,0.091-0.231
							c0.061-0.061,0.138-0.091,0.231-0.091h0.588c0.093,0,0.168,0.03,0.224,0.091c0.057,0.062,0.084,0.139,0.084,0.231v0.476
							c0.505-0.625,1.186-0.938,2.044-0.938c1.027,0,1.755,0.43,2.185,1.288c0.224-0.393,0.544-0.705,0.959-0.938
							c0.415-0.232,0.88-0.35,1.393-0.35c0.766,0,1.391,0.262,1.876,0.784s0.729,1.278,0.729,2.268v4.046
							c0,0.094-0.03,0.171-0.091,0.231c-0.062,0.061-0.138,0.091-0.231,0.091h-0.602c-0.094,0-0.171-0.03-0.231-0.091
							s-0.091-0.138-0.091-0.231v-3.92c0-0.746-0.154-1.281-0.462-1.603c-0.309-0.322-0.714-0.483-1.218-0.483
							c-0.448,0-0.833,0.166-1.155,0.497s-0.483,0.861-0.483,1.589v3.92c0,0.094-0.03,0.171-0.091,0.231s-0.138,0.091-0.23,0.091
							h-0.616c-0.094,0-0.171-0.03-0.231-0.091s-0.091-0.138-0.091-0.231v-3.92c0-0.737-0.161-1.269-0.483-1.596
							c-0.321-0.327-0.721-0.49-1.196-0.49c-0.448,0-0.833,0.163-1.155,0.49s-0.483,0.854-0.483,1.582v3.934
							c0,0.094-0.03,0.171-0.091,0.231s-0.138,0.091-0.23,0.091h-0.616C347.6,377.428,347.523,377.397,347.462,377.337z"/>
						<path fill="#3A54F5" d="M233.001,395.774c-0.471-0.453-0.81-1.155-1.015-2.106c-0.206-0.952-0.308-2.208-0.308-3.767
							s0.103-2.812,0.308-3.759c0.205-0.947,0.543-1.647,1.015-2.1c0.471-0.453,1.108-0.68,1.911-0.68
							c0.093,0,0.17,0.03,0.231,0.091c0.061,0.062,0.091,0.139,0.091,0.231v0.462c0,0.084-0.028,0.156-0.084,0.217
							c-0.056,0.062-0.122,0.091-0.196,0.091c-0.532,0.01-0.947,0.189-1.246,0.539c-0.299,0.351-0.513,0.915-0.644,1.694
							c-0.131,0.779-0.196,1.851-0.196,3.213c0,1.372,0.065,2.448,0.196,3.228c0.13,0.779,0.345,1.344,0.644,1.693
							c0.299,0.351,0.714,0.53,1.246,0.539c0.075,0,0.14,0.03,0.196,0.091c0.056,0.061,0.084,0.134,0.084,0.218v0.462
							c0,0.093-0.031,0.17-0.091,0.23s-0.138,0.091-0.231,0.091C234.109,396.453,233.472,396.228,233.001,395.774z"/>
						<path fill="#3A54F5" d="M237.467,394.137c-0.051-0.061-0.077-0.133-0.077-0.217l0.028-0.126l3.5-8.19h-4.62
							c-0.093,0-0.17-0.03-0.231-0.091c-0.061-0.061-0.091-0.138-0.091-0.231v-0.518c0-0.103,0.028-0.185,0.084-0.245
							c0.056-0.061,0.135-0.091,0.238-0.091h5.712c0.103,0,0.182,0.03,0.238,0.091c0.056,0.061,0.084,0.143,0.084,0.245v0.476
							c0,0.168-0.038,0.351-0.112,0.546l-3.458,8.093c-0.047,0.103-0.098,0.187-0.154,0.252s-0.135,0.098-0.238,0.098h-0.7
							C237.586,394.228,237.519,394.197,237.467,394.137z"/>
						<path fill="#3A54F5" d="M243.564,386.87c-0.038-0.051-0.051-0.123-0.042-0.217l0.308-1.96
							c0.037-0.271,0.168-0.406,0.392-0.406h0.896c0.065,0,0.119,0.023,0.161,0.07s0.063,0.103,0.063,0.168
							c0,0.094-0.014,0.168-0.042,0.225l-0.728,1.89c-0.046,0.103-0.098,0.18-0.154,0.23c-0.056,0.052-0.14,0.077-0.252,0.077
							h-0.434C243.657,386.947,243.601,386.922,243.564,386.87z"/>
						<path fill="#3A54F5" d="M250.465,397.049c-0.056-0.062-0.084-0.138-0.084-0.231v-14.812c0-0.094,0.028-0.171,0.084-0.231
							c0.056-0.061,0.131-0.091,0.224-0.091h0.518c0.093,0,0.17,0.03,0.231,0.091s0.091,0.138,0.091,0.231v14.812
							c0,0.094-0.031,0.17-0.091,0.231c-0.061,0.061-0.138,0.091-0.231,0.091h-0.518
							C250.596,397.14,250.521,397.109,250.465,397.049z"/>
						<path fill="#3A54F5" d="M256.786,394.137c-0.061-0.061-0.091-0.138-0.091-0.231v-0.42c0-0.215,0.117-0.42,0.35-0.616
							l3.052-3.038c0.691-0.588,1.167-1.068,1.428-1.441c0.261-0.373,0.392-0.771,0.392-1.19c0-0.55-0.154-0.981-0.462-1.295
							c-0.308-0.312-0.756-0.469-1.344-0.469c-0.56,0-1.003,0.163-1.33,0.49c-0.327,0.326-0.527,0.766-0.602,1.315
							c-0.019,0.104-0.065,0.183-0.14,0.238s-0.149,0.084-0.224,0.084h-0.672c-0.084,0-0.154-0.028-0.21-0.084
							c-0.056-0.056-0.084-0.121-0.084-0.196c0.019-0.494,0.152-0.973,0.399-1.435c0.248-0.462,0.614-0.84,1.099-1.134
							s1.073-0.441,1.764-0.441c1.045,0,1.832,0.273,2.359,0.819s0.791,1.238,0.791,2.079c0,0.588-0.143,1.117-0.427,1.589
							c-0.285,0.472-0.73,0.968-1.337,1.491l-2.758,2.8h4.41c0.103,0,0.182,0.027,0.238,0.084c0.056,0.056,0.084,0.135,0.084,0.238
							v0.531c0,0.094-0.03,0.171-0.091,0.231c-0.061,0.061-0.138,0.091-0.231,0.091h-6.132
							C256.924,394.228,256.847,394.197,256.786,394.137z"/>
						<path fill="#3A54F5" d="M265.229,394.137c-0.061-0.061-0.091-0.138-0.091-0.231v-0.966c0-0.093,0.03-0.173,0.091-0.238
							c0.061-0.064,0.138-0.098,0.231-0.098h0.966c0.093,0,0.17,0.033,0.231,0.098c0.061,0.065,0.091,0.146,0.091,0.238v0.966
							c0,0.094-0.03,0.171-0.091,0.231c-0.061,0.061-0.138,0.091-0.231,0.091h-0.966
							C265.366,394.228,265.289,394.197,265.229,394.137z"/>
						<path fill="#3A54F5" d="M270.388,394.137c-0.056-0.061-0.084-0.138-0.084-0.231v-7.896l-2.352,1.806
							c-0.065,0.056-0.136,0.084-0.21,0.084c-0.084,0-0.164-0.047-0.238-0.14l-0.336-0.435c-0.047-0.064-0.07-0.13-0.07-0.195
							c0-0.103,0.046-0.187,0.14-0.252l3.038-2.353c0.103-0.065,0.224-0.098,0.364-0.098h0.658c0.093,0,0.17,0.03,0.231,0.091
							c0.061,0.061,0.091,0.138,0.091,0.231v9.155c0,0.094-0.03,0.171-0.091,0.231c-0.061,0.061-0.138,0.091-0.231,0.091h-0.686
							C270.518,394.228,270.443,394.197,270.388,394.137z"/>
						<path fill="#3A54F5" d="M274.951,394.011c-0.532-0.238-0.936-0.549-1.211-0.932c-0.275-0.382-0.422-0.778-0.441-1.189
							c0-0.084,0.028-0.151,0.084-0.203c0.056-0.051,0.126-0.077,0.21-0.077h0.63c0.103,0,0.187,0.021,0.252,0.063
							s0.117,0.123,0.154,0.245c0.121,0.476,0.385,0.812,0.791,1.008c0.406,0.195,0.884,0.294,1.435,0.294
							c0.672,0,1.206-0.161,1.603-0.483c0.396-0.322,0.595-0.781,0.595-1.379c0-1.139-0.695-1.708-2.086-1.708h-1.316
							c-0.094,0-0.17-0.03-0.231-0.091c-0.061-0.061-0.091-0.138-0.091-0.231v-0.363c0-0.141,0.051-0.262,0.154-0.364l2.73-3.024
							h-4.144c-0.093,0-0.17-0.027-0.231-0.084c-0.061-0.056-0.091-0.13-0.091-0.224v-0.504c0-0.103,0.03-0.185,0.091-0.245
							c0.061-0.061,0.138-0.091,0.231-0.091h5.544c0.103,0,0.184,0.03,0.245,0.091c0.061,0.061,0.091,0.143,0.091,0.245v0.462
							c0,0.103-0.047,0.21-0.14,0.322l-2.73,3.065h0.224c0.952,0.028,1.706,0.275,2.261,0.742c0.555,0.467,0.833,1.148,0.833,2.044
							c0,0.616-0.152,1.146-0.455,1.589c-0.304,0.443-0.726,0.784-1.267,1.022c-0.542,0.238-1.153,0.356-1.834,0.356
							C276.113,394.367,275.483,394.249,274.951,394.011z"/>
						<path fill="#3A54F5" d="M285.654,394.137c-0.061-0.061-0.091-0.138-0.091-0.231v-6.636c0-0.093,0.03-0.17,0.091-0.231
							c0.061-0.061,0.138-0.091,0.231-0.091h0.588c0.093,0,0.168,0.03,0.224,0.091c0.056,0.062,0.084,0.139,0.084,0.231v0.476
							c0.504-0.625,1.185-0.938,2.044-0.938c1.026,0,1.754,0.43,2.184,1.288c0.224-0.393,0.543-0.705,0.959-0.938
							c0.415-0.232,0.879-0.35,1.393-0.35c0.765,0,1.391,0.262,1.876,0.784c0.485,0.522,0.728,1.278,0.728,2.268v4.046
							c0,0.094-0.031,0.171-0.091,0.231s-0.138,0.091-0.231,0.091h-0.602c-0.093,0-0.17-0.03-0.231-0.091s-0.091-0.138-0.091-0.231
							v-3.92c0-0.746-0.154-1.281-0.462-1.603c-0.308-0.322-0.714-0.483-1.218-0.483c-0.448,0-0.833,0.166-1.155,0.497
							c-0.322,0.331-0.483,0.861-0.483,1.589v3.92c0,0.094-0.031,0.171-0.091,0.231s-0.138,0.091-0.231,0.091h-0.616
							c-0.094,0-0.17-0.03-0.231-0.091c-0.061-0.061-0.091-0.138-0.091-0.231v-3.92c0-0.737-0.161-1.269-0.483-1.596
							s-0.721-0.49-1.197-0.49c-0.448,0-0.833,0.163-1.155,0.49c-0.322,0.327-0.483,0.854-0.483,1.582v3.934
							c0,0.094-0.03,0.171-0.091,0.231c-0.061,0.061-0.138,0.091-0.231,0.091h-0.616
							C285.792,394.228,285.715,394.197,285.654,394.137z"/>
						<path fill="#3A54F5" d="M302.3,394.053c-0.443-0.21-0.772-0.45-0.987-0.722c-0.215-0.271-0.322-0.494-0.322-0.672
							c0-0.093,0.033-0.165,0.098-0.217c0.065-0.051,0.135-0.077,0.21-0.077h0.588c0.056,0,0.1,0.01,0.133,0.028
							s0.077,0.061,0.133,0.126c0.214,0.262,0.455,0.467,0.721,0.616c0.266,0.149,0.623,0.224,1.071,0.224
							c0.504,0,0.907-0.093,1.211-0.28c0.303-0.187,0.455-0.457,0.455-0.812c0-0.233-0.065-0.42-0.196-0.56
							c-0.131-0.141-0.348-0.267-0.651-0.379c-0.303-0.111-0.754-0.232-1.351-0.363c-0.812-0.178-1.386-0.435-1.722-0.771
							c-0.336-0.336-0.504-0.77-0.504-1.302c0-0.345,0.103-0.679,0.308-1.001c0.205-0.322,0.511-0.583,0.917-0.784
							c0.406-0.2,0.889-0.301,1.449-0.301c0.588,0,1.089,0.098,1.505,0.294c0.415,0.196,0.728,0.425,0.938,0.686
							c0.21,0.262,0.315,0.481,0.315,0.658c0,0.084-0.03,0.154-0.091,0.21c-0.061,0.057-0.133,0.084-0.217,0.084h-0.532
							c-0.131,0-0.224-0.051-0.28-0.153c-0.159-0.178-0.292-0.315-0.399-0.413c-0.107-0.099-0.264-0.183-0.469-0.252
							c-0.206-0.07-0.462-0.105-0.77-0.105c-0.458,0-0.808,0.096-1.05,0.287s-0.364,0.446-0.364,0.763
							c0,0.196,0.051,0.362,0.154,0.497c0.103,0.136,0.299,0.262,0.588,0.378c0.29,0.117,0.719,0.236,1.288,0.357
							c0.887,0.187,1.514,0.453,1.883,0.798c0.368,0.346,0.553,0.789,0.553,1.33c0,0.401-0.114,0.766-0.343,1.092
							c-0.229,0.327-0.569,0.584-1.022,0.771c-0.453,0.187-0.992,0.279-1.617,0.279C303.287,394.367,302.743,394.263,302.3,394.053z
							"/>
						<path fill="#3A54F5" d="M308.655,394.137c-0.061-0.061-0.091-0.138-0.091-0.231v-9.296c0-0.103,0.03-0.182,0.091-0.238
							c0.061-0.056,0.138-0.084,0.231-0.084h0.644c0.103,0,0.182,0.028,0.238,0.084c0.056,0.057,0.084,0.136,0.084,0.238v3.262
							c0.271-0.345,0.59-0.608,0.959-0.791c0.369-0.182,0.824-0.272,1.365-0.272c0.896,0,1.594,0.287,2.093,0.861
							c0.499,0.573,0.749,1.332,0.749,2.274v3.962c0,0.094-0.029,0.171-0.091,0.231c-0.061,0.061-0.138,0.091-0.231,0.091h-0.657
							c-0.093,0-0.17-0.03-0.231-0.091c-0.061-0.061-0.091-0.138-0.091-0.231v-3.878c0-0.672-0.163-1.194-0.49-1.567
							c-0.327-0.374-0.798-0.561-1.414-0.561c-0.598,0-1.073,0.189-1.428,0.567c-0.354,0.378-0.532,0.898-0.532,1.561v3.878
							c0,0.094-0.03,0.171-0.091,0.231c-0.061,0.061-0.138,0.091-0.231,0.091h-0.644
							C308.793,394.228,308.716,394.197,308.655,394.137z"/>
						<path fill="#3A54F5" d="M317.629,393.5c-0.556-0.579-0.852-1.349-0.889-2.311l-0.015-0.602l0.015-0.603
							c0.037-0.961,0.338-1.731,0.902-2.31c0.565-0.579,1.352-0.868,2.359-0.868s1.794,0.289,2.359,0.868
							c0.564,0.578,0.865,1.349,0.902,2.31c0.019,0.206,0.028,0.406,0.028,0.603c0,0.195-0.01,0.396-0.028,0.602
							c-0.037,0.962-0.333,1.731-0.889,2.311c-0.556,0.578-1.347,0.867-2.373,0.867S318.185,394.078,317.629,393.5z
							 M321.423,392.751c0.351-0.379,0.539-0.922,0.567-1.632c0.009-0.093,0.014-0.271,0.014-0.531c0-0.262-0.005-0.438-0.014-0.532
							c-0.028-0.709-0.217-1.253-0.567-1.631c-0.35-0.378-0.823-0.567-1.421-0.567s-1.071,0.189-1.421,0.567
							s-0.539,0.922-0.567,1.631L318,390.588l0.014,0.531c0.028,0.71,0.218,1.253,0.567,1.632c0.35,0.378,0.823,0.566,1.421,0.566
							S321.074,393.129,321.423,392.751z"/>
						<path fill="#3A54F5" d="M326.5,394.144c-0.065-0.056-0.117-0.145-0.154-0.266l-1.988-6.496l-0.028-0.141
							c0-0.084,0.028-0.153,0.084-0.21c0.057-0.056,0.126-0.084,0.21-0.084h0.574c0.094,0,0.171,0.026,0.231,0.077
							c0.061,0.052,0.096,0.101,0.104,0.147l1.582,5.348l1.681-5.278c0.019-0.074,0.061-0.142,0.126-0.203
							c0.064-0.061,0.153-0.091,0.266-0.091h0.448c0.111,0,0.2,0.03,0.266,0.091c0.065,0.062,0.107,0.129,0.126,0.203l1.681,5.278
							l1.581-5.348c0.01-0.047,0.045-0.096,0.105-0.147c0.061-0.051,0.138-0.077,0.231-0.077h0.573c0.084,0,0.154,0.028,0.21,0.084
							c0.057,0.057,0.084,0.126,0.084,0.21l-0.027,0.141l-1.988,6.496c-0.037,0.121-0.089,0.21-0.154,0.266
							s-0.163,0.084-0.294,0.084h-0.504c-0.243,0-0.401-0.116-0.476-0.35l-1.639-5.068l-1.638,5.068
							c-0.075,0.233-0.233,0.35-0.476,0.35h-0.504C326.663,394.228,326.564,394.199,326.5,394.144z"/>
						<path fill="#3A54F5" d="M336.151,394.137c-0.061-0.061-0.091-0.138-0.091-0.231v-6.636c0-0.093,0.03-0.17,0.091-0.231
							c0.061-0.061,0.138-0.091,0.231-0.091h0.602c0.103,0,0.183,0.028,0.238,0.084c0.056,0.057,0.084,0.136,0.084,0.238v0.616
							c0.28-0.346,0.604-0.611,0.973-0.798c0.369-0.187,0.829-0.28,1.38-0.28c0.896,0,1.591,0.287,2.086,0.861
							c0.494,0.573,0.741,1.332,0.741,2.274v3.962c0,0.094-0.03,0.171-0.091,0.231s-0.138,0.091-0.23,0.091h-0.645
							c-0.093,0-0.17-0.03-0.23-0.091c-0.062-0.061-0.091-0.138-0.091-0.231v-3.878c0-0.672-0.164-1.194-0.49-1.567
							c-0.327-0.374-0.794-0.561-1.4-0.561c-0.598,0-1.073,0.189-1.428,0.567s-0.532,0.898-0.532,1.561v3.878
							c0,0.094-0.03,0.171-0.091,0.231s-0.138,0.091-0.231,0.091h-0.644C336.289,394.228,336.211,394.197,336.151,394.137z"/>
						<path fill="#3A54F5" d="M343.39,396.362c-0.062-0.061-0.092-0.138-0.092-0.23v-0.462c0-0.084,0.028-0.157,0.084-0.218
							c0.057-0.061,0.122-0.091,0.196-0.091c0.522-0.009,0.936-0.188,1.239-0.539c0.303-0.35,0.521-0.917,0.65-1.701
							c0.131-0.783,0.196-1.856,0.196-3.22c0-1.362-0.065-2.434-0.196-3.213c-0.13-0.779-0.348-1.344-0.65-1.694
							c-0.304-0.35-0.717-0.529-1.239-0.539c-0.074,0-0.14-0.029-0.196-0.091c-0.056-0.061-0.084-0.133-0.084-0.217v-0.462
							c0-0.093,0.03-0.17,0.092-0.231c0.061-0.061,0.133-0.091,0.217-0.091c0.803,0,1.439,0.227,1.911,0.68
							c0.471,0.452,0.81,1.152,1.015,2.1s0.308,2.2,0.308,3.759s-0.103,2.814-0.308,3.767c-0.205,0.951-0.544,1.653-1.015,2.106
							c-0.472,0.453-1.108,0.679-1.911,0.679C343.523,396.453,343.451,396.423,343.39,396.362z"/>
					</g>
				</g>
			</g>
		</g>
	</g>
</g>
<g id="N-TEXT" display="none">
</g>
<g id="AG-DIAGRAM">
</g>
<g id="AG-DASH">
	<g id="POLYLINE_846_">
		<g>
			<g>
				
					<line fill="none" stroke="#3A54F5" stroke-width="2.25" stroke-linecap="round" stroke-linejoin="round" x1="528.718" y1="185.483" x2="528.718" y2="183.483"/>
				
					<line fill="none" stroke="#3A54F5" stroke-width="2.25" stroke-linecap="round" stroke-linejoin="round" stroke-dasharray="3.8295,5.7443" x1="528.718" y1="177.739" x2="528.718" y2="123.168"/>
				<polyline fill="none" stroke="#3A54F5" stroke-width="2.25" stroke-linecap="round" stroke-linejoin="round" points="
					528.718,120.296 528.718,118.296 526.718,118.296 				"/>
				
					<line fill="none" stroke="#3A54F5" stroke-width="2.25" stroke-linecap="round" stroke-linejoin="round" stroke-dasharray="3.7368,5.6053" x1="521.113" y1="118.296" x2="458.521" y2="118.296"/>
				<polyline fill="none" stroke="#3A54F5" stroke-width="2.25" stroke-linecap="round" stroke-linejoin="round" points="
					455.718,118.296 453.718,118.296 453.718,120.296 				"/>
				
					<line fill="none" stroke="#3A54F5" stroke-width="2.25" stroke-linecap="round" stroke-linejoin="round" stroke-dasharray="3.8295,5.7443" x1="453.718" y1="126.04" x2="453.718" y2="180.611"/>
				
					<line fill="none" stroke="#3A54F5" stroke-width="2.25" stroke-linecap="round" stroke-linejoin="round" x1="453.718" y1="183.483" x2="453.718" y2="185.483"/>
			</g>
		</g>
	</g>
</g>
<g id="AG-FURNITURE">
	<g id="POLYLINE_844_">
		
			<path fill="none" stroke="#3A54F5" stroke-width="2.75" stroke-linecap="round" stroke-linejoin="round" stroke-miterlimit="10" d="
			M332.018,609.702c0.007,5.498,1.914,10.912,5.375,15.188c3.568,4.409,8.667,7.464,14.238,8.529
			c5.211,0.996,10.687,0.226,15.423-2.165c5.149-2.599,9.261-7.05,11.45-12.385c2.398-5.844,1.808-12.187,1.808-18.362
			c0-2.347,0.33-4.976-0.25-7.291c-0.431-1.72-1.402-3.267-2.683-4.482c-2.807-2.661-6.376-3.251-10.085-3.251
			c-7.947,0-15.899-0.087-23.846,0c-3.69,0.04-7.462,1.565-9.69,4.599c-0.997,1.358-1.626,2.977-1.726,4.664
			c-0.211,3.56-0.015,7.185-0.015,10.75C332.018,606.898,332.018,608.3,332.018,609.702z"/>
	</g>
	<g id="POLYLINE_843_">
		
			<path fill="none" stroke="#3A54F5" stroke-width="2.75" stroke-linecap="round" stroke-linejoin="round" stroke-miterlimit="10" d="
			M238.268,609.702c0.007,5.498,1.914,10.912,5.375,15.188c3.568,4.409,8.667,7.464,14.238,8.529
			c5.211,0.996,10.687,0.226,15.423-2.165c5.149-2.599,9.261-7.05,11.45-12.385c2.398-5.844,1.808-12.187,1.808-18.362
			c0-2.347,0.33-4.976-0.25-7.291c-0.431-1.72-1.402-3.267-2.683-4.482c-2.807-2.661-6.376-3.251-10.085-3.251
			c-7.947,0-15.899-0.087-23.846,0c-3.69,0.04-7.462,1.565-9.69,4.599c-0.997,1.358-1.626,2.977-1.726,4.664
			c-0.211,3.56-0.015,7.185-0.015,10.75C238.268,606.898,238.268,608.3,238.268,609.702z"/>
	</g>
</g>
<g id="AG-LAYOUT">
	<g id="POLYLINE_842_">
		
			<polygon fill="none" stroke="#3A54F5" stroke-width="2.75" stroke-linecap="round" stroke-linejoin="round" stroke-miterlimit="10" points="
			140.539,572.983 140.539,110.483 628.039,110.483 628.039,312.046 553.039,312.046 553.039,185.483 215.539,185.483 
			215.539,447.983 403.039,447.983 403.039,572.983 		"/>
	</g>
	<g id="POLYLINE_841_">
		
			<path fill="none" stroke="#3A54F5" stroke-width="2.75" stroke-linecap="round" stroke-linejoin="round" stroke-miterlimit="10" d="
			M431.946,180.014c3.01-0.003,4.688-2.546,4.688-5.305c0-9.717,0-19.434,0-29.15c0-3.089,0.073-6.187,0-9.276
			c-0.035-1.475-0.661-2.847-1.853-3.752c-0.962-0.731-2.06-0.954-3.241-0.955c-3.693-0.002-7.387,0-11.08,0
			c-9.646,0-19.292,0-28.938,0c-2.801,0-5.202,1.698-5.278,4.688c-0.219,8.583,0,17.199,0,25.784c0,4.145,0,8.291,0,12.436
			c0,1.226,0.075,2.361,0.773,3.421c0.838,1.272,2.242,2.036,3.752,2.106c2.621,0.121,5.275,0.003,7.898,0.003
			c10.345,0,20.689,0,31.034,0C430.449,180.014,431.197,180.014,431.946,180.014z"/>
	</g>
	<g id="POLYLINE_840_">
		
			<path fill="none" stroke="#3A54F5" stroke-width="2.75" stroke-linecap="round" stroke-linejoin="round" stroke-miterlimit="10" d="
			M336.633,180.014c-3.01-0.003-4.688-2.546-4.688-5.305c0-9.717,0-19.434,0-29.15c0-3.089-0.073-6.187,0-9.276
			c0.035-1.475,0.661-2.847,1.853-3.752c0.962-0.731,2.06-0.954,3.241-0.955c3.693-0.002,7.387,0,11.08,0c9.646,0,19.292,0,28.938,0
			c2.801,0,5.202,1.698,5.278,4.688c0.219,8.583,0,17.199,0,25.784c0,4.145,0,8.291,0,12.436c0,1.226-0.075,2.361-0.773,3.421
			c-0.838,1.272-2.242,2.036-3.752,2.106c-2.621,0.121-5.275,0.003-7.898,0.003c-10.345,0-20.689,0-31.034,0
			C338.13,180.014,337.382,180.014,336.633,180.014z"/>
	</g>
	<g id="POLYLINE_839_">
		
			<path fill="none" stroke="#3A54F5" stroke-width="2.75" stroke-linecap="round" stroke-linejoin="round" stroke-miterlimit="10" d="
			M362.61,154.233c-0.003-2.285-1.473-4.378-3.626-5.149c-2.151-0.77-4.62-0.087-6.069,1.678c-1.45,1.765-1.639,4.32-0.465,6.28
			s3.515,2.999,5.756,2.555c2.232-0.443,3.996-2.285,4.341-4.535C362.588,154.788,362.609,154.511,362.61,154.233z"/>
	</g>
	<g id="POLYLINE_837_">
		
			<path fill="none" stroke="#3A54F5" stroke-width="2.75" stroke-linecap="round" stroke-linejoin="round" stroke-miterlimit="10" d="
			M416.907,154.233c-0.003-2.285-1.473-4.378-3.626-5.149c-2.151-0.77-4.62-0.087-6.069,1.678c-1.45,1.765-1.639,4.32-0.465,6.28
			s3.515,2.999,5.756,2.555c2.232-0.443,3.996-2.285,4.341-4.535C416.885,154.788,416.906,154.511,416.907,154.233z"/>
	</g>
	<g id="POLYLINE_836_">
		
			<path fill="none" stroke="#3A54F5" stroke-width="2.75" stroke-linecap="round" stroke-linejoin="round" stroke-miterlimit="10" d="
			M326.477,180.796c0.002,2.35,1.824,4.394,4.163,4.658c0.742,0.084,1.514,0.03,2.259,0.03c2.051,0,4.103,0,6.154,0
			c7.312,0,14.624,0,21.936,0c9.443,0,18.886,0,28.329,0c8.996,0,17.993,0,26.989,0c5.973,0,11.945,0,17.918,0
			c1.861,0,4.047,0.321,5.701-0.729c2.352-1.493,2.177-3.942,2.177-6.373c0-8.003,0-16.005,0-24.008c0-7.448,0-14.895,0-22.343
			c0-2.279-0.398-4.419-2.727-5.492c-1.842-0.848-4.431-0.43-6.371-0.43c-6.41,0-12.819,0-19.229,0c-9.164,0-18.328,0-27.491,0
			c-9.341,0-18.681,0-28.022,0c-6.924,0-13.848,0-20.773,0c-1.774,0-3.547,0-5.321,0c-0.719,0-1.441-0.035-2.145,0.141
			c-2.216,0.556-3.528,2.551-3.546,4.757c-0.053,6.409,0,12.82,0,19.23c0,8.651,0,17.302,0,25.953
			C326.477,177.724,326.477,179.26,326.477,180.796z"/>
	</g>
	<g id="POLYLINE_623_">
		
			<path fill="none" stroke="#3A54F5" stroke-width="2.75" stroke-linecap="round" stroke-linejoin="round" stroke-miterlimit="10" d="
			M384.289,116.681c-2.247,0.02-3.29,2.933-1.512,4.342c1.703,1.35,4.263-0.152,3.914-2.298
			C386.502,117.554,385.468,116.691,384.289,116.681z"/>
	</g>
	<g id="POLYLINE_595_">
		
			<rect x="621.789" y="317.514" fill="none" stroke="#3A54F5" stroke-width="2.75" stroke-linecap="round" stroke-linejoin="round" stroke-miterlimit="10" width="6.25" height="100"/>
	</g>
	<g id="POLYLINE_594_">
		
			<rect x="546.789" y="312.046" fill="none" stroke="#3A54F5" stroke-width="2.75" stroke-linecap="round" stroke-linejoin="round" stroke-miterlimit="10" width="4.688" height="55.469"/>
	</g>
	<g id="POLYLINE_592_">
		
			<rect x="546.789" y="367.514" fill="none" stroke="#3A54F5" stroke-width="2.75" stroke-linecap="round" stroke-linejoin="round" stroke-miterlimit="10" width="4.688" height="55.469"/>
	</g>
	<g id="POLYLINE_591_">
		
			<rect x="551.477" y="312.046" fill="none" stroke="#3A54F5" stroke-width="2.75" stroke-linecap="round" stroke-linejoin="round" stroke-miterlimit="10" width="70.312" height="110.938"/>
	</g>
	<g id="POLYLINE_590_">
		
			<path fill="none" stroke="#3A54F5" stroke-width="2.75" stroke-linecap="round" stroke-linejoin="round" stroke-miterlimit="10" d="
			M196.008,333.533c5.877,0.019,11.255,3.78,13.239,9.323c1.979,5.53,0.224,11.88-4.315,15.607
			c-4.54,3.728-11.109,4.214-16.148,1.196c-5.039-3.018-7.712-9.039-6.569-14.8c1.138-5.74,5.877-10.276,11.66-11.163
			C194.581,333.588,195.294,333.535,196.008,333.533z"/>
	</g>
	<g id="POLYLINE_589_">
		
			<path fill="none" stroke="#3A54F5" stroke-width="2.75" stroke-linecap="round" stroke-linejoin="round" stroke-miterlimit="10" d="
			M196.008,312.049c5.877-0.019,11.255-3.78,13.239-9.323c1.979-5.53,0.224-11.88-4.315-15.607
			c-4.54-3.728-11.109-4.214-16.148-1.196c-5.039,3.018-7.712,9.039-6.569,14.8c1.138,5.74,5.877,10.276,11.66,11.163
			C194.581,311.994,195.294,312.046,196.008,312.049z"/>
	</g>
	<g id="POLYLINE_588_">
		
			<rect x="140.539" y="276.111" fill="none" stroke="#3A54F5" stroke-width="2.75" stroke-linecap="round" stroke-linejoin="round" stroke-miterlimit="10" width="75" height="93.359"/>
	</g>
	<g id="POLYLINE_568_">
		
			<path fill="none" stroke="#3A54F5" stroke-width="2.75" stroke-linecap="round" stroke-linejoin="round" stroke-miterlimit="10" d="
			M165.16,302.704c3.918-0.009,7.504-2.523,8.826-6.216c1.32-3.687,0.15-7.92-2.877-10.405c-3.026-2.485-7.406-2.809-10.766-0.798
			c-3.359,2.012-5.141,6.026-4.38,9.867c0.759,3.826,3.918,6.852,7.774,7.442C164.208,302.668,164.684,302.703,165.16,302.704z"/>
	</g>
	<g id="POLYLINE_567_">
		
			<path fill="none" stroke="#3A54F5" stroke-width="2.75" stroke-linecap="round" stroke-linejoin="round" stroke-miterlimit="10" d="
			M165.16,342.877c3.918,0.009,7.504,2.523,8.826,6.216c1.32,3.687,0.15,7.92-2.877,10.405c-3.026,2.485-7.406,2.809-10.766,0.798
			c-3.359-2.012-5.141-6.026-4.38-9.867c0.759-3.826,3.918-6.852,7.774-7.442C164.208,342.914,164.684,342.878,165.16,342.877z"/>
	</g>
	<g id="POLYLINE_566_">
		
			<path fill="none" stroke="#3A54F5" stroke-width="2.75" stroke-linecap="round" stroke-linejoin="round" stroke-miterlimit="10" d="
			M165.16,335.291c5.223-0.009,10.006-3.365,11.768-8.287c1.76-4.915,0.199-10.56-3.836-13.873
			c-4.036-3.314-9.874-3.744-14.354-1.063c-4.48,2.681-6.855,8.035-5.839,13.156c1.012,5.1,5.224,9.137,10.365,9.923
			C163.891,335.242,164.525,335.29,165.16,335.291z"/>
	</g>
	<g id="POLYLINE_564_">
		
			<rect x="140.539" y="276.111" fill="none" stroke="#3A54F5" stroke-width="2.75" stroke-linecap="round" stroke-linejoin="round" stroke-miterlimit="10" width="6.25" height="93.359"/>
	</g>
</g>
<g id="AG-OUTLINE">
	<g id="POLYLINE_176_">
		
			<polygon fill="none" stroke="#3A54F5" stroke-width="3.5" stroke-linecap="round" stroke-linejoin="round" stroke-miterlimit="10" points="
			628.039,312.046 628.039,110.483 140.539,110.483 140.539,572.983 403.039,572.983 403.039,447.983 215.539,447.983 
			215.539,185.483 553.039,185.483 553.039,312.046 551.477,312.046 546.789,312.046 546.789,367.514 546.789,422.983 
			551.477,422.983 621.789,422.983 628.039,422.983 		"/>
	</g>
</g>
</svg>
