<?xml version="1.0" encoding="utf-8"?>
<!-- Generator: Adobe Illustrator 23.0.2, SVG Export Plug-In . SVG Version: 6.00 Build 0)  -->
<!DOCTYPE svg PUBLIC "-//W3C//DTD SVG 1.1//EN" "http://www.w3.org/Graphics/SVG/1.1/DTD/svg11.dtd" [
	<!ENTITY ns_flows "http://ns.adobe.com/Flows/1.0/">
	<!ENTITY ns_extend "http://ns.adobe.com/Extensibility/1.0/">
	<!ENTITY ns_ai "http://ns.adobe.com/AdobeIllustrator/10.0/">
	<!ENTITY ns_graphs "http://ns.adobe.com/Graphs/1.0/">
	<!ENTITY ns_vars "http://ns.adobe.com/Variables/1.0/">
	<!ENTITY ns_imrep "http://ns.adobe.com/ImageReplacement/1.0/">
	<!ENTITY ns_sfw "http://ns.adobe.com/SaveForWeb/1.0/">
	<!ENTITY ns_custom "http://ns.adobe.com/GenericCustomNamespace/1.0/">
	<!ENTITY ns_adobe_xpath "http://ns.adobe.com/XPath/1.0/">
]>
<svg version="1.1" xmlns:x="&ns_extend;" xmlns:i="&ns_ai;" xmlns:graph="&ns_graphs;"
	 xmlns="http://www.w3.org/2000/svg" xmlns:xlink="http://www.w3.org/1999/xlink" xmlns:a="http://ns.adobe.com/AdobeSVGViewerExtensions/3.0/"
	 x="0px" y="0px" viewBox="0 0 750 500" enable-background="new 0 0 750 500" xml:space="preserve">
<metadata>
	<sfw  xmlns="&ns_sfw;">
		<slices></slices>
		<sliceSourceBounds  bottomLeftOrigin="true" height="9185.057" width="6115.224" x="-5706.937" y="-3923.667">
			</sliceSourceBounds>
	</sfw>
</metadata>
<g id="FILL-BACKGROUND">
</g>
<g id="N-DIMENSIONS" display="none">
	<g display="inline">
		<g id="POLYLINE_968_">
			
				<line fill="none" stroke="#3A54F5" stroke-width="2" stroke-linecap="round" stroke-linejoin="round" stroke-miterlimit="10" x1="461.779" y1="378.543" x2="461.779" y2="326.253"/>
		</g>
		<g id="LINE_60_">
			
				<line fill="none" stroke="#3A54F5" stroke-width="2" stroke-linecap="round" stroke-linejoin="round" stroke-miterlimit="10" x1="461.779" y1="282.853" x2="461.779" y2="212.943"/>
		</g>
		<g id="POLYLINE_967_">
			
				<polyline fill="none" stroke="#3A54F5" stroke-width="2" stroke-linecap="round" stroke-linejoin="round" stroke-miterlimit="10" points="
				455.151,219.572 461.779,212.943 468.407,219.572 			"/>
		</g>
		<g id="POLYLINE_966_">
			
				<polyline fill="none" stroke="#3A54F5" stroke-width="2" stroke-linecap="round" stroke-linejoin="round" stroke-miterlimit="10" points="
				468.407,371.916 461.779,378.543 455.151,371.916 			"/>
		</g>
		<g id="MTEXT_133_">
			<g>
				<g>
					<g>
						<path fill="#3A54F5" d="M427.814,299.889c-0.078-0.078-0.117-0.177-0.117-0.297v-2.628h-5.85c-0.12,0-0.219-0.039-0.297-0.117
							s-0.117-0.177-0.117-0.297v-0.666c0-0.168,0.066-0.348,0.198-0.54l5.418-7.632c0.06-0.096,0.15-0.171,0.27-0.225
							c0.12-0.055,0.252-0.081,0.396-0.081h1.224c0.132,0,0.234,0.035,0.306,0.107c0.072,0.072,0.108,0.174,0.108,0.307v7.632h1.638
							c0.12,0,0.219,0.039,0.297,0.117c0.078,0.078,0.117,0.177,0.117,0.297v0.684c0,0.12-0.039,0.219-0.117,0.297
							c-0.078,0.078-0.177,0.117-0.297,0.117h-1.638v2.628c0,0.12-0.039,0.219-0.117,0.297s-0.177,0.117-0.297,0.117h-0.828
							C427.991,300.006,427.892,299.967,427.814,299.889z M423.305,295.488h4.41v-6.265L423.305,295.488z"/>
						<path fill="#3A54F5" d="M433.097,290.547c-0.048-0.065-0.066-0.159-0.054-0.279l0.396-2.52
							c0.048-0.348,0.216-0.522,0.504-0.522h1.152c0.083,0,0.153,0.03,0.207,0.09c0.054,0.061,0.081,0.133,0.081,0.217
							c0,0.12-0.018,0.216-0.054,0.288l-0.936,2.43c-0.06,0.132-0.126,0.231-0.198,0.297c-0.072,0.066-0.18,0.099-0.324,0.099
							h-0.558C433.217,290.646,433.145,290.613,433.097,290.547z"/>
						<path fill="#3A54F5" d="M441.971,303.633c-0.072-0.078-0.108-0.177-0.108-0.297v-19.044c0-0.12,0.036-0.219,0.108-0.297
							s0.168-0.117,0.288-0.117h0.666c0.12,0,0.219,0.039,0.297,0.117s0.117,0.177,0.117,0.297v19.044
							c0,0.12-0.039,0.219-0.117,0.297s-0.177,0.117-0.297,0.117h-0.666C442.139,303.75,442.042,303.711,441.971,303.633z"/>
						<path fill="#3A54F5" d="M453.778,299.889c-0.072-0.078-0.108-0.177-0.108-0.297v-10.152l-3.024,2.322
							c-0.084,0.072-0.174,0.108-0.27,0.108c-0.108,0-0.21-0.061-0.306-0.181l-0.432-0.558c-0.06-0.084-0.09-0.168-0.09-0.252
							c0-0.132,0.06-0.24,0.18-0.324l3.906-3.023c0.132-0.084,0.288-0.126,0.468-0.126h0.846c0.12,0,0.219,0.039,0.297,0.116
							c0.078,0.078,0.117,0.178,0.117,0.298v11.771c0,0.12-0.039,0.219-0.117,0.297s-0.177,0.117-0.297,0.117h-0.882
							C453.946,300.006,453.85,299.967,453.778,299.889z"/>
						<path fill="#3A54F5" d="M458.089,299.889c-0.078-0.078-0.117-0.177-0.117-0.297v-1.242c0-0.119,0.039-0.222,0.117-0.306
							s0.177-0.126,0.297-0.126h1.242c0.12,0,0.219,0.042,0.297,0.126s0.117,0.187,0.117,0.306v1.242
							c0,0.12-0.039,0.219-0.117,0.297s-0.177,0.117-0.297,0.117h-1.242C458.266,300.006,458.167,299.967,458.089,299.889z"/>
						<path fill="#3A54F5" d="M462.247,299.889c-0.078-0.078-0.117-0.177-0.117-0.297v-0.54c0-0.275,0.15-0.54,0.45-0.792
							l3.924-3.906c0.888-0.756,1.5-1.374,1.836-1.854s0.504-0.99,0.504-1.53c0-0.708-0.198-1.263-0.594-1.665
							c-0.396-0.401-0.972-0.603-1.728-0.603c-0.72,0-1.29,0.21-1.71,0.63s-0.678,0.984-0.774,1.691
							c-0.024,0.133-0.084,0.234-0.18,0.307s-0.192,0.107-0.288,0.107h-0.864c-0.108,0-0.198-0.035-0.27-0.107
							s-0.108-0.156-0.108-0.252c0.024-0.636,0.195-1.251,0.513-1.846c0.318-0.594,0.789-1.079,1.413-1.458
							c0.624-0.378,1.38-0.566,2.268-0.566c1.344,0,2.355,0.351,3.033,1.053c0.678,0.702,1.017,1.593,1.017,2.673
							c0,0.756-0.183,1.438-0.549,2.043c-0.366,0.606-0.939,1.245-1.719,1.917l-3.546,3.601h5.67c0.132,0,0.234,0.036,0.306,0.107
							c0.072,0.072,0.108,0.175,0.108,0.307v0.684c0,0.12-0.04,0.219-0.117,0.297c-0.078,0.078-0.177,0.117-0.297,0.117h-7.884
							C462.424,300.006,462.325,299.967,462.247,299.889z"/>
						<path fill="#3A54F5" d="M472.759,299.889c-0.078-0.078-0.117-0.177-0.117-0.297v-0.54c0-0.275,0.15-0.54,0.45-0.792
							l3.924-3.906c0.888-0.756,1.5-1.374,1.836-1.854s0.504-0.99,0.504-1.53c0-0.708-0.198-1.263-0.594-1.665
							c-0.396-0.401-0.972-0.603-1.728-0.603c-0.72,0-1.29,0.21-1.71,0.63s-0.678,0.984-0.774,1.691
							c-0.024,0.133-0.084,0.234-0.18,0.307s-0.192,0.107-0.288,0.107h-0.864c-0.108,0-0.198-0.035-0.27-0.107
							s-0.108-0.156-0.108-0.252c0.024-0.636,0.195-1.251,0.513-1.846c0.318-0.594,0.789-1.079,1.413-1.458
							c0.624-0.378,1.38-0.566,2.268-0.566c1.344,0,2.355,0.351,3.033,1.053c0.678,0.702,1.017,1.593,1.017,2.673
							c0,0.756-0.183,1.438-0.549,2.043c-0.366,0.606-0.939,1.245-1.719,1.917l-3.546,3.601h5.67c0.132,0,0.234,0.036,0.306,0.107
							c0.072,0.072,0.108,0.175,0.108,0.307v0.684c0,0.12-0.04,0.219-0.117,0.297c-0.078,0.078-0.177,0.117-0.297,0.117h-7.884
							C472.936,300.006,472.837,299.967,472.759,299.889z"/>
						<path fill="#3A54F5" d="M488.167,299.889c-0.078-0.078-0.117-0.177-0.117-0.297v-8.532c0-0.119,0.039-0.219,0.117-0.297
							s0.177-0.117,0.297-0.117h0.756c0.12,0,0.216,0.039,0.288,0.117c0.072,0.078,0.108,0.178,0.108,0.297v0.612
							c0.648-0.804,1.524-1.206,2.628-1.206c1.32,0,2.256,0.552,2.808,1.656c0.288-0.504,0.699-0.906,1.233-1.206
							c0.534-0.3,1.131-0.45,1.791-0.45c0.984,0,1.788,0.336,2.412,1.008c0.624,0.673,0.936,1.645,0.936,2.916v5.202
							c0,0.12-0.039,0.219-0.117,0.297s-0.177,0.117-0.297,0.117h-0.774c-0.12,0-0.219-0.039-0.297-0.117s-0.117-0.177-0.117-0.297
							v-5.04c0-0.96-0.198-1.646-0.594-2.061s-0.918-0.621-1.566-0.621c-0.576,0-1.071,0.213-1.485,0.639s-0.621,1.107-0.621,2.043
							v5.04c0,0.12-0.039,0.219-0.117,0.297s-0.177,0.117-0.297,0.117h-0.792c-0.12,0-0.219-0.039-0.297-0.117
							c-0.078-0.078-0.117-0.177-0.117-0.297v-5.04c0-0.947-0.207-1.632-0.621-2.052c-0.414-0.42-0.927-0.63-1.539-0.63
							c-0.576,0-1.071,0.21-1.485,0.63s-0.621,1.098-0.621,2.034v5.058c0,0.12-0.04,0.219-0.117,0.297
							c-0.078,0.078-0.177,0.117-0.297,0.117h-0.792C488.344,300.006,488.245,299.967,488.167,299.889z"/>
						<path fill="#3A54F5" d="M424.115,319.488c-0.078-0.078-0.117-0.177-0.117-0.297v-8.532c0-0.119,0.039-0.219,0.117-0.297
							s0.177-0.117,0.297-0.117h0.756c0.12,0,0.216,0.039,0.288,0.117c0.072,0.078,0.108,0.178,0.108,0.297v0.612
							c0.648-0.804,1.524-1.206,2.628-1.206c1.32,0,2.256,0.552,2.808,1.656c0.288-0.504,0.699-0.906,1.233-1.206
							c0.534-0.3,1.131-0.45,1.791-0.45c0.984,0,1.788,0.336,2.412,1.008c0.624,0.673,0.936,1.645,0.936,2.916v5.202
							c0,0.12-0.039,0.219-0.117,0.297s-0.177,0.117-0.297,0.117h-0.774c-0.12,0-0.219-0.039-0.297-0.117s-0.117-0.177-0.117-0.297
							v-5.04c0-0.96-0.198-1.646-0.594-2.061s-0.918-0.621-1.566-0.621c-0.576,0-1.071,0.213-1.485,0.639s-0.621,1.107-0.621,2.043
							v5.04c0,0.12-0.039,0.219-0.117,0.297s-0.177,0.117-0.297,0.117h-0.792c-0.12,0-0.219-0.039-0.297-0.117
							c-0.078-0.078-0.117-0.177-0.117-0.297v-5.04c0-0.947-0.207-1.632-0.621-2.052c-0.414-0.42-0.927-0.63-1.539-0.63
							c-0.576,0-1.071,0.21-1.485,0.63s-0.621,1.098-0.621,2.034v5.058c0,0.12-0.04,0.219-0.117,0.297
							c-0.078,0.078-0.177,0.117-0.297,0.117h-0.792C424.292,319.605,424.193,319.566,424.115,319.488z"/>
						<path fill="#3A54F5" d="M439.955,308.364c-0.079-0.078-0.117-0.177-0.117-0.297v-0.936c0-0.12,0.039-0.223,0.117-0.307
							c0.078-0.084,0.177-0.126,0.297-0.126h1.062c0.12,0,0.222,0.042,0.306,0.126s0.126,0.187,0.126,0.307v0.936
							c0,0.12-0.042,0.219-0.126,0.297s-0.186,0.117-0.306,0.117h-1.062C440.132,308.481,440.033,308.442,439.955,308.364z
							 M440.099,319.488c-0.078-0.078-0.117-0.177-0.117-0.297v-8.532c0-0.119,0.039-0.219,0.117-0.297s0.177-0.117,0.297-0.117
							h0.792c0.12,0,0.219,0.039,0.297,0.117c0.078,0.078,0.117,0.178,0.117,0.297v8.532c0,0.12-0.04,0.219-0.117,0.297
							c-0.078,0.078-0.177,0.117-0.297,0.117h-0.792C440.276,319.605,440.177,319.566,440.099,319.488z"/>
						<path fill="#3A54F5" d="M444.418,319.488c-0.078-0.078-0.117-0.177-0.117-0.297v-8.532c0-0.119,0.039-0.219,0.117-0.297
							s0.177-0.117,0.297-0.117h0.774c0.132,0,0.234,0.036,0.306,0.108c0.072,0.072,0.108,0.174,0.108,0.306v0.792
							c0.36-0.443,0.777-0.785,1.251-1.025c0.474-0.24,1.064-0.36,1.773-0.36c1.152,0,2.046,0.369,2.682,1.107
							c0.636,0.737,0.954,1.713,0.954,2.925v5.094c0,0.12-0.039,0.219-0.117,0.297c-0.078,0.078-0.177,0.117-0.297,0.117h-0.828
							c-0.12,0-0.219-0.039-0.297-0.117c-0.079-0.078-0.117-0.177-0.117-0.297v-4.986c0-0.863-0.21-1.535-0.63-2.016
							c-0.42-0.479-1.021-0.72-1.8-0.72c-0.768,0-1.38,0.243-1.836,0.729c-0.456,0.486-0.684,1.155-0.684,2.007v4.986
							c0,0.12-0.039,0.219-0.117,0.297c-0.078,0.078-0.177,0.117-0.297,0.117h-0.828
							C444.596,319.605,444.497,319.566,444.418,319.488z"/>
						<path fill="#3A54F5" d="M455.146,308.364c-0.079-0.078-0.117-0.177-0.117-0.297v-0.936c0-0.12,0.039-0.223,0.117-0.307
							c0.078-0.084,0.177-0.126,0.297-0.126h1.062c0.12,0,0.222,0.042,0.306,0.126s0.126,0.187,0.126,0.307v0.936
							c0,0.12-0.042,0.219-0.126,0.297s-0.186,0.117-0.306,0.117h-1.062C455.323,308.481,455.224,308.442,455.146,308.364z
							 M455.29,319.488c-0.078-0.078-0.117-0.177-0.117-0.297v-8.532c0-0.119,0.039-0.219,0.117-0.297s0.177-0.117,0.297-0.117
							h0.792c0.12,0,0.219,0.039,0.297,0.117c0.078,0.078,0.117,0.178,0.117,0.297v8.532c0,0.12-0.04,0.219-0.117,0.297
							c-0.078,0.078-0.177,0.117-0.297,0.117h-0.792C455.467,319.605,455.368,319.566,455.29,319.488z"/>
						<path fill="#3A54F5" d="M459.61,319.488c-0.078-0.078-0.117-0.177-0.117-0.297v-8.532c0-0.119,0.039-0.219,0.117-0.297
							s0.177-0.117,0.297-0.117h0.756c0.12,0,0.216,0.039,0.288,0.117c0.072,0.078,0.108,0.178,0.108,0.297v0.612
							c0.648-0.804,1.524-1.206,2.628-1.206c1.32,0,2.256,0.552,2.808,1.656c0.288-0.504,0.699-0.906,1.233-1.206
							c0.534-0.3,1.131-0.45,1.791-0.45c0.984,0,1.788,0.336,2.412,1.008c0.624,0.673,0.936,1.645,0.936,2.916v5.202
							c0,0.12-0.039,0.219-0.117,0.297s-0.177,0.117-0.297,0.117h-0.774c-0.12,0-0.219-0.039-0.297-0.117s-0.117-0.177-0.117-0.297
							v-5.04c0-0.96-0.198-1.646-0.594-2.061s-0.918-0.621-1.566-0.621c-0.576,0-1.071,0.213-1.485,0.639s-0.621,1.107-0.621,2.043
							v5.04c0,0.12-0.039,0.219-0.117,0.297s-0.177,0.117-0.297,0.117h-0.792c-0.12,0-0.219-0.039-0.297-0.117
							c-0.078-0.078-0.117-0.177-0.117-0.297v-5.04c0-0.947-0.207-1.632-0.621-2.052c-0.414-0.42-0.927-0.63-1.539-0.63
							c-0.576,0-1.071,0.21-1.485,0.63s-0.621,1.098-0.621,2.034v5.058c0,0.12-0.04,0.219-0.117,0.297
							c-0.078,0.078-0.177,0.117-0.297,0.117h-0.792C459.787,319.605,459.688,319.566,459.61,319.488z"/>
						<path fill="#3A54F5" d="M476.323,318.679c-0.624-0.738-0.936-1.72-0.936-2.943v-5.076c0-0.119,0.039-0.219,0.117-0.297
							s0.177-0.117,0.297-0.117h0.828c0.12,0,0.219,0.039,0.297,0.117s0.117,0.178,0.117,0.297v4.986
							c0,1.824,0.792,2.736,2.376,2.736c0.768,0,1.377-0.243,1.827-0.729c0.45-0.486,0.675-1.154,0.675-2.007v-4.986
							c0-0.119,0.039-0.219,0.117-0.297c0.078-0.078,0.177-0.117,0.297-0.117h0.828c0.12,0,0.219,0.039,0.297,0.117
							s0.117,0.178,0.117,0.297v8.532c0,0.12-0.039,0.219-0.117,0.297s-0.177,0.117-0.297,0.117h-0.774
							c-0.12,0-0.219-0.039-0.297-0.117s-0.117-0.177-0.117-0.297v-0.81c-0.348,0.468-0.756,0.818-1.224,1.053
							c-0.468,0.234-1.062,0.351-1.782,0.351C477.829,319.785,476.947,319.416,476.323,318.679z"/>
						<path fill="#3A54F5" d="M486.394,319.488c-0.078-0.078-0.117-0.177-0.117-0.297v-8.532c0-0.119,0.039-0.219,0.117-0.297
							s0.177-0.117,0.297-0.117h0.756c0.12,0,0.216,0.039,0.288,0.117c0.072,0.078,0.108,0.178,0.108,0.297v0.612
							c0.648-0.804,1.524-1.206,2.628-1.206c1.32,0,2.256,0.552,2.808,1.656c0.288-0.504,0.699-0.906,1.233-1.206
							c0.534-0.3,1.131-0.45,1.791-0.45c0.984,0,1.788,0.336,2.412,1.008c0.624,0.673,0.936,1.645,0.936,2.916v5.202
							c0,0.12-0.039,0.219-0.117,0.297s-0.177,0.117-0.297,0.117h-0.774c-0.12,0-0.219-0.039-0.297-0.117s-0.117-0.177-0.117-0.297
							v-5.04c0-0.96-0.198-1.646-0.594-2.061s-0.918-0.621-1.566-0.621c-0.576,0-1.071,0.213-1.485,0.639s-0.621,1.107-0.621,2.043
							v5.04c0,0.12-0.039,0.219-0.117,0.297s-0.177,0.117-0.297,0.117h-0.792c-0.12,0-0.219-0.039-0.297-0.117
							c-0.078-0.078-0.117-0.177-0.117-0.297v-5.04c0-0.947-0.207-1.632-0.621-2.052c-0.414-0.42-0.927-0.63-1.539-0.63
							c-0.576,0-1.071,0.21-1.485,0.63s-0.621,1.098-0.621,2.034v5.058c0,0.12-0.04,0.219-0.117,0.297
							c-0.078,0.078-0.177,0.117-0.297,0.117h-0.792C486.571,319.605,486.472,319.566,486.394,319.488z"/>
					</g>
				</g>
			</g>
		</g>
	</g>
	<g display="inline">
		<g id="POLYLINE_965_">
			
				<line fill="none" stroke="#3A54F5" stroke-width="2" stroke-linecap="round" stroke-linejoin="round" stroke-miterlimit="10" x1="642.591" y1="91.244" x2="424.731" y2="91.244"/>
		</g>
		<g id="LINE_59_">
			
				<line fill="none" stroke="#3A54F5" stroke-width="2" stroke-linecap="round" stroke-linejoin="round" stroke-miterlimit="10" x1="297.048" y1="91.244" x2="78.987" y2="91.244"/>
		</g>
		<g id="POLYLINE_964_">
			
				<polyline fill="none" stroke="#3A54F5" stroke-width="2" stroke-linecap="round" stroke-linejoin="round" stroke-miterlimit="10" points="
				85.616,97.871 78.987,91.244 85.616,84.615 			"/>
		</g>
		<g id="POLYLINE_963_">
			
				<polyline fill="none" stroke="#3A54F5" stroke-width="2" stroke-linecap="round" stroke-linejoin="round" stroke-miterlimit="10" points="
				635.964,84.615 642.591,91.244 635.964,97.871 			"/>
		</g>
		<g id="MTEXT_128_">
			<g>
				<g>
					<path fill="#3A54F5" d="M312.156,97.455c-0.072-0.078-0.108-0.177-0.108-0.297V87.006l-3.024,2.322
						c-0.084,0.072-0.174,0.108-0.27,0.108c-0.108,0-0.21-0.061-0.306-0.181l-0.432-0.558c-0.06-0.084-0.09-0.168-0.09-0.252
						c0-0.132,0.06-0.24,0.18-0.324l3.906-3.023c0.132-0.084,0.288-0.126,0.468-0.126h0.846c0.12,0,0.219,0.039,0.297,0.116
						c0.078,0.078,0.117,0.178,0.117,0.298v11.771c0,0.12-0.039,0.219-0.117,0.297s-0.177,0.117-0.297,0.117h-0.882
						C312.324,97.572,312.228,97.533,312.156,97.455z"/>
					<path fill="#3A54F5" d="M316.125,97.455c-0.078-0.078-0.117-0.177-0.117-0.297v-0.54c0-0.275,0.15-0.54,0.45-0.792l3.924-3.906
						c0.888-0.756,1.5-1.374,1.836-1.854s0.504-0.99,0.504-1.53c0-0.708-0.198-1.263-0.594-1.665
						c-0.396-0.401-0.972-0.603-1.728-0.603c-0.72,0-1.29,0.21-1.71,0.63s-0.678,0.984-0.774,1.691
						c-0.024,0.133-0.084,0.234-0.18,0.307s-0.192,0.107-0.288,0.107h-0.864c-0.108,0-0.198-0.035-0.27-0.107
						s-0.108-0.156-0.108-0.252c0.024-0.636,0.195-1.251,0.513-1.846c0.318-0.594,0.789-1.079,1.413-1.458
						c0.624-0.378,1.38-0.566,2.268-0.566c1.344,0,2.355,0.351,3.033,1.053c0.678,0.702,1.017,1.593,1.017,2.673
						c0,0.756-0.183,1.438-0.549,2.043c-0.366,0.606-0.939,1.245-1.719,1.917l-3.546,3.601h5.67c0.132,0,0.234,0.036,0.306,0.107
						c0.072,0.072,0.108,0.175,0.108,0.307v0.684c0,0.12-0.04,0.219-0.117,0.297c-0.078,0.078-0.177,0.117-0.297,0.117h-7.884
						C316.302,97.572,316.203,97.533,316.125,97.455z"/>
					<path fill="#3A54F5" d="M326.736,88.113c-0.048-0.065-0.066-0.159-0.054-0.279l0.396-2.52c0.048-0.348,0.216-0.522,0.504-0.522
						h1.152c0.083,0,0.153,0.03,0.207,0.09c0.054,0.061,0.081,0.133,0.081,0.217c0,0.12-0.018,0.216-0.054,0.288l-0.936,2.43
						c-0.06,0.132-0.126,0.231-0.198,0.297c-0.072,0.066-0.18,0.099-0.324,0.099h-0.558
						C326.855,88.212,326.784,88.18,326.736,88.113z"/>
					<path fill="#3A54F5" d="M332.757,97.167c-0.702-0.39-1.236-0.915-1.602-1.575c-0.366-0.659-0.549-1.379-0.549-2.159
						c0-1.032,0.414-2.136,1.242-3.312l3.438-4.788c0.012-0.012,0.045-0.054,0.099-0.126c0.054-0.072,0.123-0.129,0.207-0.171
						c0.083-0.042,0.18-0.062,0.288-0.062h0.882c0.108,0,0.195,0.039,0.261,0.116c0.066,0.078,0.099,0.172,0.099,0.279
						c0,0.061-0.03,0.139-0.09,0.234l-2.628,3.672c0.312-0.072,0.66-0.108,1.044-0.108c0.875,0,1.647,0.195,2.313,0.585
						c0.666,0.391,1.182,0.906,1.548,1.548c0.366,0.643,0.549,1.348,0.549,2.115c0,0.769-0.183,1.485-0.549,2.151
						c-0.366,0.666-0.897,1.197-1.593,1.593c-0.696,0.396-1.519,0.594-2.466,0.594C334.29,97.752,333.458,97.558,332.757,97.167z
						 M336.689,95.935c0.444-0.216,0.798-0.537,1.062-0.963s0.396-0.939,0.396-1.539c0-0.588-0.135-1.096-0.405-1.521
						s-0.627-0.75-1.071-0.972c-0.444-0.222-0.924-0.333-1.44-0.333s-0.996,0.111-1.44,0.333s-0.798,0.546-1.062,0.972
						s-0.396,0.934-0.396,1.521c0,0.6,0.132,1.113,0.396,1.539s0.618,0.747,1.062,0.963s0.924,0.323,1.44,0.323
						C335.76,96.258,336.246,96.15,336.689,95.935z"/>
					<path fill="#3A54F5" d="M341.612,88.104c-0.054-0.072-0.069-0.162-0.045-0.271l0.396-2.52c0.048-0.348,0.216-0.522,0.504-0.522
						h1.152c0.083,0,0.153,0.03,0.207,0.09c0.054,0.061,0.081,0.133,0.081,0.217c0,0.12-0.018,0.216-0.054,0.288l-0.936,2.43
						c-0.06,0.132-0.126,0.231-0.198,0.297c-0.072,0.066-0.18,0.099-0.324,0.099h-0.558
						C341.741,88.212,341.667,88.176,341.612,88.104z M344.438,88.104c-0.054-0.072-0.069-0.162-0.045-0.271l0.396-2.52
						c0.048-0.348,0.216-0.522,0.504-0.522h1.152c0.084,0,0.153,0.03,0.207,0.09c0.054,0.061,0.081,0.133,0.081,0.217
						c0,0.12-0.018,0.216-0.054,0.288l-0.936,2.43c-0.061,0.132-0.126,0.231-0.198,0.297c-0.072,0.066-0.18,0.099-0.324,0.099
						h-0.558C344.567,88.212,344.493,88.176,344.438,88.104z"/>
					<path fill="#3A54F5" d="M353.321,101.199c-0.072-0.078-0.108-0.177-0.108-0.297V81.858c0-0.12,0.036-0.219,0.108-0.297
						s0.168-0.117,0.288-0.117h0.666c0.12,0,0.219,0.039,0.297,0.117s0.117,0.177,0.117,0.297v19.044
						c0,0.12-0.039,0.219-0.117,0.297s-0.177,0.117-0.297,0.117h-0.666C353.489,101.316,353.393,101.277,353.321,101.199z"/>
					<path fill="#3A54F5" d="M363.347,97.293c-0.684-0.306-1.203-0.704-1.557-1.196s-0.543-1.002-0.567-1.53
						c0-0.108,0.036-0.195,0.108-0.261c0.072-0.066,0.162-0.1,0.27-0.1h0.81c0.132,0,0.24,0.027,0.324,0.081
						c0.083,0.054,0.15,0.159,0.198,0.315c0.156,0.611,0.495,1.044,1.017,1.296s1.137,0.378,1.845,0.378
						c0.864,0,1.551-0.207,2.061-0.621c0.51-0.414,0.765-1.005,0.765-1.773c0-1.464-0.894-2.195-2.682-2.195h-1.692
						c-0.12,0-0.219-0.039-0.297-0.117s-0.117-0.177-0.117-0.297v-0.468c0-0.181,0.066-0.336,0.198-0.469l3.51-3.888h-5.328
						c-0.12,0-0.219-0.036-0.297-0.108c-0.078-0.071-0.117-0.168-0.117-0.287v-0.648c0-0.132,0.039-0.237,0.117-0.315
						c0.078-0.077,0.177-0.116,0.297-0.116h7.128c0.132,0,0.237,0.039,0.315,0.116c0.078,0.078,0.117,0.184,0.117,0.315v0.594
						c0,0.133-0.061,0.271-0.18,0.414l-3.51,3.942h0.288c1.224,0.036,2.193,0.354,2.907,0.954c0.714,0.6,1.071,1.476,1.071,2.628
						c0,0.792-0.195,1.473-0.585,2.043c-0.39,0.57-0.933,1.008-1.629,1.313c-0.696,0.307-1.482,0.459-2.358,0.459
						C364.841,97.752,364.031,97.6,363.347,97.293z"/>
					<path fill="#3A54F5" d="M372.553,97.455c-0.078-0.078-0.117-0.177-0.117-0.297v-1.242c0-0.119,0.039-0.222,0.117-0.306
						s0.177-0.126,0.297-0.126h1.242c0.12,0,0.219,0.042,0.297,0.126s0.117,0.187,0.117,0.306v1.242c0,0.12-0.039,0.219-0.117,0.297
						s-0.177,0.117-0.297,0.117h-1.242C372.73,97.572,372.631,97.533,372.553,97.455z"/>
					<path fill="#3A54F5" d="M378.8,97.293c-0.714-0.306-1.269-0.747-1.665-1.322c-0.396-0.576-0.594-1.248-0.594-2.017
						c0-0.708,0.177-1.329,0.531-1.863c0.354-0.533,0.831-0.944,1.431-1.232c-0.48-0.276-0.853-0.639-1.116-1.089
						c-0.264-0.45-0.396-0.981-0.396-1.594c0-1.044,0.39-1.868,1.17-2.475c0.78-0.605,1.806-0.909,3.078-0.909
						s2.295,0.301,3.069,0.9s1.161,1.428,1.161,2.483c0,0.601-0.132,1.125-0.396,1.575c-0.264,0.45-0.63,0.819-1.098,1.107
						c0.6,0.288,1.077,0.699,1.431,1.232c0.354,0.534,0.531,1.161,0.531,1.882c0,0.768-0.198,1.437-0.594,2.007
						s-0.951,1.008-1.665,1.313c-0.714,0.307-1.527,0.459-2.439,0.459C380.327,97.752,379.514,97.6,378.8,97.293z M383.372,95.7
						c0.57-0.432,0.855-1.008,0.855-1.728c0-0.721-0.285-1.297-0.855-1.729s-1.281-0.647-2.133-0.647
						c-0.864,0-1.581,0.216-2.151,0.647c-0.57,0.432-0.855,1.008-0.855,1.729c0,0.72,0.285,1.296,0.855,1.728
						c0.57,0.432,1.287,0.648,2.151,0.648C382.091,96.349,382.802,96.132,383.372,95.7z M383.093,89.652
						c0.504-0.36,0.756-0.84,0.756-1.44c0-0.611-0.249-1.101-0.747-1.467s-1.119-0.549-1.863-0.549c-0.756,0-1.38,0.183-1.872,0.549
						c-0.492,0.366-0.738,0.855-0.738,1.467c0,0.612,0.246,1.102,0.738,1.468c0.492,0.366,1.116,0.549,1.872,0.549
						C381.971,90.204,382.589,90.013,383.093,89.652z"/>
					<path fill="#3A54F5" d="M391.625,97.455c-0.072-0.078-0.108-0.177-0.108-0.297V87.006l-3.024,2.322
						c-0.084,0.072-0.174,0.108-0.27,0.108c-0.108,0-0.21-0.061-0.306-0.181l-0.432-0.558c-0.06-0.084-0.09-0.168-0.09-0.252
						c0-0.132,0.06-0.24,0.18-0.324l3.906-3.023c0.132-0.084,0.288-0.126,0.468-0.126h0.846c0.12,0,0.219,0.039,0.297,0.116
						c0.078,0.078,0.117,0.178,0.117,0.298v11.771c0,0.12-0.039,0.219-0.117,0.297s-0.177,0.117-0.297,0.117h-0.882
						C391.792,97.572,391.696,97.533,391.625,97.455z"/>
					<path fill="#3A54F5" d="M400.489,97.455c-0.078-0.078-0.117-0.177-0.117-0.297v-8.532c0-0.119,0.039-0.219,0.117-0.297
						s0.177-0.117,0.297-0.117h0.756c0.12,0,0.216,0.039,0.288,0.117c0.072,0.078,0.108,0.178,0.108,0.297v0.612
						c0.648-0.804,1.524-1.206,2.628-1.206c1.32,0,2.256,0.552,2.808,1.656c0.288-0.504,0.699-0.906,1.233-1.206
						c0.534-0.3,1.131-0.45,1.791-0.45c0.984,0,1.788,0.336,2.412,1.008c0.624,0.673,0.936,1.645,0.936,2.916v5.202
						c0,0.12-0.039,0.219-0.117,0.297s-0.177,0.117-0.297,0.117h-0.774c-0.12,0-0.219-0.039-0.297-0.117s-0.117-0.177-0.117-0.297
						v-5.04c0-0.96-0.198-1.646-0.594-2.061s-0.918-0.621-1.566-0.621c-0.576,0-1.071,0.213-1.485,0.639s-0.621,1.107-0.621,2.043
						v5.04c0,0.12-0.039,0.219-0.117,0.297s-0.177,0.117-0.297,0.117h-0.792c-0.12,0-0.219-0.039-0.297-0.117
						c-0.078-0.078-0.117-0.177-0.117-0.297v-5.04c0-0.947-0.207-1.632-0.621-2.052c-0.414-0.42-0.927-0.63-1.539-0.63
						c-0.576,0-1.071,0.21-1.485,0.63s-0.621,1.098-0.621,2.034v5.058c0,0.12-0.04,0.219-0.117,0.297
						c-0.078,0.078-0.177,0.117-0.297,0.117h-0.792C400.666,97.572,400.567,97.533,400.489,97.455z"/>
				</g>
			</g>
		</g>
	</g>
	<g id="MTEXT_67_" display="inline">
		<g>
			<g>
				<path fill="#3A54F5" d="M86.754,406.244L82.11,417.17h-2.628l4.698-10.638h-5.886v-2.178h8.46V406.244z"/>
				<path fill="#3A54F5" d="M97.086,406.442h-6.03v3.204c0.276-0.324,0.657-0.585,1.143-0.783c0.486-0.197,1.023-0.297,1.611-0.297
					c0.875,0,1.604,0.189,2.187,0.566c0.582,0.379,1.014,0.883,1.296,1.513c0.282,0.63,0.423,1.329,0.423,2.097
					c0,1.356-0.381,2.442-1.143,3.258c-0.762,0.816-1.851,1.225-3.267,1.225c-0.924,0-1.728-0.165-2.412-0.495
					s-1.218-0.792-1.602-1.386c-0.384-0.594-0.594-1.287-0.63-2.079h2.466c0.096,0.54,0.318,0.969,0.666,1.286
					c0.348,0.318,0.81,0.478,1.386,0.478c0.696,0,1.215-0.213,1.557-0.639c0.342-0.427,0.513-0.993,0.513-1.701
					c0-0.672-0.18-1.194-0.54-1.565c-0.36-0.373-0.87-0.559-1.53-0.559c-0.48,0-0.888,0.105-1.224,0.314
					c-0.336,0.211-0.583,0.49-0.738,0.838h-2.466v-7.506h8.334V406.442z"/>
				<path fill="#3A54F5" d="M106.985,405.795c-0.3,0.264-0.45,0.726-0.45,1.385v0.019h2.016v2.142h-2.016v7.83h-2.538v-7.83h-1.278
					v-2.142h1.278v-0.233c0-1.188,0.339-2.104,1.017-2.746c0.678-0.641,1.683-0.963,3.015-0.963c0.228,0,0.402,0.007,0.522,0.019
					v2.196C107.807,405.422,107.285,405.531,106.985,405.795z"/>
				<path fill="#3A54F5" d="M115.391,414.992v2.178h-1.332c-1.116,0-1.971-0.27-2.565-0.81c-0.594-0.54-0.891-1.44-0.891-2.7v-4.32
					h-1.386v-2.142h1.386v-2.466h2.538v2.466h2.232v2.142h-2.232v4.356c0,0.479,0.096,0.816,0.288,1.009
					c0.192,0.191,0.516,0.287,0.972,0.287H115.391z"/>
				<path fill="#3A54F5" d="M120.003,405.919c0-0.329-0.079-0.588-0.236-0.776c-0.157-0.189-0.404-0.283-0.74-0.283
					c-0.692,0-1.06,0.472-1.102,1.416h-1.438c0.042-0.874,0.308-1.537,0.798-1.988c0.489-0.451,1.108-0.678,1.857-0.678
					c0.762,0,1.348,0.198,1.757,0.594c0.41,0.395,0.614,0.922,0.614,1.579c0,0.519-0.152,1.038-0.457,1.559s-0.691,1.001-1.16,1.438
					c-0.469,0.438-0.962,0.813-1.479,1.128h3.243v1.207h-5.216v-1.102C118.817,408.367,120.003,407.004,120.003,405.919z"/>
				<path fill="#3A54F5" d="M129.287,419.349h-2.538v-16.722h2.538V419.349z"/>
				<path fill="#3A54F5" d="M142.786,406.244l-4.644,10.926h-2.628l4.698-10.638h-5.886v-2.178h8.46V406.244z"/>
				<path fill="#3A54F5" d="M163.818,408.18c0.702,0.75,1.053,1.814,1.053,3.195v5.795h-2.52v-5.508
					c0-0.768-0.195-1.359-0.585-1.772c-0.39-0.414-0.927-0.621-1.611-0.621c-0.708,0-1.272,0.222-1.692,0.666
					s-0.63,1.092-0.63,1.944v5.291h-2.52v-5.508c0-0.768-0.195-1.359-0.585-1.772c-0.39-0.414-0.927-0.621-1.611-0.621
					c-0.708,0-1.272,0.222-1.692,0.666s-0.63,1.092-0.63,1.944v5.291h-2.538v-9.972h2.538v1.89c0.264-0.647,0.681-1.148,1.251-1.502
					c0.57-0.354,1.233-0.531,1.989-0.531c0.804,0,1.503,0.191,2.097,0.576c0.594,0.384,1.041,0.936,1.341,1.656
					c0.312-0.685,0.777-1.228,1.395-1.63c0.618-0.401,1.311-0.603,2.079-0.603C162.159,407.055,163.117,407.43,163.818,408.18z"/>
				<path fill="#3A54F5" d="M169.897,405.919c0-0.329-0.079-0.588-0.236-0.776c-0.157-0.189-0.404-0.283-0.74-0.283
					c-0.692,0-1.06,0.472-1.102,1.416h-1.438c0.042-0.874,0.308-1.537,0.798-1.988c0.489-0.451,1.108-0.678,1.857-0.678
					c0.762,0,1.348,0.198,1.757,0.594c0.41,0.395,0.614,0.922,0.614,1.579c0,0.519-0.152,1.038-0.457,1.559s-0.691,1.001-1.16,1.438
					c-0.469,0.438-0.962,0.813-1.479,1.128h3.243v1.207h-5.216v-1.102C168.711,408.367,169.897,407.004,169.897,405.919z"/>
			</g>
		</g>
	</g>
	<g display="inline">
		<g id="POLYLINE_962_">
			
				<line fill="none" stroke="#3A54F5" stroke-width="2" stroke-linecap="round" stroke-linejoin="round" stroke-miterlimit="10" x1="668.43" y1="384.405" x2="668.43" y2="269.533"/>
		</g>
		<g id="LINE_58_">
			
				<line fill="none" stroke="#3A54F5" stroke-width="2" stroke-linecap="round" stroke-linejoin="round" stroke-miterlimit="10" x1="668.43" y1="218.567" x2="668.43" y2="114.779"/>
		</g>
		<g id="POLYLINE_961_">
			
				<polyline fill="none" stroke="#3A54F5" stroke-width="2" stroke-linecap="round" stroke-linejoin="round" stroke-miterlimit="10" points="
				661.802,121.408 668.43,114.779 675.058,121.408 			"/>
		</g>
		<g id="POLYLINE_960_">
			
				<polyline fill="none" stroke="#3A54F5" stroke-width="2" stroke-linecap="round" stroke-linejoin="round" stroke-miterlimit="10" points="
				675.058,377.778 668.43,384.405 661.802,377.778 			"/>
		</g>
		<g id="MTEXT_6_">
			<g>
				<g>
					<g>
						<path fill="#3A54F5" d="M666.463,239.878c-0.702-0.39-1.236-0.915-1.602-1.575c-0.366-0.659-0.549-1.379-0.549-2.159
							c0-1.032,0.414-2.136,1.242-3.312l3.438-4.788c0.012-0.012,0.045-0.054,0.099-0.126c0.054-0.072,0.123-0.129,0.207-0.171
							c0.083-0.042,0.18-0.062,0.288-0.062h0.882c0.108,0,0.195,0.039,0.261,0.116c0.066,0.078,0.099,0.172,0.099,0.279
							c0,0.061-0.03,0.139-0.09,0.234l-2.628,3.672c0.312-0.072,0.66-0.108,1.044-0.108c0.875,0,1.647,0.195,2.313,0.585
							c0.666,0.391,1.182,0.906,1.548,1.548c0.366,0.643,0.549,1.348,0.549,2.115c0,0.769-0.183,1.485-0.549,2.151
							c-0.366,0.666-0.897,1.197-1.593,1.593c-0.696,0.396-1.519,0.594-2.466,0.594
							C667.996,240.463,667.165,240.269,666.463,239.878z M670.396,238.646c0.444-0.216,0.798-0.537,1.062-0.963
							s0.396-0.939,0.396-1.539c0-0.588-0.135-1.096-0.405-1.521s-0.627-0.75-1.071-0.972c-0.444-0.222-0.924-0.333-1.44-0.333
							s-0.996,0.111-1.44,0.333s-0.798,0.546-1.062,0.972s-0.396,0.934-0.396,1.521c0,0.6,0.132,1.113,0.396,1.539
							s0.618,0.747,1.062,0.963s0.924,0.323,1.44,0.323C669.466,238.969,669.952,238.861,670.396,238.646z"/>
						<path fill="#3A54F5" d="M675.328,230.824c-0.048-0.065-0.066-0.159-0.054-0.279l0.396-2.52
							c0.048-0.348,0.216-0.522,0.504-0.522h1.152c0.083,0,0.153,0.03,0.207,0.09c0.054,0.061,0.081,0.133,0.081,0.217
							c0,0.12-0.018,0.216-0.054,0.288l-0.936,2.43c-0.06,0.132-0.126,0.231-0.198,0.297c-0.072,0.066-0.18,0.099-0.324,0.099
							h-0.558C675.447,230.923,675.375,230.891,675.328,230.824z"/>
						<path fill="#3A54F5" d="M668.11,259.766c-0.072-0.078-0.108-0.177-0.108-0.297v-10.152l-3.024,2.322
							c-0.084,0.072-0.174,0.108-0.27,0.108c-0.108,0-0.21-0.061-0.306-0.181l-0.432-0.558c-0.06-0.084-0.09-0.168-0.09-0.252
							c0-0.132,0.06-0.24,0.18-0.324l3.906-3.023c0.132-0.084,0.288-0.126,0.468-0.126h0.846c0.12,0,0.219,0.039,0.297,0.116
							c0.078,0.078,0.117,0.178,0.117,0.298v11.771c0,0.12-0.039,0.219-0.117,0.297s-0.177,0.117-0.297,0.117h-0.882
							C668.278,259.883,668.182,259.844,668.11,259.766z"/>
						<path fill="#3A54F5" d="M672.42,259.766c-0.078-0.078-0.117-0.177-0.117-0.297v-1.242c0-0.119,0.039-0.222,0.117-0.306
							s0.177-0.126,0.297-0.126h1.242c0.12,0,0.219,0.042,0.297,0.126s0.117,0.187,0.117,0.306v1.242
							c0,0.12-0.039,0.219-0.117,0.297s-0.177,0.117-0.297,0.117h-1.242C672.598,259.883,672.499,259.844,672.42,259.766z"/>
						<path fill="#3A54F5" d="M678.667,259.604c-0.714-0.306-1.269-0.747-1.665-1.322c-0.396-0.576-0.594-1.248-0.594-2.017
							c0-0.708,0.177-1.329,0.531-1.863c0.354-0.533,0.831-0.944,1.431-1.232c-0.48-0.276-0.853-0.639-1.116-1.089
							c-0.264-0.45-0.396-0.981-0.396-1.594c0-1.044,0.39-1.868,1.17-2.475c0.78-0.605,1.806-0.909,3.078-0.909
							s2.295,0.301,3.069,0.9s1.161,1.428,1.161,2.483c0,0.601-0.132,1.125-0.396,1.575c-0.264,0.45-0.63,0.819-1.098,1.107
							c0.6,0.288,1.077,0.699,1.431,1.232c0.354,0.534,0.531,1.161,0.531,1.882c0,0.768-0.198,1.437-0.594,2.007
							s-0.951,1.008-1.665,1.313c-0.714,0.307-1.527,0.459-2.439,0.459C680.193,260.062,679.38,259.91,678.667,259.604z
							 M683.238,258.011c0.57-0.432,0.855-1.008,0.855-1.728c0-0.721-0.285-1.297-0.855-1.729s-1.281-0.647-2.133-0.647
							c-0.864,0-1.581,0.216-2.151,0.647c-0.57,0.432-0.855,1.008-0.855,1.729c0,0.72,0.285,1.296,0.855,1.728
							c0.57,0.432,1.287,0.648,2.151,0.648C681.958,258.659,682.668,258.442,683.238,258.011z M682.959,251.963
							c0.504-0.36,0.756-0.84,0.756-1.44c0-0.611-0.249-1.101-0.747-1.467s-1.119-0.549-1.863-0.549
							c-0.756,0-1.38,0.183-1.872,0.549c-0.492,0.366-0.738,0.855-0.738,1.467c0,0.612,0.246,1.102,0.738,1.468
							c0.492,0.366,1.116,0.549,1.872,0.549C681.837,252.515,682.456,252.323,682.959,251.963z"/>
						<path fill="#3A54F5" d="M689.709,259.604c-0.684-0.306-1.203-0.704-1.557-1.196s-0.543-1.002-0.567-1.53
							c0-0.108,0.036-0.195,0.108-0.261c0.072-0.066,0.162-0.1,0.27-0.1h0.81c0.132,0,0.24,0.027,0.324,0.081
							c0.083,0.054,0.15,0.159,0.198,0.315c0.156,0.611,0.495,1.044,1.017,1.296s1.137,0.378,1.845,0.378
							c0.864,0,1.551-0.207,2.061-0.621c0.51-0.414,0.765-1.005,0.765-1.773c0-1.464-0.894-2.195-2.682-2.195h-1.692
							c-0.12,0-0.219-0.039-0.297-0.117s-0.117-0.177-0.117-0.297v-0.468c0-0.181,0.066-0.336,0.198-0.469l3.51-3.888h-5.328
							c-0.12,0-0.219-0.036-0.297-0.108c-0.078-0.071-0.117-0.168-0.117-0.287v-0.648c0-0.132,0.039-0.237,0.117-0.315
							c0.078-0.077,0.177-0.116,0.297-0.116h7.128c0.132,0,0.237,0.039,0.315,0.116c0.078,0.078,0.117,0.184,0.117,0.315v0.594
							c0,0.133-0.061,0.271-0.18,0.414l-3.51,3.942h0.288c1.224,0.036,2.193,0.354,2.907,0.954c0.714,0.6,1.071,1.476,1.071,2.628
							c0,0.792-0.195,1.473-0.585,2.043c-0.39,0.57-0.933,1.008-1.629,1.313c-0.696,0.307-1.482,0.459-2.358,0.459
							C691.204,260.062,690.394,259.91,689.709,259.604z"/>
						<path fill="#3A54F5" d="M703.47,259.766c-0.078-0.078-0.117-0.177-0.117-0.297v-8.532c0-0.119,0.039-0.219,0.117-0.297
							s0.177-0.117,0.297-0.117h0.756c0.12,0,0.216,0.039,0.288,0.117c0.072,0.078,0.108,0.178,0.108,0.297v0.612
							c0.648-0.804,1.524-1.206,2.628-1.206c1.32,0,2.256,0.552,2.808,1.656c0.288-0.504,0.699-0.906,1.233-1.206
							c0.534-0.3,1.131-0.45,1.791-0.45c0.984,0,1.788,0.336,2.412,1.008c0.624,0.673,0.936,1.645,0.936,2.916v5.202
							c0,0.12-0.039,0.219-0.117,0.297s-0.177,0.117-0.297,0.117h-0.774c-0.12,0-0.219-0.039-0.297-0.117s-0.117-0.177-0.117-0.297
							v-5.04c0-0.96-0.198-1.646-0.594-2.061s-0.918-0.621-1.566-0.621c-0.576,0-1.071,0.213-1.485,0.639s-0.621,1.107-0.621,2.043
							v5.04c0,0.12-0.039,0.219-0.117,0.297s-0.177,0.117-0.297,0.117h-0.792c-0.12,0-0.219-0.039-0.297-0.117
							c-0.078-0.078-0.117-0.177-0.117-0.297v-5.04c0-0.947-0.207-1.632-0.621-2.052c-0.414-0.42-0.927-0.63-1.539-0.63
							c-0.576,0-1.071,0.21-1.485,0.63s-0.621,1.098-0.621,2.034v5.058c0,0.12-0.04,0.219-0.117,0.297
							c-0.078,0.078-0.177,0.117-0.297,0.117h-0.792C703.647,259.883,703.548,259.844,703.47,259.766z"/>
					</g>
				</g>
			</g>
		</g>
	</g>
</g>
<g id="N-TEXT" display="none">
</g>
<g id="AG-DIAGRAM">
	<g id="POLYLINE_958_">
		<g>
			<g>
				
					<line fill="none" stroke="#3A54F5" stroke-width="3" stroke-linecap="round" stroke-linejoin="round" x1="644.25" y1="213.245" x2="644.25" y2="215.745"/>
				
					<line fill="none" stroke="#3A54F5" stroke-width="3" stroke-linecap="round" stroke-linejoin="round" stroke-dasharray="5.138,7.1933" x1="644.25" y1="222.938" x2="644.25" y2="379.648"/>
				<polyline fill="none" stroke="#3A54F5" stroke-width="3" stroke-linecap="round" stroke-linejoin="round" points="
					644.25,383.245 644.25,385.745 641.75,385.745 				"/>
				
					<line fill="none" stroke="#3A54F5" stroke-width="3" stroke-linecap="round" stroke-linejoin="round" stroke-dasharray="4.9866,6.9812" x1="634.769" y1="385.745" x2="87.741" y2="385.745"/>
				<polyline fill="none" stroke="#3A54F5" stroke-width="3" stroke-linecap="round" stroke-linejoin="round" points="
					84.25,385.745 81.75,385.745 81.75,383.245 				"/>
				
					<line fill="none" stroke="#3A54F5" stroke-width="3" stroke-linecap="round" stroke-linejoin="round" stroke-dasharray="5,7" x1="81.75" y1="376.245" x2="81.75" y2="211.745"/>
				
					<line fill="none" stroke="#3A54F5" stroke-width="3" stroke-linecap="round" stroke-linejoin="round" x1="81.75" y1="208.245" x2="81.75" y2="205.745"/>
			</g>
		</g>
	</g>
</g>
<g id="AG-DASH">
	<g id="POLYLINE_957_">
		<g>
			<g>
				
					<line fill="none" stroke="#3A54F5" stroke-width="2.25" stroke-linecap="round" stroke-linejoin="round" x1="503.165" y1="205.745" x2="503.165" y2="203.745"/>
				
					<line fill="none" stroke="#3A54F5" stroke-width="2.25" stroke-linecap="round" stroke-linejoin="round" stroke-dasharray="4.0329,6.0493" x1="503.165" y1="197.696" x2="503.165" y2="130.145"/>
				<polyline fill="none" stroke="#3A54F5" stroke-width="2.25" stroke-linecap="round" stroke-linejoin="round" points="
					503.165,127.12 503.165,125.12 501.165,125.12 				"/>
				
					<line fill="none" stroke="#3A54F5" stroke-width="2.25" stroke-linecap="round" stroke-linejoin="round" stroke-dasharray="4,6" x1="495.165" y1="125.12" x2="418.165" y2="125.12"/>
				<polyline fill="none" stroke="#3A54F5" stroke-width="2.25" stroke-linecap="round" stroke-linejoin="round" points="
					415.165,125.12 413.165,125.12 413.165,127.12 				"/>
				
					<line fill="none" stroke="#3A54F5" stroke-width="2.25" stroke-linecap="round" stroke-linejoin="round" stroke-dasharray="4.0329,6.0493" x1="413.165" y1="133.169" x2="413.165" y2="200.72"/>
				
					<line fill="none" stroke="#3A54F5" stroke-width="2.25" stroke-linecap="round" stroke-linejoin="round" x1="413.165" y1="203.745" x2="413.165" y2="205.745"/>
			</g>
		</g>
	</g>
</g>
<g id="AG-FURNITURE">
</g>
<g id="AG-LAYOUT">
	<g id="POLYLINE_384_">
		
			<polyline fill="none" stroke="#3A54F5" stroke-width="2.75" stroke-linecap="round" stroke-linejoin="round" stroke-miterlimit="10" points="
			253.781,115.745 524.25,115.745 524.25,123.245 		"/>
	</g>
	<g id="POLYLINE_381_">
		
			<line fill="none" stroke="#3A54F5" stroke-width="2.75" stroke-linecap="round" stroke-linejoin="round" stroke-miterlimit="10" x1="253.781" y1="205.745" x2="524.25" y2="205.745"/>
	</g>
	<g id="POLYLINE_367_">
		
			<rect x="531.75" y="115.745" fill="none" stroke="#3A54F5" stroke-width="2.75" stroke-linecap="round" stroke-linejoin="round" stroke-miterlimit="10" width="105" height="7.5"/>
	</g>
	<g id="POLYLINE_366_">
		
			<rect x="524.25" y="207.62" fill="none" stroke="#3A54F5" stroke-width="2.75" stroke-linecap="round" stroke-linejoin="round" stroke-miterlimit="10" width="120" height="5.625"/>
	</g>
	<g id="POLYLINE_365_">
		
			<rect x="524.25" y="123.245" fill="none" stroke="#3A54F5" stroke-width="2.75" stroke-linecap="round" stroke-linejoin="round" stroke-miterlimit="10" width="120" height="84.375"/>
	</g>
	<g id="POLYLINE_364_">
		
			<path fill="none" stroke="#3A54F5" stroke-width="2.75" stroke-linecap="round" stroke-linejoin="round" stroke-miterlimit="10" d="
			M315.196,200.12c0.018,3.176,2.604,5.571,5.715,5.625c3.449,0.06,6.905,0,10.355,0c7.123,0,14.247,0,21.37,0
			c7.964,0,15.927,0,23.891,0c5.881,0,11.761,0,17.642,0c2.347,0,5.152,0.413,7.193-0.997c2.445-1.69,2.427-4.317,2.427-6.97
			c0-6.004,0-12.008,0-18.012c0-7.911,0-15.822,0-23.733c0-5.057,0-10.115,0-15.172c0-2.71-1.147-5.21-3.905-6.095
			c-0.958-0.308-1.938-0.27-2.928-0.27c-1.78,0-3.559,0-5.339,0c-6.517,0-13.034,0-19.552,0c-8.032,0-16.064,0-24.096,0
			c-6.627,0-13.254,0-19.881,0c-1.903,0-3.807,0-5.71,0c-0.956,0-1.953-0.067-2.888,0.16c-2.819,0.685-4.295,3.197-4.295,5.959
			c0,4.785,0,9.57,0,14.355c0,7.914,0,15.828,0,23.742c0,6.195,0,12.39,0,18.585C315.196,198.237,315.196,199.179,315.196,200.12z"
			/>
	</g>
	<g id="POLYLINE_363_">
		
			<path fill="none" stroke="#3A54F5" stroke-width="2.75" stroke-linecap="round" stroke-linejoin="round" stroke-miterlimit="10" d="
			M210.656,182.307c0.007,3.466,1.085,6.882,3.08,9.718c1.99,2.829,4.852,5.004,8.108,6.169c3.256,1.166,6.848,1.301,10.182,0.378
			c3.336-0.924,6.349-2.88,8.547-5.556c2.189-2.665,3.522-5.988,3.784-9.427c0.265-3.462-0.565-6.973-2.349-9.952
			c-1.777-2.967-4.467-5.351-7.629-6.753c-3.153-1.398-6.709-1.801-10.094-1.137c-3.397,0.667-6.55,2.39-8.944,4.891
			c-2.386,2.492-3.965,5.703-4.49,9.112C210.721,180.596,210.658,181.452,210.656,182.307z"/>
	</g>
	<g id="POLYLINE_362_">
		
			<path fill="none" stroke="#3A54F5" stroke-width="2.75" stroke-linecap="round" stroke-linejoin="round" stroke-miterlimit="10" d="
			M184.875,182.307c-0.007,3.466-1.085,6.882-3.08,9.718c-1.99,2.829-4.852,5.004-8.108,6.169
			c-3.256,1.166-6.848,1.301-10.182,0.378c-3.336-0.924-6.349-2.88-8.547-5.556c-2.189-2.665-3.522-5.988-3.784-9.427
			c-0.265-3.462,0.565-6.973,2.349-9.952c1.777-2.967,4.467-5.351,7.629-6.753c3.153-1.398,6.709-1.801,10.094-1.137
			c3.397,0.667,6.55,2.39,8.944,4.891c2.386,2.492,3.965,5.703,4.49,9.112C184.712,179.962,184.948,182.307,184.875,182.307z"/>
	</g>
	<g id="POLYLINE_338_">
		
			<rect x="141.75" y="115.745" fill="none" stroke="#3A54F5" stroke-width="2.75" stroke-linecap="round" stroke-linejoin="round" stroke-miterlimit="10" width="112.031" height="90"/>
	</g>
	<g id="POLYLINE_337_">
		
			<path fill="none" stroke="#3A54F5" stroke-width="2.75" stroke-linecap="round" stroke-linejoin="round" stroke-miterlimit="10" d="
			M173.662,145.29c-0.006,4.7-3.031,9.006-7.459,10.591c-4.424,1.584-9.504,0.18-12.486-3.452
			c-2.982-3.632-3.371-8.887-0.957-12.919c2.414-4.031,7.231-6.17,11.84-5.256c4.592,0.911,8.22,4.701,8.931,9.328
			C173.618,144.148,173.661,144.718,173.662,145.29z"/>
	</g>
	<g id="POLYLINE_336_">
		
			<path fill="none" stroke="#3A54F5" stroke-width="2.75" stroke-linecap="round" stroke-linejoin="round" stroke-miterlimit="10" d="
			M221.869,145.29c0.006,4.7,3.031,9.006,7.459,10.591c4.424,1.584,9.504,0.18,12.486-3.452c2.982-3.632,3.371-8.887,0.957-12.919
			c-2.414-4.031-7.231-6.17-11.84-5.256c-4.592,0.911-8.22,4.701-8.931,9.328C221.913,144.148,221.87,144.718,221.869,145.29z"/>
	</g>
	<g id="POLYLINE_335_">
		
			<path fill="none" stroke="#3A54F5" stroke-width="2.75" stroke-linecap="round" stroke-linejoin="round" stroke-miterlimit="10" d="
			M212.766,145.29c-0.02,6.269-4.032,12.005-9.945,14.122c-5.899,2.111-12.672,0.239-16.648-4.603
			c-3.976-4.842-4.495-11.85-1.276-17.225c3.219-5.375,9.641-8.226,15.787-7.007c6.122,1.214,10.961,6.268,11.908,12.438
			C212.707,143.767,212.763,144.528,212.766,145.29z"/>
	</g>
	<g id="POLYLINE_334_">
		
			<rect x="141.75" y="115.745" fill="none" stroke="#3A54F5" stroke-width="2.75" stroke-linecap="round" stroke-linejoin="round" stroke-miterlimit="10" width="112.031" height="7.5"/>
	</g>
	<g id="POLYLINE_325_">
		
			<rect x="81.75" y="115.745" fill="none" stroke="#3A54F5" stroke-width="2.75" stroke-linecap="round" stroke-linejoin="round" stroke-miterlimit="10" width="60" height="90"/>
	</g>
	<g id="POLYLINE_324_">
		
			<path fill="none" stroke="#3A54F5" stroke-width="2.75" stroke-linecap="round" stroke-linejoin="round" stroke-miterlimit="10" d="
			M327.384,199.182c-2.681-0.015-5.041-1.957-5.531-4.601c-0.179-0.968-0.094-2.016-0.094-2.994c0-2.143,0-4.286,0-6.429
			c0-6.502,0-13.005,0-19.507c0-5.45,0-10.9,0-16.35c0-2.291-0.193-4.597,1.481-6.421c1.55-1.688,3.555-1.822,5.685-1.822
			c4.273,0,8.546,0,12.82,0c6.582,0,13.164,0,19.746,0c6.31,0,12.621,0,18.931,0c3.56,0,7.121,0,10.681,0
			c2.245,0,4.306,0.872,5.43,2.916c1.176,2.139,0.695,5.201,0.695,7.533c0,6.038,0,12.076,0,18.114c0,6.131,0,12.262,0,18.392
			c0,1.64,0,3.28,0,4.921c0,1.013-0.073,1.994-0.496,2.933c-0.981,2.18-3.11,3.308-5.436,3.316c-3.343,0.011-6.686,0-10.029,0
			c-6.26,0-12.52,0-18.78,0c-6.6,0-13.199,0-19.799,0c-4.458,0-8.916,0-13.374,0C328.67,199.182,328.027,199.182,327.384,199.182z"
			/>
	</g>
	<g id="POLYLINE_323_">
		
			<path fill="none" stroke="#3A54F5" stroke-width="2.75" stroke-linecap="round" stroke-linejoin="round" stroke-miterlimit="10" d="
			M366.056,168.245c-0.002-2.742-1.769-5.254-4.351-6.178c-2.581-0.924-5.544-0.105-7.283,2.014
			c-1.74,2.119-1.966,5.184-0.558,7.536c1.408,2.352,4.218,3.599,6.907,3.066c2.678-0.531,4.796-2.742,5.21-5.442
			C366.03,168.911,366.055,168.578,366.056,168.245z"/>
	</g>
	<g id="POLYLINE_322_">
		
			<path fill="none" stroke="#3A54F5" stroke-width="2.75" stroke-linecap="round" stroke-linejoin="round" stroke-miterlimit="10" d="
			M359.493,123.182c2.699,0.023,3.945,3.518,1.814,5.21c-2.043,1.623-5.115-0.184-4.697-2.757
			C356.839,124.23,358.078,123.194,359.493,123.182z"/>
	</g>
</g>
<g id="AG-OUTLINE">
	<g id="POLYLINE_302_">
		
			<polygon fill="none" stroke="#3A54F5" stroke-width="3.5" stroke-linecap="round" stroke-linejoin="round" stroke-miterlimit="10" points="
			644.25,123.245 644.25,213.245 524.25,213.245 524.25,205.745 253.781,205.745 81.75,205.745 81.75,115.745 141.75,115.745 
			524.25,115.745 644.25,115.745 		"/>
	</g>
</g>
</svg>
