<?xml version="1.0" encoding="utf-8"?>
<!-- Generator: Adobe Illustrator 23.0.2, SVG Export Plug-In . SVG Version: 6.00 Build 0)  -->
<!DOCTYPE svg PUBLIC "-//W3C//DTD SVG 1.1//EN" "http://www.w3.org/Graphics/SVG/1.1/DTD/svg11.dtd" [
	<!ENTITY ns_flows "http://ns.adobe.com/Flows/1.0/">
	<!ENTITY ns_extend "http://ns.adobe.com/Extensibility/1.0/">
	<!ENTITY ns_ai "http://ns.adobe.com/AdobeIllustrator/10.0/">
	<!ENTITY ns_graphs "http://ns.adobe.com/Graphs/1.0/">
	<!ENTITY ns_vars "http://ns.adobe.com/Variables/1.0/">
	<!ENTITY ns_imrep "http://ns.adobe.com/ImageReplacement/1.0/">
	<!ENTITY ns_sfw "http://ns.adobe.com/SaveForWeb/1.0/">
	<!ENTITY ns_custom "http://ns.adobe.com/GenericCustomNamespace/1.0/">
	<!ENTITY ns_adobe_xpath "http://ns.adobe.com/XPath/1.0/">
]>
<svg version="1.1" xmlns:x="&ns_extend;" xmlns:i="&ns_ai;" xmlns:graph="&ns_graphs;"
	 xmlns="http://www.w3.org/2000/svg" xmlns:xlink="http://www.w3.org/1999/xlink" xmlns:a="http://ns.adobe.com/AdobeSVGViewerExtensions/3.0/"
	 x="0px" y="0px" viewBox="0 0 750 600" enable-background="new 0 0 750 600" xml:space="preserve">
<metadata>
	<sfw  xmlns="&ns_sfw;">
		<slices></slices>
		<sliceSourceBounds  bottomLeftOrigin="true" height="9185.057" width="6115.224" x="-5706.937" y="-3923.667">
			</sliceSourceBounds>
	</sfw>
</metadata>
<g id="FILL-BACKGROUND">
</g>
<g id="N-DIMENSIONS" display="none">
	<g display="inline">
		<g id="POLYLINE_563_">
			
				<line fill="none" stroke="#3A54F5" stroke-width="2" stroke-linecap="round" stroke-linejoin="round" stroke-miterlimit="10" x1="660.809" y1="88.86" x2="442.011" y2="88.86"/>
		</g>
		<g id="LINE_43_">
			
				<line fill="none" stroke="#3A54F5" stroke-width="2" stroke-linecap="round" stroke-linejoin="round" stroke-miterlimit="10" x1="314.327" y1="88.86" x2="110.267" y2="88.86"/>
		</g>
		<g id="POLYLINE_562_">
			
				<polyline fill="none" stroke="#3A54F5" stroke-width="2" stroke-linecap="round" stroke-linejoin="round" stroke-miterlimit="10" points="
				116.896,95.488 110.267,88.86 116.896,82.232 			"/>
		</g>
		<g id="POLYLINE_561_">
			
				<polyline fill="none" stroke="#3A54F5" stroke-width="2" stroke-linecap="round" stroke-linejoin="round" stroke-miterlimit="10" points="
				654.182,82.232 660.809,88.86 654.182,95.488 			"/>
		</g>
		<g id="MTEXT_97_">
			<g>
				<g>
					<path fill="#3A54F5" d="M325.016,95.076c-0.072-0.078-0.108-0.177-0.108-0.297V84.627l-3.024,2.322
						c-0.084,0.072-0.174,0.108-0.27,0.108c-0.108,0-0.21-0.061-0.306-0.181l-0.432-0.558c-0.06-0.084-0.09-0.168-0.09-0.252
						c0-0.132,0.06-0.24,0.18-0.324l3.906-3.023c0.132-0.084,0.288-0.126,0.468-0.126h0.846c0.12,0,0.219,0.039,0.297,0.116
						c0.078,0.078,0.117,0.178,0.117,0.298v11.771c0,0.12-0.039,0.219-0.117,0.297s-0.177,0.117-0.297,0.117h-0.882
						C325.184,95.193,325.087,95.154,325.016,95.076z"/>
					<path fill="#3A54F5" d="M328.984,95.076c-0.078-0.078-0.117-0.177-0.117-0.297v-0.54c0-0.275,0.15-0.54,0.45-0.792l3.924-3.906
						c0.888-0.756,1.5-1.374,1.836-1.854s0.504-0.99,0.504-1.53c0-0.708-0.198-1.263-0.594-1.665
						c-0.396-0.401-0.972-0.603-1.728-0.603c-0.72,0-1.29,0.21-1.71,0.63s-0.678,0.984-0.774,1.691
						c-0.024,0.133-0.084,0.234-0.18,0.307s-0.192,0.107-0.288,0.107h-0.864c-0.108,0-0.198-0.035-0.27-0.107
						s-0.108-0.156-0.108-0.252c0.024-0.636,0.195-1.251,0.513-1.846c0.318-0.594,0.789-1.079,1.413-1.458
						c0.624-0.378,1.38-0.566,2.268-0.566c1.344,0,2.355,0.351,3.033,1.053c0.678,0.702,1.017,1.593,1.017,2.673
						c0,0.756-0.183,1.438-0.549,2.043c-0.366,0.606-0.939,1.245-1.719,1.917l-3.546,3.601h5.67c0.132,0,0.234,0.036,0.306,0.107
						c0.072,0.072,0.108,0.175,0.108,0.307v0.684c0,0.12-0.04,0.219-0.117,0.297c-0.078,0.078-0.177,0.117-0.297,0.117h-7.884
						C329.161,95.193,329.062,95.154,328.984,95.076z"/>
					<path fill="#3A54F5" d="M339.595,85.734c-0.048-0.065-0.066-0.159-0.054-0.279l0.396-2.52c0.048-0.348,0.216-0.522,0.504-0.522
						h1.152c0.083,0,0.153,0.03,0.207,0.09c0.054,0.061,0.081,0.133,0.081,0.217c0,0.12-0.018,0.216-0.054,0.288l-0.936,2.43
						c-0.06,0.132-0.126,0.231-0.198,0.297c-0.072,0.066-0.18,0.099-0.324,0.099h-0.558
						C339.715,85.833,339.643,85.801,339.595,85.734z"/>
					<path fill="#3A54F5" d="M347.263,95.076c-0.072-0.078-0.108-0.177-0.108-0.297V84.627l-3.024,2.322
						c-0.084,0.072-0.174,0.108-0.27,0.108c-0.108,0-0.21-0.061-0.306-0.181l-0.432-0.558c-0.06-0.084-0.09-0.168-0.09-0.252
						c0-0.132,0.06-0.24,0.18-0.324l3.906-3.023c0.132-0.084,0.288-0.126,0.468-0.126h0.846c0.12,0,0.219,0.039,0.297,0.116
						c0.078,0.078,0.117,0.178,0.117,0.298v11.771c0,0.12-0.039,0.219-0.117,0.297s-0.177,0.117-0.297,0.117h-0.882
						C347.431,95.193,347.335,95.154,347.263,95.076z"/>
					<path fill="#3A54F5" d="M352.528,94.015c-0.714-0.906-1.095-2.091-1.143-3.556l-0.018-1.548l0.018-1.602
						c0.036-1.452,0.417-2.631,1.143-3.537s1.857-1.359,3.393-1.359c1.548,0,2.685,0.453,3.411,1.359
						c0.726,0.906,1.107,2.085,1.143,3.537c0.012,0.336,0.018,0.87,0.018,1.602c0,0.708-0.006,1.225-0.018,1.548
						c-0.048,1.465-0.429,2.649-1.143,3.556c-0.714,0.906-1.851,1.358-3.411,1.358C354.373,95.373,353.242,94.921,352.528,94.015z
						 M358.009,92.961c0.468-0.611,0.714-1.476,0.738-2.592c0.012-0.348,0.018-0.846,0.018-1.494c0-0.659-0.006-1.151-0.018-1.476
						c-0.024-1.104-0.273-1.965-0.747-2.583c-0.474-0.618-1.167-0.927-2.079-0.927c-0.912,0-1.602,0.309-2.07,0.927
						c-0.468,0.618-0.714,1.479-0.738,2.583l-0.018,1.476l0.018,1.494c0.024,1.116,0.27,1.98,0.738,2.592
						c0.468,0.612,1.158,0.918,2.07,0.918C356.845,93.879,357.541,93.573,358.009,92.961z"/>
					<path fill="#3A54F5" d="M362.716,85.726c-0.054-0.072-0.069-0.162-0.045-0.271l0.396-2.52c0.048-0.348,0.216-0.522,0.504-0.522
						h1.152c0.083,0,0.153,0.03,0.207,0.09c0.054,0.061,0.081,0.133,0.081,0.217c0,0.12-0.018,0.216-0.054,0.288l-0.936,2.43
						c-0.06,0.132-0.126,0.231-0.198,0.297c-0.072,0.066-0.18,0.099-0.324,0.099h-0.558
						C362.845,85.833,362.77,85.797,362.716,85.726z M365.542,85.726c-0.054-0.072-0.069-0.162-0.045-0.271l0.396-2.52
						c0.048-0.348,0.216-0.522,0.504-0.522h1.152c0.084,0,0.153,0.03,0.207,0.09c0.054,0.061,0.081,0.133,0.081,0.217
						c0,0.12-0.018,0.216-0.054,0.288l-0.936,2.43c-0.061,0.132-0.126,0.231-0.198,0.297c-0.072,0.066-0.18,0.099-0.324,0.099
						h-0.558C365.671,85.833,365.596,85.797,365.542,85.726z"/>
					<path fill="#3A54F5" d="M374.424,98.82c-0.072-0.078-0.108-0.177-0.108-0.297V79.479c0-0.12,0.036-0.219,0.108-0.297
						s0.168-0.117,0.288-0.117h0.666c0.12,0,0.219,0.039,0.297,0.117s0.117,0.177,0.117,0.297v19.044
						c0,0.12-0.039,0.219-0.117,0.297s-0.177,0.117-0.297,0.117h-0.666C374.592,98.938,374.496,98.898,374.424,98.82z"/>
					<path fill="#3A54F5" d="M384.45,94.914c-0.684-0.306-1.203-0.704-1.557-1.196s-0.543-1.002-0.567-1.53
						c0-0.108,0.036-0.195,0.108-0.261c0.072-0.066,0.162-0.1,0.27-0.1h0.81c0.132,0,0.24,0.027,0.324,0.081
						c0.083,0.054,0.15,0.159,0.198,0.315c0.156,0.611,0.495,1.044,1.017,1.296s1.137,0.378,1.845,0.378
						c0.864,0,1.551-0.207,2.061-0.621c0.51-0.414,0.765-1.005,0.765-1.773c0-1.464-0.894-2.195-2.682-2.195h-1.692
						c-0.12,0-0.219-0.039-0.297-0.117s-0.117-0.177-0.117-0.297v-0.468c0-0.181,0.066-0.336,0.198-0.469l3.51-3.888h-5.328
						c-0.12,0-0.219-0.036-0.297-0.108c-0.078-0.071-0.117-0.168-0.117-0.287v-0.648c0-0.132,0.039-0.237,0.117-0.315
						c0.078-0.077,0.177-0.116,0.297-0.116h7.128c0.132,0,0.237,0.039,0.315,0.116c0.078,0.078,0.117,0.184,0.117,0.315v0.594
						c0,0.133-0.061,0.271-0.18,0.414l-3.51,3.942h0.288c1.224,0.036,2.193,0.354,2.907,0.954c0.714,0.6,1.071,1.476,1.071,2.628
						c0,0.792-0.195,1.473-0.585,2.043c-0.39,0.57-0.933,1.008-1.629,1.313c-0.696,0.307-1.482,0.459-2.358,0.459
						C385.944,95.373,385.134,95.221,384.45,94.914z"/>
					<path fill="#3A54F5" d="M393.656,95.076c-0.078-0.078-0.117-0.177-0.117-0.297v-1.242c0-0.119,0.039-0.222,0.117-0.306
						s0.177-0.126,0.297-0.126h1.242c0.12,0,0.219,0.042,0.297,0.126s0.117,0.187,0.117,0.306v1.242c0,0.12-0.039,0.219-0.117,0.297
						s-0.177,0.117-0.297,0.117h-1.242C393.833,95.193,393.734,95.154,393.656,95.076z"/>
					<path fill="#3A54F5" d="M399.237,95.076c-0.066-0.078-0.099-0.171-0.099-0.279c0-0.083,0.024-0.161,0.072-0.233l2.772-3.853
						c-0.288,0.072-0.624,0.108-1.008,0.108c-0.864-0.012-1.62-0.213-2.268-0.603c-0.648-0.391-1.143-0.9-1.485-1.53
						c-0.342-0.63-0.513-1.305-0.513-2.025c0-0.72,0.171-1.403,0.513-2.052c0.342-0.648,0.852-1.176,1.53-1.584
						c0.678-0.408,1.497-0.612,2.457-0.612c0.96,0,1.782,0.198,2.466,0.595c0.684,0.396,1.2,0.915,1.548,1.557
						s0.522,1.329,0.522,2.061c0,0.66-0.117,1.242-0.351,1.746c-0.234,0.504-0.543,1.026-0.927,1.566l-3.492,4.896
						c-0.084,0.108-0.165,0.195-0.243,0.262c-0.078,0.065-0.189,0.099-0.333,0.099h-0.9
						C399.39,95.193,399.303,95.154,399.237,95.076z M402.63,89.056c0.432-0.229,0.774-0.549,1.026-0.963s0.378-0.892,0.378-1.432
						c0-0.552-0.126-1.037-0.378-1.458c-0.252-0.42-0.594-0.744-1.026-0.972s-0.906-0.342-1.422-0.342
						c-0.504,0-0.969,0.114-1.395,0.342c-0.426,0.228-0.765,0.552-1.017,0.972c-0.252,0.421-0.378,0.906-0.378,1.458
						c0,0.54,0.126,1.018,0.378,1.432s0.588,0.734,1.008,0.963c0.42,0.228,0.888,0.342,1.404,0.342
						C401.724,89.397,402.198,89.283,402.63,89.056z"/>
					<path fill="#3A54F5" d="M411.324,95.076c-0.072-0.078-0.108-0.177-0.108-0.297V84.627l-3.024,2.322
						c-0.084,0.072-0.174,0.108-0.27,0.108c-0.108,0-0.21-0.061-0.306-0.181l-0.432-0.558c-0.06-0.084-0.09-0.168-0.09-0.252
						c0-0.132,0.06-0.24,0.18-0.324l3.906-3.023c0.132-0.084,0.288-0.126,0.468-0.126h0.846c0.12,0,0.219,0.039,0.297,0.116
						c0.078,0.078,0.117,0.178,0.117,0.298v11.771c0,0.12-0.039,0.219-0.117,0.297s-0.177,0.117-0.297,0.117h-0.882
						C411.492,95.193,411.396,95.154,411.324,95.076z"/>
					<path fill="#3A54F5" d="M420.188,95.076c-0.078-0.078-0.117-0.177-0.117-0.297v-8.532c0-0.119,0.039-0.219,0.117-0.297
						s0.177-0.117,0.297-0.117h0.756c0.12,0,0.216,0.039,0.288,0.117c0.072,0.078,0.108,0.178,0.108,0.297v0.612
						c0.648-0.804,1.524-1.206,2.628-1.206c1.32,0,2.256,0.552,2.808,1.656c0.288-0.504,0.699-0.906,1.233-1.206
						c0.534-0.3,1.131-0.45,1.791-0.45c0.984,0,1.788,0.336,2.412,1.008c0.624,0.673,0.936,1.645,0.936,2.916v5.202
						c0,0.12-0.039,0.219-0.117,0.297s-0.177,0.117-0.297,0.117h-0.774c-0.12,0-0.219-0.039-0.297-0.117s-0.117-0.177-0.117-0.297
						v-5.04c0-0.96-0.198-1.646-0.594-2.061s-0.918-0.621-1.566-0.621c-0.576,0-1.071,0.213-1.485,0.639s-0.621,1.107-0.621,2.043
						v5.04c0,0.12-0.039,0.219-0.117,0.297s-0.177,0.117-0.297,0.117h-0.792c-0.12,0-0.219-0.039-0.297-0.117
						c-0.078-0.078-0.117-0.177-0.117-0.297v-5.04c0-0.947-0.207-1.632-0.621-2.052c-0.414-0.42-0.927-0.63-1.539-0.63
						c-0.576,0-1.071,0.21-1.485,0.63s-0.621,1.098-0.621,2.034v5.058c0,0.12-0.04,0.219-0.117,0.297
						c-0.078,0.078-0.177,0.117-0.297,0.117h-0.792C420.365,95.193,420.266,95.154,420.188,95.076z"/>
				</g>
			</g>
		</g>
	</g>
	<g display="inline">
		<g id="POLYLINE_540_">
			
				<line fill="none" stroke="#3A54F5" stroke-width="2" stroke-linecap="round" stroke-linejoin="round" stroke-miterlimit="10" x1="84.744" y1="480.562" x2="84.744" y2="306.185"/>
		</g>
		<g id="LINE_42_">
			
				<line fill="none" stroke="#3A54F5" stroke-width="2" stroke-linecap="round" stroke-linejoin="round" stroke-miterlimit="10" x1="84.744" y1="256.219" x2="84.744" y2="114.877"/>
		</g>
		<g id="POLYLINE_539_">
			
				<polyline fill="none" stroke="#3A54F5" stroke-width="2" stroke-linecap="round" stroke-linejoin="round" stroke-miterlimit="10" points="
				78.116,121.506 84.744,114.877 91.372,121.506 			"/>
		</g>
		<g id="POLYLINE_538_">
			
				<polyline fill="none" stroke="#3A54F5" stroke-width="2" stroke-linecap="round" stroke-linejoin="round" stroke-miterlimit="10" points="
				91.372,473.935 84.744,480.562 78.116,473.935 			"/>
		</g>
		<g id="MTEXT_94_">
			<g>
				<g>
					<g>
						<path fill="#3A54F5" d="M63.19,277.66c-0.714-0.306-1.269-0.747-1.665-1.322c-0.396-0.576-0.594-1.248-0.594-2.017
							c0-0.708,0.177-1.329,0.531-1.863c0.354-0.533,0.831-0.944,1.431-1.232c-0.48-0.276-0.853-0.639-1.116-1.089
							c-0.264-0.45-0.396-0.981-0.396-1.594c0-1.044,0.39-1.868,1.17-2.475c0.78-0.605,1.806-0.909,3.078-0.909
							s2.295,0.301,3.069,0.9s1.161,1.428,1.161,2.483c0,0.601-0.132,1.125-0.396,1.575c-0.264,0.45-0.63,0.819-1.098,1.107
							c0.6,0.288,1.077,0.699,1.431,1.232c0.354,0.534,0.531,1.161,0.531,1.882c0,0.768-0.198,1.437-0.594,2.007
							s-0.951,1.008-1.665,1.313c-0.714,0.307-1.527,0.459-2.439,0.459C64.717,278.119,63.904,277.967,63.19,277.66z
							 M67.762,276.067c0.57-0.432,0.855-1.008,0.855-1.728c0-0.721-0.285-1.297-0.855-1.729s-1.281-0.647-2.133-0.647
							c-0.864,0-1.581,0.216-2.151,0.647c-0.57,0.432-0.855,1.008-0.855,1.729c0,0.72,0.285,1.296,0.855,1.728
							c0.57,0.432,1.287,0.648,2.151,0.648C66.481,276.716,67.192,276.499,67.762,276.067z M67.483,270.02
							c0.504-0.36,0.756-0.84,0.756-1.44c0-0.611-0.249-1.101-0.747-1.467s-1.119-0.549-1.863-0.549
							c-0.756,0-1.38,0.183-1.872,0.549c-0.492,0.366-0.738,0.855-0.738,1.467c0,0.612,0.246,1.102,0.738,1.468
							c0.492,0.366,1.116,0.549,1.872,0.549C66.361,270.571,66.979,270.38,67.483,270.02z"/>
						<path fill="#3A54F5" d="M72.433,268.48c-0.048-0.065-0.066-0.159-0.054-0.279l0.396-2.52c0.048-0.348,0.216-0.522,0.504-0.522
							h1.152c0.083,0,0.153,0.03,0.207,0.09c0.054,0.061,0.081,0.133,0.081,0.217c0,0.12-0.018,0.216-0.054,0.288l-0.936,2.43
							c-0.06,0.132-0.126,0.231-0.198,0.297c-0.072,0.066-0.18,0.099-0.324,0.099h-0.558
							C72.552,268.579,72.48,268.547,72.433,268.48z"/>
						<path fill="#3A54F5" d="M78.688,277.66c-0.714-0.306-1.269-0.747-1.665-1.322c-0.396-0.576-0.594-1.248-0.594-2.017
							c0-0.708,0.177-1.329,0.531-1.863c0.354-0.533,0.831-0.944,1.431-1.232c-0.48-0.276-0.853-0.639-1.116-1.089
							c-0.264-0.45-0.396-0.981-0.396-1.594c0-1.044,0.39-1.868,1.17-2.475c0.78-0.605,1.806-0.909,3.078-0.909
							s2.295,0.301,3.069,0.9s1.161,1.428,1.161,2.483c0,0.601-0.132,1.125-0.396,1.575c-0.264,0.45-0.63,0.819-1.098,1.107
							c0.6,0.288,1.077,0.699,1.431,1.232c0.354,0.534,0.531,1.161,0.531,1.882c0,0.768-0.198,1.437-0.594,2.007
							s-0.951,1.008-1.665,1.313c-0.714,0.307-1.527,0.459-2.439,0.459C80.214,278.119,79.401,277.967,78.688,277.66z
							 M83.259,276.067c0.57-0.432,0.855-1.008,0.855-1.728c0-0.721-0.285-1.297-0.855-1.729s-1.281-0.647-2.133-0.647
							c-0.864,0-1.581,0.216-2.151,0.647c-0.57,0.432-0.855,1.008-0.855,1.729c0,0.72,0.285,1.296,0.855,1.728
							c0.57,0.432,1.287,0.648,2.151,0.648C81.979,276.716,82.689,276.499,83.259,276.067z M82.98,270.02
							c0.504-0.36,0.756-0.84,0.756-1.44c0-0.611-0.249-1.101-0.747-1.467s-1.119-0.549-1.863-0.549
							c-0.756,0-1.38,0.183-1.872,0.549c-0.492,0.366-0.738,0.855-0.738,1.467c0,0.612,0.246,1.102,0.738,1.468
							c0.492,0.366,1.116,0.549,1.872,0.549C81.858,270.571,82.477,270.38,82.98,270.02z"/>
						<path fill="#3A54F5" d="M87.921,268.472c-0.054-0.072-0.069-0.162-0.045-0.271l0.396-2.52
							c0.048-0.348,0.216-0.522,0.504-0.522h1.152c0.083,0,0.153,0.03,0.207,0.09c0.054,0.061,0.081,0.133,0.081,0.217
							c0,0.12-0.018,0.216-0.054,0.288l-0.936,2.43c-0.06,0.132-0.126,0.231-0.198,0.297c-0.072,0.066-0.18,0.099-0.324,0.099
							h-0.558C88.05,268.579,87.975,268.543,87.921,268.472z M90.747,268.472c-0.054-0.072-0.069-0.162-0.045-0.271l0.396-2.52
							c0.048-0.348,0.216-0.522,0.504-0.522h1.152c0.084,0,0.153,0.03,0.207,0.09c0.054,0.061,0.081,0.133,0.081,0.217
							c0,0.12-0.018,0.216-0.054,0.288l-0.936,2.43c-0.061,0.132-0.126,0.231-0.198,0.297c-0.072,0.066-0.18,0.099-0.324,0.099
							h-0.558C90.876,268.579,90.801,268.543,90.747,268.472z"/>
						<path fill="#3A54F5" d="M37.612,297.422c-0.078-0.078-0.117-0.177-0.117-0.297v-0.54c0-0.275,0.15-0.54,0.45-0.792
							l3.924-3.906c0.888-0.756,1.5-1.374,1.836-1.854s0.504-0.99,0.504-1.53c0-0.708-0.198-1.263-0.594-1.665
							c-0.396-0.401-0.972-0.603-1.728-0.603c-0.72,0-1.29,0.21-1.71,0.63s-0.678,0.984-0.774,1.691
							c-0.024,0.133-0.084,0.234-0.18,0.307s-0.192,0.107-0.288,0.107h-0.864c-0.108,0-0.198-0.035-0.27-0.107
							s-0.108-0.156-0.108-0.252c0.024-0.636,0.195-1.251,0.513-1.846c0.318-0.594,0.789-1.079,1.413-1.458
							c0.624-0.378,1.38-0.566,2.268-0.566c1.344,0,2.355,0.351,3.033,1.053c0.678,0.702,1.017,1.593,1.017,2.673
							c0,0.756-0.183,1.438-0.549,2.043c-0.366,0.606-0.939,1.245-1.719,1.917l-3.546,3.601h5.67c0.132,0,0.234,0.036,0.306,0.107
							c0.072,0.072,0.108,0.175,0.108,0.307v0.684c0,0.12-0.04,0.219-0.117,0.297c-0.078,0.078-0.177,0.117-0.297,0.117h-7.884
							C37.789,297.539,37.69,297.5,37.612,297.422z"/>
						<path fill="#3A54F5" d="M48.466,297.422c-0.078-0.078-0.117-0.177-0.117-0.297v-1.242c0-0.119,0.039-0.222,0.117-0.306
							s0.177-0.126,0.297-0.126h1.242c0.12,0,0.219,0.042,0.297,0.126s0.117,0.187,0.117,0.306v1.242
							c0,0.12-0.039,0.219-0.117,0.297s-0.177,0.117-0.297,0.117h-1.242C48.643,297.539,48.544,297.5,48.466,297.422z"/>
						<path fill="#3A54F5" d="M54.442,297.134c-0.702-0.39-1.236-0.915-1.602-1.575c-0.366-0.659-0.549-1.379-0.549-2.159
							c0-1.032,0.414-2.136,1.242-3.312l3.438-4.788c0.012-0.012,0.045-0.054,0.099-0.126c0.054-0.072,0.123-0.129,0.207-0.171
							c0.083-0.042,0.18-0.062,0.288-0.062h0.882c0.108,0,0.195,0.039,0.261,0.116c0.066,0.078,0.099,0.172,0.099,0.279
							c0,0.061-0.03,0.139-0.09,0.234l-2.628,3.672c0.312-0.072,0.66-0.108,1.044-0.108c0.875,0,1.647,0.195,2.313,0.585
							c0.666,0.391,1.182,0.906,1.548,1.548c0.366,0.643,0.549,1.348,0.549,2.115c0,0.769-0.183,1.485-0.549,2.151
							c-0.366,0.666-0.897,1.197-1.593,1.593c-0.696,0.396-1.519,0.594-2.466,0.594C55.975,297.719,55.144,297.524,54.442,297.134z
							 M58.375,295.901c0.444-0.216,0.798-0.537,1.062-0.963s0.396-0.939,0.396-1.539c0-0.588-0.135-1.096-0.405-1.521
							s-0.627-0.75-1.071-0.972c-0.444-0.222-0.924-0.333-1.44-0.333s-0.996,0.111-1.44,0.333s-0.798,0.546-1.062,0.972
							s-0.396,0.934-0.396,1.521c0,0.6,0.132,1.113,0.396,1.539s0.618,0.747,1.062,0.963s0.924,0.323,1.44,0.323
							C57.445,296.225,57.931,296.117,58.375,295.901z"/>
						<path fill="#3A54F5" d="M69.147,297.422c-0.078-0.078-0.117-0.177-0.117-0.297v-2.628h-5.85c-0.12,0-0.219-0.039-0.297-0.117
							s-0.117-0.177-0.117-0.297v-0.666c0-0.168,0.066-0.348,0.198-0.54l5.418-7.632c0.06-0.096,0.15-0.171,0.27-0.225
							c0.12-0.055,0.252-0.081,0.396-0.081h1.224c0.132,0,0.234,0.035,0.306,0.107c0.072,0.072,0.108,0.174,0.108,0.307v7.632h1.638
							c0.12,0,0.219,0.039,0.297,0.117c0.078,0.078,0.117,0.177,0.117,0.297v0.684c0,0.12-0.039,0.219-0.117,0.297
							c-0.078,0.078-0.177,0.117-0.297,0.117h-1.638v2.628c0,0.12-0.039,0.219-0.117,0.297s-0.177,0.117-0.297,0.117h-0.828
							C69.324,297.539,69.226,297.5,69.147,297.422z M64.639,293.021h4.41v-6.265L64.639,293.021z"/>
						<path fill="#3A54F5" d="M79.227,297.422c-0.078-0.078-0.117-0.177-0.117-0.297v-8.532c0-0.119,0.039-0.219,0.117-0.297
							s0.177-0.117,0.297-0.117h0.756c0.12,0,0.216,0.039,0.288,0.117c0.072,0.078,0.108,0.178,0.108,0.297v0.612
							c0.648-0.804,1.524-1.206,2.628-1.206c1.32,0,2.256,0.552,2.808,1.656c0.288-0.504,0.699-0.906,1.233-1.206
							c0.534-0.3,1.131-0.45,1.791-0.45c0.984,0,1.788,0.336,2.412,1.008c0.624,0.673,0.936,1.645,0.936,2.916v5.202
							c0,0.12-0.039,0.219-0.117,0.297s-0.177,0.117-0.297,0.117h-0.774c-0.12,0-0.219-0.039-0.297-0.117s-0.117-0.177-0.117-0.297
							v-5.04c0-0.96-0.198-1.646-0.594-2.061s-0.918-0.621-1.566-0.621c-0.576,0-1.071,0.213-1.485,0.639s-0.621,1.107-0.621,2.043
							v5.04c0,0.12-0.039,0.219-0.117,0.297s-0.177,0.117-0.297,0.117H85.41c-0.12,0-0.219-0.039-0.297-0.117
							c-0.078-0.078-0.117-0.177-0.117-0.297v-5.04c0-0.947-0.207-1.632-0.621-2.052c-0.414-0.42-0.927-0.63-1.539-0.63
							c-0.576,0-1.071,0.21-1.485,0.63s-0.621,1.098-0.621,2.034v5.058c0,0.12-0.04,0.219-0.117,0.297
							c-0.078,0.078-0.177,0.117-0.297,0.117h-0.792C79.404,297.539,79.305,297.5,79.227,297.422z"/>
					</g>
				</g>
			</g>
		</g>
	</g>
	<g id="MTEXT_7_" display="inline">
		<g>
			<g>
				<path fill="#3A54F5" d="M110.462,503.607v-2.376h4.572v12.708h-2.664v-10.332H110.462z"/>
				<path fill="#3A54F5" d="M117.481,503.607v-2.376h4.572v12.708h-2.664v-10.332H117.481z"/>
				<path fill="#3A54F5" d="M124.501,503.607v-2.376h4.572v12.708h-2.664v-10.332H124.501z"/>
				<path fill="#3A54F5" d="M139.747,502.563c-0.3,0.264-0.45,0.726-0.45,1.386v0.018h2.016v2.142h-2.016v7.83h-2.538v-7.83h-1.278
					v-2.142h1.278v-0.234c0-1.188,0.339-2.103,1.017-2.745c0.678-0.642,1.683-0.963,3.015-0.963c0.228,0,0.402,0.006,0.522,0.018
					v2.196C140.569,502.191,140.047,502.3,139.747,502.563z"/>
				<path fill="#3A54F5" d="M148.153,511.761v2.178h-1.332c-1.116,0-1.971-0.27-2.565-0.81c-0.594-0.54-0.891-1.44-0.891-2.7v-4.32
					h-1.386v-2.142h1.386v-2.466h2.538v2.466h2.232v2.142h-2.232v4.356c0,0.48,0.096,0.816,0.288,1.008
					c0.192,0.192,0.516,0.288,0.972,0.288H148.153z"/>
				<path fill="#3A54F5" d="M152.765,502.688c0-0.329-0.079-0.588-0.236-0.777c-0.157-0.189-0.404-0.283-0.74-0.283
					c-0.692,0-1.06,0.472-1.102,1.417h-1.438c0.042-0.874,0.308-1.537,0.798-1.988c0.489-0.451,1.108-0.677,1.857-0.677
					c0.762,0,1.348,0.198,1.757,0.593c0.41,0.395,0.614,0.922,0.614,1.579c0,0.518-0.152,1.038-0.457,1.559s-0.691,1-1.16,1.438
					c-0.469,0.438-0.962,0.813-1.479,1.128h3.243v1.207h-5.216v-1.102C151.579,505.137,152.765,503.772,152.765,502.688z"/>
				<path fill="#3A54F5" d="M110.462,525.208v-2.376h4.572v12.708h-2.664v-10.332H110.462z"/>
				<path fill="#3A54F5" d="M117.032,529.078c0-4.296,1.62-6.444,4.86-6.444c1.716,0,2.952,0.576,3.708,1.728
					c0.756,1.152,1.134,2.725,1.134,4.716c0,2.004-0.378,3.582-1.134,4.734s-1.992,1.728-3.708,1.728
					C118.652,535.54,117.032,533.386,117.032,529.078z M124.232,529.078c0-1.296-0.159-2.295-0.477-2.997s-0.939-1.053-1.863-1.053
					c-0.936,0-1.563,0.351-1.881,1.053c-0.318,0.702-0.477,1.701-0.477,2.997c0,1.308,0.159,2.313,0.477,3.015
					c0.317,0.702,0.945,1.053,1.881,1.053c0.924,0,1.545-0.351,1.863-1.053C124.073,531.391,124.232,530.386,124.232,529.078z"/>
				<path fill="#3A54F5" d="M130.819,532.894v2.646h-2.736v-2.646H130.819z"/>
				<path fill="#3A54F5" d="M139,522.795c0.618,0.3,1.086,0.714,1.404,1.242c0.318,0.528,0.477,1.116,0.477,1.764
					c0,0.816-0.222,1.485-0.666,2.007s-1.032,0.843-1.764,0.963v0.09c1.776,0.528,2.664,1.572,2.664,3.132
					c0,1.092-0.366,1.977-1.098,2.655c-0.732,0.678-1.764,1.017-3.096,1.017c-1.416,0-2.544-0.351-3.384-1.053
					c-0.84-0.702-1.308-1.761-1.404-3.177h2.484c0.06,0.648,0.273,1.161,0.639,1.539c0.366,0.378,0.885,0.567,1.557,0.567
					c0.576,0,1.026-0.159,1.35-0.477c0.324-0.318,0.486-0.735,0.486-1.251c0-0.612-0.234-1.08-0.702-1.404
					c-0.468-0.324-1.158-0.486-2.07-0.486h-0.522v-2.07h0.522c1.68,0.024,2.52-0.558,2.52-1.746c0-0.516-0.15-0.921-0.45-1.215
					s-0.708-0.441-1.224-0.441c-0.54,0-0.984,0.171-1.332,0.513c-0.349,0.342-0.546,0.819-0.594,1.431h-2.484
					c0.072-1.296,0.492-2.295,1.26-2.997c0.768-0.702,1.836-1.053,3.204-1.053C137.642,522.346,138.382,522.496,139,522.795z"/>
				<path fill="#3A54F5" d="M162.778,526.548c0.702,0.75,1.053,1.815,1.053,3.195v5.796h-2.52v-5.508
					c0-0.768-0.195-1.359-0.585-1.773c-0.39-0.414-0.927-0.621-1.611-0.621c-0.708,0-1.272,0.222-1.692,0.666
					s-0.63,1.092-0.63,1.944v5.292h-2.52v-5.508c0-0.768-0.195-1.359-0.585-1.773c-0.39-0.414-0.927-0.621-1.611-0.621
					c-0.708,0-1.272,0.222-1.692,0.666s-0.63,1.092-0.63,1.944v5.292h-2.538v-9.972h2.538v1.89c0.264-0.648,0.681-1.149,1.251-1.503
					s1.233-0.531,1.989-0.531c0.804,0,1.503,0.192,2.097,0.576c0.594,0.384,1.041,0.936,1.341,1.656
					c0.312-0.684,0.777-1.227,1.395-1.629c0.618-0.402,1.311-0.603,2.079-0.603C161.119,525.423,162.077,525.799,162.778,526.548z"
					/>
				<path fill="#3A54F5" d="M168.857,524.288c0-0.329-0.079-0.588-0.236-0.777c-0.157-0.189-0.404-0.283-0.74-0.283
					c-0.692,0-1.06,0.472-1.102,1.417h-1.438c0.042-0.874,0.308-1.537,0.798-1.988c0.489-0.451,1.108-0.677,1.857-0.677
					c0.762,0,1.348,0.198,1.757,0.593c0.41,0.395,0.614,0.922,0.614,1.579c0,0.518-0.152,1.038-0.457,1.559s-0.691,1-1.16,1.438
					c-0.469,0.438-0.962,0.813-1.479,1.128h3.243v1.207h-5.216v-1.102C167.671,526.737,168.857,525.373,168.857,524.288z"/>
			</g>
		</g>
	</g>
</g>
<g id="N-TEXT" display="none">
</g>
<g id="AG-DIAGRAM">
	<g id="POLYLINE_535_">
		<g>
			<g>
				
					<line fill="none" stroke="#3A54F5" stroke-width="3" stroke-linecap="round" stroke-linejoin="round" x1="197.188" y1="485.25" x2="199.688" y2="485.25"/>
				
					<line fill="none" stroke="#3A54F5" stroke-width="3" stroke-linecap="round" stroke-linejoin="round" stroke-dasharray="4.9474,6.9263" x1="206.614" y1="485.25" x2="654.349" y2="485.25"/>
				<polyline fill="none" stroke="#3A54F5" stroke-width="3" stroke-linecap="round" stroke-linejoin="round" points="
					657.812,485.25 660.312,485.25 660.312,482.75 				"/>
				
					<line fill="none" stroke="#3A54F5" stroke-width="3" stroke-linecap="round" stroke-linejoin="round" stroke-dasharray="4.9155,6.8817" x1="660.312" y1="475.868" x2="660.312" y2="207.972"/>
				
					<line fill="none" stroke="#3A54F5" stroke-width="3" stroke-linecap="round" stroke-linejoin="round" x1="660.312" y1="204.531" x2="660.312" y2="202.031"/>
			</g>
		</g>
	</g>
</g>
<g id="AG-DASH">
	<g id="POLYLINE_534_">
		<g>
			<g>
				
					<line fill="none" stroke="#3A54F5" stroke-width="2.25" stroke-linecap="round" stroke-linejoin="round" x1="473.281" y1="200.25" x2="473.281" y2="198.25"/>
				
					<line fill="none" stroke="#3A54F5" stroke-width="2.25" stroke-linecap="round" stroke-linejoin="round" stroke-dasharray="3.8207,5.7311" x1="473.281" y1="192.519" x2="473.281" y2="128.522"/>
				<polyline fill="none" stroke="#3A54F5" stroke-width="2.25" stroke-linecap="round" stroke-linejoin="round" points="
					473.281,125.656 473.281,123.656 471.281,123.656 				"/>
				
					<line fill="none" stroke="#3A54F5" stroke-width="2.25" stroke-linecap="round" stroke-linejoin="round" stroke-dasharray="3.7907,5.686" x1="465.595" y1="123.656" x2="392.624" y2="123.656"/>
				<polyline fill="none" stroke="#3A54F5" stroke-width="2.25" stroke-linecap="round" stroke-linejoin="round" points="
					389.781,123.656 387.781,123.656 387.781,125.656 				"/>
				
					<line fill="none" stroke="#3A54F5" stroke-width="2.25" stroke-linecap="round" stroke-linejoin="round" stroke-dasharray="3.8207,5.7311" x1="387.781" y1="131.387" x2="387.781" y2="195.385"/>
				
					<line fill="none" stroke="#3A54F5" stroke-width="2.25" stroke-linecap="round" stroke-linejoin="round" x1="387.781" y1="198.25" x2="387.781" y2="200.25"/>
			</g>
		</g>
	</g>
</g>
<g id="AG-FURNITURE">
</g>
<g id="AG-LAYOUT">
	<g id="POLYLINE_260_">
		
			<rect x="111.688" y="392.625" fill="none" stroke="#3A54F5" stroke-width="2.75" stroke-linecap="round" stroke-linejoin="round" stroke-miterlimit="10" width="85.5" height="92.625"/>
	</g>
	<g id="POLYLINE_224_">
		
			<path fill="none" stroke="#3A54F5" stroke-width="2.75" stroke-linecap="round" stroke-linejoin="round" stroke-miterlimit="10" d="
			M174.922,351.656c3.293,0.007,6.538,1.03,9.232,2.926c2.688,1.891,4.754,4.61,5.861,7.703c1.107,3.093,1.236,6.506,0.359,9.673
			c-0.878,3.169-2.736,6.032-5.278,8.12c-2.532,2.079-5.689,3.345-8.955,3.595c-3.289,0.251-6.624-0.537-9.454-2.231
			c-2.819-1.688-5.084-4.244-6.416-7.248c-1.328-2.995-1.711-6.373-1.08-9.589c0.633-3.227,2.271-6.222,4.646-8.497
			c2.367-2.267,5.418-3.767,8.656-4.265C173.296,351.718,174.109,351.658,174.922,351.656z"/>
	</g>
	<g id="POLYLINE_223_">
		
			<path fill="none" stroke="#3A54F5" stroke-width="2.75" stroke-linecap="round" stroke-linejoin="round" stroke-miterlimit="10" d="
			M174.922,327.164c3.293-0.007,6.538-1.03,9.232-2.926c2.688-1.891,4.754-4.61,5.861-7.703c1.107-3.093,1.236-6.506,0.359-9.673
			c-0.878-3.169-2.736-6.032-5.278-8.12c-2.532-2.079-5.689-3.345-8.955-3.595c-3.289-0.251-6.624,0.537-9.454,2.231
			c-2.819,1.688-5.084,4.244-6.416,7.248c-1.328,2.995-1.711,6.373-1.08,9.589c0.633,3.227,2.271,6.222,4.646,8.497
			c2.367,2.267,5.418,3.767,8.656,4.265C173.296,327.102,174.109,327.162,174.922,327.164z"/>
	</g>
	<g id="POLYLINE_222_">
		
			<rect x="111.688" y="286.195" fill="none" stroke="#3A54F5" stroke-width="2.75" stroke-linecap="round" stroke-linejoin="round" stroke-miterlimit="10" width="85.5" height="106.43"/>
	</g>
	<g id="POLYLINE_221_">
		
			<path fill="none" stroke="#3A54F5" stroke-width="2.75" stroke-linecap="round" stroke-linejoin="round" stroke-miterlimit="10" d="
			M139.755,316.512c4.465-0.005,8.556-2.879,10.062-7.086c1.504-4.203,0.171-9.028-3.28-11.861
			c-3.45-2.833-8.443-3.203-12.273-0.909c-3.83,2.293-5.861,6.869-4.993,11.248c0.865,4.363,4.466,7.809,8.862,8.484
			C138.67,316.47,139.212,316.511,139.755,316.512z"/>
	</g>
	<g id="POLYLINE_220_">
		
			<path fill="none" stroke="#3A54F5" stroke-width="2.75" stroke-linecap="round" stroke-linejoin="round" stroke-miterlimit="10" d="
			M139.755,362.309c4.465,0.005,8.556,2.879,10.062,7.086c1.504,4.203,0.171,9.028-3.28,11.861
			c-3.45,2.833-8.443,3.203-12.273,0.909c-3.83-2.293-5.861-6.869-4.993-11.248c0.865-4.363,4.466-7.809,8.862-8.484
			C138.67,362.35,139.212,362.309,139.755,362.309z"/>
	</g>
	<g id="POLYLINE_219_">
		
			<path fill="none" stroke="#3A54F5" stroke-width="2.75" stroke-linecap="round" stroke-linejoin="round" stroke-miterlimit="10" d="
			M139.755,353.66c5.956-0.019,11.405-3.831,13.416-9.448c2.006-5.604,0.227-12.038-4.373-15.815
			c-4.6-3.777-11.257-4.27-16.364-1.212c-5.106,3.058-7.815,9.159-6.657,14.998c1.154,5.816,5.955,10.413,11.816,11.312
			C138.309,353.605,139.031,353.658,139.755,353.66z"/>
	</g>
	<g id="POLYLINE_218_">
		
			<rect x="111.688" y="286.195" fill="none" stroke="#3A54F5" stroke-width="2.75" stroke-linecap="round" stroke-linejoin="round" stroke-miterlimit="10" width="7.125" height="106.43"/>
	</g>
	<g id="POLYLINE_217_">
		
			<path fill="none" stroke="#3A54F5" stroke-width="2.75" stroke-linecap="round" stroke-linejoin="round" stroke-miterlimit="10" d="
			M247.062,194.906c0.003,2.953,2.442,5.282,5.35,5.344c3.513,0.075,7.036,0,10.55,0c8.381,0,16.762,0,25.144,0
			c10.53,0,21.06,0,31.59,0c9.963,0,19.926,0,29.888,0c6.68,0,13.36,0,20.039,0c2.197,0,4.861,0.403,6.809-0.856
			c2.907-1.881,2.442-5.193,2.442-8.181c0-9.184,0-18.368,0-27.552c0-8.142,0-16.285,0-24.427c0-1.131,0.048-2.235-0.381-3.308
			c-0.58-1.452-1.801-2.602-3.285-3.093c-0.842-0.278-1.69-0.27-2.561-0.27c-1.828,0-3.656,0-5.484,0c-7.457,0-14.913,0-22.37,0
			c-10.26,0-20.52,0-30.781,0c-10.32,0-20.64,0-30.961,0c-7.732,0-15.464,0-23.195,0c-2.027,0-4.055,0-6.082,0
			c-0.833,0-1.694-0.055-2.513,0.124c-2.88,0.631-4.2,3.165-4.2,5.896c0,7.608,0,15.215,0,22.823c0,9.511,0,19.022,0,28.533
			C247.062,191.594,247.062,193.25,247.062,194.906z"/>
	</g>
	<g id="POLYLINE_216_">
		
			<path fill="none" stroke="#3A54F5" stroke-width="2.75" stroke-linecap="round" stroke-linejoin="round" stroke-miterlimit="10" d="
			M367.297,194.016c1.854-0.003,3.611-0.989,4.573-2.579c0.826-1.366,0.771-2.826,0.771-4.359c0-4.797,0-9.594,0-14.391
			c0-6.261,0-12.522,0-18.783c0-3.247,0.067-6.503,0-9.749c-0.038-1.816-0.896-3.5-2.442-4.501c-1.3-0.841-2.69-0.856-4.177-0.856
			c-4.521,0-9.042,0-13.563,0c-6.334,0-12.669,0-19.003,0c-4.101,0-8.203,0-12.304,0c-1.477,0-2.842,0.254-4.015,1.224
			c-1.331,1.101-1.931,2.666-1.94,4.355c-0.021,3.807,0,7.615,0,11.422c0,6.291,0,12.582,0,18.872c0,4.391,0,8.782,0,13.172
			c0,1.465,0.156,2.818,1.067,4.033c1.062,1.416,2.673,2.119,4.409,2.14c3.509,0.042,7.02,0,10.529,0c6.241,0,12.482,0,18.722,0
			c5.014,0,10.028,0,15.043,0C365.743,194.016,366.52,194.016,367.297,194.016z"/>
	</g>
	<g id="POLYLINE_196_">
		
			<path fill="none" stroke="#3A54F5" stroke-width="2.75" stroke-linecap="round" stroke-linejoin="round" stroke-miterlimit="10" d="
			M288.254,164.625c-0.002-2.604-1.681-4.991-4.133-5.869c-2.452-0.878-5.267-0.099-6.919,1.913
			c-1.653,2.013-1.868,4.925-0.53,7.159c1.337,2.234,4.007,3.419,6.561,2.912c2.544-0.505,4.556-2.605,4.949-5.169
			C288.194,165.49,288.281,164.625,288.254,164.625z"/>
	</g>
	<g id="POLYLINE_192_">
		
			<path fill="none" stroke="#3A54F5" stroke-width="2.75" stroke-linecap="round" stroke-linejoin="round" stroke-miterlimit="10" d="
			M350.152,164.625c-0.002-2.604-1.681-4.991-4.133-5.869c-2.452-0.878-5.267-0.099-6.919,1.913
			c-1.653,2.013-1.868,4.925-0.53,7.159c1.337,2.234,4.007,3.419,6.561,2.912c2.544-0.505,4.556-2.605,4.949-5.169
			C350.128,165.258,350.152,164.942,350.152,164.625z"/>
	</g>
	<g id="POLYLINE_191_">
		
			<path fill="none" stroke="#3A54F5" stroke-width="2.75" stroke-linecap="round" stroke-linejoin="round" stroke-miterlimit="10" d="
			M258.641,194.016c-1.854-0.003-3.611-0.989-4.573-2.579c-0.826-1.366-0.771-2.826-0.771-4.359c0-4.797,0-9.594,0-14.391
			c0-6.261,0-12.522,0-18.783c0-3.247-0.067-6.503,0-9.749c0.038-1.816,0.896-3.5,2.442-4.501c1.3-0.841,2.69-0.856,4.177-0.856
			c4.521,0,9.042,0,13.563,0c6.334,0,12.669,0,19.003,0c4.101,0,8.203,0,12.304,0c1.477,0,2.842,0.254,4.015,1.224
			c1.331,1.101,1.931,2.666,1.94,4.355c0.021,3.807,0,7.615,0,11.422c0,6.291,0,12.582,0,18.872c0,4.391,0,8.782,0,13.172
			c0,1.465-0.156,2.818-1.067,4.033c-1.062,1.416-2.673,2.119-4.409,2.14c-3.509,0.042-7.02,0-10.529,0c-6.241,0-12.482,0-18.722,0
			c-5.014,0-10.028,0-15.043,0C260.195,194.016,259.418,194.016,258.641,194.016z"/>
	</g>
	<g id="POLYLINE_190_">
		
			<path fill="none" stroke="#3A54F5" stroke-width="2.75" stroke-linecap="round" stroke-linejoin="round" stroke-miterlimit="10" d="
			M312.969,121.815c2.564,0.022,3.748,3.342,1.723,4.95c-1.941,1.541-4.859-0.175-4.462-2.62
			C310.447,122.811,311.625,121.827,312.969,121.815z"/>
	</g>
	<g id="POLYLINE_189_">
		
			<polygon fill="none" stroke="#3A54F5" stroke-width="2.75" stroke-linecap="round" stroke-linejoin="round" stroke-miterlimit="10" points="
			533.844,114.75 111.688,114.75 111.688,286.195 197.188,286.195 197.188,200.25 533.844,200.25 		"/>
	</g>
	<g id="POLYLINE_121_">
		
			<rect x="533.844" y="121.875" fill="none" stroke="#3A54F5" stroke-width="2.75" stroke-linecap="round" stroke-linejoin="round" stroke-miterlimit="10" width="126.469" height="80.156"/>
	</g>
	<g id="POLYLINE_120_">
		
			<rect x="597.078" y="202.031" fill="none" stroke="#3A54F5" stroke-width="2.75" stroke-linecap="round" stroke-linejoin="round" stroke-miterlimit="10" width="63.234" height="5.344"/>
	</g>
	<g id="POLYLINE_119_">
		
			<rect x="533.844" y="202.031" fill="none" stroke="#3A54F5" stroke-width="2.75" stroke-linecap="round" stroke-linejoin="round" stroke-miterlimit="10" width="63.234" height="5.344"/>
	</g>
	<g id="POLYLINE_118_">
		
			<rect x="540.078" y="114.75" fill="none" stroke="#3A54F5" stroke-width="2.75" stroke-linecap="round" stroke-linejoin="round" stroke-miterlimit="10" width="114" height="7.125"/>
	</g>
</g>
<g id="AG-OUTLINE">
	<g id="POLYLINE_117_">
		
			<polygon fill="none" stroke="#3A54F5" stroke-width="3.5" stroke-linecap="round" stroke-linejoin="round" stroke-miterlimit="10" points="
			597.078,207.375 660.312,207.375 660.312,202.031 660.312,114.75 547.84,114.75 111.688,114.75 111.688,286.195 111.688,485.25 
			197.188,485.25 197.188,392.625 197.188,200.25 251.926,200.239 252.048,200.244 252.168,200.247 252.288,200.249 252.406,200.25 
			373.531,200.25 373.65,200.249 373.769,200.247 373.89,200.244 374.011,200.239 533.844,200.25 533.844,202.031 533.844,207.375 
					"/>
	</g>
</g>
</svg>
