<?xml version="1.0" encoding="utf-8"?>
<!-- Generator: Adobe Illustrator 23.0.2, SVG Export Plug-In . SVG Version: 6.00 Build 0)  -->
<!DOCTYPE svg PUBLIC "-//W3C//DTD SVG 1.1//EN" "http://www.w3.org/Graphics/SVG/1.1/DTD/svg11.dtd" [
	<!ENTITY ns_flows "http://ns.adobe.com/Flows/1.0/">
	<!ENTITY ns_extend "http://ns.adobe.com/Extensibility/1.0/">
	<!ENTITY ns_ai "http://ns.adobe.com/AdobeIllustrator/10.0/">
	<!ENTITY ns_graphs "http://ns.adobe.com/Graphs/1.0/">
	<!ENTITY ns_vars "http://ns.adobe.com/Variables/1.0/">
	<!ENTITY ns_imrep "http://ns.adobe.com/ImageReplacement/1.0/">
	<!ENTITY ns_sfw "http://ns.adobe.com/SaveForWeb/1.0/">
	<!ENTITY ns_custom "http://ns.adobe.com/GenericCustomNamespace/1.0/">
	<!ENTITY ns_adobe_xpath "http://ns.adobe.com/XPath/1.0/">
]>
<svg version="1.1" xmlns:x="&ns_extend;" xmlns:i="&ns_ai;" xmlns:graph="&ns_graphs;"
	 xmlns="http://www.w3.org/2000/svg" xmlns:xlink="http://www.w3.org/1999/xlink" xmlns:a="http://ns.adobe.com/AdobeSVGViewerExtensions/3.0/"
	 x="0px" y="0px" viewBox="0 0 750 700" enable-background="new 0 0 750 700" xml:space="preserve">
<metadata>
	<sfw  xmlns="&ns_sfw;">
		<slices></slices>
		<sliceSourceBounds  bottomLeftOrigin="true" height="9185.057" width="6115.224" x="-5706.937" y="-3923.667">
			</sliceSourceBounds>
	</sfw>
</metadata>
<g id="FILL-BACKGROUND">
</g>
<g id="N-DIMENSIONS" display="none">
	<g id="MTEXT_164_" display="inline">
		<g>
			<g>
				<path fill="#3A54F5" d="M140.164,565.838v-2.375h4.572v12.707h-2.664v-10.332H140.164z"/>
				<path fill="#3A54F5" d="M152.656,567.152c0-0.564-0.135-1.008-0.405-1.332s-0.693-0.486-1.269-0.486
					c-1.188,0-1.818,0.811-1.89,2.431h-2.466c0.072-1.5,0.528-2.638,1.368-3.411s1.902-1.161,3.186-1.161
					c1.308,0,2.313,0.339,3.015,1.017c0.702,0.679,1.053,1.582,1.053,2.709c0,0.889-0.261,1.779-0.783,2.674
					c-0.522,0.894-1.186,1.716-1.989,2.466c-0.804,0.75-1.65,1.396-2.538,1.935h5.562v2.07h-8.946v-1.891
					C150.622,571.353,152.656,569.013,152.656,567.152z"/>
				<path fill="#3A54F5" d="M156.292,565.838v-2.375h4.572v12.707H158.2v-10.332H156.292z"/>
				<path fill="#3A54F5" d="M170.458,564.795c-0.3,0.264-0.45,0.726-0.45,1.385v0.019h2.016v2.142h-2.016v7.83h-2.538v-7.83h-1.278
					v-2.142h1.278v-0.233c0-1.188,0.339-2.104,1.017-2.746c0.678-0.641,1.683-0.963,3.015-0.963c0.228,0,0.402,0.007,0.522,0.019
					v2.196C171.279,564.422,170.757,564.531,170.458,564.795z"/>
				<path fill="#3A54F5" d="M178.863,573.992v2.178h-1.332c-1.116,0-1.971-0.27-2.565-0.81c-0.594-0.54-0.891-1.44-0.891-2.7v-4.32
					h-1.386v-2.142h1.386v-2.466h2.538v2.466h2.232v2.142h-2.232v4.356c0,0.479,0.096,0.816,0.288,1.009
					c0.192,0.191,0.516,0.287,0.972,0.287H178.863z"/>
				<path fill="#3A54F5" d="M183.475,564.919c0-0.329-0.079-0.588-0.236-0.776c-0.157-0.189-0.404-0.283-0.74-0.283
					c-0.692,0-1.06,0.472-1.102,1.416h-1.438c0.042-0.874,0.308-1.537,0.798-1.988c0.489-0.451,1.108-0.678,1.857-0.678
					c0.762,0,1.348,0.198,1.757,0.594c0.41,0.395,0.614,0.922,0.614,1.579c0,0.519-0.152,1.038-0.457,1.559s-0.691,1.001-1.16,1.438
					c-0.469,0.438-0.962,0.813-1.479,1.128h3.243v1.207h-5.216v-1.102C182.289,567.367,183.475,566.004,183.475,564.919z"/>
				<path fill="#3A54F5" d="M140.164,587.438v-2.376h4.572v12.708h-2.664v-10.332H140.164z"/>
				<path fill="#3A54F5" d="M146.104,587.438v-2.376h4.572v12.708h-2.664v-10.332H146.104z"/>
				<path fill="#3A54F5" d="M155.085,595.125v2.646h-2.736v-2.646H155.085z"/>
				<path fill="#3A54F5" d="M162.394,588.752c0-0.563-0.135-1.008-0.405-1.332c-0.27-0.323-0.693-0.485-1.269-0.485
					c-1.188,0-1.818,0.81-1.89,2.431h-2.466c0.072-1.5,0.528-2.638,1.368-3.412c0.84-0.773,1.902-1.16,3.186-1.16
					c1.308,0,2.313,0.339,3.015,1.017c0.702,0.679,1.053,1.581,1.053,2.709c0,0.888-0.261,1.779-0.783,2.673
					c-0.522,0.895-1.186,1.717-1.989,2.467c-0.804,0.75-1.65,1.395-2.538,1.934h5.562v2.07h-8.946v-1.89
					C160.36,592.953,162.394,590.613,162.394,588.752z"/>
				<path fill="#3A54F5" d="M186.45,588.779c0.702,0.75,1.053,1.815,1.053,3.195v5.796h-2.52v-5.508
					c0-0.769-0.195-1.359-0.585-1.772c-0.39-0.414-0.927-0.621-1.611-0.621c-0.708,0-1.272,0.222-1.692,0.666
					c-0.42,0.443-0.63,1.092-0.63,1.943v5.292h-2.52v-5.508c0-0.769-0.195-1.359-0.585-1.772c-0.39-0.414-0.927-0.621-1.611-0.621
					c-0.708,0-1.272,0.222-1.692,0.666c-0.42,0.443-0.63,1.092-0.63,1.943v5.292h-2.538v-9.972h2.538v1.89
					c0.264-0.647,0.681-1.149,1.251-1.503s1.233-0.531,1.989-0.531c0.804,0,1.503,0.192,2.097,0.576
					c0.594,0.385,1.041,0.936,1.341,1.656c0.312-0.684,0.777-1.227,1.395-1.629c0.618-0.402,1.311-0.604,2.079-0.604
					C184.791,587.654,185.749,588.029,186.45,588.779z"/>
				<path fill="#3A54F5" d="M192.529,586.52c0-0.33-0.079-0.588-0.236-0.777c-0.157-0.189-0.404-0.283-0.74-0.283
					c-0.692,0-1.06,0.473-1.102,1.416h-1.438c0.042-0.873,0.308-1.537,0.798-1.988c0.489-0.451,1.108-0.677,1.857-0.677
					c0.762,0,1.348,0.198,1.757,0.593c0.41,0.396,0.614,0.922,0.614,1.58c0,0.518-0.152,1.037-0.457,1.559
					c-0.304,0.521-0.691,1-1.16,1.438s-0.962,0.812-1.479,1.128h3.243v1.206h-5.216v-1.102
					C191.343,588.968,192.529,587.604,192.529,586.52z"/>
			</g>
		</g>
	</g>
	<g display="inline">
		<g id="POLYLINE_1095_">
			
				<line fill="none" stroke="#3A54F5" stroke-width="2" stroke-linecap="round" stroke-linejoin="round" stroke-miterlimit="10" x1="344.866" y1="311.961" x2="344.866" y2="275.671"/>
		</g>
		<g id="LINE_76_">
			
				<line fill="none" stroke="#3A54F5" stroke-width="2" stroke-linecap="round" stroke-linejoin="round" stroke-miterlimit="10" x1="344.866" y1="231.27" x2="344.866" y2="190.361"/>
		</g>
		<g id="POLYLINE_1094_">
			
				<polyline fill="none" stroke="#3A54F5" stroke-width="2" stroke-linecap="round" stroke-linejoin="round" stroke-miterlimit="10" points="
				338.238,196.99 344.866,190.361 351.494,196.99 			"/>
		</g>
		<g id="POLYLINE_1093_">
			
				<polyline fill="none" stroke="#3A54F5" stroke-width="2" stroke-linecap="round" stroke-linejoin="round" stroke-miterlimit="10" points="
				351.494,305.334 344.866,311.961 338.238,305.334 			"/>
		</g>
		<g id="MTEXT_163_">
			<g>
				<g>
					<g>
						<path fill="#3A54F5" d="M303.699,248.18c-0.608-0.271-1.07-0.626-1.384-1.063s-0.482-0.891-0.504-1.36
							c0-0.096,0.032-0.174,0.096-0.232s0.144-0.088,0.24-0.088h0.72c0.117,0,0.213,0.024,0.288,0.072
							c0.074,0.048,0.133,0.142,0.176,0.28c0.139,0.544,0.44,0.928,0.904,1.151c0.464,0.225,1.011,0.336,1.64,0.336
							c0.768,0,1.378-0.184,1.832-0.552c0.453-0.368,0.68-0.894,0.68-1.576c0-1.301-0.795-1.952-2.384-1.952h-1.504
							c-0.107,0-0.195-0.034-0.264-0.104s-0.104-0.157-0.104-0.264v-0.416c0-0.16,0.059-0.299,0.176-0.416l3.12-3.456h-4.736
							c-0.106,0-0.195-0.032-0.264-0.097c-0.07-0.063-0.104-0.148-0.104-0.256v-0.576c0-0.117,0.034-0.21,0.104-0.279
							c0.069-0.069,0.157-0.104,0.264-0.104h6.336c0.118,0,0.21,0.035,0.28,0.104c0.069,0.069,0.104,0.162,0.104,0.279v0.528
							c0,0.117-0.054,0.24-0.16,0.368l-3.12,3.504h0.256c1.088,0.032,1.949,0.314,2.584,0.848c0.634,0.534,0.952,1.312,0.952,2.336
							c0,0.704-0.173,1.31-0.52,1.816s-0.829,0.896-1.448,1.168c-0.619,0.272-1.317,0.408-2.096,0.408
							C305.027,248.588,304.307,248.452,303.699,248.18z"/>
						<path fill="#3A54F5" d="M311.667,240.02c-0.043-0.059-0.059-0.141-0.048-0.248l0.352-2.24
							c0.042-0.309,0.192-0.464,0.448-0.464h1.024c0.075,0,0.136,0.027,0.184,0.08c0.048,0.054,0.072,0.118,0.072,0.192
							c0,0.106-0.016,0.191-0.048,0.256l-0.832,2.16c-0.053,0.117-0.112,0.205-0.176,0.264s-0.16,0.088-0.288,0.088h-0.496
							C311.773,240.107,311.709,240.078,311.667,240.02z"/>
						<path fill="#3A54F5" d="M317.019,248.067c-0.624-0.346-1.099-0.812-1.424-1.399c-0.326-0.587-0.488-1.227-0.488-1.92
							c0-0.918,0.368-1.898,1.104-2.944l3.056-4.256c0.011-0.011,0.04-0.048,0.088-0.112c0.048-0.063,0.109-0.114,0.184-0.151
							c0.075-0.038,0.16-0.057,0.256-0.057h0.784c0.096,0,0.173,0.035,0.232,0.104s0.088,0.151,0.088,0.248
							c0,0.053-0.027,0.122-0.08,0.208l-2.336,3.264c0.277-0.064,0.586-0.096,0.928-0.096c0.779,0,1.464,0.173,2.056,0.52
							c0.592,0.347,1.05,0.806,1.376,1.376c0.325,0.571,0.488,1.197,0.488,1.88s-0.163,1.32-0.488,1.912
							c-0.326,0.592-0.797,1.064-1.416,1.416c-0.619,0.353-1.35,0.528-2.192,0.528C318.381,248.588,317.643,248.414,317.019,248.067
							z M320.515,246.972c0.395-0.192,0.709-0.478,0.944-0.855c0.234-0.379,0.352-0.835,0.352-1.368c0-0.522-0.12-0.974-0.36-1.353
							c-0.24-0.378-0.558-0.666-0.952-0.864c-0.395-0.196-0.821-0.296-1.28-0.296c-0.459,0-0.885,0.1-1.28,0.296
							c-0.395,0.198-0.709,0.486-0.944,0.864c-0.235,0.379-0.352,0.83-0.352,1.353c0,0.533,0.117,0.989,0.352,1.368
							c0.235,0.378,0.549,0.663,0.944,0.855c0.395,0.192,0.821,0.288,1.28,0.288C319.688,247.26,320.12,247.164,320.515,246.972z"/>
						<path fill="#3A54F5" d="M324.89,240.012c-0.048-0.064-0.061-0.144-0.04-0.24l0.352-2.24c0.042-0.309,0.192-0.464,0.448-0.464
							h1.024c0.075,0,0.136,0.027,0.184,0.08c0.048,0.054,0.072,0.118,0.072,0.192c0,0.106-0.016,0.191-0.048,0.256l-0.832,2.16
							c-0.053,0.117-0.112,0.205-0.176,0.264s-0.16,0.088-0.288,0.088h-0.496C325.005,240.107,324.938,240.076,324.89,240.012z
							 M327.402,240.012c-0.048-0.064-0.062-0.144-0.04-0.24l0.352-2.24c0.042-0.309,0.192-0.464,0.448-0.464h1.024
							c0.074,0,0.136,0.027,0.184,0.08c0.048,0.054,0.072,0.118,0.072,0.192c0,0.106-0.016,0.191-0.048,0.256l-0.832,2.16
							c-0.054,0.117-0.112,0.205-0.176,0.264s-0.16,0.088-0.288,0.088h-0.496C327.517,240.107,327.45,240.076,327.402,240.012z"/>
						<path fill="#3A54F5" d="M335.298,251.651c-0.064-0.069-0.096-0.157-0.096-0.264V234.46c0-0.106,0.032-0.194,0.096-0.265
							c0.064-0.068,0.149-0.104,0.256-0.104h0.592c0.106,0,0.194,0.035,0.264,0.104c0.069,0.07,0.104,0.158,0.104,0.265v16.928
							c0,0.106-0.035,0.194-0.104,0.264c-0.07,0.069-0.158,0.104-0.264,0.104h-0.592
							C335.448,251.756,335.362,251.721,335.298,251.651z"/>
						<path fill="#3A54F5" d="M345.794,248.324c-0.064-0.069-0.096-0.158-0.096-0.265v-9.023l-2.688,2.063
							c-0.075,0.064-0.155,0.096-0.24,0.096c-0.096,0-0.187-0.053-0.272-0.159l-0.384-0.496c-0.054-0.075-0.08-0.149-0.08-0.225
							c0-0.117,0.053-0.213,0.16-0.288l3.472-2.688c0.117-0.074,0.256-0.112,0.416-0.112h0.752c0.106,0,0.194,0.035,0.264,0.104
							s0.104,0.157,0.104,0.264v10.464c0,0.106-0.035,0.195-0.104,0.265s-0.157,0.104-0.264,0.104h-0.784
							C345.943,248.428,345.858,248.394,345.794,248.324z"/>
						<path fill="#3A54F5" d="M349.625,248.324c-0.069-0.069-0.104-0.158-0.104-0.265v-1.104c0-0.106,0.035-0.197,0.104-0.272
							c0.069-0.074,0.157-0.112,0.264-0.112h1.104c0.106,0,0.194,0.038,0.264,0.112c0.069,0.075,0.104,0.166,0.104,0.272v1.104
							c0,0.106-0.035,0.195-0.104,0.265c-0.07,0.069-0.158,0.104-0.264,0.104h-1.104
							C349.783,248.428,349.695,248.394,349.625,248.324z"/>
						<path fill="#3A54F5" d="M354.218,247.38c-0.635-0.806-0.974-1.858-1.016-3.16l-0.016-1.376l0.016-1.424
							c0.032-1.291,0.371-2.339,1.016-3.145c0.645-0.805,1.65-1.208,3.016-1.208c1.376,0,2.386,0.403,3.032,1.208
							c0.646,0.806,0.984,1.854,1.016,3.145c0.01,0.299,0.016,0.773,0.016,1.424c0,0.63-0.006,1.088-0.016,1.376
							c-0.043,1.302-0.381,2.354-1.016,3.16s-1.646,1.208-3.032,1.208C355.858,248.588,354.852,248.186,354.218,247.38z
							 M359.09,246.443c0.416-0.544,0.634-1.312,0.656-2.304c0.011-0.31,0.016-0.752,0.016-1.328c0-0.586-0.005-1.023-0.016-1.312
							c-0.021-0.981-0.243-1.747-0.664-2.296c-0.421-0.55-1.037-0.824-1.848-0.824c-0.811,0-1.424,0.274-1.84,0.824
							c-0.416,0.549-0.635,1.314-0.656,2.296l-0.016,1.312l0.016,1.328c0.021,0.992,0.24,1.76,0.656,2.304s1.029,0.816,1.84,0.816
							C358.055,247.26,358.674,246.987,359.09,246.443z"/>
						<path fill="#3A54F5" d="M364.474,248.324c-0.059-0.069-0.088-0.152-0.088-0.248l0.032-0.145l4-9.36h-5.28
							c-0.107,0-0.195-0.034-0.264-0.104s-0.104-0.157-0.104-0.264v-0.593c0-0.117,0.032-0.21,0.096-0.279s0.154-0.104,0.272-0.104
							h6.528c0.117,0,0.208,0.035,0.272,0.104s0.096,0.162,0.096,0.279v0.544c0,0.192-0.043,0.4-0.128,0.624l-3.952,9.248
							c-0.053,0.118-0.112,0.214-0.176,0.288c-0.064,0.075-0.155,0.112-0.272,0.112h-0.8
							C364.61,248.428,364.532,248.394,364.474,248.324z"/>
						<path fill="#3A54F5" d="M375.706,248.324c-0.07-0.069-0.104-0.158-0.104-0.265v-7.584c0-0.106,0.034-0.194,0.104-0.264
							c0.069-0.069,0.157-0.104,0.264-0.104h0.672c0.106,0,0.192,0.035,0.256,0.104s0.096,0.157,0.096,0.264v0.544
							c0.576-0.714,1.354-1.072,2.336-1.072c1.173,0,2.005,0.491,2.496,1.473c0.256-0.448,0.622-0.806,1.096-1.072
							s1.005-0.4,1.592-0.4c0.875,0,1.589,0.299,2.144,0.896s0.832,1.462,0.832,2.592v4.624c0,0.106-0.035,0.195-0.104,0.265
							s-0.157,0.104-0.264,0.104h-0.688c-0.107,0-0.195-0.034-0.264-0.104s-0.104-0.158-0.104-0.265v-4.479
							c0-0.854-0.176-1.464-0.528-1.832c-0.352-0.368-0.816-0.553-1.392-0.553c-0.512,0-0.952,0.189-1.32,0.568
							c-0.368,0.379-0.552,0.984-0.552,1.816v4.479c0,0.106-0.035,0.195-0.104,0.265s-0.158,0.104-0.264,0.104h-0.704
							c-0.106,0-0.194-0.034-0.264-0.104c-0.07-0.069-0.104-0.158-0.104-0.265v-4.479c0-0.843-0.184-1.451-0.552-1.824
							c-0.368-0.373-0.824-0.561-1.368-0.561c-0.512,0-0.952,0.188-1.32,0.561c-0.368,0.373-0.552,0.976-0.552,1.808v4.496
							c0,0.106-0.035,0.195-0.104,0.265c-0.07,0.069-0.158,0.104-0.264,0.104h-0.704
							C375.863,248.428,375.774,248.394,375.706,248.324z"/>
						<path fill="#3A54F5" d="M309.419,265.524c-0.07-0.069-0.104-0.158-0.104-0.265v-7.584c0-0.106,0.034-0.194,0.104-0.264
							c0.069-0.069,0.157-0.104,0.264-0.104h0.672c0.106,0,0.192,0.035,0.256,0.104s0.096,0.157,0.096,0.264v0.544
							c0.576-0.714,1.354-1.072,2.336-1.072c1.173,0,2.005,0.491,2.496,1.473c0.256-0.448,0.622-0.806,1.096-1.072
							s1.005-0.4,1.592-0.4c0.875,0,1.589,0.299,2.144,0.896s0.832,1.462,0.832,2.592v4.624c0,0.106-0.035,0.195-0.104,0.265
							s-0.157,0.104-0.264,0.104h-0.688c-0.107,0-0.195-0.034-0.264-0.104s-0.104-0.158-0.104-0.265v-4.479
							c0-0.854-0.176-1.464-0.528-1.832c-0.352-0.368-0.816-0.553-1.392-0.553c-0.512,0-0.952,0.189-1.32,0.568
							c-0.368,0.379-0.552,0.984-0.552,1.816v4.479c0,0.106-0.035,0.195-0.104,0.265s-0.158,0.104-0.264,0.104h-0.704
							c-0.106,0-0.194-0.034-0.264-0.104c-0.07-0.069-0.104-0.158-0.104-0.265v-4.479c0-0.843-0.184-1.451-0.552-1.824
							c-0.368-0.373-0.824-0.561-1.368-0.561c-0.512,0-0.952,0.188-1.32,0.561c-0.368,0.373-0.552,0.976-0.552,1.808v4.496
							c0,0.106-0.035,0.195-0.104,0.265c-0.07,0.069-0.158,0.104-0.264,0.104h-0.704
							C309.576,265.628,309.488,265.594,309.419,265.524z"/>
						<path fill="#3A54F5" d="M323.499,255.636c-0.069-0.069-0.104-0.157-0.104-0.264v-0.832c0-0.106,0.035-0.197,0.104-0.272
							c0.069-0.074,0.157-0.111,0.264-0.111h0.944c0.107,0,0.197,0.037,0.272,0.111c0.075,0.075,0.112,0.166,0.112,0.272v0.832
							c0,0.106-0.038,0.194-0.112,0.264s-0.165,0.104-0.272,0.104h-0.944C323.656,255.74,323.568,255.705,323.499,255.636z
							 M323.627,265.524c-0.07-0.069-0.104-0.158-0.104-0.265v-7.584c0-0.106,0.034-0.194,0.104-0.264
							c0.069-0.069,0.157-0.104,0.264-0.104h0.704c0.106,0,0.194,0.035,0.264,0.104c0.069,0.069,0.104,0.157,0.104,0.264v7.584
							c0,0.106-0.035,0.195-0.104,0.265c-0.07,0.069-0.158,0.104-0.264,0.104h-0.704
							C323.784,265.628,323.696,265.594,323.627,265.524z"/>
						<path fill="#3A54F5" d="M327.467,265.524c-0.07-0.069-0.104-0.158-0.104-0.265v-7.584c0-0.106,0.034-0.194,0.104-0.264
							c0.069-0.069,0.157-0.104,0.264-0.104h0.688c0.117,0,0.208,0.032,0.272,0.097c0.064,0.063,0.096,0.154,0.096,0.271v0.704
							c0.32-0.395,0.69-0.698,1.112-0.912c0.421-0.213,0.947-0.32,1.576-0.32c1.024,0,1.818,0.328,2.384,0.984
							s0.848,1.522,0.848,2.6v4.528c0,0.106-0.035,0.195-0.104,0.265s-0.157,0.104-0.264,0.104h-0.736
							c-0.107,0-0.195-0.034-0.264-0.104s-0.104-0.158-0.104-0.265v-4.432c0-0.769-0.187-1.365-0.56-1.792
							c-0.374-0.427-0.907-0.641-1.6-0.641c-0.683,0-1.227,0.217-1.632,0.648s-0.608,1.026-0.608,1.784v4.432
							c0,0.106-0.035,0.195-0.104,0.265s-0.157,0.104-0.264,0.104h-0.736C327.624,265.628,327.536,265.594,327.467,265.524z"/>
						<path fill="#3A54F5" d="M337.002,255.636c-0.069-0.069-0.104-0.157-0.104-0.264v-0.832c0-0.106,0.035-0.197,0.104-0.272
							c0.069-0.074,0.157-0.111,0.264-0.111h0.944c0.107,0,0.197,0.037,0.272,0.111c0.075,0.075,0.112,0.166,0.112,0.272v0.832
							c0,0.106-0.038,0.194-0.112,0.264s-0.165,0.104-0.272,0.104h-0.944C337.159,255.74,337.071,255.705,337.002,255.636z
							 M337.13,265.524c-0.07-0.069-0.104-0.158-0.104-0.265v-7.584c0-0.106,0.034-0.194,0.104-0.264
							c0.069-0.069,0.157-0.104,0.264-0.104h0.704c0.106,0,0.194,0.035,0.264,0.104c0.069,0.069,0.104,0.157,0.104,0.264v7.584
							c0,0.106-0.035,0.195-0.104,0.265c-0.07,0.069-0.158,0.104-0.264,0.104h-0.704
							C337.288,265.628,337.199,265.594,337.13,265.524z"/>
						<path fill="#3A54F5" d="M340.97,265.524c-0.07-0.069-0.104-0.158-0.104-0.265v-7.584c0-0.106,0.034-0.194,0.104-0.264
							c0.069-0.069,0.157-0.104,0.264-0.104h0.672c0.106,0,0.192,0.035,0.256,0.104s0.096,0.157,0.096,0.264v0.544
							c0.576-0.714,1.354-1.072,2.336-1.072c1.173,0,2.005,0.491,2.496,1.473c0.256-0.448,0.622-0.806,1.096-1.072
							s1.005-0.4,1.592-0.4c0.875,0,1.589,0.299,2.144,0.896s0.832,1.462,0.832,2.592v4.624c0,0.106-0.035,0.195-0.104,0.265
							s-0.157,0.104-0.264,0.104h-0.688c-0.107,0-0.195-0.034-0.264-0.104s-0.104-0.158-0.104-0.265v-4.479
							c0-0.854-0.176-1.464-0.528-1.832c-0.352-0.368-0.816-0.553-1.392-0.553c-0.512,0-0.952,0.189-1.32,0.568
							c-0.368,0.379-0.552,0.984-0.552,1.816v4.479c0,0.106-0.035,0.195-0.104,0.265s-0.158,0.104-0.264,0.104h-0.704
							c-0.106,0-0.194-0.034-0.264-0.104c-0.07-0.069-0.104-0.158-0.104-0.265v-4.479c0-0.843-0.184-1.451-0.552-1.824
							c-0.368-0.373-0.824-0.561-1.368-0.561c-0.512,0-0.952,0.188-1.32,0.561c-0.368,0.373-0.552,0.976-0.552,1.808v4.496
							c0,0.106-0.035,0.195-0.104,0.265c-0.07,0.069-0.158,0.104-0.264,0.104h-0.704
							C341.127,265.628,341.039,265.594,340.97,265.524z"/>
						<path fill="#3A54F5" d="M355.826,264.804c-0.555-0.656-0.832-1.527-0.832-2.616v-4.512c0-0.106,0.034-0.194,0.104-0.264
							c0.069-0.069,0.157-0.104,0.264-0.104h0.736c0.106,0,0.194,0.035,0.264,0.104s0.104,0.157,0.104,0.264v4.433
							c0,1.621,0.704,2.432,2.112,2.432c0.683,0,1.224-0.216,1.624-0.648c0.4-0.432,0.6-1.026,0.6-1.783v-4.433
							c0-0.106,0.034-0.194,0.104-0.264c0.069-0.069,0.157-0.104,0.264-0.104h0.736c0.106,0,0.194,0.035,0.264,0.104
							s0.104,0.157,0.104,0.264v7.584c0,0.106-0.035,0.195-0.104,0.265s-0.157,0.104-0.264,0.104h-0.688
							c-0.107,0-0.195-0.034-0.264-0.104s-0.104-0.158-0.104-0.265v-0.72c-0.31,0.416-0.672,0.728-1.088,0.936
							s-0.944,0.312-1.584,0.312C357.164,265.788,356.38,265.46,355.826,264.804z"/>
						<path fill="#3A54F5" d="M364.778,265.524c-0.07-0.069-0.104-0.158-0.104-0.265v-7.584c0-0.106,0.034-0.194,0.104-0.264
							c0.069-0.069,0.157-0.104,0.264-0.104h0.672c0.106,0,0.192,0.035,0.256,0.104s0.096,0.157,0.096,0.264v0.544
							c0.576-0.714,1.354-1.072,2.336-1.072c1.173,0,2.005,0.491,2.496,1.473c0.256-0.448,0.622-0.806,1.096-1.072
							s1.005-0.4,1.592-0.4c0.875,0,1.589,0.299,2.144,0.896s0.832,1.462,0.832,2.592v4.624c0,0.106-0.035,0.195-0.104,0.265
							s-0.157,0.104-0.264,0.104h-0.688c-0.107,0-0.195-0.034-0.264-0.104s-0.104-0.158-0.104-0.265v-4.479
							c0-0.854-0.176-1.464-0.528-1.832c-0.352-0.368-0.816-0.553-1.392-0.553c-0.512,0-0.952,0.189-1.32,0.568
							c-0.368,0.379-0.552,0.984-0.552,1.816v4.479c0,0.106-0.035,0.195-0.104,0.265s-0.158,0.104-0.264,0.104h-0.704
							c-0.106,0-0.194-0.034-0.264-0.104c-0.07-0.069-0.104-0.158-0.104-0.265v-4.479c0-0.843-0.184-1.451-0.552-1.824
							c-0.368-0.373-0.824-0.561-1.368-0.561c-0.512,0-0.952,0.188-1.32,0.561c-0.368,0.373-0.552,0.976-0.552,1.808v4.496
							c0,0.106-0.035,0.195-0.104,0.265c-0.07,0.069-0.158,0.104-0.264,0.104h-0.704
							C364.935,265.628,364.847,265.594,364.778,265.524z"/>
					</g>
				</g>
			</g>
		</g>
	</g>
	<g id="MTEXT_152_" display="inline">
		<g>
			<g>
				<g>
					<path fill="#3A54F5" d="M457.523,425.346c-0.072-0.078-0.108-0.177-0.108-0.297v-11.771c0-0.12,0.036-0.22,0.108-0.298
						c0.072-0.077,0.168-0.116,0.288-0.116h0.9c0.132,0,0.234,0.035,0.306,0.107c0.072,0.072,0.108,0.174,0.108,0.307v11.771
						c0,0.12-0.039,0.219-0.117,0.297s-0.177,0.117-0.297,0.117h-0.9C457.691,425.463,457.596,425.424,457.523,425.346z"/>
					<path fill="#3A54F5" d="M463.167,425.238c-0.57-0.271-0.993-0.579-1.269-0.928c-0.276-0.348-0.414-0.636-0.414-0.863
						c0-0.12,0.042-0.213,0.126-0.279c0.084-0.065,0.174-0.099,0.27-0.099h0.756c0.072,0,0.129,0.012,0.171,0.035
						c0.042,0.024,0.099,0.078,0.171,0.162c0.276,0.336,0.585,0.601,0.927,0.792c0.342,0.192,0.801,0.288,1.377,0.288
						c0.648,0,1.167-0.119,1.557-0.359s0.585-0.588,0.585-1.044c0-0.3-0.084-0.54-0.252-0.721c-0.168-0.18-0.447-0.342-0.837-0.485
						c-0.39-0.145-0.969-0.3-1.737-0.469c-1.044-0.228-1.782-0.558-2.214-0.989c-0.432-0.433-0.648-0.99-0.648-1.675
						c0-0.443,0.132-0.873,0.396-1.286c0.264-0.414,0.657-0.75,1.179-1.009c0.522-0.258,1.143-0.387,1.863-0.387
						c0.756,0,1.401,0.126,1.935,0.378c0.534,0.252,0.936,0.546,1.206,0.882s0.405,0.618,0.405,0.847
						c0,0.107-0.039,0.197-0.117,0.27c-0.078,0.072-0.171,0.108-0.279,0.108h-0.684c-0.168,0-0.288-0.066-0.36-0.198
						c-0.204-0.228-0.375-0.405-0.513-0.531c-0.138-0.126-0.339-0.233-0.603-0.324c-0.264-0.09-0.594-0.135-0.99-0.135
						c-0.588,0-1.038,0.123-1.35,0.369s-0.468,0.573-0.468,0.981c0,0.252,0.066,0.465,0.198,0.639
						c0.132,0.174,0.384,0.336,0.756,0.486c0.372,0.149,0.924,0.303,1.656,0.459c1.14,0.24,1.947,0.582,2.421,1.025
						c0.474,0.444,0.711,1.015,0.711,1.71c0,0.517-0.147,0.984-0.441,1.404s-0.732,0.75-1.314,0.99
						c-0.582,0.239-1.275,0.359-2.079,0.359C464.436,425.643,463.736,425.508,463.167,425.238z"/>
					<path fill="#3A54F5" d="M471.338,425.346c-0.078-0.078-0.117-0.177-0.117-0.297v-11.952c0-0.132,0.039-0.233,0.117-0.306
						s0.177-0.108,0.297-0.108h0.792c0.12,0,0.219,0.039,0.297,0.117c0.078,0.078,0.117,0.178,0.117,0.297v11.952
						c0,0.12-0.039,0.219-0.117,0.297c-0.078,0.078-0.177,0.117-0.297,0.117h-0.792
						C471.516,425.463,471.417,425.424,471.338,425.346z"/>
					<path fill="#3A54F5" d="M476.504,425.283c-0.498-0.24-0.894-0.567-1.188-0.981s-0.441-0.873-0.441-1.377
						c0-0.792,0.324-1.439,0.972-1.944c0.648-0.504,1.53-0.84,2.646-1.008l2.7-0.378v-0.521c0-1.236-0.714-1.854-2.142-1.854
						c-0.552,0-0.996,0.111-1.332,0.333c-0.336,0.223-0.582,0.483-0.738,0.783c-0.048,0.12-0.099,0.201-0.153,0.243
						c-0.054,0.042-0.129,0.062-0.225,0.062h-0.702c-0.108,0-0.201-0.038-0.279-0.117c-0.078-0.077-0.117-0.171-0.117-0.278
						c0-0.276,0.129-0.597,0.387-0.963c0.258-0.366,0.657-0.685,1.197-0.954c0.54-0.271,1.2-0.405,1.98-0.405
						c1.344,0,2.307,0.312,2.889,0.937c0.582,0.624,0.873,1.403,0.873,2.34v5.85c0,0.12-0.039,0.219-0.117,0.297
						s-0.177,0.117-0.297,0.117h-0.792c-0.12,0-0.216-0.039-0.288-0.117s-0.108-0.177-0.108-0.297v-0.792
						c-0.264,0.396-0.648,0.727-1.152,0.99c-0.504,0.264-1.152,0.396-1.944,0.396C477.545,425.643,477.002,425.522,476.504,425.283z
						 M480.438,423.555c0.504-0.516,0.756-1.266,0.756-2.25v-0.504l-2.106,0.306c-0.864,0.12-1.518,0.324-1.962,0.612
						c-0.444,0.288-0.666,0.648-0.666,1.08c0,0.492,0.201,0.87,0.603,1.134c0.402,0.265,0.879,0.396,1.431,0.396
						C479.286,424.329,479.934,424.071,480.438,423.555z"/>
					<path fill="#3A54F5" d="M485.558,425.346c-0.078-0.078-0.117-0.177-0.117-0.297v-8.532c0-0.119,0.039-0.219,0.117-0.297
						s0.177-0.117,0.297-0.117h0.774c0.132,0,0.234,0.036,0.306,0.108c0.072,0.072,0.108,0.174,0.108,0.306v0.792
						c0.36-0.443,0.777-0.785,1.251-1.025c0.474-0.24,1.064-0.36,1.773-0.36c1.152,0,2.046,0.369,2.682,1.107
						c0.636,0.737,0.954,1.713,0.954,2.925v5.094c0,0.12-0.039,0.219-0.117,0.297c-0.078,0.078-0.177,0.117-0.297,0.117h-0.828
						c-0.12,0-0.219-0.039-0.297-0.117c-0.079-0.078-0.117-0.177-0.117-0.297v-4.986c0-0.863-0.21-1.535-0.63-2.016
						c-0.42-0.479-1.021-0.72-1.8-0.72c-0.768,0-1.38,0.243-1.836,0.729c-0.456,0.486-0.684,1.155-0.684,2.007v4.986
						c0,0.12-0.039,0.219-0.117,0.297c-0.078,0.078-0.177,0.117-0.297,0.117h-0.828
						C485.735,425.463,485.636,425.424,485.558,425.346z"/>
					<path fill="#3A54F5" d="M496.898,424.419c-0.63-0.816-0.969-1.848-1.017-3.096l-0.018-0.54l0.018-0.54
						c0.048-1.236,0.39-2.266,1.026-3.087c0.636-0.822,1.578-1.233,2.826-1.233s2.22,0.444,2.916,1.332v-4.158
						c0-0.119,0.039-0.219,0.117-0.297c0.078-0.078,0.177-0.117,0.297-0.117h0.81c0.12,0,0.219,0.039,0.297,0.117
						c0.078,0.078,0.117,0.178,0.117,0.297v11.952c0,0.12-0.04,0.219-0.117,0.297c-0.078,0.078-0.177,0.117-0.297,0.117h-0.774
						c-0.12,0-0.216-0.039-0.288-0.117c-0.072-0.078-0.108-0.177-0.108-0.297v-0.774c-0.684,0.912-1.674,1.368-2.97,1.368
						C498.473,425.643,497.528,425.235,496.898,424.419z M501.965,423.402c0.42-0.559,0.648-1.222,0.684-1.989
						c0.012-0.132,0.018-0.36,0.018-0.685c0-0.335-0.006-0.569-0.018-0.701c-0.024-0.732-0.255-1.365-0.693-1.899
						c-0.438-0.534-1.065-0.801-1.881-0.801c-0.864,0-1.494,0.27-1.89,0.81s-0.612,1.248-0.648,2.124l-0.018,0.522
						c0,2.304,0.852,3.456,2.556,3.456C500.915,424.239,501.545,423.96,501.965,423.402z"/>
					<path fill="#3A54F5" d="M449.577,443.938c-0.834-0.87-1.281-2.061-1.341-3.573c-0.012-0.324-0.018-0.852-0.018-1.584
						c0-0.744,0.006-1.283,0.018-1.62c0.06-1.512,0.507-2.702,1.341-3.572s2.049-1.306,3.645-1.306c1.068,0,1.974,0.189,2.718,0.567
						s1.305,0.873,1.683,1.485c0.378,0.611,0.585,1.266,0.621,1.962c0,0.107-0.039,0.194-0.117,0.261s-0.171,0.099-0.279,0.099h-0.9
						c-0.12,0-0.216-0.029-0.288-0.09c-0.072-0.06-0.126-0.162-0.162-0.306c-0.204-0.924-0.573-1.572-1.107-1.944
						c-0.534-0.372-1.257-0.558-2.169-0.558c-2.088,0-3.174,1.164-3.258,3.492c-0.012,0.323-0.018,0.821-0.018,1.493
						c0,0.673,0.006,1.183,0.018,1.53c0.083,2.316,1.17,3.474,3.258,3.474c0.9,0,1.62-0.186,2.16-0.558s0.912-1.014,1.116-1.926
						c0.036-0.145,0.09-0.246,0.162-0.306c0.072-0.061,0.168-0.091,0.288-0.091h0.9c0.108,0,0.201,0.033,0.279,0.1
						c0.078,0.065,0.117,0.152,0.117,0.261c-0.036,0.696-0.243,1.35-0.621,1.962s-0.939,1.107-1.683,1.485s-1.65,0.566-2.718,0.566
						C451.625,445.242,450.411,444.808,449.577,443.938z"/>
					<path fill="#3A54F5" d="M461.205,444.127c-0.714-0.744-1.095-1.734-1.143-2.971l-0.018-0.773l0.018-0.774
						c0.048-1.235,0.435-2.226,1.161-2.97c0.726-0.744,1.737-1.116,3.033-1.116s2.307,0.372,3.033,1.116
						c0.726,0.744,1.113,1.734,1.161,2.97c0.024,0.265,0.036,0.522,0.036,0.774s-0.012,0.51-0.036,0.773
						c-0.048,1.236-0.429,2.227-1.143,2.971c-0.714,0.744-1.731,1.115-3.051,1.115C462.935,445.242,461.918,444.871,461.205,444.127
						z M466.083,443.163c0.45-0.485,0.693-1.185,0.729-2.097c0.012-0.12,0.018-0.348,0.018-0.684s-0.006-0.564-0.018-0.685
						c-0.036-0.911-0.279-1.61-0.729-2.097c-0.45-0.486-1.059-0.729-1.827-0.729s-1.377,0.243-1.827,0.729
						c-0.45,0.486-0.693,1.186-0.729,2.097l-0.018,0.685l0.018,0.684c0.036,0.912,0.279,1.611,0.729,2.097
						c0.45,0.486,1.059,0.729,1.827,0.729S465.632,443.649,466.083,443.163z"/>
					<path fill="#3A54F5" d="M471.599,444.136c-0.624-0.738-0.936-1.72-0.936-2.943v-5.076c0-0.119,0.039-0.219,0.117-0.297
						s0.177-0.117,0.297-0.117h0.828c0.12,0,0.219,0.039,0.297,0.117s0.117,0.178,0.117,0.297v4.986
						c0,1.824,0.792,2.736,2.376,2.736c0.768,0,1.377-0.243,1.827-0.729c0.45-0.486,0.675-1.154,0.675-2.007v-4.986
						c0-0.119,0.039-0.219,0.117-0.297c0.078-0.078,0.177-0.117,0.297-0.117h0.828c0.12,0,0.219,0.039,0.297,0.117
						s0.117,0.178,0.117,0.297v8.532c0,0.12-0.039,0.219-0.117,0.297s-0.177,0.117-0.297,0.117h-0.774
						c-0.12,0-0.219-0.039-0.297-0.117s-0.117-0.177-0.117-0.297v-0.81c-0.348,0.468-0.756,0.818-1.224,1.053
						c-0.468,0.234-1.062,0.351-1.782,0.351C473.105,445.242,472.223,444.873,471.599,444.136z"/>
					<path fill="#3A54F5" d="M481.67,444.945c-0.078-0.078-0.117-0.177-0.117-0.297v-8.532c0-0.119,0.039-0.219,0.117-0.297
						s0.177-0.117,0.297-0.117h0.774c0.132,0,0.234,0.036,0.306,0.108c0.072,0.072,0.108,0.174,0.108,0.306v0.792
						c0.36-0.443,0.777-0.785,1.251-1.025c0.474-0.24,1.064-0.36,1.773-0.36c1.152,0,2.046,0.369,2.682,1.107
						c0.636,0.737,0.954,1.713,0.954,2.925v5.094c0,0.12-0.039,0.219-0.117,0.297c-0.078,0.078-0.177,0.117-0.297,0.117h-0.828
						c-0.12,0-0.219-0.039-0.297-0.117c-0.079-0.078-0.117-0.177-0.117-0.297v-4.986c0-0.863-0.21-1.535-0.63-2.016
						c-0.42-0.479-1.021-0.72-1.8-0.72c-0.768,0-1.38,0.243-1.836,0.729c-0.456,0.486-0.684,1.155-0.684,2.007v4.986
						c0,0.12-0.039,0.219-0.117,0.297c-0.078,0.078-0.177,0.117-0.297,0.117h-0.828C481.847,445.062,481.748,445.023,481.67,444.945
						z"/>
					<path fill="#3A54F5" d="M493.109,441.912v-4.823h-1.422c-0.12,0-0.216-0.036-0.288-0.108c-0.072-0.072-0.108-0.168-0.108-0.288
						v-0.576c0-0.119,0.036-0.219,0.108-0.297c0.072-0.078,0.167-0.117,0.288-0.117h1.422v-3.006c0-0.119,0.036-0.219,0.108-0.297
						c0.072-0.078,0.168-0.117,0.288-0.117h0.792c0.12,0,0.219,0.039,0.297,0.117s0.117,0.178,0.117,0.297v3.006h2.232
						c0.12,0,0.219,0.039,0.297,0.117s0.117,0.178,0.117,0.297v0.576c0,0.12-0.039,0.216-0.117,0.288s-0.177,0.108-0.297,0.108
						h-2.232v4.697c0,0.612,0.099,1.074,0.297,1.387c0.198,0.312,0.537,0.468,1.017,0.468h1.098c0.12,0,0.216,0.039,0.288,0.117
						c0.072,0.078,0.108,0.177,0.108,0.297v0.594c0,0.12-0.036,0.219-0.108,0.297c-0.072,0.078-0.168,0.117-0.288,0.117h-1.224
						C494.039,445.062,493.109,444.013,493.109,441.912z"/>
					<path fill="#3A54F5" d="M500.057,444.1c-0.732-0.762-1.134-1.803-1.206-3.123l-0.018-0.612l0.018-0.594
						c0.072-1.296,0.474-2.328,1.206-3.096c0.732-0.769,1.71-1.152,2.934-1.152c1.32,0,2.343,0.42,3.069,1.26
						c0.726,0.841,1.089,1.98,1.089,3.42v0.324c0,0.12-0.039,0.219-0.117,0.297c-0.078,0.078-0.177,0.117-0.297,0.117h-6.246v0.162
						c0.036,0.78,0.276,1.446,0.72,1.998s1.032,0.828,1.764,0.828c0.564,0,1.023-0.111,1.377-0.333s0.621-0.453,0.801-0.693
						c0.108-0.144,0.192-0.23,0.252-0.261c0.06-0.03,0.162-0.045,0.306-0.045h0.792c0.108,0,0.201,0.03,0.279,0.09
						c0.078,0.061,0.117,0.138,0.117,0.234c0,0.264-0.162,0.582-0.486,0.953c-0.324,0.373-0.783,0.693-1.377,0.964
						c-0.594,0.27-1.275,0.404-2.043,0.404C501.767,445.242,500.789,444.861,500.057,444.1z M505.511,439.717v-0.055
						c0-0.84-0.228-1.523-0.684-2.052c-0.456-0.527-1.068-0.792-1.836-0.792c-0.78,0-1.392,0.265-1.836,0.792
						c-0.444,0.528-0.666,1.212-0.666,2.052v0.055H505.511z"/>
					<path fill="#3A54F5" d="M509.461,444.945c-0.078-0.078-0.117-0.177-0.117-0.297v-8.514c0-0.12,0.039-0.223,0.117-0.307
						c0.078-0.083,0.177-0.126,0.297-0.126h0.756c0.132,0,0.237,0.039,0.315,0.117s0.117,0.184,0.117,0.315v0.792
						c0.492-0.816,1.326-1.225,2.502-1.225h0.702c0.132,0,0.234,0.036,0.306,0.108c0.072,0.072,0.108,0.174,0.108,0.306v0.666
						c0,0.12-0.036,0.22-0.108,0.297c-0.072,0.078-0.174,0.117-0.306,0.117h-1.026c-0.66,0-1.179,0.192-1.557,0.576
						c-0.378,0.384-0.567,0.906-0.567,1.566v5.31c0,0.12-0.042,0.219-0.126,0.297s-0.186,0.117-0.306,0.117h-0.81
						C509.639,445.062,509.54,445.023,509.461,444.945z"/>
				</g>
			</g>
		</g>
	</g>
	<g display="inline">
		<g id="POLYLINE_1092_">
			
				<line fill="none" stroke="#3A54F5" stroke-width="2" stroke-linecap="round" stroke-linejoin="round" stroke-miterlimit="10" x1="344.788" y1="537.045" x2="344.788" y2="456"/>
		</g>
		<g id="LINE_75_">
			
				<line fill="none" stroke="#3A54F5" stroke-width="2" stroke-linecap="round" stroke-linejoin="round" stroke-miterlimit="10" x1="344.788" y1="407" x2="344.788" y2="324.441"/>
		</g>
		<g id="POLYLINE_1091_">
			
				<polyline fill="none" stroke="#3A54F5" stroke-width="2" stroke-linecap="round" stroke-linejoin="round" stroke-miterlimit="10" points="
				338.161,331.07 344.788,324.441 351.417,331.07 			"/>
		</g>
		<g id="POLYLINE_1090_">
			
				<polyline fill="none" stroke="#3A54F5" stroke-width="2" stroke-linecap="round" stroke-linejoin="round" stroke-miterlimit="10" points="
				351.417,530.418 344.788,537.045 338.161,530.418 			"/>
		</g>
		<g id="MTEXT_91_">
			<g>
				<g>
					<path fill="#3A54F5" d="M321.905,428.603c-0.66-0.324-1.164-0.747-1.512-1.27c-0.349-0.521-0.534-1.083-0.558-1.683v-0.036
						c0-0.096,0.036-0.174,0.108-0.234c0.072-0.06,0.156-0.09,0.252-0.09h0.882c0.252,0,0.414,0.133,0.486,0.396
						c0.18,0.647,0.513,1.131,0.999,1.448c0.486,0.318,1.047,0.478,1.683,0.478c0.816,0,1.494-0.249,2.034-0.747
						s0.81-1.185,0.81-2.061c0-0.805-0.27-1.443-0.81-1.918c-0.54-0.474-1.218-0.711-2.034-0.711c-0.432,0-0.78,0.055-1.044,0.162
						c-0.264,0.108-0.534,0.265-0.81,0.469c-0.156,0.12-0.285,0.207-0.387,0.261c-0.102,0.054-0.213,0.081-0.333,0.081h-0.864
						c-0.108,0-0.204-0.039-0.288-0.117c-0.084-0.078-0.12-0.171-0.108-0.279l0.558-5.994c0.036-0.3,0.186-0.449,0.45-0.449h6.228
						c0.132,0,0.234,0.035,0.306,0.107c0.072,0.072,0.108,0.174,0.108,0.307v0.666c0,0.119-0.039,0.216-0.117,0.287
						c-0.078,0.072-0.177,0.108-0.297,0.108h-5.184l-0.324,3.618c0.576-0.408,1.35-0.612,2.322-0.612
						c0.804,0,1.536,0.159,2.196,0.478c0.66,0.317,1.185,0.782,1.575,1.395c0.39,0.612,0.585,1.338,0.585,2.178
						c0,0.889-0.195,1.653-0.585,2.295c-0.39,0.643-0.93,1.129-1.62,1.458c-0.69,0.33-1.479,0.495-2.367,0.495
						C323.345,429.088,322.565,428.926,321.905,428.603z"/>
					<path fill="#3A54F5" d="M330.761,419.449c-0.048-0.065-0.066-0.159-0.054-0.279l0.396-2.52
						c0.048-0.348,0.216-0.522,0.504-0.522h1.152c0.083,0,0.153,0.03,0.207,0.09c0.054,0.061,0.081,0.133,0.081,0.217
						c0,0.12-0.018,0.216-0.054,0.288l-0.936,2.43c-0.06,0.132-0.126,0.231-0.198,0.297c-0.072,0.066-0.18,0.099-0.324,0.099h-0.558
						C330.881,419.548,330.809,419.516,330.761,419.449z"/>
					<path fill="#3A54F5" d="M336.782,428.503c-0.702-0.39-1.236-0.915-1.602-1.575c-0.366-0.659-0.549-1.379-0.549-2.159
						c0-1.032,0.414-2.136,1.242-3.312l3.438-4.788c0.012-0.012,0.045-0.054,0.099-0.126c0.054-0.072,0.123-0.129,0.207-0.171
						c0.083-0.042,0.18-0.062,0.288-0.062h0.882c0.108,0,0.195,0.039,0.261,0.116c0.066,0.078,0.099,0.172,0.099,0.279
						c0,0.061-0.03,0.139-0.09,0.234l-2.628,3.672c0.312-0.072,0.66-0.108,1.044-0.108c0.875,0,1.647,0.195,2.313,0.585
						c0.666,0.391,1.182,0.906,1.548,1.548c0.366,0.643,0.549,1.348,0.549,2.115c0,0.769-0.183,1.485-0.549,2.151
						c-0.366,0.666-0.897,1.197-1.593,1.593c-0.696,0.396-1.519,0.594-2.466,0.594C338.315,429.088,337.484,428.894,336.782,428.503
						z M340.715,427.271c0.444-0.216,0.798-0.537,1.062-0.963s0.396-0.939,0.396-1.539c0-0.588-0.135-1.096-0.405-1.521
						s-0.627-0.75-1.071-0.972c-0.444-0.222-0.924-0.333-1.44-0.333s-0.996,0.111-1.44,0.333s-0.798,0.546-1.062,0.972
						s-0.396,0.934-0.396,1.521c0,0.6,0.132,1.113,0.396,1.539s0.618,0.747,1.062,0.963s0.924,0.323,1.44,0.323
						C339.785,427.594,340.271,427.486,340.715,427.271z"/>
					<path fill="#3A54F5" d="M345.638,419.44c-0.054-0.072-0.069-0.162-0.045-0.271l0.396-2.52c0.048-0.348,0.216-0.522,0.504-0.522
						h1.152c0.083,0,0.153,0.03,0.207,0.09c0.054,0.061,0.081,0.133,0.081,0.217c0,0.12-0.018,0.216-0.054,0.288l-0.936,2.43
						c-0.06,0.132-0.126,0.231-0.198,0.297c-0.072,0.066-0.18,0.099-0.324,0.099h-0.558
						C345.767,419.548,345.692,419.512,345.638,419.44z M348.464,419.44c-0.054-0.072-0.069-0.162-0.045-0.271l0.396-2.52
						c0.048-0.348,0.216-0.522,0.504-0.522h1.152c0.084,0,0.153,0.03,0.207,0.09c0.054,0.061,0.081,0.133,0.081,0.217
						c0,0.12-0.018,0.216-0.054,0.288l-0.936,2.43c-0.061,0.132-0.126,0.231-0.198,0.297c-0.072,0.066-0.18,0.099-0.324,0.099
						h-0.558C348.593,419.548,348.518,419.512,348.464,419.44z"/>
					<path fill="#3A54F5" d="M301.583,448.391c-0.072-0.078-0.108-0.177-0.108-0.297v-10.152l-3.024,2.322
						c-0.084,0.072-0.174,0.108-0.27,0.108c-0.108,0-0.21-0.061-0.306-0.181l-0.432-0.558c-0.06-0.084-0.09-0.168-0.09-0.252
						c0-0.132,0.06-0.24,0.18-0.324l3.906-3.023c0.132-0.084,0.288-0.126,0.468-0.126h0.846c0.12,0,0.219,0.039,0.297,0.116
						c0.078,0.078,0.117,0.178,0.117,0.298v11.771c0,0.12-0.039,0.219-0.117,0.297s-0.177,0.117-0.297,0.117h-0.882
						C301.751,448.508,301.655,448.469,301.583,448.391z"/>
					<path fill="#3A54F5" d="M305.894,448.391c-0.078-0.078-0.117-0.177-0.117-0.297v-1.242c0-0.119,0.039-0.222,0.117-0.306
						s0.177-0.126,0.297-0.126h1.242c0.12,0,0.219,0.042,0.297,0.126s0.117,0.187,0.117,0.306v1.242c0,0.12-0.039,0.219-0.117,0.297
						s-0.177,0.117-0.297,0.117h-1.242C306.071,448.508,305.972,448.469,305.894,448.391z"/>
					<path fill="#3A54F5" d="M311.871,448.103c-0.702-0.39-1.236-0.915-1.602-1.575c-0.366-0.659-0.549-1.379-0.549-2.159
						c0-1.032,0.414-2.136,1.242-3.312l3.438-4.788c0.012-0.012,0.045-0.054,0.099-0.126c0.054-0.072,0.123-0.129,0.207-0.171
						c0.083-0.042,0.18-0.062,0.288-0.062h0.882c0.108,0,0.195,0.039,0.261,0.116c0.066,0.078,0.099,0.172,0.099,0.279
						c0,0.061-0.03,0.139-0.09,0.234l-2.628,3.672c0.312-0.072,0.66-0.108,1.044-0.108c0.875,0,1.647,0.195,2.313,0.585
						c0.666,0.391,1.182,0.906,1.548,1.548c0.366,0.643,0.549,1.348,0.549,2.115c0,0.769-0.183,1.485-0.549,2.151
						c-0.366,0.666-0.897,1.197-1.593,1.593c-0.696,0.396-1.519,0.594-2.466,0.594C313.403,448.688,312.572,448.493,311.871,448.103
						z M315.803,446.87c0.444-0.216,0.798-0.537,1.062-0.963s0.396-0.939,0.396-1.539c0-0.588-0.135-1.096-0.405-1.521
						s-0.627-0.75-1.071-0.972c-0.444-0.222-0.924-0.333-1.44-0.333s-0.996,0.111-1.44,0.333s-0.798,0.546-1.062,0.972
						s-0.396,0.934-0.396,1.521c0,0.6,0.132,1.113,0.396,1.539s0.618,0.747,1.062,0.963s0.924,0.323,1.44,0.323
						C314.874,447.193,315.359,447.086,315.803,446.87z"/>
					<path fill="#3A54F5" d="M322.904,448.229c-0.714-0.306-1.269-0.747-1.665-1.322c-0.396-0.576-0.594-1.248-0.594-2.017
						c0-0.708,0.177-1.329,0.531-1.863c0.354-0.533,0.831-0.944,1.431-1.232c-0.48-0.276-0.853-0.639-1.116-1.089
						c-0.264-0.45-0.396-0.981-0.396-1.594c0-1.044,0.39-1.868,1.17-2.475c0.78-0.605,1.806-0.909,3.078-0.909
						s2.295,0.301,3.069,0.9s1.161,1.428,1.161,2.483c0,0.601-0.132,1.125-0.396,1.575c-0.264,0.45-0.63,0.819-1.098,1.107
						c0.6,0.288,1.077,0.699,1.431,1.232c0.354,0.534,0.531,1.161,0.531,1.882c0,0.768-0.198,1.437-0.594,2.007
						s-0.951,1.008-1.665,1.313c-0.714,0.307-1.527,0.459-2.439,0.459C324.431,448.688,323.618,448.535,322.904,448.229z
						 M327.476,446.636c0.57-0.432,0.855-1.008,0.855-1.728c0-0.721-0.285-1.297-0.855-1.729s-1.281-0.647-2.133-0.647
						c-0.864,0-1.581,0.216-2.151,0.647c-0.57,0.432-0.855,1.008-0.855,1.729c0,0.72,0.285,1.296,0.855,1.728
						c0.57,0.432,1.287,0.648,2.151,0.648C326.195,447.284,326.906,447.067,327.476,446.636z M327.197,440.588
						c0.504-0.36,0.756-0.84,0.756-1.44c0-0.611-0.249-1.101-0.747-1.467s-1.119-0.549-1.863-0.549c-0.756,0-1.38,0.183-1.872,0.549
						c-0.492,0.366-0.738,0.855-0.738,1.467c0,0.612,0.246,1.102,0.738,1.468c0.492,0.366,1.116,0.549,1.872,0.549
						C326.075,441.14,326.693,440.948,327.197,440.588z"/>
					<path fill="#3A54F5" d="M336.943,448.391c-0.078-0.078-0.117-0.177-0.117-0.297v-8.532c0-0.119,0.039-0.219,0.117-0.297
						s0.177-0.117,0.297-0.117h0.756c0.12,0,0.216,0.039,0.288,0.117c0.072,0.078,0.108,0.178,0.108,0.297v0.612
						c0.648-0.804,1.524-1.206,2.628-1.206c1.32,0,2.256,0.552,2.808,1.656c0.288-0.504,0.699-0.906,1.233-1.206
						c0.534-0.3,1.131-0.45,1.791-0.45c0.984,0,1.788,0.336,2.412,1.008c0.624,0.673,0.936,1.645,0.936,2.916v5.202
						c0,0.12-0.039,0.219-0.117,0.297s-0.177,0.117-0.297,0.117h-0.774c-0.12,0-0.219-0.039-0.297-0.117s-0.117-0.177-0.117-0.297
						v-5.04c0-0.96-0.198-1.646-0.594-2.061s-0.918-0.621-1.566-0.621c-0.576,0-1.071,0.213-1.485,0.639s-0.621,1.107-0.621,2.043
						v5.04c0,0.12-0.039,0.219-0.117,0.297s-0.177,0.117-0.297,0.117h-0.792c-0.12,0-0.219-0.039-0.297-0.117
						c-0.078-0.078-0.117-0.177-0.117-0.297v-5.04c0-0.947-0.207-1.632-0.621-2.052c-0.414-0.42-0.927-0.63-1.539-0.63
						c-0.576,0-1.071,0.21-1.485,0.63s-0.621,1.098-0.621,2.034v5.058c0,0.12-0.04,0.219-0.117,0.297
						c-0.078,0.078-0.177,0.117-0.297,0.117h-0.792C337.121,448.508,337.021,448.469,336.943,448.391z"/>
				</g>
			</g>
		</g>
	</g>
	<g display="inline">
		<g>
			<g id="POLYLINE_1089_">
				
					<line fill="none" stroke="#3A54F5" stroke-width="2" stroke-linecap="round" stroke-linejoin="round" stroke-miterlimit="10" x1="526.621" y1="638.798" x2="502" y2="638.798"/>
			</g>
			<g id="LINE_74_">
				
					<line fill="none" stroke="#3A54F5" stroke-width="2" stroke-linecap="round" stroke-linejoin="round" stroke-miterlimit="10" x1="447" y1="638.798" x2="425.515" y2="638.798"/>
			</g>
			<g id="POLYLINE_1088_">
				
					<polyline fill="none" stroke="#3A54F5" stroke-width="2" stroke-linecap="round" stroke-linejoin="round" stroke-miterlimit="10" points="
					432.144,645.426 425.515,638.798 432.144,632.17 				"/>
			</g>
			<g id="POLYLINE_1087_">
				
					<polyline fill="none" stroke="#3A54F5" stroke-width="2" stroke-linecap="round" stroke-linejoin="round" stroke-miterlimit="10" points="
					519.994,632.17 526.621,638.798 519.994,645.426 				"/>
			</g>
			<g id="MTEXT_90_">
				<g>
					<g>
						<g>
							<path fill="#3A54F5" d="M466.761,626.883c-0.608-0.271-1.07-0.626-1.384-1.063s-0.482-0.891-0.504-1.36
								c0-0.096,0.032-0.174,0.096-0.232s0.144-0.088,0.24-0.088h0.72c0.117,0,0.213,0.024,0.288,0.072
								c0.074,0.048,0.133,0.142,0.176,0.28c0.139,0.544,0.44,0.928,0.904,1.151c0.464,0.225,1.011,0.336,1.64,0.336
								c0.768,0,1.378-0.184,1.832-0.552c0.453-0.368,0.68-0.894,0.68-1.576c0-1.301-0.795-1.952-2.384-1.952h-1.504
								c-0.107,0-0.195-0.034-0.264-0.104s-0.104-0.157-0.104-0.264v-0.416c0-0.16,0.059-0.299,0.176-0.416l3.12-3.456h-4.736
								c-0.106,0-0.195-0.032-0.264-0.097c-0.07-0.063-0.104-0.148-0.104-0.256v-0.576c0-0.117,0.034-0.21,0.104-0.279
								c0.069-0.069,0.157-0.104,0.264-0.104h6.336c0.118,0,0.21,0.035,0.28,0.104c0.069,0.069,0.104,0.162,0.104,0.279v0.528
								c0,0.117-0.054,0.24-0.16,0.368l-3.12,3.504h0.256c1.088,0.032,1.949,0.314,2.584,0.848c0.634,0.534,0.952,1.312,0.952,2.336
								c0,0.704-0.173,1.31-0.52,1.816s-0.829,0.896-1.448,1.168c-0.619,0.272-1.317,0.408-2.096,0.408
								C468.089,627.291,467.369,627.155,466.761,626.883z"/>
							<path fill="#3A54F5" d="M475.793,626.083c-0.635-0.806-0.974-1.858-1.016-3.16l-0.016-1.376l0.016-1.424
								c0.032-1.291,0.371-2.339,1.016-3.145c0.645-0.805,1.65-1.208,3.016-1.208c1.376,0,2.386,0.403,3.032,1.208
								c0.646,0.806,0.984,1.854,1.016,3.145c0.01,0.299,0.016,0.773,0.016,1.424c0,0.63-0.006,1.088-0.016,1.376
								c-0.043,1.302-0.381,2.354-1.016,3.16s-1.646,1.208-3.032,1.208C477.433,627.291,476.427,626.889,475.793,626.083z
								 M480.665,625.146c0.416-0.544,0.634-1.312,0.656-2.304c0.011-0.31,0.016-0.752,0.016-1.328c0-0.586-0.005-1.023-0.016-1.312
								c-0.021-0.981-0.243-1.747-0.664-2.296c-0.421-0.55-1.037-0.824-1.848-0.824c-0.811,0-1.424,0.274-1.84,0.824
								c-0.416,0.549-0.635,1.314-0.656,2.296l-0.016,1.312l0.016,1.328c0.021,0.992,0.24,1.76,0.656,2.304s1.029,0.816,1.84,0.816
								C479.63,625.963,480.249,625.69,480.665,625.146z"/>
							<path fill="#3A54F5" d="M484.849,618.715c-0.048-0.064-0.061-0.144-0.04-0.24l0.352-2.24
								c0.042-0.309,0.192-0.464,0.448-0.464h1.024c0.075,0,0.136,0.027,0.184,0.08c0.048,0.054,0.072,0.118,0.072,0.192
								c0,0.106-0.016,0.191-0.048,0.256l-0.832,2.16c-0.053,0.117-0.112,0.205-0.176,0.264s-0.16,0.088-0.288,0.088h-0.496
								C484.963,618.811,484.897,618.779,484.849,618.715z M487.361,618.715c-0.048-0.064-0.062-0.144-0.04-0.24l0.352-2.24
								c0.042-0.309,0.192-0.464,0.448-0.464h1.024c0.074,0,0.136,0.027,0.184,0.08c0.048,0.054,0.072,0.118,0.072,0.192
								c0,0.106-0.016,0.191-0.048,0.256l-0.832,2.16c-0.054,0.117-0.112,0.205-0.176,0.264s-0.16,0.088-0.288,0.088h-0.496
								C487.476,618.811,487.409,618.779,487.361,618.715z"/>
							<path fill="#3A54F5" d="M455.201,644.228c-0.059-0.069-0.088-0.152-0.088-0.248l0.032-0.145l4-9.36h-5.28
								c-0.107,0-0.195-0.034-0.264-0.104s-0.104-0.157-0.104-0.264v-0.593c0-0.117,0.032-0.21,0.096-0.279s0.154-0.104,0.272-0.104
								h6.528c0.117,0,0.208,0.035,0.272,0.104s0.096,0.162,0.096,0.279v0.544c0,0.192-0.043,0.4-0.128,0.624l-3.952,9.248
								c-0.053,0.118-0.112,0.214-0.176,0.288c-0.064,0.075-0.155,0.112-0.272,0.112h-0.8
								C455.337,644.331,455.26,644.297,455.201,644.228z"/>
							<path fill="#3A54F5" d="M463.393,643.971c-0.624-0.346-1.099-0.812-1.424-1.399c-0.326-0.587-0.488-1.227-0.488-1.92
								c0-0.918,0.368-1.898,1.104-2.944l3.056-4.256c0.011-0.011,0.04-0.048,0.088-0.112c0.048-0.063,0.109-0.114,0.184-0.151
								c0.075-0.038,0.16-0.057,0.256-0.057h0.784c0.096,0,0.173,0.035,0.232,0.104s0.088,0.151,0.088,0.248
								c0,0.053-0.027,0.122-0.08,0.208l-2.336,3.264c0.277-0.064,0.586-0.096,0.928-0.096c0.779,0,1.464,0.173,2.056,0.52
								c0.592,0.347,1.05,0.806,1.376,1.376c0.325,0.571,0.488,1.197,0.488,1.88s-0.163,1.32-0.488,1.912
								c-0.326,0.592-0.797,1.064-1.416,1.416c-0.619,0.353-1.35,0.528-2.192,0.528
								C464.756,644.491,464.017,644.317,463.393,643.971z M466.889,642.875c0.395-0.192,0.709-0.478,0.944-0.855
								c0.234-0.379,0.352-0.835,0.352-1.368c0-0.522-0.12-0.974-0.36-1.353c-0.24-0.378-0.558-0.666-0.952-0.864
								c-0.395-0.196-0.821-0.296-1.28-0.296c-0.459,0-0.885,0.1-1.28,0.296c-0.395,0.198-0.709,0.486-0.944,0.864
								c-0.235,0.379-0.352,0.83-0.352,1.353c0,0.533,0.117,0.989,0.352,1.368c0.235,0.378,0.549,0.663,0.944,0.855
								c0.395,0.192,0.821,0.288,1.28,0.288C466.062,643.163,466.495,643.067,466.889,642.875z"/>
							<path fill="#3A54F5" d="M476.089,643.523c-0.64-0.646-0.976-1.55-1.008-2.712l-0.016-0.641l0.016-0.64
								c0.032-1.163,0.368-2.066,1.008-2.712s1.531-0.969,2.672-0.969c0.768,0,1.416,0.137,1.944,0.408
								c0.528,0.272,0.922,0.611,1.184,1.017c0.262,0.405,0.403,0.811,0.424,1.216c0.01,0.096-0.024,0.182-0.104,0.256
								c-0.08,0.075-0.168,0.112-0.264,0.112h-0.704c-0.106,0-0.187-0.024-0.24-0.072c-0.054-0.048-0.107-0.136-0.16-0.264
								c-0.192-0.522-0.456-0.894-0.792-1.112s-0.76-0.328-1.272-0.328c-0.672,0-1.206,0.208-1.6,0.624s-0.608,1.051-0.64,1.904
								l-0.016,0.56l0.016,0.561c0.032,0.854,0.245,1.487,0.64,1.903s0.928,0.624,1.6,0.624c0.522,0,0.949-0.109,1.28-0.328
								c0.33-0.218,0.592-0.589,0.784-1.111c0.053-0.128,0.106-0.216,0.16-0.265c0.053-0.048,0.133-0.071,0.24-0.071h0.704
								c0.096,0,0.184,0.037,0.264,0.111c0.08,0.075,0.114,0.16,0.104,0.256c-0.021,0.396-0.163,0.795-0.424,1.2
								c-0.261,0.406-0.656,0.747-1.184,1.024c-0.528,0.277-1.176,0.416-1.944,0.416
								C477.62,644.491,476.729,644.169,476.089,643.523z"/>
							<path fill="#3A54F5" d="M484.337,644.228c-0.07-0.069-0.104-0.158-0.104-0.265v-7.584c0-0.106,0.034-0.194,0.104-0.264
								c0.069-0.069,0.157-0.104,0.264-0.104h0.672c0.106,0,0.192,0.035,0.256,0.104s0.096,0.157,0.096,0.264v0.544
								c0.576-0.714,1.354-1.072,2.336-1.072c1.173,0,2.005,0.491,2.496,1.473c0.256-0.448,0.622-0.806,1.096-1.072
								s1.005-0.4,1.592-0.4c0.875,0,1.589,0.299,2.144,0.896s0.832,1.462,0.832,2.592v4.624c0,0.106-0.035,0.195-0.104,0.265
								s-0.157,0.104-0.264,0.104h-0.688c-0.107,0-0.195-0.034-0.264-0.104s-0.104-0.158-0.104-0.265v-4.479
								c0-0.854-0.176-1.464-0.528-1.832c-0.352-0.368-0.816-0.553-1.392-0.553c-0.512,0-0.952,0.189-1.32,0.568
								c-0.368,0.379-0.552,0.984-0.552,1.816v4.479c0,0.106-0.035,0.195-0.104,0.265s-0.158,0.104-0.264,0.104h-0.704
								c-0.106,0-0.194-0.034-0.264-0.104c-0.07-0.069-0.104-0.158-0.104-0.265v-4.479c0-0.843-0.184-1.451-0.552-1.824
								c-0.368-0.373-0.824-0.561-1.368-0.561c-0.512,0-0.952,0.188-1.32,0.561c-0.368,0.373-0.552,0.976-0.552,1.808v4.496
								c0,0.106-0.035,0.195-0.104,0.265c-0.07,0.069-0.158,0.104-0.264,0.104h-0.704
								C484.494,644.331,484.406,644.297,484.337,644.228z"/>
						</g>
					</g>
				</g>
			</g>
		</g>
		<g>
			<g>
				<path fill="none" stroke="#3A54F5" stroke-width="2.25" stroke-linecap="round" stroke-linejoin="round" d="M425,586
					c0,0.319,0,1.013,0,1.997"/>
				
					<path fill="none" stroke="#3A54F5" stroke-width="2.25" stroke-linecap="round" stroke-linejoin="round" stroke-dasharray="3.8889,5.8333" d="
					M425,593.832c0,7.888,0,19.671,0,26.258"/>
				<path fill="none" stroke="#3A54F5" stroke-width="2.25" stroke-linecap="round" stroke-linejoin="round" d="M425,623.002
					c0,1.265,0,1.998,0,1.998"/>
			</g>
		</g>
		<g>
			<g>
				<path fill="none" stroke="#3A54F5" stroke-width="2.25" stroke-linecap="round" stroke-linejoin="round" d="M527,586
					c0,0.319,0,1.013,0,1.997"/>
				
					<path fill="none" stroke="#3A54F5" stroke-width="2.25" stroke-linecap="round" stroke-linejoin="round" stroke-dasharray="3.8889,5.8333" d="
					M527,593.832c0,7.888,0,19.671,0,26.258"/>
				<path fill="none" stroke="#3A54F5" stroke-width="2.25" stroke-linecap="round" stroke-linejoin="round" d="M527,623.002
					c0,1.265,0,1.998,0,1.998"/>
			</g>
		</g>
	</g>
	<g display="inline">
		<g id="POLYLINE_1086_">
			
				<line fill="none" stroke="#3A54F5" stroke-width="2" stroke-linecap="round" stroke-linejoin="round" stroke-miterlimit="10" x1="118.43" y1="545.405" x2="118.43" y2="338.533"/>
		</g>
		<g id="LINE_73_">
			
				<line fill="none" stroke="#3A54F5" stroke-width="2" stroke-linecap="round" stroke-linejoin="round" stroke-miterlimit="10" x1="118.43" y1="287.567" x2="118.43" y2="98.779"/>
		</g>
		<g id="POLYLINE_1085_">
			
				<polyline fill="none" stroke="#3A54F5" stroke-width="2" stroke-linecap="round" stroke-linejoin="round" stroke-miterlimit="10" points="
				111.802,105.408 118.43,98.779 125.058,105.408 			"/>
		</g>
		<g id="POLYLINE_1084_">
			
				<polyline fill="none" stroke="#3A54F5" stroke-width="2" stroke-linecap="round" stroke-linejoin="round" stroke-miterlimit="10" points="
				125.058,538.778 118.43,545.405 111.802,538.778 			"/>
		</g>
		<g id="MTEXT_88_">
			<g>
				<g>
					<g>
						<path fill="#3A54F5" d="M111.725,309.166c-0.072-0.078-0.108-0.177-0.108-0.297v-10.152l-3.024,2.322
							c-0.084,0.072-0.174,0.108-0.27,0.108c-0.108,0-0.21-0.061-0.306-0.181l-0.432-0.558c-0.06-0.084-0.09-0.168-0.09-0.252
							c0-0.132,0.06-0.24,0.18-0.324l3.906-3.023c0.132-0.084,0.288-0.126,0.468-0.126h0.846c0.12,0,0.219,0.039,0.297,0.116
							c0.078,0.078,0.117,0.178,0.117,0.298v11.771c0,0.12-0.039,0.219-0.117,0.297s-0.177,0.117-0.297,0.117h-0.882
							C111.893,309.283,111.796,309.244,111.725,309.166z"/>
						<path fill="#3A54F5" d="M119.375,309.166c-0.072-0.078-0.108-0.177-0.108-0.297v-10.152l-3.024,2.322
							c-0.084,0.072-0.174,0.108-0.27,0.108c-0.108,0-0.21-0.061-0.306-0.181l-0.432-0.558c-0.06-0.084-0.09-0.168-0.09-0.252
							c0-0.132,0.06-0.24,0.18-0.324l3.906-3.023c0.132-0.084,0.288-0.126,0.468-0.126h0.846c0.12,0,0.219,0.039,0.297,0.116
							c0.078,0.078,0.117,0.178,0.117,0.298v11.771c0,0.12-0.039,0.219-0.117,0.297s-0.177,0.117-0.297,0.117h-0.882
							C119.542,309.283,119.446,309.244,119.375,309.166z"/>
						<path fill="#3A54F5" d="M123.442,299.824c-0.048-0.065-0.066-0.159-0.054-0.279l0.396-2.52
							c0.048-0.348,0.216-0.522,0.504-0.522h1.152c0.083,0,0.153,0.03,0.207,0.09c0.054,0.061,0.081,0.133,0.081,0.217
							c0,0.12-0.018,0.216-0.054,0.288l-0.936,2.43c-0.06,0.132-0.126,0.231-0.198,0.297c-0.072,0.066-0.18,0.099-0.324,0.099
							h-0.558C123.562,299.923,123.49,299.891,123.442,299.824z"/>
						<path fill="#3A54F5" d="M72.232,328.604c-0.684-0.306-1.203-0.704-1.557-1.196s-0.543-1.002-0.567-1.53
							c0-0.108,0.036-0.195,0.108-0.261c0.072-0.066,0.162-0.1,0.27-0.1h0.81c0.132,0,0.24,0.027,0.324,0.081
							c0.083,0.054,0.15,0.159,0.198,0.315c0.156,0.611,0.495,1.044,1.017,1.296s1.137,0.378,1.845,0.378
							c0.864,0,1.551-0.207,2.061-0.621c0.51-0.414,0.765-1.005,0.765-1.773c0-1.464-0.894-2.195-2.682-2.195h-1.692
							c-0.12,0-0.219-0.039-0.297-0.117s-0.117-0.177-0.117-0.297v-0.468c0-0.181,0.066-0.336,0.198-0.469l3.51-3.888h-5.328
							c-0.12,0-0.219-0.036-0.297-0.108c-0.078-0.071-0.117-0.168-0.117-0.287v-0.648c0-0.132,0.039-0.237,0.117-0.315
							c0.078-0.077,0.177-0.116,0.297-0.116h7.128c0.132,0,0.237,0.039,0.315,0.116c0.078,0.078,0.117,0.184,0.117,0.315v0.594
							c0,0.133-0.061,0.271-0.18,0.414l-3.51,3.942h0.288c1.224,0.036,2.193,0.354,2.907,0.954c0.714,0.6,1.071,1.476,1.071,2.628
							c0,0.792-0.195,1.473-0.585,2.043c-0.39,0.57-0.933,1.008-1.629,1.313c-0.696,0.307-1.482,0.459-2.358,0.459
							C73.727,329.062,72.917,328.91,72.232,328.604z"/>
						<path fill="#3A54F5" d="M81.439,328.766c-0.078-0.078-0.117-0.177-0.117-0.297v-1.242c0-0.119,0.039-0.222,0.117-0.306
							s0.177-0.126,0.297-0.126h1.242c0.12,0,0.219,0.042,0.297,0.126s0.117,0.187,0.117,0.306v1.242
							c0,0.12-0.039,0.219-0.117,0.297s-0.177,0.117-0.297,0.117h-1.242C81.616,328.883,81.517,328.844,81.439,328.766z"/>
						<path fill="#3A54F5" d="M87.496,328.604c-0.684-0.306-1.203-0.704-1.557-1.196s-0.543-1.002-0.567-1.53
							c0-0.108,0.036-0.195,0.108-0.261c0.072-0.066,0.162-0.1,0.27-0.1h0.81c0.132,0,0.24,0.027,0.324,0.081
							c0.083,0.054,0.15,0.159,0.198,0.315c0.156,0.611,0.495,1.044,1.017,1.296s1.137,0.378,1.845,0.378
							c0.864,0,1.551-0.207,2.061-0.621c0.51-0.414,0.765-1.005,0.765-1.773c0-1.464-0.894-2.195-2.682-2.195h-1.692
							c-0.12,0-0.219-0.039-0.297-0.117s-0.117-0.177-0.117-0.297v-0.468c0-0.181,0.066-0.336,0.198-0.469l3.51-3.888h-5.328
							c-0.12,0-0.219-0.036-0.297-0.108c-0.078-0.071-0.117-0.168-0.117-0.287v-0.648c0-0.132,0.039-0.237,0.117-0.315
							c0.078-0.077,0.177-0.116,0.297-0.116h7.128c0.132,0,0.237,0.039,0.315,0.116c0.078,0.078,0.117,0.184,0.117,0.315v0.594
							c0,0.133-0.061,0.271-0.18,0.414l-3.51,3.942h0.288c1.224,0.036,2.193,0.354,2.907,0.954c0.714,0.6,1.071,1.476,1.071,2.628
							c0,0.792-0.195,1.473-0.585,2.043c-0.39,0.57-0.933,1.008-1.629,1.313c-0.696,0.307-1.482,0.459-2.358,0.459
							C88.99,329.062,88.18,328.91,87.496,328.604z"/>
						<path fill="#3A54F5" d="M98.26,328.577c-0.66-0.324-1.164-0.747-1.512-1.27c-0.349-0.521-0.534-1.083-0.558-1.683v-0.036
							c0-0.096,0.036-0.174,0.108-0.234c0.072-0.06,0.156-0.09,0.252-0.09h0.882c0.252,0,0.414,0.133,0.486,0.396
							c0.18,0.647,0.513,1.131,0.999,1.448c0.486,0.318,1.047,0.478,1.683,0.478c0.816,0,1.494-0.249,2.034-0.747
							s0.81-1.185,0.81-2.061c0-0.805-0.27-1.443-0.81-1.918c-0.54-0.474-1.218-0.711-2.034-0.711c-0.432,0-0.78,0.055-1.044,0.162
							c-0.264,0.108-0.534,0.265-0.81,0.469c-0.156,0.12-0.285,0.207-0.387,0.261c-0.102,0.054-0.213,0.081-0.333,0.081h-0.864
							c-0.108,0-0.204-0.039-0.288-0.117c-0.084-0.078-0.12-0.171-0.108-0.279l0.558-5.994c0.036-0.3,0.186-0.449,0.45-0.449h6.228
							c0.132,0,0.234,0.035,0.306,0.107c0.072,0.072,0.108,0.174,0.108,0.307v0.666c0,0.119-0.039,0.216-0.117,0.287
							c-0.078,0.072-0.177,0.108-0.297,0.108h-5.184l-0.324,3.618c0.576-0.408,1.35-0.612,2.322-0.612
							c0.804,0,1.536,0.159,2.196,0.478c0.66,0.317,1.185,0.782,1.575,1.395c0.39,0.612,0.585,1.338,0.585,2.178
							c0,0.889-0.195,1.653-0.585,2.295c-0.39,0.643-0.93,1.129-1.62,1.458c-0.69,0.33-1.479,0.495-2.367,0.495
							C99.7,329.062,98.92,328.9,98.26,328.577z"/>
						<path fill="#3A54F5" d="M111.913,328.766c-0.078-0.078-0.117-0.177-0.117-0.297v-8.532c0-0.119,0.039-0.219,0.117-0.297
							s0.177-0.117,0.297-0.117h0.756c0.12,0,0.216,0.039,0.288,0.117c0.072,0.078,0.108,0.178,0.108,0.297v0.612
							c0.648-0.804,1.524-1.206,2.628-1.206c1.32,0,2.256,0.552,2.808,1.656c0.288-0.504,0.699-0.906,1.233-1.206
							c0.534-0.3,1.131-0.45,1.791-0.45c0.984,0,1.788,0.336,2.412,1.008c0.624,0.673,0.936,1.645,0.936,2.916v5.202
							c0,0.12-0.039,0.219-0.117,0.297s-0.177,0.117-0.297,0.117h-0.774c-0.12,0-0.219-0.039-0.297-0.117s-0.117-0.177-0.117-0.297
							v-5.04c0-0.96-0.198-1.646-0.594-2.061s-0.918-0.621-1.566-0.621c-0.576,0-1.071,0.213-1.485,0.639s-0.621,1.107-0.621,2.043
							v5.04c0,0.12-0.039,0.219-0.117,0.297s-0.177,0.117-0.297,0.117h-0.792c-0.12,0-0.219-0.039-0.297-0.117
							c-0.078-0.078-0.117-0.177-0.117-0.297v-5.04c0-0.947-0.207-1.632-0.621-2.052c-0.414-0.42-0.927-0.63-1.539-0.63
							c-0.576,0-1.071,0.21-1.485,0.63s-0.621,1.098-0.621,2.034v5.058c0,0.12-0.04,0.219-0.117,0.297
							c-0.078,0.078-0.177,0.117-0.297,0.117h-0.792C112.09,328.883,111.991,328.844,111.913,328.766z"/>
					</g>
				</g>
			</g>
		</g>
	</g>
	<g display="inline">
		<g id="POLYLINE_1083_">
			
				<line fill="none" stroke="#3A54F5" stroke-width="2" stroke-linecap="round" stroke-linejoin="round" stroke-miterlimit="10" x1="586.591" y1="78.244" x2="418" y2="78.244"/>
		</g>
		<g id="LINE_72_">
			
				<line fill="none" stroke="#3A54F5" stroke-width="2" stroke-linecap="round" stroke-linejoin="round" stroke-miterlimit="10" x1="315.048" y1="78.244" x2="139.987" y2="78.244"/>
		</g>
		<g id="POLYLINE_1082_">
			
				<polyline fill="none" stroke="#3A54F5" stroke-width="2" stroke-linecap="round" stroke-linejoin="round" stroke-miterlimit="10" points="
				146.616,84.871 139.987,78.244 146.616,71.615 			"/>
		</g>
		<g id="POLYLINE_1081_">
			
				<polyline fill="none" stroke="#3A54F5" stroke-width="2" stroke-linecap="round" stroke-linejoin="round" stroke-miterlimit="10" points="
				579.964,71.615 586.591,78.244 579.964,84.871 			"/>
		</g>
		<g id="MTEXT_87_">
			<g>
				<g>
					<path fill="#3A54F5" d="M325.641,84.455c-0.072-0.078-0.108-0.177-0.108-0.297V74.006l-3.024,2.322
						c-0.084,0.072-0.174,0.108-0.27,0.108c-0.108,0-0.21-0.061-0.306-0.181l-0.432-0.558c-0.06-0.084-0.09-0.168-0.09-0.252
						c0-0.132,0.06-0.24,0.18-0.324l3.906-3.023c0.132-0.084,0.288-0.126,0.468-0.126h0.846c0.12,0,0.219,0.039,0.297,0.116
						c0.078,0.078,0.117,0.178,0.117,0.298v11.771c0,0.12-0.039,0.219-0.117,0.297s-0.177,0.117-0.297,0.117h-0.882
						C325.809,84.572,325.713,84.533,325.641,84.455z"/>
					<path fill="#3A54F5" d="M333.291,84.455c-0.072-0.078-0.108-0.177-0.108-0.297V74.006l-3.024,2.322
						c-0.084,0.072-0.174,0.108-0.27,0.108c-0.108,0-0.21-0.061-0.306-0.181l-0.432-0.558c-0.06-0.084-0.09-0.168-0.09-0.252
						c0-0.132,0.06-0.24,0.18-0.324l3.906-3.023c0.132-0.084,0.288-0.126,0.468-0.126h0.846c0.12,0,0.219,0.039,0.297,0.116
						c0.078,0.078,0.117,0.178,0.117,0.298v11.771c0,0.12-0.039,0.219-0.117,0.297s-0.177,0.117-0.297,0.117h-0.882
						C333.459,84.572,333.363,84.533,333.291,84.455z"/>
					<path fill="#3A54F5" d="M337.359,75.113c-0.048-0.065-0.066-0.159-0.054-0.279l0.396-2.52c0.048-0.348,0.216-0.522,0.504-0.522
						h1.152c0.083,0,0.153,0.03,0.207,0.09c0.054,0.061,0.081,0.133,0.081,0.217c0,0.12-0.018,0.216-0.054,0.288l-0.936,2.43
						c-0.06,0.132-0.126,0.231-0.198,0.297c-0.072,0.066-0.18,0.099-0.324,0.099h-0.558
						C337.479,75.212,337.407,75.18,337.359,75.113z"/>
					<path fill="#3A54F5" d="M346.232,88.199c-0.072-0.078-0.108-0.177-0.108-0.297V68.858c0-0.12,0.036-0.219,0.108-0.297
						s0.168-0.117,0.288-0.117h0.666c0.12,0,0.219,0.039,0.297,0.117s0.117,0.177,0.117,0.297v19.044
						c0,0.12-0.039,0.219-0.117,0.297s-0.177,0.117-0.297,0.117h-0.666C346.4,88.316,346.304,88.277,346.232,88.199z"/>
					<path fill="#3A54F5" d="M356.257,84.293c-0.684-0.306-1.203-0.704-1.557-1.196s-0.543-1.002-0.567-1.53
						c0-0.108,0.036-0.195,0.108-0.261c0.072-0.066,0.162-0.1,0.27-0.1h0.81c0.132,0,0.24,0.027,0.324,0.081
						c0.083,0.054,0.15,0.159,0.198,0.315c0.156,0.611,0.495,1.044,1.017,1.296s1.137,0.378,1.845,0.378
						c0.864,0,1.551-0.207,2.061-0.621c0.51-0.414,0.765-1.005,0.765-1.773c0-1.464-0.894-2.195-2.682-2.195h-1.692
						c-0.12,0-0.219-0.039-0.297-0.117s-0.117-0.177-0.117-0.297v-0.468c0-0.181,0.066-0.336,0.198-0.469l3.51-3.888h-5.328
						c-0.12,0-0.219-0.036-0.297-0.108c-0.078-0.071-0.117-0.168-0.117-0.287v-0.648c0-0.132,0.039-0.237,0.117-0.315
						c0.078-0.077,0.177-0.116,0.297-0.116h7.128c0.132,0,0.237,0.039,0.315,0.116c0.078,0.078,0.117,0.184,0.117,0.315v0.594
						c0,0.133-0.061,0.271-0.18,0.414l-3.51,3.942h0.288c1.224,0.036,2.193,0.354,2.907,0.954c0.714,0.6,1.071,1.476,1.071,2.628
						c0,0.792-0.195,1.473-0.585,2.043c-0.39,0.57-0.933,1.008-1.629,1.313c-0.696,0.307-1.482,0.459-2.358,0.459
						C357.751,84.752,356.941,84.6,356.257,84.293z"/>
					<path fill="#3A54F5" d="M365.464,84.455c-0.078-0.078-0.117-0.177-0.117-0.297v-1.242c0-0.119,0.039-0.222,0.117-0.306
						s0.177-0.126,0.297-0.126h1.242c0.12,0,0.219,0.042,0.297,0.126s0.117,0.187,0.117,0.306v1.242c0,0.12-0.039,0.219-0.117,0.297
						s-0.177,0.117-0.297,0.117h-1.242C365.642,84.572,365.542,84.533,365.464,84.455z"/>
					<path fill="#3A54F5" d="M371.521,84.293c-0.684-0.306-1.203-0.704-1.557-1.196s-0.543-1.002-0.567-1.53
						c0-0.108,0.036-0.195,0.108-0.261c0.072-0.066,0.162-0.1,0.27-0.1h0.81c0.132,0,0.24,0.027,0.324,0.081
						c0.083,0.054,0.15,0.159,0.198,0.315c0.156,0.611,0.495,1.044,1.017,1.296s1.137,0.378,1.845,0.378
						c0.864,0,1.551-0.207,2.061-0.621c0.51-0.414,0.765-1.005,0.765-1.773c0-1.464-0.894-2.195-2.682-2.195h-1.692
						c-0.12,0-0.219-0.039-0.297-0.117s-0.117-0.177-0.117-0.297v-0.468c0-0.181,0.066-0.336,0.198-0.469l3.51-3.888h-5.328
						c-0.12,0-0.219-0.036-0.297-0.108c-0.078-0.071-0.117-0.168-0.117-0.287v-0.648c0-0.132,0.039-0.237,0.117-0.315
						c0.078-0.077,0.177-0.116,0.297-0.116h7.128c0.132,0,0.237,0.039,0.315,0.116c0.078,0.078,0.117,0.184,0.117,0.315v0.594
						c0,0.133-0.061,0.271-0.18,0.414l-3.51,3.942h0.288c1.224,0.036,2.193,0.354,2.907,0.954c0.714,0.6,1.071,1.476,1.071,2.628
						c0,0.792-0.195,1.473-0.585,2.043c-0.39,0.57-0.933,1.008-1.629,1.313c-0.696,0.307-1.482,0.459-2.358,0.459
						C373.016,84.752,372.206,84.6,371.521,84.293z"/>
					<path fill="#3A54F5" d="M382.285,84.267c-0.66-0.324-1.164-0.747-1.512-1.27c-0.349-0.521-0.534-1.083-0.558-1.683v-0.036
						c0-0.096,0.036-0.174,0.108-0.234c0.072-0.06,0.156-0.09,0.252-0.09h0.882c0.252,0,0.414,0.133,0.486,0.396
						c0.18,0.647,0.513,1.131,0.999,1.448c0.486,0.318,1.047,0.478,1.683,0.478c0.816,0,1.494-0.249,2.034-0.747
						s0.81-1.185,0.81-2.061c0-0.805-0.27-1.443-0.81-1.918c-0.54-0.474-1.218-0.711-2.034-0.711c-0.432,0-0.78,0.055-1.044,0.162
						c-0.264,0.108-0.534,0.265-0.81,0.469c-0.156,0.12-0.285,0.207-0.387,0.261c-0.102,0.054-0.213,0.081-0.333,0.081h-0.864
						c-0.108,0-0.204-0.039-0.288-0.117c-0.084-0.078-0.12-0.171-0.108-0.279l0.558-5.994c0.036-0.3,0.186-0.449,0.45-0.449h6.228
						c0.132,0,0.234,0.035,0.306,0.107c0.072,0.072,0.108,0.174,0.108,0.307v0.666c0,0.119-0.039,0.216-0.117,0.287
						c-0.078,0.072-0.177,0.108-0.297,0.108h-5.184l-0.324,3.618c0.576-0.408,1.35-0.612,2.322-0.612
						c0.804,0,1.536,0.159,2.196,0.478c0.66,0.317,1.185,0.782,1.575,1.395c0.39,0.612,0.585,1.338,0.585,2.178
						c0,0.889-0.195,1.653-0.585,2.295c-0.39,0.643-0.93,1.129-1.62,1.458c-0.69,0.33-1.479,0.495-2.367,0.495
						C383.725,84.752,382.945,84.59,382.285,84.267z"/>
					<path fill="#3A54F5" d="M395.938,84.455c-0.078-0.078-0.117-0.177-0.117-0.297v-8.532c0-0.119,0.039-0.219,0.117-0.297
						s0.177-0.117,0.297-0.117h0.756c0.12,0,0.216,0.039,0.288,0.117c0.072,0.078,0.108,0.178,0.108,0.297v0.612
						c0.648-0.804,1.524-1.206,2.628-1.206c1.32,0,2.256,0.552,2.808,1.656c0.288-0.504,0.699-0.906,1.233-1.206
						c0.534-0.3,1.131-0.45,1.791-0.45c0.984,0,1.788,0.336,2.412,1.008c0.624,0.673,0.936,1.645,0.936,2.916v5.202
						c0,0.12-0.039,0.219-0.117,0.297s-0.177,0.117-0.297,0.117h-0.774c-0.12,0-0.219-0.039-0.297-0.117s-0.117-0.177-0.117-0.297
						v-5.04c0-0.96-0.198-1.646-0.594-2.061s-0.918-0.621-1.566-0.621c-0.576,0-1.071,0.213-1.485,0.639s-0.621,1.107-0.621,2.043
						v5.04c0,0.12-0.039,0.219-0.117,0.297s-0.177,0.117-0.297,0.117h-0.792c-0.12,0-0.219-0.039-0.297-0.117
						c-0.078-0.078-0.117-0.177-0.117-0.297v-5.04c0-0.947-0.207-1.632-0.621-2.052c-0.414-0.42-0.927-0.63-1.539-0.63
						c-0.576,0-1.071,0.21-1.485,0.63s-0.621,1.098-0.621,2.034v5.058c0,0.12-0.04,0.219-0.117,0.297
						c-0.078,0.078-0.177,0.117-0.297,0.117h-0.792C396.115,84.572,396.016,84.533,395.938,84.455z"/>
				</g>
			</g>
		</g>
	</g>
</g>
<g id="N-TEXT" display="none">
</g>
<g id="AG-DIAGRAM">
	<g id="POLYLINE_1080_">
		<g>
			<g>
				
					<line fill="none" stroke="#3A54F5" stroke-width="3" stroke-linecap="round" stroke-linejoin="round" x1="221.397" y1="545.91" x2="223.897" y2="545.91"/>
				
					<line fill="none" stroke="#3A54F5" stroke-width="3" stroke-linecap="round" stroke-linejoin="round" stroke-dasharray="4.9332,6.9065" x1="230.804" y1="545.91" x2="357.588" y2="545.91"/>
				
					<line fill="none" stroke="#3A54F5" stroke-width="3" stroke-linecap="round" stroke-linejoin="round" x1="361.041" y1="545.91" x2="363.541" y2="545.91"/>
			</g>
		</g>
	</g>
	<g id="POLYLINE_1079_">
		<g>
			<g>
				
					<line fill="none" stroke="#3A54F5" stroke-width="3" stroke-linecap="round" stroke-linejoin="round" x1="586.91" y1="322.541" x2="586.91" y2="320.041"/>
				
					<line fill="none" stroke="#3A54F5" stroke-width="3" stroke-linecap="round" stroke-linejoin="round" stroke-dasharray="4.9332,6.9065" x1="586.91" y1="313.135" x2="586.91" y2="186.351"/>
				
					<line fill="none" stroke="#3A54F5" stroke-width="3" stroke-linecap="round" stroke-linejoin="round" x1="586.91" y1="182.897" x2="586.91" y2="180.397"/>
			</g>
		</g>
	</g>
</g>
<g id="AG-DASH">
	<g id="POLYLINE_1076_">
		<g>
			<g>
				
					<line fill="none" stroke="#3A54F5" stroke-width="2.25" stroke-linecap="round" stroke-linejoin="round" x1="494.438" y1="180.397" x2="494.438" y2="178.397"/>
				
					<line fill="none" stroke="#3A54F5" stroke-width="2.25" stroke-linecap="round" stroke-linejoin="round" stroke-dasharray="4.1675,6.2513" x1="494.438" y1="172.146" x2="494.438" y2="112.759"/>
				<polyline fill="none" stroke="#3A54F5" stroke-width="2.25" stroke-linecap="round" stroke-linejoin="round" points="
					494.438,109.633 494.438,107.633 492.438,107.633 				"/>
				
					<line fill="none" stroke="#3A54F5" stroke-width="2.25" stroke-linecap="round" stroke-linejoin="round" stroke-dasharray="4.0645,6.0967" x1="486.342" y1="107.633" x2="418.262" y2="107.633"/>
				<polyline fill="none" stroke="#3A54F5" stroke-width="2.25" stroke-linecap="round" stroke-linejoin="round" points="
					415.214,107.633 413.214,107.633 413.214,109.633 				"/>
				
					<line fill="none" stroke="#3A54F5" stroke-width="2.25" stroke-linecap="round" stroke-linejoin="round" stroke-dasharray="4.1675,6.2513" x1="413.214" y1="115.885" x2="413.214" y2="175.271"/>
				
					<line fill="none" stroke="#3A54F5" stroke-width="2.25" stroke-linecap="round" stroke-linejoin="round" x1="413.214" y1="178.397" x2="413.214" y2="180.397"/>
			</g>
		</g>
	</g>
</g>
<g id="AG-FURNITURE">
	<g id="POLYLINE_1075_">
		
			<path fill="none" stroke="#3A54F5" stroke-width="2.75" stroke-linecap="round" stroke-linejoin="round" stroke-miterlimit="10" d="
			M499.84,585.676c0.007,6.169,2.228,12.232,6.225,16.935c4.092,4.815,9.901,8.031,16.154,8.942
			c5.935,0.865,12.09-0.369,17.233-3.456c5.528-3.319,9.698-8.671,11.568-14.841c0.778-2.567,1.12-5.215,1.123-7.893
			c0.004-4.247,0-8.493,0-12.74c0-1.977,0.122-3.927-0.586-5.812c-0.717-1.909-2.044-3.543-3.674-4.752
			c-1.749-1.299-3.835-2.117-5.984-2.446c-2.038-0.312-4.165-0.166-6.216-0.166c-7.83,0-15.665-0.09-23.494,0
			c-4.188,0.048-8.499,1.896-10.822,5.5c-0.982,1.524-1.504,3.264-1.526,5.075c-0.05,3.95,0,7.904,0,11.854
			C499.84,583.143,499.84,584.41,499.84,585.676z"/>
	</g>
	<g id="POLYLINE_1074_">
		
			<path fill="none" stroke="#3A54F5" stroke-width="2.75" stroke-linecap="round" stroke-linejoin="round" stroke-miterlimit="10" d="
			M398.309,585.676c0.007,6.169,2.228,12.232,6.225,16.935c4.092,4.815,9.901,8.031,16.154,8.942
			c5.935,0.865,12.09-0.369,17.233-3.456c5.528-3.319,9.698-8.671,11.568-14.841c0.778-2.567,1.12-5.215,1.123-7.893
			c0.004-4.247,0-8.493,0-12.74c0-1.977,0.122-3.927-0.586-5.812c-0.717-1.909-2.044-3.543-3.674-4.752
			c-1.749-1.299-3.835-2.117-5.984-2.446c-2.038-0.312-4.165-0.166-6.216-0.166c-7.829,0-15.665-0.09-23.494,0
			c-4.188,0.048-8.499,1.896-10.822,5.5c-0.982,1.524-1.504,3.264-1.526,5.075c-0.05,3.95,0,7.904,0,11.854
			C398.309,583.143,398.309,584.41,398.309,585.676z"/>
	</g>
	<g id="POLYLINE_1073_">
		
			<path fill="none" stroke="#3A54F5" stroke-width="2.75" stroke-linecap="round" stroke-linejoin="round" stroke-miterlimit="10" d="
			M626.676,357.309c6.169,0.007,12.232,2.228,16.935,6.225c4.815,4.092,8.031,9.901,8.942,16.154
			c0.865,5.935-0.369,12.09-3.456,17.233c-3.319,5.528-8.671,9.698-14.841,11.568c-2.567,0.778-5.215,1.12-7.893,1.123
			c-4.247,0.004-8.493,0-12.74,0c-1.977,0-3.927,0.122-5.812-0.586c-1.909-0.717-3.543-2.044-4.752-3.674
			c-1.299-1.749-2.117-3.835-2.446-5.984c-0.312-2.038-0.166-4.165-0.166-6.216c0-7.829-0.09-15.665,0-23.494
			c0.048-4.188,1.896-8.499,5.5-10.822c1.524-0.982,3.264-1.504,5.075-1.526c3.95-0.05,7.904,0,11.854,0
			C624.143,357.309,625.41,357.309,626.676,357.309z"/>
	</g>
	<g id="POLYLINE_1072_">
		
			<path fill="none" stroke="#3A54F5" stroke-width="2.75" stroke-linecap="round" stroke-linejoin="round" stroke-miterlimit="10" d="
			M626.676,458.84c6.169,0.007,12.232,2.228,16.935,6.225c4.815,4.092,8.031,9.901,8.942,16.154
			c0.865,5.935-0.369,12.09-3.456,17.233c-3.319,5.528-8.671,9.698-14.841,11.568c-2.567,0.778-5.215,1.12-7.893,1.123
			c-4.247,0.004-8.493,0-12.74,0c-1.977,0-3.927,0.122-5.812-0.586c-1.909-0.717-3.543-2.044-4.752-3.674
			c-1.299-1.749-2.117-3.835-2.446-5.984c-0.312-2.038-0.166-4.165-0.166-6.216c0-7.829-0.09-15.665,0-23.494
			c0.048-4.188,1.896-8.499,5.5-10.822c1.524-0.982,3.264-1.504,5.075-1.526c3.95-0.05,7.904,0,11.854,0
			C624.143,458.84,625.41,458.84,626.676,458.84z"/>
	</g>
</g>
<g id="AG-LAYOUT">
	<g id="POLYLINE_1067_">
		
			<rect x="363.541" y="322.541" fill="none" stroke="#3A54F5" stroke-width="2.75" stroke-linecap="round" stroke-linejoin="round" stroke-miterlimit="10" width="223.369" height="223.369"/>
	</g>
	<g id="POLYLINE_1066_">
		
			<rect x="140.172" y="262.045" fill="none" stroke="#3A54F5" stroke-width="2.75" stroke-linecap="round" stroke-linejoin="round" stroke-miterlimit="10" width="6.769" height="101.108"/>
	</g>
	<g id="POLYLINE_1065_">
		
			<path fill="none" stroke="#3A54F5" stroke-width="2.75" stroke-linecap="round" stroke-linejoin="round" stroke-miterlimit="10" d="
			M166.836,326.137c5.658-0.018,10.835-3.639,12.745-8.975c1.906-5.323,0.216-11.436-4.154-15.025
			c-4.37-3.588-10.695-4.056-15.546-1.152c-4.851,2.905-7.424,8.701-6.324,14.248c1.096,5.525,5.657,9.893,11.225,10.747
			C165.462,326.084,166.149,326.135,166.836,326.137z"/>
	</g>
	<g id="POLYLINE_1064_">
		
			<path fill="none" stroke="#3A54F5" stroke-width="2.75" stroke-linecap="round" stroke-linejoin="round" stroke-miterlimit="10" d="
			M166.836,334.353c4.242,0.005,8.128,2.735,9.559,6.731c1.429,3.993,0.162,8.577-3.116,11.268
			c-3.278,2.691-8.021,3.042-11.659,0.864c-3.638-2.179-5.568-6.526-4.743-10.686c0.822-4.145,4.243-7.419,8.419-8.06
			C165.806,334.393,166.321,334.354,166.836,334.353z"/>
	</g>
	<g id="POLYLINE_1063_">
		
			<path fill="none" stroke="#3A54F5" stroke-width="2.75" stroke-linecap="round" stroke-linejoin="round" stroke-miterlimit="10" d="
			M166.836,290.846c4.242-0.005,8.128-2.735,9.559-6.731c1.429-3.993,0.162-8.577-3.116-11.268
			c-3.278-2.691-8.021-3.042-11.659-0.864c-3.638,2.179-5.568,6.526-4.743,10.686c0.822,4.145,4.243,7.419,8.419,8.06
			C165.806,290.806,166.321,290.845,166.836,290.846z"/>
	</g>
	<g id="POLYLINE_1062_">
		
			<rect x="140.172" y="262.045" fill="none" stroke="#3A54F5" stroke-width="2.75" stroke-linecap="round" stroke-linejoin="round" stroke-miterlimit="10" width="81.225" height="101.108"/>
	</g>
	<g id="POLYLINE_1061_">
		
			<path fill="none" stroke="#3A54F5" stroke-width="2.75" stroke-linecap="round" stroke-linejoin="round" stroke-miterlimit="10" d="
			M200.245,300.966c3.128-0.007,6.211-0.979,8.77-2.779c2.553-1.796,4.516-4.379,5.568-7.318c1.052-2.939,1.174-6.181,0.341-9.189
			c-0.834-3.011-2.599-5.73-5.014-7.714c-2.405-1.975-5.404-3.178-8.507-3.415c-3.125-0.239-6.293,0.51-8.981,2.12
			c-2.678,1.603-4.83,4.031-6.095,6.885c-1.261,2.846-1.626,6.054-1.026,9.11c0.602,3.066,2.157,5.911,4.414,8.072
			c2.249,2.153,5.147,3.578,8.223,4.052C198.701,300.907,199.472,300.964,200.245,300.966z"/>
	</g>
	<g id="POLYLINE_1060_">
		
			<path fill="none" stroke="#3A54F5" stroke-width="2.75" stroke-linecap="round" stroke-linejoin="round" stroke-miterlimit="10" d="
			M200.245,324.233c3.128,0.007,6.211,0.979,8.77,2.779c2.553,1.796,4.516,4.379,5.568,7.318s1.174,6.181,0.341,9.189
			c-0.834,3.011-2.599,5.73-5.014,7.714c-2.405,1.975-5.404,3.178-8.507,3.415c-3.125,0.239-6.293-0.51-8.981-2.12
			c-2.678-1.603-4.83-4.031-6.095-6.885c-1.261-2.846-1.626-6.054-1.026-9.11c0.602-3.066,2.157-5.911,4.414-8.072
			c2.249-2.153,5.147-3.578,8.223-4.052C198.701,324.292,199.472,324.235,200.245,324.233z"/>
	</g>
	<g id="POLYLINE_1059_">
		
			<path fill="none" stroke="#3A54F5" stroke-width="2.75" stroke-linecap="round" stroke-linejoin="round" stroke-miterlimit="10" d="
			M268.779,175.321c0.003,2.805,2.32,5.018,5.083,5.077c3.338,0.071,6.684,0,10.022,0c7.962,0,15.924,0,23.887,0
			c10.003,0,20.007,0,30.01,0c9.44,0,18.88,0,28.32,0c6.347,0,12.694,0,19.042,0c2.095,0,4.658,0.391,6.519-0.802
			c2.784-1.783,2.339-4.95,2.339-7.798c0-8.752,0-17.503,0-26.255c0-7.721,0-15.443,0-23.164c0-1.073,0.037-2.114-0.378-3.13
			c-0.56-1.368-1.721-2.446-3.125-2.904c-0.793-0.259-1.592-0.25-2.412-0.25c-1.737,0-3.474,0-5.21,0c-7.084,0-14.167,0-21.251,0
			c-9.747,0-19.494,0-29.242,0c-9.831,0-19.661,0-29.492,0c-7.334,0-14.668,0-22.002,0c-1.918,0-3.835,0-5.753,0
			c-0.793,0-1.609-0.051-2.387,0.123c-2.725,0.609-3.968,3.01-3.968,5.597c0,7.227,0,14.454,0,21.681c0,9.035,0,18.071,0,27.106
			C268.779,172.174,268.779,173.748,268.779,175.321z"/>
	</g>
	<g id="POLYLINE_1058_">
		
			<path fill="none" stroke="#3A54F5" stroke-width="2.75" stroke-linecap="round" stroke-linejoin="round" stroke-miterlimit="10" d="
			M383.001,174.475c1.761-0.002,3.431-0.939,4.344-2.45c0.784-1.298,0.732-2.685,0.732-4.141c0-4.557,0-9.114,0-13.671
			c0-5.948,0-11.896,0-17.844c0-3.085,0.064-6.177,0-9.262c-0.036-1.725-0.851-3.325-2.32-4.276
			c-1.235-0.799-2.556-0.814-3.968-0.814c-4.295,0-8.59,0-12.885,0c-6.018,0-12.035,0-18.053,0c-3.896,0-7.793,0-11.689,0
			c-1.403,0-2.7,0.241-3.814,1.163c-1.265,1.046-1.835,2.532-1.843,4.138c-0.02,3.617,0,7.234,0,10.851c0,5.976,0,11.952,0,17.929
			c0,4.171,0,8.343,0,12.514c0,1.392,0.148,2.677,1.014,3.831c1.009,1.345,2.539,2.013,4.189,2.033c3.333,0.039,6.669,0,10.003,0
			c5.929,0,11.857,0,17.786,0c4.764,0,9.527,0,14.291,0C381.525,174.475,382.263,174.475,383.001,174.475z"/>
	</g>
	<g id="POLYLINE_1057_">
		
			<path fill="none" stroke="#3A54F5" stroke-width="2.75" stroke-linecap="round" stroke-linejoin="round" stroke-miterlimit="10" d="
			M307.91,146.553c-0.002-2.474-1.596-4.742-3.927-5.576c-2.329-0.834-5.003-0.095-6.573,1.817c-1.57,1.912-1.774,4.679-0.504,6.801
			c1.27,2.122,3.807,3.248,6.233,2.767c2.417-0.479,4.328-2.475,4.702-4.911C307.853,147.375,307.936,146.553,307.91,146.553z"/>
	</g>
	<g id="POLYLINE_1056_">
		
			<path fill="none" stroke="#3A54F5" stroke-width="2.75" stroke-linecap="round" stroke-linejoin="round" stroke-miterlimit="10" d="
			M366.714,146.553c-0.002-2.474-1.596-4.742-3.927-5.576c-2.329-0.834-5.003-0.095-6.573,1.817
			c-1.57,1.912-1.774,4.679-0.504,6.801c1.27,2.122,3.807,3.248,6.233,2.767c2.417-0.479,4.328-2.475,4.702-4.911
			C366.691,147.155,366.714,146.854,366.714,146.553z"/>
	</g>
	<g id="POLYLINE_1055_">
		
			<path fill="none" stroke="#3A54F5" stroke-width="2.75" stroke-linecap="round" stroke-linejoin="round" stroke-miterlimit="10" d="
			M279.778,174.475c-1.761-0.002-3.431-0.939-4.344-2.45c-0.784-1.298-0.732-2.685-0.732-4.141c0-4.557,0-9.114,0-13.671
			c0-5.948,0-11.896,0-17.844c0-3.085-0.064-6.177,0-9.262c0.036-1.725,0.851-3.325,2.32-4.276c1.235-0.799,2.556-0.814,3.968-0.814
			c4.295,0,8.59,0,12.885,0c6.018,0,12.035,0,18.053,0c3.896,0,7.793,0,11.689,0c1.403,0,2.7,0.241,3.814,1.163
			c1.265,1.046,1.835,2.532,1.843,4.138c0.02,3.617,0,7.234,0,10.851c0,5.976,0,11.952,0,17.929c0,4.171,0,8.343,0,12.514
			c0,1.392-0.148,2.677-1.014,3.831c-1.009,1.345-2.539,2.013-4.189,2.033c-3.333,0.039-6.669,0-10.003,0
			c-5.929,0-11.857,0-17.786,0c-4.764,0-9.527,0-14.291,0C281.254,174.475,280.516,174.475,279.778,174.475z"/>
	</g>
	<g id="POLYLINE_1054_">
		
			<path fill="none" stroke="#3A54F5" stroke-width="2.75" stroke-linecap="round" stroke-linejoin="round" stroke-miterlimit="10" d="
			M331.389,105.884c2.435,0.021,3.56,3.175,1.637,4.702c-1.844,1.464-4.616-0.166-4.239-2.489
			C328.994,106.83,330.113,105.895,331.389,105.884z"/>
	</g>
	<g id="POLYLINE_1053_">
		
			<rect x="146.941" y="425.764" fill="none" stroke="#3A54F5" stroke-width="2.75" stroke-linecap="round" stroke-linejoin="round" stroke-miterlimit="10" width="76.148" height="120.145"/>
	</g>
	<g id="POLYLINE_505_">
		
			<rect x="223.089" y="425.764" fill="none" stroke="#3A54F5" stroke-width="2.75" stroke-linecap="round" stroke-linejoin="round" stroke-miterlimit="10" width="5.077" height="60.073"/>
	</g>
	<g id="POLYLINE_504_">
		
			<rect x="223.089" y="485.837" fill="none" stroke="#3A54F5" stroke-width="2.75" stroke-linecap="round" stroke-linejoin="round" stroke-miterlimit="10" width="5.077" height="60.073"/>
	</g>
	<g id="POLYLINE_498_">
		
			<rect x="140.172" y="431.687" fill="none" stroke="#3A54F5" stroke-width="2.75" stroke-linecap="round" stroke-linejoin="round" stroke-miterlimit="10" width="6.769" height="108.3"/>
	</g>
	<g id="POLYLINE_497_">
		
			<polygon fill="none" stroke="#3A54F5" stroke-width="2.75" stroke-linecap="round" stroke-linejoin="round" stroke-miterlimit="10" points="
			586.91,180.397 586.91,99.172 140.172,99.172 140.172,425.764 221.397,425.764 221.397,180.397 		"/>
	</g>
</g>
<g id="AG-OUTLINE">
	<g id="POLYLINE_496_">
		
			<polygon fill="none" stroke="#3A54F5" stroke-width="3.5" stroke-linecap="round" stroke-linejoin="round" stroke-miterlimit="10" points="
			140.172,539.987 140.172,99.172 541.221,99.172 586.91,99.172 586.91,180.397 389.38,180.387 389.264,180.392 389.15,180.395 
			389.036,180.397 388.924,180.397 273.855,180.397 273.743,180.397 273.629,180.395 273.514,180.392 273.399,180.387 
			221.397,180.397 221.397,262.045 221.397,425.764 223.089,425.764 228.166,425.764 228.166,485.837 228.166,545.91 
			223.089,545.91 146.941,545.91 140.172,545.91 		"/>
	</g>
	<g id="POLYLINE_495_">
		
			<rect x="363.541" y="322.541" fill="none" stroke="#3A54F5" stroke-width="3.5" stroke-linecap="round" stroke-linejoin="round" stroke-miterlimit="10" width="223.369" height="223.369"/>
	</g>
</g>
</svg>
