<?xml version="1.0" encoding="utf-8"?>
<!-- Generator: Adobe Illustrator 23.0.2, SVG Export Plug-In . SVG Version: 6.00 Build 0)  -->
<!DOCTYPE svg PUBLIC "-//W3C//DTD SVG 1.1//EN" "http://www.w3.org/Graphics/SVG/1.1/DTD/svg11.dtd" [
	<!ENTITY ns_flows "http://ns.adobe.com/Flows/1.0/">
	<!ENTITY ns_extend "http://ns.adobe.com/Extensibility/1.0/">
	<!ENTITY ns_ai "http://ns.adobe.com/AdobeIllustrator/10.0/">
	<!ENTITY ns_graphs "http://ns.adobe.com/Graphs/1.0/">
	<!ENTITY ns_vars "http://ns.adobe.com/Variables/1.0/">
	<!ENTITY ns_imrep "http://ns.adobe.com/ImageReplacement/1.0/">
	<!ENTITY ns_sfw "http://ns.adobe.com/SaveForWeb/1.0/">
	<!ENTITY ns_custom "http://ns.adobe.com/GenericCustomNamespace/1.0/">
	<!ENTITY ns_adobe_xpath "http://ns.adobe.com/XPath/1.0/">
]>
<svg version="1.1" xmlns:x="&ns_extend;" xmlns:i="&ns_ai;" xmlns:graph="&ns_graphs;"
	 xmlns="http://www.w3.org/2000/svg" xmlns:xlink="http://www.w3.org/1999/xlink" xmlns:a="http://ns.adobe.com/AdobeSVGViewerExtensions/3.0/"
	 x="0px" y="0px" viewBox="0 0 750 600" enable-background="new 0 0 750 600" xml:space="preserve">
<metadata>
	<sfw  xmlns="&ns_sfw;">
		<slices></slices>
		<sliceSourceBounds  bottomLeftOrigin="true" height="9185.057" width="6115.224" x="-5706.937" y="-3923.667">
			</sliceSourceBounds>
	</sfw>
</metadata>
<g id="FILL-BACKGROUND">
</g>
<g id="N-DIMENSIONS" display="none">
	<g id="MTEXT_151_" display="inline">
		<g>
			<g>
				<path fill="#3A54F5" d="M108.164,469.838v-2.375h4.572v12.707h-2.664v-10.332H108.164z"/>
				<path fill="#3A54F5" d="M114.104,469.838v-2.375h4.572v12.707h-2.664v-10.332H114.104z"/>
				<path fill="#3A54F5" d="M129.764,469.442h-6.03v3.204c0.276-0.324,0.657-0.585,1.143-0.783c0.486-0.197,1.023-0.297,1.611-0.297
					c0.875,0,1.604,0.189,2.187,0.566c0.582,0.379,1.014,0.883,1.296,1.513c0.282,0.63,0.423,1.329,0.423,2.097
					c0,1.356-0.381,2.442-1.143,3.258c-0.762,0.816-1.851,1.225-3.267,1.225c-0.924,0-1.728-0.165-2.412-0.495
					s-1.218-0.792-1.602-1.386c-0.384-0.594-0.594-1.287-0.63-2.079h2.466c0.096,0.54,0.318,0.969,0.666,1.286
					c0.348,0.318,0.81,0.478,1.386,0.478c0.696,0,1.215-0.213,1.557-0.639c0.342-0.427,0.513-0.993,0.513-1.701
					c0-0.672-0.18-1.194-0.54-1.565c-0.36-0.373-0.87-0.559-1.53-0.559c-0.48,0-0.888,0.105-1.224,0.314
					c-0.336,0.211-0.583,0.49-0.738,0.838h-2.466v-7.506h8.334V469.442z"/>
				<path fill="#3A54F5" d="M139.664,468.795c-0.3,0.264-0.45,0.726-0.45,1.385v0.019h2.016v2.142h-2.016v7.83h-2.538v-7.83h-1.278
					v-2.142h1.278v-0.233c0-1.188,0.339-2.104,1.017-2.746c0.678-0.641,1.683-0.963,3.015-0.963c0.228,0,0.402,0.007,0.522,0.019
					v2.196C140.485,468.422,139.963,468.531,139.664,468.795z"/>
				<path fill="#3A54F5" d="M148.069,477.992v2.178h-1.332c-1.116,0-1.971-0.27-2.565-0.81c-0.594-0.54-0.891-1.44-0.891-2.7v-4.32
					h-1.386v-2.142h1.386v-2.466h2.538v2.466h2.232v2.142h-2.232v4.356c0,0.479,0.096,0.816,0.288,1.009
					c0.192,0.191,0.516,0.287,0.972,0.287H148.069z"/>
				<path fill="#3A54F5" d="M152.681,468.919c0-0.329-0.079-0.588-0.236-0.776c-0.157-0.189-0.404-0.283-0.74-0.283
					c-0.692,0-1.06,0.472-1.102,1.416h-1.438c0.042-0.874,0.308-1.537,0.798-1.988c0.489-0.451,1.108-0.678,1.857-0.678
					c0.762,0,1.348,0.198,1.757,0.594c0.41,0.395,0.614,0.922,0.614,1.579c0,0.519-0.152,1.038-0.457,1.559s-0.691,1.001-1.16,1.438
					c-0.469,0.438-0.962,0.813-1.479,1.128h3.243v1.207h-5.216v-1.102C151.495,471.367,152.681,470.004,152.681,468.919z"/>
				<path fill="#3A54F5" d="M108.164,491.438v-2.376h4.572v12.708h-2.664v-10.332H108.164z"/>
				<path fill="#3A54F5" d="M114.734,495.309c0-4.296,1.62-6.443,4.86-6.443c1.716,0,2.952,0.575,3.708,1.727
					c0.756,1.152,1.134,2.725,1.134,4.717c0,2.004-0.378,3.582-1.134,4.734c-0.756,1.151-1.992,1.728-3.708,1.728
					C116.354,501.771,114.734,499.617,114.734,495.309z M121.934,495.309c0-1.296-0.159-2.295-0.477-2.997s-0.939-1.054-1.863-1.054
					c-0.936,0-1.563,0.352-1.881,1.054c-0.318,0.702-0.477,1.701-0.477,2.997c0,1.309,0.159,2.312,0.477,3.016
					c0.317,0.701,0.945,1.053,1.881,1.053c0.924,0,1.545-0.352,1.863-1.053C121.775,497.621,121.934,496.617,121.934,495.309z"/>
				<path fill="#3A54F5" d="M128.521,499.125v2.646h-2.736v-2.646H128.521z"/>
				<path fill="#3A54F5" d="M137.81,490.845l-4.644,10.926h-2.628l4.698-10.638h-5.886v-2.178h8.46V490.845z"/>
				<path fill="#3A54F5" d="M158.842,492.779c0.702,0.75,1.053,1.815,1.053,3.195v5.796h-2.52v-5.508
					c0-0.769-0.195-1.359-0.585-1.772c-0.39-0.414-0.927-0.621-1.611-0.621c-0.708,0-1.272,0.222-1.692,0.666
					c-0.42,0.443-0.63,1.092-0.63,1.943v5.292h-2.52v-5.508c0-0.769-0.195-1.359-0.585-1.772c-0.39-0.414-0.927-0.621-1.611-0.621
					c-0.708,0-1.272,0.222-1.692,0.666c-0.42,0.443-0.63,1.092-0.63,1.943v5.292h-2.538v-9.972h2.538v1.89
					c0.264-0.647,0.681-1.149,1.251-1.503s1.233-0.531,1.989-0.531c0.804,0,1.503,0.192,2.097,0.576
					c0.594,0.385,1.041,0.936,1.341,1.656c0.312-0.684,0.777-1.227,1.395-1.629c0.618-0.402,1.311-0.604,2.079-0.604
					C157.183,491.654,158.141,492.029,158.842,492.779z"/>
				<path fill="#3A54F5" d="M164.921,490.52c0-0.33-0.079-0.588-0.236-0.777c-0.157-0.189-0.404-0.283-0.74-0.283
					c-0.692,0-1.06,0.473-1.102,1.416h-1.438c0.042-0.873,0.308-1.537,0.798-1.988c0.489-0.451,1.108-0.677,1.857-0.677
					c0.762,0,1.348,0.198,1.757,0.593c0.41,0.396,0.614,0.922,0.614,1.58c0,0.518-0.152,1.037-0.457,1.559
					c-0.304,0.521-0.691,1-1.16,1.438s-0.962,0.812-1.479,1.128h3.243v1.206h-5.216v-1.102
					C163.735,492.968,164.921,491.604,164.921,490.52z"/>
			</g>
		</g>
	</g>
	<g display="inline">
		<g id="POLYLINE_1052_">
			
				<line fill="none" stroke="#3A54F5" stroke-width="2" stroke-linecap="round" stroke-linejoin="round" stroke-miterlimit="10" x1="398.866" y1="306.961" x2="398.866" y2="270.671"/>
		</g>
		<g id="LINE_71_">
			
				<line fill="none" stroke="#3A54F5" stroke-width="2" stroke-linecap="round" stroke-linejoin="round" stroke-miterlimit="10" x1="398.866" y1="226.27" x2="398.866" y2="185.361"/>
		</g>
		<g id="POLYLINE_1051_">
			
				<polyline fill="none" stroke="#3A54F5" stroke-width="2" stroke-linecap="round" stroke-linejoin="round" stroke-miterlimit="10" points="
				392.238,191.99 398.866,185.361 405.494,191.99 			"/>
		</g>
		<g id="POLYLINE_1050_">
			
				<polyline fill="none" stroke="#3A54F5" stroke-width="2" stroke-linecap="round" stroke-linejoin="round" stroke-miterlimit="10" points="
				405.494,300.334 398.866,306.961 392.238,300.334 			"/>
		</g>
		<g id="MTEXT_150_">
			<g>
				<g>
					<g>
						<path fill="#3A54F5" d="M357.699,243.18c-0.608-0.271-1.07-0.626-1.384-1.063s-0.482-0.891-0.504-1.36
							c0-0.096,0.032-0.174,0.096-0.232s0.144-0.088,0.24-0.088h0.72c0.117,0,0.213,0.024,0.288,0.072
							c0.074,0.048,0.133,0.142,0.176,0.28c0.139,0.544,0.44,0.928,0.904,1.151c0.464,0.225,1.011,0.336,1.64,0.336
							c0.768,0,1.378-0.184,1.832-0.552c0.453-0.368,0.68-0.894,0.68-1.576c0-1.301-0.795-1.952-2.384-1.952h-1.504
							c-0.107,0-0.195-0.034-0.264-0.104s-0.104-0.157-0.104-0.264v-0.416c0-0.16,0.059-0.299,0.176-0.416l3.12-3.456h-4.736
							c-0.106,0-0.195-0.032-0.264-0.097c-0.07-0.063-0.104-0.148-0.104-0.256v-0.576c0-0.117,0.034-0.21,0.104-0.279
							c0.069-0.069,0.157-0.104,0.264-0.104h6.336c0.118,0,0.21,0.035,0.28,0.104c0.069,0.069,0.104,0.162,0.104,0.279v0.528
							c0,0.117-0.054,0.24-0.16,0.368l-3.12,3.504h0.256c1.088,0.032,1.949,0.314,2.584,0.848c0.634,0.534,0.952,1.312,0.952,2.336
							c0,0.704-0.173,1.31-0.52,1.816s-0.829,0.896-1.448,1.168c-0.619,0.272-1.317,0.408-2.096,0.408
							C359.027,243.588,358.307,243.452,357.699,243.18z"/>
						<path fill="#3A54F5" d="M365.667,235.02c-0.043-0.059-0.059-0.141-0.048-0.248l0.352-2.24
							c0.042-0.309,0.192-0.464,0.448-0.464h1.024c0.075,0,0.136,0.027,0.184,0.08c0.048,0.054,0.072,0.118,0.072,0.192
							c0,0.106-0.016,0.191-0.048,0.256l-0.832,2.16c-0.053,0.117-0.112,0.205-0.176,0.264s-0.16,0.088-0.288,0.088h-0.496
							C365.773,235.107,365.709,235.078,365.667,235.02z"/>
						<path fill="#3A54F5" d="M371.019,243.067c-0.624-0.346-1.099-0.812-1.424-1.399c-0.326-0.587-0.488-1.227-0.488-1.92
							c0-0.918,0.368-1.898,1.104-2.944l3.056-4.256c0.011-0.011,0.04-0.048,0.088-0.112c0.048-0.063,0.109-0.114,0.184-0.151
							c0.075-0.038,0.16-0.057,0.256-0.057h0.784c0.096,0,0.173,0.035,0.232,0.104s0.088,0.151,0.088,0.248
							c0,0.053-0.027,0.122-0.08,0.208l-2.336,3.264c0.277-0.064,0.586-0.096,0.928-0.096c0.779,0,1.464,0.173,2.056,0.52
							c0.592,0.347,1.05,0.806,1.376,1.376c0.325,0.571,0.488,1.197,0.488,1.88s-0.163,1.32-0.488,1.912
							c-0.326,0.592-0.797,1.064-1.416,1.416c-0.619,0.353-1.35,0.528-2.192,0.528C372.381,243.588,371.643,243.414,371.019,243.067
							z M374.515,241.972c0.395-0.192,0.709-0.478,0.944-0.855c0.234-0.379,0.352-0.835,0.352-1.368c0-0.522-0.12-0.974-0.36-1.353
							c-0.24-0.378-0.558-0.666-0.952-0.864c-0.395-0.196-0.821-0.296-1.28-0.296c-0.459,0-0.885,0.1-1.28,0.296
							c-0.395,0.198-0.709,0.486-0.944,0.864c-0.235,0.379-0.352,0.83-0.352,1.353c0,0.533,0.117,0.989,0.352,1.368
							c0.235,0.378,0.549,0.663,0.944,0.855c0.395,0.192,0.821,0.288,1.28,0.288C373.688,242.26,374.12,242.164,374.515,241.972z"/>
						<path fill="#3A54F5" d="M378.89,235.012c-0.048-0.064-0.061-0.144-0.04-0.24l0.352-2.24c0.042-0.309,0.192-0.464,0.448-0.464
							h1.024c0.075,0,0.136,0.027,0.184,0.08c0.048,0.054,0.072,0.118,0.072,0.192c0,0.106-0.016,0.191-0.048,0.256l-0.832,2.16
							c-0.053,0.117-0.112,0.205-0.176,0.264s-0.16,0.088-0.288,0.088h-0.496C379.005,235.107,378.938,235.076,378.89,235.012z
							 M381.402,235.012c-0.048-0.064-0.062-0.144-0.04-0.24l0.352-2.24c0.042-0.309,0.192-0.464,0.448-0.464h1.024
							c0.074,0,0.136,0.027,0.184,0.08c0.048,0.054,0.072,0.118,0.072,0.192c0,0.106-0.016,0.191-0.048,0.256l-0.832,2.16
							c-0.054,0.117-0.112,0.205-0.176,0.264s-0.16,0.088-0.288,0.088h-0.496C381.517,235.107,381.45,235.076,381.402,235.012z"/>
						<path fill="#3A54F5" d="M389.298,246.651c-0.064-0.069-0.096-0.157-0.096-0.264V229.46c0-0.106,0.032-0.194,0.096-0.265
							c0.064-0.068,0.149-0.104,0.256-0.104h0.592c0.106,0,0.194,0.035,0.264,0.104c0.069,0.07,0.104,0.158,0.104,0.265v16.928
							c0,0.106-0.035,0.194-0.104,0.264c-0.07,0.069-0.158,0.104-0.264,0.104h-0.592
							C389.448,246.756,389.362,246.721,389.298,246.651z"/>
						<path fill="#3A54F5" d="M399.794,243.324c-0.064-0.069-0.096-0.158-0.096-0.265v-9.023l-2.688,2.063
							c-0.075,0.064-0.155,0.096-0.24,0.096c-0.096,0-0.187-0.053-0.272-0.159l-0.384-0.496c-0.054-0.075-0.08-0.149-0.08-0.225
							c0-0.117,0.053-0.213,0.16-0.288l3.472-2.688c0.117-0.074,0.256-0.112,0.416-0.112h0.752c0.106,0,0.194,0.035,0.264,0.104
							s0.104,0.157,0.104,0.264v10.464c0,0.106-0.035,0.195-0.104,0.265s-0.157,0.104-0.264,0.104h-0.784
							C399.943,243.428,399.858,243.394,399.794,243.324z"/>
						<path fill="#3A54F5" d="M403.625,243.324c-0.069-0.069-0.104-0.158-0.104-0.265v-1.104c0-0.106,0.035-0.197,0.104-0.272
							c0.069-0.074,0.157-0.112,0.264-0.112h1.104c0.106,0,0.194,0.038,0.264,0.112c0.069,0.075,0.104,0.166,0.104,0.272v1.104
							c0,0.106-0.035,0.195-0.104,0.265c-0.07,0.069-0.158,0.104-0.264,0.104h-1.104
							C403.783,243.428,403.695,243.394,403.625,243.324z"/>
						<path fill="#3A54F5" d="M408.218,242.38c-0.635-0.806-0.974-1.858-1.016-3.16l-0.016-1.376l0.016-1.424
							c0.032-1.291,0.371-2.339,1.016-3.145c0.645-0.805,1.65-1.208,3.016-1.208c1.376,0,2.386,0.403,3.032,1.208
							c0.646,0.806,0.984,1.854,1.016,3.145c0.01,0.299,0.016,0.773,0.016,1.424c0,0.63-0.006,1.088-0.016,1.376
							c-0.043,1.302-0.381,2.354-1.016,3.16s-1.646,1.208-3.032,1.208C409.858,243.588,408.852,243.186,408.218,242.38z
							 M413.09,241.443c0.416-0.544,0.634-1.312,0.656-2.304c0.011-0.31,0.016-0.752,0.016-1.328c0-0.586-0.005-1.023-0.016-1.312
							c-0.021-0.981-0.243-1.747-0.664-2.296c-0.421-0.55-1.037-0.824-1.848-0.824c-0.811,0-1.424,0.274-1.84,0.824
							c-0.416,0.549-0.635,1.314-0.656,2.296l-0.016,1.312l0.016,1.328c0.021,0.992,0.24,1.76,0.656,2.304s1.029,0.816,1.84,0.816
							C412.055,242.26,412.674,241.987,413.09,241.443z"/>
						<path fill="#3A54F5" d="M418.474,243.324c-0.059-0.069-0.088-0.152-0.088-0.248l0.032-0.145l4-9.36h-5.28
							c-0.107,0-0.195-0.034-0.264-0.104s-0.104-0.157-0.104-0.264v-0.593c0-0.117,0.032-0.21,0.096-0.279s0.154-0.104,0.272-0.104
							h6.528c0.117,0,0.208,0.035,0.272,0.104s0.096,0.162,0.096,0.279v0.544c0,0.192-0.043,0.4-0.128,0.624l-3.952,9.248
							c-0.053,0.118-0.112,0.214-0.176,0.288c-0.064,0.075-0.155,0.112-0.272,0.112h-0.8
							C418.61,243.428,418.532,243.394,418.474,243.324z"/>
						<path fill="#3A54F5" d="M429.706,243.324c-0.07-0.069-0.104-0.158-0.104-0.265v-7.584c0-0.106,0.034-0.194,0.104-0.264
							c0.069-0.069,0.157-0.104,0.264-0.104h0.672c0.106,0,0.192,0.035,0.256,0.104s0.096,0.157,0.096,0.264v0.544
							c0.576-0.714,1.354-1.072,2.336-1.072c1.173,0,2.005,0.491,2.496,1.473c0.256-0.448,0.622-0.806,1.096-1.072
							s1.005-0.4,1.592-0.4c0.875,0,1.589,0.299,2.144,0.896s0.832,1.462,0.832,2.592v4.624c0,0.106-0.035,0.195-0.104,0.265
							s-0.157,0.104-0.264,0.104h-0.688c-0.107,0-0.195-0.034-0.264-0.104s-0.104-0.158-0.104-0.265v-4.479
							c0-0.854-0.176-1.464-0.528-1.832c-0.352-0.368-0.816-0.553-1.392-0.553c-0.512,0-0.952,0.189-1.32,0.568
							c-0.368,0.379-0.552,0.984-0.552,1.816v4.479c0,0.106-0.035,0.195-0.104,0.265s-0.158,0.104-0.264,0.104h-0.704
							c-0.106,0-0.194-0.034-0.264-0.104c-0.07-0.069-0.104-0.158-0.104-0.265v-4.479c0-0.843-0.184-1.451-0.552-1.824
							c-0.368-0.373-0.824-0.561-1.368-0.561c-0.512,0-0.952,0.188-1.32,0.561c-0.368,0.373-0.552,0.976-0.552,1.808v4.496
							c0,0.106-0.035,0.195-0.104,0.265c-0.07,0.069-0.158,0.104-0.264,0.104h-0.704
							C429.863,243.428,429.774,243.394,429.706,243.324z"/>
						<path fill="#3A54F5" d="M363.419,260.524c-0.07-0.069-0.104-0.158-0.104-0.265v-7.584c0-0.106,0.034-0.194,0.104-0.264
							c0.069-0.069,0.157-0.104,0.264-0.104h0.672c0.106,0,0.192,0.035,0.256,0.104s0.096,0.157,0.096,0.264v0.544
							c0.576-0.714,1.354-1.072,2.336-1.072c1.173,0,2.005,0.491,2.496,1.473c0.256-0.448,0.622-0.806,1.096-1.072
							s1.005-0.4,1.592-0.4c0.875,0,1.589,0.299,2.144,0.896s0.832,1.462,0.832,2.592v4.624c0,0.106-0.035,0.195-0.104,0.265
							s-0.157,0.104-0.264,0.104h-0.688c-0.107,0-0.195-0.034-0.264-0.104s-0.104-0.158-0.104-0.265v-4.479
							c0-0.854-0.176-1.464-0.528-1.832c-0.352-0.368-0.816-0.553-1.392-0.553c-0.512,0-0.952,0.189-1.32,0.568
							c-0.368,0.379-0.552,0.984-0.552,1.816v4.479c0,0.106-0.035,0.195-0.104,0.265s-0.158,0.104-0.264,0.104h-0.704
							c-0.106,0-0.194-0.034-0.264-0.104c-0.07-0.069-0.104-0.158-0.104-0.265v-4.479c0-0.843-0.184-1.451-0.552-1.824
							c-0.368-0.373-0.824-0.561-1.368-0.561c-0.512,0-0.952,0.188-1.32,0.561c-0.368,0.373-0.552,0.976-0.552,1.808v4.496
							c0,0.106-0.035,0.195-0.104,0.265c-0.07,0.069-0.158,0.104-0.264,0.104h-0.704
							C363.576,260.628,363.488,260.594,363.419,260.524z"/>
						<path fill="#3A54F5" d="M377.499,250.636c-0.069-0.069-0.104-0.157-0.104-0.264v-0.832c0-0.106,0.035-0.197,0.104-0.272
							c0.069-0.074,0.157-0.111,0.264-0.111h0.944c0.107,0,0.197,0.037,0.272,0.111c0.075,0.075,0.112,0.166,0.112,0.272v0.832
							c0,0.106-0.038,0.194-0.112,0.264s-0.165,0.104-0.272,0.104h-0.944C377.656,250.74,377.568,250.705,377.499,250.636z
							 M377.627,260.524c-0.07-0.069-0.104-0.158-0.104-0.265v-7.584c0-0.106,0.034-0.194,0.104-0.264
							c0.069-0.069,0.157-0.104,0.264-0.104h0.704c0.106,0,0.194,0.035,0.264,0.104c0.069,0.069,0.104,0.157,0.104,0.264v7.584
							c0,0.106-0.035,0.195-0.104,0.265c-0.07,0.069-0.158,0.104-0.264,0.104h-0.704
							C377.784,260.628,377.696,260.594,377.627,260.524z"/>
						<path fill="#3A54F5" d="M381.467,260.524c-0.07-0.069-0.104-0.158-0.104-0.265v-7.584c0-0.106,0.034-0.194,0.104-0.264
							c0.069-0.069,0.157-0.104,0.264-0.104h0.688c0.117,0,0.208,0.032,0.272,0.097c0.064,0.063,0.096,0.154,0.096,0.271v0.704
							c0.32-0.395,0.69-0.698,1.112-0.912c0.421-0.213,0.947-0.32,1.576-0.32c1.024,0,1.818,0.328,2.384,0.984
							s0.848,1.522,0.848,2.6v4.528c0,0.106-0.035,0.195-0.104,0.265s-0.157,0.104-0.264,0.104h-0.736
							c-0.107,0-0.195-0.034-0.264-0.104s-0.104-0.158-0.104-0.265v-4.432c0-0.769-0.187-1.365-0.56-1.792
							c-0.374-0.427-0.907-0.641-1.6-0.641c-0.683,0-1.227,0.217-1.632,0.648s-0.608,1.026-0.608,1.784v4.432
							c0,0.106-0.035,0.195-0.104,0.265s-0.157,0.104-0.264,0.104h-0.736C381.624,260.628,381.536,260.594,381.467,260.524z"/>
						<path fill="#3A54F5" d="M391.002,250.636c-0.069-0.069-0.104-0.157-0.104-0.264v-0.832c0-0.106,0.035-0.197,0.104-0.272
							c0.069-0.074,0.157-0.111,0.264-0.111h0.944c0.107,0,0.197,0.037,0.272,0.111c0.075,0.075,0.112,0.166,0.112,0.272v0.832
							c0,0.106-0.038,0.194-0.112,0.264s-0.165,0.104-0.272,0.104h-0.944C391.159,250.74,391.071,250.705,391.002,250.636z
							 M391.13,260.524c-0.07-0.069-0.104-0.158-0.104-0.265v-7.584c0-0.106,0.034-0.194,0.104-0.264
							c0.069-0.069,0.157-0.104,0.264-0.104h0.704c0.106,0,0.194,0.035,0.264,0.104c0.069,0.069,0.104,0.157,0.104,0.264v7.584
							c0,0.106-0.035,0.195-0.104,0.265c-0.07,0.069-0.158,0.104-0.264,0.104h-0.704
							C391.288,260.628,391.199,260.594,391.13,260.524z"/>
						<path fill="#3A54F5" d="M394.97,260.524c-0.07-0.069-0.104-0.158-0.104-0.265v-7.584c0-0.106,0.034-0.194,0.104-0.264
							c0.069-0.069,0.157-0.104,0.264-0.104h0.672c0.106,0,0.192,0.035,0.256,0.104s0.096,0.157,0.096,0.264v0.544
							c0.576-0.714,1.354-1.072,2.336-1.072c1.173,0,2.005,0.491,2.496,1.473c0.256-0.448,0.622-0.806,1.096-1.072
							s1.005-0.4,1.592-0.4c0.875,0,1.589,0.299,2.144,0.896s0.832,1.462,0.832,2.592v4.624c0,0.106-0.035,0.195-0.104,0.265
							s-0.157,0.104-0.264,0.104h-0.688c-0.107,0-0.195-0.034-0.264-0.104s-0.104-0.158-0.104-0.265v-4.479
							c0-0.854-0.176-1.464-0.528-1.832c-0.352-0.368-0.816-0.553-1.392-0.553c-0.512,0-0.952,0.189-1.32,0.568
							c-0.368,0.379-0.552,0.984-0.552,1.816v4.479c0,0.106-0.035,0.195-0.104,0.265s-0.158,0.104-0.264,0.104h-0.704
							c-0.106,0-0.194-0.034-0.264-0.104c-0.07-0.069-0.104-0.158-0.104-0.265v-4.479c0-0.843-0.184-1.451-0.552-1.824
							c-0.368-0.373-0.824-0.561-1.368-0.561c-0.512,0-0.952,0.188-1.32,0.561c-0.368,0.373-0.552,0.976-0.552,1.808v4.496
							c0,0.106-0.035,0.195-0.104,0.265c-0.07,0.069-0.158,0.104-0.264,0.104h-0.704
							C395.127,260.628,395.039,260.594,394.97,260.524z"/>
						<path fill="#3A54F5" d="M409.826,259.804c-0.555-0.656-0.832-1.527-0.832-2.616v-4.512c0-0.106,0.034-0.194,0.104-0.264
							c0.069-0.069,0.157-0.104,0.264-0.104h0.736c0.106,0,0.194,0.035,0.264,0.104s0.104,0.157,0.104,0.264v4.433
							c0,1.621,0.704,2.432,2.112,2.432c0.683,0,1.224-0.216,1.624-0.648c0.4-0.432,0.6-1.026,0.6-1.783v-4.433
							c0-0.106,0.034-0.194,0.104-0.264c0.069-0.069,0.157-0.104,0.264-0.104h0.736c0.106,0,0.194,0.035,0.264,0.104
							s0.104,0.157,0.104,0.264v7.584c0,0.106-0.035,0.195-0.104,0.265s-0.157,0.104-0.264,0.104h-0.688
							c-0.107,0-0.195-0.034-0.264-0.104s-0.104-0.158-0.104-0.265v-0.72c-0.31,0.416-0.672,0.728-1.088,0.936
							s-0.944,0.312-1.584,0.312C411.164,260.788,410.38,260.46,409.826,259.804z"/>
						<path fill="#3A54F5" d="M418.778,260.524c-0.07-0.069-0.104-0.158-0.104-0.265v-7.584c0-0.106,0.034-0.194,0.104-0.264
							c0.069-0.069,0.157-0.104,0.264-0.104h0.672c0.106,0,0.192,0.035,0.256,0.104s0.096,0.157,0.096,0.264v0.544
							c0.576-0.714,1.354-1.072,2.336-1.072c1.173,0,2.005,0.491,2.496,1.473c0.256-0.448,0.622-0.806,1.096-1.072
							s1.005-0.4,1.592-0.4c0.875,0,1.589,0.299,2.144,0.896s0.832,1.462,0.832,2.592v4.624c0,0.106-0.035,0.195-0.104,0.265
							s-0.157,0.104-0.264,0.104h-0.688c-0.107,0-0.195-0.034-0.264-0.104s-0.104-0.158-0.104-0.265v-4.479
							c0-0.854-0.176-1.464-0.528-1.832c-0.352-0.368-0.816-0.553-1.392-0.553c-0.512,0-0.952,0.189-1.32,0.568
							c-0.368,0.379-0.552,0.984-0.552,1.816v4.479c0,0.106-0.035,0.195-0.104,0.265s-0.158,0.104-0.264,0.104h-0.704
							c-0.106,0-0.194-0.034-0.264-0.104c-0.07-0.069-0.104-0.158-0.104-0.265v-4.479c0-0.843-0.184-1.451-0.552-1.824
							c-0.368-0.373-0.824-0.561-1.368-0.561c-0.512,0-0.952,0.188-1.32,0.561c-0.368,0.373-0.552,0.976-0.552,1.808v4.496
							c0,0.106-0.035,0.195-0.104,0.265c-0.07,0.069-0.158,0.104-0.264,0.104h-0.704
							C418.935,260.628,418.847,260.594,418.778,260.524z"/>
					</g>
				</g>
			</g>
		</g>
	</g>
	<g id="MTEXT_141_" display="inline">
		<g>
			<g>
				<g>
					<path fill="#3A54F5" d="M565.612,352.346c-0.072-0.078-0.108-0.177-0.108-0.297v-11.771c0-0.12,0.036-0.22,0.108-0.298
						c0.072-0.077,0.168-0.116,0.288-0.116h0.9c0.132,0,0.234,0.035,0.306,0.107c0.072,0.072,0.108,0.174,0.108,0.307v11.771
						c0,0.12-0.039,0.219-0.117,0.297s-0.177,0.117-0.297,0.117h-0.9C565.78,352.463,565.684,352.424,565.612,352.346z"/>
					<path fill="#3A54F5" d="M571.255,352.238c-0.57-0.271-0.993-0.579-1.269-0.928c-0.276-0.348-0.414-0.636-0.414-0.863
						c0-0.12,0.042-0.213,0.126-0.279c0.084-0.065,0.174-0.099,0.27-0.099h0.756c0.072,0,0.129,0.012,0.171,0.035
						c0.042,0.024,0.099,0.078,0.171,0.162c0.276,0.336,0.585,0.601,0.927,0.792c0.342,0.192,0.801,0.288,1.377,0.288
						c0.648,0,1.167-0.119,1.557-0.359s0.585-0.588,0.585-1.044c0-0.3-0.084-0.54-0.252-0.721c-0.168-0.18-0.447-0.342-0.837-0.485
						c-0.39-0.145-0.969-0.3-1.737-0.469c-1.044-0.228-1.782-0.558-2.214-0.989c-0.432-0.433-0.648-0.99-0.648-1.675
						c0-0.443,0.132-0.873,0.396-1.286c0.264-0.414,0.657-0.75,1.179-1.009c0.522-0.258,1.143-0.387,1.863-0.387
						c0.756,0,1.401,0.126,1.935,0.378c0.534,0.252,0.936,0.546,1.206,0.882s0.405,0.618,0.405,0.847
						c0,0.107-0.039,0.197-0.117,0.27c-0.078,0.072-0.171,0.108-0.279,0.108h-0.684c-0.168,0-0.288-0.066-0.36-0.198
						c-0.204-0.228-0.375-0.405-0.513-0.531c-0.138-0.126-0.339-0.233-0.603-0.324c-0.264-0.09-0.594-0.135-0.99-0.135
						c-0.588,0-1.038,0.123-1.35,0.369s-0.468,0.573-0.468,0.981c0,0.252,0.066,0.465,0.198,0.639
						c0.132,0.174,0.384,0.336,0.756,0.486c0.372,0.149,0.924,0.303,1.656,0.459c1.14,0.24,1.947,0.582,2.421,1.025
						c0.474,0.444,0.711,1.015,0.711,1.71c0,0.517-0.147,0.984-0.441,1.404s-0.732,0.75-1.314,0.99
						c-0.582,0.239-1.275,0.359-2.079,0.359C572.524,352.643,571.825,352.508,571.255,352.238z"/>
					<path fill="#3A54F5" d="M579.427,352.346c-0.078-0.078-0.117-0.177-0.117-0.297v-11.952c0-0.132,0.039-0.233,0.117-0.306
						s0.177-0.108,0.297-0.108h0.792c0.12,0,0.219,0.039,0.297,0.117c0.078,0.078,0.117,0.178,0.117,0.297v11.952
						c0,0.12-0.039,0.219-0.117,0.297c-0.078,0.078-0.177,0.117-0.297,0.117h-0.792
						C579.604,352.463,579.505,352.424,579.427,352.346z"/>
					<path fill="#3A54F5" d="M584.593,352.283c-0.498-0.24-0.894-0.567-1.188-0.981s-0.441-0.873-0.441-1.377
						c0-0.792,0.324-1.439,0.972-1.944c0.648-0.504,1.53-0.84,2.646-1.008l2.7-0.378v-0.521c0-1.236-0.714-1.854-2.142-1.854
						c-0.552,0-0.996,0.111-1.332,0.333c-0.336,0.223-0.582,0.483-0.738,0.783c-0.048,0.12-0.099,0.201-0.153,0.243
						c-0.054,0.042-0.129,0.062-0.225,0.062h-0.702c-0.108,0-0.201-0.038-0.279-0.117c-0.078-0.077-0.117-0.171-0.117-0.278
						c0-0.276,0.129-0.597,0.387-0.963c0.258-0.366,0.657-0.685,1.197-0.954c0.54-0.271,1.2-0.405,1.98-0.405
						c1.344,0,2.307,0.312,2.889,0.937c0.582,0.624,0.873,1.403,0.873,2.34v5.85c0,0.12-0.039,0.219-0.117,0.297
						s-0.177,0.117-0.297,0.117h-0.792c-0.12,0-0.216-0.039-0.288-0.117s-0.108-0.177-0.108-0.297v-0.792
						c-0.264,0.396-0.648,0.727-1.152,0.99c-0.504,0.264-1.152,0.396-1.944,0.396C585.634,352.643,585.091,352.522,584.593,352.283z
						 M588.526,350.555c0.504-0.516,0.756-1.266,0.756-2.25v-0.504l-2.106,0.306c-0.864,0.12-1.518,0.324-1.962,0.612
						c-0.444,0.288-0.666,0.648-0.666,1.08c0,0.492,0.201,0.87,0.603,1.134c0.402,0.265,0.879,0.396,1.431,0.396
						C587.374,351.329,588.022,351.071,588.526,350.555z"/>
					<path fill="#3A54F5" d="M593.646,352.346c-0.078-0.078-0.117-0.177-0.117-0.297v-8.532c0-0.119,0.039-0.219,0.117-0.297
						s0.177-0.117,0.297-0.117h0.774c0.132,0,0.234,0.036,0.306,0.108c0.072,0.072,0.108,0.174,0.108,0.306v0.792
						c0.36-0.443,0.777-0.785,1.251-1.025c0.474-0.24,1.064-0.36,1.773-0.36c1.152,0,2.046,0.369,2.682,1.107
						c0.636,0.737,0.954,1.713,0.954,2.925v5.094c0,0.12-0.039,0.219-0.117,0.297c-0.078,0.078-0.177,0.117-0.297,0.117h-0.828
						c-0.12,0-0.219-0.039-0.297-0.117c-0.079-0.078-0.117-0.177-0.117-0.297v-4.986c0-0.863-0.21-1.535-0.63-2.016
						c-0.42-0.479-1.021-0.72-1.8-0.72c-0.768,0-1.38,0.243-1.836,0.729c-0.456,0.486-0.684,1.155-0.684,2.007v4.986
						c0,0.12-0.039,0.219-0.117,0.297c-0.078,0.078-0.177,0.117-0.297,0.117h-0.828
						C593.824,352.463,593.725,352.424,593.646,352.346z"/>
					<path fill="#3A54F5" d="M604.986,351.419c-0.63-0.816-0.969-1.848-1.017-3.096l-0.018-0.54l0.018-0.54
						c0.048-1.236,0.39-2.266,1.026-3.087c0.636-0.822,1.578-1.233,2.826-1.233s2.22,0.444,2.916,1.332v-4.158
						c0-0.119,0.039-0.219,0.117-0.297c0.078-0.078,0.177-0.117,0.297-0.117h0.81c0.12,0,0.219,0.039,0.297,0.117
						c0.078,0.078,0.117,0.178,0.117,0.297v11.952c0,0.12-0.04,0.219-0.117,0.297c-0.078,0.078-0.177,0.117-0.297,0.117h-0.774
						c-0.12,0-0.216-0.039-0.288-0.117c-0.072-0.078-0.108-0.177-0.108-0.297v-0.774c-0.684,0.912-1.674,1.368-2.97,1.368
						C606.561,352.643,605.616,352.235,604.986,351.419z M610.053,350.402c0.42-0.559,0.648-1.222,0.684-1.989
						c0.012-0.132,0.018-0.36,0.018-0.685c0-0.335-0.006-0.569-0.018-0.701c-0.024-0.732-0.255-1.365-0.693-1.899
						c-0.438-0.534-1.065-0.801-1.881-0.801c-0.864,0-1.494,0.27-1.89,0.81s-0.612,1.248-0.648,2.124l-0.018,0.522
						c0,2.304,0.852,3.456,2.556,3.456C609.003,351.239,609.633,350.96,610.053,350.402z"/>
					<path fill="#3A54F5" d="M548.971,370.938c-0.834-0.87-1.281-2.061-1.341-3.573c-0.012-0.324-0.018-0.852-0.018-1.584
						c0-0.744,0.006-1.283,0.018-1.62c0.06-1.512,0.507-2.702,1.341-3.572s2.049-1.306,3.645-1.306c1.068,0,1.974,0.189,2.718,0.567
						s1.305,0.873,1.683,1.485c0.378,0.611,0.585,1.266,0.621,1.962c0,0.107-0.039,0.194-0.117,0.261s-0.171,0.099-0.279,0.099h-0.9
						c-0.12,0-0.216-0.029-0.288-0.09c-0.072-0.06-0.126-0.162-0.162-0.306c-0.204-0.924-0.573-1.572-1.107-1.944
						c-0.534-0.372-1.257-0.558-2.169-0.558c-2.088,0-3.174,1.164-3.258,3.492c-0.012,0.323-0.018,0.821-0.018,1.493
						c0,0.673,0.006,1.183,0.018,1.53c0.083,2.316,1.17,3.474,3.258,3.474c0.9,0,1.62-0.186,2.16-0.558s0.912-1.014,1.116-1.926
						c0.036-0.145,0.09-0.246,0.162-0.306c0.072-0.061,0.168-0.091,0.288-0.091h0.9c0.108,0,0.201,0.033,0.279,0.1
						c0.078,0.065,0.117,0.152,0.117,0.261c-0.036,0.696-0.243,1.35-0.621,1.962s-0.939,1.107-1.683,1.485s-1.65,0.566-2.718,0.566
						C551.02,372.242,549.805,371.808,548.971,370.938z"/>
					<path fill="#3A54F5" d="M560.599,371.127c-0.714-0.744-1.095-1.734-1.143-2.971l-0.018-0.773l0.018-0.774
						c0.048-1.235,0.435-2.226,1.161-2.97c0.726-0.744,1.737-1.116,3.033-1.116s2.307,0.372,3.033,1.116
						c0.726,0.744,1.113,1.734,1.161,2.97c0.024,0.265,0.036,0.522,0.036,0.774s-0.012,0.51-0.036,0.773
						c-0.048,1.236-0.429,2.227-1.143,2.971c-0.714,0.744-1.731,1.115-3.051,1.115C562.33,372.242,561.313,371.871,560.599,371.127z
						 M565.477,370.163c0.45-0.485,0.693-1.185,0.729-2.097c0.012-0.12,0.018-0.348,0.018-0.684s-0.006-0.564-0.018-0.685
						c-0.036-0.911-0.279-1.61-0.729-2.097c-0.45-0.486-1.059-0.729-1.827-0.729s-1.377,0.243-1.827,0.729
						c-0.45,0.486-0.693,1.186-0.729,2.097l-0.018,0.685l0.018,0.684c0.036,0.912,0.279,1.611,0.729,2.097
						c0.45,0.486,1.059,0.729,1.827,0.729S565.027,370.649,565.477,370.163z"/>
					<path fill="#3A54F5" d="M570.994,371.136c-0.624-0.738-0.936-1.72-0.936-2.943v-5.076c0-0.119,0.039-0.219,0.117-0.297
						s0.177-0.117,0.297-0.117h0.828c0.12,0,0.219,0.039,0.297,0.117s0.117,0.178,0.117,0.297v4.986
						c0,1.824,0.792,2.736,2.376,2.736c0.768,0,1.377-0.243,1.827-0.729c0.45-0.486,0.675-1.154,0.675-2.007v-4.986
						c0-0.119,0.039-0.219,0.117-0.297c0.078-0.078,0.177-0.117,0.297-0.117h0.828c0.12,0,0.219,0.039,0.297,0.117
						s0.117,0.178,0.117,0.297v8.532c0,0.12-0.039,0.219-0.117,0.297s-0.177,0.117-0.297,0.117h-0.774
						c-0.12,0-0.219-0.039-0.297-0.117s-0.117-0.177-0.117-0.297v-0.81c-0.348,0.468-0.756,0.818-1.224,1.053
						c-0.468,0.234-1.062,0.351-1.782,0.351C572.5,372.242,571.618,371.873,570.994,371.136z"/>
					<path fill="#3A54F5" d="M581.064,371.945c-0.078-0.078-0.117-0.177-0.117-0.297v-8.532c0-0.119,0.039-0.219,0.117-0.297
						s0.177-0.117,0.297-0.117h0.774c0.132,0,0.234,0.036,0.306,0.108c0.072,0.072,0.108,0.174,0.108,0.306v0.792
						c0.36-0.443,0.777-0.785,1.251-1.025c0.474-0.24,1.064-0.36,1.773-0.36c1.152,0,2.046,0.369,2.682,1.107
						c0.636,0.737,0.954,1.713,0.954,2.925v5.094c0,0.12-0.039,0.219-0.117,0.297c-0.078,0.078-0.177,0.117-0.297,0.117h-0.828
						c-0.12,0-0.219-0.039-0.297-0.117c-0.079-0.078-0.117-0.177-0.117-0.297v-4.986c0-0.863-0.21-1.535-0.63-2.016
						c-0.42-0.479-1.021-0.72-1.8-0.72c-0.768,0-1.38,0.243-1.836,0.729c-0.456,0.486-0.684,1.155-0.684,2.007v4.986
						c0,0.12-0.039,0.219-0.117,0.297c-0.078,0.078-0.177,0.117-0.297,0.117h-0.828
						C581.242,372.062,581.143,372.023,581.064,371.945z"/>
					<path fill="#3A54F5" d="M592.504,368.912v-4.823h-1.422c-0.12,0-0.216-0.036-0.288-0.108c-0.072-0.072-0.108-0.168-0.108-0.288
						v-0.576c0-0.119,0.036-0.219,0.108-0.297c0.072-0.078,0.167-0.117,0.288-0.117h1.422v-3.006c0-0.119,0.036-0.219,0.108-0.297
						c0.072-0.078,0.168-0.117,0.288-0.117h0.792c0.12,0,0.219,0.039,0.297,0.117s0.117,0.178,0.117,0.297v3.006h2.232
						c0.12,0,0.219,0.039,0.297,0.117s0.117,0.178,0.117,0.297v0.576c0,0.12-0.039,0.216-0.117,0.288s-0.177,0.108-0.297,0.108
						h-2.232v4.697c0,0.612,0.099,1.074,0.297,1.387c0.198,0.312,0.537,0.468,1.017,0.468h1.098c0.12,0,0.216,0.039,0.288,0.117
						c0.072,0.078,0.108,0.177,0.108,0.297v0.594c0,0.12-0.036,0.219-0.108,0.297c-0.072,0.078-0.168,0.117-0.288,0.117h-1.224
						C593.434,372.062,592.504,371.013,592.504,368.912z"/>
					<path fill="#3A54F5" d="M599.452,371.1c-0.732-0.762-1.134-1.803-1.206-3.123l-0.018-0.612l0.018-0.594
						c0.072-1.296,0.474-2.328,1.206-3.096c0.732-0.769,1.71-1.152,2.934-1.152c1.32,0,2.343,0.42,3.069,1.26
						c0.726,0.841,1.089,1.98,1.089,3.42v0.324c0,0.12-0.039,0.219-0.117,0.297c-0.078,0.078-0.177,0.117-0.297,0.117h-6.246v0.162
						c0.036,0.78,0.276,1.446,0.72,1.998s1.032,0.828,1.764,0.828c0.564,0,1.023-0.111,1.377-0.333s0.621-0.453,0.801-0.693
						c0.108-0.144,0.192-0.23,0.252-0.261c0.06-0.03,0.162-0.045,0.306-0.045h0.792c0.108,0,0.201,0.03,0.279,0.09
						c0.078,0.061,0.117,0.138,0.117,0.234c0,0.264-0.162,0.582-0.486,0.953c-0.324,0.373-0.783,0.693-1.377,0.964
						c-0.594,0.27-1.275,0.404-2.043,0.404C601.162,372.242,600.184,371.861,599.452,371.1z M604.906,366.717v-0.055
						c0-0.84-0.228-1.523-0.684-2.052c-0.456-0.527-1.068-0.792-1.836-0.792c-0.78,0-1.392,0.265-1.836,0.792
						c-0.444,0.528-0.666,1.212-0.666,2.052v0.055H604.906z"/>
					<path fill="#3A54F5" d="M608.856,371.945c-0.078-0.078-0.117-0.177-0.117-0.297v-8.514c0-0.12,0.039-0.223,0.117-0.307
						c0.078-0.083,0.177-0.126,0.297-0.126h0.756c0.132,0,0.237,0.039,0.315,0.117s0.117,0.184,0.117,0.315v0.792
						c0.492-0.816,1.326-1.225,2.502-1.225h0.702c0.132,0,0.234,0.036,0.306,0.108c0.072,0.072,0.108,0.174,0.108,0.306v0.666
						c0,0.12-0.036,0.22-0.108,0.297c-0.072,0.078-0.174,0.117-0.306,0.117h-1.026c-0.66,0-1.179,0.192-1.557,0.576
						c-0.378,0.384-0.567,0.906-0.567,1.566v5.31c0,0.12-0.042,0.219-0.126,0.297s-0.186,0.117-0.306,0.117h-0.81
						C609.033,372.062,608.934,372.023,608.856,371.945z"/>
				</g>
			</g>
		</g>
	</g>
	<g display="inline">
		<g id="POLYLINE_1049_">
			
				<line fill="none" stroke="#3A54F5" stroke-width="2" stroke-linecap="round" stroke-linejoin="round" stroke-miterlimit="10" x1="654.43" y1="449.405" x2="654.43" y2="383"/>
		</g>
		<g id="LINE_70_">
			
				<line fill="none" stroke="#3A54F5" stroke-width="2" stroke-linecap="round" stroke-linejoin="round" stroke-miterlimit="10" x1="654.43" y1="331.567" x2="654.43" y2="313.779"/>
		</g>
		<g id="POLYLINE_1048_">
			
				<polyline fill="none" stroke="#3A54F5" stroke-width="2" stroke-linecap="round" stroke-linejoin="round" stroke-miterlimit="10" points="
				647.802,320.408 654.43,313.779 661.058,320.408 			"/>
		</g>
		<g id="POLYLINE_1047_">
			
				<polyline fill="none" stroke="#3A54F5" stroke-width="2" stroke-linecap="round" stroke-linejoin="round" stroke-miterlimit="10" points="
				661.058,442.778 654.43,449.405 647.802,442.778 			"/>
		</g>
		<g id="MTEXT_81_">
			<g>
				<g>
					<g>
						<path fill="#3A54F5" d="M648.328,353.004c-0.684-0.306-1.203-0.704-1.557-1.196s-0.543-1.002-0.567-1.53
							c0-0.108,0.036-0.195,0.108-0.261c0.072-0.066,0.162-0.1,0.27-0.1h0.81c0.132,0,0.24,0.027,0.324,0.081
							c0.083,0.054,0.15,0.159,0.198,0.315c0.156,0.611,0.495,1.044,1.017,1.296s1.137,0.378,1.845,0.378
							c0.864,0,1.551-0.207,2.061-0.621c0.51-0.414,0.765-1.005,0.765-1.773c0-1.464-0.894-2.195-2.682-2.195h-1.692
							c-0.12,0-0.219-0.039-0.297-0.117s-0.117-0.177-0.117-0.297v-0.468c0-0.181,0.066-0.336,0.198-0.469l3.51-3.888h-5.328
							c-0.12,0-0.219-0.036-0.297-0.108c-0.078-0.071-0.117-0.168-0.117-0.287v-0.648c0-0.132,0.039-0.237,0.117-0.315
							c0.078-0.077,0.177-0.116,0.297-0.116h7.128c0.132,0,0.237,0.039,0.315,0.116c0.078,0.078,0.117,0.184,0.117,0.315v0.594
							c0,0.133-0.061,0.271-0.18,0.414l-3.51,3.942h0.288c1.224,0.036,2.193,0.354,2.907,0.954c0.714,0.6,1.071,1.476,1.071,2.628
							c0,0.792-0.195,1.473-0.585,2.043c-0.39,0.57-0.933,1.008-1.629,1.313c-0.696,0.307-1.482,0.459-2.358,0.459
							C649.822,353.463,649.012,353.311,648.328,353.004z"/>
						<path fill="#3A54F5" d="M657.292,343.824c-0.048-0.065-0.066-0.159-0.054-0.279l0.396-2.52
							c0.048-0.348,0.216-0.522,0.504-0.522h1.152c0.083,0,0.153,0.03,0.207,0.09c0.054,0.061,0.081,0.133,0.081,0.217
							c0,0.12-0.018,0.216-0.054,0.288l-0.936,2.43c-0.06,0.132-0.126,0.231-0.198,0.297c-0.072,0.066-0.18,0.099-0.324,0.099
							h-0.558C657.411,343.923,657.339,343.891,657.292,343.824z"/>
						<path fill="#3A54F5" d="M667.218,353.166c-0.078-0.078-0.117-0.177-0.117-0.297v-2.628h-5.85c-0.12,0-0.219-0.039-0.297-0.117
							s-0.117-0.177-0.117-0.297v-0.666c0-0.168,0.066-0.348,0.198-0.54l5.418-7.632c0.06-0.096,0.15-0.171,0.27-0.225
							c0.12-0.055,0.252-0.081,0.396-0.081h1.224c0.132,0,0.234,0.035,0.306,0.107c0.072,0.072,0.108,0.174,0.108,0.307v7.632h1.638
							c0.12,0,0.219,0.039,0.297,0.117c0.078,0.078,0.117,0.177,0.117,0.297v0.684c0,0.12-0.039,0.219-0.117,0.297
							c-0.078,0.078-0.177,0.117-0.297,0.117h-1.638v2.628c0,0.12-0.039,0.219-0.117,0.297s-0.177,0.117-0.297,0.117h-0.828
							C667.395,353.283,667.296,353.244,667.218,353.166z M662.709,348.766h4.41v-6.265L662.709,348.766z"/>
						<path fill="#3A54F5" d="M672.492,343.815c-0.054-0.072-0.069-0.162-0.045-0.271l0.396-2.52
							c0.048-0.348,0.216-0.522,0.504-0.522h1.152c0.083,0,0.153,0.03,0.207,0.09c0.054,0.061,0.081,0.133,0.081,0.217
							c0,0.12-0.018,0.216-0.054,0.288l-0.936,2.43c-0.06,0.132-0.126,0.231-0.198,0.297c-0.072,0.066-0.18,0.099-0.324,0.099
							h-0.558C672.621,343.923,672.546,343.887,672.492,343.815z M675.318,343.815c-0.054-0.072-0.069-0.162-0.045-0.271l0.396-2.52
							c0.048-0.348,0.216-0.522,0.504-0.522h1.152c0.084,0,0.153,0.03,0.207,0.09c0.054,0.061,0.081,0.133,0.081,0.217
							c0,0.12-0.018,0.216-0.054,0.288l-0.936,2.43c-0.061,0.132-0.126,0.231-0.198,0.297c-0.072,0.066-0.18,0.099-0.324,0.099
							h-0.558C675.447,343.923,675.373,343.887,675.318,343.815z"/>
						<path fill="#3A54F5" d="M650.11,372.766c-0.072-0.078-0.108-0.177-0.108-0.297v-10.152l-3.024,2.322
							c-0.084,0.072-0.174,0.108-0.27,0.108c-0.108,0-0.21-0.061-0.306-0.181l-0.432-0.558c-0.06-0.084-0.09-0.168-0.09-0.252
							c0-0.132,0.06-0.24,0.18-0.324l3.906-3.023c0.132-0.084,0.288-0.126,0.468-0.126h0.846c0.12,0,0.219,0.039,0.297,0.116
							c0.078,0.078,0.117,0.178,0.117,0.298v11.771c0,0.12-0.039,0.219-0.117,0.297s-0.177,0.117-0.297,0.117h-0.882
							C650.278,372.883,650.182,372.844,650.11,372.766z"/>
						<path fill="#3A54F5" d="M654.42,372.766c-0.078-0.078-0.117-0.177-0.117-0.297v-1.242c0-0.119,0.039-0.222,0.117-0.306
							s0.177-0.126,0.297-0.126h1.242c0.12,0,0.219,0.042,0.297,0.126s0.117,0.187,0.117,0.306v1.242
							c0,0.12-0.039,0.219-0.117,0.297s-0.177,0.117-0.297,0.117h-1.242C654.598,372.883,654.499,372.844,654.42,372.766z"/>
						<path fill="#3A54F5" d="M659.586,371.704c-0.714-0.906-1.095-2.091-1.143-3.556l-0.018-1.548l0.018-1.602
							c0.036-1.452,0.417-2.631,1.143-3.537s1.857-1.359,3.393-1.359c1.548,0,2.685,0.453,3.411,1.359
							c0.726,0.906,1.107,2.085,1.143,3.537c0.012,0.336,0.018,0.87,0.018,1.602c0,0.708-0.006,1.225-0.018,1.548
							c-0.048,1.465-0.429,2.649-1.143,3.556c-0.714,0.906-1.851,1.358-3.411,1.358C661.432,373.062,660.3,372.61,659.586,371.704z
							 M665.067,370.65c0.468-0.611,0.714-1.476,0.738-2.592c0.012-0.348,0.018-0.846,0.018-1.494c0-0.659-0.006-1.151-0.018-1.476
							c-0.024-1.104-0.273-1.965-0.747-2.583c-0.474-0.618-1.167-0.927-2.079-0.927c-0.912,0-1.602,0.309-2.07,0.927
							c-0.468,0.618-0.714,1.479-0.738,2.583l-0.018,1.476l0.018,1.494c0.024,1.116,0.27,1.98,0.738,2.592
							c0.468,0.612,1.158,0.918,2.07,0.918C663.903,371.568,664.6,371.263,665.067,370.65z"/>
						<path fill="#3A54F5" d="M669.685,372.766c-0.078-0.078-0.117-0.177-0.117-0.297v-0.54c0-0.275,0.15-0.54,0.45-0.792
							l3.924-3.906c0.888-0.756,1.5-1.374,1.836-1.854s0.504-0.99,0.504-1.53c0-0.708-0.198-1.263-0.594-1.665
							c-0.396-0.401-0.972-0.603-1.728-0.603c-0.72,0-1.29,0.21-1.71,0.63s-0.678,0.984-0.774,1.691
							c-0.024,0.133-0.084,0.234-0.18,0.307s-0.192,0.107-0.288,0.107h-0.864c-0.108,0-0.198-0.035-0.27-0.107
							s-0.108-0.156-0.108-0.252c0.024-0.636,0.195-1.251,0.513-1.846c0.318-0.594,0.789-1.079,1.413-1.458
							c0.624-0.378,1.38-0.566,2.268-0.566c1.344,0,2.355,0.351,3.033,1.053c0.678,0.702,1.017,1.593,1.017,2.673
							c0,0.756-0.183,1.438-0.549,2.043c-0.366,0.606-0.939,1.245-1.719,1.917l-3.546,3.601h5.67c0.132,0,0.234,0.036,0.306,0.107
							c0.072,0.072,0.108,0.175,0.108,0.307v0.684c0,0.12-0.04,0.219-0.117,0.297c-0.078,0.078-0.177,0.117-0.297,0.117h-7.884
							C669.861,372.883,669.763,372.844,669.685,372.766z"/>
						<path fill="#3A54F5" d="M685.092,372.766c-0.078-0.078-0.117-0.177-0.117-0.297v-8.532c0-0.119,0.039-0.219,0.117-0.297
							s0.177-0.117,0.297-0.117h0.756c0.12,0,0.216,0.039,0.288,0.117c0.072,0.078,0.108,0.178,0.108,0.297v0.612
							c0.648-0.804,1.524-1.206,2.628-1.206c1.32,0,2.256,0.552,2.808,1.656c0.288-0.504,0.699-0.906,1.233-1.206
							c0.534-0.3,1.131-0.45,1.791-0.45c0.984,0,1.788,0.336,2.412,1.008c0.624,0.673,0.936,1.645,0.936,2.916v5.202
							c0,0.12-0.039,0.219-0.117,0.297s-0.177,0.117-0.297,0.117h-0.774c-0.12,0-0.219-0.039-0.297-0.117s-0.117-0.177-0.117-0.297
							v-5.04c0-0.96-0.198-1.646-0.594-2.061s-0.918-0.621-1.566-0.621c-0.576,0-1.071,0.213-1.485,0.639s-0.621,1.107-0.621,2.043
							v5.04c0,0.12-0.039,0.219-0.117,0.297s-0.177,0.117-0.297,0.117h-0.792c-0.12,0-0.219-0.039-0.297-0.117
							c-0.078-0.078-0.117-0.177-0.117-0.297v-5.04c0-0.947-0.207-1.632-0.621-2.052c-0.414-0.42-0.927-0.63-1.539-0.63
							c-0.576,0-1.071,0.21-1.485,0.63s-0.621,1.098-0.621,2.034v5.058c0,0.12-0.04,0.219-0.117,0.297
							c-0.078,0.078-0.177,0.117-0.297,0.117h-0.792C685.27,372.883,685.17,372.844,685.092,372.766z"/>
					</g>
				</g>
			</g>
		</g>
	</g>
	<g display="inline">
		<g id="POLYLINE_1046_">
			
				<line fill="none" stroke="#3A54F5" stroke-width="2" stroke-linecap="round" stroke-linejoin="round" stroke-miterlimit="10" x1="88.43" y1="448.405" x2="88.43" y2="333.533"/>
		</g>
		<g id="LINE_69_">
			
				<line fill="none" stroke="#3A54F5" stroke-width="2" stroke-linecap="round" stroke-linejoin="round" stroke-miterlimit="10" x1="88.43" y1="282.567" x2="88.43" y2="97.779"/>
		</g>
		<g id="POLYLINE_1045_">
			
				<polyline fill="none" stroke="#3A54F5" stroke-width="2" stroke-linecap="round" stroke-linejoin="round" stroke-miterlimit="10" points="
				81.802,104.408 88.43,97.779 95.058,104.408 			"/>
		</g>
		<g id="POLYLINE_1044_">
			
				<polyline fill="none" stroke="#3A54F5" stroke-width="2" stroke-linecap="round" stroke-linejoin="round" stroke-miterlimit="10" points="
				95.058,441.778 88.43,448.405 81.802,441.778 			"/>
		</g>
		<g id="MTEXT_80_">
			<g>
				<g>
					<g>
						<path fill="#3A54F5" d="M58.244,304.004c-0.714-0.306-1.269-0.747-1.665-1.322c-0.396-0.576-0.594-1.248-0.594-2.017
							c0-0.708,0.177-1.329,0.531-1.863c0.354-0.533,0.831-0.944,1.431-1.232c-0.48-0.276-0.853-0.639-1.116-1.089
							c-0.264-0.45-0.396-0.981-0.396-1.594c0-1.044,0.39-1.868,1.17-2.475c0.78-0.605,1.806-0.909,3.078-0.909
							s2.295,0.301,3.069,0.9s1.161,1.428,1.161,2.483c0,0.601-0.132,1.125-0.396,1.575c-0.264,0.45-0.63,0.819-1.098,1.107
							c0.6,0.288,1.077,0.699,1.431,1.232c0.354,0.534,0.531,1.161,0.531,1.882c0,0.768-0.198,1.437-0.594,2.007
							s-0.951,1.008-1.665,1.313c-0.714,0.307-1.527,0.459-2.439,0.459C59.771,304.463,58.958,304.311,58.244,304.004z
							 M62.815,302.411c0.57-0.432,0.855-1.008,0.855-1.728c0-0.721-0.285-1.297-0.855-1.729s-1.281-0.647-2.133-0.647
							c-0.864,0-1.581,0.216-2.151,0.647c-0.57,0.432-0.855,1.008-0.855,1.729c0,0.72,0.285,1.296,0.855,1.728
							c0.57,0.432,1.287,0.648,2.151,0.648C61.535,303.06,62.246,302.843,62.815,302.411z M62.537,296.363
							c0.504-0.36,0.756-0.84,0.756-1.44c0-0.611-0.249-1.101-0.747-1.467s-1.119-0.549-1.863-0.549
							c-0.756,0-1.38,0.183-1.872,0.549c-0.492,0.366-0.738,0.855-0.738,1.467c0,0.612,0.246,1.102,0.738,1.468
							c0.492,0.366,1.116,0.549,1.872,0.549C61.415,296.915,62.033,296.724,62.537,296.363z"/>
						<path fill="#3A54F5" d="M67.486,294.824c-0.048-0.065-0.066-0.159-0.054-0.279l0.396-2.52
							c0.048-0.348,0.216-0.522,0.504-0.522h1.152c0.083,0,0.153,0.03,0.207,0.09c0.054,0.061,0.081,0.133,0.081,0.217
							c0,0.12-0.018,0.216-0.054,0.288l-0.936,2.43c-0.06,0.132-0.126,0.231-0.198,0.297c-0.072,0.066-0.18,0.099-0.324,0.099
							h-0.558C67.606,294.923,67.534,294.891,67.486,294.824z"/>
						<path fill="#3A54F5" d="M75.154,304.166c-0.072-0.078-0.108-0.177-0.108-0.297v-10.152l-3.024,2.322
							c-0.084,0.072-0.174,0.108-0.27,0.108c-0.108,0-0.21-0.061-0.306-0.181l-0.432-0.558c-0.06-0.084-0.09-0.168-0.09-0.252
							c0-0.132,0.06-0.24,0.18-0.324l3.906-3.023c0.132-0.084,0.288-0.126,0.468-0.126h0.846c0.12,0,0.219,0.039,0.297,0.116
							c0.078,0.078,0.117,0.178,0.117,0.298v11.771c0,0.12-0.039,0.219-0.117,0.297s-0.177,0.117-0.297,0.117h-0.882
							C75.322,304.283,75.226,304.244,75.154,304.166z"/>
						<path fill="#3A54F5" d="M80.419,303.104c-0.714-0.906-1.095-2.091-1.143-3.556l-0.018-1.548l0.018-1.602
							c0.036-1.452,0.417-2.631,1.143-3.537s1.857-1.359,3.393-1.359c1.548,0,2.685,0.453,3.411,1.359
							c0.726,0.906,1.107,2.085,1.143,3.537c0.012,0.336,0.018,0.87,0.018,1.602c0,0.708-0.006,1.225-0.018,1.548
							c-0.048,1.465-0.429,2.649-1.143,3.556c-0.714,0.906-1.851,1.358-3.411,1.358C82.264,304.463,81.133,304.011,80.419,303.104z
							 M85.9,302.051c0.468-0.611,0.714-1.476,0.738-2.592c0.012-0.348,0.018-0.846,0.018-1.494c0-0.659-0.006-1.151-0.018-1.476
							c-0.024-1.104-0.273-1.965-0.747-2.583c-0.474-0.618-1.167-0.927-2.079-0.927c-0.912,0-1.602,0.309-2.07,0.927
							c-0.468,0.618-0.714,1.479-0.738,2.583l-0.018,1.476l0.018,1.494c0.024,1.116,0.27,1.98,0.738,2.592
							c0.468,0.612,1.158,0.918,2.07,0.918C84.736,302.969,85.432,302.663,85.9,302.051z"/>
						<path fill="#3A54F5" d="M90.607,294.815c-0.054-0.072-0.069-0.162-0.045-0.271l0.396-2.52
							c0.048-0.348,0.216-0.522,0.504-0.522h1.152c0.083,0,0.153,0.03,0.207,0.09c0.054,0.061,0.081,0.133,0.081,0.217
							c0,0.12-0.018,0.216-0.054,0.288l-0.936,2.43c-0.06,0.132-0.126,0.231-0.198,0.297c-0.072,0.066-0.18,0.099-0.324,0.099
							h-0.558C90.736,294.923,90.661,294.887,90.607,294.815z M93.433,294.815c-0.054-0.072-0.069-0.162-0.045-0.271l0.396-2.52
							c0.048-0.348,0.216-0.522,0.504-0.522h1.152c0.084,0,0.153,0.03,0.207,0.09c0.054,0.061,0.081,0.133,0.081,0.217
							c0,0.12-0.018,0.216-0.054,0.288l-0.936,2.43c-0.061,0.132-0.126,0.231-0.198,0.297c-0.072,0.066-0.18,0.099-0.324,0.099
							h-0.558C93.562,294.923,93.487,294.887,93.433,294.815z"/>
						<path fill="#3A54F5" d="M40.784,323.766c-0.078-0.078-0.117-0.177-0.117-0.297v-0.54c0-0.275,0.15-0.54,0.45-0.792
							l3.924-3.906c0.888-0.756,1.5-1.374,1.836-1.854s0.504-0.99,0.504-1.53c0-0.708-0.198-1.263-0.594-1.665
							c-0.396-0.401-0.972-0.603-1.728-0.603c-0.72,0-1.29,0.21-1.71,0.63s-0.678,0.984-0.774,1.691
							c-0.024,0.133-0.084,0.234-0.18,0.307s-0.192,0.107-0.288,0.107h-0.864c-0.108,0-0.198-0.035-0.27-0.107
							s-0.108-0.156-0.108-0.252c0.024-0.636,0.195-1.251,0.513-1.846c0.318-0.594,0.789-1.079,1.413-1.458
							c0.624-0.378,1.38-0.566,2.268-0.566c1.344,0,2.355,0.351,3.033,1.053c0.678,0.702,1.017,1.593,1.017,2.673
							c0,0.756-0.183,1.438-0.549,2.043c-0.366,0.606-0.939,1.245-1.719,1.917l-3.546,3.601h5.67c0.132,0,0.234,0.036,0.306,0.107
							c0.072,0.072,0.108,0.175,0.108,0.307v0.684c0,0.12-0.04,0.219-0.117,0.297c-0.078,0.078-0.177,0.117-0.297,0.117h-7.884
							C40.96,323.883,40.862,323.844,40.784,323.766z"/>
						<path fill="#3A54F5" d="M51.638,323.766c-0.078-0.078-0.117-0.177-0.117-0.297v-1.242c0-0.119,0.039-0.222,0.117-0.306
							s0.177-0.126,0.297-0.126h1.242c0.12,0,0.219,0.042,0.297,0.126s0.117,0.187,0.117,0.306v1.242
							c0,0.12-0.039,0.219-0.117,0.297s-0.177,0.117-0.297,0.117h-1.242C51.815,323.883,51.716,323.844,51.638,323.766z"/>
						<path fill="#3A54F5" d="M57.614,323.478c-0.702-0.39-1.236-0.915-1.602-1.575c-0.366-0.659-0.549-1.379-0.549-2.159
							c0-1.032,0.414-2.136,1.242-3.312l3.438-4.788c0.012-0.012,0.045-0.054,0.099-0.126c0.054-0.072,0.123-0.129,0.207-0.171
							c0.083-0.042,0.18-0.062,0.288-0.062h0.882c0.108,0,0.195,0.039,0.261,0.116c0.066,0.078,0.099,0.172,0.099,0.279
							c0,0.061-0.03,0.139-0.09,0.234l-2.628,3.672c0.312-0.072,0.66-0.108,1.044-0.108c0.875,0,1.647,0.195,2.313,0.585
							c0.666,0.391,1.182,0.906,1.548,1.548c0.366,0.643,0.549,1.348,0.549,2.115c0,0.769-0.183,1.485-0.549,2.151
							c-0.366,0.666-0.897,1.197-1.593,1.593c-0.696,0.396-1.519,0.594-2.466,0.594C59.146,324.062,58.315,323.868,57.614,323.478z
							 M61.546,322.245c0.444-0.216,0.798-0.537,1.062-0.963s0.396-0.939,0.396-1.539c0-0.588-0.135-1.096-0.405-1.521
							s-0.627-0.75-1.071-0.972c-0.444-0.222-0.924-0.333-1.44-0.333s-0.996,0.111-1.44,0.333s-0.798,0.546-1.062,0.972
							s-0.396,0.934-0.396,1.521c0,0.6,0.132,1.113,0.396,1.539s0.618,0.747,1.062,0.963s0.924,0.323,1.44,0.323
							C60.617,322.568,61.103,322.461,61.546,322.245z"/>
						<path fill="#3A54F5" d="M68.611,323.766c-0.066-0.078-0.099-0.171-0.099-0.279c0-0.083,0.024-0.161,0.072-0.233l2.772-3.853
							c-0.288,0.072-0.624,0.108-1.008,0.108c-0.864-0.012-1.62-0.213-2.268-0.603c-0.648-0.391-1.143-0.9-1.485-1.53
							c-0.342-0.63-0.513-1.305-0.513-2.025c0-0.72,0.171-1.403,0.513-2.052c0.342-0.648,0.852-1.176,1.53-1.584
							c0.678-0.408,1.497-0.612,2.457-0.612c0.96,0,1.782,0.198,2.466,0.595c0.684,0.396,1.2,0.915,1.548,1.557
							s0.522,1.329,0.522,2.061c0,0.66-0.117,1.242-0.351,1.746c-0.234,0.504-0.543,1.026-0.927,1.566l-3.492,4.896
							c-0.084,0.108-0.165,0.195-0.243,0.262c-0.078,0.065-0.189,0.099-0.333,0.099h-0.9
							C68.764,323.883,68.677,323.844,68.611,323.766z M72.004,317.745c0.432-0.229,0.774-0.549,1.026-0.963
							s0.378-0.892,0.378-1.432c0-0.552-0.126-1.037-0.378-1.458c-0.252-0.42-0.594-0.744-1.026-0.972s-0.906-0.342-1.422-0.342
							c-0.504,0-0.969,0.114-1.395,0.342c-0.426,0.228-0.765,0.552-1.017,0.972c-0.252,0.421-0.378,0.906-0.378,1.458
							c0,0.54,0.126,1.018,0.378,1.432s0.588,0.734,1.008,0.963c0.42,0.228,0.888,0.342,1.404,0.342
							C71.098,318.087,71.572,317.973,72.004,317.745z"/>
						<path fill="#3A54F5" d="M81.913,323.766c-0.078-0.078-0.117-0.177-0.117-0.297v-8.532c0-0.119,0.039-0.219,0.117-0.297
							s0.177-0.117,0.297-0.117h0.756c0.12,0,0.216,0.039,0.288,0.117c0.072,0.078,0.108,0.178,0.108,0.297v0.612
							c0.648-0.804,1.524-1.206,2.628-1.206c1.32,0,2.256,0.552,2.808,1.656c0.288-0.504,0.699-0.906,1.233-1.206
							c0.534-0.3,1.131-0.45,1.791-0.45c0.984,0,1.788,0.336,2.412,1.008c0.624,0.673,0.936,1.645,0.936,2.916v5.202
							c0,0.12-0.039,0.219-0.117,0.297s-0.177,0.117-0.297,0.117h-0.774c-0.12,0-0.219-0.039-0.297-0.117s-0.117-0.177-0.117-0.297
							v-5.04c0-0.96-0.198-1.646-0.594-2.061s-0.918-0.621-1.566-0.621c-0.576,0-1.071,0.213-1.485,0.639s-0.621,1.107-0.621,2.043
							v5.04c0,0.12-0.039,0.219-0.117,0.297s-0.177,0.117-0.297,0.117h-0.792c-0.12,0-0.219-0.039-0.297-0.117
							c-0.078-0.078-0.117-0.177-0.117-0.297v-5.04c0-0.947-0.207-1.632-0.621-2.052c-0.414-0.42-0.927-0.63-1.539-0.63
							c-0.576,0-1.071,0.21-1.485,0.63s-0.621,1.098-0.621,2.034v5.058c0,0.12-0.04,0.219-0.117,0.297
							c-0.078,0.078-0.177,0.117-0.297,0.117H82.21C82.09,323.883,81.991,323.844,81.913,323.766z"/>
					</g>
				</g>
			</g>
		</g>
	</g>
	<g display="inline">
		<g id="POLYLINE_1043_">
			
				<line fill="none" stroke="#3A54F5" stroke-width="2" stroke-linecap="round" stroke-linejoin="round" stroke-miterlimit="10" x1="631.591" y1="75.244" x2="427" y2="75.244"/>
		</g>
		<g id="LINE_68_">
			
				<line fill="none" stroke="#3A54F5" stroke-width="2" stroke-linecap="round" stroke-linejoin="round" stroke-miterlimit="10" x1="324.048" y1="75.244" x2="109.987" y2="75.244"/>
		</g>
		<g id="POLYLINE_1042_">
			
				<polyline fill="none" stroke="#3A54F5" stroke-width="2" stroke-linecap="round" stroke-linejoin="round" stroke-miterlimit="10" points="
				116.616,81.871 109.987,75.244 116.616,68.615 			"/>
		</g>
		<g id="POLYLINE_1041_">
			
				<polyline fill="none" stroke="#3A54F5" stroke-width="2" stroke-linecap="round" stroke-linejoin="round" stroke-miterlimit="10" points="
				624.964,68.615 631.591,75.244 624.964,81.871 			"/>
		</g>
		<g id="MTEXT_79_">
			<g>
				<g>
					<path fill="#3A54F5" d="M334.103,81.455c-0.072-0.078-0.108-0.177-0.108-0.297V71.006l-3.024,2.322
						c-0.084,0.072-0.174,0.108-0.27,0.108c-0.108,0-0.21-0.061-0.306-0.181l-0.432-0.558c-0.06-0.084-0.09-0.168-0.09-0.252
						c0-0.132,0.06-0.24,0.18-0.324l3.906-3.023c0.132-0.084,0.288-0.126,0.468-0.126h0.846c0.12,0,0.219,0.039,0.297,0.116
						c0.078,0.078,0.117,0.178,0.117,0.298v11.771c0,0.12-0.039,0.219-0.117,0.297s-0.177,0.117-0.297,0.117h-0.882
						C334.271,81.572,334.175,81.533,334.103,81.455z"/>
					<path fill="#3A54F5" d="M339.971,81.293c-0.684-0.306-1.203-0.704-1.557-1.196s-0.543-1.002-0.567-1.53
						c0-0.108,0.036-0.195,0.108-0.261c0.072-0.066,0.162-0.1,0.27-0.1h0.81c0.132,0,0.24,0.027,0.324,0.081
						c0.083,0.054,0.15,0.159,0.198,0.315c0.156,0.611,0.495,1.044,1.017,1.296s1.137,0.378,1.845,0.378
						c0.864,0,1.551-0.207,2.061-0.621c0.51-0.414,0.765-1.005,0.765-1.773c0-1.464-0.894-2.195-2.682-2.195h-1.692
						c-0.12,0-0.219-0.039-0.297-0.117s-0.117-0.177-0.117-0.297v-0.468c0-0.181,0.066-0.336,0.198-0.469l3.51-3.888h-5.328
						c-0.12,0-0.219-0.036-0.297-0.108c-0.078-0.071-0.117-0.168-0.117-0.287v-0.648c0-0.132,0.039-0.237,0.117-0.315
						c0.078-0.077,0.177-0.116,0.297-0.116h7.128c0.132,0,0.237,0.039,0.315,0.116c0.078,0.078,0.117,0.184,0.117,0.315v0.594
						c0,0.133-0.061,0.271-0.18,0.414l-3.51,3.942h0.288c1.224,0.036,2.193,0.354,2.907,0.954c0.714,0.6,1.071,1.476,1.071,2.628
						c0,0.792-0.195,1.473-0.585,2.043c-0.39,0.57-0.933,1.008-1.629,1.313c-0.696,0.307-1.482,0.459-2.358,0.459
						C341.465,81.752,340.655,81.6,339.971,81.293z"/>
					<path fill="#3A54F5" d="M348.935,72.113c-0.048-0.065-0.066-0.159-0.054-0.279l0.396-2.52c0.048-0.348,0.216-0.522,0.504-0.522
						h1.152c0.083,0,0.153,0.03,0.207,0.09c0.054,0.061,0.081,0.133,0.081,0.217c0,0.12-0.018,0.216-0.054,0.288l-0.936,2.43
						c-0.06,0.132-0.126,0.231-0.198,0.297c-0.072,0.066-0.18,0.099-0.324,0.099h-0.558
						C349.054,72.212,348.982,72.18,348.935,72.113z"/>
					<path fill="#3A54F5" d="M357.808,85.199c-0.072-0.078-0.108-0.177-0.108-0.297V65.858c0-0.12,0.036-0.219,0.108-0.297
						s0.168-0.117,0.288-0.117h0.666c0.12,0,0.219,0.039,0.297,0.117s0.117,0.177,0.117,0.297v19.044
						c0,0.12-0.039,0.219-0.117,0.297s-0.177,0.117-0.297,0.117h-0.666C357.976,85.316,357.88,85.277,357.808,85.199z"/>
					<path fill="#3A54F5" d="M367.833,81.293c-0.684-0.306-1.203-0.704-1.557-1.196s-0.543-1.002-0.567-1.53
						c0-0.108,0.036-0.195,0.108-0.261c0.072-0.066,0.162-0.1,0.27-0.1h0.81c0.132,0,0.24,0.027,0.324,0.081
						c0.083,0.054,0.15,0.159,0.198,0.315c0.156,0.611,0.495,1.044,1.017,1.296s1.137,0.378,1.845,0.378
						c0.864,0,1.551-0.207,2.061-0.621c0.51-0.414,0.765-1.005,0.765-1.773c0-1.464-0.894-2.195-2.682-2.195h-1.692
						c-0.12,0-0.219-0.039-0.297-0.117s-0.117-0.177-0.117-0.297v-0.468c0-0.181,0.066-0.336,0.198-0.469l3.51-3.888H366.7
						c-0.12,0-0.219-0.036-0.297-0.108c-0.078-0.071-0.117-0.168-0.117-0.287v-0.648c0-0.132,0.039-0.237,0.117-0.315
						c0.078-0.077,0.177-0.116,0.297-0.116h7.128c0.132,0,0.237,0.039,0.315,0.116c0.078,0.078,0.117,0.184,0.117,0.315v0.594
						c0,0.133-0.061,0.271-0.18,0.414l-3.51,3.942h0.288c1.224,0.036,2.193,0.354,2.907,0.954c0.714,0.6,1.071,1.476,1.071,2.628
						c0,0.792-0.195,1.473-0.585,2.043c-0.39,0.57-0.933,1.008-1.629,1.313c-0.696,0.307-1.482,0.459-2.358,0.459
						C369.328,81.752,368.518,81.6,367.833,81.293z"/>
					<path fill="#3A54F5" d="M377.04,81.455c-0.078-0.078-0.117-0.177-0.117-0.297v-1.242c0-0.119,0.039-0.222,0.117-0.306
						s0.177-0.126,0.297-0.126h1.242c0.12,0,0.219,0.042,0.297,0.126s0.117,0.187,0.117,0.306v1.242c0,0.12-0.039,0.219-0.117,0.297
						s-0.177,0.117-0.297,0.117h-1.242C377.217,81.572,377.118,81.533,377.04,81.455z"/>
					<path fill="#3A54F5" d="M382.621,81.455c-0.066-0.078-0.099-0.171-0.099-0.279c0-0.083,0.024-0.161,0.072-0.233l2.772-3.853
						c-0.288,0.072-0.624,0.108-1.008,0.108c-0.864-0.012-1.62-0.213-2.268-0.603c-0.648-0.391-1.143-0.9-1.485-1.53
						c-0.342-0.63-0.513-1.305-0.513-2.025c0-0.72,0.171-1.403,0.513-2.052c0.342-0.648,0.852-1.176,1.53-1.584
						c0.678-0.408,1.497-0.612,2.457-0.612c0.96,0,1.782,0.198,2.466,0.595c0.684,0.396,1.2,0.915,1.548,1.557
						s0.522,1.329,0.522,2.061c0,0.66-0.117,1.242-0.351,1.746c-0.234,0.504-0.543,1.026-0.927,1.566l-3.492,4.896
						c-0.084,0.108-0.165,0.195-0.243,0.262c-0.078,0.065-0.189,0.099-0.333,0.099h-0.9
						C382.773,81.572,382.687,81.533,382.621,81.455z M386.014,75.435c0.432-0.229,0.774-0.549,1.026-0.963s0.378-0.892,0.378-1.432
						c0-0.552-0.126-1.037-0.378-1.458c-0.252-0.42-0.594-0.744-1.026-0.972s-0.906-0.342-1.422-0.342
						c-0.504,0-0.969,0.114-1.395,0.342c-0.426,0.228-0.765,0.552-1.017,0.972c-0.252,0.421-0.378,0.906-0.378,1.458
						c0,0.54,0.126,1.018,0.378,1.432s0.588,0.734,1.008,0.963c0.42,0.228,0.888,0.342,1.404,0.342
						C385.107,75.776,385.582,75.662,386.014,75.435z"/>
					<path fill="#3A54F5" d="M392.88,81.167c-0.702-0.39-1.236-0.915-1.602-1.575c-0.366-0.659-0.549-1.379-0.549-2.159
						c0-1.032,0.414-2.136,1.242-3.312l3.438-4.788c0.012-0.012,0.045-0.054,0.099-0.126c0.054-0.072,0.123-0.129,0.207-0.171
						c0.083-0.042,0.18-0.062,0.288-0.062h0.882c0.108,0,0.195,0.039,0.261,0.116c0.066,0.078,0.099,0.172,0.099,0.279
						c0,0.061-0.03,0.139-0.09,0.234l-2.628,3.672c0.312-0.072,0.66-0.108,1.044-0.108c0.875,0,1.647,0.195,2.313,0.585
						c0.666,0.391,1.182,0.906,1.548,1.548c0.366,0.643,0.549,1.348,0.549,2.115c0,0.769-0.183,1.485-0.549,2.151
						c-0.366,0.666-0.897,1.197-1.593,1.593c-0.696,0.396-1.519,0.594-2.466,0.594C394.413,81.752,393.582,81.558,392.88,81.167z
						 M396.813,79.935c0.444-0.216,0.798-0.537,1.062-0.963s0.396-0.939,0.396-1.539c0-0.588-0.135-1.096-0.405-1.521
						s-0.627-0.75-1.071-0.972c-0.444-0.222-0.924-0.333-1.44-0.333s-0.996,0.111-1.44,0.333s-0.798,0.546-1.062,0.972
						s-0.396,0.934-0.396,1.521c0,0.6,0.132,1.113,0.396,1.539s0.618,0.747,1.062,0.963s0.924,0.323,1.44,0.323
						C395.883,80.258,396.369,80.15,396.813,79.935z"/>
					<path fill="#3A54F5" d="M406.542,81.455c-0.078-0.078-0.117-0.177-0.117-0.297v-8.532c0-0.119,0.039-0.219,0.117-0.297
						s0.177-0.117,0.297-0.117h0.756c0.12,0,0.216,0.039,0.288,0.117c0.072,0.078,0.108,0.178,0.108,0.297v0.612
						c0.648-0.804,1.524-1.206,2.628-1.206c1.32,0,2.256,0.552,2.808,1.656c0.288-0.504,0.699-0.906,1.233-1.206
						c0.534-0.3,1.131-0.45,1.791-0.45c0.984,0,1.788,0.336,2.412,1.008c0.624,0.673,0.936,1.645,0.936,2.916v5.202
						c0,0.12-0.039,0.219-0.117,0.297s-0.177,0.117-0.297,0.117h-0.774c-0.12,0-0.219-0.039-0.297-0.117s-0.117-0.177-0.117-0.297
						v-5.04c0-0.96-0.198-1.646-0.594-2.061s-0.918-0.621-1.566-0.621c-0.576,0-1.071,0.213-1.485,0.639s-0.621,1.107-0.621,2.043
						v5.04c0,0.12-0.039,0.219-0.117,0.297s-0.177,0.117-0.297,0.117h-0.792c-0.12,0-0.219-0.039-0.297-0.117
						c-0.078-0.078-0.117-0.177-0.117-0.297v-5.04c0-0.947-0.207-1.632-0.621-2.052c-0.414-0.42-0.927-0.63-1.539-0.63
						c-0.576,0-1.071,0.21-1.485,0.63s-0.621,1.098-0.621,2.034v5.058c0,0.12-0.04,0.219-0.117,0.297
						c-0.078,0.078-0.177,0.117-0.297,0.117h-0.792C406.719,81.572,406.62,81.533,406.542,81.455z"/>
				</g>
			</g>
		</g>
	</g>
	<g display="inline">
		<g id="POLYLINE_1040_">
			
				<line fill="none" stroke="#3A54F5" stroke-width="2" stroke-linecap="round" stroke-linejoin="round" stroke-miterlimit="10" x1="620.591" y1="430.244" x2="534" y2="430.244"/>
		</g>
		<g id="LINE_67_">
			
				<line fill="none" stroke="#3A54F5" stroke-width="2" stroke-linecap="round" stroke-linejoin="round" stroke-miterlimit="10" x1="419" y1="430.244" x2="336.987" y2="430.244"/>
		</g>
		<g id="POLYLINE_1039_">
			
				<polyline fill="none" stroke="#3A54F5" stroke-width="2" stroke-linecap="round" stroke-linejoin="round" stroke-miterlimit="10" points="
				343.616,436.871 336.987,430.244 343.616,423.615 			"/>
		</g>
		<g id="POLYLINE_1038_">
			
				<polyline fill="none" stroke="#3A54F5" stroke-width="2" stroke-linecap="round" stroke-linejoin="round" stroke-miterlimit="10" points="
				613.964,423.615 620.591,430.244 613.964,436.871 			"/>
		</g>
		<g id="MTEXT_78_">
			<g>
				<g>
					<path fill="#3A54F5" d="M429.398,436.455c-0.066-0.078-0.099-0.171-0.099-0.279l0.036-0.161l4.5-10.53h-5.94
						c-0.12,0-0.219-0.039-0.297-0.117c-0.078-0.078-0.117-0.177-0.117-0.297v-0.666c0-0.132,0.036-0.237,0.108-0.315
						c0.072-0.077,0.174-0.116,0.306-0.116h7.344c0.132,0,0.234,0.039,0.306,0.116c0.072,0.078,0.108,0.184,0.108,0.315v0.612
						c0,0.216-0.048,0.449-0.144,0.702l-4.446,10.403c-0.06,0.133-0.126,0.24-0.198,0.324c-0.072,0.084-0.174,0.126-0.306,0.126
						h-0.9C429.551,436.572,429.464,436.533,429.398,436.455z"/>
					<path fill="#3A54F5" d="M437.237,427.113c-0.048-0.065-0.066-0.159-0.054-0.279l0.396-2.52
						c0.048-0.348,0.216-0.522,0.504-0.522h1.152c0.083,0,0.153,0.03,0.207,0.09c0.054,0.061,0.081,0.133,0.081,0.217
						c0,0.12-0.018,0.216-0.054,0.288l-0.936,2.43c-0.06,0.132-0.126,0.231-0.198,0.297c-0.072,0.066-0.18,0.099-0.324,0.099h-0.558
						C437.356,427.212,437.285,427.18,437.237,427.113z"/>
					<path fill="#3A54F5" d="M443.258,436.167c-0.702-0.39-1.236-0.915-1.602-1.575c-0.366-0.659-0.549-1.379-0.549-2.159
						c0-1.032,0.414-2.136,1.242-3.312l3.438-4.788c0.012-0.012,0.045-0.054,0.099-0.126c0.054-0.072,0.123-0.129,0.207-0.171
						c0.083-0.042,0.18-0.062,0.288-0.062h0.882c0.108,0,0.195,0.039,0.261,0.116c0.066,0.078,0.099,0.172,0.099,0.279
						c0,0.061-0.03,0.139-0.09,0.234l-2.628,3.672c0.312-0.072,0.66-0.108,1.044-0.108c0.875,0,1.647,0.195,2.313,0.585
						c0.666,0.391,1.182,0.906,1.548,1.548c0.366,0.643,0.549,1.348,0.549,2.115c0,0.769-0.183,1.485-0.549,2.151
						c-0.366,0.666-0.897,1.197-1.593,1.593c-0.696,0.396-1.519,0.594-2.466,0.594C444.791,436.752,443.959,436.558,443.258,436.167
						z M447.19,434.935c0.444-0.216,0.798-0.537,1.062-0.963s0.396-0.939,0.396-1.539c0-0.588-0.135-1.096-0.405-1.521
						s-0.627-0.75-1.071-0.972c-0.444-0.222-0.924-0.333-1.44-0.333s-0.996,0.111-1.44,0.333s-0.798,0.546-1.062,0.972
						s-0.396,0.934-0.396,1.521c0,0.6,0.132,1.113,0.396,1.539s0.618,0.747,1.062,0.963s0.924,0.323,1.44,0.323
						C446.261,435.258,446.747,435.15,447.19,434.935z"/>
					<path fill="#3A54F5" d="M452.113,427.104c-0.054-0.072-0.069-0.162-0.045-0.271l0.396-2.52
						c0.048-0.348,0.216-0.522,0.504-0.522h1.152c0.083,0,0.153,0.03,0.207,0.09c0.054,0.061,0.081,0.133,0.081,0.217
						c0,0.12-0.018,0.216-0.054,0.288l-0.936,2.43c-0.06,0.132-0.126,0.231-0.198,0.297c-0.072,0.066-0.18,0.099-0.324,0.099h-0.558
						C452.242,427.212,452.167,427.176,452.113,427.104z M454.939,427.104c-0.054-0.072-0.069-0.162-0.045-0.271l0.396-2.52
						c0.048-0.348,0.216-0.522,0.504-0.522h1.152c0.084,0,0.153,0.03,0.207,0.09c0.054,0.061,0.081,0.133,0.081,0.217
						c0,0.12-0.018,0.216-0.054,0.288l-0.936,2.43c-0.061,0.132-0.126,0.231-0.198,0.297c-0.072,0.066-0.18,0.099-0.324,0.099
						h-0.558C455.068,427.212,454.994,427.176,454.939,427.104z"/>
					<path fill="#3A54F5" d="M463.822,440.199c-0.072-0.078-0.108-0.177-0.108-0.297v-19.044c0-0.12,0.036-0.219,0.108-0.297
						s0.168-0.117,0.288-0.117h0.666c0.12,0,0.219,0.039,0.297,0.117s0.117,0.177,0.117,0.297v19.044
						c0,0.12-0.039,0.219-0.117,0.297s-0.177,0.117-0.297,0.117h-0.666C463.99,440.316,463.894,440.277,463.822,440.199z"/>
					<path fill="#3A54F5" d="M471.949,436.455c-0.078-0.078-0.117-0.177-0.117-0.297v-0.54c0-0.275,0.15-0.54,0.45-0.792
						l3.924-3.906c0.888-0.756,1.5-1.374,1.836-1.854s0.504-0.99,0.504-1.53c0-0.708-0.198-1.263-0.594-1.665
						c-0.396-0.401-0.972-0.603-1.728-0.603c-0.72,0-1.29,0.21-1.71,0.63s-0.678,0.984-0.774,1.691
						c-0.024,0.133-0.084,0.234-0.18,0.307s-0.192,0.107-0.288,0.107h-0.864c-0.108,0-0.198-0.035-0.27-0.107
						s-0.108-0.156-0.108-0.252c0.024-0.636,0.195-1.251,0.513-1.846c0.318-0.594,0.789-1.079,1.413-1.458
						c0.624-0.378,1.38-0.566,2.268-0.566c1.344,0,2.355,0.351,3.033,1.053c0.678,0.702,1.017,1.593,1.017,2.673
						c0,0.756-0.183,1.438-0.549,2.043c-0.366,0.606-0.939,1.245-1.719,1.917l-3.546,3.601h5.67c0.132,0,0.234,0.036,0.306,0.107
						c0.072,0.072,0.108,0.175,0.108,0.307v0.684c0,0.12-0.04,0.219-0.117,0.297c-0.078,0.078-0.177,0.117-0.297,0.117h-7.884
						C472.125,436.572,472.027,436.533,471.949,436.455z"/>
					<path fill="#3A54F5" d="M482.802,436.455c-0.078-0.078-0.117-0.177-0.117-0.297v-1.242c0-0.119,0.039-0.222,0.117-0.306
						s0.177-0.126,0.297-0.126h1.242c0.12,0,0.219,0.042,0.297,0.126s0.117,0.187,0.117,0.306v1.242c0,0.12-0.039,0.219-0.117,0.297
						s-0.177,0.117-0.297,0.117H483.1C482.979,436.572,482.88,436.533,482.802,436.455z"/>
					<path fill="#3A54F5" d="M486.96,436.455c-0.078-0.078-0.117-0.177-0.117-0.297v-0.54c0-0.275,0.15-0.54,0.45-0.792l3.924-3.906
						c0.888-0.756,1.5-1.374,1.836-1.854s0.504-0.99,0.504-1.53c0-0.708-0.198-1.263-0.594-1.665
						c-0.396-0.401-0.972-0.603-1.728-0.603c-0.72,0-1.29,0.21-1.71,0.63s-0.678,0.984-0.774,1.691
						c-0.024,0.133-0.084,0.234-0.18,0.307s-0.192,0.107-0.288,0.107h-0.864c-0.108,0-0.198-0.035-0.27-0.107
						s-0.108-0.156-0.108-0.252c0.024-0.636,0.195-1.251,0.513-1.846c0.318-0.594,0.789-1.079,1.413-1.458
						c0.624-0.378,1.38-0.566,2.268-0.566c1.344,0,2.355,0.351,3.033,1.053c0.678,0.702,1.017,1.593,1.017,2.673
						c0,0.756-0.183,1.438-0.549,2.043c-0.366,0.606-0.939,1.245-1.719,1.917l-3.546,3.601h5.67c0.132,0,0.234,0.036,0.306,0.107
						c0.072,0.072,0.108,0.175,0.108,0.307v0.684c0,0.12-0.04,0.219-0.117,0.297c-0.078,0.078-0.177,0.117-0.297,0.117h-7.884
						C487.137,436.572,487.039,436.533,486.96,436.455z"/>
					<path fill="#3A54F5" d="M499.705,436.455c-0.066-0.078-0.099-0.171-0.099-0.279c0-0.083,0.024-0.161,0.072-0.233l2.772-3.853
						c-0.288,0.072-0.624,0.108-1.008,0.108c-0.864-0.012-1.62-0.213-2.268-0.603c-0.648-0.391-1.143-0.9-1.485-1.53
						c-0.342-0.63-0.513-1.305-0.513-2.025c0-0.72,0.171-1.403,0.513-2.052c0.342-0.648,0.852-1.176,1.53-1.584
						c0.678-0.408,1.497-0.612,2.457-0.612c0.96,0,1.782,0.198,2.466,0.595c0.684,0.396,1.2,0.915,1.548,1.557
						s0.522,1.329,0.522,2.061c0,0.66-0.117,1.242-0.351,1.746c-0.234,0.504-0.543,1.026-0.927,1.566l-3.492,4.896
						c-0.084,0.108-0.165,0.195-0.243,0.262c-0.078,0.065-0.189,0.099-0.333,0.099h-0.9
						C499.857,436.572,499.771,436.533,499.705,436.455z M503.098,430.435c0.432-0.229,0.774-0.549,1.026-0.963
						s0.378-0.892,0.378-1.432c0-0.552-0.126-1.037-0.378-1.458c-0.252-0.42-0.594-0.744-1.026-0.972s-0.906-0.342-1.422-0.342
						c-0.504,0-0.969,0.114-1.395,0.342c-0.426,0.228-0.765,0.552-1.017,0.972c-0.252,0.421-0.378,0.906-0.378,1.458
						c0,0.54,0.126,1.018,0.378,1.432s0.588,0.734,1.008,0.963c0.42,0.228,0.888,0.342,1.404,0.342
						C502.191,430.776,502.666,430.662,503.098,430.435z"/>
					<path fill="#3A54F5" d="M513.006,436.455c-0.078-0.078-0.117-0.177-0.117-0.297v-8.532c0-0.119,0.039-0.219,0.117-0.297
						s0.177-0.117,0.297-0.117h0.756c0.12,0,0.216,0.039,0.288,0.117c0.072,0.078,0.108,0.178,0.108,0.297v0.612
						c0.648-0.804,1.524-1.206,2.628-1.206c1.32,0,2.256,0.552,2.808,1.656c0.288-0.504,0.699-0.906,1.233-1.206
						c0.534-0.3,1.131-0.45,1.791-0.45c0.984,0,1.788,0.336,2.412,1.008c0.624,0.673,0.936,1.645,0.936,2.916v5.202
						c0,0.12-0.039,0.219-0.117,0.297s-0.177,0.117-0.297,0.117h-0.774c-0.12,0-0.219-0.039-0.297-0.117s-0.117-0.177-0.117-0.297
						v-5.04c0-0.96-0.198-1.646-0.594-2.061s-0.918-0.621-1.566-0.621c-0.576,0-1.071,0.213-1.485,0.639s-0.621,1.107-0.621,2.043
						v5.04c0,0.12-0.039,0.219-0.117,0.297s-0.177,0.117-0.297,0.117h-0.792c-0.12,0-0.219-0.039-0.297-0.117
						c-0.078-0.078-0.117-0.177-0.117-0.297v-5.04c0-0.947-0.207-1.632-0.621-2.052c-0.414-0.42-0.927-0.63-1.539-0.63
						c-0.576,0-1.071,0.21-1.485,0.63s-0.621,1.098-0.621,2.034v5.058c0,0.12-0.04,0.219-0.117,0.297
						c-0.078,0.078-0.177,0.117-0.297,0.117h-0.792C513.183,436.572,513.084,436.533,513.006,436.455z"/>
				</g>
			</g>
		</g>
	</g>
	<g display="inline">
		<g>
			<g id="POLYLINE_1037_">
				
					<line fill="none" stroke="#3A54F5" stroke-width="2" stroke-linecap="round" stroke-linejoin="round" stroke-miterlimit="10" x1="475.621" y1="538.798" x2="451" y2="538.798"/>
			</g>
			<g id="LINE_66_">
				
					<line fill="none" stroke="#3A54F5" stroke-width="2" stroke-linecap="round" stroke-linejoin="round" stroke-miterlimit="10" x1="396" y1="538.798" x2="374.515" y2="538.798"/>
			</g>
			<g id="POLYLINE_1036_">
				
					<polyline fill="none" stroke="#3A54F5" stroke-width="2" stroke-linecap="round" stroke-linejoin="round" stroke-miterlimit="10" points="
					381.144,545.426 374.515,538.798 381.144,532.17 				"/>
			</g>
			<g id="POLYLINE_1035_">
				
					<polyline fill="none" stroke="#3A54F5" stroke-width="2" stroke-linecap="round" stroke-linejoin="round" stroke-miterlimit="10" points="
					468.994,532.17 475.621,538.798 468.994,545.426 				"/>
			</g>
			<g id="MTEXT_33_">
				<g>
					<g>
						<g>
							<path fill="#3A54F5" d="M415.761,526.883c-0.608-0.271-1.07-0.626-1.384-1.063s-0.482-0.891-0.504-1.36
								c0-0.096,0.032-0.174,0.096-0.232s0.144-0.088,0.24-0.088h0.72c0.117,0,0.213,0.024,0.288,0.072
								c0.074,0.048,0.133,0.142,0.176,0.28c0.139,0.544,0.44,0.928,0.904,1.151c0.464,0.225,1.011,0.336,1.64,0.336
								c0.768,0,1.378-0.184,1.832-0.552c0.453-0.368,0.68-0.894,0.68-1.576c0-1.301-0.795-1.952-2.384-1.952h-1.504
								c-0.107,0-0.195-0.034-0.264-0.104s-0.104-0.157-0.104-0.264v-0.416c0-0.16,0.059-0.299,0.176-0.416l3.12-3.456h-4.736
								c-0.106,0-0.195-0.032-0.264-0.097c-0.07-0.063-0.104-0.148-0.104-0.256v-0.576c0-0.117,0.034-0.21,0.104-0.279
								c0.069-0.069,0.157-0.104,0.264-0.104h6.336c0.118,0,0.21,0.035,0.28,0.104c0.069,0.069,0.104,0.162,0.104,0.279v0.528
								c0,0.117-0.054,0.24-0.16,0.368l-3.12,3.504h0.256c1.088,0.032,1.949,0.314,2.584,0.848c0.634,0.534,0.952,1.312,0.952,2.336
								c0,0.704-0.173,1.31-0.52,1.816s-0.829,0.896-1.448,1.168c-0.619,0.272-1.317,0.408-2.096,0.408
								C417.089,527.291,416.369,527.155,415.761,526.883z"/>
							<path fill="#3A54F5" d="M424.793,526.083c-0.635-0.806-0.974-1.858-1.016-3.16l-0.016-1.376l0.016-1.424
								c0.032-1.291,0.371-2.339,1.016-3.145c0.645-0.805,1.65-1.208,3.016-1.208c1.376,0,2.386,0.403,3.032,1.208
								c0.646,0.806,0.984,1.854,1.016,3.145c0.01,0.299,0.016,0.773,0.016,1.424c0,0.63-0.006,1.088-0.016,1.376
								c-0.043,1.302-0.381,2.354-1.016,3.16s-1.646,1.208-3.032,1.208C426.433,527.291,425.427,526.889,424.793,526.083z
								 M429.665,525.146c0.416-0.544,0.634-1.312,0.656-2.304c0.011-0.31,0.016-0.752,0.016-1.328c0-0.586-0.005-1.023-0.016-1.312
								c-0.021-0.981-0.243-1.747-0.664-2.296c-0.421-0.55-1.037-0.824-1.848-0.824c-0.811,0-1.424,0.274-1.84,0.824
								c-0.416,0.549-0.635,1.314-0.656,2.296l-0.016,1.312l0.016,1.328c0.021,0.992,0.24,1.76,0.656,2.304s1.029,0.816,1.84,0.816
								C428.63,525.963,429.249,525.69,429.665,525.146z"/>
							<path fill="#3A54F5" d="M433.849,518.715c-0.048-0.064-0.061-0.144-0.04-0.24l0.352-2.24
								c0.042-0.309,0.192-0.464,0.448-0.464h1.024c0.075,0,0.136,0.027,0.184,0.08c0.048,0.054,0.072,0.118,0.072,0.192
								c0,0.106-0.016,0.191-0.048,0.256l-0.832,2.16c-0.053,0.117-0.112,0.205-0.176,0.264s-0.16,0.088-0.288,0.088h-0.496
								C433.963,518.811,433.897,518.779,433.849,518.715z M436.361,518.715c-0.048-0.064-0.062-0.144-0.04-0.24l0.352-2.24
								c0.042-0.309,0.192-0.464,0.448-0.464h1.024c0.074,0,0.136,0.027,0.184,0.08c0.048,0.054,0.072,0.118,0.072,0.192
								c0,0.106-0.016,0.191-0.048,0.256l-0.832,2.16c-0.054,0.117-0.112,0.205-0.176,0.264s-0.16,0.088-0.288,0.088h-0.496
								C436.476,518.811,436.409,518.779,436.361,518.715z"/>
							<path fill="#3A54F5" d="M404.201,544.228c-0.059-0.069-0.088-0.152-0.088-0.248l0.032-0.145l4-9.36h-5.28
								c-0.107,0-0.195-0.034-0.264-0.104s-0.104-0.157-0.104-0.264v-0.593c0-0.117,0.032-0.21,0.096-0.279s0.154-0.104,0.272-0.104
								h6.528c0.117,0,0.208,0.035,0.272,0.104s0.096,0.162,0.096,0.279v0.544c0,0.192-0.043,0.4-0.128,0.624l-3.952,9.248
								c-0.053,0.118-0.112,0.214-0.176,0.288c-0.064,0.075-0.155,0.112-0.272,0.112h-0.8
								C404.337,544.331,404.26,544.297,404.201,544.228z"/>
							<path fill="#3A54F5" d="M412.393,543.971c-0.624-0.346-1.099-0.812-1.424-1.399c-0.326-0.587-0.488-1.227-0.488-1.92
								c0-0.918,0.368-1.898,1.104-2.944l3.056-4.256c0.011-0.011,0.04-0.048,0.088-0.112c0.048-0.063,0.109-0.114,0.184-0.151
								c0.075-0.038,0.16-0.057,0.256-0.057h0.784c0.096,0,0.173,0.035,0.232,0.104s0.088,0.151,0.088,0.248
								c0,0.053-0.027,0.122-0.08,0.208l-2.336,3.264c0.277-0.064,0.586-0.096,0.928-0.096c0.779,0,1.464,0.173,2.056,0.52
								c0.592,0.347,1.05,0.806,1.376,1.376c0.325,0.571,0.488,1.197,0.488,1.88s-0.163,1.32-0.488,1.912
								c-0.326,0.592-0.797,1.064-1.416,1.416c-0.619,0.353-1.35,0.528-2.192,0.528
								C413.756,544.491,413.017,544.317,412.393,543.971z M415.889,542.875c0.395-0.192,0.709-0.478,0.944-0.855
								c0.234-0.379,0.352-0.835,0.352-1.368c0-0.522-0.12-0.974-0.36-1.353c-0.24-0.378-0.558-0.666-0.952-0.864
								c-0.395-0.196-0.821-0.296-1.28-0.296c-0.459,0-0.885,0.1-1.28,0.296c-0.395,0.198-0.709,0.486-0.944,0.864
								c-0.235,0.379-0.352,0.83-0.352,1.353c0,0.533,0.117,0.989,0.352,1.368c0.235,0.378,0.549,0.663,0.944,0.855
								c0.395,0.192,0.821,0.288,1.28,0.288C415.062,543.163,415.495,543.067,415.889,542.875z"/>
							<path fill="#3A54F5" d="M425.089,543.523c-0.64-0.646-0.976-1.55-1.008-2.712l-0.016-0.641l0.016-0.64
								c0.032-1.163,0.368-2.066,1.008-2.712s1.531-0.969,2.672-0.969c0.768,0,1.416,0.137,1.944,0.408
								c0.528,0.272,0.922,0.611,1.184,1.017c0.262,0.405,0.403,0.811,0.424,1.216c0.01,0.096-0.024,0.182-0.104,0.256
								c-0.08,0.075-0.168,0.112-0.264,0.112h-0.704c-0.106,0-0.187-0.024-0.24-0.072c-0.054-0.048-0.107-0.136-0.16-0.264
								c-0.192-0.522-0.456-0.894-0.792-1.112s-0.76-0.328-1.272-0.328c-0.672,0-1.206,0.208-1.6,0.624s-0.608,1.051-0.64,1.904
								l-0.016,0.56l0.016,0.561c0.032,0.854,0.245,1.487,0.64,1.903s0.928,0.624,1.6,0.624c0.522,0,0.949-0.109,1.28-0.328
								c0.33-0.218,0.592-0.589,0.784-1.111c0.053-0.128,0.106-0.216,0.16-0.265c0.053-0.048,0.133-0.071,0.24-0.071h0.704
								c0.096,0,0.184,0.037,0.264,0.111c0.08,0.075,0.114,0.16,0.104,0.256c-0.021,0.396-0.163,0.795-0.424,1.2
								c-0.261,0.406-0.656,0.747-1.184,1.024c-0.528,0.277-1.176,0.416-1.944,0.416
								C426.62,544.491,425.729,544.169,425.089,543.523z"/>
							<path fill="#3A54F5" d="M433.337,544.228c-0.07-0.069-0.104-0.158-0.104-0.265v-7.584c0-0.106,0.034-0.194,0.104-0.264
								c0.069-0.069,0.157-0.104,0.264-0.104h0.672c0.106,0,0.192,0.035,0.256,0.104s0.096,0.157,0.096,0.264v0.544
								c0.576-0.714,1.354-1.072,2.336-1.072c1.173,0,2.005,0.491,2.496,1.473c0.256-0.448,0.622-0.806,1.096-1.072
								s1.005-0.4,1.592-0.4c0.875,0,1.589,0.299,2.144,0.896s0.832,1.462,0.832,2.592v4.624c0,0.106-0.035,0.195-0.104,0.265
								s-0.157,0.104-0.264,0.104h-0.688c-0.107,0-0.195-0.034-0.264-0.104s-0.104-0.158-0.104-0.265v-4.479
								c0-0.854-0.176-1.464-0.528-1.832c-0.352-0.368-0.816-0.553-1.392-0.553c-0.512,0-0.952,0.189-1.32,0.568
								c-0.368,0.379-0.552,0.984-0.552,1.816v4.479c0,0.106-0.035,0.195-0.104,0.265s-0.158,0.104-0.264,0.104h-0.704
								c-0.106,0-0.194-0.034-0.264-0.104c-0.07-0.069-0.104-0.158-0.104-0.265v-4.479c0-0.843-0.184-1.451-0.552-1.824
								c-0.368-0.373-0.824-0.561-1.368-0.561c-0.512,0-0.952,0.188-1.32,0.561c-0.368,0.373-0.552,0.976-0.552,1.808v4.496
								c0,0.106-0.035,0.195-0.104,0.265c-0.07,0.069-0.158,0.104-0.264,0.104h-0.704
								C433.494,544.331,433.406,544.297,433.337,544.228z"/>
						</g>
					</g>
				</g>
			</g>
		</g>
		<g>
			<g>
				<path fill="none" stroke="#3A54F5" stroke-width="2.25" stroke-linecap="round" stroke-linejoin="round" d="M374,486
					c0,0.319,0,1.013,0,1.997"/>
				
					<path fill="none" stroke="#3A54F5" stroke-width="2.25" stroke-linecap="round" stroke-linejoin="round" stroke-dasharray="3.8889,5.8333" d="
					M374,493.832c0,7.888,0,19.671,0,26.258"/>
				<path fill="none" stroke="#3A54F5" stroke-width="2.25" stroke-linecap="round" stroke-linejoin="round" d="M374,523.002
					c0,1.265,0,1.998,0,1.998"/>
			</g>
		</g>
		<g>
			<g>
				<path fill="none" stroke="#3A54F5" stroke-width="2.25" stroke-linecap="round" stroke-linejoin="round" d="M476,486
					c0,0.319,0,1.013,0,1.997"/>
				
					<path fill="none" stroke="#3A54F5" stroke-width="2.25" stroke-linecap="round" stroke-linejoin="round" stroke-dasharray="3.8889,5.8333" d="
					M476,493.832c0,7.888,0,19.671,0,26.258"/>
				<path fill="none" stroke="#3A54F5" stroke-width="2.25" stroke-linecap="round" stroke-linejoin="round" d="M476,523.002
					c0,1.265,0,1.998,0,1.998"/>
			</g>
		</g>
	</g>
</g>
<g id="N-TEXT" display="none">
</g>
<g id="AG-DIAGRAM">
	<g id="POLYLINE_1032_">
		<g>
			<g>
				
					<line fill="none" stroke="#3A54F5" stroke-width="3" stroke-linecap="round" stroke-linejoin="round" x1="631.597" y1="313.923" x2="631.597" y2="311.423"/>
				
					<line fill="none" stroke="#3A54F5" stroke-width="3" stroke-linecap="round" stroke-linejoin="round" stroke-dasharray="5.0663,7.0928" x1="631.597" y1="304.33" x2="631.597" y2="186.286"/>
				
					<line fill="none" stroke="#3A54F5" stroke-width="3" stroke-linecap="round" stroke-linejoin="round" x1="631.597" y1="182.74" x2="631.597" y2="180.24"/>
			</g>
		</g>
	</g>
	<g id="POLYLINE_1031_">
		<g>
			<g>
				
					<line fill="none" stroke="#3A54F5" stroke-width="3" stroke-linecap="round" stroke-linejoin="round" x1="191.628" y1="449.298" x2="194.128" y2="449.298"/>
				
					<line fill="none" stroke="#3A54F5" stroke-width="3" stroke-linecap="round" stroke-linejoin="round" stroke-dasharray="5.1329,7.186" x1="201.314" y1="449.298" x2="320.91" y2="449.298"/>
				
					<line fill="none" stroke="#3A54F5" stroke-width="3" stroke-linecap="round" stroke-linejoin="round" x1="324.503" y1="449.298" x2="327.003" y2="449.298"/>
			</g>
		</g>
	</g>
</g>
<g id="AG-DASH">
	<g id="POLYLINE_1030_">
		<g>
			<g>
				
					<line fill="none" stroke="#3A54F5" stroke-width="2.25" stroke-linecap="round" stroke-linejoin="round" x1="191.628" y1="280.079" x2="189.628" y2="280.079"/>
				
					<line fill="none" stroke="#3A54F5" stroke-width="2.25" stroke-linecap="round" stroke-linejoin="round" stroke-dasharray="4.1675,6.2513" x1="183.377" y1="280.079" x2="123.99" y2="280.079"/>
				<path fill="none" stroke="#3A54F5" stroke-width="2.25" stroke-linecap="round" stroke-linejoin="round" d="M120.864,280.079h-2
					c0,0,0,0.709,0,1.995"/>
				
					<path fill="none" stroke="#3A54F5" stroke-width="2.25" stroke-linecap="round" stroke-linejoin="round" stroke-dasharray="4.0645,6.0967" d="
					M118.864,288.169c0,16.671,0,54.429,0,68.086"/>
				<path fill="none" stroke="#3A54F5" stroke-width="2.25" stroke-linecap="round" stroke-linejoin="round" d="M118.864,359.309
					c0,1.286,0,1.995,0,1.995h2"/>
				
					<line fill="none" stroke="#3A54F5" stroke-width="2.25" stroke-linecap="round" stroke-linejoin="round" stroke-dasharray="4.1675,6.2513" x1="127.115" y1="361.304" x2="186.502" y2="361.304"/>
				
					<line fill="none" stroke="#3A54F5" stroke-width="2.25" stroke-linecap="round" stroke-linejoin="round" x1="189.628" y1="361.304" x2="191.628" y2="361.304"/>
			</g>
		</g>
	</g>
</g>
<g id="AG-FURNITURE">
	<g id="POLYLINE_1026_">
		
			<path fill="none" stroke="#3A54F5" stroke-width="2.75" stroke-linecap="round" stroke-linejoin="round" stroke-miterlimit="10" d="
			M348.233,489.064c0.007,6.169,2.228,12.232,6.225,16.935c4.092,4.815,9.901,8.031,16.155,8.942
			c5.935,0.865,12.09-0.369,17.233-3.457c5.528-3.319,9.698-8.671,11.568-14.841c0.778-2.567,1.12-5.215,1.123-7.893
			c0.004-4.247,0-8.493,0-12.74c0-1.977,0.122-3.927-0.586-5.812c-0.717-1.909-2.044-3.543-3.674-4.752
			c-1.749-1.298-3.835-2.117-5.984-2.446c-2.038-0.312-4.165-0.166-6.216-0.166c-7.829,0-15.665-0.09-23.494,0
			c-4.188,0.048-8.499,1.896-10.822,5.5c-0.982,1.524-1.504,3.264-1.527,5.075c-0.05,3.95,0,7.904,0,11.854
			C348.233,486.531,348.233,487.798,348.233,489.064z"/>
	</g>
	<g id="POLYLINE_1025_">
		
			<path fill="none" stroke="#3A54F5" stroke-width="2.75" stroke-linecap="round" stroke-linejoin="round" stroke-miterlimit="10" d="
			M449.764,489.064c0.007,6.169,2.228,12.232,6.225,16.935c4.092,4.815,9.901,8.031,16.155,8.942
			c5.935,0.865,12.09-0.369,17.233-3.457c5.528-3.319,9.698-8.671,11.568-14.841c0.778-2.567,1.12-5.215,1.123-7.893
			c0.004-4.247,0-8.493,0-12.74c0-1.977,0.122-3.927-0.586-5.812c-0.717-1.909-2.044-3.543-3.674-4.752
			c-1.749-1.298-3.835-2.117-5.984-2.446c-2.038-0.312-4.165-0.166-6.216-0.166c-7.829,0-15.665-0.09-23.494,0
			c-4.188,0.048-8.499,1.896-10.822,5.5c-0.982,1.524-1.504,3.264-1.527,5.075c-0.05,3.95,0,7.904,0,11.854
			C449.764,486.531,449.764,487.798,449.764,489.064z"/>
	</g>
	<g id="POLYLINE_1024_">
		
			<path fill="none" stroke="#3A54F5" stroke-width="2.75" stroke-linecap="round" stroke-linejoin="round" stroke-miterlimit="10" d="
			M551.296,489.064c0.007,6.169,2.228,12.232,6.225,16.935c4.092,4.815,9.901,8.031,16.154,8.942
			c5.935,0.865,12.09-0.369,17.233-3.457c5.528-3.319,9.698-8.671,11.568-14.841c0.778-2.567,1.12-5.215,1.123-7.893
			c0.005-4.247,0-8.493,0-12.74c0-1.977,0.122-3.927-0.586-5.812c-0.717-1.909-2.044-3.543-3.674-4.752
			c-1.749-1.298-3.835-2.117-5.984-2.446c-2.038-0.312-4.165-0.166-6.216-0.166c-7.83,0-15.665-0.09-23.494,0
			c-4.188,0.048-8.499,1.896-10.822,5.5c-0.982,1.524-1.504,3.264-1.526,5.075c-0.05,3.95,0,7.904,0,11.854
			C551.296,486.531,551.296,487.798,551.296,489.064z"/>
	</g>
</g>
<g id="AG-LAYOUT">
	<g id="POLYLINE_1023_">
		
			<path fill="none" stroke="#3A54F5" stroke-width="2.75" stroke-linecap="round" stroke-linejoin="round" stroke-miterlimit="10" d="
			M401.767,388.436c2.435-0.021,3.56-3.175,1.637-4.702c-1.844-1.464-4.616,0.166-4.239,2.489
			C399.371,387.49,400.49,388.425,401.767,388.436z"/>
	</g>
	<g id="POLYLINE_1022_">
		
			<rect x="327.003" y="313.923" fill="none" stroke="#3A54F5" stroke-width="2.75" stroke-linecap="round" stroke-linejoin="round" stroke-miterlimit="10" width="304.594" height="135.375"/>
	</g>
	<g id="POLYLINE_1021_">
		
			<path fill="none" stroke="#3A54F5" stroke-width="2.75" stroke-linecap="round" stroke-linejoin="round" stroke-miterlimit="10" d="
			M464.378,318.999c-0.003-2.805-2.32-5.018-5.083-5.077c-3.338-0.071-6.684,0-10.023,0c-7.962,0-15.924,0-23.887,0
			c-9.974,0-19.947,0-29.921,0c-9.445,0-18.891,0-28.336,0c-6.372,0-12.743,0-19.115,0c-2.095,0-4.658-0.391-6.519,0.802
			c-2.784,1.783-2.339,4.95-2.339,7.798c0,8.692,0,17.384,0,26.076c0,7.762,0,15.523,0,23.285c0,1.076-0.046,2.127,0.362,3.148
			c0.551,1.38,1.711,2.472,3.121,2.938c0.8,0.264,1.605,0.257,2.433,0.257c1.737,0,3.474,0,5.21,0c7.058,0,14.115,0,21.173,0
			c9.713,0,19.426,0,29.139,0c9.838,0,19.675,0,29.513,0c7.356,0,14.713,0,22.069,0c1.941,0,3.883,0,5.824,0
			c0.792,0,1.609,0.053,2.387-0.118c2.724-0.597,3.99-2.995,3.99-5.583c0-7.2,0-14.4,0-21.601c0-9.062,0-18.124,0-27.186
			C464.378,322.159,464.378,320.579,464.378,318.999z"/>
	</g>
	<g id="POLYLINE_1020_">
		
			<path fill="none" stroke="#3A54F5" stroke-width="2.75" stroke-linecap="round" stroke-linejoin="round" stroke-miterlimit="10" d="
			M366.442,347.767c0.002,2.474,1.596,4.742,3.927,5.576c2.329,0.834,5.003,0.095,6.573-1.817c1.57-1.912,1.774-4.679,0.504-6.801
			c-1.27-2.122-3.807-3.248-6.233-2.767c-2.417,0.479-4.328,2.475-4.702,4.911C366.465,347.165,366.442,347.466,366.442,347.767z"/>
	</g>
	<g id="POLYLINE_1019_">
		
			<path fill="none" stroke="#3A54F5" stroke-width="2.75" stroke-linecap="round" stroke-linejoin="round" stroke-miterlimit="10" d="
			M425.246,347.767c0.002,2.474,1.596,4.742,3.927,5.576c2.329,0.834,5.003,0.095,6.573-1.817c1.57-1.912,1.774-4.679,0.504-6.801
			c-1.27-2.122-3.807-3.248-6.233-2.767c-2.417,0.479-4.328,2.475-4.702,4.911C425.269,347.165,425.246,347.466,425.246,347.767z"/>
	</g>
	<g id="POLYLINE_1018_">
		
			<path fill="none" stroke="#3A54F5" stroke-width="2.75" stroke-linecap="round" stroke-linejoin="round" stroke-miterlimit="10" d="
			M453.378,319.846c1.761,0.002,3.431,0.939,4.344,2.45c0.784,1.298,0.732,2.685,0.732,4.141c0,4.557,0,9.114,0,13.671
			c0,5.948,0,11.896,0,17.844c0,3.085,0.064,6.177,0,9.262c-0.036,1.725-0.851,3.325-2.32,4.276
			c-1.235,0.799-2.556,0.814-3.968,0.814c-4.295,0-8.59,0-12.885,0c-6.018,0-12.035,0-18.053,0c-3.896,0-7.793,0-11.689,0
			c-1.403,0-2.7-0.241-3.814-1.163c-1.265-1.046-1.835-2.532-1.843-4.138c-0.02-3.617,0-7.234,0-10.851c0-5.976,0-11.952,0-17.929
			c0-4.171,0-8.343,0-12.514c0-1.392,0.148-2.677,1.014-3.831c1.009-1.345,2.539-2.013,4.189-2.033c3.333-0.039,6.669,0,10.003,0
			c5.929,0,11.857,0,17.786,0c4.764,0,9.527,0,14.291,0C451.902,319.846,452.64,319.846,453.378,319.846z"/>
	</g>
	<g id="POLYLINE_1017_">
		
			<path fill="none" stroke="#3A54F5" stroke-width="2.75" stroke-linecap="round" stroke-linejoin="round" stroke-miterlimit="10" d="
			M350.155,319.846c-1.761,0.002-3.431,0.939-4.344,2.45c-0.784,1.298-0.732,2.685-0.732,4.141c0,4.557,0,9.114,0,13.671
			c0,5.948,0,11.896,0,17.844c0,3.085-0.064,6.177,0,9.262c0.036,1.725,0.851,3.325,2.32,4.276c1.235,0.799,2.556,0.814,3.968,0.814
			c4.295,0,8.59,0,12.885,0c6.018,0,12.035,0,18.053,0c3.896,0,7.793,0,11.689,0c1.403,0,2.7-0.241,3.814-1.163
			c1.265-1.046,1.835-2.532,1.843-4.138c0.02-3.617,0-7.234,0-10.851c0-5.976,0-11.952,0-17.929c0-4.171,0-8.343,0-12.514
			c0-1.392-0.148-2.677-1.014-3.831c-1.009-1.345-2.539-2.013-4.189-2.033c-3.333-0.039-6.669,0-10.003,0
			c-5.929,0-11.857,0-17.786,0c-4.764,0-9.527,0-14.291,0C351.631,319.846,350.893,319.846,350.155,319.846z"/>
	</g>
	<g id="POLYLINE_1016_">
		
			<rect x="517.374" y="97.323" fill="none" stroke="#3A54F5" stroke-width="2.75" stroke-linecap="round" stroke-linejoin="round" stroke-miterlimit="10" width="108.3" height="6.769"/>
	</g>
	<g id="POLYLINE_1015_">
		
			<rect x="511.452" y="180.24" fill="none" stroke="#3A54F5" stroke-width="2.75" stroke-linecap="round" stroke-linejoin="round" stroke-miterlimit="10" width="60.073" height="5.077"/>
	</g>
	<g id="POLYLINE_1014_">
		
			<rect x="571.524" y="180.24" fill="none" stroke="#3A54F5" stroke-width="2.75" stroke-linecap="round" stroke-linejoin="round" stroke-miterlimit="10" width="60.073" height="5.077"/>
	</g>
	<g id="POLYLINE_1013_">
		
			<rect x="511.452" y="104.092" fill="none" stroke="#3A54F5" stroke-width="2.75" stroke-linecap="round" stroke-linejoin="round" stroke-miterlimit="10" width="120.145" height="76.148"/>
	</g>
	<g id="POLYLINE_1012_">
		
			<rect x="271.584" y="97.323" fill="none" stroke="#3A54F5" stroke-width="2.75" stroke-linecap="round" stroke-linejoin="round" stroke-miterlimit="10" width="101.108" height="6.769"/>
	</g>
	<g id="POLYLINE_1011_">
		
			<path fill="none" stroke="#3A54F5" stroke-width="2.75" stroke-linecap="round" stroke-linejoin="round" stroke-miterlimit="10" d="
			M308.601,123.987c0.018,5.658,3.639,10.835,8.975,12.745c5.323,1.906,11.436,0.216,15.025-4.154
			c3.589-4.37,4.057-10.695,1.152-15.546s-8.701-7.424-14.248-6.324c-5.525,1.096-9.893,5.657-10.747,11.225
			C308.653,122.613,308.603,123.299,308.601,123.987z"/>
	</g>
	<g id="POLYLINE_1010_">
		
			<path fill="none" stroke="#3A54F5" stroke-width="2.75" stroke-linecap="round" stroke-linejoin="round" stroke-miterlimit="10" d="
			M300.384,123.987c-0.005,4.242-2.735,8.128-6.731,9.559c-3.993,1.429-8.577,0.162-11.268-3.116
			c-2.691-3.278-3.042-8.021-0.864-11.659c2.179-3.638,6.526-5.568,10.686-4.743c4.145,0.822,7.419,4.243,8.06,8.419
			C300.345,122.956,300.384,123.471,300.384,123.987z"/>
	</g>
	<g id="POLYLINE_1009_">
		
			<path fill="none" stroke="#3A54F5" stroke-width="2.75" stroke-linecap="round" stroke-linejoin="round" stroke-miterlimit="10" d="
			M343.892,123.987c0.005,4.242,2.735,8.128,6.731,9.559c3.993,1.429,8.577,0.162,11.268-3.116
			c2.691-3.278,3.042-8.021,0.864-11.659c-2.179-3.638-6.526-5.568-10.686-4.743c-4.145,0.822-7.419,4.243-8.06,8.419
			C343.931,122.956,343.892,123.471,343.892,123.987z"/>
	</g>
	<g id="POLYLINE_1008_">
		
			<rect x="271.584" y="97.323" fill="none" stroke="#3A54F5" stroke-width="2.75" stroke-linecap="round" stroke-linejoin="round" stroke-miterlimit="10" width="101.108" height="81.225"/>
	</g>
	<g id="POLYLINE_1007_">
		
			<path fill="none" stroke="#3A54F5" stroke-width="2.75" stroke-linecap="round" stroke-linejoin="round" stroke-miterlimit="10" d="
			M333.772,157.396c0.007,3.128,0.979,6.211,2.779,8.77c1.796,2.553,4.379,4.516,7.318,5.568c2.939,1.052,6.181,1.174,9.189,0.341
			c3.011-0.834,5.73-2.599,7.714-5.014c1.975-2.405,3.178-5.404,3.415-8.507c0.239-3.125-0.51-6.293-2.12-8.981
			c-1.604-2.678-4.031-4.83-6.885-6.095c-2.846-1.261-6.054-1.626-9.11-1.026c-3.066,0.602-5.911,2.157-8.072,4.414
			c-2.153,2.249-3.578,5.147-4.052,8.223C333.831,155.851,333.774,156.623,333.772,157.396z"/>
	</g>
	<g id="POLYLINE_482_">
		
			<path fill="none" stroke="#3A54F5" stroke-width="2.75" stroke-linecap="round" stroke-linejoin="round" stroke-miterlimit="10" d="
			M310.504,157.396c-0.007,3.128-0.979,6.211-2.779,8.77c-1.796,2.553-4.379,4.516-7.318,5.568
			c-2.939,1.052-6.181,1.174-9.189,0.341c-3.011-0.834-5.73-2.599-7.714-5.014c-1.975-2.405-3.178-5.404-3.415-8.507
			c-0.239-3.125,0.51-6.293,2.12-8.981c1.603-2.678,4.031-4.83,6.885-6.095c2.846-1.261,6.054-1.626,9.11-1.026
			c3.066,0.602,5.911,2.157,8.072,4.414c2.153,2.249,3.578,5.147,4.052,8.223C310.445,155.851,310.503,156.623,310.504,157.396z"/>
	</g>
	<g id="POLYLINE_481_">
		
			<line fill="none" stroke="#3A54F5" stroke-width="2.75" stroke-linecap="round" stroke-linejoin="round" stroke-miterlimit="10" x1="511.452" y1="178.548" x2="511.452" y2="97.323"/>
	</g>
	<g id="POLYLINE_476_">
		
			<polyline fill="none" stroke="#3A54F5" stroke-width="2.75" stroke-linecap="round" stroke-linejoin="round" stroke-miterlimit="10" points="
			511.452,97.323 110.403,97.323 110.403,449.298 191.628,449.298 191.628,178.548 511.452,178.548 		"/>
	</g>
</g>
<g id="AG-OUTLINE">
	<g id="POLYLINE_431_">
		
			<polygon fill="none" stroke="#3A54F5" stroke-width="3.5" stroke-linecap="round" stroke-linejoin="round" stroke-miterlimit="10" points="
			571.524,185.317 511.452,185.317 511.452,180.24 511.452,178.548 372.692,178.548 191.628,178.548 191.628,449.298 
			110.403,449.298 110.403,97.323 271.584,97.323 511.452,97.323 631.597,97.323 631.597,104.092 631.597,185.317 		"/>
	</g>
	<g id="POLYLINE_429_">
		
			<rect x="327.003" y="313.923" fill="none" stroke="#3A54F5" stroke-width="3.5" stroke-linecap="round" stroke-linejoin="round" stroke-miterlimit="10" width="304.594" height="135.375"/>
	</g>
</g>
</svg>
