<?xml version="1.0" encoding="utf-8"?>
<!-- Generator: Adobe Illustrator 23.0.2, SVG Export Plug-In . SVG Version: 6.00 Build 0)  -->
<!DOCTYPE svg PUBLIC "-//W3C//DTD SVG 1.1//EN" "http://www.w3.org/Graphics/SVG/1.1/DTD/svg11.dtd" [
	<!ENTITY ns_flows "http://ns.adobe.com/Flows/1.0/">
	<!ENTITY ns_extend "http://ns.adobe.com/Extensibility/1.0/">
	<!ENTITY ns_ai "http://ns.adobe.com/AdobeIllustrator/10.0/">
	<!ENTITY ns_graphs "http://ns.adobe.com/Graphs/1.0/">
	<!ENTITY ns_vars "http://ns.adobe.com/Variables/1.0/">
	<!ENTITY ns_imrep "http://ns.adobe.com/ImageReplacement/1.0/">
	<!ENTITY ns_sfw "http://ns.adobe.com/SaveForWeb/1.0/">
	<!ENTITY ns_custom "http://ns.adobe.com/GenericCustomNamespace/1.0/">
	<!ENTITY ns_adobe_xpath "http://ns.adobe.com/XPath/1.0/">
]>
<svg version="1.1" xmlns:x="&ns_extend;" xmlns:i="&ns_ai;" xmlns:graph="&ns_graphs;"
	 xmlns="http://www.w3.org/2000/svg" xmlns:xlink="http://www.w3.org/1999/xlink" xmlns:a="http://ns.adobe.com/AdobeSVGViewerExtensions/3.0/"
	 x="0px" y="0px" viewBox="0 0 750 600" enable-background="new 0 0 750 600" xml:space="preserve">
<metadata>
	<sfw  xmlns="&ns_sfw;">
		<slices></slices>
		<sliceSourceBounds  bottomLeftOrigin="true" height="9185.057" width="6115.224" x="-5706.937" y="-3923.667">
			</sliceSourceBounds>
	</sfw>
</metadata>
<g id="FILL-BACKGROUND">
</g>
<g id="N-DIMENSIONS" display="none">
	<g id="MTEXT_140_" display="inline">
		<g>
			<g>
				<path fill="#3A54F5" d="M98.164,500.838v-2.375h4.572v12.707h-2.664v-10.332H98.164z"/>
				<path fill="#3A54F5" d="M113.824,500.442h-6.03v3.204c0.276-0.324,0.657-0.585,1.143-0.783c0.486-0.197,1.023-0.297,1.611-0.297
					c0.875,0,1.604,0.189,2.187,0.566c0.582,0.379,1.014,0.883,1.296,1.513c0.282,0.63,0.423,1.329,0.423,2.097
					c0,1.356-0.381,2.442-1.143,3.258c-0.762,0.816-1.851,1.225-3.267,1.225c-0.924,0-1.728-0.165-2.412-0.495
					s-1.218-0.792-1.602-1.386c-0.384-0.594-0.594-1.287-0.63-2.079h2.466c0.096,0.54,0.318,0.969,0.666,1.286
					c0.348,0.318,0.81,0.478,1.386,0.478c0.696,0,1.215-0.213,1.557-0.639c0.342-0.427,0.513-0.993,0.513-1.701
					c0-0.672-0.18-1.194-0.54-1.565c-0.36-0.373-0.87-0.559-1.53-0.559c-0.48,0-0.888,0.105-1.224,0.314
					c-0.336,0.211-0.583,0.49-0.738,0.838h-2.466v-7.506h8.334V500.442z"/>
				<path fill="#3A54F5" d="M125.218,500.442h-6.03v3.204c0.276-0.324,0.657-0.585,1.143-0.783c0.486-0.197,1.023-0.297,1.611-0.297
					c0.875,0,1.604,0.189,2.187,0.566c0.582,0.379,1.014,0.883,1.296,1.513c0.282,0.63,0.423,1.329,0.423,2.097
					c0,1.356-0.381,2.442-1.143,3.258c-0.762,0.816-1.851,1.225-3.267,1.225c-0.924,0-1.728-0.165-2.412-0.495
					s-1.218-0.792-1.602-1.386c-0.384-0.594-0.594-1.287-0.63-2.079h2.466c0.096,0.54,0.318,0.969,0.666,1.286
					c0.348,0.318,0.81,0.478,1.386,0.478c0.696,0,1.215-0.213,1.557-0.639c0.342-0.427,0.513-0.993,0.513-1.701
					c0-0.672-0.18-1.194-0.54-1.565c-0.36-0.373-0.87-0.559-1.53-0.559c-0.48,0-0.888,0.105-1.224,0.314
					c-0.336,0.211-0.583,0.49-0.738,0.838h-2.466v-7.506h8.334V500.442z"/>
				<path fill="#3A54F5" d="M135.118,499.795c-0.3,0.264-0.45,0.726-0.45,1.385v0.019h2.016v2.142h-2.016v7.83h-2.538v-7.83h-1.278
					v-2.142h1.278v-0.233c0-1.188,0.339-2.104,1.017-2.746c0.678-0.641,1.683-0.963,3.015-0.963c0.228,0,0.402,0.007,0.522,0.019
					v2.196C135.939,499.422,135.417,499.531,135.118,499.795z"/>
				<path fill="#3A54F5" d="M143.523,508.992v2.178h-1.332c-1.116,0-1.971-0.27-2.565-0.81c-0.594-0.54-0.891-1.44-0.891-2.7v-4.32
					h-1.386v-2.142h1.386v-2.466h2.538v2.466h2.232v2.142h-2.232v4.356c0,0.479,0.096,0.816,0.288,1.009
					c0.192,0.191,0.516,0.287,0.972,0.287H143.523z"/>
				<path fill="#3A54F5" d="M148.135,499.919c0-0.329-0.079-0.588-0.236-0.776c-0.157-0.189-0.404-0.283-0.74-0.283
					c-0.692,0-1.06,0.472-1.102,1.416h-1.438c0.042-0.874,0.308-1.537,0.798-1.988c0.489-0.451,1.108-0.678,1.857-0.678
					c0.762,0,1.348,0.198,1.757,0.594c0.41,0.395,0.614,0.922,0.614,1.579c0,0.519-0.152,1.038-0.457,1.559s-0.691,1.001-1.16,1.438
					c-0.469,0.438-0.962,0.813-1.479,1.128h3.243v1.207h-5.216v-1.102C146.949,502.367,148.135,501.004,148.135,499.919z"/>
				<path fill="#3A54F5" d="M98.164,522.438v-2.376h4.572v12.708h-2.664v-10.332H98.164z"/>
				<path fill="#3A54F5" d="M104.59,530.215v-2.106l6.084-8.19h2.718v8.101h1.656v2.196h-1.656v2.556h-2.556v-2.556H104.59z
					 M111.034,522.889l-3.852,5.13h3.852V522.889z"/>
				<path fill="#3A54F5" d="M118.882,530.125v2.646h-2.736v-2.646H118.882z"/>
				<path fill="#3A54F5" d="M120.124,530.215v-2.106l6.084-8.19h2.718v8.101h1.656v2.196h-1.656v2.556h-2.556v-2.556H120.124z
					 M126.568,522.889l-3.852,5.13h3.852V522.889z"/>
				<path fill="#3A54F5" d="M151.794,523.779c0.702,0.75,1.053,1.815,1.053,3.195v5.796h-2.52v-5.508
					c0-0.769-0.195-1.359-0.585-1.772c-0.39-0.414-0.927-0.621-1.611-0.621c-0.708,0-1.272,0.222-1.692,0.666
					c-0.42,0.443-0.63,1.092-0.63,1.943v5.292h-2.52v-5.508c0-0.769-0.195-1.359-0.585-1.772c-0.39-0.414-0.927-0.621-1.611-0.621
					c-0.708,0-1.272,0.222-1.692,0.666c-0.42,0.443-0.63,1.092-0.63,1.943v5.292h-2.538v-9.972h2.538v1.89
					c0.264-0.647,0.681-1.149,1.251-1.503s1.233-0.531,1.989-0.531c0.804,0,1.503,0.192,2.097,0.576
					c0.594,0.385,1.041,0.936,1.341,1.656c0.312-0.684,0.777-1.227,1.395-1.629c0.618-0.402,1.311-0.604,2.079-0.604
					C150.135,522.654,151.093,523.029,151.794,523.779z"/>
				<path fill="#3A54F5" d="M157.873,521.52c0-0.33-0.079-0.588-0.236-0.777c-0.157-0.189-0.404-0.283-0.74-0.283
					c-0.692,0-1.06,0.473-1.102,1.416h-1.438c0.042-0.873,0.308-1.537,0.798-1.988c0.489-0.451,1.108-0.677,1.857-0.677
					c0.762,0,1.348,0.198,1.757,0.593c0.41,0.396,0.614,0.922,0.614,1.58c0,0.518-0.152,1.037-0.457,1.559
					c-0.304,0.521-0.691,1-1.16,1.438s-0.962,0.812-1.479,1.128h3.243v1.206h-5.216v-1.102
					C156.687,523.968,157.873,522.604,157.873,521.52z"/>
			</g>
		</g>
	</g>
	<g id="MTEXT_139_" display="inline">
		<g>
			<g>
				<g>
					<path fill="#3A54F5" d="M304.704,334.346c-0.072-0.078-0.108-0.177-0.108-0.297v-11.771c0-0.12,0.036-0.22,0.108-0.298
						c0.072-0.077,0.168-0.116,0.288-0.116h0.9c0.132,0,0.234,0.035,0.306,0.107c0.072,0.072,0.108,0.174,0.108,0.307v11.771
						c0,0.12-0.039,0.219-0.117,0.297s-0.177,0.117-0.297,0.117h-0.9C304.872,334.463,304.776,334.424,304.704,334.346z"/>
					<path fill="#3A54F5" d="M310.347,334.238c-0.57-0.271-0.993-0.579-1.269-0.928c-0.276-0.348-0.414-0.636-0.414-0.863
						c0-0.12,0.042-0.213,0.126-0.279c0.084-0.065,0.174-0.099,0.27-0.099h0.756c0.072,0,0.129,0.012,0.171,0.035
						c0.042,0.024,0.099,0.078,0.171,0.162c0.276,0.336,0.585,0.601,0.927,0.792c0.342,0.192,0.801,0.288,1.377,0.288
						c0.648,0,1.167-0.119,1.557-0.359s0.585-0.588,0.585-1.044c0-0.3-0.084-0.54-0.252-0.721c-0.168-0.18-0.447-0.342-0.837-0.485
						c-0.39-0.145-0.969-0.3-1.737-0.469c-1.044-0.228-1.782-0.558-2.214-0.989c-0.432-0.433-0.648-0.99-0.648-1.675
						c0-0.443,0.132-0.873,0.396-1.286c0.264-0.414,0.657-0.75,1.179-1.009c0.522-0.258,1.143-0.387,1.863-0.387
						c0.756,0,1.401,0.126,1.935,0.378c0.534,0.252,0.936,0.546,1.206,0.882s0.405,0.618,0.405,0.847
						c0,0.107-0.039,0.197-0.117,0.27c-0.078,0.072-0.171,0.108-0.279,0.108h-0.684c-0.168,0-0.288-0.066-0.36-0.198
						c-0.204-0.228-0.375-0.405-0.513-0.531c-0.138-0.126-0.339-0.233-0.603-0.324c-0.264-0.09-0.594-0.135-0.99-0.135
						c-0.588,0-1.038,0.123-1.35,0.369s-0.468,0.573-0.468,0.981c0,0.252,0.066,0.465,0.198,0.639
						c0.132,0.174,0.384,0.336,0.756,0.486c0.372,0.149,0.924,0.303,1.656,0.459c1.14,0.24,1.947,0.582,2.421,1.025
						c0.474,0.444,0.711,1.015,0.711,1.71c0,0.517-0.147,0.984-0.441,1.404s-0.732,0.75-1.314,0.99
						c-0.582,0.239-1.275,0.359-2.079,0.359C311.616,334.643,310.917,334.508,310.347,334.238z"/>
					<path fill="#3A54F5" d="M318.519,334.346c-0.078-0.078-0.117-0.177-0.117-0.297v-11.952c0-0.132,0.039-0.233,0.117-0.306
						s0.177-0.108,0.297-0.108h0.792c0.12,0,0.219,0.039,0.297,0.117c0.078,0.078,0.117,0.178,0.117,0.297v11.952
						c0,0.12-0.039,0.219-0.117,0.297c-0.078,0.078-0.177,0.117-0.297,0.117h-0.792
						C318.696,334.463,318.597,334.424,318.519,334.346z"/>
					<path fill="#3A54F5" d="M323.685,334.283c-0.498-0.24-0.894-0.567-1.188-0.981s-0.441-0.873-0.441-1.377
						c0-0.792,0.324-1.439,0.972-1.944c0.648-0.504,1.53-0.84,2.646-1.008l2.7-0.378v-0.521c0-1.236-0.714-1.854-2.142-1.854
						c-0.552,0-0.996,0.111-1.332,0.333c-0.336,0.223-0.582,0.483-0.738,0.783c-0.048,0.12-0.099,0.201-0.153,0.243
						c-0.054,0.042-0.129,0.062-0.225,0.062h-0.702c-0.108,0-0.201-0.038-0.279-0.117c-0.078-0.077-0.117-0.171-0.117-0.278
						c0-0.276,0.129-0.597,0.387-0.963c0.258-0.366,0.657-0.685,1.197-0.954c0.54-0.271,1.2-0.405,1.98-0.405
						c1.344,0,2.307,0.312,2.889,0.937c0.582,0.624,0.873,1.403,0.873,2.34v5.85c0,0.12-0.039,0.219-0.117,0.297
						s-0.177,0.117-0.297,0.117h-0.792c-0.12,0-0.216-0.039-0.288-0.117s-0.108-0.177-0.108-0.297v-0.792
						c-0.264,0.396-0.648,0.727-1.152,0.99c-0.504,0.264-1.152,0.396-1.944,0.396C324.726,334.643,324.183,334.522,323.685,334.283z
						 M327.618,332.555c0.504-0.516,0.756-1.266,0.756-2.25v-0.504l-2.106,0.306c-0.864,0.12-1.518,0.324-1.962,0.612
						c-0.444,0.288-0.666,0.648-0.666,1.08c0,0.492,0.201,0.87,0.603,1.134c0.402,0.265,0.879,0.396,1.431,0.396
						C326.466,333.329,327.114,333.071,327.618,332.555z"/>
					<path fill="#3A54F5" d="M332.739,334.346c-0.078-0.078-0.117-0.177-0.117-0.297v-8.532c0-0.119,0.039-0.219,0.117-0.297
						s0.177-0.117,0.297-0.117h0.774c0.132,0,0.234,0.036,0.306,0.108c0.072,0.072,0.108,0.174,0.108,0.306v0.792
						c0.36-0.443,0.777-0.785,1.251-1.025c0.474-0.24,1.064-0.36,1.773-0.36c1.152,0,2.046,0.369,2.682,1.107
						c0.636,0.737,0.954,1.713,0.954,2.925v5.094c0,0.12-0.039,0.219-0.117,0.297c-0.078,0.078-0.177,0.117-0.297,0.117h-0.828
						c-0.12,0-0.219-0.039-0.297-0.117c-0.079-0.078-0.117-0.177-0.117-0.297v-4.986c0-0.863-0.21-1.535-0.63-2.016
						c-0.42-0.479-1.021-0.72-1.8-0.72c-0.768,0-1.38,0.243-1.836,0.729c-0.456,0.486-0.684,1.155-0.684,2.007v4.986
						c0,0.12-0.039,0.219-0.117,0.297c-0.078,0.078-0.177,0.117-0.297,0.117h-0.828
						C332.916,334.463,332.817,334.424,332.739,334.346z"/>
					<path fill="#3A54F5" d="M344.079,333.419c-0.63-0.816-0.969-1.848-1.017-3.096l-0.018-0.54l0.018-0.54
						c0.048-1.236,0.39-2.266,1.026-3.087c0.636-0.822,1.578-1.233,2.826-1.233s2.22,0.444,2.916,1.332v-4.158
						c0-0.119,0.039-0.219,0.117-0.297c0.078-0.078,0.177-0.117,0.297-0.117h0.81c0.12,0,0.219,0.039,0.297,0.117
						c0.078,0.078,0.117,0.178,0.117,0.297v11.952c0,0.12-0.04,0.219-0.117,0.297c-0.078,0.078-0.177,0.117-0.297,0.117h-0.774
						c-0.12,0-0.216-0.039-0.288-0.117c-0.072-0.078-0.108-0.177-0.108-0.297v-0.774c-0.684,0.912-1.674,1.368-2.97,1.368
						C345.653,334.643,344.708,334.235,344.079,333.419z M349.146,332.402c0.42-0.559,0.648-1.222,0.684-1.989
						c0.012-0.132,0.018-0.36,0.018-0.685c0-0.335-0.006-0.569-0.018-0.701c-0.024-0.732-0.255-1.365-0.693-1.899
						c-0.438-0.534-1.065-0.801-1.881-0.801c-0.864,0-1.494,0.27-1.89,0.81s-0.612,1.248-0.648,2.124l-0.018,0.522
						c0,2.304,0.852,3.456,2.556,3.456C348.095,333.239,348.726,332.96,349.146,332.402z"/>
					<path fill="#3A54F5" d="M359.702,333.338c-0.834-0.87-1.281-2.061-1.341-3.573c-0.012-0.324-0.018-0.852-0.018-1.584
						c0-0.744,0.006-1.283,0.018-1.62c0.06-1.512,0.507-2.702,1.341-3.572s2.049-1.306,3.645-1.306c1.068,0,1.974,0.189,2.718,0.567
						s1.305,0.873,1.683,1.485c0.378,0.611,0.585,1.266,0.621,1.962c0,0.107-0.039,0.194-0.117,0.261s-0.171,0.099-0.279,0.099h-0.9
						c-0.12,0-0.216-0.029-0.288-0.09c-0.072-0.06-0.126-0.162-0.162-0.306c-0.204-0.924-0.573-1.572-1.107-1.944
						c-0.534-0.372-1.257-0.558-2.169-0.558c-2.088,0-3.174,1.164-3.258,3.492c-0.012,0.323-0.018,0.821-0.018,1.493
						c0,0.673,0.006,1.183,0.018,1.53c0.083,2.316,1.17,3.474,3.258,3.474c0.9,0,1.62-0.186,2.16-0.558s0.912-1.014,1.116-1.926
						c0.036-0.145,0.09-0.246,0.162-0.306c0.072-0.061,0.168-0.091,0.288-0.091h0.9c0.108,0,0.201,0.033,0.279,0.1
						c0.078,0.065,0.117,0.152,0.117,0.261c-0.036,0.696-0.243,1.35-0.621,1.962s-0.939,1.107-1.683,1.485s-1.65,0.566-2.718,0.566
						C361.751,334.643,360.536,334.208,359.702,333.338z"/>
					<path fill="#3A54F5" d="M371.33,333.527c-0.714-0.744-1.095-1.734-1.143-2.971l-0.018-0.773l0.018-0.774
						c0.048-1.235,0.435-2.226,1.161-2.97c0.726-0.744,1.737-1.116,3.033-1.116s2.307,0.372,3.033,1.116
						c0.726,0.744,1.113,1.734,1.161,2.97c0.024,0.265,0.036,0.522,0.036,0.774s-0.012,0.51-0.036,0.773
						c-0.048,1.236-0.429,2.227-1.143,2.971c-0.714,0.744-1.731,1.115-3.051,1.115C373.061,334.643,372.044,334.271,371.33,333.527z
						 M376.208,332.563c0.45-0.485,0.693-1.185,0.729-2.097c0.012-0.12,0.018-0.348,0.018-0.684s-0.006-0.564-0.018-0.685
						c-0.036-0.911-0.279-1.61-0.729-2.097c-0.45-0.486-1.059-0.729-1.827-0.729s-1.377,0.243-1.827,0.729
						c-0.45,0.486-0.693,1.186-0.729,2.097l-0.018,0.685l0.018,0.684c0.036,0.912,0.279,1.611,0.729,2.097
						c0.45,0.486,1.059,0.729,1.827,0.729S375.758,333.05,376.208,332.563z"/>
					<path fill="#3A54F5" d="M381.725,333.536c-0.624-0.738-0.936-1.72-0.936-2.943v-5.076c0-0.119,0.039-0.219,0.117-0.297
						s0.177-0.117,0.297-0.117h0.828c0.12,0,0.219,0.039,0.297,0.117s0.117,0.178,0.117,0.297v4.986
						c0,1.824,0.792,2.736,2.376,2.736c0.768,0,1.377-0.243,1.827-0.729c0.45-0.486,0.675-1.154,0.675-2.007v-4.986
						c0-0.119,0.039-0.219,0.117-0.297c0.078-0.078,0.177-0.117,0.297-0.117h0.828c0.12,0,0.219,0.039,0.297,0.117
						s0.117,0.178,0.117,0.297v8.532c0,0.12-0.039,0.219-0.117,0.297s-0.177,0.117-0.297,0.117h-0.774
						c-0.12,0-0.219-0.039-0.297-0.117s-0.117-0.177-0.117-0.297v-0.81c-0.348,0.468-0.756,0.818-1.224,1.053
						c-0.468,0.234-1.062,0.351-1.782,0.351C383.23,334.643,382.349,334.273,381.725,333.536z"/>
					<path fill="#3A54F5" d="M391.795,334.346c-0.078-0.078-0.117-0.177-0.117-0.297v-8.532c0-0.119,0.039-0.219,0.117-0.297
						s0.177-0.117,0.297-0.117h0.774c0.132,0,0.234,0.036,0.306,0.108c0.072,0.072,0.108,0.174,0.108,0.306v0.792
						c0.36-0.443,0.777-0.785,1.251-1.025c0.474-0.24,1.064-0.36,1.773-0.36c1.152,0,2.046,0.369,2.682,1.107
						c0.636,0.737,0.954,1.713,0.954,2.925v5.094c0,0.12-0.039,0.219-0.117,0.297c-0.078,0.078-0.177,0.117-0.297,0.117h-0.828
						c-0.12,0-0.219-0.039-0.297-0.117c-0.079-0.078-0.117-0.177-0.117-0.297v-4.986c0-0.863-0.21-1.535-0.63-2.016
						c-0.42-0.479-1.021-0.72-1.8-0.72c-0.768,0-1.38,0.243-1.836,0.729c-0.456,0.486-0.684,1.155-0.684,2.007v4.986
						c0,0.12-0.039,0.219-0.117,0.297c-0.078,0.078-0.177,0.117-0.297,0.117h-0.828
						C391.973,334.463,391.874,334.424,391.795,334.346z"/>
					<path fill="#3A54F5" d="M403.235,331.312v-4.823h-1.422c-0.12,0-0.216-0.036-0.288-0.108c-0.072-0.072-0.108-0.168-0.108-0.288
						v-0.576c0-0.119,0.036-0.219,0.108-0.297c0.072-0.078,0.167-0.117,0.288-0.117h1.422v-3.006c0-0.119,0.036-0.219,0.108-0.297
						c0.072-0.078,0.168-0.117,0.288-0.117h0.792c0.12,0,0.219,0.039,0.297,0.117s0.117,0.178,0.117,0.297v3.006h2.232
						c0.12,0,0.219,0.039,0.297,0.117s0.117,0.178,0.117,0.297v0.576c0,0.12-0.039,0.216-0.117,0.288s-0.177,0.108-0.297,0.108
						h-2.232v4.697c0,0.612,0.099,1.074,0.297,1.387c0.198,0.312,0.537,0.468,1.017,0.468h1.098c0.12,0,0.216,0.039,0.288,0.117
						c0.072,0.078,0.108,0.177,0.108,0.297v0.594c0,0.12-0.036,0.219-0.108,0.297c-0.072,0.078-0.168,0.117-0.288,0.117h-1.224
						C404.165,334.463,403.235,333.413,403.235,331.312z"/>
					<path fill="#3A54F5" d="M410.183,333.5c-0.732-0.762-1.134-1.803-1.206-3.123l-0.018-0.612l0.018-0.594
						c0.072-1.296,0.474-2.328,1.206-3.096c0.732-0.769,1.71-1.152,2.934-1.152c1.32,0,2.343,0.42,3.069,1.26
						c0.726,0.841,1.089,1.98,1.089,3.42v0.324c0,0.12-0.039,0.219-0.117,0.297c-0.078,0.078-0.177,0.117-0.297,0.117h-6.246v0.162
						c0.036,0.78,0.276,1.446,0.72,1.998s1.032,0.828,1.764,0.828c0.564,0,1.023-0.111,1.377-0.333s0.621-0.453,0.801-0.693
						c0.108-0.144,0.192-0.23,0.252-0.261c0.06-0.03,0.162-0.045,0.306-0.045h0.792c0.108,0,0.201,0.03,0.279,0.09
						c0.078,0.061,0.117,0.138,0.117,0.234c0,0.264-0.162,0.582-0.486,0.953c-0.324,0.373-0.783,0.693-1.377,0.964
						c-0.594,0.27-1.275,0.404-2.043,0.404C411.893,334.643,410.915,334.262,410.183,333.5z M415.637,329.117v-0.055
						c0-0.84-0.228-1.523-0.684-2.052c-0.456-0.527-1.068-0.792-1.836-0.792c-0.78,0-1.392,0.265-1.836,0.792
						c-0.444,0.528-0.666,1.212-0.666,2.052v0.055H415.637z"/>
					<path fill="#3A54F5" d="M419.587,334.346c-0.078-0.078-0.117-0.177-0.117-0.297v-8.514c0-0.12,0.039-0.223,0.117-0.307
						c0.078-0.083,0.177-0.126,0.297-0.126h0.756c0.132,0,0.237,0.039,0.315,0.117s0.117,0.184,0.117,0.315v0.792
						c0.492-0.816,1.326-1.225,2.502-1.225h0.702c0.132,0,0.234,0.036,0.306,0.108c0.072,0.072,0.108,0.174,0.108,0.306v0.666
						c0,0.12-0.036,0.22-0.108,0.297c-0.072,0.078-0.174,0.117-0.306,0.117h-1.026c-0.66,0-1.179,0.192-1.557,0.576
						c-0.378,0.384-0.567,0.906-0.567,1.566v5.31c0,0.12-0.042,0.219-0.126,0.297s-0.186,0.117-0.306,0.117h-0.81
						C419.765,334.463,419.666,334.424,419.587,334.346z"/>
				</g>
			</g>
		</g>
	</g>
	<g display="inline">
		<g id="POLYLINE_1006_">
			
				<line fill="none" stroke="#3A54F5" stroke-width="2" stroke-linecap="round" stroke-linejoin="round" stroke-miterlimit="10" x1="624.591" y1="97.244" x2="416" y2="97.244"/>
		</g>
		<g id="LINE_65_">
			
				<line fill="none" stroke="#3A54F5" stroke-width="2" stroke-linecap="round" stroke-linejoin="round" stroke-miterlimit="10" x1="313.048" y1="97.244" x2="98.987" y2="97.244"/>
		</g>
		<g id="POLYLINE_1005_">
			
				<polyline fill="none" stroke="#3A54F5" stroke-width="2" stroke-linecap="round" stroke-linejoin="round" stroke-miterlimit="10" points="
				105.616,103.871 98.987,97.244 105.616,90.615 			"/>
		</g>
		<g id="POLYLINE_1004_">
			
				<polyline fill="none" stroke="#3A54F5" stroke-width="2" stroke-linecap="round" stroke-linejoin="round" stroke-miterlimit="10" points="
				617.964,90.615 624.591,97.244 617.964,103.871 			"/>
		</g>
		<g id="MTEXT_134_">
			<g>
				<g>
					<path fill="#3A54F5" d="M323.427,103.455c-0.072-0.078-0.108-0.177-0.108-0.297V93.006l-3.024,2.322
						c-0.084,0.072-0.174,0.108-0.27,0.108c-0.108,0-0.21-0.061-0.306-0.181l-0.432-0.558c-0.06-0.084-0.09-0.168-0.09-0.252
						c0-0.132,0.06-0.24,0.18-0.324l3.906-3.023c0.132-0.084,0.288-0.126,0.468-0.126h0.846c0.12,0,0.219,0.039,0.297,0.116
						c0.078,0.078,0.117,0.178,0.117,0.298v11.771c0,0.12-0.039,0.219-0.117,0.297s-0.177,0.117-0.297,0.117h-0.882
						C323.595,103.572,323.499,103.533,323.427,103.455z"/>
					<path fill="#3A54F5" d="M329.294,103.267c-0.66-0.324-1.164-0.747-1.512-1.27c-0.349-0.521-0.534-1.083-0.558-1.683v-0.036
						c0-0.096,0.036-0.174,0.108-0.234c0.072-0.06,0.156-0.09,0.252-0.09h0.882c0.252,0,0.414,0.133,0.486,0.396
						c0.18,0.647,0.513,1.131,0.999,1.448c0.486,0.318,1.047,0.478,1.683,0.478c0.816,0,1.494-0.249,2.034-0.747
						s0.81-1.185,0.81-2.061c0-0.805-0.27-1.443-0.81-1.918c-0.54-0.474-1.218-0.711-2.034-0.711c-0.432,0-0.78,0.055-1.044,0.162
						c-0.264,0.108-0.534,0.265-0.81,0.469c-0.156,0.12-0.285,0.207-0.387,0.261c-0.102,0.054-0.213,0.081-0.333,0.081h-0.864
						c-0.108,0-0.204-0.039-0.288-0.117c-0.084-0.078-0.12-0.171-0.108-0.279l0.558-5.994c0.036-0.3,0.186-0.449,0.45-0.449h6.228
						c0.132,0,0.234,0.035,0.306,0.107c0.072,0.072,0.108,0.174,0.108,0.307v0.666c0,0.119-0.039,0.216-0.117,0.287
						c-0.078,0.072-0.177,0.108-0.297,0.108h-5.184l-0.324,3.618c0.576-0.408,1.35-0.612,2.322-0.612
						c0.804,0,1.536,0.159,2.196,0.478c0.66,0.317,1.185,0.782,1.575,1.395c0.39,0.612,0.585,1.338,0.585,2.178
						c0,0.889-0.195,1.653-0.585,2.295c-0.39,0.643-0.93,1.129-1.62,1.458c-0.69,0.33-1.479,0.495-2.367,0.495
						C330.734,103.752,329.954,103.59,329.294,103.267z"/>
					<path fill="#3A54F5" d="M338.15,94.113c-0.048-0.065-0.066-0.159-0.054-0.279l0.396-2.52c0.048-0.348,0.216-0.522,0.504-0.522
						h1.152c0.083,0,0.153,0.03,0.207,0.09c0.054,0.061,0.081,0.133,0.081,0.217c0,0.12-0.018,0.216-0.054,0.288l-0.936,2.43
						c-0.06,0.132-0.126,0.231-0.198,0.297c-0.072,0.066-0.18,0.099-0.324,0.099h-0.558C338.27,94.212,338.198,94.18,338.15,94.113z
						"/>
					<path fill="#3A54F5" d="M347.024,107.199c-0.072-0.078-0.108-0.177-0.108-0.297V87.858c0-0.12,0.036-0.219,0.108-0.297
						s0.168-0.117,0.288-0.117h0.666c0.12,0,0.219,0.039,0.297,0.117s0.117,0.177,0.117,0.297v19.044
						c0,0.12-0.039,0.219-0.117,0.297s-0.177,0.117-0.297,0.117h-0.666C347.192,107.316,347.096,107.277,347.024,107.199z"/>
					<path fill="#3A54F5" d="M361.09,103.455c-0.078-0.078-0.117-0.177-0.117-0.297v-2.628h-5.85c-0.12,0-0.219-0.039-0.297-0.117
						s-0.117-0.177-0.117-0.297V99.45c0-0.168,0.066-0.348,0.198-0.54l5.418-7.632c0.06-0.096,0.15-0.171,0.27-0.225
						c0.12-0.055,0.252-0.081,0.396-0.081h1.224c0.132,0,0.234,0.035,0.306,0.107c0.072,0.072,0.108,0.174,0.108,0.307v7.632h1.638
						c0.12,0,0.219,0.039,0.297,0.117c0.078,0.078,0.117,0.177,0.117,0.297v0.684c0,0.12-0.039,0.219-0.117,0.297
						c-0.078,0.078-0.177,0.117-0.297,0.117h-1.638v2.628c0,0.12-0.039,0.219-0.117,0.297s-0.177,0.117-0.297,0.117h-0.828
						C361.267,103.572,361.168,103.533,361.09,103.455z M356.582,99.055h4.41V92.79L356.582,99.055z"/>
					<path fill="#3A54F5" d="M366.328,103.455c-0.078-0.078-0.117-0.177-0.117-0.297v-1.242c0-0.119,0.039-0.222,0.117-0.306
						s0.177-0.126,0.297-0.126h1.242c0.12,0,0.219,0.042,0.297,0.126s0.117,0.187,0.117,0.306v1.242c0,0.12-0.039,0.219-0.117,0.297
						s-0.177,0.117-0.297,0.117h-1.242C366.505,103.572,366.406,103.533,366.328,103.455z"/>
					<path fill="#3A54F5" d="M372.385,103.267c-0.66-0.324-1.164-0.747-1.512-1.27c-0.349-0.521-0.534-1.083-0.558-1.683v-0.036
						c0-0.096,0.036-0.174,0.108-0.234c0.072-0.06,0.156-0.09,0.252-0.09h0.882c0.252,0,0.414,0.133,0.486,0.396
						c0.18,0.647,0.513,1.131,0.999,1.448c0.486,0.318,1.047,0.478,1.683,0.478c0.816,0,1.494-0.249,2.034-0.747
						s0.81-1.185,0.81-2.061c0-0.805-0.27-1.443-0.81-1.918c-0.54-0.474-1.218-0.711-2.034-0.711c-0.432,0-0.78,0.055-1.044,0.162
						c-0.264,0.108-0.534,0.265-0.81,0.469c-0.156,0.12-0.285,0.207-0.387,0.261c-0.102,0.054-0.213,0.081-0.333,0.081h-0.864
						c-0.108,0-0.204-0.039-0.288-0.117c-0.084-0.078-0.12-0.171-0.108-0.279l0.558-5.994c0.036-0.3,0.186-0.449,0.45-0.449h6.228
						c0.132,0,0.234,0.035,0.306,0.107c0.072,0.072,0.108,0.174,0.108,0.307v0.666c0,0.119-0.039,0.216-0.117,0.287
						c-0.078,0.072-0.177,0.108-0.297,0.108h-5.184l-0.324,3.618c0.576-0.408,1.35-0.612,2.322-0.612
						c0.804,0,1.536,0.159,2.196,0.478c0.66,0.317,1.185,0.782,1.575,1.395c0.39,0.612,0.585,1.338,0.585,2.178
						c0,0.889-0.195,1.653-0.585,2.295c-0.39,0.643-0.93,1.129-1.62,1.458c-0.69,0.33-1.479,0.495-2.367,0.495
						C373.825,103.752,373.045,103.59,372.385,103.267z"/>
					<path fill="#3A54F5" d="M382.583,103.455c-0.066-0.078-0.099-0.171-0.099-0.279l0.036-0.161l4.5-10.53h-5.94
						c-0.12,0-0.219-0.039-0.297-0.117c-0.078-0.078-0.117-0.177-0.117-0.297v-0.666c0-0.132,0.036-0.237,0.108-0.315
						c0.072-0.077,0.174-0.116,0.306-0.116h7.344c0.132,0,0.234,0.039,0.306,0.116c0.072,0.078,0.108,0.184,0.108,0.315v0.612
						c0,0.216-0.048,0.449-0.144,0.702l-4.446,10.403c-0.06,0.133-0.126,0.24-0.198,0.324c-0.072,0.084-0.174,0.126-0.306,0.126
						h-0.9C382.735,103.572,382.648,103.533,382.583,103.455z"/>
					<path fill="#3A54F5" d="M395.218,103.455c-0.078-0.078-0.117-0.177-0.117-0.297v-8.532c0-0.119,0.039-0.219,0.117-0.297
						s0.177-0.117,0.297-0.117h0.756c0.12,0,0.216,0.039,0.288,0.117c0.072,0.078,0.108,0.178,0.108,0.297v0.612
						c0.648-0.804,1.524-1.206,2.628-1.206c1.32,0,2.256,0.552,2.808,1.656c0.288-0.504,0.699-0.906,1.233-1.206
						c0.534-0.3,1.131-0.45,1.791-0.45c0.984,0,1.788,0.336,2.412,1.008c0.624,0.673,0.936,1.645,0.936,2.916v5.202
						c0,0.12-0.039,0.219-0.117,0.297s-0.177,0.117-0.297,0.117h-0.774c-0.12,0-0.219-0.039-0.297-0.117s-0.117-0.177-0.117-0.297
						v-5.04c0-0.96-0.198-1.646-0.594-2.061s-0.918-0.621-1.566-0.621c-0.576,0-1.071,0.213-1.485,0.639s-0.621,1.107-0.621,2.043
						v5.04c0,0.12-0.039,0.219-0.117,0.297s-0.177,0.117-0.297,0.117h-0.792c-0.12,0-0.219-0.039-0.297-0.117
						c-0.078-0.078-0.117-0.177-0.117-0.297v-5.04c0-0.947-0.207-1.632-0.621-2.052c-0.414-0.42-0.927-0.63-1.539-0.63
						c-0.576,0-1.071,0.21-1.485,0.63s-0.621,1.098-0.621,2.034v5.058c0,0.12-0.04,0.219-0.117,0.297
						c-0.078,0.078-0.177,0.117-0.297,0.117h-0.792C395.395,103.572,395.296,103.533,395.218,103.455z"/>
				</g>
			</g>
		</g>
	</g>
	<g display="inline">
		<g id="POLYLINE_1003_">
			
				<line fill="none" stroke="#3A54F5" stroke-width="2" stroke-linecap="round" stroke-linejoin="round" stroke-miterlimit="10" x1="434.591" y1="505.244" x2="411" y2="505.244"/>
		</g>
		<g id="LINE_64_">
			
				<line fill="none" stroke="#3A54F5" stroke-width="2" stroke-linecap="round" stroke-linejoin="round" stroke-miterlimit="10" x1="316" y1="505.244" x2="290.987" y2="505.244"/>
		</g>
		<g id="POLYLINE_1002_">
			
				<polyline fill="none" stroke="#3A54F5" stroke-width="2" stroke-linecap="round" stroke-linejoin="round" stroke-miterlimit="10" points="
				297.616,511.871 290.987,505.244 297.616,498.615 			"/>
		</g>
		<g id="POLYLINE_1001_">
			
				<polyline fill="none" stroke="#3A54F5" stroke-width="2" stroke-linecap="round" stroke-linejoin="round" stroke-miterlimit="10" points="
				427.964,498.615 434.591,505.244 427.964,511.871 			"/>
		</g>
		<g id="MTEXT_77_">
			<g>
				<g>
					<path fill="#3A54F5" d="M330.275,511.455c-0.078-0.078-0.117-0.177-0.117-0.297v-2.628h-5.85c-0.12,0-0.219-0.039-0.297-0.117
						s-0.117-0.177-0.117-0.297v-0.666c0-0.168,0.066-0.348,0.198-0.54l5.418-7.632c0.06-0.096,0.15-0.171,0.27-0.225
						c0.12-0.055,0.252-0.081,0.396-0.081h1.224c0.132,0,0.234,0.035,0.306,0.107c0.072,0.072,0.108,0.174,0.108,0.307v7.632h1.638
						c0.12,0,0.219,0.039,0.297,0.117c0.078,0.078,0.117,0.177,0.117,0.297v0.684c0,0.12-0.039,0.219-0.117,0.297
						c-0.078,0.078-0.177,0.117-0.297,0.117h-1.638v2.628c0,0.12-0.039,0.219-0.117,0.297s-0.177,0.117-0.297,0.117h-0.828
						C330.452,511.572,330.354,511.533,330.275,511.455z M325.767,507.055h4.41v-6.265L325.767,507.055z"/>
					<path fill="#3A54F5" d="M335.559,502.113c-0.048-0.065-0.066-0.159-0.054-0.279l0.396-2.52
						c0.048-0.348,0.216-0.522,0.504-0.522h1.152c0.083,0,0.153,0.03,0.207,0.09c0.054,0.061,0.081,0.133,0.081,0.217
						c0,0.12-0.018,0.216-0.054,0.288l-0.936,2.43c-0.06,0.132-0.126,0.231-0.198,0.297c-0.072,0.066-0.18,0.099-0.324,0.099h-0.558
						C335.678,502.212,335.606,502.18,335.559,502.113z"/>
					<path fill="#3A54F5" d="M344.432,515.199c-0.072-0.078-0.108-0.177-0.108-0.297v-19.044c0-0.12,0.036-0.219,0.108-0.297
						s0.168-0.117,0.288-0.117h0.666c0.12,0,0.219,0.039,0.297,0.117s0.117,0.177,0.117,0.297v19.044
						c0,0.12-0.039,0.219-0.117,0.297s-0.177,0.117-0.297,0.117h-0.666C344.6,515.316,344.504,515.277,344.432,515.199z"/>
					<path fill="#3A54F5" d="M356.24,511.455c-0.072-0.078-0.108-0.177-0.108-0.297v-10.152l-3.024,2.322
						c-0.084,0.072-0.174,0.108-0.27,0.108c-0.108,0-0.21-0.061-0.306-0.181l-0.432-0.558c-0.06-0.084-0.09-0.168-0.09-0.252
						c0-0.132,0.06-0.24,0.18-0.324l3.906-3.023c0.132-0.084,0.288-0.126,0.468-0.126h0.846c0.12,0,0.219,0.039,0.297,0.116
						c0.078,0.078,0.117,0.178,0.117,0.298v11.771c0,0.12-0.039,0.219-0.117,0.297s-0.177,0.117-0.297,0.117h-0.882
						C356.408,511.572,356.312,511.533,356.24,511.455z"/>
					<path fill="#3A54F5" d="M360.55,511.455c-0.078-0.078-0.117-0.177-0.117-0.297v-1.242c0-0.119,0.039-0.222,0.117-0.306
						s0.177-0.126,0.297-0.126h1.242c0.12,0,0.219,0.042,0.297,0.126s0.117,0.187,0.117,0.306v1.242c0,0.12-0.039,0.219-0.117,0.297
						s-0.177,0.117-0.297,0.117h-1.242C360.728,511.572,360.628,511.533,360.55,511.455z"/>
					<path fill="#3A54F5" d="M364.708,511.455c-0.078-0.078-0.117-0.177-0.117-0.297v-0.54c0-0.275,0.15-0.54,0.45-0.792
						l3.924-3.906c0.888-0.756,1.5-1.374,1.836-1.854s0.504-0.99,0.504-1.53c0-0.708-0.198-1.263-0.594-1.665
						c-0.396-0.401-0.972-0.603-1.728-0.603c-0.72,0-1.29,0.21-1.71,0.63s-0.678,0.984-0.774,1.691
						c-0.024,0.133-0.084,0.234-0.18,0.307s-0.192,0.107-0.288,0.107h-0.864c-0.108,0-0.198-0.035-0.27-0.107
						s-0.108-0.156-0.108-0.252c0.024-0.636,0.195-1.251,0.513-1.846c0.318-0.594,0.789-1.079,1.413-1.458
						c0.624-0.378,1.38-0.566,2.268-0.566c1.344,0,2.355,0.351,3.033,1.053c0.678,0.702,1.017,1.593,1.017,2.673
						c0,0.756-0.183,1.438-0.549,2.043c-0.366,0.606-0.939,1.245-1.719,1.917l-3.546,3.601h5.67c0.132,0,0.234,0.036,0.306,0.107
						c0.072,0.072,0.108,0.175,0.108,0.307v0.684c0,0.12-0.04,0.219-0.117,0.297c-0.078,0.078-0.177,0.117-0.297,0.117h-7.884
						C364.885,511.572,364.787,511.533,364.708,511.455z"/>
					<path fill="#3A54F5" d="M375.22,511.455c-0.078-0.078-0.117-0.177-0.117-0.297v-0.54c0-0.275,0.15-0.54,0.45-0.792l3.924-3.906
						c0.888-0.756,1.5-1.374,1.836-1.854s0.504-0.99,0.504-1.53c0-0.708-0.198-1.263-0.594-1.665
						c-0.396-0.401-0.972-0.603-1.728-0.603c-0.72,0-1.29,0.21-1.71,0.63s-0.678,0.984-0.774,1.691
						c-0.024,0.133-0.084,0.234-0.18,0.307s-0.192,0.107-0.288,0.107h-0.864c-0.108,0-0.198-0.035-0.27-0.107
						s-0.108-0.156-0.108-0.252c0.024-0.636,0.195-1.251,0.513-1.846c0.318-0.594,0.789-1.079,1.413-1.458
						c0.624-0.378,1.38-0.566,2.268-0.566c1.344,0,2.355,0.351,3.033,1.053c0.678,0.702,1.017,1.593,1.017,2.673
						c0,0.756-0.183,1.438-0.549,2.043c-0.366,0.606-0.939,1.245-1.719,1.917l-3.546,3.601h5.67c0.132,0,0.234,0.036,0.306,0.107
						c0.072,0.072,0.108,0.175,0.108,0.307v0.684c0,0.12-0.04,0.219-0.117,0.297c-0.078,0.078-0.177,0.117-0.297,0.117h-7.884
						C375.397,511.572,375.298,511.533,375.22,511.455z"/>
					<path fill="#3A54F5" d="M390.628,511.455c-0.078-0.078-0.117-0.177-0.117-0.297v-8.532c0-0.119,0.039-0.219,0.117-0.297
						s0.177-0.117,0.297-0.117h0.756c0.12,0,0.216,0.039,0.288,0.117c0.072,0.078,0.108,0.178,0.108,0.297v0.612
						c0.648-0.804,1.524-1.206,2.628-1.206c1.32,0,2.256,0.552,2.808,1.656c0.288-0.504,0.699-0.906,1.233-1.206
						c0.534-0.3,1.131-0.45,1.791-0.45c0.984,0,1.788,0.336,2.412,1.008c0.624,0.673,0.936,1.645,0.936,2.916v5.202
						c0,0.12-0.039,0.219-0.117,0.297s-0.177,0.117-0.297,0.117h-0.774c-0.12,0-0.219-0.039-0.297-0.117s-0.117-0.177-0.117-0.297
						v-5.04c0-0.96-0.198-1.646-0.594-2.061s-0.918-0.621-1.566-0.621c-0.576,0-1.071,0.213-1.485,0.639s-0.621,1.107-0.621,2.043
						v5.04c0,0.12-0.039,0.219-0.117,0.297s-0.177,0.117-0.297,0.117h-0.792c-0.12,0-0.219-0.039-0.297-0.117
						c-0.078-0.078-0.117-0.177-0.117-0.297v-5.04c0-0.947-0.207-1.632-0.621-2.052c-0.414-0.42-0.927-0.63-1.539-0.63
						c-0.576,0-1.071,0.21-1.485,0.63s-0.621,1.098-0.621,2.034v5.058c0,0.12-0.04,0.219-0.117,0.297
						c-0.078,0.078-0.177,0.117-0.297,0.117h-0.792C390.805,511.572,390.706,511.533,390.628,511.455z"/>
				</g>
			</g>
		</g>
	</g>
	<g display="inline">
		<g id="POLYLINE_1000_">
			
				<line fill="none" stroke="#3A54F5" stroke-width="2" stroke-linecap="round" stroke-linejoin="round" stroke-miterlimit="10" x1="283.591" y1="309.244" x2="262" y2="309.244"/>
		</g>
		<g id="LINE_63_">
			
				<line fill="none" stroke="#3A54F5" stroke-width="2" stroke-linecap="round" stroke-linejoin="round" stroke-miterlimit="10" x1="203" y1="309.244" x2="179.987" y2="309.244"/>
		</g>
		<g id="POLYLINE_999_">
			
				<polyline fill="none" stroke="#3A54F5" stroke-width="2" stroke-linecap="round" stroke-linejoin="round" stroke-miterlimit="10" points="
				186.616,315.871 179.987,309.244 186.616,302.615 			"/>
		</g>
		<g id="POLYLINE_998_">
			
				<polyline fill="none" stroke="#3A54F5" stroke-width="2" stroke-linecap="round" stroke-linejoin="round" stroke-miterlimit="10" points="
				276.964,302.615 283.591,309.244 276.964,315.871 			"/>
		</g>
		<g id="MTEXT_74_">
			<g>
				<g>
					<g>
						<path fill="#3A54F5" d="M220.559,295.324c-0.608-0.271-1.07-0.626-1.384-1.063s-0.482-0.891-0.504-1.36
							c0-0.096,0.032-0.174,0.096-0.232s0.144-0.088,0.24-0.088h0.72c0.117,0,0.213,0.024,0.288,0.072
							c0.074,0.048,0.133,0.142,0.176,0.28c0.139,0.544,0.44,0.928,0.904,1.151c0.464,0.225,1.011,0.336,1.64,0.336
							c0.768,0,1.378-0.184,1.832-0.552c0.453-0.368,0.68-0.894,0.68-1.576c0-1.301-0.795-1.952-2.384-1.952h-1.504
							c-0.107,0-0.195-0.034-0.264-0.104s-0.104-0.157-0.104-0.264v-0.416c0-0.16,0.059-0.299,0.176-0.416l3.12-3.456h-4.736
							c-0.106,0-0.195-0.032-0.264-0.097c-0.07-0.063-0.104-0.148-0.104-0.256v-0.576c0-0.117,0.034-0.21,0.104-0.279
							c0.069-0.069,0.157-0.104,0.264-0.104h6.336c0.118,0,0.21,0.035,0.28,0.104c0.069,0.069,0.104,0.162,0.104,0.279v0.528
							c0,0.117-0.054,0.24-0.16,0.368l-3.12,3.504h0.256c1.088,0.032,1.949,0.314,2.584,0.848c0.634,0.534,0.952,1.312,0.952,2.336
							c0,0.704-0.173,1.31-0.52,1.816s-0.829,0.896-1.448,1.168c-0.619,0.272-1.317,0.408-2.096,0.408
							C221.887,295.732,221.167,295.597,220.559,295.324z"/>
						<path fill="#3A54F5" d="M228.527,287.164c-0.043-0.059-0.059-0.141-0.048-0.248l0.352-2.24
							c0.042-0.309,0.192-0.464,0.448-0.464h1.024c0.075,0,0.136,0.027,0.184,0.08c0.048,0.054,0.072,0.118,0.072,0.192
							c0,0.106-0.016,0.191-0.048,0.256l-0.832,2.16c-0.053,0.117-0.112,0.205-0.176,0.264s-0.16,0.088-0.288,0.088h-0.496
							C228.633,287.252,228.569,287.223,228.527,287.164z"/>
						<path fill="#3A54F5" d="M233.878,295.212c-0.624-0.346-1.099-0.812-1.424-1.399c-0.326-0.587-0.488-1.227-0.488-1.92
							c0-0.918,0.368-1.898,1.104-2.944l3.056-4.256c0.011-0.011,0.04-0.048,0.088-0.112c0.048-0.063,0.109-0.114,0.184-0.151
							c0.075-0.038,0.16-0.057,0.256-0.057h0.784c0.096,0,0.173,0.035,0.232,0.104s0.088,0.151,0.088,0.248
							c0,0.053-0.027,0.122-0.08,0.208l-2.336,3.264c0.277-0.064,0.586-0.096,0.928-0.096c0.779,0,1.464,0.173,2.056,0.52
							c0.592,0.347,1.05,0.806,1.376,1.376c0.325,0.571,0.488,1.197,0.488,1.88s-0.163,1.32-0.488,1.912
							c-0.326,0.592-0.797,1.064-1.416,1.416c-0.619,0.353-1.35,0.528-2.192,0.528C235.241,295.732,234.502,295.559,233.878,295.212
							z M237.375,294.116c0.395-0.192,0.709-0.478,0.944-0.855c0.234-0.379,0.352-0.835,0.352-1.368c0-0.522-0.12-0.974-0.36-1.353
							c-0.24-0.378-0.558-0.666-0.952-0.864c-0.395-0.196-0.821-0.296-1.28-0.296c-0.459,0-0.885,0.1-1.28,0.296
							c-0.395,0.198-0.709,0.486-0.944,0.864c-0.235,0.379-0.352,0.83-0.352,1.353c0,0.533,0.117,0.989,0.352,1.368
							c0.235,0.378,0.549,0.663,0.944,0.855c0.395,0.192,0.821,0.288,1.28,0.288C236.548,294.404,236.98,294.309,237.375,294.116z"
							/>
						<path fill="#3A54F5" d="M241.75,287.156c-0.048-0.064-0.061-0.144-0.04-0.24l0.352-2.24c0.042-0.309,0.192-0.464,0.448-0.464
							h1.024c0.075,0,0.136,0.027,0.184,0.08c0.048,0.054,0.072,0.118,0.072,0.192c0,0.106-0.016,0.191-0.048,0.256l-0.832,2.16
							c-0.053,0.117-0.112,0.205-0.176,0.264s-0.16,0.088-0.288,0.088h-0.496C241.865,287.252,241.798,287.221,241.75,287.156z
							 M244.262,287.156c-0.048-0.064-0.062-0.144-0.04-0.24l0.352-2.24c0.042-0.309,0.192-0.464,0.448-0.464h1.024
							c0.074,0,0.136,0.027,0.184,0.08c0.048,0.054,0.072,0.118,0.072,0.192c0,0.106-0.016,0.191-0.048,0.256l-0.832,2.16
							c-0.054,0.117-0.112,0.205-0.176,0.264s-0.16,0.088-0.288,0.088h-0.496C244.377,287.252,244.31,287.221,244.262,287.156z"/>
						<path fill="#3A54F5" d="M213.127,314.669c-0.064-0.069-0.096-0.158-0.096-0.265v-9.023l-2.688,2.063
							c-0.075,0.064-0.155,0.096-0.24,0.096c-0.096,0-0.187-0.053-0.272-0.159l-0.384-0.496c-0.054-0.075-0.08-0.149-0.08-0.225
							c0-0.117,0.053-0.213,0.16-0.288l3.472-2.688c0.117-0.074,0.256-0.112,0.416-0.112h0.752c0.106,0,0.194,0.035,0.264,0.104
							s0.104,0.157,0.104,0.264v10.464c0,0.106-0.035,0.195-0.104,0.265s-0.157,0.104-0.264,0.104h-0.784
							C213.276,314.772,213.191,314.738,213.127,314.669z"/>
						<path fill="#3A54F5" d="M216.958,314.669c-0.069-0.069-0.104-0.158-0.104-0.265v-1.104c0-0.106,0.035-0.197,0.104-0.272
							c0.069-0.074,0.157-0.112,0.264-0.112h1.104c0.106,0,0.194,0.038,0.264,0.112c0.069,0.075,0.104,0.166,0.104,0.272v1.104
							c0,0.106-0.035,0.195-0.104,0.265c-0.07,0.069-0.158,0.104-0.264,0.104h-1.104
							C217.116,314.772,217.028,314.738,216.958,314.669z"/>
						<path fill="#3A54F5" d="M221.551,313.725c-0.635-0.806-0.974-1.858-1.016-3.16l-0.016-1.376l0.016-1.424
							c0.032-1.291,0.371-2.339,1.016-3.145c0.645-0.805,1.65-1.208,3.016-1.208c1.376,0,2.386,0.403,3.032,1.208
							c0.646,0.806,0.984,1.854,1.016,3.145c0.01,0.299,0.016,0.773,0.016,1.424c0,0.63-0.006,1.088-0.016,1.376
							c-0.043,1.302-0.381,2.354-1.016,3.16s-1.646,1.208-3.032,1.208C223.191,314.933,222.185,314.53,221.551,313.725z
							 M226.423,312.788c0.416-0.544,0.634-1.312,0.656-2.304c0.011-0.31,0.016-0.752,0.016-1.328c0-0.586-0.005-1.023-0.016-1.312
							c-0.021-0.981-0.243-1.747-0.664-2.296c-0.421-0.55-1.037-0.824-1.848-0.824c-0.811,0-1.424,0.274-1.84,0.824
							c-0.416,0.549-0.635,1.314-0.656,2.296l-0.016,1.312l0.016,1.328c0.021,0.992,0.24,1.76,0.656,2.304s1.029,0.816,1.84,0.816
							C225.388,313.604,226.007,313.332,226.423,312.788z"/>
						<path fill="#3A54F5" d="M231.807,314.669c-0.059-0.069-0.088-0.152-0.088-0.248l0.032-0.145l4-9.36h-5.28
							c-0.107,0-0.195-0.034-0.264-0.104s-0.104-0.157-0.104-0.264v-0.593c0-0.117,0.032-0.21,0.096-0.279s0.154-0.104,0.272-0.104
							h6.528c0.117,0,0.208,0.035,0.272,0.104s0.096,0.162,0.096,0.279v0.544c0,0.192-0.043,0.4-0.128,0.624l-3.952,9.248
							c-0.053,0.118-0.112,0.214-0.176,0.288c-0.064,0.075-0.155,0.112-0.272,0.112h-0.8
							C231.943,314.772,231.865,314.738,231.807,314.669z"/>
						<path fill="#3A54F5" d="M243.039,314.669c-0.07-0.069-0.104-0.158-0.104-0.265v-7.584c0-0.106,0.034-0.194,0.104-0.264
							c0.069-0.069,0.157-0.104,0.264-0.104h0.672c0.106,0,0.192,0.035,0.256,0.104s0.096,0.157,0.096,0.264v0.544
							c0.576-0.714,1.354-1.072,2.336-1.072c1.173,0,2.005,0.491,2.496,1.473c0.256-0.448,0.622-0.806,1.096-1.072
							s1.005-0.4,1.592-0.4c0.875,0,1.589,0.299,2.144,0.896s0.832,1.462,0.832,2.592v4.624c0,0.106-0.035,0.195-0.104,0.265
							s-0.157,0.104-0.264,0.104h-0.688c-0.107,0-0.195-0.034-0.264-0.104s-0.104-0.158-0.104-0.265v-4.479
							c0-0.854-0.176-1.464-0.528-1.832c-0.352-0.368-0.816-0.553-1.392-0.553c-0.512,0-0.952,0.189-1.32,0.568
							c-0.368,0.379-0.552,0.984-0.552,1.816v4.479c0,0.106-0.035,0.195-0.104,0.265s-0.158,0.104-0.264,0.104h-0.704
							c-0.106,0-0.194-0.034-0.264-0.104c-0.07-0.069-0.104-0.158-0.104-0.265v-4.479c0-0.843-0.184-1.451-0.552-1.824
							c-0.368-0.373-0.824-0.561-1.368-0.561c-0.512,0-0.952,0.188-1.32,0.561c-0.368,0.373-0.552,0.976-0.552,1.808v4.496
							c0,0.106-0.035,0.195-0.104,0.265c-0.07,0.069-0.158,0.104-0.264,0.104h-0.704
							C243.196,314.772,243.107,314.738,243.039,314.669z"/>
						<path fill="#3A54F5" d="M197.007,333.869c-0.07-0.069-0.104-0.158-0.104-0.265v-7.584c0-0.106,0.034-0.194,0.104-0.264
							c0.069-0.069,0.157-0.104,0.264-0.104h0.672c0.106,0,0.192,0.035,0.256,0.104s0.096,0.157,0.096,0.264v0.544
							c0.576-0.714,1.354-1.072,2.336-1.072c1.173,0,2.005,0.491,2.496,1.473c0.256-0.448,0.622-0.806,1.096-1.072
							s1.005-0.4,1.592-0.4c0.875,0,1.589,0.299,2.144,0.896s0.832,1.462,0.832,2.592v4.624c0,0.106-0.035,0.195-0.104,0.265
							s-0.157,0.104-0.264,0.104h-0.688c-0.107,0-0.195-0.034-0.264-0.104s-0.104-0.158-0.104-0.265v-4.479
							c0-0.854-0.176-1.464-0.528-1.832c-0.352-0.368-0.816-0.553-1.392-0.553c-0.512,0-0.952,0.189-1.32,0.568
							c-0.368,0.379-0.552,0.984-0.552,1.816v4.479c0,0.106-0.035,0.195-0.104,0.265s-0.158,0.104-0.264,0.104h-0.704
							c-0.106,0-0.194-0.034-0.264-0.104c-0.07-0.069-0.104-0.158-0.104-0.265v-4.479c0-0.843-0.184-1.451-0.552-1.824
							c-0.368-0.373-0.824-0.561-1.368-0.561c-0.512,0-0.952,0.188-1.32,0.561c-0.368,0.373-0.552,0.976-0.552,1.808v4.496
							c0,0.106-0.035,0.195-0.104,0.265c-0.07,0.069-0.158,0.104-0.264,0.104h-0.704
							C197.165,333.973,197.076,333.938,197.007,333.869z"/>
						<path fill="#3A54F5" d="M211.087,323.98c-0.069-0.069-0.104-0.157-0.104-0.264v-0.832c0-0.106,0.035-0.197,0.104-0.272
							c0.069-0.074,0.157-0.111,0.264-0.111h0.944c0.107,0,0.197,0.037,0.272,0.111c0.075,0.075,0.112,0.166,0.112,0.272v0.832
							c0,0.106-0.038,0.194-0.112,0.264s-0.165,0.104-0.272,0.104h-0.944C211.244,324.085,211.156,324.05,211.087,323.98z
							 M211.215,333.869c-0.07-0.069-0.104-0.158-0.104-0.265v-7.584c0-0.106,0.034-0.194,0.104-0.264
							c0.069-0.069,0.157-0.104,0.264-0.104h0.704c0.106,0,0.194,0.035,0.264,0.104c0.069,0.069,0.104,0.157,0.104,0.264v7.584
							c0,0.106-0.035,0.195-0.104,0.265c-0.07,0.069-0.158,0.104-0.264,0.104h-0.704
							C211.373,333.973,211.284,333.938,211.215,333.869z"/>
						<path fill="#3A54F5" d="M215.055,333.869c-0.07-0.069-0.104-0.158-0.104-0.265v-7.584c0-0.106,0.034-0.194,0.104-0.264
							c0.069-0.069,0.157-0.104,0.264-0.104h0.688c0.117,0,0.208,0.032,0.272,0.097c0.064,0.063,0.096,0.154,0.096,0.271v0.704
							c0.32-0.395,0.69-0.698,1.112-0.912c0.421-0.213,0.947-0.32,1.576-0.32c1.024,0,1.818,0.328,2.384,0.984
							s0.848,1.522,0.848,2.6v4.528c0,0.106-0.035,0.195-0.104,0.265s-0.157,0.104-0.264,0.104h-0.736
							c-0.107,0-0.195-0.034-0.264-0.104s-0.104-0.158-0.104-0.265v-4.432c0-0.769-0.187-1.365-0.56-1.792
							c-0.374-0.427-0.907-0.641-1.6-0.641c-0.683,0-1.227,0.217-1.632,0.648s-0.608,1.026-0.608,1.784v4.432
							c0,0.106-0.035,0.195-0.104,0.265s-0.157,0.104-0.264,0.104h-0.736C215.212,333.973,215.124,333.938,215.055,333.869z"/>
						<path fill="#3A54F5" d="M224.59,323.98c-0.069-0.069-0.104-0.157-0.104-0.264v-0.832c0-0.106,0.035-0.197,0.104-0.272
							c0.069-0.074,0.157-0.111,0.264-0.111h0.944c0.107,0,0.197,0.037,0.272,0.111c0.075,0.075,0.112,0.166,0.112,0.272v0.832
							c0,0.106-0.038,0.194-0.112,0.264s-0.165,0.104-0.272,0.104h-0.944C224.748,324.085,224.66,324.05,224.59,323.98z
							 M224.719,333.869c-0.07-0.069-0.104-0.158-0.104-0.265v-7.584c0-0.106,0.034-0.194,0.104-0.264
							c0.069-0.069,0.157-0.104,0.264-0.104h0.704c0.106,0,0.194,0.035,0.264,0.104c0.069,0.069,0.104,0.157,0.104,0.264v7.584
							c0,0.106-0.035,0.195-0.104,0.265c-0.07,0.069-0.158,0.104-0.264,0.104h-0.704
							C224.876,333.973,224.788,333.938,224.719,333.869z"/>
						<path fill="#3A54F5" d="M228.559,333.869c-0.07-0.069-0.104-0.158-0.104-0.265v-7.584c0-0.106,0.034-0.194,0.104-0.264
							c0.069-0.069,0.157-0.104,0.264-0.104h0.672c0.106,0,0.192,0.035,0.256,0.104s0.096,0.157,0.096,0.264v0.544
							c0.576-0.714,1.354-1.072,2.336-1.072c1.173,0,2.005,0.491,2.496,1.473c0.256-0.448,0.622-0.806,1.096-1.072
							s1.005-0.4,1.592-0.4c0.875,0,1.589,0.299,2.144,0.896s0.832,1.462,0.832,2.592v4.624c0,0.106-0.035,0.195-0.104,0.265
							s-0.157,0.104-0.264,0.104h-0.688c-0.107,0-0.195-0.034-0.264-0.104s-0.104-0.158-0.104-0.265v-4.479
							c0-0.854-0.176-1.464-0.528-1.832c-0.352-0.368-0.816-0.553-1.392-0.553c-0.512,0-0.952,0.189-1.32,0.568
							c-0.368,0.379-0.552,0.984-0.552,1.816v4.479c0,0.106-0.035,0.195-0.104,0.265s-0.158,0.104-0.264,0.104h-0.704
							c-0.106,0-0.194-0.034-0.264-0.104c-0.07-0.069-0.104-0.158-0.104-0.265v-4.479c0-0.843-0.184-1.451-0.552-1.824
							c-0.368-0.373-0.824-0.561-1.368-0.561c-0.512,0-0.952,0.188-1.32,0.561c-0.368,0.373-0.552,0.976-0.552,1.808v4.496
							c0,0.106-0.035,0.195-0.104,0.265c-0.07,0.069-0.158,0.104-0.264,0.104h-0.704
							C228.716,333.973,228.627,333.938,228.559,333.869z"/>
						<path fill="#3A54F5" d="M243.414,333.148c-0.555-0.656-0.832-1.527-0.832-2.616v-4.512c0-0.106,0.034-0.194,0.104-0.264
							c0.069-0.069,0.157-0.104,0.264-0.104h0.736c0.106,0,0.194,0.035,0.264,0.104s0.104,0.157,0.104,0.264v4.433
							c0,1.621,0.704,2.432,2.112,2.432c0.683,0,1.224-0.216,1.624-0.648c0.4-0.432,0.6-1.026,0.6-1.783v-4.433
							c0-0.106,0.034-0.194,0.104-0.264c0.069-0.069,0.157-0.104,0.264-0.104h0.736c0.106,0,0.194,0.035,0.264,0.104
							s0.104,0.157,0.104,0.264v7.584c0,0.106-0.035,0.195-0.104,0.265s-0.157,0.104-0.264,0.104h-0.688
							c-0.107,0-0.195-0.034-0.264-0.104s-0.104-0.158-0.104-0.265v-0.72c-0.31,0.416-0.672,0.728-1.088,0.936
							s-0.944,0.312-1.584,0.312C244.752,334.133,243.968,333.805,243.414,333.148z"/>
						<path fill="#3A54F5" d="M252.366,333.869c-0.07-0.069-0.104-0.158-0.104-0.265v-7.584c0-0.106,0.034-0.194,0.104-0.264
							c0.069-0.069,0.157-0.104,0.264-0.104h0.672c0.106,0,0.192,0.035,0.256,0.104s0.096,0.157,0.096,0.264v0.544
							c0.576-0.714,1.354-1.072,2.336-1.072c1.173,0,2.005,0.491,2.496,1.473c0.256-0.448,0.622-0.806,1.096-1.072
							s1.005-0.4,1.592-0.4c0.875,0,1.589,0.299,2.144,0.896s0.832,1.462,0.832,2.592v4.624c0,0.106-0.035,0.195-0.104,0.265
							s-0.157,0.104-0.264,0.104h-0.688c-0.107,0-0.195-0.034-0.264-0.104s-0.104-0.158-0.104-0.265v-4.479
							c0-0.854-0.176-1.464-0.528-1.832c-0.352-0.368-0.816-0.553-1.392-0.553c-0.512,0-0.952,0.189-1.32,0.568
							c-0.368,0.379-0.552,0.984-0.552,1.816v4.479c0,0.106-0.035,0.195-0.104,0.265s-0.158,0.104-0.264,0.104h-0.704
							c-0.106,0-0.194-0.034-0.264-0.104c-0.07-0.069-0.104-0.158-0.104-0.265v-4.479c0-0.843-0.184-1.451-0.552-1.824
							c-0.368-0.373-0.824-0.561-1.368-0.561c-0.512,0-0.952,0.188-1.32,0.561c-0.368,0.373-0.552,0.976-0.552,1.808v4.496
							c0,0.106-0.035,0.195-0.104,0.265c-0.07,0.069-0.158,0.104-0.264,0.104h-0.704
							C252.523,333.973,252.435,333.938,252.366,333.869z"/>
					</g>
				</g>
			</g>
		</g>
	</g>
	<g display="inline">
		<g id="POLYLINE_997_">
			
				<line fill="none" stroke="#3A54F5" stroke-width="2" stroke-linecap="round" stroke-linejoin="round" stroke-miterlimit="10" x1="647.43" y1="480.405" x2="647.43" y2="365.533"/>
		</g>
		<g id="LINE_62_">
			
				<line fill="none" stroke="#3A54F5" stroke-width="2" stroke-linecap="round" stroke-linejoin="round" stroke-miterlimit="10" x1="647.43" y1="314.567" x2="647.43" y2="120.779"/>
		</g>
		<g id="POLYLINE_996_">
			
				<polyline fill="none" stroke="#3A54F5" stroke-width="2" stroke-linecap="round" stroke-linejoin="round" stroke-miterlimit="10" points="
				640.802,127.408 647.43,120.779 654.058,127.408 			"/>
		</g>
		<g id="POLYLINE_995_">
			
				<polyline fill="none" stroke="#3A54F5" stroke-width="2" stroke-linecap="round" stroke-linejoin="round" stroke-miterlimit="10" points="
				654.058,473.778 647.43,480.405 640.802,473.778 			"/>
		</g>
		<g id="MTEXT_71_">
			<g>
				<g>
					<g>
						<path fill="#3A54F5" d="M644.11,336.166c-0.072-0.078-0.108-0.177-0.108-0.297v-10.152l-3.024,2.322
							c-0.084,0.072-0.174,0.108-0.27,0.108c-0.108,0-0.21-0.061-0.306-0.181l-0.432-0.558c-0.06-0.084-0.09-0.168-0.09-0.252
							c0-0.132,0.06-0.24,0.18-0.324l3.906-3.023c0.132-0.084,0.288-0.126,0.468-0.126h0.846c0.12,0,0.219,0.039,0.297,0.116
							c0.078,0.078,0.117,0.178,0.117,0.298v11.771c0,0.12-0.039,0.219-0.117,0.297s-0.177,0.117-0.297,0.117h-0.882
							C644.278,336.283,644.182,336.244,644.11,336.166z"/>
						<path fill="#3A54F5" d="M649.375,335.104c-0.714-0.906-1.095-2.091-1.143-3.556l-0.018-1.548l0.018-1.602
							c0.036-1.452,0.417-2.631,1.143-3.537s1.857-1.359,3.393-1.359c1.548,0,2.685,0.453,3.411,1.359
							c0.726,0.906,1.107,2.085,1.143,3.537c0.012,0.336,0.018,0.87,0.018,1.602c0,0.708-0.006,1.225-0.018,1.548
							c-0.048,1.465-0.429,2.649-1.143,3.556c-0.714,0.906-1.851,1.358-3.411,1.358C651.22,336.463,650.088,336.011,649.375,335.104
							z M654.855,334.051c0.468-0.611,0.714-1.476,0.738-2.592c0.012-0.348,0.018-0.846,0.018-1.494
							c0-0.659-0.006-1.151-0.018-1.476c-0.024-1.104-0.273-1.965-0.747-2.583c-0.474-0.618-1.167-0.927-2.079-0.927
							c-0.912,0-1.602,0.309-2.07,0.927c-0.468,0.618-0.714,1.479-0.738,2.583l-0.018,1.476l0.018,1.494
							c0.024,1.116,0.27,1.98,0.738,2.592c0.468,0.612,1.158,0.918,2.07,0.918C653.691,334.969,654.388,334.663,654.855,334.051z"/>
						<path fill="#3A54F5" d="M659.571,326.824c-0.048-0.065-0.066-0.159-0.054-0.279l0.396-2.52
							c0.048-0.348,0.216-0.522,0.504-0.522h1.152c0.083,0,0.153,0.03,0.207,0.09c0.054,0.061,0.081,0.133,0.081,0.217
							c0,0.12-0.018,0.216-0.054,0.288l-0.936,2.43c-0.06,0.132-0.126,0.231-0.198,0.297c-0.072,0.066-0.18,0.099-0.324,0.099
							h-0.558C659.691,326.923,659.619,326.891,659.571,326.824z"/>
						<path fill="#3A54F5" d="M669.498,336.166c-0.078-0.078-0.117-0.177-0.117-0.297v-2.628h-5.85c-0.12,0-0.219-0.039-0.297-0.117
							s-0.117-0.177-0.117-0.297v-0.666c0-0.168,0.066-0.348,0.198-0.54l5.418-7.632c0.06-0.096,0.15-0.171,0.27-0.225
							c0.12-0.055,0.252-0.081,0.396-0.081h1.224c0.132,0,0.234,0.035,0.306,0.107c0.072,0.072,0.108,0.174,0.108,0.307v7.632h1.638
							c0.12,0,0.219,0.039,0.297,0.117c0.078,0.078,0.117,0.177,0.117,0.297v0.684c0,0.12-0.039,0.219-0.117,0.297
							c-0.078,0.078-0.177,0.117-0.297,0.117h-1.638v2.628c0,0.12-0.039,0.219-0.117,0.297s-0.177,0.117-0.297,0.117h-0.828
							C669.675,336.283,669.576,336.244,669.498,336.166z M664.989,331.766h4.41v-6.265L664.989,331.766z"/>
						<path fill="#3A54F5" d="M674.772,326.815c-0.054-0.072-0.069-0.162-0.045-0.271l0.396-2.52
							c0.048-0.348,0.216-0.522,0.504-0.522h1.152c0.083,0,0.153,0.03,0.207,0.09c0.054,0.061,0.081,0.133,0.081,0.217
							c0,0.12-0.018,0.216-0.054,0.288l-0.936,2.43c-0.06,0.132-0.126,0.231-0.198,0.297c-0.072,0.066-0.18,0.099-0.324,0.099
							h-0.558C674.901,326.923,674.826,326.887,674.772,326.815z M677.598,326.815c-0.054-0.072-0.069-0.162-0.045-0.271l0.396-2.52
							c0.048-0.348,0.216-0.522,0.504-0.522h1.152c0.084,0,0.153,0.03,0.207,0.09c0.054,0.061,0.081,0.133,0.081,0.217
							c0,0.12-0.018,0.216-0.054,0.288l-0.936,2.43c-0.061,0.132-0.126,0.231-0.198,0.297c-0.072,0.066-0.18,0.099-0.324,0.099
							h-0.558C677.727,326.923,677.652,326.887,677.598,326.815z"/>
						<path fill="#3A54F5" d="M642.328,355.604c-0.684-0.306-1.203-0.704-1.557-1.196s-0.543-1.002-0.567-1.53
							c0-0.108,0.036-0.195,0.108-0.261c0.072-0.066,0.162-0.1,0.27-0.1h0.81c0.132,0,0.24,0.027,0.324,0.081
							c0.083,0.054,0.15,0.159,0.198,0.315c0.156,0.611,0.495,1.044,1.017,1.296s1.137,0.378,1.845,0.378
							c0.864,0,1.551-0.207,2.061-0.621c0.51-0.414,0.765-1.005,0.765-1.773c0-1.464-0.894-2.195-2.682-2.195h-1.692
							c-0.12,0-0.219-0.039-0.297-0.117s-0.117-0.177-0.117-0.297v-0.468c0-0.181,0.066-0.336,0.198-0.469l3.51-3.888h-5.328
							c-0.12,0-0.219-0.036-0.297-0.108c-0.078-0.071-0.117-0.168-0.117-0.287v-0.648c0-0.132,0.039-0.237,0.117-0.315
							c0.078-0.077,0.177-0.116,0.297-0.116h7.128c0.132,0,0.237,0.039,0.315,0.116c0.078,0.078,0.117,0.184,0.117,0.315v0.594
							c0,0.133-0.061,0.271-0.18,0.414l-3.51,3.942h0.288c1.224,0.036,2.193,0.354,2.907,0.954c0.714,0.6,1.071,1.476,1.071,2.628
							c0,0.792-0.195,1.473-0.585,2.043c-0.39,0.57-0.933,1.008-1.629,1.313c-0.696,0.307-1.482,0.459-2.358,0.459
							C643.822,356.062,643.012,355.91,642.328,355.604z"/>
						<path fill="#3A54F5" d="M651.534,355.766c-0.078-0.078-0.117-0.177-0.117-0.297v-1.242c0-0.119,0.039-0.222,0.117-0.306
							s0.177-0.126,0.297-0.126h1.242c0.12,0,0.219,0.042,0.297,0.126s0.117,0.187,0.117,0.306v1.242
							c0,0.12-0.039,0.219-0.117,0.297s-0.177,0.117-0.297,0.117h-1.242C651.711,355.883,651.612,355.844,651.534,355.766z"/>
						<path fill="#3A54F5" d="M658.168,355.766c-0.072-0.078-0.108-0.177-0.108-0.297v-10.152l-3.024,2.322
							c-0.084,0.072-0.174,0.108-0.27,0.108c-0.108,0-0.21-0.061-0.306-0.181l-0.432-0.558c-0.06-0.084-0.09-0.168-0.09-0.252
							c0-0.132,0.06-0.24,0.18-0.324l3.906-3.023c0.132-0.084,0.288-0.126,0.468-0.126h0.846c0.12,0,0.219,0.039,0.297,0.116
							c0.078,0.078,0.117,0.178,0.117,0.298v11.771c0,0.12-0.039,0.219-0.117,0.297s-0.177,0.117-0.297,0.117h-0.882
							C658.336,355.883,658.24,355.844,658.168,355.766z"/>
						<path fill="#3A54F5" d="M664.036,355.577c-0.66-0.324-1.164-0.747-1.512-1.27c-0.349-0.521-0.534-1.083-0.558-1.683v-0.036
							c0-0.096,0.036-0.174,0.108-0.234c0.072-0.06,0.156-0.09,0.252-0.09h0.882c0.252,0,0.414,0.133,0.486,0.396
							c0.18,0.647,0.513,1.131,0.999,1.448c0.486,0.318,1.047,0.478,1.683,0.478c0.816,0,1.494-0.249,2.034-0.747
							s0.81-1.185,0.81-2.061c0-0.805-0.27-1.443-0.81-1.918c-0.54-0.474-1.218-0.711-2.034-0.711c-0.432,0-0.78,0.055-1.044,0.162
							c-0.264,0.108-0.534,0.265-0.81,0.469c-0.156,0.12-0.285,0.207-0.387,0.261c-0.102,0.054-0.213,0.081-0.333,0.081h-0.864
							c-0.108,0-0.204-0.039-0.288-0.117c-0.084-0.078-0.12-0.171-0.108-0.279l0.558-5.994c0.036-0.3,0.186-0.449,0.45-0.449h6.228
							c0.132,0,0.234,0.035,0.306,0.107c0.072,0.072,0.108,0.174,0.108,0.307v0.666c0,0.119-0.039,0.216-0.117,0.287
							c-0.078,0.072-0.177,0.108-0.297,0.108h-5.184l-0.324,3.618c0.576-0.408,1.35-0.612,2.322-0.612
							c0.804,0,1.536,0.159,2.196,0.478c0.66,0.317,1.185,0.782,1.575,1.395c0.39,0.612,0.585,1.338,0.585,2.178
							c0,0.889-0.195,1.653-0.585,2.295c-0.39,0.643-0.93,1.129-1.62,1.458c-0.69,0.33-1.479,0.495-2.367,0.495
							C665.476,356.062,664.695,355.9,664.036,355.577z"/>
						<path fill="#3A54F5" d="M677.688,355.766c-0.078-0.078-0.117-0.177-0.117-0.297v-8.532c0-0.119,0.039-0.219,0.117-0.297
							s0.177-0.117,0.297-0.117h0.756c0.12,0,0.216,0.039,0.288,0.117c0.072,0.078,0.108,0.178,0.108,0.297v0.612
							c0.648-0.804,1.524-1.206,2.628-1.206c1.32,0,2.256,0.552,2.808,1.656c0.288-0.504,0.699-0.906,1.233-1.206
							c0.534-0.3,1.131-0.45,1.791-0.45c0.984,0,1.788,0.336,2.412,1.008c0.624,0.673,0.936,1.645,0.936,2.916v5.202
							c0,0.12-0.039,0.219-0.117,0.297s-0.177,0.117-0.297,0.117h-0.774c-0.12,0-0.219-0.039-0.297-0.117s-0.117-0.177-0.117-0.297
							v-5.04c0-0.96-0.198-1.646-0.594-2.061s-0.918-0.621-1.566-0.621c-0.576,0-1.071,0.213-1.485,0.639s-0.621,1.107-0.621,2.043
							v5.04c0,0.12-0.039,0.219-0.117,0.297s-0.177,0.117-0.297,0.117h-0.792c-0.12,0-0.219-0.039-0.297-0.117
							c-0.078-0.078-0.117-0.177-0.117-0.297v-5.04c0-0.947-0.207-1.632-0.621-2.052c-0.414-0.42-0.927-0.63-1.539-0.63
							c-0.576,0-1.071,0.21-1.485,0.63s-0.621,1.098-0.621,2.034v5.058c0,0.12-0.04,0.219-0.117,0.297
							c-0.078,0.078-0.177,0.117-0.297,0.117h-0.792C677.865,355.883,677.766,355.844,677.688,355.766z"/>
					</g>
				</g>
			</g>
		</g>
	</g>
	<g display="inline">
		<g id="POLYLINE_994_">
			
				<line fill="none" stroke="#3A54F5" stroke-width="2" stroke-linecap="round" stroke-linejoin="round" stroke-miterlimit="10" x1="453.43" y1="474.405" x2="453.43" y2="423.533"/>
		</g>
		<g id="LINE_61_">
			
				<line fill="none" stroke="#3A54F5" stroke-width="2" stroke-linecap="round" stroke-linejoin="round" stroke-miterlimit="10" x1="453.43" y1="372.567" x2="453.43" y2="308.779"/>
		</g>
		<g id="POLYLINE_993_">
			
				<polyline fill="none" stroke="#3A54F5" stroke-width="2" stroke-linecap="round" stroke-linejoin="round" stroke-miterlimit="10" points="
				446.802,315.408 453.43,308.779 460.058,315.408 			"/>
		</g>
		<g id="POLYLINE_992_">
			
				<polyline fill="none" stroke="#3A54F5" stroke-width="2" stroke-linecap="round" stroke-linejoin="round" stroke-miterlimit="10" points="
				460.058,467.778 453.43,474.405 446.802,467.778 			"/>
		</g>
		<g id="MTEXT_10_">
			<g>
				<g>
					<g>
						<path fill="#3A54F5" d="M453.369,395.166c-0.078-0.078-0.117-0.177-0.117-0.297v-2.628h-5.85c-0.12,0-0.219-0.039-0.297-0.117
							s-0.117-0.177-0.117-0.297v-0.666c0-0.168,0.066-0.348,0.198-0.54l5.418-7.632c0.06-0.096,0.15-0.171,0.27-0.225
							c0.12-0.055,0.252-0.081,0.396-0.081h1.224c0.132,0,0.234,0.035,0.306,0.107c0.072,0.072,0.108,0.174,0.108,0.307v7.632h1.638
							c0.12,0,0.219,0.039,0.297,0.117c0.078,0.078,0.117,0.177,0.117,0.297v0.684c0,0.12-0.039,0.219-0.117,0.297
							c-0.078,0.078-0.177,0.117-0.297,0.117h-1.638v2.628c0,0.12-0.039,0.219-0.117,0.297s-0.177,0.117-0.297,0.117h-0.828
							C453.545,395.283,453.447,395.244,453.369,395.166z M448.86,390.766h4.41v-6.265L448.86,390.766z"/>
						<path fill="#3A54F5" d="M458.652,385.824c-0.048-0.065-0.066-0.159-0.054-0.279l0.396-2.52
							c0.048-0.348,0.216-0.522,0.504-0.522h1.152c0.083,0,0.153,0.03,0.207,0.09c0.054,0.061,0.081,0.133,0.081,0.217
							c0,0.12-0.018,0.216-0.054,0.288l-0.936,2.43c-0.06,0.132-0.126,0.231-0.198,0.297c-0.072,0.066-0.18,0.099-0.324,0.099
							h-0.558C458.771,385.923,458.7,385.891,458.652,385.824z"/>
						<path fill="#3A54F5" d="M466.32,395.166c-0.072-0.078-0.108-0.177-0.108-0.297v-10.152l-3.024,2.322
							c-0.084,0.072-0.174,0.108-0.27,0.108c-0.108,0-0.21-0.061-0.306-0.181l-0.432-0.558c-0.06-0.084-0.09-0.168-0.09-0.252
							c0-0.132,0.06-0.24,0.18-0.324l3.906-3.023c0.132-0.084,0.288-0.126,0.468-0.126h0.846c0.12,0,0.219,0.039,0.297,0.116
							c0.078,0.078,0.117,0.178,0.117,0.298v11.771c0,0.12-0.039,0.219-0.117,0.297s-0.177,0.117-0.297,0.117h-0.882
							C466.488,395.283,466.392,395.244,466.32,395.166z"/>
						<path fill="#3A54F5" d="M471.584,394.104c-0.714-0.906-1.095-2.091-1.143-3.556l-0.018-1.548l0.018-1.602
							c0.036-1.452,0.417-2.631,1.143-3.537s1.857-1.359,3.393-1.359c1.548,0,2.685,0.453,3.411,1.359
							c0.726,0.906,1.107,2.085,1.143,3.537c0.012,0.336,0.018,0.87,0.018,1.602c0,0.708-0.006,1.225-0.018,1.548
							c-0.048,1.465-0.429,2.649-1.143,3.556c-0.714,0.906-1.851,1.358-3.411,1.358
							C473.429,395.463,472.298,395.011,471.584,394.104z M477.065,393.051c0.468-0.611,0.714-1.476,0.738-2.592
							c0.012-0.348,0.018-0.846,0.018-1.494c0-0.659-0.006-1.151-0.018-1.476c-0.024-1.104-0.273-1.965-0.747-2.583
							c-0.474-0.618-1.167-0.927-2.079-0.927c-0.912,0-1.602,0.309-2.07,0.927c-0.468,0.618-0.714,1.479-0.738,2.583l-0.018,1.476
							l0.018,1.494c0.024,1.116,0.27,1.98,0.738,2.592c0.468,0.612,1.158,0.918,2.07,0.918
							C475.901,393.969,476.597,393.663,477.065,393.051z"/>
						<path fill="#3A54F5" d="M481.772,385.815c-0.054-0.072-0.069-0.162-0.045-0.271l0.396-2.52
							c0.048-0.348,0.216-0.522,0.504-0.522h1.152c0.083,0,0.153,0.03,0.207,0.09c0.054,0.061,0.081,0.133,0.081,0.217
							c0,0.12-0.018,0.216-0.054,0.288l-0.936,2.43c-0.06,0.132-0.126,0.231-0.198,0.297c-0.072,0.066-0.18,0.099-0.324,0.099
							h-0.558C481.901,385.923,481.826,385.887,481.772,385.815z M484.598,385.815c-0.054-0.072-0.069-0.162-0.045-0.271l0.396-2.52
							c0.048-0.348,0.216-0.522,0.504-0.522h1.152c0.084,0,0.153,0.03,0.207,0.09c0.054,0.061,0.081,0.133,0.081,0.217
							c0,0.12-0.018,0.216-0.054,0.288l-0.936,2.43c-0.061,0.132-0.126,0.231-0.198,0.297c-0.072,0.066-0.18,0.099-0.324,0.099
							h-0.558C484.727,385.923,484.652,385.887,484.598,385.815z"/>
						<path fill="#3A54F5" d="M451.11,414.766c-0.072-0.078-0.108-0.177-0.108-0.297v-10.152l-3.024,2.322
							c-0.084,0.072-0.174,0.108-0.27,0.108c-0.108,0-0.21-0.061-0.306-0.181l-0.432-0.558c-0.06-0.084-0.09-0.168-0.09-0.252
							c0-0.132,0.06-0.24,0.18-0.324l3.906-3.023c0.132-0.084,0.288-0.126,0.468-0.126h0.846c0.12,0,0.219,0.039,0.297,0.116
							c0.078,0.078,0.117,0.178,0.117,0.298v11.771c0,0.12-0.039,0.219-0.117,0.297s-0.177,0.117-0.297,0.117h-0.882
							C451.278,414.883,451.182,414.844,451.11,414.766z"/>
						<path fill="#3A54F5" d="M455.42,414.766c-0.078-0.078-0.117-0.177-0.117-0.297v-1.242c0-0.119,0.039-0.222,0.117-0.306
							s0.177-0.126,0.297-0.126h1.242c0.12,0,0.219,0.042,0.297,0.126s0.117,0.187,0.117,0.306v1.242
							c0,0.12-0.039,0.219-0.117,0.297s-0.177,0.117-0.297,0.117h-1.242C455.598,414.883,455.499,414.844,455.42,414.766z"/>
						<path fill="#3A54F5" d="M465.23,414.766c-0.078-0.078-0.117-0.177-0.117-0.297v-2.628h-5.85c-0.12,0-0.219-0.039-0.297-0.117
							s-0.117-0.177-0.117-0.297v-0.666c0-0.168,0.066-0.348,0.198-0.54l5.418-7.632c0.06-0.096,0.15-0.171,0.27-0.225
							c0.12-0.055,0.252-0.081,0.396-0.081h1.224c0.132,0,0.234,0.035,0.306,0.107c0.072,0.072,0.108,0.174,0.108,0.307v7.632h1.638
							c0.12,0,0.219,0.039,0.297,0.117c0.078,0.078,0.117,0.177,0.117,0.297v0.684c0,0.12-0.039,0.219-0.117,0.297
							c-0.078,0.078-0.177,0.117-0.297,0.117h-1.638v2.628c0,0.12-0.039,0.219-0.117,0.297s-0.177,0.117-0.297,0.117h-0.828
							C465.407,414.883,465.309,414.844,465.23,414.766z M460.722,410.365h4.41v-6.265L460.722,410.365z"/>
						<path fill="#3A54F5" d="M471.531,414.766c-0.066-0.078-0.099-0.171-0.099-0.279l0.036-0.161l4.5-10.53h-5.94
							c-0.12,0-0.219-0.039-0.297-0.117c-0.078-0.078-0.117-0.177-0.117-0.297v-0.666c0-0.132,0.036-0.237,0.108-0.315
							c0.072-0.077,0.174-0.116,0.306-0.116h7.344c0.132,0,0.234,0.039,0.306,0.116c0.072,0.078,0.108,0.184,0.108,0.315v0.612
							c0,0.216-0.048,0.449-0.144,0.702l-4.446,10.403c-0.06,0.133-0.126,0.24-0.198,0.324c-0.072,0.084-0.174,0.126-0.306,0.126
							h-0.9C471.684,414.883,471.597,414.844,471.531,414.766z"/>
						<path fill="#3A54F5" d="M484.166,414.766c-0.078-0.078-0.117-0.177-0.117-0.297v-8.532c0-0.119,0.039-0.219,0.117-0.297
							s0.177-0.117,0.297-0.117h0.756c0.12,0,0.216,0.039,0.288,0.117c0.072,0.078,0.108,0.178,0.108,0.297v0.612
							c0.648-0.804,1.524-1.206,2.628-1.206c1.32,0,2.256,0.552,2.808,1.656c0.288-0.504,0.699-0.906,1.233-1.206
							c0.534-0.3,1.131-0.45,1.791-0.45c0.984,0,1.788,0.336,2.412,1.008c0.624,0.673,0.936,1.645,0.936,2.916v5.202
							c0,0.12-0.039,0.219-0.117,0.297s-0.177,0.117-0.297,0.117h-0.774c-0.12,0-0.219-0.039-0.297-0.117s-0.117-0.177-0.117-0.297
							v-5.04c0-0.96-0.198-1.646-0.594-2.061s-0.918-0.621-1.566-0.621c-0.576,0-1.071,0.213-1.485,0.639s-0.621,1.107-0.621,2.043
							v5.04c0,0.12-0.039,0.219-0.117,0.297s-0.177,0.117-0.297,0.117h-0.792c-0.12,0-0.219-0.039-0.297-0.117
							c-0.078-0.078-0.117-0.177-0.117-0.297v-5.04c0-0.947-0.207-1.632-0.621-2.052c-0.414-0.42-0.927-0.63-1.539-0.63
							c-0.576,0-1.071,0.21-1.485,0.63s-0.621,1.098-0.621,2.034v5.058c0,0.12-0.04,0.219-0.117,0.297
							c-0.078,0.078-0.177,0.117-0.297,0.117h-0.792C484.343,414.883,484.244,414.844,484.166,414.766z"/>
					</g>
				</g>
			</g>
		</g>
	</g>
</g>
<g id="N-TEXT" display="none">
</g>
<g id="AG-DIAGRAM">
	<g id="POLYLINE_991_">
		<g>
			<g>
				
					<line fill="none" stroke="#3A54F5" stroke-width="3" stroke-linecap="round" stroke-linejoin="round" x1="291.552" y1="481.597" x2="289.052" y2="481.597"/>
				
					<line fill="none" stroke="#3A54F5" stroke-width="3" stroke-linecap="round" stroke-linejoin="round" stroke-dasharray="4.96,6.944" x1="282.108" y1="481.597" x2="178.444" y2="481.597"/>
				
					<line fill="none" stroke="#3A54F5" stroke-width="3" stroke-linecap="round" stroke-linejoin="round" x1="174.972" y1="481.597" x2="172.472" y2="481.597"/>
			</g>
		</g>
	</g>
	<g id="POLYLINE_990_">
		<g>
			<g>
				
					<line fill="none" stroke="#3A54F5" stroke-width="3" stroke-linecap="round" stroke-linejoin="round" x1="553.528" y1="481.597" x2="551.028" y2="481.597"/>
				
					<line fill="none" stroke="#3A54F5" stroke-width="3" stroke-linecap="round" stroke-linejoin="round" stroke-dasharray="4.96,6.944" x1="544.084" y1="481.597" x2="440.42" y2="481.597"/>
				
					<line fill="none" stroke="#3A54F5" stroke-width="3" stroke-linecap="round" stroke-linejoin="round" x1="436.948" y1="481.597" x2="434.448" y2="481.597"/>
			</g>
		</g>
	</g>
</g>
<g id="AG-DASH">
	<g id="POLYLINE_987_">
		<g>
			<g>
				
					<line fill="none" stroke="#3A54F5" stroke-width="2.25" stroke-linecap="round" stroke-linejoin="round" x1="553.528" y1="214.5" x2="555.528" y2="214.5"/>
				
					<line fill="none" stroke="#3A54F5" stroke-width="2.25" stroke-linecap="round" stroke-linejoin="round" stroke-dasharray="4.2861,6.4292" x1="561.957" y1="214.5" x2="612.319" y2="214.5"/>
				<polyline fill="none" stroke="#3A54F5" stroke-width="2.25" stroke-linecap="round" stroke-linejoin="round" points="
					615.533,214.5 617.533,214.5 617.533,216.5 				"/>
				
					<line fill="none" stroke="#3A54F5" stroke-width="2.25" stroke-linecap="round" stroke-linejoin="round" stroke-dasharray="4.0878,6.1316" x1="617.533" y1="222.632" x2="617.533" y2="280.882"/>
				<polyline fill="none" stroke="#3A54F5" stroke-width="2.25" stroke-linecap="round" stroke-linejoin="round" points="
					617.533,283.948 617.533,285.948 615.533,285.948 				"/>
				
					<line fill="none" stroke="#3A54F5" stroke-width="2.25" stroke-linecap="round" stroke-linejoin="round" stroke-dasharray="4.2861,6.4292" x1="609.104" y1="285.948" x2="558.742" y2="285.948"/>
				
					<line fill="none" stroke="#3A54F5" stroke-width="2.25" stroke-linecap="round" stroke-linejoin="round" x1="555.528" y1="285.948" x2="553.528" y2="285.948"/>
			</g>
		</g>
	</g>
</g>
<g id="AG-FURNITURE">
</g>
<g id="AG-LAYOUT">
	<g id="POLYLINE_986_">
		
			<path fill="none" stroke="#3A54F5" stroke-width="2.75" stroke-linecap="round" stroke-linejoin="round" stroke-miterlimit="10" d="
			M363,124.307c-2.141,0.019-3.134,2.794-1.44,4.136c1.623,1.286,4.061-0.145,3.729-2.189
			C365.107,125.139,364.123,124.317,363,124.307z"/>
	</g>
	<g id="POLYLINE_985_">
		
			<path fill="none" stroke="#3A54F5" stroke-width="2.75" stroke-linecap="round" stroke-linejoin="round" stroke-miterlimit="10" d="
			M408.399,184.641c1.482-0.001,2.896-0.757,3.718-1.993c0.692-1.04,0.747-2.157,0.747-3.36c0-9.274,0-18.548,0-27.823
			c0-2.828,0.066-5.665,0-8.493c-0.034-1.444-0.675-2.787-1.866-3.64c-0.985-0.705-2.07-0.835-3.243-0.835
			c-3.628,0-7.256,0-10.884,0c-9.013,0-18.027,0-27.04,0c-2.669,0-4.915,1.681-4.972,4.503c-0.168,8.312,0,16.644,0,24.957
			c0,3.831,0,7.663,0,11.494c0,1.174,0.1,2.26,0.79,3.26c0.846,1.226,2.211,1.894,3.679,1.929c2.638,0.062,5.285,0,7.923,0
			c9.712,0,19.423,0,29.135,0C407.059,184.641,407.729,184.641,408.399,184.641z"/>
	</g>
	<g id="POLYLINE_984_">
		
			<path fill="none" stroke="#3A54F5" stroke-width="2.75" stroke-linecap="round" stroke-linejoin="round" stroke-miterlimit="10" d="
			M331.928,160.081c0.002-2.176,1.404-4.171,3.454-4.905c2.049-0.733,4.401-0.083,5.782,1.599c1.381,1.682,1.561,4.116,0.443,5.983
			s-3.349,2.857-5.483,2.434c-2.127-0.422-3.806-2.177-4.136-4.32C331.948,160.61,331.928,160.346,331.928,160.081z"/>
	</g>
	<g id="POLYLINE_983_">
		
			<path fill="none" stroke="#3A54F5" stroke-width="2.75" stroke-linecap="round" stroke-linejoin="round" stroke-miterlimit="10" d="
			M383.653,160.081c0.002-2.176,1.404-4.171,3.454-4.905c2.049-0.733,4.401-0.083,5.782,1.599c1.381,1.682,1.561,4.116,0.443,5.983
			s-3.349,2.857-5.483,2.434c-2.127-0.422-3.806-2.177-4.136-4.32C383.673,160.61,383.653,160.346,383.653,160.081z"/>
	</g>
	<g id="POLYLINE_982_">
		
			<path fill="none" stroke="#3A54F5" stroke-width="2.75" stroke-linecap="round" stroke-linejoin="round" stroke-miterlimit="10" d="
			M317.601,184.641c-1.482-0.001-2.896-0.757-3.718-1.993c-0.692-1.04-0.747-2.157-0.747-3.36c0-9.274,0-18.548,0-27.823
			c0-2.828-0.066-5.665,0-8.493c0.034-1.444,0.675-2.787,1.866-3.64c0.985-0.705,2.07-0.835,3.243-0.835c3.628,0,7.256,0,10.884,0
			c9.013,0,18.027,0,27.04,0c2.669,0,4.915,1.681,4.972,4.503c0.168,8.312,0,16.644,0,24.957c0,3.831,0,7.663,0,11.494
			c0,1.174-0.1,2.26-0.79,3.26c-0.846,1.226-2.211,1.894-3.679,1.929c-2.638,0.062-5.285,0-7.923,0c-9.712,0-19.423,0-29.135,0
			C318.941,184.641,318.271,184.641,317.601,184.641z"/>
	</g>
	<g id="POLYLINE_981_">
		
			<path fill="none" stroke="#3A54F5" stroke-width="2.75" stroke-linecap="round" stroke-linejoin="round" stroke-miterlimit="10" d="
			M418.074,185.386c-0.001,2.347-1.897,4.327-4.234,4.46c-2.747,0.156-5.543,0.006-8.293,0.006c-6.97,0-13.94,0-20.91,0
			c-8.924,0-17.847,0-26.771,0c-8.453,0-16.906,0-25.359,0c-5.647,0-11.294,0-16.94,0c-1.811,0-3.977,0.325-5.585-0.705
			c-2.311-1.481-2.057-3.967-2.057-6.351c0-7.674,0-15.349,0-23.023c0-6.958,0-13.917,0-20.875c0-2.223,0.452-4.326,2.775-5.276
			c0.698-0.285,1.411-0.333,2.152-0.333c1.404,0,2.808,0,4.212,0c6.151,0,12.303,0,18.454,0c8.647,0,17.293,0,25.94,0
			c8.805,0,17.61,0,26.416,0c6.526,0,13.052,0,19.578,0c1.705,0,3.41,0,5.115,0c0.692,0,1.396-0.04,2.074,0.121
			c2.228,0.529,3.433,2.517,3.434,4.695c0.005,6.204,0,12.409,0,18.613c0,8.132,0,16.264,0,24.396
			C418.074,182.537,418.074,183.961,418.074,185.386z"/>
	</g>
	<g id="POLYLINE_980_">
		
			<path fill="none" stroke="#3A54F5" stroke-width="2.75" stroke-linecap="round" stroke-linejoin="round" stroke-miterlimit="10" d="
			M415.842,385.03c2.751-0.007,5.464-0.86,7.715-2.445c2.246-1.581,3.972-3.851,4.898-6.437c0.926-2.585,1.032-5.436,0.3-8.083
			c-0.732-2.648-2.287-5.041-4.411-6.785c-2.116-1.738-4.754-2.795-7.483-3.004c-2.748-0.211-5.536,0.449-7.9,1.865
			c-2.356,1.411-4.247,3.546-5.361,6.056c-1.11,2.502-1.43,5.327-0.903,8.013c0.53,2.698,1.898,5.199,3.883,7.1
			c1.977,1.894,4.528,3.149,7.233,3.564C414.483,384.978,415.162,385.028,415.842,385.03z"/>
	</g>
	<g id="POLYLINE_979_">
		
			<path fill="none" stroke="#3A54F5" stroke-width="2.75" stroke-linecap="round" stroke-linejoin="round" stroke-miterlimit="10" d="
			M415.842,405.497c2.751,0.007,5.464,0.86,7.715,2.445c2.246,1.581,3.972,3.851,4.898,6.437c0.926,2.585,1.032,5.436,0.3,8.083
			c-0.732,2.648-2.287,5.041-4.411,6.785c-2.116,1.738-4.754,2.795-7.483,3.004c-2.748,0.211-5.536-0.449-7.9-1.865
			c-2.356-1.411-4.247-3.546-5.361-6.056c-1.11-2.502-1.43-5.327-0.903-8.013c0.53-2.698,1.898-5.199,3.883-7.1
			c1.977-1.894,4.528-3.149,7.233-3.564C414.483,405.549,415.162,405.499,415.842,405.497z"/>
	</g>
	<g id="POLYLINE_978_">
		
			<rect x="363" y="350.795" fill="none" stroke="#3A54F5" stroke-width="2.75" stroke-linecap="round" stroke-linejoin="round" stroke-miterlimit="10" width="71.448" height="88.938"/>
	</g>
	<g id="POLYLINE_977_">
		
			<path fill="none" stroke="#3A54F5" stroke-width="2.75" stroke-linecap="round" stroke-linejoin="round" stroke-miterlimit="10" d="
			M386.454,414.399c3.732,0.008,7.149,2.403,8.408,5.921c1.257,3.511,0.143,7.545-2.741,9.912c-2.884,2.367-7.055,2.676-10.256,0.76
			c-3.2-1.916-4.898-5.74-4.172-9.4c0.723-3.647,3.732-6.525,7.405-7.09C385.548,414.434,386.001,414.4,386.454,414.399z"/>
	</g>
	<g id="POLYLINE_976_">
		
			<path fill="none" stroke="#3A54F5" stroke-width="2.75" stroke-linecap="round" stroke-linejoin="round" stroke-miterlimit="10" d="
			M386.454,376.129c3.732-0.008,7.149-2.403,8.408-5.921c1.257-3.511,0.143-7.545-2.741-9.912c-2.884-2.367-7.055-2.676-10.256-0.76
			c-3.2,1.916-4.898,5.74-4.172,9.4c0.723,3.647,3.732,6.525,7.405,7.09C385.548,376.094,386.001,376.128,386.454,376.129z"/>
	</g>
	<g id="POLYLINE_975_">
		
			<path fill="none" stroke="#3A54F5" stroke-width="2.75" stroke-linecap="round" stroke-linejoin="round" stroke-miterlimit="10" d="
			M386.454,383.356c4.977,0.016,9.531,3.201,11.211,7.895c1.676,4.683,0.19,10.059-3.654,13.216
			c-3.844,3.157-9.407,3.568-13.674,1.013s-6.531-7.654-5.563-12.533c0.964-4.86,4.976-8.702,9.874-9.453
			C385.246,383.402,385.85,383.358,386.454,383.356z"/>
	</g>
	<g id="POLYLINE_974_">
		
			<polygon fill="none" stroke="#3A54F5" stroke-width="2.75" stroke-linecap="round" stroke-linejoin="round" stroke-miterlimit="10" points="
			624.976,118.403 624.976,375.913 553.528,375.913 553.528,189.851 172.472,189.851 172.472,481.597 101.024,481.597 
			101.024,118.403 		"/>
	</g>
	<g id="POLYLINE_973_">
		
			<rect x="291.552" y="308.931" fill="none" stroke="#3A54F5" stroke-width="2.75" stroke-linecap="round" stroke-linejoin="round" stroke-miterlimit="10" width="142.896" height="172.666"/>
	</g>
	<g id="POLYLINE_972_">
		
			<rect x="552.039" y="375.913" fill="none" stroke="#3A54F5" stroke-width="2.75" stroke-linecap="round" stroke-linejoin="round" stroke-miterlimit="10" width="66.982" height="105.683"/>
	</g>
	<g id="POLYLINE_971_">
		
			<rect x="547.574" y="375.913" fill="none" stroke="#3A54F5" stroke-width="2.75" stroke-linecap="round" stroke-linejoin="round" stroke-miterlimit="10" width="4.465" height="52.842"/>
	</g>
	<g id="POLYLINE_970_">
		
			<rect x="547.574" y="428.755" fill="none" stroke="#3A54F5" stroke-width="2.75" stroke-linecap="round" stroke-linejoin="round" stroke-miterlimit="10" width="4.465" height="52.842"/>
	</g>
	<g id="POLYLINE_969_">
		
			<rect x="619.022" y="381.123" fill="none" stroke="#3A54F5" stroke-width="2.75" stroke-linecap="round" stroke-linejoin="round" stroke-miterlimit="10" width="5.954" height="95.264"/>
	</g>
</g>
<g id="AG-OUTLINE">
	<g id="POLYLINE_433_">
		
			<polygon fill="none" stroke="#3A54F5" stroke-width="3.5" stroke-linecap="round" stroke-linejoin="round" stroke-miterlimit="10" points="
			624.976,375.913 624.976,118.403 101.024,118.403 101.024,481.597 172.472,481.597 172.472,189.851 311.99,189.842 
			312.091,189.846 312.192,189.849 312.292,189.851 312.391,189.851 413.609,189.851 413.708,189.851 413.808,189.849 
			413.909,189.846 414.01,189.842 553.528,189.851 553.528,375.913 552.039,375.913 547.574,375.913 547.574,428.755 
			547.574,481.597 552.039,481.597 619.022,481.597 624.976,481.597 		"/>
	</g>
	<g id="POLYLINE_432_">
		
			<polygon fill="none" stroke="#3A54F5" stroke-width="3.5" stroke-linecap="round" stroke-linejoin="round" stroke-miterlimit="10" points="
			291.552,481.597 434.448,481.597 434.448,439.733 434.448,350.795 434.448,308.931 291.552,308.931 		"/>
	</g>
</g>
</svg>
