<?xml version="1.0" encoding="utf-8"?>
<!-- Generator: Adobe Illustrator 23.0.2, SVG Export Plug-In . SVG Version: 6.00 Build 0)  -->
<!DOCTYPE svg PUBLIC "-//W3C//DTD SVG 1.1//EN" "http://www.w3.org/Graphics/SVG/1.1/DTD/svg11.dtd" [
	<!ENTITY ns_flows "http://ns.adobe.com/Flows/1.0/">
	<!ENTITY ns_extend "http://ns.adobe.com/Extensibility/1.0/">
	<!ENTITY ns_ai "http://ns.adobe.com/AdobeIllustrator/10.0/">
	<!ENTITY ns_graphs "http://ns.adobe.com/Graphs/1.0/">
	<!ENTITY ns_vars "http://ns.adobe.com/Variables/1.0/">
	<!ENTITY ns_imrep "http://ns.adobe.com/ImageReplacement/1.0/">
	<!ENTITY ns_sfw "http://ns.adobe.com/SaveForWeb/1.0/">
	<!ENTITY ns_custom "http://ns.adobe.com/GenericCustomNamespace/1.0/">
	<!ENTITY ns_adobe_xpath "http://ns.adobe.com/XPath/1.0/">
]>
<svg version="1.1" xmlns:x="&ns_extend;" xmlns:i="&ns_ai;" xmlns:graph="&ns_graphs;"
	 xmlns="http://www.w3.org/2000/svg" xmlns:xlink="http://www.w3.org/1999/xlink" xmlns:a="http://ns.adobe.com/AdobeSVGViewerExtensions/3.0/"
	 x="0px" y="0px" viewBox="0 0 750 650" enable-background="new 0 0 750 650" xml:space="preserve">
<metadata>
	<sfw  xmlns="&ns_sfw;">
		<slices></slices>
		<sliceSourceBounds  bottomLeftOrigin="true" height="9185.057" width="6115.224" x="-5706.937" y="-3923.667">
			</sliceSourceBounds>
	</sfw>
</metadata>
<g id="FILL-BACKGROUND">
</g>
<g id="N-DIMENSIONS" display="none">
	<g display="inline">
		<g id="POLYLINE_511_">
			
				<line fill="none" stroke="#3A54F5" stroke-width="2" stroke-linecap="round" stroke-linejoin="round" stroke-miterlimit="10" x1="619.748" y1="548.403" x2="619.748" y2="336.185"/>
		</g>
		<g id="LINE_41_">
			
				<line fill="none" stroke="#3A54F5" stroke-width="2" stroke-linecap="round" stroke-linejoin="round" stroke-miterlimit="10" x1="619.748" y1="288.219" x2="619.748" y2="89.25"/>
		</g>
		<g id="POLYLINE_510_">
			
				<polyline fill="none" stroke="#3A54F5" stroke-width="2" stroke-linecap="round" stroke-linejoin="round" stroke-miterlimit="10" points="
				613.12,95.879 619.748,89.25 626.376,95.879 			"/>
		</g>
		<g id="POLYLINE_509_">
			
				<polyline fill="none" stroke="#3A54F5" stroke-width="2" stroke-linecap="round" stroke-linejoin="round" stroke-miterlimit="10" points="
				626.376,541.776 619.748,548.403 613.12,541.776 			"/>
		</g>
		<g id="MTEXT_93_">
			<g>
				<g>
					<g>
						<path fill="#3A54F5" d="M618.8,307.818c-0.072-0.078-0.108-0.177-0.108-0.297v-10.152l-3.024,2.322
							c-0.084,0.072-0.174,0.108-0.27,0.108c-0.108,0-0.21-0.061-0.306-0.181l-0.432-0.558c-0.06-0.084-0.09-0.168-0.09-0.252
							c0-0.132,0.06-0.24,0.18-0.324l3.906-3.023c0.132-0.084,0.288-0.126,0.468-0.126h0.846c0.12,0,0.219,0.039,0.297,0.116
							c0.078,0.078,0.117,0.178,0.117,0.298v11.771c0,0.12-0.039,0.219-0.117,0.297s-0.177,0.117-0.297,0.117h-0.882
							C618.968,307.936,618.872,307.896,618.8,307.818z"/>
						<path fill="#3A54F5" d="M624.065,306.757c-0.714-0.906-1.095-2.091-1.143-3.556l-0.018-1.548l0.018-1.602
							c0.036-1.452,0.417-2.631,1.143-3.537s1.857-1.359,3.393-1.359c1.548,0,2.685,0.453,3.411,1.359
							c0.726,0.906,1.107,2.085,1.143,3.537c0.012,0.336,0.018,0.87,0.018,1.602c0,0.708-0.006,1.225-0.018,1.548
							c-0.048,1.465-0.429,2.649-1.143,3.556c-0.714,0.906-1.851,1.358-3.411,1.358C625.91,308.115,624.779,307.663,624.065,306.757
							z M629.546,305.703c0.468-0.611,0.714-1.476,0.738-2.592c0.012-0.348,0.018-0.846,0.018-1.494
							c0-0.659-0.006-1.151-0.018-1.476c-0.024-1.104-0.273-1.965-0.747-2.583c-0.474-0.618-1.167-0.927-2.079-0.927
							c-0.912,0-1.602,0.309-2.07,0.927c-0.468,0.618-0.714,1.479-0.738,2.583l-0.018,1.476l0.018,1.494
							c0.024,1.116,0.27,1.98,0.738,2.592c0.468,0.612,1.158,0.918,2.07,0.918C628.382,306.621,629.078,306.315,629.546,305.703z"/>
						<path fill="#3A54F5" d="M634.262,298.477c-0.048-0.065-0.066-0.159-0.054-0.279l0.396-2.52
							c0.048-0.348,0.216-0.522,0.504-0.522h1.152c0.083,0,0.153,0.03,0.207,0.09c0.054,0.061,0.081,0.133,0.081,0.217
							c0,0.12-0.018,0.216-0.054,0.288l-0.936,2.43c-0.06,0.132-0.126,0.231-0.198,0.297c-0.072,0.066-0.18,0.099-0.324,0.099
							h-0.558C634.381,298.575,634.31,298.543,634.262,298.477z"/>
						<path fill="#3A54F5" d="M638.249,307.818c-0.078-0.078-0.117-0.177-0.117-0.297v-0.54c0-0.275,0.15-0.54,0.45-0.792
							l3.924-3.906c0.888-0.756,1.5-1.374,1.836-1.854s0.504-0.99,0.504-1.53c0-0.708-0.198-1.263-0.594-1.665
							c-0.396-0.401-0.972-0.603-1.728-0.603c-0.72,0-1.29,0.21-1.71,0.63s-0.678,0.984-0.774,1.691
							c-0.024,0.133-0.084,0.234-0.18,0.307s-0.192,0.107-0.288,0.107h-0.864c-0.108,0-0.198-0.035-0.27-0.107
							s-0.108-0.156-0.108-0.252c0.024-0.636,0.195-1.251,0.513-1.846c0.318-0.594,0.789-1.079,1.413-1.458
							c0.624-0.378,1.38-0.566,2.268-0.566c1.344,0,2.355,0.351,3.033,1.053c0.678,0.702,1.017,1.593,1.017,2.673
							c0,0.756-0.183,1.438-0.549,2.043c-0.366,0.606-0.939,1.245-1.719,1.917l-3.546,3.601h5.67c0.132,0,0.234,0.036,0.306,0.107
							c0.072,0.072,0.108,0.175,0.108,0.307v0.684c0,0.12-0.04,0.219-0.117,0.297c-0.078,0.078-0.177,0.117-0.297,0.117h-7.884
							C638.425,307.936,638.327,307.896,638.249,307.818z"/>
						<path fill="#3A54F5" d="M648.851,298.468c-0.054-0.072-0.069-0.162-0.045-0.271l0.396-2.52
							c0.048-0.348,0.216-0.522,0.504-0.522h1.152c0.083,0,0.153,0.03,0.207,0.09c0.054,0.061,0.081,0.133,0.081,0.217
							c0,0.12-0.018,0.216-0.054,0.288l-0.936,2.43c-0.06,0.132-0.126,0.231-0.198,0.297c-0.072,0.066-0.18,0.099-0.324,0.099
							h-0.558C648.979,298.575,648.905,298.539,648.851,298.468z M651.677,298.468c-0.054-0.072-0.069-0.162-0.045-0.271l0.396-2.52
							c0.048-0.348,0.216-0.522,0.504-0.522h1.152c0.084,0,0.153,0.03,0.207,0.09c0.054,0.061,0.081,0.133,0.081,0.217
							c0,0.12-0.018,0.216-0.054,0.288l-0.936,2.43c-0.061,0.132-0.126,0.231-0.198,0.297c-0.072,0.066-0.18,0.099-0.324,0.099
							h-0.558C651.806,298.575,651.731,298.539,651.677,298.468z"/>
						<path fill="#3A54F5" d="M617.018,327.256c-0.684-0.306-1.203-0.704-1.557-1.196s-0.543-1.002-0.567-1.53
							c0-0.108,0.036-0.195,0.108-0.261c0.072-0.066,0.162-0.1,0.27-0.1h0.81c0.132,0,0.24,0.027,0.324,0.081
							c0.083,0.054,0.15,0.159,0.198,0.315c0.156,0.611,0.495,1.044,1.017,1.296s1.137,0.378,1.845,0.378
							c0.864,0,1.551-0.207,2.061-0.621c0.51-0.414,0.765-1.005,0.765-1.773c0-1.464-0.894-2.195-2.682-2.195h-1.692
							c-0.12,0-0.219-0.039-0.297-0.117s-0.117-0.177-0.117-0.297v-0.468c0-0.181,0.066-0.336,0.198-0.469l3.51-3.888h-5.328
							c-0.12,0-0.219-0.036-0.297-0.108c-0.078-0.071-0.117-0.168-0.117-0.287v-0.648c0-0.132,0.039-0.237,0.117-0.315
							c0.078-0.077,0.177-0.116,0.297-0.116h7.128c0.132,0,0.237,0.039,0.315,0.116c0.078,0.078,0.117,0.184,0.117,0.315v0.594
							c0,0.133-0.061,0.271-0.18,0.414l-3.51,3.942h0.288c1.224,0.036,2.193,0.354,2.907,0.954c0.714,0.6,1.071,1.476,1.071,2.628
							c0,0.792-0.195,1.473-0.585,2.043c-0.39,0.57-0.933,1.008-1.629,1.313c-0.696,0.307-1.482,0.459-2.358,0.459
							C618.512,327.715,617.702,327.562,617.018,327.256z"/>
						<path fill="#3A54F5" d="M626.225,327.418c-0.078-0.078-0.117-0.177-0.117-0.297v-1.242c0-0.119,0.039-0.222,0.117-0.306
							s0.177-0.126,0.297-0.126h1.242c0.12,0,0.219,0.042,0.297,0.126s0.117,0.187,0.117,0.306v1.242
							c0,0.12-0.039,0.219-0.117,0.297s-0.177,0.117-0.297,0.117h-1.242C626.402,327.535,626.303,327.496,626.225,327.418z"/>
						<path fill="#3A54F5" d="M632.858,327.418c-0.072-0.078-0.108-0.177-0.108-0.297v-10.152l-3.024,2.322
							c-0.084,0.072-0.174,0.108-0.27,0.108c-0.108,0-0.21-0.061-0.306-0.181l-0.432-0.558c-0.06-0.084-0.09-0.168-0.09-0.252
							c0-0.132,0.06-0.24,0.18-0.324l3.906-3.023c0.132-0.084,0.288-0.126,0.468-0.126h0.846c0.12,0,0.219,0.039,0.297,0.116
							c0.078,0.078,0.117,0.178,0.117,0.298v11.771c0,0.12-0.039,0.219-0.117,0.297s-0.177,0.117-0.297,0.117h-0.882
							C633.026,327.535,632.93,327.496,632.858,327.418z"/>
						<path fill="#3A54F5" d="M638.726,327.229c-0.66-0.324-1.164-0.747-1.512-1.27c-0.349-0.521-0.534-1.083-0.558-1.683v-0.036
							c0-0.096,0.036-0.174,0.108-0.234c0.072-0.06,0.156-0.09,0.252-0.09h0.882c0.252,0,0.414,0.133,0.486,0.396
							c0.18,0.647,0.513,1.131,0.999,1.448c0.486,0.318,1.047,0.478,1.683,0.478c0.816,0,1.494-0.249,2.034-0.747
							s0.81-1.185,0.81-2.061c0-0.805-0.27-1.443-0.81-1.918c-0.54-0.474-1.218-0.711-2.034-0.711c-0.432,0-0.78,0.055-1.044,0.162
							c-0.264,0.108-0.534,0.265-0.81,0.469c-0.156,0.12-0.285,0.207-0.387,0.261c-0.102,0.054-0.213,0.081-0.333,0.081h-0.864
							c-0.108,0-0.204-0.039-0.288-0.117c-0.084-0.078-0.12-0.171-0.108-0.279l0.558-5.994c0.036-0.3,0.186-0.449,0.45-0.449h6.228
							c0.132,0,0.234,0.035,0.306,0.107c0.072,0.072,0.108,0.174,0.108,0.307v0.666c0,0.119-0.039,0.216-0.117,0.287
							c-0.078,0.072-0.177,0.108-0.297,0.108h-5.184l-0.324,3.618c0.576-0.408,1.35-0.612,2.322-0.612
							c0.804,0,1.536,0.159,2.196,0.478c0.66,0.317,1.185,0.782,1.575,1.395c0.39,0.612,0.585,1.338,0.585,2.178
							c0,0.889-0.195,1.653-0.585,2.295c-0.39,0.643-0.93,1.129-1.62,1.458c-0.69,0.33-1.479,0.495-2.367,0.495
							C640.166,327.715,639.386,327.553,638.726,327.229z"/>
						<path fill="#3A54F5" d="M652.378,327.418c-0.078-0.078-0.117-0.177-0.117-0.297v-8.532c0-0.119,0.039-0.219,0.117-0.297
							s0.177-0.117,0.297-0.117h0.756c0.12,0,0.216,0.039,0.288,0.117c0.072,0.078,0.108,0.178,0.108,0.297v0.612
							c0.648-0.804,1.524-1.206,2.628-1.206c1.32,0,2.256,0.552,2.808,1.656c0.288-0.504,0.699-0.906,1.233-1.206
							c0.534-0.3,1.131-0.45,1.791-0.45c0.984,0,1.788,0.336,2.412,1.008c0.624,0.673,0.936,1.645,0.936,2.916v5.202
							c0,0.12-0.039,0.219-0.117,0.297s-0.177,0.117-0.297,0.117h-0.774c-0.12,0-0.219-0.039-0.297-0.117s-0.117-0.177-0.117-0.297
							v-5.04c0-0.96-0.198-1.646-0.594-2.061s-0.918-0.621-1.566-0.621c-0.576,0-1.071,0.213-1.485,0.639s-0.621,1.107-0.621,2.043
							v5.04c0,0.12-0.039,0.219-0.117,0.297s-0.177,0.117-0.297,0.117h-0.792c-0.12,0-0.219-0.039-0.297-0.117
							c-0.078-0.078-0.117-0.177-0.117-0.297v-5.04c0-0.947-0.207-1.632-0.621-2.052c-0.414-0.42-0.927-0.63-1.539-0.63
							c-0.576,0-1.071,0.21-1.485,0.63s-0.621,1.098-0.621,2.034v5.058c0,0.12-0.04,0.219-0.117,0.297
							c-0.078,0.078-0.177,0.117-0.297,0.117h-0.792C652.556,327.535,652.457,327.496,652.378,327.418z"/>
					</g>
				</g>
			</g>
		</g>
	</g>
	<g display="inline">
		<g id="POLYLINE_508_">
			
				<line fill="none" stroke="#3A54F5" stroke-width="2" stroke-linecap="round" stroke-linejoin="round" stroke-miterlimit="10" x1="597.561" y1="571.898" x2="416.161" y2="571.898"/>
		</g>
		<g id="LINE_40_">
			
				<line fill="none" stroke="#3A54F5" stroke-width="2" stroke-linecap="round" stroke-linejoin="round" stroke-miterlimit="10" x1="298.5" y1="571.898" x2="124.75" y2="571.898"/>
		</g>
		<g id="POLYLINE_507_">
			
				<polyline fill="none" stroke="#3A54F5" stroke-width="2" stroke-linecap="round" stroke-linejoin="round" stroke-miterlimit="10" points="
				131.379,578.525 124.75,571.898 131.379,565.269 			"/>
		</g>
		<g id="POLYLINE_506_">
			
				<polyline fill="none" stroke="#3A54F5" stroke-width="2" stroke-linecap="round" stroke-linejoin="round" stroke-miterlimit="10" points="
				590.935,565.269 597.561,571.898 590.935,578.525 			"/>
		</g>
		<g id="MTEXT_92_">
			<g>
				<g>
					<path fill="#3A54F5" d="M312.33,578.109c-0.072-0.078-0.108-0.177-0.108-0.297V567.66l-3.024,2.322
						c-0.084,0.072-0.174,0.108-0.27,0.108c-0.108,0-0.21-0.061-0.306-0.181l-0.432-0.558c-0.06-0.084-0.09-0.168-0.09-0.252
						c0-0.132,0.06-0.24,0.18-0.324l3.906-3.023c0.132-0.084,0.288-0.126,0.468-0.126h0.846c0.12,0,0.219,0.039,0.297,0.116
						c0.078,0.078,0.117,0.178,0.117,0.298v11.771c0,0.12-0.039,0.219-0.117,0.297s-0.177,0.117-0.297,0.117h-0.882
						C312.498,578.227,312.401,578.188,312.33,578.109z"/>
					<path fill="#3A54F5" d="M317.594,577.048c-0.714-0.906-1.095-2.091-1.143-3.556l-0.018-1.548l0.018-1.602
						c0.036-1.452,0.417-2.631,1.143-3.537s1.857-1.359,3.393-1.359c1.548,0,2.685,0.453,3.411,1.359
						c0.726,0.906,1.107,2.085,1.143,3.537c0.012,0.336,0.018,0.87,0.018,1.602c0,0.708-0.006,1.225-0.018,1.548
						c-0.048,1.465-0.429,2.649-1.143,3.556c-0.714,0.906-1.851,1.358-3.411,1.358C319.439,578.406,318.308,577.954,317.594,577.048
						z M323.075,575.994c0.468-0.611,0.714-1.476,0.738-2.592c0.012-0.348,0.018-0.846,0.018-1.494c0-0.659-0.006-1.151-0.018-1.476
						c-0.024-1.104-0.273-1.965-0.747-2.583c-0.474-0.618-1.167-0.927-2.079-0.927c-0.912,0-1.602,0.309-2.07,0.927
						c-0.468,0.618-0.714,1.479-0.738,2.583l-0.018,1.476l0.018,1.494c0.024,1.116,0.27,1.98,0.738,2.592
						c0.468,0.612,1.158,0.918,2.07,0.918C321.911,576.912,322.607,576.606,323.075,575.994z"/>
					<path fill="#3A54F5" d="M327.792,568.768c-0.048-0.065-0.066-0.159-0.054-0.279l0.396-2.52
						c0.048-0.348,0.216-0.522,0.504-0.522h1.152c0.083,0,0.153,0.03,0.207,0.09c0.054,0.061,0.081,0.133,0.081,0.217
						c0,0.12-0.018,0.216-0.054,0.288l-0.936,2.43c-0.06,0.132-0.126,0.231-0.198,0.297c-0.072,0.066-0.18,0.099-0.324,0.099h-0.558
						C327.911,568.866,327.839,568.834,327.792,568.768z"/>
					<path fill="#3A54F5" d="M333.812,577.821c-0.702-0.39-1.236-0.915-1.602-1.575c-0.366-0.659-0.549-1.379-0.549-2.159
						c0-1.032,0.414-2.136,1.242-3.312l3.438-4.788c0.012-0.012,0.045-0.054,0.099-0.126c0.054-0.072,0.123-0.129,0.207-0.171
						c0.083-0.042,0.18-0.062,0.288-0.062h0.882c0.108,0,0.195,0.039,0.261,0.116c0.066,0.078,0.099,0.172,0.099,0.279
						c0,0.061-0.03,0.139-0.09,0.234l-2.628,3.672c0.312-0.072,0.66-0.108,1.044-0.108c0.875,0,1.647,0.195,2.313,0.585
						c0.666,0.391,1.182,0.906,1.548,1.548c0.366,0.643,0.549,1.348,0.549,2.115c0,0.769-0.183,1.485-0.549,2.151
						c-0.366,0.666-0.897,1.197-1.593,1.593c-0.696,0.396-1.519,0.594-2.466,0.594C335.345,578.406,334.514,578.212,333.812,577.821
						z M337.745,576.589c0.444-0.216,0.798-0.537,1.062-0.963s0.396-0.939,0.396-1.539c0-0.588-0.135-1.096-0.405-1.521
						s-0.627-0.75-1.071-0.972c-0.444-0.222-0.924-0.333-1.44-0.333s-0.996,0.111-1.44,0.333s-0.798,0.546-1.062,0.972
						s-0.396,0.934-0.396,1.521c0,0.6,0.132,1.113,0.396,1.539s0.618,0.747,1.062,0.963s0.924,0.323,1.44,0.323
						C336.815,576.912,337.301,576.805,337.745,576.589z"/>
					<path fill="#3A54F5" d="M342.667,568.759c-0.054-0.072-0.069-0.162-0.045-0.271l0.396-2.52
						c0.048-0.348,0.216-0.522,0.504-0.522h1.152c0.083,0,0.153,0.03,0.207,0.09c0.054,0.061,0.081,0.133,0.081,0.217
						c0,0.12-0.018,0.216-0.054,0.288l-0.936,2.43c-0.06,0.132-0.126,0.231-0.198,0.297c-0.072,0.066-0.18,0.099-0.324,0.099h-0.558
						C342.796,568.866,342.722,568.83,342.667,568.759z M345.494,568.759c-0.054-0.072-0.069-0.162-0.045-0.271l0.396-2.52
						c0.048-0.348,0.216-0.522,0.504-0.522h1.152c0.084,0,0.153,0.03,0.207,0.09c0.054,0.061,0.081,0.133,0.081,0.217
						c0,0.12-0.018,0.216-0.054,0.288l-0.936,2.43c-0.061,0.132-0.126,0.231-0.198,0.297c-0.072,0.066-0.18,0.099-0.324,0.099
						h-0.558C345.623,568.866,345.548,568.83,345.494,568.759z"/>
					<path fill="#3A54F5" d="M354.376,581.854c-0.072-0.078-0.108-0.177-0.108-0.297v-19.044c0-0.12,0.036-0.219,0.108-0.297
						s0.168-0.117,0.288-0.117h0.666c0.12,0,0.219,0.039,0.297,0.117s0.117,0.177,0.117,0.297v19.044
						c0,0.12-0.039,0.219-0.117,0.297s-0.177,0.117-0.297,0.117h-0.666C354.544,581.971,354.448,581.932,354.376,581.854z"/>
					<path fill="#3A54F5" d="M364.402,577.947c-0.684-0.306-1.203-0.704-1.557-1.196s-0.543-1.002-0.567-1.53
						c0-0.108,0.036-0.195,0.108-0.261c0.072-0.066,0.162-0.1,0.27-0.1h0.81c0.132,0,0.24,0.027,0.324,0.081
						c0.083,0.054,0.15,0.159,0.198,0.315c0.156,0.611,0.495,1.044,1.017,1.296s1.137,0.378,1.845,0.378
						c0.864,0,1.551-0.207,2.061-0.621c0.51-0.414,0.765-1.005,0.765-1.773c0-1.464-0.894-2.195-2.682-2.195h-1.692
						c-0.12,0-0.219-0.039-0.297-0.117s-0.117-0.177-0.117-0.297v-0.468c0-0.181,0.066-0.336,0.198-0.469l3.51-3.888h-5.328
						c-0.12,0-0.219-0.036-0.297-0.108c-0.078-0.071-0.117-0.168-0.117-0.287v-0.648c0-0.132,0.039-0.237,0.117-0.315
						c0.078-0.077,0.177-0.116,0.297-0.116h7.128c0.132,0,0.237,0.039,0.315,0.116c0.078,0.078,0.117,0.184,0.117,0.315v0.594
						c0,0.133-0.061,0.271-0.18,0.414l-3.51,3.942h0.288c1.224,0.036,2.193,0.354,2.907,0.954c0.714,0.6,1.071,1.476,1.071,2.628
						c0,0.792-0.195,1.473-0.585,2.043c-0.39,0.57-0.933,1.008-1.629,1.313c-0.696,0.307-1.482,0.459-2.358,0.459
						C365.896,578.406,365.086,578.254,364.402,577.947z"/>
					<path fill="#3A54F5" d="M373.608,578.109c-0.078-0.078-0.117-0.177-0.117-0.297v-1.242c0-0.119,0.039-0.222,0.117-0.306
						s0.177-0.126,0.297-0.126h1.242c0.12,0,0.219,0.042,0.297,0.126s0.117,0.187,0.117,0.306v1.242c0,0.12-0.039,0.219-0.117,0.297
						s-0.177,0.117-0.297,0.117h-1.242C373.786,578.227,373.687,578.188,373.608,578.109z"/>
					<path fill="#3A54F5" d="M377.767,578.109c-0.078-0.078-0.117-0.177-0.117-0.297v-0.54c0-0.275,0.15-0.54,0.45-0.792
						l3.924-3.906c0.888-0.756,1.5-1.374,1.836-1.854s0.504-0.99,0.504-1.53c0-0.708-0.198-1.263-0.594-1.665
						c-0.396-0.401-0.972-0.603-1.728-0.603c-0.72,0-1.29,0.21-1.71,0.63s-0.678,0.984-0.774,1.691
						c-0.024,0.133-0.084,0.234-0.18,0.307s-0.192,0.107-0.288,0.107h-0.864c-0.108,0-0.198-0.035-0.27-0.107
						s-0.108-0.156-0.108-0.252c0.024-0.636,0.195-1.251,0.513-1.846c0.318-0.594,0.789-1.079,1.413-1.458
						c0.624-0.378,1.38-0.566,2.268-0.566c1.344,0,2.355,0.351,3.033,1.053c0.678,0.702,1.017,1.593,1.017,2.673
						c0,0.756-0.183,1.438-0.549,2.043c-0.366,0.606-0.939,1.245-1.719,1.917l-3.546,3.601h5.67c0.132,0,0.234,0.036,0.306,0.107
						c0.072,0.072,0.108,0.175,0.108,0.307v0.684c0,0.12-0.04,0.219-0.117,0.297c-0.078,0.078-0.177,0.117-0.297,0.117h-7.884
						C377.943,578.227,377.845,578.188,377.767,578.109z"/>
					<path fill="#3A54F5" d="M393.174,578.109c-0.078-0.078-0.117-0.177-0.117-0.297v-8.532c0-0.119,0.039-0.219,0.117-0.297
						s0.177-0.117,0.297-0.117h0.756c0.12,0,0.216,0.039,0.288,0.117c0.072,0.078,0.108,0.178,0.108,0.297v0.612
						c0.648-0.804,1.524-1.206,2.628-1.206c1.32,0,2.256,0.552,2.808,1.656c0.288-0.504,0.699-0.906,1.233-1.206
						c0.534-0.3,1.131-0.45,1.791-0.45c0.984,0,1.788,0.336,2.412,1.008c0.624,0.673,0.936,1.645,0.936,2.916v5.202
						c0,0.12-0.039,0.219-0.117,0.297s-0.177,0.117-0.297,0.117h-0.774c-0.12,0-0.219-0.039-0.297-0.117s-0.117-0.177-0.117-0.297
						v-5.04c0-0.96-0.198-1.646-0.594-2.061s-0.918-0.621-1.566-0.621c-0.576,0-1.071,0.213-1.485,0.639s-0.621,1.107-0.621,2.043
						v5.04c0,0.12-0.039,0.219-0.117,0.297s-0.177,0.117-0.297,0.117h-0.792c-0.12,0-0.219-0.039-0.297-0.117
						c-0.078-0.078-0.117-0.177-0.117-0.297v-5.04c0-0.947-0.207-1.632-0.621-2.052c-0.414-0.42-0.927-0.63-1.539-0.63
						c-0.576,0-1.071,0.21-1.485,0.63s-0.621,1.098-0.621,2.034v5.058c0,0.12-0.04,0.219-0.117,0.297
						c-0.078,0.078-0.177,0.117-0.297,0.117h-0.792C393.352,578.227,393.252,578.188,393.174,578.109z"/>
				</g>
			</g>
		</g>
	</g>
	<g display="inline">
		<g id="POLYLINE_503_">
			
				<line fill="none" stroke="#3A54F5" stroke-width="2" stroke-linecap="round" stroke-linejoin="round" stroke-miterlimit="10" x1="500.749" y1="495.75" x2="449" y2="495.75"/>
		</g>
		<g id="LINE_39_">
			
				<line fill="none" stroke="#3A54F5" stroke-width="2" stroke-linecap="round" stroke-linejoin="round" stroke-miterlimit="10" x1="271.667" y1="495.75" x2="223.217" y2="495.75"/>
		</g>
		<g id="POLYLINE_502_">
			
				<polyline fill="none" stroke="#3A54F5" stroke-width="2" stroke-linecap="round" stroke-linejoin="round" stroke-miterlimit="10" points="
				229.846,502.378 223.217,495.75 229.846,489.122 			"/>
		</g>
		<g id="POLYLINE_501_">
			
				<polyline fill="none" stroke="#3A54F5" stroke-width="2" stroke-linecap="round" stroke-linejoin="round" stroke-miterlimit="10" points="
				494.122,489.122 500.749,495.75 494.122,502.378 			"/>
		</g>
		<g id="MTEXT_13_">
			<g>
				<g>
					<path fill="#3A54F5" d="M281.487,501.774c-0.66-0.324-1.164-0.747-1.512-1.27c-0.349-0.521-0.534-1.083-0.558-1.683v-0.036
						c0-0.096,0.036-0.174,0.108-0.234c0.072-0.06,0.156-0.09,0.252-0.09h0.882c0.252,0,0.414,0.133,0.486,0.396
						c0.18,0.647,0.513,1.131,0.999,1.448c0.486,0.318,1.047,0.478,1.683,0.478c0.816,0,1.494-0.249,2.034-0.747
						s0.81-1.185,0.81-2.061c0-0.805-0.27-1.443-0.81-1.918c-0.54-0.474-1.218-0.711-2.034-0.711c-0.432,0-0.78,0.055-1.044,0.162
						c-0.264,0.108-0.534,0.265-0.81,0.469c-0.156,0.12-0.285,0.207-0.387,0.261c-0.102,0.054-0.213,0.081-0.333,0.081h-0.864
						c-0.108,0-0.204-0.039-0.288-0.117c-0.084-0.078-0.12-0.171-0.108-0.279l0.558-5.994c0.036-0.3,0.186-0.449,0.45-0.449h6.228
						c0.132,0,0.234,0.035,0.306,0.107c0.072,0.072,0.108,0.174,0.108,0.307v0.666c0,0.119-0.039,0.216-0.117,0.287
						c-0.078,0.072-0.177,0.108-0.297,0.108h-5.184l-0.324,3.618c0.576-0.408,1.35-0.612,2.322-0.612
						c0.804,0,1.536,0.159,2.196,0.478c0.66,0.317,1.185,0.782,1.575,1.395c0.39,0.612,0.585,1.338,0.585,2.178
						c0,0.889-0.195,1.653-0.585,2.295c-0.39,0.643-0.93,1.129-1.62,1.458c-0.69,0.33-1.479,0.495-2.367,0.495
						C282.927,502.26,282.147,502.098,281.487,501.774z"/>
					<path fill="#3A54F5" d="M290.343,492.621c-0.048-0.065-0.066-0.159-0.054-0.279l0.396-2.52
						c0.048-0.348,0.216-0.522,0.504-0.522h1.152c0.083,0,0.153,0.03,0.207,0.09c0.054,0.061,0.081,0.133,0.081,0.217
						c0,0.12-0.018,0.216-0.054,0.288l-0.936,2.43c-0.06,0.132-0.126,0.231-0.198,0.297c-0.072,0.066-0.18,0.099-0.324,0.099h-0.558
						C290.463,492.72,290.391,492.688,290.343,492.621z"/>
					<path fill="#3A54F5" d="M299.217,505.707c-0.072-0.078-0.108-0.177-0.108-0.297v-19.044c0-0.12,0.036-0.219,0.108-0.297
						s0.168-0.117,0.288-0.117h0.666c0.12,0,0.219,0.039,0.297,0.117s0.117,0.177,0.117,0.297v19.044
						c0,0.12-0.039,0.219-0.117,0.297s-0.177,0.117-0.297,0.117h-0.666C299.385,505.824,299.289,505.785,299.217,505.707z"/>
					<path fill="#3A54F5" d="M311.024,501.963c-0.072-0.078-0.108-0.177-0.108-0.297v-10.152l-3.024,2.322
						c-0.084,0.072-0.174,0.108-0.27,0.108c-0.108,0-0.21-0.061-0.306-0.181l-0.432-0.558c-0.06-0.084-0.09-0.168-0.09-0.252
						c0-0.132,0.06-0.24,0.18-0.324l3.906-3.023c0.132-0.084,0.288-0.126,0.468-0.126h0.846c0.12,0,0.219,0.039,0.297,0.116
						c0.078,0.078,0.117,0.178,0.117,0.298v11.771c0,0.12-0.039,0.219-0.117,0.297s-0.177,0.117-0.297,0.117h-0.882
						C311.192,502.08,311.096,502.041,311.024,501.963z"/>
					<path fill="#3A54F5" d="M315.335,501.963c-0.078-0.078-0.117-0.177-0.117-0.297v-1.242c0-0.119,0.039-0.222,0.117-0.306
						s0.177-0.126,0.297-0.126h1.242c0.12,0,0.219,0.042,0.297,0.126s0.117,0.187,0.117,0.306v1.242c0,0.12-0.039,0.219-0.117,0.297
						s-0.177,0.117-0.297,0.117h-1.242C315.512,502.08,315.413,502.041,315.335,501.963z"/>
					<path fill="#3A54F5" d="M321.392,501.774c-0.66-0.324-1.164-0.747-1.512-1.27c-0.349-0.521-0.534-1.083-0.558-1.683v-0.036
						c0-0.096,0.036-0.174,0.108-0.234c0.072-0.06,0.156-0.09,0.252-0.09h0.882c0.252,0,0.414,0.133,0.486,0.396
						c0.18,0.647,0.513,1.131,0.999,1.448c0.486,0.318,1.047,0.478,1.683,0.478c0.816,0,1.494-0.249,2.034-0.747
						s0.81-1.185,0.81-2.061c0-0.805-0.27-1.443-0.81-1.918c-0.54-0.474-1.218-0.711-2.034-0.711c-0.432,0-0.78,0.055-1.044,0.162
						c-0.264,0.108-0.534,0.265-0.81,0.469c-0.156,0.12-0.285,0.207-0.387,0.261c-0.102,0.054-0.213,0.081-0.333,0.081h-0.864
						c-0.108,0-0.204-0.039-0.288-0.117c-0.084-0.078-0.12-0.171-0.108-0.279l0.558-5.994c0.036-0.3,0.186-0.449,0.45-0.449h6.228
						c0.132,0,0.234,0.035,0.306,0.107c0.072,0.072,0.108,0.174,0.108,0.307v0.666c0,0.119-0.039,0.216-0.117,0.287
						c-0.078,0.072-0.177,0.108-0.297,0.108h-5.184l-0.324,3.618c0.576-0.408,1.35-0.612,2.322-0.612
						c0.804,0,1.536,0.159,2.196,0.478c0.66,0.317,1.185,0.782,1.575,1.395c0.39,0.612,0.585,1.338,0.585,2.178
						c0,0.889-0.195,1.653-0.585,2.295c-0.39,0.643-0.93,1.129-1.62,1.458c-0.69,0.33-1.479,0.495-2.367,0.495
						C322.832,502.26,322.052,502.098,321.392,501.774z"/>
					<path fill="#3A54F5" d="M332.048,501.801c-0.684-0.306-1.203-0.704-1.557-1.196s-0.543-1.002-0.567-1.53
						c0-0.108,0.036-0.195,0.108-0.261c0.072-0.066,0.162-0.1,0.27-0.1h0.81c0.132,0,0.24,0.027,0.324,0.081
						c0.083,0.054,0.15,0.159,0.198,0.315c0.156,0.611,0.495,1.044,1.017,1.296s1.137,0.378,1.845,0.378
						c0.864,0,1.551-0.207,2.061-0.621c0.51-0.414,0.765-1.005,0.765-1.773c0-1.464-0.894-2.195-2.682-2.195h-1.692
						c-0.12,0-0.219-0.039-0.297-0.117s-0.117-0.177-0.117-0.297v-0.468c0-0.181,0.066-0.336,0.198-0.469l3.51-3.888h-5.328
						c-0.12,0-0.219-0.036-0.297-0.108c-0.078-0.071-0.117-0.168-0.117-0.287v-0.648c0-0.132,0.039-0.237,0.117-0.315
						c0.078-0.077,0.177-0.116,0.297-0.116h7.128c0.132,0,0.237,0.039,0.315,0.116c0.078,0.078,0.117,0.184,0.117,0.315v0.594
						c0,0.133-0.061,0.271-0.18,0.414l-3.51,3.942h0.288c1.224,0.036,2.193,0.354,2.907,0.954c0.714,0.6,1.071,1.476,1.071,2.628
						c0,0.792-0.195,1.473-0.585,2.043c-0.39,0.57-0.933,1.008-1.629,1.313c-0.696,0.307-1.482,0.459-2.358,0.459
						C333.542,502.26,332.732,502.107,332.048,501.801z"/>
					<path fill="#3A54F5" d="M345.809,501.963c-0.078-0.078-0.117-0.177-0.117-0.297v-8.532c0-0.119,0.039-0.219,0.117-0.297
						s0.177-0.117,0.297-0.117h0.756c0.12,0,0.216,0.039,0.288,0.117c0.072,0.078,0.108,0.178,0.108,0.297v0.612
						c0.648-0.804,1.524-1.206,2.628-1.206c1.32,0,2.256,0.552,2.808,1.656c0.288-0.504,0.699-0.906,1.233-1.206
						c0.534-0.3,1.131-0.45,1.791-0.45c0.984,0,1.788,0.336,2.412,1.008c0.624,0.673,0.936,1.645,0.936,2.916v5.202
						c0,0.12-0.039,0.219-0.117,0.297s-0.177,0.117-0.297,0.117h-0.774c-0.12,0-0.219-0.039-0.297-0.117s-0.117-0.177-0.117-0.297
						v-5.04c0-0.96-0.198-1.646-0.594-2.061s-0.918-0.621-1.566-0.621c-0.576,0-1.071,0.213-1.485,0.639s-0.621,1.107-0.621,2.043
						v5.04c0,0.12-0.039,0.219-0.117,0.297s-0.177,0.117-0.297,0.117h-0.792c-0.12,0-0.219-0.039-0.297-0.117
						c-0.078-0.078-0.117-0.177-0.117-0.297v-5.04c0-0.947-0.207-1.632-0.621-2.052c-0.414-0.42-0.927-0.63-1.539-0.63
						c-0.576,0-1.071,0.21-1.485,0.63s-0.621,1.098-0.621,2.034v5.058c0,0.12-0.04,0.219-0.117,0.297
						c-0.078,0.078-0.177,0.117-0.297,0.117h-0.792C345.986,502.08,345.887,502.041,345.809,501.963z"/>
					<path fill="#3A54F5" d="M366.22,501.963c-0.078-0.078-0.117-0.177-0.117-0.297v-8.532c0-0.119,0.039-0.219,0.117-0.297
						s0.177-0.117,0.297-0.117h0.756c0.12,0,0.216,0.039,0.288,0.117c0.072,0.078,0.108,0.178,0.108,0.297v0.612
						c0.648-0.804,1.524-1.206,2.628-1.206c1.32,0,2.256,0.552,2.808,1.656c0.288-0.504,0.699-0.906,1.233-1.206
						c0.534-0.3,1.131-0.45,1.791-0.45c0.984,0,1.788,0.336,2.412,1.008c0.624,0.673,0.936,1.645,0.936,2.916v5.202
						c0,0.12-0.039,0.219-0.117,0.297s-0.177,0.117-0.297,0.117h-0.774c-0.12,0-0.219-0.039-0.297-0.117s-0.117-0.177-0.117-0.297
						v-5.04c0-0.96-0.198-1.646-0.594-2.061s-0.918-0.621-1.566-0.621c-0.576,0-1.071,0.213-1.485,0.639s-0.621,1.107-0.621,2.043
						v5.04c0,0.12-0.039,0.219-0.117,0.297s-0.177,0.117-0.297,0.117h-0.792c-0.12,0-0.219-0.039-0.297-0.117
						c-0.078-0.078-0.117-0.177-0.117-0.297v-5.04c0-0.947-0.207-1.632-0.621-2.052c-0.414-0.42-0.927-0.63-1.539-0.63
						c-0.576,0-1.071,0.21-1.485,0.63s-0.621,1.098-0.621,2.034v5.058c0,0.12-0.04,0.219-0.117,0.297
						c-0.078,0.078-0.177,0.117-0.297,0.117h-0.792C366.397,502.08,366.298,502.041,366.22,501.963z"/>
					<path fill="#3A54F5" d="M382.06,490.839c-0.079-0.078-0.117-0.177-0.117-0.297v-0.936c0-0.12,0.039-0.223,0.117-0.307
						c0.078-0.084,0.177-0.126,0.297-0.126h1.062c0.12,0,0.222,0.042,0.306,0.126s0.126,0.187,0.126,0.307v0.936
						c0,0.12-0.042,0.219-0.126,0.297s-0.186,0.117-0.306,0.117h-1.062C382.237,490.956,382.138,490.917,382.06,490.839z
						 M382.204,501.963c-0.078-0.078-0.117-0.177-0.117-0.297v-8.532c0-0.119,0.039-0.219,0.117-0.297s0.177-0.117,0.297-0.117
						h0.792c0.12,0,0.219,0.039,0.297,0.117c0.078,0.078,0.117,0.178,0.117,0.297v8.532c0,0.12-0.04,0.219-0.117,0.297
						c-0.078,0.078-0.177,0.117-0.297,0.117h-0.792C382.381,502.08,382.282,502.041,382.204,501.963z"/>
					<path fill="#3A54F5" d="M386.523,501.963c-0.078-0.078-0.117-0.177-0.117-0.297v-8.532c0-0.119,0.039-0.219,0.117-0.297
						s0.177-0.117,0.297-0.117h0.774c0.132,0,0.234,0.036,0.306,0.108c0.072,0.072,0.108,0.174,0.108,0.306v0.792
						c0.36-0.443,0.777-0.785,1.251-1.025c0.474-0.24,1.064-0.36,1.773-0.36c1.152,0,2.046,0.369,2.682,1.107
						c0.636,0.737,0.954,1.713,0.954,2.925v5.094c0,0.12-0.039,0.219-0.117,0.297c-0.078,0.078-0.177,0.117-0.297,0.117h-0.828
						c-0.12,0-0.219-0.039-0.297-0.117c-0.079-0.078-0.117-0.177-0.117-0.297v-4.986c0-0.863-0.21-1.535-0.63-2.016
						c-0.42-0.479-1.021-0.72-1.8-0.72c-0.768,0-1.38,0.243-1.836,0.729c-0.456,0.486-0.684,1.155-0.684,2.007v4.986
						c0,0.12-0.039,0.219-0.117,0.297c-0.078,0.078-0.177,0.117-0.297,0.117h-0.828C386.701,502.08,386.602,502.041,386.523,501.963
						z"/>
					<path fill="#3A54F5" d="M397.252,490.839c-0.079-0.078-0.117-0.177-0.117-0.297v-0.936c0-0.12,0.039-0.223,0.117-0.307
						c0.078-0.084,0.177-0.126,0.297-0.126h1.062c0.12,0,0.222,0.042,0.306,0.126s0.126,0.187,0.126,0.307v0.936
						c0,0.12-0.042,0.219-0.126,0.297s-0.186,0.117-0.306,0.117h-1.062C397.429,490.956,397.33,490.917,397.252,490.839z
						 M397.396,501.963c-0.078-0.078-0.117-0.177-0.117-0.297v-8.532c0-0.119,0.039-0.219,0.117-0.297s0.177-0.117,0.297-0.117
						h0.792c0.12,0,0.219,0.039,0.297,0.117c0.078,0.078,0.117,0.178,0.117,0.297v8.532c0,0.12-0.04,0.219-0.117,0.297
						c-0.078,0.078-0.177,0.117-0.297,0.117h-0.792C397.573,502.08,397.474,502.041,397.396,501.963z"/>
					<path fill="#3A54F5" d="M401.715,501.963c-0.078-0.078-0.117-0.177-0.117-0.297v-8.532c0-0.119,0.039-0.219,0.117-0.297
						s0.177-0.117,0.297-0.117h0.756c0.12,0,0.216,0.039,0.288,0.117c0.072,0.078,0.108,0.178,0.108,0.297v0.612
						c0.648-0.804,1.524-1.206,2.628-1.206c1.32,0,2.256,0.552,2.808,1.656c0.288-0.504,0.699-0.906,1.233-1.206
						c0.534-0.3,1.131-0.45,1.791-0.45c0.984,0,1.788,0.336,2.412,1.008c0.624,0.673,0.936,1.645,0.936,2.916v5.202
						c0,0.12-0.039,0.219-0.117,0.297s-0.177,0.117-0.297,0.117h-0.774c-0.12,0-0.219-0.039-0.297-0.117s-0.117-0.177-0.117-0.297
						v-5.04c0-0.96-0.198-1.646-0.594-2.061s-0.918-0.621-1.566-0.621c-0.576,0-1.071,0.213-1.485,0.639s-0.621,1.107-0.621,2.043
						v5.04c0,0.12-0.039,0.219-0.117,0.297s-0.177,0.117-0.297,0.117h-0.792c-0.12,0-0.219-0.039-0.297-0.117
						c-0.078-0.078-0.117-0.177-0.117-0.297v-5.04c0-0.947-0.207-1.632-0.621-2.052c-0.414-0.42-0.927-0.63-1.539-0.63
						c-0.576,0-1.071,0.21-1.485,0.63s-0.621,1.098-0.621,2.034v5.058c0,0.12-0.04,0.219-0.117,0.297
						c-0.078,0.078-0.177,0.117-0.297,0.117h-0.792C401.893,502.08,401.793,502.041,401.715,501.963z"/>
					<path fill="#3A54F5" d="M418.428,501.153c-0.624-0.738-0.936-1.72-0.936-2.943v-5.076c0-0.119,0.039-0.219,0.117-0.297
						s0.177-0.117,0.297-0.117h0.828c0.12,0,0.219,0.039,0.297,0.117s0.117,0.178,0.117,0.297v4.986
						c0,1.824,0.792,2.736,2.376,2.736c0.768,0,1.377-0.243,1.827-0.729c0.45-0.486,0.675-1.154,0.675-2.007v-4.986
						c0-0.119,0.039-0.219,0.117-0.297c0.078-0.078,0.177-0.117,0.297-0.117h0.828c0.12,0,0.219,0.039,0.297,0.117
						s0.117,0.178,0.117,0.297v8.532c0,0.12-0.039,0.219-0.117,0.297s-0.177,0.117-0.297,0.117h-0.774
						c-0.12,0-0.219-0.039-0.297-0.117s-0.117-0.177-0.117-0.297v-0.81c-0.348,0.468-0.756,0.818-1.224,1.053
						c-0.468,0.234-1.062,0.351-1.782,0.351C419.934,502.26,419.052,501.891,418.428,501.153z"/>
					<path fill="#3A54F5" d="M428.499,501.963c-0.078-0.078-0.117-0.177-0.117-0.297v-8.532c0-0.119,0.039-0.219,0.117-0.297
						s0.177-0.117,0.297-0.117h0.756c0.12,0,0.216,0.039,0.288,0.117c0.072,0.078,0.108,0.178,0.108,0.297v0.612
						c0.648-0.804,1.524-1.206,2.628-1.206c1.32,0,2.256,0.552,2.808,1.656c0.288-0.504,0.699-0.906,1.233-1.206
						c0.534-0.3,1.131-0.45,1.791-0.45c0.984,0,1.788,0.336,2.412,1.008c0.624,0.673,0.936,1.645,0.936,2.916v5.202
						c0,0.12-0.039,0.219-0.117,0.297s-0.177,0.117-0.297,0.117h-0.774c-0.12,0-0.219-0.039-0.297-0.117s-0.117-0.177-0.117-0.297
						v-5.04c0-0.96-0.198-1.646-0.594-2.061s-0.918-0.621-1.566-0.621c-0.576,0-1.071,0.213-1.485,0.639s-0.621,1.107-0.621,2.043
						v5.04c0,0.12-0.039,0.219-0.117,0.297s-0.177,0.117-0.297,0.117h-0.792c-0.12,0-0.219-0.039-0.297-0.117
						c-0.078-0.078-0.117-0.177-0.117-0.297v-5.04c0-0.947-0.207-1.632-0.621-2.052c-0.414-0.42-0.927-0.63-1.539-0.63
						c-0.576,0-1.071,0.21-1.485,0.63s-0.621,1.098-0.621,2.034v5.058c0,0.12-0.04,0.219-0.117,0.297
						c-0.078,0.078-0.177,0.117-0.297,0.117h-0.792C428.676,502.08,428.577,502.041,428.499,501.963z"/>
					<path fill="#3A54F5" d="M292.322,521.737c-0.505-0.485-0.868-1.237-1.087-2.257c-0.22-1.021-0.33-2.365-0.33-4.035
						s0.11-3.013,0.33-4.027c0.22-1.016,0.582-1.766,1.087-2.25c0.505-0.485,1.187-0.728,2.047-0.728c0.1,0,0.183,0.032,0.248,0.097
						c0.065,0.065,0.098,0.148,0.098,0.248v0.495c0,0.09-0.03,0.167-0.09,0.232s-0.13,0.098-0.21,0.098
						c-0.57,0.01-1.015,0.202-1.335,0.577c-0.32,0.375-0.55,0.98-0.69,1.815s-0.21,1.982-0.21,3.442c0,1.47,0.07,2.622,0.21,3.457
						s0.37,1.44,0.69,1.815c0.32,0.375,0.765,0.567,1.335,0.577c0.08,0,0.15,0.032,0.21,0.098c0.06,0.064,0.09,0.143,0.09,0.232
						v0.495c0,0.1-0.033,0.183-0.098,0.247c-0.065,0.065-0.147,0.098-0.248,0.098C293.509,522.465,292.827,522.223,292.322,521.737z
						"/>
					<path fill="#3A54F5" d="M296.927,519.742c-0.585-0.324-1.03-0.762-1.335-1.312c-0.305-0.55-0.458-1.149-0.458-1.8
						c0-0.859,0.345-1.779,1.035-2.76l2.865-3.99c0.01-0.01,0.038-0.045,0.083-0.104c0.045-0.061,0.103-0.107,0.173-0.143
						c0.07-0.035,0.15-0.053,0.24-0.053h0.735c0.09,0,0.162,0.032,0.217,0.098c0.055,0.065,0.083,0.143,0.083,0.232
						c0,0.05-0.025,0.115-0.075,0.195l-2.19,3.06c0.26-0.06,0.55-0.09,0.87-0.09c0.73,0,1.373,0.162,1.927,0.487
						c0.555,0.325,0.985,0.755,1.29,1.29s0.458,1.123,0.458,1.763s-0.152,1.237-0.458,1.792c-0.305,0.556-0.748,0.998-1.327,1.328
						c-0.58,0.33-1.265,0.495-2.055,0.495C298.204,520.23,297.512,520.067,296.927,519.742z M300.205,518.715
						c0.37-0.18,0.665-0.447,0.885-0.803c0.22-0.354,0.33-0.782,0.33-1.282c0-0.489-0.112-0.912-0.337-1.268
						c-0.225-0.354-0.523-0.625-0.893-0.81c-0.37-0.186-0.77-0.277-1.2-0.277c-0.43,0-0.83,0.092-1.2,0.277
						c-0.37,0.185-0.666,0.455-0.885,0.81c-0.22,0.355-0.33,0.778-0.33,1.268c0,0.5,0.11,0.928,0.33,1.282
						c0.22,0.355,0.515,0.623,0.885,0.803c0.37,0.181,0.77,0.271,1.2,0.271C299.429,518.985,299.834,518.896,300.205,518.715z"/>
					<path fill="#3A54F5" d="M304.314,512.197c-0.04-0.055-0.055-0.132-0.045-0.232l0.33-2.1c0.04-0.29,0.18-0.436,0.42-0.436h0.96
						c0.07,0,0.127,0.025,0.172,0.075c0.045,0.051,0.067,0.11,0.067,0.181c0,0.1-0.015,0.18-0.045,0.239l-0.78,2.025
						c-0.05,0.11-0.105,0.192-0.165,0.247c-0.06,0.056-0.15,0.083-0.27,0.083h-0.465
						C304.414,512.28,304.354,512.253,304.314,512.197z"/>
					<path fill="#3A54F5" d="M309.331,519.742c-0.585-0.324-1.03-0.762-1.335-1.312c-0.305-0.55-0.458-1.149-0.458-1.8
						c0-0.859,0.345-1.779,1.035-2.76l2.865-3.99c0.01-0.01,0.038-0.045,0.083-0.104c0.045-0.061,0.103-0.107,0.173-0.143
						c0.07-0.035,0.15-0.053,0.24-0.053h0.735c0.09,0,0.162,0.032,0.217,0.098c0.055,0.065,0.083,0.143,0.083,0.232
						c0,0.05-0.025,0.115-0.075,0.195l-2.19,3.06c0.26-0.06,0.55-0.09,0.87-0.09c0.73,0,1.373,0.162,1.927,0.487
						c0.555,0.325,0.985,0.755,1.29,1.29s0.458,1.123,0.458,1.763s-0.152,1.237-0.458,1.792c-0.305,0.556-0.748,0.998-1.327,1.328
						c-0.58,0.33-1.265,0.495-2.055,0.495C310.608,520.23,309.916,520.067,309.331,519.742z M312.609,518.715
						c0.37-0.18,0.665-0.447,0.885-0.803c0.22-0.354,0.33-0.782,0.33-1.282c0-0.489-0.112-0.912-0.337-1.268
						c-0.225-0.354-0.523-0.625-0.893-0.81c-0.37-0.186-0.77-0.277-1.2-0.277c-0.43,0-0.83,0.092-1.2,0.277
						c-0.37,0.185-0.666,0.455-0.885,0.81c-0.22,0.355-0.33,0.778-0.33,1.268c0,0.5,0.11,0.928,0.33,1.282
						c0.22,0.355,0.515,0.623,0.885,0.803c0.37,0.181,0.77,0.271,1.2,0.271C311.833,518.985,312.239,518.896,312.609,518.715z"/>
					<path fill="#3A54F5" d="M316.711,512.19c-0.045-0.061-0.058-0.136-0.038-0.226l0.33-2.1c0.04-0.29,0.18-0.436,0.42-0.436h0.96
						c0.07,0,0.127,0.025,0.172,0.075c0.045,0.051,0.067,0.11,0.067,0.181c0,0.1-0.015,0.18-0.045,0.239l-0.78,2.025
						c-0.05,0.11-0.105,0.192-0.165,0.247c-0.06,0.056-0.15,0.083-0.27,0.083h-0.465C316.818,512.28,316.756,512.25,316.711,512.19z
						 M319.066,512.19c-0.045-0.061-0.058-0.136-0.038-0.226l0.33-2.1c0.04-0.29,0.18-0.436,0.42-0.436h0.96
						c0.07,0,0.127,0.025,0.172,0.075c0.045,0.051,0.067,0.11,0.067,0.181c0,0.1-0.015,0.18-0.045,0.239l-0.78,2.025
						c-0.05,0.11-0.105,0.192-0.165,0.247c-0.06,0.056-0.15,0.083-0.27,0.083h-0.465C319.173,512.28,319.111,512.25,319.066,512.19z
						"/>
					<path fill="#3A54F5" d="M326.468,523.103c-0.06-0.065-0.09-0.147-0.09-0.247v-15.87c0-0.101,0.03-0.183,0.09-0.248
						c0.06-0.064,0.14-0.098,0.24-0.098h0.555c0.1,0,0.183,0.033,0.248,0.098c0.065,0.065,0.098,0.147,0.098,0.248v15.87
						c0,0.1-0.033,0.182-0.098,0.247s-0.147,0.098-0.248,0.098h-0.555C326.608,523.2,326.528,523.168,326.468,523.103z"/>
					<path fill="#3A54F5" d="M336.308,519.982c-0.06-0.064-0.09-0.147-0.09-0.247v-8.46l-2.52,1.935
						c-0.07,0.061-0.145,0.09-0.225,0.09c-0.09,0-0.175-0.05-0.255-0.149l-0.36-0.465c-0.05-0.07-0.075-0.141-0.075-0.211
						c0-0.109,0.05-0.199,0.15-0.27l3.255-2.52c0.11-0.07,0.24-0.105,0.39-0.105h0.705c0.1,0,0.182,0.032,0.248,0.098
						c0.065,0.065,0.098,0.147,0.098,0.247v9.811c0,0.1-0.033,0.183-0.098,0.247c-0.065,0.065-0.148,0.098-0.248,0.098h-0.735
						C336.448,520.08,336.368,520.048,336.308,519.982z"/>
					<path fill="#3A54F5" d="M339.9,519.982c-0.065-0.064-0.098-0.147-0.098-0.247V518.7c0-0.1,0.032-0.185,0.098-0.255
						c0.065-0.07,0.147-0.105,0.248-0.105h1.035c0.1,0,0.183,0.035,0.248,0.105s0.098,0.155,0.098,0.255v1.035
						c0,0.1-0.033,0.183-0.098,0.247c-0.065,0.065-0.147,0.098-0.248,0.098h-1.035C340.048,520.08,339.965,520.048,339.9,519.982z"
						/>
					<path fill="#3A54F5" d="M344.55,519.982c-0.055-0.064-0.083-0.143-0.083-0.232c0-0.069,0.02-0.135,0.06-0.195l2.31-3.21
						c-0.24,0.061-0.52,0.091-0.84,0.091c-0.72-0.011-1.35-0.178-1.89-0.503s-0.953-0.75-1.237-1.275
						c-0.285-0.524-0.428-1.087-0.428-1.688c0-0.6,0.143-1.17,0.428-1.71c0.285-0.54,0.71-0.979,1.275-1.319
						s1.247-0.511,2.047-0.511c0.8,0,1.485,0.165,2.055,0.495c0.57,0.33,1,0.763,1.29,1.298c0.29,0.535,0.435,1.107,0.435,1.718
						c0,0.55-0.098,1.034-0.293,1.455c-0.195,0.42-0.452,0.854-0.772,1.305l-2.91,4.08c-0.07,0.09-0.138,0.162-0.203,0.218
						c-0.065,0.055-0.158,0.082-0.277,0.082h-0.75C344.678,520.08,344.605,520.048,344.55,519.982z M347.378,514.965
						c0.36-0.189,0.645-0.457,0.855-0.803c0.21-0.345,0.315-0.742,0.315-1.192c0-0.46-0.105-0.864-0.315-1.215
						c-0.21-0.35-0.495-0.62-0.855-0.81c-0.36-0.19-0.755-0.285-1.185-0.285c-0.42,0-0.808,0.095-1.163,0.285
						c-0.355,0.189-0.637,0.46-0.847,0.81c-0.21,0.351-0.315,0.755-0.315,1.215c0,0.45,0.105,0.848,0.315,1.192
						c0.21,0.346,0.49,0.613,0.84,0.803c0.35,0.19,0.74,0.285,1.17,0.285C346.623,515.25,347.018,515.155,347.378,514.965z"/>
					<path fill="#3A54F5" d="M353.445,519.848c-0.595-0.255-1.058-0.623-1.388-1.103c-0.33-0.48-0.495-1.04-0.495-1.68
						c0-0.59,0.147-1.107,0.443-1.553c0.294-0.445,0.692-0.788,1.192-1.027c-0.4-0.23-0.71-0.533-0.93-0.908
						c-0.22-0.375-0.33-0.817-0.33-1.327c0-0.87,0.325-1.558,0.975-2.062s1.505-0.758,2.565-0.758s1.913,0.25,2.558,0.75
						c0.645,0.501,0.967,1.19,0.967,2.07c0,0.5-0.11,0.938-0.33,1.312c-0.22,0.375-0.525,0.683-0.915,0.923
						c0.5,0.239,0.897,0.582,1.192,1.027s0.442,0.968,0.442,1.567c0,0.64-0.165,1.197-0.495,1.673
						c-0.33,0.475-0.792,0.84-1.387,1.095c-0.595,0.255-1.273,0.383-2.033,0.383S354.04,520.103,353.445,519.848z M357.255,518.521
						c0.475-0.36,0.712-0.841,0.712-1.44s-0.238-1.08-0.712-1.44c-0.475-0.359-1.068-0.54-1.778-0.54
						c-0.72,0-1.317,0.181-1.792,0.54c-0.475,0.36-0.712,0.841-0.712,1.44s0.237,1.08,0.712,1.44c0.475,0.359,1.073,0.54,1.792,0.54
						C356.188,519.061,356.78,518.88,357.255,518.521z M357.022,513.48c0.42-0.301,0.63-0.7,0.63-1.2
						c0-0.51-0.208-0.918-0.623-1.223c-0.415-0.305-0.933-0.458-1.553-0.458c-0.63,0-1.15,0.153-1.56,0.458
						s-0.615,0.713-0.615,1.223s0.205,0.917,0.615,1.223c0.41,0.305,0.93,0.457,1.56,0.457
						C356.087,513.94,356.603,513.78,357.022,513.48z"/>
					<path fill="#3A54F5" d="M365.145,519.982c-0.065-0.064-0.098-0.147-0.098-0.247v-7.11c0-0.1,0.032-0.183,0.098-0.247
						c0.065-0.065,0.147-0.098,0.248-0.098h0.63c0.1,0,0.18,0.032,0.24,0.098c0.06,0.064,0.09,0.147,0.09,0.247v0.51
						c0.54-0.67,1.27-1.005,2.19-1.005c1.1,0,1.88,0.46,2.34,1.38c0.24-0.42,0.583-0.755,1.027-1.005s0.942-0.375,1.493-0.375
						c0.82,0,1.49,0.28,2.01,0.84c0.52,0.561,0.78,1.37,0.78,2.431v4.335c0,0.1-0.033,0.183-0.098,0.247
						c-0.065,0.065-0.147,0.098-0.248,0.098h-0.645c-0.1,0-0.182-0.032-0.247-0.098c-0.065-0.064-0.098-0.147-0.098-0.247v-4.2
						c0-0.8-0.165-1.373-0.495-1.718s-0.765-0.518-1.305-0.518c-0.48,0-0.892,0.178-1.237,0.533
						c-0.345,0.354-0.518,0.922-0.518,1.702v4.2c0,0.1-0.032,0.183-0.097,0.247c-0.065,0.065-0.148,0.098-0.248,0.098h-0.66
						c-0.1,0-0.183-0.032-0.248-0.098c-0.065-0.064-0.098-0.147-0.098-0.247v-4.2c0-0.79-0.172-1.36-0.517-1.71
						c-0.345-0.35-0.772-0.525-1.283-0.525c-0.48,0-0.893,0.176-1.237,0.525c-0.345,0.35-0.518,0.915-0.518,1.695v4.215
						c0,0.1-0.033,0.183-0.098,0.247c-0.065,0.065-0.147,0.098-0.248,0.098h-0.66C365.292,520.08,365.21,520.048,365.145,519.982z"
						/>
					<path fill="#3A54F5" d="M382.979,519.893c-0.475-0.225-0.828-0.482-1.057-0.772c-0.23-0.29-0.345-0.53-0.345-0.72
						c0-0.101,0.035-0.178,0.105-0.232c0.07-0.056,0.145-0.083,0.225-0.083h0.63c0.06,0,0.107,0.01,0.143,0.03
						c0.035,0.02,0.083,0.065,0.143,0.135c0.23,0.28,0.487,0.5,0.772,0.66c0.285,0.16,0.667,0.24,1.147,0.24
						c0.54,0,0.972-0.101,1.297-0.301c0.325-0.199,0.488-0.489,0.488-0.869c0-0.25-0.07-0.45-0.21-0.601
						c-0.14-0.149-0.373-0.285-0.697-0.405c-0.325-0.119-0.808-0.249-1.447-0.39c-0.87-0.189-1.485-0.465-1.845-0.825
						c-0.36-0.359-0.54-0.824-0.54-1.395c0-0.37,0.11-0.728,0.33-1.072c0.22-0.346,0.547-0.625,0.982-0.841
						c0.435-0.215,0.953-0.322,1.553-0.322c0.63,0,1.167,0.105,1.612,0.315c0.445,0.21,0.78,0.455,1.005,0.734
						c0.225,0.28,0.337,0.516,0.337,0.705c0,0.09-0.032,0.165-0.097,0.226c-0.065,0.06-0.143,0.09-0.232,0.09h-0.57
						c-0.14,0-0.24-0.055-0.3-0.165c-0.17-0.189-0.313-0.338-0.428-0.442c-0.115-0.105-0.283-0.195-0.502-0.271
						c-0.22-0.074-0.495-0.112-0.825-0.112c-0.49,0-0.865,0.103-1.125,0.308c-0.26,0.205-0.39,0.478-0.39,0.817
						c0,0.21,0.055,0.388,0.165,0.532c0.11,0.146,0.32,0.28,0.63,0.405s0.77,0.253,1.38,0.383c0.95,0.2,1.623,0.485,2.018,0.854
						c0.395,0.37,0.593,0.846,0.593,1.426c0,0.43-0.123,0.819-0.368,1.17c-0.245,0.35-0.61,0.625-1.095,0.824
						c-0.485,0.2-1.062,0.301-1.732,0.301C384.037,520.23,383.454,520.117,382.979,519.893z"/>
					<path fill="#3A54F5" d="M389.789,519.982c-0.065-0.064-0.097-0.147-0.097-0.247v-9.96c0-0.11,0.032-0.195,0.097-0.255
						c0.065-0.061,0.147-0.091,0.248-0.091h0.69c0.11,0,0.195,0.03,0.255,0.091c0.06,0.06,0.09,0.145,0.09,0.255v3.495
						c0.29-0.37,0.632-0.653,1.027-0.848c0.395-0.195,0.882-0.293,1.462-0.293c0.96,0,1.708,0.308,2.243,0.923
						c0.535,0.615,0.803,1.428,0.803,2.438v4.245c0,0.1-0.033,0.183-0.098,0.247c-0.065,0.065-0.147,0.098-0.248,0.098h-0.705
						c-0.1,0-0.183-0.032-0.248-0.098c-0.065-0.064-0.097-0.147-0.097-0.247v-4.155c0-0.72-0.175-1.28-0.525-1.68
						c-0.35-0.4-0.855-0.601-1.515-0.601c-0.64,0-1.15,0.203-1.53,0.607c-0.38,0.405-0.57,0.963-0.57,1.673v4.155
						c0,0.1-0.033,0.183-0.098,0.247c-0.065,0.065-0.147,0.098-0.248,0.098h-0.69C389.937,520.08,389.854,520.048,389.789,519.982z"
						/>
					<path fill="#3A54F5" d="M399.404,519.3c-0.595-0.62-0.913-1.444-0.953-2.475l-0.015-0.646l0.015-0.645
						c0.04-1.03,0.362-1.854,0.968-2.475c0.604-0.62,1.447-0.931,2.527-0.931s1.922,0.311,2.527,0.931s0.928,1.444,0.968,2.475
						c0.02,0.22,0.03,0.435,0.03,0.645s-0.01,0.426-0.03,0.646c-0.04,1.03-0.358,1.854-0.953,2.475
						c-0.595,0.62-1.442,0.931-2.542,0.931S399.999,519.92,399.404,519.3z M403.469,518.498c0.375-0.405,0.578-0.988,0.607-1.748
						c0.01-0.1,0.015-0.29,0.015-0.57c0-0.279-0.005-0.47-0.015-0.569c-0.03-0.76-0.232-1.343-0.607-1.748
						c-0.375-0.404-0.883-0.607-1.522-0.607c-0.64,0-1.147,0.203-1.522,0.607c-0.375,0.405-0.578,0.988-0.607,1.748l-0.015,0.569
						l0.015,0.57c0.03,0.76,0.232,1.343,0.607,1.748c0.375,0.404,0.882,0.607,1.522,0.607
						C402.586,519.105,403.094,518.902,403.469,518.498z"/>
					<path fill="#3A54F5" d="M408.907,519.99c-0.07-0.061-0.125-0.155-0.165-0.285l-2.13-6.96l-0.03-0.15
						c0-0.09,0.03-0.165,0.09-0.225s0.135-0.09,0.225-0.09h0.615c0.1,0,0.183,0.027,0.248,0.082
						c0.065,0.056,0.103,0.107,0.113,0.158l1.695,5.729l1.8-5.655c0.02-0.079,0.065-0.152,0.135-0.217
						c0.07-0.065,0.165-0.098,0.285-0.098h0.48c0.12,0,0.215,0.032,0.285,0.098c0.07,0.064,0.115,0.138,0.135,0.217l1.8,5.655
						l1.695-5.729c0.01-0.051,0.047-0.103,0.113-0.158c0.065-0.055,0.147-0.082,0.248-0.082h0.615c0.09,0,0.165,0.03,0.225,0.09
						s0.09,0.135,0.09,0.225l-0.03,0.15l-2.13,6.96c-0.04,0.13-0.095,0.225-0.165,0.285c-0.07,0.06-0.175,0.09-0.315,0.09h-0.54
						c-0.26,0-0.43-0.125-0.51-0.375l-1.755-5.43l-1.755,5.43c-0.08,0.25-0.25,0.375-0.51,0.375h-0.54
						C409.082,520.08,408.977,520.05,408.907,519.99z"/>
					<path fill="#3A54F5" d="M419.249,519.982c-0.065-0.064-0.098-0.147-0.098-0.247v-7.11c0-0.1,0.032-0.183,0.098-0.247
						c0.065-0.065,0.147-0.098,0.248-0.098h0.645c0.11,0,0.195,0.03,0.255,0.09s0.09,0.146,0.09,0.255v0.66
						c0.3-0.37,0.647-0.655,1.042-0.855c0.395-0.199,0.887-0.3,1.478-0.3c0.96,0,1.705,0.308,2.235,0.923
						c0.53,0.615,0.795,1.428,0.795,2.438v4.245c0,0.1-0.032,0.183-0.097,0.247c-0.065,0.065-0.148,0.098-0.248,0.098h-0.69
						c-0.1,0-0.183-0.032-0.248-0.098c-0.065-0.064-0.098-0.147-0.098-0.247v-4.155c0-0.72-0.175-1.28-0.525-1.68
						c-0.35-0.4-0.85-0.601-1.5-0.601c-0.64,0-1.15,0.203-1.53,0.607c-0.38,0.405-0.57,0.963-0.57,1.673v4.155
						c0,0.1-0.032,0.183-0.097,0.247c-0.065,0.065-0.148,0.098-0.248,0.098h-0.69C419.396,520.08,419.314,520.048,419.249,519.982z"
						/>
					<path fill="#3A54F5" d="M427.004,522.367c-0.065-0.064-0.098-0.147-0.098-0.247v-0.495c0-0.09,0.03-0.168,0.09-0.232
						c0.06-0.065,0.13-0.098,0.21-0.098c0.56-0.01,1.002-0.202,1.328-0.577c0.325-0.375,0.558-0.982,0.698-1.822
						c0.14-0.841,0.21-1.99,0.21-3.45s-0.07-2.607-0.21-3.442c-0.14-0.835-0.373-1.44-0.698-1.815
						c-0.325-0.375-0.768-0.567-1.328-0.577c-0.08,0-0.15-0.032-0.21-0.098s-0.09-0.143-0.09-0.232v-0.495
						c0-0.1,0.032-0.183,0.098-0.248c0.065-0.064,0.143-0.097,0.232-0.097c0.86,0,1.542,0.242,2.047,0.728
						c0.505,0.484,0.868,1.234,1.087,2.25c0.22,1.015,0.33,2.357,0.33,4.027s-0.11,3.015-0.33,4.035
						c-0.22,1.02-0.583,1.771-1.087,2.257s-1.188,0.728-2.047,0.728C427.147,522.465,427.069,522.433,427.004,522.367z"/>
				</g>
			</g>
		</g>
	</g>
	<g id="MTEXT_2_" display="inline">
		<g>
			<g>
				<path fill="#3A54F5" d="M123.663,64.771v-2.376h4.572v12.708h-2.664V64.771H123.663z"/>
				<path fill="#3A54F5" d="M130.233,68.641c0-4.296,1.62-6.444,4.86-6.444c1.716,0,2.952,0.576,3.708,1.728
					c0.756,1.152,1.134,2.725,1.134,4.716c0,2.004-0.378,3.582-1.134,4.734s-1.992,1.728-3.708,1.728
					C131.853,75.103,130.233,72.949,130.233,68.641z M137.433,68.641c0-1.296-0.159-2.295-0.477-2.997s-0.939-1.053-1.863-1.053
					c-0.936,0-1.563,0.351-1.881,1.053c-0.318,0.702-0.477,1.701-0.477,2.997c0,1.308,0.159,2.313,0.477,3.015
					c0.317,0.702,0.945,1.053,1.881,1.053c0.924,0,1.545-0.351,1.863-1.053C137.274,70.954,137.433,69.949,137.433,68.641z"/>
				<path fill="#3A54F5" d="M149.511,64.177l-4.644,10.926h-2.628l4.698-10.638h-5.886v-2.178h8.46V64.177z"/>
				<path fill="#3A54F5" d="M158.349,63.727c-0.3,0.264-0.45,0.726-0.45,1.386v0.018h2.016v2.142h-2.016v7.83h-2.538v-7.83h-1.278
					v-2.142h1.278v-0.234c0-1.188,0.339-2.103,1.017-2.745c0.678-0.642,1.683-0.963,3.015-0.963c0.228,0,0.402,0.006,0.522,0.018
					v2.196C159.17,63.355,158.648,63.463,158.349,63.727z"/>
				<path fill="#3A54F5" d="M166.754,72.925v2.178h-1.332c-1.116,0-1.971-0.27-2.565-0.81c-0.594-0.54-0.891-1.44-0.891-2.7v-4.32
					h-1.386v-2.142h1.386v-2.466h2.538v2.466h2.232v2.142h-2.232v4.356c0,0.48,0.096,0.816,0.288,1.008
					c0.192,0.192,0.516,0.288,0.972,0.288H166.754z"/>
				<path fill="#3A54F5" d="M171.366,63.852c0-0.329-0.079-0.588-0.236-0.777c-0.157-0.189-0.404-0.283-0.74-0.283
					c-0.692,0-1.06,0.472-1.102,1.417h-1.438c0.042-0.874,0.308-1.537,0.798-1.988c0.489-0.451,1.108-0.677,1.857-0.677
					c0.762,0,1.348,0.198,1.757,0.593c0.41,0.395,0.614,0.922,0.614,1.579c0,0.518-0.152,1.038-0.457,1.559s-0.691,1-1.16,1.438
					c-0.469,0.438-0.962,0.813-1.479,1.128h3.243v1.207h-5.216v-1.102C170.18,66.3,171.366,64.936,171.366,63.852z"/>
				<path fill="#3A54F5" d="M180.649,77.281h-2.538V60.559h2.538V77.281z"/>
				<path fill="#3A54F5" d="M185.617,64.771v-2.376h4.572v12.708h-2.664V64.771H185.617z"/>
				<path fill="#3A54F5" d="M192.187,68.641c0-4.296,1.62-6.444,4.86-6.444c1.716,0,2.952,0.576,3.708,1.728
					c0.756,1.152,1.134,2.725,1.134,4.716c0,2.004-0.378,3.582-1.134,4.734s-1.992,1.728-3.708,1.728
					C193.807,75.103,192.187,72.949,192.187,68.641z M199.387,68.641c0-1.296-0.159-2.295-0.477-2.997s-0.939-1.053-1.863-1.053
					c-0.936,0-1.563,0.351-1.881,1.053c-0.318,0.702-0.477,1.701-0.477,2.997c0,1.308,0.159,2.313,0.477,3.015
					c0.317,0.702,0.945,1.053,1.881,1.053c0.924,0,1.545-0.351,1.863-1.053C199.228,70.954,199.387,69.949,199.387,68.641z"/>
				<path fill="#3A54F5" d="M223.353,66.112c0.702,0.75,1.053,1.815,1.053,3.195v5.796h-2.52v-5.508
					c0-0.768-0.195-1.359-0.585-1.773c-0.39-0.414-0.927-0.621-1.611-0.621c-0.708,0-1.272,0.222-1.692,0.666
					s-0.63,1.092-0.63,1.944v5.292h-2.52v-5.508c0-0.768-0.195-1.359-0.585-1.773c-0.39-0.414-0.927-0.621-1.611-0.621
					c-0.708,0-1.272,0.222-1.692,0.666s-0.63,1.092-0.63,1.944v5.292h-2.538v-9.972h2.538v1.89c0.264-0.648,0.681-1.149,1.251-1.503
					s1.233-0.531,1.989-0.531c0.804,0,1.503,0.192,2.097,0.576c0.594,0.384,1.041,0.936,1.341,1.656
					c0.312-0.684,0.777-1.227,1.395-1.629c0.618-0.402,1.311-0.603,2.079-0.603C221.694,64.987,222.651,65.362,223.353,66.112z"/>
				<path fill="#3A54F5" d="M229.432,63.852c0-0.329-0.079-0.588-0.236-0.777c-0.157-0.189-0.404-0.283-0.74-0.283
					c-0.692,0-1.06,0.472-1.102,1.417h-1.438c0.042-0.874,0.308-1.537,0.798-1.988c0.489-0.451,1.108-0.677,1.857-0.677
					c0.762,0,1.348,0.198,1.757,0.593c0.41,0.395,0.614,0.922,0.614,1.579c0,0.518-0.152,1.038-0.457,1.559s-0.691,1-1.16,1.438
					c-0.469,0.438-0.962,0.813-1.479,1.128h3.243v1.207h-5.216v-1.102C228.246,66.3,229.432,64.936,229.432,63.852z"/>
			</g>
		</g>
	</g>
</g>
<g id="N-TEXT" display="none">
</g>
<g id="AG-DIAGRAM">
	<g id="POLYLINE_499_">
		<g>
			<g>
				
					<line fill="none" stroke="#3A54F5" stroke-width="3" stroke-linecap="round" stroke-linejoin="round" x1="215.75" y1="547.75" x2="218.25" y2="547.75"/>
				
					<line fill="none" stroke="#3A54F5" stroke-width="3" stroke-linecap="round" stroke-linejoin="round" stroke-dasharray="5.0795,7.1113" x1="225.361" y1="547.75" x2="502.194" y2="547.75"/>
				
					<line fill="none" stroke="#3A54F5" stroke-width="3" stroke-linecap="round" stroke-linejoin="round" x1="505.75" y1="547.75" x2="508.25" y2="547.75"/>
			</g>
		</g>
	</g>
</g>
<g id="AG-DASH">
	<g id="POLYLINE_494_">
		<g>
			<g>
				
					<line fill="none" stroke="#3A54F5" stroke-width="2.25" stroke-linecap="round" stroke-linejoin="round" x1="502.625" y1="180.25" x2="502.625" y2="178.25"/>
				
					<line fill="none" stroke="#3A54F5" stroke-width="2.25" stroke-linecap="round" stroke-linejoin="round" stroke-dasharray="4.0329,6.0493" x1="502.625" y1="172.201" x2="502.625" y2="104.65"/>
				<polyline fill="none" stroke="#3A54F5" stroke-width="2.25" stroke-linecap="round" stroke-linejoin="round" points="
					502.625,101.625 502.625,99.625 500.625,99.625 				"/>
				
					<line fill="none" stroke="#3A54F5" stroke-width="2.25" stroke-linecap="round" stroke-linejoin="round" stroke-dasharray="4,6" x1="494.625" y1="99.625" x2="417.625" y2="99.625"/>
				<polyline fill="none" stroke="#3A54F5" stroke-width="2.25" stroke-linecap="round" stroke-linejoin="round" points="
					414.625,99.625 412.625,99.625 412.625,101.625 				"/>
				
					<line fill="none" stroke="#3A54F5" stroke-width="2.25" stroke-linecap="round" stroke-linejoin="round" stroke-dasharray="4.0329,6.0493" x1="412.625" y1="107.674" x2="412.625" y2="175.225"/>
				
					<line fill="none" stroke="#3A54F5" stroke-width="2.25" stroke-linecap="round" stroke-linejoin="round" x1="412.625" y1="178.25" x2="412.625" y2="180.25"/>
			</g>
		</g>
	</g>
</g>
<g id="AG-FURNITURE">
</g>
<g id="AG-LAYOUT">
	<g id="POLYLINE_391_">
		
			<polygon fill="none" stroke="#3A54F5" stroke-width="2.75" stroke-linecap="round" stroke-linejoin="round" stroke-miterlimit="10" points="
			598.25,90.25 125.75,90.25 125.75,255.719 215.75,255.719 215.75,180.25 508.25,180.25 508.25,324.625 598.25,324.625 		"/>
	</g>
	<g id="POLYLINE_263_">
		
			<rect x="506.375" y="324.625" fill="none" stroke="#3A54F5" stroke-width="2.75" stroke-linecap="round" stroke-linejoin="round" stroke-miterlimit="10" width="84.375" height="133.125"/>
	</g>
	<g id="POLYLINE_239_">
		
			<rect x="500.75" y="391.188" fill="none" stroke="#3A54F5" stroke-width="2.75" stroke-linecap="round" stroke-linejoin="round" stroke-miterlimit="10" width="5.625" height="66.562"/>
	</g>
	<g id="POLYLINE_104_">
		
			<rect x="500.75" y="324.625" fill="none" stroke="#3A54F5" stroke-width="2.75" stroke-linecap="round" stroke-linejoin="round" stroke-miterlimit="10" width="5.625" height="66.562"/>
	</g>
	<g id="POLYLINE_103_">
		
			<path fill="none" stroke="#3A54F5" stroke-width="2.75" stroke-linecap="round" stroke-linejoin="round" stroke-miterlimit="10" d="
			M192.312,324.625c3.466,0.007,6.882,1.085,9.718,3.08c2.829,1.99,5.004,4.852,6.169,8.108c1.166,3.256,1.301,6.848,0.378,10.182
			c-0.924,3.336-2.88,6.349-5.556,8.547c-2.665,2.189-5.988,3.522-9.427,3.784c-3.462,0.264-6.973-0.565-9.952-2.349
			c-2.967-1.777-5.351-4.467-6.753-7.629c-1.398-3.153-1.801-6.709-1.137-10.094c0.667-3.397,2.39-6.55,4.891-8.944
			c2.492-2.386,5.703-3.965,9.112-4.49C190.601,324.69,191.457,324.627,192.312,324.625z"/>
	</g>
	<g id="POLYLINE_102_">
		
			<path fill="none" stroke="#3A54F5" stroke-width="2.75" stroke-linecap="round" stroke-linejoin="round" stroke-miterlimit="10" d="
			M192.312,298.844c3.466-0.007,6.882-1.085,9.718-3.08c2.829-1.99,5.004-4.852,6.169-8.108c1.166-3.256,1.301-6.848,0.378-10.182
			c-0.924-3.336-2.88-6.349-5.556-8.547c-2.665-2.189-5.988-3.522-9.427-3.784c-3.462-0.264-6.973,0.565-9.952,2.349
			c-2.967,1.777-5.351,4.467-6.753,7.629c-1.398,3.153-1.801,6.709-1.137,10.094c0.667,3.397,2.39,6.55,4.891,8.944
			c2.492,2.386,5.703,3.965,9.112,4.49C190.601,298.779,191.457,298.842,192.312,298.844z"/>
	</g>
	<g id="POLYLINE_101_">
		
			<rect x="125.75" y="255.719" fill="none" stroke="#3A54F5" stroke-width="2.75" stroke-linecap="round" stroke-linejoin="round" stroke-miterlimit="10" width="90" height="112.031"/>
	</g>
	<g id="POLYLINE_100_">
		
			<rect x="590.75" y="331.188" fill="none" stroke="#3A54F5" stroke-width="2.75" stroke-linecap="round" stroke-linejoin="round" stroke-miterlimit="10" width="7.5" height="120"/>
	</g>
	<g id="POLYLINE_99_">
		
			<rect x="508.25" y="457.75" fill="none" stroke="#3A54F5" stroke-width="2.75" stroke-linecap="round" stroke-linejoin="round" stroke-miterlimit="10" width="90" height="90"/>
	</g>
	<g id="POLYLINE_98_">
		
			<path fill="none" stroke="#3A54F5" stroke-width="2.75" stroke-linecap="round" stroke-linejoin="round" stroke-miterlimit="10" d="
			M155.295,287.631c4.7-0.006,9.006-3.031,10.591-7.459c1.584-4.424,0.18-9.504-3.452-12.486c-3.632-2.982-8.887-3.371-12.919-0.957
			c-4.031,2.414-6.17,7.231-5.256,11.84c0.911,4.592,4.701,8.22,9.328,8.931C154.153,287.587,154.723,287.63,155.295,287.631z"/>
	</g>
	<g id="POLYLINE_97_">
		
			<path fill="none" stroke="#3A54F5" stroke-width="2.75" stroke-linecap="round" stroke-linejoin="round" stroke-miterlimit="10" d="
			M155.295,335.838c4.7,0.006,9.006,3.031,10.591,7.459c1.584,4.424,0.18,9.504-3.452,12.486c-3.632,2.982-8.887,3.371-12.919,0.957
			c-4.031-2.414-6.17-7.231-5.256-11.84c0.911-4.592,4.701-8.22,9.328-8.931C154.153,335.882,154.723,335.839,155.295,335.838z"/>
	</g>
	<g id="POLYLINE_96_">
		
			<path fill="none" stroke="#3A54F5" stroke-width="2.75" stroke-linecap="round" stroke-linejoin="round" stroke-miterlimit="10" d="
			M155.295,326.734c6.269-0.02,12.005-4.032,14.122-9.945c2.111-5.899,0.239-12.672-4.603-16.648
			c-4.842-3.976-11.85-4.495-17.225-1.276c-5.375,3.219-8.226,9.641-7.007,15.787c1.214,6.122,6.268,10.961,12.438,11.908
			C153.772,326.676,154.533,326.732,155.295,326.734z"/>
	</g>
	<g id="POLYLINE_95_">
		
			<rect x="125.75" y="255.719" fill="none" stroke="#3A54F5" stroke-width="2.75" stroke-linecap="round" stroke-linejoin="round" stroke-miterlimit="10" width="7.5" height="112.031"/>
	</g>
	<g id="POLYLINE_94_">
		
			<path fill="none" stroke="#3A54F5" stroke-width="2.75" stroke-linecap="round" stroke-linejoin="round" stroke-miterlimit="10" d="
			M335.75,97.687c2.699,0.023,3.945,3.518,1.814,5.21c-2.043,1.623-5.115-0.184-4.697-2.757
			C333.095,98.735,334.335,97.699,335.75,97.687z"/>
	</g>
	<g id="POLYLINE_93_">
		
			<path fill="none" stroke="#3A54F5" stroke-width="2.75" stroke-linecap="round" stroke-linejoin="round" stroke-miterlimit="10" d="
			M278.562,173.688c-1.951-0.003-3.801-1.041-4.814-2.715c-0.869-1.438-0.811-2.975-0.811-4.588c0-5.049,0-10.099,0-15.148
			c0-6.591,0-13.181,0-19.772c0-3.418-0.071-6.845,0-10.262c0.04-1.911,0.943-3.684,2.571-4.738
			c1.368-0.886,2.832-0.901,4.397-0.901c4.759,0,9.518,0,14.277,0c6.668,0,13.335,0,20.003,0c4.317,0,8.635,0,12.952,0
			c1.554,0,2.991,0.267,4.226,1.288c1.401,1.158,2.033,2.806,2.042,4.585c0.022,4.007,0,8.016,0,12.023c0,6.622,0,13.244,0,19.866
			c0,4.622,0,9.244,0,13.866c0,1.542-0.164,2.966-1.123,4.245c-1.118,1.491-2.813,2.231-4.642,2.252c-3.693,0.044-7.39,0-11.083,0
			c-6.569,0-13.138,0-19.708,0c-5.278,0-10.556,0-15.834,0C280.198,173.688,279.38,173.688,278.562,173.688z"/>
	</g>
	<g id="POLYLINE_92_">
		
			<path fill="none" stroke="#3A54F5" stroke-width="2.75" stroke-linecap="round" stroke-linejoin="round" stroke-miterlimit="10" d="
			M374.891,142.75c-0.002-2.742-1.769-5.254-4.351-6.178c-2.581-0.924-5.544-0.105-7.283,2.014c-1.74,2.119-1.966,5.184-0.558,7.536
			c1.408,2.352,4.218,3.599,6.907,3.066c2.678-0.531,4.796-2.742,5.21-5.442C374.865,143.416,374.89,143.083,374.891,142.75z"/>
	</g>
	<g id="POLYLINE_91_">
		
			<path fill="none" stroke="#3A54F5" stroke-width="2.75" stroke-linecap="round" stroke-linejoin="round" stroke-miterlimit="10" d="
			M309.734,142.75c-0.002-2.742-1.769-5.254-4.351-6.178c-2.581-0.924-5.544-0.105-7.283,2.014c-1.74,2.119-1.966,5.184-0.558,7.536
			c1.408,2.352,4.218,3.599,6.907,3.066c2.678-0.531,4.796-2.742,5.21-5.442C309.709,143.416,309.734,143.083,309.734,142.75z"/>
	</g>
	<g id="POLYLINE_90_">
		
			<path fill="none" stroke="#3A54F5" stroke-width="2.75" stroke-linecap="round" stroke-linejoin="round" stroke-miterlimit="10" d="
			M392.938,173.688c1.951-0.003,3.801-1.041,4.814-2.715c0.869-1.438,0.811-2.975,0.811-4.588c0-5.049,0-10.099,0-15.148
			c0-6.591,0-13.181,0-19.772c0-3.418,0.071-6.845,0-10.262c-0.04-1.911-0.943-3.684-2.571-4.738
			c-1.368-0.886-2.832-0.901-4.397-0.901c-4.759,0-9.518,0-14.277,0c-6.668,0-13.335,0-20.003,0c-4.317,0-8.635,0-12.952,0
			c-1.554,0-2.991,0.267-4.226,1.288c-1.401,1.158-2.033,2.806-2.042,4.585c-0.022,4.007,0,8.016,0,12.023
			c0,6.622,0,13.244,0,19.866c0,4.622,0,9.244,0,13.866c0,1.542,0.164,2.966,1.123,4.245c1.118,1.491,2.813,2.231,4.642,2.252
			c3.693,0.044,7.39,0,11.083,0c6.569,0,13.138,0,19.708,0c5.278,0,10.556,0,15.834,0
			C391.302,173.688,392.12,173.688,392.938,173.688z"/>
	</g>
	<g id="POLYLINE_89_">
		
			<path fill="none" stroke="#3A54F5" stroke-width="2.75" stroke-linecap="round" stroke-linejoin="round" stroke-miterlimit="10" d="
			M266.375,174.625c0.004,3.108,2.571,5.56,5.632,5.625c3.698,0.079,7.407,0,11.105,0c8.822,0,17.645,0,26.467,0
			c11.084,0,22.168,0,33.252,0c10.46,0,20.92,0,31.38,0c7.033,0,14.066,0,21.099,0c2.322,0,5.161,0.433,7.224-0.888
			c3.081-1.973,2.591-5.472,2.591-8.624c0-9.667,0-19.335,0-29.002c0-8.571,0-17.142,0-25.713c0-1.19,0.05-2.353-0.401-3.483
			c-0.607-1.521-1.883-2.727-3.435-3.248c-0.881-0.295-1.768-0.292-2.681-0.292c-1.905,0-3.81,0-5.716,0c-7.823,0-15.646,0-23.469,0
			c-10.791,0-21.582,0-32.374,0c-10.901,0-21.801,0-32.702,0c-8.151,0-16.302,0-24.453,0c-2.143,0-4.286,0-6.43,0
			c-0.876,0-1.783-0.06-2.645,0.125c-3.014,0.648-4.444,3.299-4.444,6.168c0,7.986,0,15.972,0,23.958c0,10.041,0,20.082,0,30.123
			C266.375,171.124,266.375,172.875,266.375,174.625z"/>
	</g>
	<g id="POLYLINE_88_">
		
			<rect x="125.75" y="367.75" fill="none" stroke="#3A54F5" stroke-width="2.75" stroke-linecap="round" stroke-linejoin="round" stroke-miterlimit="10" width="90" height="180"/>
	</g>
</g>
<g id="AG-OUTLINE">
	<g id="POLYLINE_87_">
		
			<polygon fill="none" stroke="#3A54F5" stroke-width="3.5" stroke-linecap="round" stroke-linejoin="round" stroke-miterlimit="10" points="
			598.25,324.625 598.25,90.25 125.75,90.25 125.75,255.719 125.75,547.75 215.75,547.75 215.75,367.75 215.75,180.25 
			508.25,180.25 508.25,324.625 506.375,324.625 500.75,324.625 500.75,391.188 500.75,457.75 506.375,457.75 508.25,457.75 
			508.25,547.75 598.25,547.75 598.25,457.75 		"/>
	</g>
</g>
</svg>
