<svg xmlns="http://www.w3.org/2000/svg" width="464" height="406" viewBox="0 0 464 406" font-family="Helvetica,Arial,sans-serif">
<rect x="0" y="0" width="464" height="406" fill="#faf8f4"/>
<path d="M 65.0,65.0 L 213.0,65.0 L 213.0,186.0 L 65.0,186.0 Z" fill="#dbe9f6" stroke="none"/>
<path d="M 219.0,65.0 L 290.3,65.0 L 399.0,150.4 L 399.0,186.0 L 219.0,186.0 Z" fill="#fdf1d8" stroke="none"/>
<path d="M 65.0,192.0 L 135.0,192.0 L 135.0,267.0 L 65.0,267.0 Z" fill="#e6e6e6" stroke="none"/>
<path d="M 141.0,192.0 L 213.0,192.0 L 213.0,267.0 L 141.0,267.0 Z" fill="#e6e6e6" stroke="none"/>
<path d="M 219.0,192.0 L 339.0,192.0 L 339.0,267.0 L 219.0,267.0 Z" fill="#e6e6e6" stroke="none"/>
<path d="M 345.0,192.0 L 399.0,192.0 L 399.0,267.0 L 345.0,267.0 Z" fill="#e6e6e6" stroke="none"/>
<path d="M 65.0,277.0 L 399.0,277.0 L 399.0,341.0 L 65.0,341.0 Z" fill="#fdf1d8" stroke="none"/>
<path d="M 60.0,65.0 L 292.0,65.0 L 292.0,55.0 L 60.0,55.0 Z" fill="#3a3a3a" stroke="none"/>
<path d="M 288.9,63.9 L 400.9,151.9 L 407.1,144.1 L 295.1,56.1 Z" fill="#3a3a3a" stroke="none"/>
<path d="M 399.0,148.0 L 399.0,346.0 L 409.0,346.0 L 409.0,148.0 Z" fill="#3a3a3a" stroke="none"/>
<path d="M 404.0,341.0 L 60.0,341.0 L 60.0,351.0 L 404.0,351.0 Z" fill="#3a3a3a" stroke="none"/>
<path d="M 65.0,346.0 L 65.0,60.0 L 55.0,60.0 L 55.0,346.0 Z" fill="#3a3a3a" stroke="none"/>
<path d="M 213.0,60.0 L 213.0,272.0 L 219.0,272.0 L 219.0,60.0 Z" fill="#8a8a8a" stroke="none"/>
<path d="M 60.0,192.0 L 404.0,192.0 L 404.0,186.0 L 60.0,186.0 Z" fill="#8a8a8a" stroke="none"/>
<path d="M 135.0,189.0 L 135.0,272.0 L 141.0,272.0 L 141.0,189.0 Z" fill="#8a8a8a" stroke="none"/>
<path d="M 339.0,189.0 L 339.0,272.0 L 345.0,272.0 L 345.0,189.0 Z" fill="#8a8a8a" stroke="none"/>
<path d="M 60.0,277.0 L 404.0,277.0 L 404.0,267.0 L 60.0,267.0 Z" fill="#3a3a3a" stroke="none"/>
<line x1="236.6" y1="65.0" x2="272.6" y2="65.0" stroke="#fff" stroke-width="4"/>
<line x1="219.0" y1="141.5" x2="219.0" y2="109.5" stroke="#fff" stroke-width="4"/>
<path d="M 219.0,109.5 A 32.0 32.0 0 0 0 187.0,141.5" fill="none" stroke="#999" stroke-width="1" stroke-dasharray="2,2"/>
<line x1="219.0" y1="141.5" x2="187.0" y2="141.5" stroke="#999" stroke-width="1.5"/>
<line x1="303.0" y1="186.0" x2="255.0" y2="186.0" stroke="#fff" stroke-width="4"/>
<path d="M 255.0,186.0 A 48.0 48.0 0 0 0 303.0,234.0" fill="none" stroke="#999" stroke-width="1" stroke-dasharray="2,2"/>
<line x1="303.0" y1="186.0" x2="303.0" y2="234.0" stroke="#999" stroke-width="1.5"/>
<line x1="116.0" y1="186.0" x2="84.0" y2="186.0" stroke="#fff" stroke-width="4"/>
<path d="M 84.0,186.0 A 32.0 32.0 0 0 0 116.0,218.0" fill="none" stroke="#999" stroke-width="1" stroke-dasharray="2,2"/>
<line x1="116.0" y1="186.0" x2="116.0" y2="218.0" stroke="#999" stroke-width="1.5"/>
<line x1="135.0" y1="215.5" x2="135.0" y2="243.5" stroke="#fff" stroke-width="4"/>
<path d="M 135.0,243.5 A 28.0 28.0 0 0 0 163.0,215.5" fill="none" stroke="#999" stroke-width="1" stroke-dasharray="2,2"/>
<line x1="135.0" y1="215.5" x2="163.0" y2="215.5" stroke="#999" stroke-width="1.5"/>
<line x1="339.0" y1="213.5" x2="339.0" y2="245.5" stroke="#fff" stroke-width="4"/>
<path d="M 339.0,245.5 A 32.0 32.0 0 0 0 371.0,213.5" fill="none" stroke="#999" stroke-width="1" stroke-dasharray="2,2"/>
<line x1="339.0" y1="213.5" x2="371.0" y2="213.5" stroke="#999" stroke-width="1.5"/>
<line x1="315.0" y1="267.0" x2="243.0" y2="267.0" stroke="#fff" stroke-width="4"/>
<path d="M 243.0,267.0 A 72.0 72.0 0 0 0 315.0,339.0" fill="none" stroke="#999" stroke-width="1" stroke-dasharray="2,2"/>
<line x1="315.0" y1="267.0" x2="315.0" y2="339.0" stroke="#999" stroke-width="1.5"/>
<line x1="103.0" y1="65.0" x2="175.0" y2="65.0" stroke="#2b7bd1" stroke-width="5"/>
<line x1="220.6" y1="65.0" x2="288.6" y2="65.0" stroke="#2b7bd1" stroke-width="5"/>
<line x1="322.6" y1="90.4" x2="366.7" y2="125.0" stroke="#2b7bd1" stroke-width="5"/>
<text x="139.0" y="119.5" font-size="12" text-anchor="middle" fill="#222">dormitorio principal</text>
<text x="139.0" y="135.5" font-size="11" text-anchor="middle" fill="#555">11.2 m²</text>
<text x="294.4" y="128.2" font-size="12" text-anchor="middle" fill="#222">sala-comedor</text>
<text x="294.4" y="144.2" font-size="11" text-anchor="middle" fill="#555">10.7 m²</text>
<text x="100.0" y="223.5" font-size="12" text-anchor="middle" fill="#222">vestidor</text>
<text x="100.0" y="239.5" font-size="11" text-anchor="middle" fill="#555">3.3 m²</text>
<text x="177.0" y="223.5" font-size="12" text-anchor="middle" fill="#222">baño 1</text>
<text x="177.0" y="239.5" font-size="11" text-anchor="middle" fill="#555">3.4 m²</text>
<text x="279.0" y="223.5" font-size="12" text-anchor="middle" fill="#222">cocina</text>
<text x="279.0" y="239.5" font-size="11" text-anchor="middle" fill="#555">5.6 m²</text>
<text x="372.0" y="223.5" font-size="12" text-anchor="middle" fill="#222">lavandería</text>
<text x="372.0" y="239.5" font-size="11" text-anchor="middle" fill="#555">2.5 m²</text>
<text x="232.0" y="303.0" font-size="12" text-anchor="middle" fill="#222">terraza</text>
<text x="232.0" y="319.0" font-size="11" text-anchor="middle" fill="#555">13.4 m²</text>
<text x="60" y="45" font-size="12" fill="#333">frente 8.60 m</text>
<text x="15" y="80" font-size="12" fill="#333" transform="rotate(-90 15 80)">fondo 7.15 m</text>
<text x="60" y="391.0" font-size="13" fill="#111" font-weight="bold">1D/1B amplio, lote en cuña</text>
</svg>