<svg xmlns="http://www.w3.org/2000/svg" viewBox="0 0 868 588" font-family="Helvetica,Arial,sans-serif">
<rect x="0" y="0" width="868" height="588" fill="#ffffff"/>
<style>.wall{fill:#2b2b2b;} .wallP{fill:#1a1a1a;} .amb{fill:#f7f5f0;stroke:#333;stroke-width:1.2;} .txt{font-size:12px;fill:#111;} .txt2{font-size:10px;fill:#555;} .doorleaf{stroke:#8a5a2b;stroke-width:2;} .doorarc{fill:none;stroke:#8a5a2b;stroke-width:1;stroke-dasharray:3,2;} .win{stroke:#2f7bbf;stroke-width:4;} .dim{stroke:#999;stroke-width:0.7;} .dimtxt{font-size:9px;fill:#666;} .title{font-size:15px;font-weight:bold;fill:#111;} .zonaS{fill:#fdf1e0;} .zonaI{fill:#e9f2fb;} .zonaSv{fill:#eef0ee;}</style>
<polygon points="85.0,85.0 265.0,85.0 265.0,298.0 85.0,298.0" class="zonaI" stroke="#333" stroke-width="1.2"/>
<polygon points="85.0,307.0 265.0,307.0 265.0,376.0 85.0,376.0" class="zonaI" stroke="#333" stroke-width="1.2"/>
<polygon points="85.0,385.0 265.0,385.0 265.0,463.0 85.0,463.0" class="zonaSv" stroke="#333" stroke-width="1.2"/>
<polygon points="274.0,85.0 442.0,85.0 442.0,463.0 274.0,463.0" class="zonaS" stroke="#333" stroke-width="1.2"/>
<polygon points="451.0,85.0 523.0,85.0 523.0,298.0 451.0,298.0" class="zonaS" stroke="#333" stroke-width="1.2"/>
<polygon points="451.0,307.0 523.0,307.0 523.0,463.0 451.0,463.0" class="zonaSv" stroke="#333" stroke-width="1.2"/>
<polygon points="70.0,77.5 538.0,77.5 538.0,62.5 70.0,62.5" class="wallP"/>
<polygon points="62.5,70.0 62.5,478.0 77.5,478.0 77.5,70.0" class="wallP"/>
<polygon points="530.5,70.0 530.5,478.0 545.5,478.0 545.5,70.0" class="wallP"/>
<polygon points="70.0,485.5 538.0,485.5 538.0,470.5 70.0,470.5" class="wallP"/>
<polygon points="265.0,70.0 265.0,478.0 274.0,478.0 274.0,70.0" class="wall"/>
<polygon points="442.0,70.0 442.0,478.0 451.0,478.0 451.0,70.0" class="wall"/>
<polygon points="85.0,307.0 265.0,307.0 265.0,298.0 85.0,298.0" class="wall"/>
<polygon points="451.0,307.0 523.0,307.0 523.0,298.0 451.0,298.0" class="wall"/>
<polygon points="85.0,385.0 265.0,385.0 265.0,376.0 85.0,376.0" class="wall"/>
<line x1="331.0" y1="85.0" x2="331.0" y2="139.0" class="doorleaf"/><path d="M 331.0 139.0 A 54.0 54.0 0 0 1 385.0 85.0" class="doorarc"/>
<line x1="265.0" y1="167.5" x2="217.0" y2="167.5" class="doorleaf"/><path d="M 217.0 167.5 A 48.0 48.0 0 0 1 265.0 215.5" class="doorarc"/>
<line x1="151.0" y1="307.0" x2="151.0" y2="355.0" class="doorleaf"/><path d="M 151.0 355.0 A 48.0 48.0 0 0 1 199.0 307.0" class="doorarc"/>
<line x1="154.0" y1="385.0" x2="154.0" y2="427.0" class="doorleaf"/><path d="M 154.0 427.0 A 42.0 42.0 0 0 1 196.0 385.0" class="doorarc"/>
<line x1="265.0" y1="403.0" x2="223.0" y2="403.0" class="doorleaf"/><path d="M 223.0 403.0 A 42.0 42.0 0 0 1 265.0 445.0" class="doorarc"/>
<line x1="451.0" y1="167.5" x2="499.0" y2="167.5" class="doorleaf"/><path d="M 499.0 167.5 A 48.0 48.0 0 0 1 451.0 215.5" class="doorarc"/>
<line x1="451.0" y1="361.0" x2="499.0" y2="361.0" class="doorleaf"/><path d="M 499.0 361.0 A 48.0 48.0 0 0 1 451.0 409.0" class="doorarc"/>
<line x1="85.0" y1="245.5" x2="85.0" y2="137.5" class="win"/>
<line x1="310.0" y1="85.0" x2="406.0" y2="85.0" class="win"/>
<text x="175.0" y="187.5" text-anchor="middle" class="txt">dormitorio principal</text>
<text x="175.0" y="201.5" text-anchor="middle" class="txt2">10.7 m²</text>
<text x="175.0" y="337.5" text-anchor="middle" class="txt">vestidor</text>
<text x="175.0" y="351.5" text-anchor="middle" class="txt2">3.4 m²</text>
<text x="175.0" y="420.0" text-anchor="middle" class="txt">baño 1</text>
<text x="175.0" y="434.0" text-anchor="middle" class="txt2">3.9 m²</text>
<text x="358.0" y="270.0" text-anchor="middle" class="txt">sala-comedor</text>
<text x="358.0" y="284.0" text-anchor="middle" class="txt2">17.6 m²</text>
<text x="487.0" y="187.5" text-anchor="middle" class="txt">terraza</text>
<text x="487.0" y="201.5" text-anchor="middle" class="txt2">4.3 m²</text>
<text x="487.0" y="381.0" text-anchor="middle" class="txt">lavandería</text>
<text x="487.0" y="395.0" text-anchor="middle" class="txt2">3.1 m²</text>
<line x1="70.0" y1="500.0" x2="538.0" y2="500.0" class="dim"/>
<text x="304.0" y="512.0" text-anchor="middle" class="dimtxt">frente 7.80 m</text>
<line x1="562.0" y1="70.0" x2="562.0" y2="478.0" class="dim"/>
<text x="568.0" y="274.0" class="dimtxt">fondo 6.80 m</text>
<text x="70" y="24" class="title">2026-08-16-u01 — 53.04 m²</text>
</svg>