<svg xmlns="http://www.w3.org/2000/svg" viewBox="0 0 840 726" font-family="Helvetica,Arial,sans-serif">
<rect x="0" y="0" width="840" height="726" fill="#ffffff"/>
<text x="70" y="28" font-size="17" font-weight="700" fill="#1a1a1a">D6-2D</text>
<text x="70" y="46" font-size="11" fill="#444">2D/2B fachada única frente ancho — crujía verificada ≤6.0 m (2.5×altura libre) desde la ventana de</text>
<text x="70" y="61" font-size="11" fill="#444">frente, baño 2 con acceso público directo desde la terraza sin cruzar cocina ni dormitorio,</text>
<text x="70" y="76" font-size="11" fill="#444">dormitorio principal a la derecha con vestidor+baño en suite — Surquillo/Jesús María</text>
<polygon points="77.5,174.5 221.5,174.5 221.5,441.5 77.5,441.5" fill="#e6f0f7" stroke="none"/>
<polygon points="230.5,174.5 446.5,174.5 446.5,441.5 230.5,441.5" fill="#fdf3e0" stroke="none"/>
<polygon points="455.5,174.5 539.5,174.5 539.5,441.5 455.5,441.5" fill="#fdf3e0" stroke="none"/>
<polygon points="548.5,174.5 722.5,174.5 722.5,441.5 548.5,441.5" fill="#e6f0f7" stroke="none"/>
<polygon points="77.5,450.5 221.5,450.5 221.5,615.5 77.5,615.5" fill="#e6f0f7" stroke="none"/>
<polygon points="230.5,450.5 380.5,450.5 380.5,615.5 230.5,615.5" fill="#eef2ea" stroke="none"/>
<polygon points="389.5,450.5 446.5,450.5 446.5,615.5 389.5,615.5" fill="#eef2ea" stroke="none"/>
<polygon points="455.5,450.5 539.5,450.5 539.5,615.5 455.5,615.5" fill="#eef2ea" stroke="none"/>
<polygon points="548.5,450.5 722.5,450.5 722.5,519.5 548.5,519.5" fill="#e6f0f7" stroke="none"/>
<polygon points="548.5,528.5 722.5,528.5 722.5,615.5 548.5,615.5" fill="#eef2ea" stroke="none"/>
<line x1="70.0" y1="167.0" x2="730.0" y2="167.0" stroke="#1a1a1a" stroke-width="15.0" stroke-linecap="square"/>
<line x1="730.0" y1="167.0" x2="730.0" y2="623.0" stroke="#1a1a1a" stroke-width="15.0" stroke-linecap="square"/>
<line x1="730.0" y1="623.0" x2="70.0" y2="623.0" stroke="#1a1a1a" stroke-width="15.0" stroke-linecap="square"/>
<line x1="70.0" y1="623.0" x2="70.0" y2="167.0" stroke="#1a1a1a" stroke-width="15.0" stroke-linecap="square"/>
<line x1="226.0" y1="167.0" x2="226.0" y2="623.0" stroke="#555" stroke-width="9.0" stroke-linecap="square"/>
<line x1="451.0" y1="167.0" x2="451.0" y2="623.0" stroke="#555" stroke-width="9.0" stroke-linecap="square"/>
<line x1="544.0" y1="167.0" x2="544.0" y2="623.0" stroke="#555" stroke-width="9.0" stroke-linecap="square"/>
<line x1="70.0" y1="446.0" x2="730.0" y2="446.0" stroke="#555" stroke-width="9.0" stroke-linecap="square"/>
<line x1="385.0" y1="446.0" x2="385.0" y2="623.0" stroke="#555" stroke-width="9.0" stroke-linecap="square"/>
<line x1="544.0" y1="524.0" x2="730.0" y2="524.0" stroke="#555" stroke-width="9.0" stroke-linecap="square"/>
<line x1="77.5" y1="248.0" x2="77.5" y2="368.0" stroke="#2f6fb2" stroke-width="5"/>
<line x1="254.5" y1="174.5" x2="422.5" y2="174.5" stroke="#2f6fb2" stroke-width="5"/>
<line x1="722.5" y1="248.0" x2="722.5" y2="368.0" stroke="#2f6fb2" stroke-width="5"/>
<line x1="470.5" y1="174.5" x2="524.5" y2="174.5" stroke="#ffffff" stroke-width="7"/>
<line x1="470.5" y1="174.5" x2="524.5" y2="174.5" stroke="#8b5a2b" stroke-width="2.2"/>
<line x1="446.5" y1="254.0" x2="446.5" y2="362.0" stroke="#ffffff" stroke-width="7"/>
<line x1="446.5" y1="254.0" x2="446.5" y2="362.0" stroke="#8b5a2b" stroke-width="2.2"/>
<line x1="548.5" y1="332.0" x2="548.5" y2="284.0" stroke="#ffffff" stroke-width="7"/>
<line x1="548.5" y1="332.0" x2="548.5" y2="284.0" stroke="#8b5a2b" stroke-width="2.2"/>
<line x1="476.5" y1="450.5" x2="518.5" y2="450.5" stroke="#ffffff" stroke-width="7"/>
<line x1="476.5" y1="450.5" x2="518.5" y2="450.5" stroke="#8b5a2b" stroke-width="2.2"/>
<line x1="221.5" y1="284.0" x2="221.5" y2="332.0" stroke="#ffffff" stroke-width="7"/>
<line x1="221.5" y1="284.0" x2="221.5" y2="332.0" stroke="#8b5a2b" stroke-width="2.2"/>
<line x1="125.5" y1="450.5" x2="173.5" y2="450.5" stroke="#ffffff" stroke-width="7"/>
<line x1="125.5" y1="450.5" x2="173.5" y2="450.5" stroke="#8b5a2b" stroke-width="2.2"/>
<line x1="266.5" y1="450.5" x2="344.5" y2="450.5" stroke="#ffffff" stroke-width="7"/>
<line x1="266.5" y1="450.5" x2="344.5" y2="450.5" stroke="#8b5a2b" stroke-width="2.2"/>
<line x1="389.5" y1="557.0" x2="389.5" y2="509.0" stroke="#ffffff" stroke-width="7"/>
<line x1="389.5" y1="557.0" x2="389.5" y2="509.0" stroke="#8b5a2b" stroke-width="2.2"/>
<line x1="611.5" y1="450.5" x2="659.5" y2="450.5" stroke="#ffffff" stroke-width="7"/>
<line x1="611.5" y1="450.5" x2="659.5" y2="450.5" stroke="#8b5a2b" stroke-width="2.2"/>
<line x1="614.5" y1="528.5" x2="656.5" y2="528.5" stroke="#ffffff" stroke-width="7"/>
<line x1="614.5" y1="528.5" x2="656.5" y2="528.5" stroke="#8b5a2b" stroke-width="2.2"/>
<text x="149.5" y="304.0" font-size="11.5" font-weight="600" text-anchor="middle" fill="#222">dormitorio 2</text>
<text x="149.5" y="319.0" font-size="10.5" text-anchor="middle" fill="#555">10.7 m²</text>
<text x="338.5" y="304.0" font-size="11.5" font-weight="600" text-anchor="middle" fill="#222">sala-comedor</text>
<text x="338.5" y="319.0" font-size="10.5" text-anchor="middle" fill="#555">16.0 m²</text>
<text x="497.5" y="304.0" font-size="11.5" font-weight="600" text-anchor="middle" fill="#222">terraza</text>
<text x="497.5" y="319.0" font-size="10.5" text-anchor="middle" fill="#555">6.2 m²</text>
<text x="635.5" y="304.0" font-size="11.5" font-weight="600" text-anchor="middle" fill="#222">dormitorio principal</text>
<text x="635.5" y="319.0" font-size="10.5" text-anchor="middle" fill="#555">12.9 m²</text>
<text x="149.5" y="529.0" font-size="11.5" font-weight="600" text-anchor="middle" fill="#222">vestidor 2</text>
<text x="149.5" y="544.0" font-size="10.5" text-anchor="middle" fill="#555">6.6 m²</text>
<text x="305.5" y="529.0" font-size="11.5" font-weight="600" text-anchor="middle" fill="#222">cocina</text>
<text x="305.5" y="544.0" font-size="10.5" text-anchor="middle" fill="#555">6.9 m²</text>
<text x="418.0" y="529.0" font-size="11.5" font-weight="600" text-anchor="middle" fill="#222">lavandería</text>
<text x="418.0" y="544.0" font-size="10.5" text-anchor="middle" fill="#555">2.6 m²</text>
<text x="497.5" y="529.0" font-size="11.5" font-weight="600" text-anchor="middle" fill="#222">baño 2</text>
<text x="497.5" y="544.0" font-size="10.5" text-anchor="middle" fill="#555">3.9 m²</text>
<text x="635.5" y="481.0" font-size="11.5" font-weight="600" text-anchor="middle" fill="#222">vestidor</text>
<text x="635.5" y="496.0" font-size="10.5" text-anchor="middle" fill="#555">3.3 m²</text>
<text x="635.5" y="568.0" font-size="11.5" font-weight="600" text-anchor="middle" fill="#222">baño 1</text>
<text x="635.5" y="583.0" font-size="10.5" text-anchor="middle" fill="#555">4.2 m²</text>
<line x1="70.0" y1="645.0" x2="730.0" y2="645.0" stroke="#999" stroke-width="1"/>
<text x="400.0" y="661.0" font-size="11" text-anchor="middle" fill="#777">frente 11.00 m</text>
<line x1="752.0" y1="167.0" x2="752.0" y2="623.0" stroke="#999" stroke-width="1"/>
<text x="758.0" y="395.0" font-size="11" fill="#777" transform="rotate(90 758.0 395.0)" text-anchor="middle">fondo 7.60 m</text>
<text x="70" y="678.0" font-size="9.5" fill="#999">Muro portante 0.25 m (negro) · tabique 0.15 m (gris) · ventana (azul) · puerta con hoja (marrón sobre vano blanco)</text>
</svg>