<svg xmlns="http://www.w3.org/2000/svg" width="384" height="576" viewBox="0 0 384 576" font-family="Helvetica,Arial,sans-serif">
<rect x="0" y="0" width="384" height="576" fill="#ffffff"/>
<text x="60" y="24" font-size="16" font-weight="bold" fill="#222">1D/1B autoconstrucción progresiva, muro húmedo apilado sobre el medianero portante (previsión de 2do piso), Comas-Los Olivos/Lima Norte</text>
<text x="60" y="42" font-size="12" fill="#555">2026-09-13-u01 · área techada 65.92 m² · 6.6×11.4 m</text>
<polygon points="65.0,65.0 319.0,65.0 319.0,123.0 65.0,123.0" fill="#fdf3e0" stroke="#c9a24a" stroke-width="1" stroke-dasharray="3,2"/>
<text x="192.0" y="88.0" font-size="11.5" text-anchor="middle" fill="#222">terraza</text>
<text x="192.0" y="103.0" font-size="10" text-anchor="middle" fill="#666">9.21 m²</text>
<polygon points="65.0,129.0 319.0,129.0 319.0,223.0 65.0,223.0" fill="#fdf3e0" stroke="#c9a24a" stroke-width="1" stroke-dasharray="3,2"/>
<text x="192.0" y="170.0" font-size="11.5" text-anchor="middle" fill="#222">sala-comedor</text>
<text x="192.0" y="185.0" font-size="10" text-anchor="middle" fill="#666">14.92 m²</text>
<polygon points="65.0,229.0 213.0,229.0 213.0,295.0 65.0,295.0" fill="#e8f2e8" stroke="#5f9e6e" stroke-width="1" stroke-dasharray="3,2"/>
<text x="139.0" y="256.0" font-size="11.5" text-anchor="middle" fill="#222">vestidor</text>
<text x="139.0" y="271.0" font-size="10" text-anchor="middle" fill="#666">6.11 m²</text>
<polygon points="219.0,229.0 319.0,229.0 319.0,295.0 219.0,295.0" fill="#e8f2e8" stroke="#5f9e6e" stroke-width="1" stroke-dasharray="3,2"/>
<text x="269.0" y="256.0" font-size="11.5" text-anchor="middle" fill="#222">cocina</text>
<text x="269.0" y="271.0" font-size="10" text-anchor="middle" fill="#666">4.12 m²</text>
<polygon points="65.0,301.0 213.0,301.0 213.0,421.0 65.0,421.0" fill="#e3edf7" stroke="#5b7fa6" stroke-width="1" stroke-dasharray="3,2"/>
<text x="139.0" y="355.0" font-size="11.5" text-anchor="middle" fill="#222">dormitorio principal</text>
<text x="139.0" y="370.0" font-size="10" text-anchor="middle" fill="#666">11.10 m²</text>
<polygon points="219.0,301.0 319.0,301.0 319.0,371.0 219.0,371.0" fill="#e8f2e8" stroke="#5f9e6e" stroke-width="1" stroke-dasharray="3,2"/>
<text x="269.0" y="330.0" font-size="11.5" text-anchor="middle" fill="#222">lavandería</text>
<text x="269.0" y="345.0" font-size="10" text-anchor="middle" fill="#666">4.38 m²</text>
<polygon points="219.0,377.0 319.0,377.0 319.0,421.0 219.0,421.0" fill="#e8f2e8" stroke="#5f9e6e" stroke-width="1" stroke-dasharray="3,2"/>
<text x="269.0" y="393.0" font-size="11.5" text-anchor="middle" fill="#222">baño principal</text>
<text x="269.0" y="408.0" font-size="10" text-anchor="middle" fill="#666">2.75 m²</text>
<polygon points="65.0,427.0 319.0,427.0 319.0,511.0 65.0,511.0" fill="#fdf3e0" stroke="#c9a24a" stroke-width="1" stroke-dasharray="3,2"/>
<text x="192.0" y="463.0" font-size="11.5" text-anchor="middle" fill="#222">pozo posterior</text>
<text x="192.0" y="478.0" font-size="10" text-anchor="middle" fill="#666">13.33 m²</text>
<rect x="60.0" y="55.0" width="264.0" height="10.0" fill="#2b2b2b"/>
<rect x="60.0" y="511.0" width="264.0" height="10.0" fill="#2b2b2b"/>
<rect x="55.0" y="60.0" width="10.0" height="456.0" fill="#2b2b2b"/>
<rect x="319.0" y="60.0" width="10.0" height="456.0" fill="#2b2b2b"/>
<rect x="60.0" y="123.0" width="264.0" height="6.0" fill="#666"/>
<rect x="60.0" y="223.0" width="264.0" height="6.0" fill="#666"/>
<rect x="60.0" y="295.0" width="264.0" height="6.0" fill="#666"/>
<rect x="213.0" y="226.0" width="6.0" height="198.0" fill="#666"/>
<rect x="216.0" y="371.0" width="108.0" height="6.0" fill="#666"/>
<rect x="60.0" y="421.0" width="264.0" height="6.0" fill="#666"/>
<line x1="148.0" y1="129.0" x2="236.0" y2="129.0" stroke="#2196c9" stroke-width="4"/>
<line x1="107.0" y1="421.0" x2="171.0" y2="421.0" stroke="#2196c9" stroke-width="4"/>
<line x1="174.0" y1="65.0" x2="210.0" y2="65.0" stroke="#ffffff" stroke-width="7"/>
<line x1="210.0" y1="65.0" x2="210.0" y2="101.0" stroke="#8a5a2b" stroke-width="1.5"/>
<path d="M 210.0 101.0 A 36.0 36.0 0 0 0 174.0 65.0" fill="none" stroke="#8a5a2b" stroke-width="1" stroke-dasharray="2,2"/>
<line x1="156.0" y1="126.0" x2="228.0" y2="126.0" stroke="#ffffff" stroke-width="7"/>
<line x1="228.0" y1="126.0" x2="228.0" y2="198.0" stroke="#8a5a2b" stroke-width="1.5"/>
<path d="M 228.0 198.0 A 72.0 72.0 0 0 0 156.0 126.0" fill="none" stroke="#8a5a2b" stroke-width="1" stroke-dasharray="2,2"/>
<line x1="245.0" y1="226.0" x2="293.0" y2="226.0" stroke="#ffffff" stroke-width="7"/>
<line x1="293.0" y1="226.0" x2="293.0" y2="274.0" stroke="#8a5a2b" stroke-width="1.5"/>
<path d="M 293.0 274.0 A 48.0 48.0 0 0 0 245.0 226.0" fill="none" stroke="#8a5a2b" stroke-width="1" stroke-dasharray="2,2"/>
<line x1="123.0" y1="226.0" x2="155.0" y2="226.0" stroke="#ffffff" stroke-width="7"/>
<line x1="155.0" y1="226.0" x2="155.0" y2="258.0" stroke="#8a5a2b" stroke-width="1.5"/>
<path d="M 155.0 258.0 A 32.0 32.0 0 0 0 123.0 226.0" fill="none" stroke="#8a5a2b" stroke-width="1" stroke-dasharray="2,2"/>
<line x1="123.0" y1="298.0" x2="155.0" y2="298.0" stroke="#ffffff" stroke-width="7"/>
<line x1="155.0" y1="298.0" x2="155.0" y2="330.0" stroke="#8a5a2b" stroke-width="1.5"/>
<path d="M 155.0 330.0 A 32.0 32.0 0 0 0 123.0 298.0" fill="none" stroke="#8a5a2b" stroke-width="1" stroke-dasharray="2,2"/>
<line x1="216.0" y1="385.0" x2="216.0" y2="413.0" stroke="#ffffff" stroke-width="7"/>
<line x1="216.0" y1="413.0" x2="244.0" y2="413.0" stroke="#8a5a2b" stroke-width="1.5"/>
<path d="M 244.0 413.0 A 28.0 28.0 0 0 0 216.0 385.0" fill="none" stroke="#8a5a2b" stroke-width="1" stroke-dasharray="2,2"/>
<line x1="253.0" y1="298.0" x2="285.0" y2="298.0" stroke="#ffffff" stroke-width="7"/>
<line x1="285.0" y1="298.0" x2="285.0" y2="330.0" stroke="#8a5a2b" stroke-width="1.5"/>
<path d="M 285.0 330.0 A 32.0 32.0 0 0 0 253.0 298.0" fill="none" stroke="#8a5a2b" stroke-width="1" stroke-dasharray="2,2"/>
<line x1="123.0" y1="424.0" x2="155.0" y2="424.0" stroke="#ffffff" stroke-width="7"/>
<line x1="123.0" y1="424.0" x2="123.0" y2="456.0" stroke="#8a5a2b" stroke-width="1.5"/>
<path d="M 123.0 456.0 A 32.0 32.0 0 0 1 155.0 424.0" fill="none" stroke="#8a5a2b" stroke-width="1" stroke-dasharray="2,2"/>
<line x1="60" y1="538.0" x2="324.0" y2="538.0" stroke="#333" stroke-width="1"/>
<text x="192.0" y="554.0" font-size="11" text-anchor="middle" fill="#333">6.60 m</text>
<line x1="346.0" y1="60" x2="346.0" y2="516.0" stroke="#333" stroke-width="1"/>
<text x="360.0" y="288.0" font-size="11" text-anchor="middle" fill="#333" transform="rotate(90 360.0 288.0)">11.40 m</text>
<line x1="319.0" y1="226.0" x2="319.0" y2="421.0" stroke="#c0392b" stroke-width="2" stroke-dasharray="6,3" opacity="0.55"/>
</svg>