<?xml version="1.0" encoding="UTF-8"?>
<svg id="Layer_1" xmlns="http://www.w3.org/2000/svg" version="1.1" viewBox="0 0 430 160">
  <!-- Generator: Adobe Illustrator 29.8.2, SVG Export Plug-In . SVG Version: 2.1.1 Build 3)  -->
  <path d="M387.5,118.2c8.1,0,14.3-1.9,18.7-5.7,4.3-3.8,7-8,8.1-12.4h14.3c-2.5,9.1-7.2,16.5-14.2,22.2-6.8,5.6-15.6,8.4-26.4,8.4s-17-2-23.9-5.9c-6.7-4.1-11.8-9.7-15.4-17-3.6-7.3-5.4-15.7-5.4-25.3,0-15.1,3.9-26.8,11.8-35.3,7.9-8.6,18.6-12.9,32.1-12.9s24.8,4.5,31.9,13.6c7.2,9.1,10.8,21.9,10.8,38.4h-72.3c0,5.7,1.1,11.1,3.4,16,2.3,4.8,5.6,8.7,10,11.7,4.5,2.9,10,4.3,16.3,4.3ZM387.3,46.8c-5.6,0-10.7,1.2-15.2,3.6-4.4,2.4-8,5.7-10.6,9.9-2.5,4.1-3.8,8.5-3.8,13.5h57.9c0-4.9-1.2-9.4-3.6-13.5-2.3-4.2-5.6-7.5-9.9-9.9-4.3-2.4-9.3-3.6-14.9-3.6Z"/>
  <path d="M336.1,36.8v86.4c0,12-3.6,21-10.8,27.3-7.1,6.3-17,9.5-29.8,9.5s-15.2-1.3-21.3-3.9c-6.1-2.5-10.9-6-14.3-10.4-3.3-4.4-5.3-9.3-5.7-14.5h14.3c1,5,3.5,9,7.7,11.8,4.3,3,10.5,4.5,18.7,4.5,17.9,0,26.9-8.1,26.9-24.4v-13.8h-.4c-6.6,9.6-16.3,14.3-29.1,14.3s-14.8-1.7-21-5c-6.1-3.3-10.9-8.4-14.5-15.1-3.6-6.7-5.4-14.9-5.4-24.6s1.8-17.9,5.4-24.6c3.6-6.7,8.4-11.7,14.5-15.1,6.2-3.3,13.2-5,21-5,12.3,0,22,4.6,29.1,13.8h.4v-11.3h14.3ZM294.1,111c8.7,0,15.5-2.7,20.3-8.1,4.9-5.5,7.4-13.5,7.4-24s-2.5-18.5-7.4-23.9c-4.8-5.5-11.5-8.3-20.3-8.3s-16.1,3-21,9c-4.9,6-7.4,13.7-7.4,23.1s2.5,17.2,7.4,23.1c4.9,6,11.9,9,21,9Z"/>
  <path d="M244.1,36.8v86.4c0,12-3.6,21-10.8,27.3-7.1,6.3-17,9.5-29.8,9.5s-15.2-1.3-21.3-3.9c-6.1-2.5-10.9-6-14.3-10.4-3.3-4.4-5.3-9.3-5.7-14.5h14.3c1,5,3.5,9,7.7,11.8,4.3,3,10.5,4.5,18.7,4.5,17.9,0,26.9-8.1,26.9-24.4v-13.8h-.4c-6.6,9.6-16.3,14.3-29.1,14.3s-14.8-1.7-21-5c-6.1-3.3-10.9-8.4-14.5-15.1-3.6-6.7-5.4-14.9-5.4-24.6s1.8-17.9,5.4-24.6c3.6-6.7,8.4-11.7,14.5-15.1,6.2-3.3,13.2-5,21-5,12.3,0,22,4.6,29.1,13.8h.4v-11.3h14.3ZM202.1,111c8.7,0,15.5-2.7,20.3-8.1,4.9-5.5,7.4-13.5,7.4-24s-2.5-18.5-7.4-23.9c-4.8-5.5-11.5-8.3-20.3-8.3s-16.1,3-21,9c-4.9,6-7.4,13.7-7.4,23.1s2.5,17.2,7.4,23.1c4.9,6,11.9,9,21,9Z"/>
  <path d="M124.2,135.8c-2,5-3.9,9-5.6,11.8-1.6,3-4,5.6-7.4,7.9-3.2,2.4-7.4,3.6-12.6,3.6s-8.3-.6-12.2-1.8v-10.8h2.2c1.2.1,2.8.2,4.8.2s5.4-.4,7.5-1.3c2.2-.7,4.1-2,5.9-3.9,1.6-1.7,2.8-3.7,3.8-6.1,1.1-2.3,1.6-4.7,1.6-7.4s-.5-5.1-1.4-7.4l-34.6-83.9h16.1l28,74.6h.4l26.4-74.6h16.1l-39.1,99Z"/>
  <path d="M44.8,34.3c9,0,16.3,2.6,22.1,7.7,5.7,5,8.6,12.5,8.6,22.4v63.8h-14.3v-60.3c0-6.3-1.6-11.4-4.8-15.2-3.2-3.9-8.3-5.9-15.1-5.9s-14.5,2.3-19.5,6.8c-4.9,4.5-7.4,10.4-7.4,17.6v57H0V0h14.3v47.7h.4c2.9-3.8,6.8-7,11.8-9.5,5-2.6,11.1-3.9,18.3-3.9Z"/>
</svg>