<?xml version="1.0" encoding="utf-8"?>
<!-- Generator: Adobe Illustrator 23.0.1, SVG Export Plug-In . SVG Version: 6.00 Build 0)  -->
<svg version="1.1" xmlns="http://www.w3.org/2000/svg" xmlns:xlink="http://www.w3.org/1999/xlink" x="0px" y="0px"
	 viewBox="0 0 750 750" style="enable-background:new 0 0 750 750;" xml:space="preserve">
<style type="text/css">
	.st0{fill:#FFFFFF;}
	.st1{fill:none;stroke:#3A54F5;stroke-width:1.9;stroke-linecap:round;stroke-linejoin:round;stroke-miterlimit:10;}
	.st2{fill:#3A54F5;}
	.st3{fill:none;stroke:#3A54F5;stroke-width:2;stroke-linecap:round;stroke-linejoin:round;stroke-miterlimit:10;}
	.st4{fill:none;stroke:#3A54F5;stroke-width:3;stroke-linecap:round;stroke-linejoin:round;}
	.st5{fill:none;stroke:#3A54F5;stroke-width:3;stroke-linecap:round;stroke-linejoin:round;stroke-dasharray:4.9058,6.8682;}
	.st6{fill:none;stroke:#3A54F5;stroke-width:3;stroke-linecap:round;stroke-linejoin:round;stroke-dasharray:4.8884,6.8438;}
	.st7{fill:none;stroke:#3A54F5;stroke-width:2.5;stroke-linecap:round;stroke-linejoin:round;stroke-miterlimit:10;}
	.st8{fill:none;stroke:#3A54F5;stroke-width:5;stroke-linecap:round;stroke-linejoin:round;}
	.st9{fill:none;stroke:#3A54F5;stroke-width:5;stroke-linecap:round;stroke-linejoin:round;stroke-dasharray:8.0076,11.0105;}
	.st10{fill:none;stroke:#3A54F5;stroke-width:2.85;stroke-linecap:round;stroke-linejoin:round;}
	.st11{fill:none;stroke:#3A54F5;stroke-width:2.85;stroke-linecap:round;stroke-linejoin:round;stroke-dasharray:4.6381,6.4933;}
	.st12{fill:none;stroke:#3A54F5;stroke-width:2.85;stroke-linecap:round;stroke-linejoin:round;stroke-dasharray:4.7196,6.6074;}
	.st13{fill:none;stroke:#3A54F5;stroke-width:2.85;stroke-linecap:round;stroke-linejoin:round;stroke-dasharray:4.8098,6.7337;}
	.st14{fill:none;stroke:#3A54F5;stroke-width:3;stroke-linecap:round;stroke-linejoin:round;stroke-dasharray:4.9351,6.9092;}
	.st15{fill:none;stroke:#3A54F5;stroke-width:3;stroke-linecap:round;stroke-linejoin:round;stroke-dasharray:5.0902,7.1263;}
	.st16{fill:none;stroke:#3A54F5;stroke-width:3;stroke-linecap:round;stroke-linejoin:round;stroke-dasharray:5.1293,7.181;}
	.st17{fill:none;stroke:#000000;stroke-width:3;stroke-linecap:round;stroke-linejoin:round;}
	.st18{fill:none;stroke:#000000;stroke-width:3;stroke-linecap:round;stroke-linejoin:round;stroke-dasharray:4.9351,6.9092;}
	.st19{fill:none;stroke:#000000;stroke-width:3;stroke-linecap:round;stroke-linejoin:round;stroke-dasharray:5.0902,7.1263;}
	.st20{fill:none;stroke:#3A54F5;stroke-width:2.375;stroke-linecap:round;stroke-linejoin:round;stroke-miterlimit:10;}
	.st21{fill:none;stroke:#000000;stroke-width:2.5;stroke-linecap:round;stroke-linejoin:round;stroke-miterlimit:10;}
	.st22{fill:none;stroke:#3A54F5;stroke-width:3.325;stroke-linecap:round;stroke-linejoin:round;stroke-miterlimit:10;}
	.st23{fill:none;stroke:#3A54F5;stroke-width:3.5;stroke-linecap:round;stroke-linejoin:round;stroke-miterlimit:10;}
	.st24{fill:none;stroke:#000000;stroke-width:3.5;stroke-linecap:round;stroke-linejoin:round;stroke-miterlimit:10;}
</style>
<g id="FILL-BACKGROUND">
</g>
<g id="N-DIMENSIONS">
</g>
<g id="N-TEXT">
</g>
<g id="AG-DIAGRAM">
	<g id="POLYLINE_74_">
		<g>
			<g>
				<path class="st4" d="M326.3,508.75c0-0.54,0-1.08,0-1.62c0-0.29,0-0.59,0-0.88c0.83,0,1.67,0.02,2.5,0.03"/>
				<path class="st5" d="M335.66,506.59c3.78,0.26,7.54,0.67,11.29,1.25c6.72,1.04,13.37,2.58,19.85,4.63
					c6.74,2.13,13.3,4.78,19.64,7.92c6.29,3.11,12.33,6.74,18.05,10.81c5.52,3.92,10.72,8.26,15.6,12.95
					c4.78,4.59,9.21,9.56,13.24,14.82c4.27,5.56,8.12,11.44,11.47,17.6c3.4,6.26,6.32,12.76,8.71,19.47
					c2.25,6.29,4.02,12.77,5.29,19.33c1.28,6.58,2.07,13.26,2.37,19.96"/>
				<path class="st4" d="M461.27,638.75c0.01,0.83,0.02,1.67,0.03,2.5c-0.83,0-1.67,0-2.5,0"/>
				<path class="st6" d="M451.95,641.25c-1.37,0-2.74,0-4.11,0c-10.77,0-21.54,0-32.3,0c-13.02,0-26.04,0-39.06,0
					c-11.24,0-22.47,0-33.71,0c-3.66,0-7.32,0-10.98,0c-1.16,0-2.32,0-3.49,0c-0.48,0-1.32,0.17-1.78,0
					c-0.33-0.12-0.11,0.1-0.22-0.26c-0.16-0.5,0-1.33,0-1.85c0-2.82,0-5.65,0-8.47c0-10.22,0-20.44,0-30.66c0-12.96,0-25.92,0-38.88
					c0-11.62,0-23.24,0-34.86c0-4.7,0-9.4,0-14.1"/>
			</g>
		</g>
	</g>
	<g id="POLYLINE_84_">
		<g>
			<g>
				<polyline class="st4" points="573.75,483.23 573.75,485.73 571.25,485.73 				"/>
				<line class="st16" x1="564.07" y1="485.73" x2="358.38" y2="485.73"/>
				<polyline class="st4" points="354.79,485.73 352.29,485.73 352.29,483.23 				"/>
				<line class="st16" x1="352.29" y1="476.05" x2="352.29" y2="270.36"/>
				<polyline class="st4" points="352.29,266.77 352.29,264.27 354.79,264.27 				"/>
				<line class="st16" x1="361.97" y1="264.27" x2="567.66" y2="264.27"/>
				<polyline class="st4" points="571.25,264.27 573.75,264.27 573.75,266.77 				"/>
				<line class="st16" x1="573.75" y1="273.95" x2="573.75" y2="479.64"/>
			</g>
		</g>
	</g>
</g>
<g id="AG-ANIMALS">
</g>
<g id="AG-FURNITURE">
</g>
<g id="AG-PEOPLE">
</g>
<g id="AG-LAYOUT">
	<g id="POLYLINE_71_">
		<rect x="326.3" y="91.88" class="st7" width="314.95" height="16.88"/>
	</g>
	<g id="POLYLINE_75_">
		<rect x="116.2" y="461.25" class="st7" width="90" height="135"/>
	</g>
	<g id="POLYLINE_76_">
		<line class="st7" x1="116.25" y1="197" x2="318.75" y2="197"/>
	</g>
	<g id="POLYLINE_77_">
		<path class="st7" d="M225.94,126.69c-1.94,0-3.58,1.53-3.74,3.46c-0.08,0.98-0.01,2-0.01,2.98c0,2.68,0,5.36,0,8.04
			c0,7.71,0,15.42,0,23.12c0,5.78,0,11.57,0,17.35c0,1.8,0.12,3.53,1.86,4.54c1.55,0.9,3.86,0.51,5.55,0.51c5.64,0,11.29,0,16.93,0
			c7.86,0,15.71,0,23.57,0c7.29,0,14.58,0,21.87,0c4.06,0,8.11,0,12.17,0c1.67,0,3.22-0.57,3.96-2.2c0.31-0.69,0.34-1.4,0.34-2.14
			c0-1.9,0-3.79,0-5.69c0-7.26,0-14.51,0-21.77c0-6.82,0-13.65,0-20.47c0-1.92,0.5-4.64-0.79-6.29c-1.14-1.45-2.74-1.44-4.4-1.44
			c-4.73,0-9.46,0-14.19,0c-7.55,0-15.09,0-22.64,0c-7.67,0-15.34,0-23.01,0c-5.1,0-10.2,0-15.3,0
			C227.38,126.69,226.66,126.69,225.94,126.69z"/>
	</g>
	<g id="POLYLINE_78_">
		<path class="st7" d="M130.31,126.69c-1.94,0-3.58,1.53-3.74,3.46c-0.08,0.98-0.01,2-0.01,2.98c0,2.68,0,5.36,0,8.04
			c0,7.71,0,15.42,0,23.12c0,5.78,0,11.57,0,17.35c0,1.8,0.12,3.53,1.86,4.54c1.55,0.9,3.86,0.51,5.55,0.51c5.64,0,11.29,0,16.93,0
			c7.86,0,15.71,0,23.57,0c7.29,0,14.58,0,21.87,0c4.06,0,8.11,0,12.17,0c1.67,0,3.22-0.57,3.96-2.2c0.31-0.69,0.34-1.4,0.34-2.14
			c0-1.9,0-3.79,0-5.69c0-7.26,0-14.51,0-21.77c0-6.82,0-13.65,0-20.47c0-1.92,0.5-4.64-0.79-6.29c-1.14-1.45-2.74-1.44-4.4-1.44
			c-4.73,0-9.46,0-14.19,0c-7.55,0-15.09,0-22.64,0c-7.67,0-15.34,0-23.01,0c-5.1,0-10.2,0-15.3,0
			C131.75,126.69,131.03,126.69,130.31,126.69z"/>
	</g>
	<g id="POLYLINE_79_">
		<path class="st7" d="M116.2,123.75c0.01-4.14,3.41-7.43,7.5-7.5c2.99-0.05,5.98,0,8.97,0c7.71,0,15.42,0,23.13,0
			c10.78,0,21.56,0,32.35,0c12.12,0,24.23,0,36.35,0c11.8,0,23.59,0,35.39,0c9.8,0,19.6,0,29.4,0c6.12,0,12.25,0,18.37,0
			c2.66,0,5.43-0.3,7.77,1.24c2.53,1.67,3.38,4.33,3.38,7.21c0,3.61,0,7.22,0,10.83c0,7,0,14.01,0,21.01c0,9.53,0,19.05,0,28.58
			c0,11.23,0,22.46,0,33.7c0,12.11,0,24.21,0,36.32c0,12.15,0,24.29,0,36.44c0,11.35,0,22.71,0,34.06c0,9.73,0,19.46,0,29.19
			c0,7.28,0,14.55,0,21.83c0,3.99,0,7.97,0,11.96c0,2.65-0.35,5.12-2.43,7.03c-2.22,2.04-4.89,1.97-7.68,1.97
			c-5.66,0-11.32,0-16.98,0c-9.51,0-19.01,0-28.52,0c-11.67,0-23.34,0-35.01,0c-12.16,0-24.32,0-36.48,0c-10.97,0-21.94,0-32.91,0
			c-8.1,0-16.2,0-24.3,0c-3.55,0-7.11,0.03-10.66,0c-3.68-0.04-6.92-2.59-7.53-6.28c-0.34-2.06-0.1-4.31-0.1-6.37
			c0-5.46,0-10.93,0-16.39c0-8.4,0-16.81,0-25.21c0-10.51,0-21.02,0-31.53c0-11.79,0-23.57,0-35.36c0-12.23,0-24.46,0-36.69
			c0-11.84,0-23.68,0-35.52c0-10.62,0-21.24,0-31.86c0-8.57,0-17.13,0-25.7c0-5.68,0-11.36,0-17.04
			C116.2,127.69,116.2,125.72,116.2,123.75z"/>
	</g>
	<g id="POLYLINE_80_">
		<rect x="453.75" y="116.25" class="st7" width="180" height="82.5"/>
	</g>
	<g id="POLYLINE_81_">
		<rect x="513.75" y="185.75" class="st7" width="60" height="60"/>
	</g>
	<g id="POLYLINE_82_">
		
			<rect x="528.41" y="524.66" transform="matrix(0.7071 -0.7071 0.7071 0.7071 -235.959 569.6555)" class="st7" width="82.5" height="90"/>
	</g>
	<g id="POLYLINE_83_">
		
			<rect x="553.6" y="585.47" transform="matrix(0.7071 -0.7071 0.7071 0.7071 -246.3933 594.8461)" class="st7" width="82.5" height="18.75"/>
	</g>
</g>
<g id="AG-WALL">
	<g id="POLYLINE_72_">
		<polygon class="st23" points="461.3,658.12 461.3,641.25 641.25,641.25 641.25,108.75 641.25,91.88 658.12,91.88 658.12,658.12 		
			"/>
	</g>
	<g id="POLYLINE_73_">
		<polygon class="st23" points="326.3,641.25 326.3,658.12 91.88,658.12 91.88,91.88 326.3,91.88 326.3,108.75 108.75,108.75 
			108.75,641.25 		"/>
	</g>
</g>
</svg>
