<?xml version="1.0" encoding="utf-8"?>
<!-- Generator: Adobe Illustrator 23.0.1, SVG Export Plug-In . SVG Version: 6.00 Build 0)  -->
<!DOCTYPE svg PUBLIC "-//W3C//DTD SVG 1.1//EN" "http://www.w3.org/Graphics/SVG/1.1/DTD/svg11.dtd" [
	<!ENTITY ns_flows "http://ns.adobe.com/Flows/1.0/">
	<!ENTITY ns_extend "http://ns.adobe.com/Extensibility/1.0/">
	<!ENTITY ns_ai "http://ns.adobe.com/AdobeIllustrator/10.0/">
	<!ENTITY ns_graphs "http://ns.adobe.com/Graphs/1.0/">
	<!ENTITY ns_vars "http://ns.adobe.com/Variables/1.0/">
	<!ENTITY ns_imrep "http://ns.adobe.com/ImageReplacement/1.0/">
	<!ENTITY ns_sfw "http://ns.adobe.com/SaveForWeb/1.0/">
	<!ENTITY ns_custom "http://ns.adobe.com/GenericCustomNamespace/1.0/">
	<!ENTITY ns_adobe_xpath "http://ns.adobe.com/XPath/1.0/">
]>
<svg version="1.1" xmlns:x="&ns_extend;" xmlns:i="&ns_ai;" xmlns:graph="&ns_graphs;"
	 xmlns="http://www.w3.org/2000/svg" xmlns:xlink="http://www.w3.org/1999/xlink" xmlns:a="http://ns.adobe.com/AdobeSVGViewerExtensions/3.0/"
	 x="0px" y="0px" viewBox="0 0 1500 750" enable-background="new 0 0 1500 750" xml:space="preserve">
<metadata>
	<sfw  xmlns="&ns_sfw;">
		<slices></slices>
		<sliceSourceBounds  bottomLeftOrigin="true" height="3256" width="8941.377" x="-966" y="-1656"></sliceSourceBounds>
	</sfw>
</metadata>
<g id="FILL-BACKGROUND" display="none">
	<rect y="0" display="inline" fill="#FFFFFF" width="1500" height="750"/>
</g>
<g id="N-DIMENSIONS" display="none">
	<g id="MTEXT_156_" display="inline">
		<g>
			<g>
				<path fill="#3A54F5" d="M128.485,74.702v-2.376h4.572v12.708h-2.664V74.702H128.485z"/>
				<path fill="#3A54F5" d="M140.978,76.016c0-0.564-0.135-1.008-0.405-1.332c-0.27-0.324-0.693-0.486-1.269-0.486
					c-1.188,0-1.818,0.81-1.89,2.43h-2.466c0.072-1.5,0.528-2.637,1.368-3.411s1.902-1.161,3.186-1.161
					c1.308,0,2.313,0.339,3.015,1.017c0.702,0.678,1.053,1.581,1.053,2.709c0,0.888-0.261,1.779-0.783,2.673
					c-0.522,0.894-1.186,1.716-1.989,2.466c-0.804,0.75-1.65,1.395-2.538,1.935h5.562v2.07h-8.946v-1.89
					C138.943,80.216,140.978,77.876,140.978,76.016z"/>
				<path fill="#3A54F5" d="M144.613,74.702v-2.376h4.572v12.708h-2.664V74.702H144.613z"/>
				<path fill="#3A54F5" d="M158.779,73.658c-0.3,0.264-0.45,0.726-0.45,1.386v0.018h2.016v2.142h-2.016v7.83h-2.538v-7.83h-1.278
					v-2.142h1.278v-0.234c0-1.188,0.339-2.103,1.017-2.745c0.678-0.642,1.683-0.963,3.015-0.963c0.228,0,0.402,0.006,0.522,0.018
					v2.196C159.601,73.286,159.079,73.395,158.779,73.658z"/>
				<path fill="#3A54F5" d="M167.185,82.856v2.178h-1.332c-1.116,0-1.971-0.27-2.565-0.81c-0.594-0.54-0.891-1.44-0.891-2.7v-4.32
					h-1.386v-2.142h1.386v-2.466h2.538v2.466h2.232v2.142h-2.232v4.356c0,0.48,0.096,0.816,0.288,1.008
					c0.192,0.192,0.516,0.288,0.972,0.288H167.185z"/>
				<path fill="#3A54F5" d="M171.796,73.783c0-0.329-0.079-0.588-0.236-0.777c-0.157-0.189-0.404-0.283-0.74-0.283
					c-0.692,0-1.06,0.472-1.102,1.417h-1.438c0.042-0.874,0.308-1.537,0.798-1.988c0.489-0.451,1.108-0.677,1.857-0.677
					c0.762,0,1.348,0.198,1.757,0.593c0.41,0.395,0.614,0.922,0.614,1.579c0,0.518-0.152,1.038-0.457,1.559s-0.691,1-1.16,1.438
					c-0.469,0.438-0.962,0.813-1.479,1.128h3.243v1.207h-5.216v-1.102C170.61,76.231,171.796,74.867,171.796,73.783z"/>
				<path fill="#3A54F5" d="M181.08,87.212h-2.538V70.49h2.538V87.212z"/>
				<path fill="#3A54F5" d="M186.047,74.702v-2.376h4.572v12.708h-2.664V74.702H186.047z"/>
				<path fill="#3A54F5" d="M191.987,74.702v-2.376h4.572v12.708h-2.664V74.702H191.987z"/>
				<path fill="#3A54F5" d="M200.968,82.388v2.646h-2.736v-2.646H200.968z"/>
				<path fill="#3A54F5" d="M208.277,76.016c0-0.564-0.135-1.008-0.405-1.332c-0.27-0.324-0.693-0.486-1.269-0.486
					c-1.188,0-1.818,0.81-1.89,2.43h-2.466c0.072-1.5,0.528-2.637,1.368-3.411s1.902-1.161,3.186-1.161
					c1.308,0,2.313,0.339,3.015,1.017c0.702,0.678,1.053,1.581,1.053,2.709c0,0.888-0.261,1.779-0.783,2.673
					c-0.522,0.894-1.186,1.716-1.989,2.466c-0.804,0.75-1.65,1.395-2.538,1.935h5.562v2.07h-8.946v-1.89
					C206.243,80.216,208.277,77.876,208.277,76.016z"/>
				<path fill="#3A54F5" d="M232.333,76.043c0.702,0.75,1.053,1.815,1.053,3.195v5.796h-2.52v-5.508
					c0-0.768-0.195-1.359-0.585-1.773c-0.39-0.414-0.927-0.621-1.611-0.621c-0.708,0-1.272,0.222-1.692,0.666
					s-0.63,1.092-0.63,1.944v5.292h-2.52v-5.508c0-0.768-0.195-1.359-0.585-1.773c-0.39-0.414-0.927-0.621-1.611-0.621
					c-0.708,0-1.272,0.222-1.692,0.666s-0.63,1.092-0.63,1.944v5.292h-2.538v-9.972h2.538v1.89c0.264-0.648,0.681-1.149,1.251-1.503
					s1.233-0.531,1.989-0.531c0.804,0,1.503,0.192,2.097,0.576c0.594,0.384,1.041,0.936,1.341,1.656
					c0.312-0.684,0.777-1.227,1.395-1.629c0.618-0.402,1.311-0.603,2.079-0.603C230.674,74.918,231.631,75.293,232.333,76.043z"/>
				<path fill="#3A54F5" d="M238.412,73.783c0-0.329-0.079-0.588-0.236-0.777c-0.157-0.189-0.404-0.283-0.74-0.283
					c-0.692,0-1.06,0.472-1.102,1.417h-1.438c0.042-0.874,0.308-1.537,0.798-1.988c0.489-0.451,1.108-0.677,1.857-0.677
					c0.762,0,1.348,0.198,1.757,0.593c0.41,0.395,0.614,0.922,0.614,1.579c0,0.518-0.152,1.038-0.457,1.559s-0.691,1-1.16,1.438
					c-0.469,0.438-0.962,0.813-1.479,1.128h3.243v1.207h-5.216v-1.102C237.226,76.231,238.412,74.867,238.412,73.783z"/>
			</g>
		</g>
	</g>
	<g id="MTEXT_155_" display="inline">
		<g>
			<g>
				<path fill="#3A54F5" d="M750.485,74.702v-2.376h4.572v12.708h-2.664V74.702H750.485z"/>
				<path fill="#3A54F5" d="M756.426,74.702v-2.376h4.572v12.708h-2.664V74.702H756.426z"/>
				<path fill="#3A54F5" d="M763.886,73.514c0.343-0.528,0.853-0.954,1.53-1.278c0.678-0.324,1.496-0.486,2.457-0.486
					c0.96,0,1.779,0.162,2.457,0.486c0.678,0.324,1.188,0.75,1.529,1.278c0.343,0.528,0.514,1.098,0.514,1.71
					c0,0.696-0.168,1.287-0.504,1.773c-0.336,0.486-0.84,0.849-1.512,1.089c0.756,0.288,1.334,0.706,1.736,1.251
					s0.604,1.209,0.604,1.989c0,0.84-0.211,1.563-0.631,2.169s-0.992,1.065-1.719,1.377s-1.551,0.468-2.475,0.468
					s-1.749-0.156-2.475-0.468c-0.727-0.312-1.297-0.771-1.711-1.377s-0.621-1.329-0.621-2.169c0-0.78,0.201-1.443,0.604-1.989
					s0.98-0.963,1.736-1.251c-0.672-0.24-1.178-0.605-1.521-1.098c-0.342-0.492-0.513-1.08-0.513-1.764
					C763.373,74.612,763.544,74.042,763.886,73.514z M766.163,82.694c0.42,0.372,0.989,0.558,1.71,0.558
					c0.72,0,1.293-0.186,1.719-0.558s0.639-0.876,0.639-1.512c0-0.648-0.219-1.143-0.656-1.485
					c-0.438-0.342-1.006-0.513-1.701-0.513c-0.684,0-1.245,0.171-1.684,0.513c-0.438,0.342-0.656,0.837-0.656,1.485
					C765.533,81.818,765.742,82.322,766.163,82.694z M766.415,76.97c0.36,0.312,0.846,0.468,1.458,0.468
					c0.623,0,1.115-0.156,1.477-0.468c0.359-0.312,0.539-0.756,0.539-1.332s-0.183-1.023-0.549-1.341s-0.855-0.477-1.467-0.477
					c-0.6,0-1.083,0.159-1.449,0.477s-0.549,0.765-0.549,1.341S766.055,76.658,766.415,76.97z"/>
				<path fill="#3A54F5" d="M782.057,73.658c-0.301,0.264-0.45,0.726-0.45,1.386v0.018h2.017v2.142h-2.017v7.83h-2.538v-7.83h-1.277
					v-2.142h1.277v-0.234c0-1.188,0.34-2.103,1.018-2.745c0.678-0.642,1.683-0.963,3.015-0.963c0.228,0,0.401,0.006,0.522,0.018
					v2.196C782.879,73.286,782.356,73.395,782.057,73.658z"/>
				<path fill="#3A54F5" d="M790.463,82.856v2.178h-1.332c-1.116,0-1.972-0.27-2.565-0.81c-0.595-0.54-0.892-1.44-0.892-2.7v-4.32
					h-1.385v-2.142h1.385v-2.466h2.539v2.466h2.231v2.142h-2.231v4.356c0,0.48,0.096,0.816,0.287,1.008
					c0.192,0.192,0.516,0.288,0.973,0.288H790.463z"/>
				<path fill="#3A54F5" d="M795.074,73.783c0-0.329-0.078-0.588-0.236-0.777c-0.157-0.189-0.404-0.283-0.74-0.283
					c-0.691,0-1.06,0.472-1.102,1.417h-1.438c0.042-0.874,0.308-1.537,0.798-1.988c0.489-0.451,1.108-0.677,1.857-0.677
					c0.763,0,1.349,0.198,1.757,0.593c0.41,0.395,0.615,0.922,0.615,1.579c0,0.518-0.152,1.038-0.457,1.559s-0.691,1-1.16,1.438
					c-0.469,0.438-0.961,0.813-1.479,1.128h3.242v1.207h-5.216v-1.102C793.889,76.231,795.074,74.867,795.074,73.783z"/>
				<path fill="#3A54F5" d="M804.357,87.212h-2.537V70.49h2.537V87.212z"/>
				<path fill="#3A54F5" d="M809.324,74.702v-2.376h4.572v12.708h-2.664V74.702H809.324z"/>
				<path fill="#3A54F5" d="M815.265,74.702v-2.376h4.572v12.708h-2.664V74.702H815.265z"/>
				<path fill="#3A54F5" d="M841.625,76.043c0.702,0.75,1.053,1.815,1.053,3.195v5.796h-2.52v-5.508
					c0-0.768-0.195-1.359-0.585-1.773c-0.39-0.414-0.927-0.621-1.611-0.621c-0.708,0-1.272,0.222-1.692,0.666
					s-0.629,1.092-0.629,1.944v5.292h-2.521v-5.508c0-0.768-0.195-1.359-0.585-1.773c-0.391-0.414-0.928-0.621-1.611-0.621
					c-0.708,0-1.271,0.222-1.691,0.666s-0.631,1.092-0.631,1.944v5.292h-2.537v-9.972h2.537v1.89
					c0.264-0.648,0.682-1.149,1.252-1.503c0.569-0.354,1.232-0.531,1.988-0.531c0.805,0,1.504,0.192,2.098,0.576
					c0.594,0.384,1.041,0.936,1.341,1.656c0.312-0.684,0.776-1.227,1.396-1.629c0.617-0.402,1.311-0.603,2.078-0.603
					C839.966,74.918,840.924,75.293,841.625,76.043z"/>
				<path fill="#3A54F5" d="M847.704,73.783c0-0.329-0.079-0.588-0.236-0.777s-0.403-0.283-0.739-0.283
					c-0.693,0-1.061,0.472-1.102,1.417h-1.438c0.042-0.874,0.308-1.537,0.798-1.988c0.489-0.451,1.108-0.677,1.857-0.677
					c0.762,0,1.348,0.198,1.758,0.593c0.409,0.395,0.613,0.922,0.613,1.579c0,0.518-0.152,1.038-0.456,1.559s-0.69,1-1.159,1.438
					c-0.469,0.438-0.963,0.813-1.48,1.128h3.243v1.207h-5.216v-1.102C846.518,76.231,847.704,74.867,847.704,73.783z"/>
			</g>
		</g>
	</g>
	<g display="inline">
		<g id="POLYLINE_1683_">
			
				<line fill="none" stroke="#3A54F5" stroke-width="2" stroke-linecap="round" stroke-linejoin="round" stroke-miterlimit="10" x1="658.46" y1="630.106" x2="659.34" y2="417.889"/>
		</g>
		<g id="LINE_84_">
			
				<line fill="none" stroke="#3A54F5" stroke-width="2" stroke-linecap="round" stroke-linejoin="round" stroke-miterlimit="10" x1="659.539" y1="367.923" x2="660.365" y2="116.75"/>
		</g>
		<g id="POLYLINE_1682_">
			
				<polyline fill="none" stroke="#3A54F5" stroke-width="2" stroke-linecap="round" stroke-linejoin="round" stroke-miterlimit="10" points="
				653.709,123.351 660.365,116.75 666.965,123.406 			"/>
		</g>
		<g id="POLYLINE_1681_">
			
				<polyline fill="none" stroke="#3A54F5" stroke-width="2" stroke-linecap="round" stroke-linejoin="round" stroke-miterlimit="10" points="
				665.115,623.506 658.46,630.106 651.859,623.451 			"/>
		</g>
		<g id="MTEXT_154_">
			<g>
				<g>
					<g>
						<path fill="#3A54F5" d="M658.509,389.54c-0.071-0.078-0.107-0.177-0.106-0.297l0.041-10.152l-3.033,2.31
							c-0.084,0.072-0.174,0.107-0.27,0.107c-0.108,0-0.211-0.062-0.306-0.182l-0.43-0.56c-0.06-0.084-0.089-0.169-0.089-0.253
							c0-0.132,0.061-0.239,0.182-0.323l3.918-3.007c0.133-0.084,0.289-0.125,0.469-0.124l0.846,0.003
							c0.119,0.001,0.219,0.04,0.297,0.118s0.116,0.178,0.115,0.298l-0.049,11.771c0,0.12-0.039,0.219-0.118,0.297
							c-0.078,0.077-0.178,0.116-0.298,0.115l-0.882-0.003C658.676,389.658,658.58,389.619,658.509,389.54z"/>
						<path fill="#3A54F5" d="M666.158,389.572c-0.072-0.078-0.107-0.178-0.107-0.298l0.043-10.152l-3.033,2.311
							c-0.084,0.071-0.174,0.107-0.271,0.106c-0.108,0-0.21-0.061-0.306-0.182l-0.43-0.56c-0.059-0.084-0.089-0.168-0.088-0.252
							c0-0.132,0.061-0.24,0.181-0.323l3.918-3.008c0.132-0.083,0.288-0.124,0.468-0.124l0.847,0.004c0.12,0,0.219,0.04,0.296,0.117
							c0.078,0.079,0.117,0.179,0.117,0.299l-0.049,11.771c-0.001,0.12-0.041,0.219-0.119,0.296
							c-0.078,0.078-0.178,0.116-0.297,0.116l-0.883-0.004C666.326,389.69,666.23,389.65,666.158,389.572z"/>
						<path fill="#3A54F5" d="M670.265,380.247c-0.048-0.065-0.065-0.159-0.054-0.279l0.407-2.518
							c0.05-0.348,0.218-0.521,0.506-0.521l1.152,0.005c0.083,0,0.153,0.03,0.206,0.091c0.055,0.061,0.08,0.133,0.08,0.217
							c0,0.12-0.018,0.216-0.055,0.288l-0.946,2.426c-0.061,0.131-0.127,0.23-0.199,0.296c-0.072,0.066-0.181,0.098-0.324,0.098
							l-0.558-0.003C670.384,380.347,670.312,380.313,670.265,380.247z"/>
						<path fill="#3A54F5" d="M680.676,389.345c-0.701-0.393-1.232-0.921-1.596-1.582s-0.543-1.382-0.54-2.161
							c0.004-1.033,0.423-2.135,1.256-3.308l3.458-4.774c0.012-0.012,0.045-0.053,0.1-0.125c0.054-0.072,0.123-0.129,0.207-0.17
							c0.084-0.042,0.18-0.062,0.288-0.062l0.882,0.004c0.108,0,0.195,0.039,0.261,0.117s0.099,0.172,0.099,0.279
							c0,0.061-0.031,0.139-0.092,0.234l-2.643,3.661c0.312-0.071,0.66-0.106,1.045-0.104c0.875,0.004,1.646,0.202,2.311,0.595
							c0.664,0.394,1.178,0.911,1.541,1.554c0.363,0.645,0.543,1.351,0.54,2.118c-0.003,0.769-0.189,1.484-0.558,2.148
							c-0.369,0.665-0.902,1.194-1.6,1.587c-0.697,0.394-1.521,0.587-2.469,0.583C682.206,389.936,681.375,389.738,680.676,389.345z
							 M684.613,388.128c0.445-0.214,0.801-0.533,1.066-0.958s0.399-0.938,0.402-1.537c0.002-0.588-0.131-1.097-0.398-1.523
							c-0.269-0.427-0.625-0.753-1.066-0.977c-0.443-0.224-0.924-0.337-1.439-0.339s-0.996,0.107-1.441,0.327
							s-0.801,0.543-1.066,0.968c-0.266,0.424-0.399,0.932-0.402,1.52c-0.002,0.6,0.127,1.113,0.39,1.541
							c0.263,0.427,0.615,0.749,1.058,0.967c0.443,0.218,0.924,0.327,1.439,0.329C683.683,388.447,684.168,388.342,684.613,388.128z
							"/>
						<path fill="#3A54F5" d="M689.568,380.318c-0.053-0.072-0.068-0.162-0.043-0.271l0.406-2.518
							c0.049-0.348,0.218-0.521,0.506-0.521l1.152,0.005c0.084,0,0.152,0.03,0.207,0.091c0.053,0.061,0.08,0.133,0.079,0.217
							c-0.001,0.12-0.019,0.216-0.055,0.288l-0.946,2.426c-0.061,0.132-0.127,0.23-0.199,0.296c-0.072,0.066-0.18,0.098-0.324,0.098
							l-0.559-0.003C689.697,380.427,689.623,380.391,689.568,380.318z M692.395,380.33c-0.054-0.072-0.068-0.162-0.043-0.271
							l0.406-2.518c0.049-0.348,0.218-0.521,0.506-0.521l1.152,0.005c0.084,0,0.152,0.03,0.206,0.091s0.081,0.133,0.08,0.217
							c-0.001,0.12-0.019,0.216-0.056,0.288l-0.945,2.426c-0.061,0.132-0.127,0.23-0.199,0.296
							c-0.072,0.066-0.181,0.098-0.324,0.098l-0.559-0.003C692.523,380.438,692.449,380.402,692.395,380.33z"/>
						<path fill="#3A54F5" d="M656.646,408.971c-0.684-0.309-1.201-0.709-1.553-1.203c-0.352-0.493-0.539-1.004-0.561-1.532
							c0-0.108,0.037-0.195,0.109-0.261s0.162-0.099,0.27-0.099l0.811,0.004c0.132,0,0.24,0.028,0.324,0.082
							c0.083,0.055,0.148,0.16,0.196,0.316c0.153,0.612,0.491,1.046,1.012,1.3c0.521,0.255,1.136,0.383,1.844,0.386
							c0.864,0.004,1.552-0.2,2.063-0.612s0.77-1.002,0.771-1.771c0.007-1.464-0.885-2.199-2.672-2.206l-1.692-0.007
							c-0.12-0.001-0.219-0.04-0.296-0.119c-0.078-0.078-0.117-0.177-0.117-0.297l0.002-0.468c0.002-0.181,0.068-0.336,0.201-0.468
							l3.525-3.873l-5.328-0.022c-0.119,0-0.219-0.037-0.297-0.109c-0.077-0.072-0.115-0.169-0.115-0.288l0.003-0.648
							c0.001-0.132,0.04-0.237,0.118-0.314s0.178-0.115,0.298-0.115l7.128,0.029c0.132,0.001,0.236,0.04,0.314,0.118
							c0.077,0.078,0.116,0.184,0.115,0.315l-0.002,0.594c0,0.133-0.062,0.271-0.182,0.413l-3.527,3.928l0.289,0.002
							c1.224,0.041,2.191,0.362,2.902,0.966c0.712,0.603,1.064,1.48,1.061,2.633c-0.004,0.792-0.201,1.472-0.594,2.04
							s-0.938,1.004-1.635,1.307c-0.697,0.304-1.484,0.453-2.359,0.449C658.139,409.436,657.329,409.28,656.646,408.971z"/>
						<path fill="#3A54F5" d="M665.852,409.171c-0.078-0.078-0.116-0.177-0.115-0.298l0.005-1.242
							c0.001-0.119,0.04-0.221,0.118-0.305s0.178-0.125,0.298-0.125l1.241,0.006c0.121,0,0.219,0.042,0.297,0.127
							c0.078,0.084,0.116,0.187,0.115,0.306l-0.005,1.242c-0.001,0.12-0.04,0.219-0.118,0.297c-0.078,0.077-0.178,0.116-0.297,0.116
							l-1.242-0.006C666.028,409.289,665.93,409.249,665.852,409.171z"/>
						<path fill="#3A54F5" d="M671.909,409.008c-0.659-0.327-1.161-0.752-1.507-1.276c-0.346-0.522-0.529-1.085-0.551-1.685v-0.036
							c0.001-0.096,0.037-0.174,0.109-0.234c0.072-0.059,0.156-0.089,0.252-0.089l0.883,0.004c0.252,0.001,0.412,0.135,0.484,0.398
							c0.177,0.648,0.508,1.133,0.992,1.453s1.045,0.481,1.682,0.484c0.815,0.003,1.494-0.243,2.037-0.739
							c0.541-0.495,0.814-1.181,0.818-2.057c0.004-0.805-0.264-1.444-0.803-1.922c-0.537-0.476-1.215-0.716-2.031-0.719
							c-0.432-0.002-0.779,0.051-1.044,0.157c-0.265,0.107-0.536,0.263-0.812,0.466c-0.156,0.119-0.287,0.206-0.389,0.259
							c-0.102,0.054-0.213,0.08-0.333,0.08l-0.864-0.004c-0.107,0-0.204-0.04-0.287-0.118c-0.084-0.079-0.119-0.172-0.107-0.28
							l0.583-5.991c0.038-0.3,0.188-0.448,0.452-0.447l6.229,0.025c0.131,0.001,0.233,0.036,0.305,0.108
							c0.072,0.073,0.107,0.175,0.107,0.308l-0.003,0.666c-0.001,0.119-0.04,0.216-0.118,0.286
							c-0.078,0.072-0.178,0.108-0.298,0.107l-5.185-0.021l-0.338,3.617c0.577-0.406,1.352-0.607,2.324-0.603
							c0.804,0.003,1.535,0.165,2.193,0.486c0.658,0.32,1.182,0.787,1.57,1.401c0.387,0.613,0.579,1.34,0.575,2.18
							c-0.003,0.889-0.202,1.652-0.595,2.293s-0.935,1.125-1.626,1.451c-0.69,0.327-1.481,0.488-2.369,0.485
							C673.348,409.499,672.568,409.334,671.909,409.008z"/>
						<path fill="#3A54F5" d="M685.562,409.253c-0.078-0.079-0.116-0.178-0.116-0.298l0.036-8.532
							c0.001-0.119,0.04-0.219,0.118-0.296c0.078-0.078,0.178-0.116,0.297-0.116l0.756,0.003c0.12,0.001,0.217,0.04,0.288,0.118
							c0.071,0.079,0.107,0.179,0.106,0.298l-0.002,0.612c0.65-0.801,1.529-1.2,2.633-1.195c1.32,0.006,2.254,0.562,2.801,1.668
							c0.291-0.503,0.703-0.903,1.238-1.201c0.535-0.297,1.133-0.445,1.793-0.442c0.984,0.004,1.787,0.343,2.408,1.018
							c0.621,0.676,0.929,1.648,0.924,2.92l-0.021,5.202c-0.001,0.12-0.041,0.219-0.119,0.297c-0.078,0.077-0.178,0.116-0.297,0.115
							l-0.773-0.003c-0.121,0-0.22-0.04-0.297-0.118c-0.078-0.079-0.117-0.178-0.116-0.298l0.021-5.04
							c0.004-0.96-0.191-1.647-0.585-2.062c-0.395-0.416-0.915-0.625-1.563-0.628c-0.576-0.002-1.072,0.209-1.487,0.633
							c-0.416,0.424-0.626,1.104-0.63,2.04l-0.021,5.04c0,0.12-0.039,0.219-0.117,0.297c-0.079,0.077-0.178,0.116-0.298,0.115
							l-0.792-0.003c-0.12,0-0.219-0.04-0.297-0.118c-0.078-0.079-0.116-0.178-0.115-0.298l0.021-5.04
							c0.004-0.947-0.2-1.633-0.612-2.054c-0.412-0.422-0.924-0.634-1.536-0.637c-0.576-0.002-1.072,0.206-1.487,0.624
							c-0.416,0.418-0.626,1.095-0.63,2.031l-0.021,5.058c-0.001,0.12-0.041,0.219-0.119,0.297
							c-0.078,0.077-0.178,0.116-0.297,0.115l-0.792-0.003C685.738,409.371,685.639,409.331,685.562,409.253z"/>
					</g>
				</g>
			</g>
		</g>
	</g>
	<g display="inline">
		<g id="POLYLINE_1680_">
			
				<line fill="none" stroke="#3A54F5" stroke-width="2" stroke-linecap="round" stroke-linejoin="round" stroke-miterlimit="10" x1="619.797" y1="672.621" x2="447.591" y2="672.621"/>
		</g>
		<g id="LINE_83_">
			
				<line fill="none" stroke="#3A54F5" stroke-width="2" stroke-linecap="round" stroke-linejoin="round" stroke-miterlimit="10" x1="325.93" y1="672.621" x2="147.261" y2="672.621"/>
		</g>
		<g id="POLYLINE_1679_">
			
				<polyline fill="none" stroke="#3A54F5" stroke-width="2" stroke-linecap="round" stroke-linejoin="round" stroke-miterlimit="10" points="
				153.89,679.248 147.261,672.621 153.89,665.993 			"/>
		</g>
		<g id="POLYLINE_1678_">
			
				<polyline fill="none" stroke="#3A54F5" stroke-width="2" stroke-linecap="round" stroke-linejoin="round" stroke-miterlimit="10" points="
				613.171,665.993 619.797,672.621 613.171,679.248 			"/>
		</g>
		<g id="MTEXT_86_">
			<g>
				<g>
					<path fill="#3A54F5" d="M339.546,678.832c-0.072-0.078-0.108-0.177-0.108-0.297v-10.152l-3.024,2.322
						c-0.084,0.072-0.174,0.108-0.27,0.108c-0.108,0-0.21-0.061-0.306-0.181l-0.432-0.558c-0.06-0.084-0.09-0.168-0.09-0.252
						c0-0.132,0.06-0.24,0.18-0.324l3.906-3.023c0.132-0.084,0.288-0.126,0.468-0.126h0.846c0.12,0,0.219,0.039,0.297,0.116
						c0.078,0.078,0.117,0.178,0.117,0.298v11.771c0,0.12-0.039,0.219-0.117,0.297s-0.177,0.117-0.297,0.117h-0.882
						C339.714,678.949,339.618,678.91,339.546,678.832z"/>
					<path fill="#3A54F5" d="M344.811,677.771c-0.714-0.906-1.095-2.091-1.143-3.556l-0.018-1.548l0.018-1.602
						c0.036-1.452,0.417-2.631,1.143-3.537s1.857-1.359,3.393-1.359c1.548,0,2.685,0.453,3.411,1.359
						c0.726,0.906,1.107,2.085,1.143,3.537c0.012,0.336,0.018,0.87,0.018,1.602c0,0.708-0.006,1.225-0.018,1.548
						c-0.048,1.465-0.429,2.649-1.143,3.556c-0.714,0.906-1.851,1.358-3.411,1.358C346.656,679.129,345.524,678.677,344.811,677.771
						z M350.292,676.717c0.468-0.611,0.714-1.476,0.738-2.592c0.012-0.348,0.018-0.846,0.018-1.494c0-0.659-0.006-1.151-0.018-1.476
						c-0.024-1.104-0.273-1.965-0.747-2.583c-0.474-0.618-1.167-0.927-2.079-0.927c-0.912,0-1.602,0.309-2.07,0.927
						c-0.468,0.618-0.714,1.479-0.738,2.583l-0.018,1.476l0.018,1.494c0.024,1.116,0.27,1.98,0.738,2.592
						c0.468,0.612,1.158,0.918,2.07,0.918C349.127,677.635,349.824,677.329,350.292,676.717z"/>
					<path fill="#3A54F5" d="M355.008,669.49c-0.048-0.065-0.066-0.159-0.054-0.279l0.396-2.52c0.048-0.348,0.216-0.522,0.504-0.522
						h1.152c0.083,0,0.153,0.03,0.207,0.09c0.054,0.061,0.081,0.133,0.081,0.217c0,0.12-0.018,0.216-0.054,0.288l-0.936,2.43
						c-0.06,0.132-0.126,0.231-0.198,0.297c-0.072,0.066-0.18,0.099-0.324,0.099h-0.558
						C355.127,669.589,355.056,669.557,355.008,669.49z"/>
					<path fill="#3A54F5" d="M365.456,678.544c-0.702-0.39-1.236-0.915-1.602-1.575c-0.366-0.659-0.549-1.379-0.549-2.159
						c0-1.032,0.414-2.136,1.242-3.312l3.438-4.788c0.012-0.012,0.045-0.054,0.099-0.126c0.054-0.072,0.123-0.129,0.207-0.171
						c0.083-0.042,0.18-0.062,0.288-0.062h0.882c0.108,0,0.195,0.039,0.261,0.116c0.066,0.078,0.099,0.172,0.099,0.279
						c0,0.061-0.03,0.139-0.09,0.234l-2.628,3.672c0.312-0.072,0.66-0.108,1.044-0.108c0.875,0,1.647,0.195,2.313,0.585
						c0.666,0.391,1.182,0.906,1.548,1.548c0.366,0.643,0.549,1.348,0.549,2.115c0,0.769-0.183,1.485-0.549,2.151
						c-0.366,0.666-0.897,1.197-1.593,1.593c-0.696,0.396-1.519,0.594-2.466,0.594C366.989,679.129,366.158,678.935,365.456,678.544
						z M369.389,677.312c0.444-0.216,0.798-0.537,1.062-0.963s0.396-0.939,0.396-1.539c0-0.588-0.135-1.096-0.405-1.521
						s-0.627-0.75-1.071-0.972c-0.444-0.222-0.924-0.333-1.44-0.333s-0.996,0.111-1.44,0.333s-0.798,0.546-1.062,0.972
						s-0.396,0.934-0.396,1.521c0,0.6,0.132,1.113,0.396,1.539s0.618,0.747,1.062,0.963s0.924,0.323,1.44,0.323
						C368.459,677.635,368.945,677.527,369.389,677.312z"/>
					<path fill="#3A54F5" d="M374.312,669.481c-0.054-0.072-0.069-0.162-0.045-0.271l0.396-2.52
						c0.048-0.348,0.216-0.522,0.504-0.522h1.152c0.084,0,0.153,0.03,0.207,0.09c0.055,0.061,0.081,0.133,0.081,0.217
						c0,0.12-0.018,0.216-0.054,0.288l-0.936,2.43c-0.06,0.132-0.126,0.231-0.198,0.297c-0.072,0.066-0.18,0.099-0.324,0.099h-0.558
						C374.44,669.589,374.366,669.553,374.312,669.481z M377.138,669.481c-0.054-0.072-0.069-0.162-0.045-0.271l0.396-2.52
						c0.049-0.348,0.217-0.522,0.504-0.522h1.152c0.084,0,0.153,0.03,0.207,0.09c0.055,0.061,0.081,0.133,0.081,0.217
						c0,0.12-0.019,0.216-0.054,0.288l-0.936,2.43c-0.061,0.132-0.127,0.231-0.199,0.297c-0.071,0.066-0.18,0.099-0.323,0.099
						h-0.558C377.267,669.589,377.191,669.553,377.138,669.481z"/>
					<path fill="#3A54F5" d="M386.021,682.576c-0.071-0.078-0.108-0.177-0.108-0.297v-19.044c0-0.12,0.037-0.219,0.108-0.297
						s0.168-0.117,0.288-0.117h0.666c0.119,0,0.219,0.039,0.297,0.117s0.117,0.177,0.117,0.297v19.044
						c0,0.12-0.039,0.219-0.117,0.297s-0.178,0.117-0.297,0.117h-0.666C386.188,682.693,386.092,682.654,386.021,682.576z"/>
					<path fill="#3A54F5" d="M396.046,678.67c-0.685-0.306-1.203-0.704-1.558-1.196c-0.354-0.492-0.543-1.002-0.566-1.53
						c0-0.108,0.036-0.195,0.107-0.261c0.072-0.066,0.162-0.1,0.271-0.1h0.81c0.133,0,0.24,0.027,0.324,0.081
						s0.15,0.159,0.198,0.315c0.155,0.611,0.495,1.044,1.017,1.296c0.522,0.252,1.137,0.378,1.846,0.378
						c0.863,0,1.551-0.207,2.061-0.621s0.766-1.005,0.766-1.773c0-1.464-0.895-2.195-2.682-2.195h-1.693
						c-0.119,0-0.219-0.039-0.297-0.117s-0.117-0.177-0.117-0.297v-0.468c0-0.181,0.066-0.336,0.199-0.469l3.51-3.888h-5.328
						c-0.12,0-0.219-0.036-0.297-0.108c-0.078-0.071-0.117-0.168-0.117-0.287v-0.648c0-0.132,0.039-0.237,0.117-0.315
						c0.078-0.077,0.177-0.116,0.297-0.116h7.128c0.132,0,0.237,0.039,0.315,0.116c0.077,0.078,0.117,0.184,0.117,0.315v0.594
						c0,0.133-0.061,0.271-0.181,0.414l-3.511,3.942h0.289c1.224,0.036,2.192,0.354,2.906,0.954c0.715,0.6,1.071,1.476,1.071,2.628
						c0,0.792-0.195,1.473-0.585,2.043c-0.391,0.57-0.934,1.008-1.629,1.313c-0.696,0.307-1.482,0.459-2.357,0.459
						C397.54,679.129,396.73,678.977,396.046,678.67z"/>
					<path fill="#3A54F5" d="M405.252,678.832c-0.078-0.078-0.116-0.177-0.116-0.297v-1.242c0-0.119,0.038-0.222,0.116-0.306
						s0.178-0.126,0.298-0.126h1.241c0.121,0,0.219,0.042,0.297,0.126s0.117,0.187,0.117,0.306v1.242
						c0,0.12-0.039,0.219-0.117,0.297s-0.176,0.117-0.297,0.117h-1.241C405.43,678.949,405.33,678.91,405.252,678.832z"/>
					<path fill="#3A54F5" d="M409.41,678.832c-0.078-0.078-0.117-0.177-0.117-0.297v-0.54c0-0.275,0.15-0.54,0.451-0.792
						l3.924-3.906c0.888-0.756,1.5-1.374,1.836-1.854s0.504-0.99,0.504-1.53c0-0.708-0.198-1.263-0.594-1.665
						c-0.396-0.401-0.973-0.603-1.729-0.603c-0.72,0-1.29,0.21-1.71,0.63s-0.679,0.984-0.774,1.691
						c-0.023,0.133-0.084,0.234-0.18,0.307s-0.191,0.107-0.288,0.107h-0.864c-0.107,0-0.197-0.035-0.27-0.107
						s-0.107-0.156-0.107-0.252c0.023-0.636,0.194-1.251,0.512-1.846c0.318-0.594,0.789-1.079,1.414-1.458
						c0.623-0.378,1.379-0.566,2.268-0.566c1.344,0,2.355,0.351,3.033,1.053s1.018,1.593,1.018,2.673
						c0,0.756-0.184,1.438-0.55,2.043c-0.366,0.606-0.938,1.245-1.719,1.917l-3.546,3.601h5.67c0.132,0,0.234,0.036,0.306,0.107
						c0.072,0.072,0.108,0.175,0.108,0.307v0.684c0,0.12-0.039,0.219-0.117,0.297s-0.178,0.117-0.297,0.117h-7.885
						C409.588,678.949,409.488,678.91,409.41,678.832z"/>
					<path fill="#3A54F5" d="M424.818,678.832c-0.078-0.078-0.117-0.177-0.117-0.297v-8.532c0-0.119,0.039-0.219,0.117-0.297
						s0.178-0.117,0.297-0.117h0.756c0.12,0,0.217,0.039,0.289,0.117c0.071,0.078,0.107,0.178,0.107,0.297v0.612
						c0.648-0.804,1.523-1.206,2.628-1.206c1.319,0,2.256,0.552,2.808,1.656c0.289-0.504,0.699-0.906,1.233-1.206
						s1.131-0.45,1.791-0.45c0.983,0,1.788,0.336,2.412,1.008c0.624,0.673,0.937,1.645,0.937,2.916v5.202
						c0,0.12-0.039,0.219-0.117,0.297s-0.178,0.117-0.297,0.117h-0.774c-0.12,0-0.22-0.039-0.298-0.117s-0.116-0.177-0.116-0.297
						v-5.04c0-0.96-0.198-1.646-0.595-2.061c-0.396-0.414-0.918-0.621-1.565-0.621c-0.575,0-1.071,0.213-1.485,0.639
						s-0.621,1.107-0.621,2.043v5.04c0,0.12-0.039,0.219-0.117,0.297s-0.176,0.117-0.297,0.117h-0.791
						c-0.121,0-0.22-0.039-0.297-0.117c-0.078-0.078-0.117-0.177-0.117-0.297v-5.04c0-0.947-0.207-1.632-0.621-2.052
						s-0.928-0.63-1.539-0.63c-0.576,0-1.071,0.21-1.485,0.63s-0.62,1.098-0.62,2.034v5.058c0,0.12-0.04,0.219-0.117,0.297
						c-0.078,0.078-0.178,0.117-0.297,0.117h-0.793C424.996,678.949,424.896,678.91,424.818,678.832z"/>
				</g>
			</g>
		</g>
	</g>
	<g display="inline">
		<g id="POLYLINE_1677_">
			
				<line fill="none" stroke="#3A54F5" stroke-width="2" stroke-linecap="round" stroke-linejoin="round" stroke-miterlimit="10" x1="1382.46" y1="530.106" x2="1383.34" y2="343.889"/>
		</g>
		<g id="LINE_36_">
			
				<line fill="none" stroke="#3A54F5" stroke-width="2" stroke-linecap="round" stroke-linejoin="round" stroke-miterlimit="10" x1="1383.539" y1="293.923" x2="1384.365" y2="118.75"/>
		</g>
		<g id="POLYLINE_1676_">
			
				<polyline fill="none" stroke="#3A54F5" stroke-width="2" stroke-linecap="round" stroke-linejoin="round" stroke-miterlimit="10" points="
				1377.709,125.351 1384.365,118.75 1390.965,125.406 			"/>
		</g>
		<g id="POLYLINE_1669_">
			
				<polyline fill="none" stroke="#3A54F5" stroke-width="2" stroke-linecap="round" stroke-linejoin="round" stroke-miterlimit="10" points="
				1389.115,523.506 1382.46,530.106 1375.859,523.451 			"/>
		</g>
		<g id="MTEXT_81_">
			<g>
				<g>
					<g>
						<path fill="#3A54F5" d="M1381.06,315.534c-0.065-0.078-0.099-0.171-0.098-0.279c0-0.083,0.024-0.161,0.073-0.233l2.787-3.841
							c-0.287,0.071-0.623,0.105-1.008,0.104c-0.863-0.016-1.619-0.22-2.266-0.612c-0.646-0.394-1.139-0.905-1.479-1.536
							c-0.34-0.632-0.508-1.307-0.504-2.027c0.002-0.72,0.176-1.403,0.521-2.05c0.345-0.647,0.856-1.173,1.537-1.578
							c0.679-0.405,1.499-0.605,2.46-0.602c0.959,0.004,1.78,0.205,2.463,0.604c0.683,0.398,1.195,0.92,1.541,1.563
							c0.346,0.643,0.517,1.331,0.514,2.062c-0.002,0.66-0.121,1.241-0.357,1.744s-0.548,1.024-0.934,1.563l-3.514,4.881
							c-0.084,0.107-0.165,0.194-0.243,0.261c-0.078,0.064-0.189,0.098-0.333,0.097l-0.9-0.004
							C1381.212,315.652,1381.125,315.613,1381.06,315.534z M1384.479,309.528c0.432-0.227,0.775-0.546,1.029-0.959
							s0.381-0.89,0.384-1.43c0.003-0.552-0.122-1.038-0.372-1.46c-0.25-0.421-0.59-0.746-1.021-0.976s-0.905-0.346-1.421-0.348
							c-0.504-0.002-0.97,0.11-1.396,0.336c-0.428,0.226-0.768,0.548-1.021,0.967c-0.254,0.42-0.382,0.905-0.385,1.457
							c-0.002,0.54,0.122,1.018,0.373,1.433c0.25,0.415,0.584,0.737,1.004,0.968c0.418,0.229,0.887,0.345,1.402,0.348
							C1383.57,309.866,1384.045,309.754,1384.479,309.528z"/>
						<path fill="#3A54F5" d="M1389.604,306.228c-0.049-0.065-0.066-0.159-0.054-0.279l0.407-2.518
							c0.049-0.348,0.217-0.521,0.506-0.521l1.152,0.005c0.083,0,0.152,0.031,0.206,0.091c0.054,0.061,0.08,0.133,0.079,0.217
							c0,0.12-0.018,0.216-0.055,0.288l-0.945,2.426c-0.061,0.132-0.127,0.23-0.199,0.296c-0.072,0.066-0.181,0.098-0.324,0.098
							l-0.559-0.003C1389.723,306.327,1389.65,306.295,1389.604,306.228z"/>
						<path fill="#3A54F5" d="M1399.879,315.45c-0.684-0.309-1.201-0.709-1.553-1.202c-0.352-0.494-0.539-1.005-0.561-1.533
							c0-0.108,0.037-0.195,0.109-0.26c0.072-0.066,0.162-0.1,0.27-0.099l0.811,0.003c0.132,0.001,0.24,0.028,0.324,0.083
							c0.083,0.054,0.148,0.159,0.196,0.315c0.153,0.612,0.491,1.047,1.012,1.301s1.135,0.383,1.843,0.386
							c0.864,0.003,1.553-0.201,2.064-0.613c0.512-0.411,0.769-1.001,0.771-1.77c0.006-1.464-0.885-2.199-2.672-2.207l-1.693-0.007
							c-0.119,0-0.218-0.04-0.296-0.118c-0.077-0.079-0.116-0.178-0.116-0.298l0.002-0.468c0.001-0.181,0.068-0.335,0.201-0.468
							l3.525-3.873l-5.328-0.022c-0.119,0-0.219-0.036-0.297-0.109c-0.078-0.071-0.115-0.168-0.115-0.287l0.003-0.648
							c0.001-0.132,0.04-0.237,0.118-0.315c0.078-0.076,0.178-0.115,0.297-0.115l7.129,0.03c0.131,0,0.236,0.04,0.314,0.117
							c0.077,0.078,0.116,0.185,0.115,0.316l-0.002,0.594c0,0.133-0.062,0.27-0.182,0.413l-3.527,3.928l0.289,0.001
							c1.223,0.041,2.191,0.362,2.902,0.966c0.712,0.603,1.064,1.48,1.061,2.633c-0.004,0.792-0.201,1.472-0.594,2.041
							c-0.393,0.568-0.938,1.004-1.635,1.307c-0.697,0.304-1.484,0.452-2.359,0.449
							C1401.371,315.916,1400.561,315.76,1399.879,315.45z"/>
						<path fill="#3A54F5" d="M1408.871,306.299c-0.054-0.072-0.068-0.162-0.044-0.271l0.407-2.518
							c0.049-0.348,0.217-0.521,0.506-0.521l1.152,0.005c0.083,0,0.152,0.03,0.206,0.091s0.08,0.133,0.079,0.217
							c0,0.12-0.018,0.216-0.055,0.288l-0.945,2.426c-0.061,0.132-0.127,0.23-0.199,0.296c-0.072,0.066-0.181,0.098-0.324,0.098
							l-0.559-0.003C1409,306.407,1408.925,306.371,1408.871,306.299z M1411.697,306.311c-0.055-0.072-0.068-0.162-0.044-0.271
							l0.407-2.518c0.049-0.348,0.217-0.521,0.506-0.521l1.151,0.005c0.084,0,0.153,0.03,0.206,0.091
							c0.055,0.061,0.081,0.133,0.08,0.217c0,0.12-0.018,0.216-0.055,0.288l-0.945,2.426c-0.062,0.132-0.127,0.23-0.199,0.296
							c-0.072,0.066-0.182,0.098-0.324,0.098l-0.559-0.003C1411.826,306.419,1411.751,306.383,1411.697,306.311z"/>
						<path fill="#3A54F5" d="M1378.746,335.125c-0.078-0.079-0.116-0.178-0.115-0.298l0.002-0.54
							c0.001-0.275,0.152-0.539,0.453-0.79l3.94-3.89c0.892-0.752,1.506-1.368,1.844-1.846c0.338-0.479,0.509-0.988,0.511-1.528
							c0.003-0.708-0.193-1.264-0.588-1.668c-0.395-0.402-0.969-0.606-1.725-0.609c-0.721-0.003-1.291,0.204-1.713,0.623
							c-0.422,0.418-0.683,0.981-0.781,1.688c-0.025,0.133-0.085,0.234-0.182,0.307c-0.096,0.071-0.191,0.106-0.288,0.105
							l-0.864-0.003c-0.107-0.001-0.197-0.036-0.27-0.108c-0.071-0.073-0.107-0.157-0.106-0.253c0.026-0.636,0.2-1.25,0.521-1.844
							c0.32-0.592,0.793-1.075,1.419-1.452c0.626-0.375,1.382-0.561,2.271-0.557c1.344,0.006,2.354,0.36,3.029,1.065
							c0.674,0.705,1.01,1.597,1.006,2.677c-0.004,0.756-0.189,1.437-0.559,2.041s-0.943,1.241-1.727,1.91l-3.561,3.585l5.67,0.024
							c0.132,0,0.233,0.037,0.305,0.108c0.072,0.072,0.107,0.175,0.107,0.307l-0.003,0.684c-0.001,0.12-0.04,0.219-0.118,0.297
							c-0.078,0.077-0.178,0.116-0.297,0.116l-7.885-0.033C1378.923,335.243,1378.824,335.203,1378.746,335.125z"/>
						<path fill="#3A54F5" d="M1389.6,335.17c-0.078-0.078-0.115-0.178-0.115-0.298l0.006-1.242c0-0.119,0.039-0.221,0.117-0.305
							s0.178-0.125,0.299-0.125l1.241,0.005c0.12,0.001,0.218,0.043,0.296,0.128c0.078,0.084,0.117,0.187,0.116,0.306l-0.005,1.242
							c-0.001,0.12-0.041,0.219-0.119,0.297c-0.078,0.077-0.177,0.116-0.297,0.115l-1.242-0.005
							C1389.777,335.288,1389.678,335.248,1389.6,335.17z"/>
						<path fill="#3A54F5" d="M1395.847,335.033c-0.713-0.309-1.266-0.752-1.659-1.329c-0.395-0.577-0.59-1.25-0.586-2.019
							c0.003-0.708,0.183-1.328,0.539-1.861c0.355-0.531,0.834-0.94,1.436-1.227c-0.479-0.278-0.85-0.642-1.111-1.094
							c-0.262-0.451-0.393-0.982-0.389-1.595c0.004-1.044,0.396-1.867,1.18-2.47c0.782-0.603,1.81-0.902,3.082-0.896
							c1.271,0.005,2.293,0.311,3.064,0.913s1.156,1.433,1.151,2.488c-0.003,0.601-0.138,1.124-0.403,1.573
							s-0.633,0.816-1.102,1.103c0.598,0.291,1.074,0.704,1.426,1.239s0.525,1.163,0.522,1.884
							c-0.003,0.768-0.204,1.436-0.603,2.004c-0.398,0.569-0.955,1.004-1.67,1.307c-0.715,0.304-1.529,0.453-2.441,0.449
							S1396.56,335.344,1395.847,335.033z M1400.426,333.46c0.57-0.43,0.858-1.004,0.861-1.724c0.004-0.721-0.279-1.299-0.848-1.732
							c-0.568-0.435-1.277-0.653-2.13-0.656c-0.864-0.004-1.582,0.209-2.153,0.639c-0.572,0.429-0.859,1.004-0.863,1.725
							c-0.002,0.72,0.279,1.297,0.849,1.731c0.567,0.434,1.284,0.653,2.147,0.657
							C1399.142,334.103,1399.854,333.889,1400.426,333.46z M1400.172,327.411c0.505-0.358,0.759-0.837,0.762-1.438
							c0.002-0.611-0.244-1.102-0.741-1.47s-1.117-0.554-1.86-0.557c-0.756-0.003-1.381,0.177-1.875,0.541
							c-0.493,0.364-0.74,0.853-0.744,1.464c-0.002,0.612,0.242,1.103,0.732,1.471s1.113,0.554,1.869,0.557
							C1399.047,327.958,1399.666,327.77,1400.172,327.411z"/>
						<path fill="#3A54F5" d="M1404.99,335.233c-0.078-0.078-0.117-0.177-0.117-0.297l0.003-0.54c0.001-0.275,0.151-0.54,0.454-0.79
							l3.939-3.891c0.891-0.752,1.506-1.367,1.844-1.846c0.338-0.478,0.508-0.988,0.511-1.528c0.003-0.708-0.193-1.263-0.587-1.667
							c-0.395-0.403-0.971-0.606-1.727-0.61c-0.719-0.003-1.291,0.205-1.712,0.623c-0.422,0.418-0.683,0.981-0.781,1.688
							c-0.024,0.133-0.085,0.234-0.181,0.306c-0.098,0.072-0.193,0.106-0.289,0.106l-0.863-0.004c-0.108,0-0.199-0.036-0.27-0.108
							c-0.072-0.072-0.107-0.156-0.107-0.252c0.026-0.636,0.199-1.251,0.52-1.844s0.795-1.076,1.42-1.452
							c0.625-0.375,1.383-0.561,2.271-0.558c1.344,0.006,2.354,0.361,3.028,1.065c0.676,0.705,1.011,1.598,1.006,2.678
							c-0.003,0.756-0.188,1.437-0.557,2.04c-0.369,0.605-0.945,1.241-1.728,1.91l-3.562,3.586l5.671,0.023
							c0.132,0.001,0.233,0.037,0.306,0.108c0.071,0.073,0.107,0.176,0.106,0.308l-0.003,0.684c0,0.12-0.041,0.219-0.118,0.296
							c-0.079,0.078-0.178,0.117-0.298,0.116l-7.884-0.032C1405.166,335.352,1405.067,335.312,1404.99,335.233z"/>
						<path fill="#3A54F5" d="M1420.397,335.298c-0.078-0.079-0.116-0.178-0.116-0.298l0.036-8.532
							c0.001-0.119,0.04-0.219,0.118-0.296c0.078-0.078,0.178-0.116,0.297-0.116l0.756,0.003c0.12,0.001,0.217,0.04,0.288,0.119
							c0.071,0.078,0.107,0.178,0.106,0.297l-0.002,0.612c0.65-0.801,1.529-1.2,2.633-1.195c1.32,0.006,2.254,0.562,2.801,1.668
							c0.291-0.503,0.703-0.903,1.238-1.201c0.535-0.297,1.133-0.445,1.793-0.442c0.984,0.004,1.787,0.344,2.408,1.018
							c0.621,0.676,0.93,1.648,0.924,2.92l-0.021,5.202c0,0.12-0.041,0.219-0.119,0.297c-0.078,0.077-0.178,0.116-0.297,0.115
							l-0.773-0.003c-0.121,0-0.219-0.04-0.297-0.118c-0.078-0.079-0.117-0.178-0.115-0.298l0.02-5.04
							c0.004-0.96-0.191-1.647-0.586-2.062c-0.393-0.416-0.914-0.625-1.562-0.628c-0.576-0.002-1.072,0.209-1.488,0.633
							s-0.625,1.104-0.629,2.04l-0.021,5.04c0,0.12-0.039,0.219-0.117,0.297c-0.078,0.077-0.178,0.116-0.299,0.115l-0.791-0.003
							c-0.12,0-0.219-0.04-0.297-0.118c-0.078-0.079-0.116-0.178-0.115-0.298l0.021-5.04c0.004-0.947-0.2-1.633-0.612-2.054
							c-0.412-0.422-0.924-0.634-1.536-0.637c-0.576-0.002-1.072,0.206-1.487,0.624c-0.416,0.418-0.626,1.095-0.63,2.031
							l-0.021,5.058c-0.001,0.12-0.041,0.219-0.119,0.297c-0.078,0.077-0.178,0.116-0.297,0.115l-0.792-0.003
							C1420.574,335.416,1420.475,335.376,1420.397,335.298z"/>
					</g>
				</g>
			</g>
		</g>
	</g>
	<g display="inline">
		<g id="POLYLINE_1668_">
			
				<line fill="none" stroke="#3A54F5" stroke-width="2" stroke-linecap="round" stroke-linejoin="round" stroke-miterlimit="10" x1="1337.797" y1="570.621" x2="1120.591" y2="570.621"/>
		</g>
		<g id="LINE_35_">
			
				<line fill="none" stroke="#3A54F5" stroke-width="2" stroke-linecap="round" stroke-linejoin="round" stroke-miterlimit="10" x1="994.93" y1="570.621" x2="767.261" y2="570.621"/>
		</g>
		<g id="POLYLINE_1667_">
			
				<polyline fill="none" stroke="#3A54F5" stroke-width="2" stroke-linecap="round" stroke-linejoin="round" stroke-miterlimit="10" points="
				773.89,577.248 767.261,570.621 773.89,563.993 			"/>
		</g>
		<g id="POLYLINE_1666_">
			
				<polyline fill="none" stroke="#3A54F5" stroke-width="2" stroke-linecap="round" stroke-linejoin="round" stroke-miterlimit="10" points="
				1331.171,563.993 1337.797,570.621 1331.171,577.248 			"/>
		</g>
		<g id="MTEXT_8_">
			<g>
				<g>
					<path fill="#3A54F5" d="M1005.389,576.832c-0.072-0.078-0.107-0.177-0.107-0.297v-10.152l-3.024,2.322
						c-0.084,0.072-0.174,0.108-0.271,0.108c-0.107,0-0.209-0.061-0.305-0.181l-0.433-0.558c-0.06-0.084-0.09-0.168-0.09-0.252
						c0-0.132,0.06-0.24,0.18-0.324l3.906-3.023c0.132-0.084,0.288-0.126,0.468-0.126h0.846c0.12,0,0.219,0.039,0.297,0.116
						c0.078,0.078,0.117,0.178,0.117,0.298v11.771c0,0.12-0.039,0.219-0.117,0.297s-0.177,0.117-0.297,0.117h-0.882
						C1005.557,576.949,1005.461,576.91,1005.389,576.832z"/>
					<path fill="#3A54F5" d="M1009.357,576.832c-0.078-0.078-0.117-0.177-0.117-0.297v-0.54c0-0.275,0.15-0.54,0.451-0.792
						l3.924-3.906c0.888-0.756,1.5-1.374,1.836-1.854s0.504-0.99,0.504-1.53c0-0.708-0.198-1.263-0.594-1.665
						c-0.396-0.401-0.973-0.603-1.729-0.603c-0.72,0-1.29,0.21-1.71,0.63s-0.679,0.984-0.774,1.691
						c-0.023,0.133-0.084,0.234-0.18,0.307s-0.191,0.107-0.288,0.107h-0.864c-0.107,0-0.197-0.035-0.27-0.107
						s-0.107-0.156-0.107-0.252c0.023-0.636,0.194-1.251,0.512-1.846c0.318-0.594,0.789-1.079,1.414-1.458
						c0.623-0.378,1.379-0.566,2.268-0.566c1.344,0,2.355,0.351,3.033,1.053s1.018,1.593,1.018,2.673
						c0,0.756-0.184,1.438-0.55,2.043c-0.366,0.606-0.938,1.245-1.719,1.917l-3.546,3.601h5.67c0.132,0,0.234,0.036,0.306,0.107
						c0.072,0.072,0.108,0.175,0.108,0.307v0.684c0,0.12-0.039,0.219-0.117,0.297s-0.178,0.117-0.297,0.117h-7.885
						C1009.535,576.949,1009.436,576.91,1009.357,576.832z"/>
					<path fill="#3A54F5" d="M1019.969,567.49c-0.049-0.065-0.066-0.159-0.055-0.279l0.396-2.52
						c0.048-0.348,0.216-0.522,0.504-0.522h1.152c0.084,0,0.152,0.03,0.207,0.09c0.054,0.061,0.08,0.133,0.08,0.217
						c0,0.12-0.018,0.216-0.053,0.288l-0.937,2.43c-0.06,0.132-0.126,0.231-0.198,0.297c-0.072,0.066-0.18,0.099-0.324,0.099h-0.558
						C1020.088,567.589,1020.017,567.557,1019.969,567.49z"/>
					<path fill="#3A54F5" d="M1030.615,576.832c-0.066-0.078-0.1-0.171-0.1-0.279c0-0.083,0.024-0.161,0.072-0.233l2.772-3.853
						c-0.288,0.072-0.624,0.108-1.009,0.108c-0.863-0.012-1.619-0.213-2.268-0.603c-0.648-0.391-1.143-0.9-1.484-1.53
						s-0.514-1.305-0.514-2.025c0-0.72,0.172-1.403,0.514-2.052s0.852-1.176,1.529-1.584s1.497-0.612,2.457-0.612
						c0.961,0,1.782,0.198,2.467,0.595c0.684,0.396,1.199,0.915,1.547,1.557c0.349,0.642,0.522,1.329,0.522,2.061
						c0,0.66-0.116,1.242-0.351,1.746s-0.543,1.026-0.928,1.566l-3.492,4.896c-0.084,0.108-0.164,0.195-0.242,0.262
						c-0.078,0.065-0.189,0.099-0.333,0.099h-0.899C1030.768,576.949,1030.682,576.91,1030.615,576.832z M1034.008,570.812
						c0.433-0.229,0.774-0.549,1.026-0.963s0.378-0.892,0.378-1.432c0-0.552-0.126-1.037-0.378-1.458
						c-0.252-0.42-0.594-0.744-1.026-0.972c-0.432-0.228-0.906-0.342-1.422-0.342c-0.504,0-0.969,0.114-1.395,0.342
						s-0.766,0.552-1.018,0.972c-0.252,0.421-0.377,0.906-0.377,1.458c0,0.54,0.125,1.018,0.377,1.432s0.588,0.734,1.008,0.963
						c0.42,0.228,0.889,0.342,1.404,0.342S1033.576,571.039,1034.008,570.812z"/>
					<path fill="#3A54F5" d="M1039.111,567.481c-0.055-0.072-0.069-0.162-0.045-0.271l0.396-2.52
						c0.048-0.348,0.216-0.522,0.504-0.522h1.152c0.083,0,0.153,0.03,0.207,0.09c0.054,0.061,0.081,0.133,0.081,0.217
						c0,0.12-0.018,0.216-0.055,0.288l-0.936,2.43c-0.061,0.132-0.126,0.231-0.198,0.297c-0.071,0.066-0.18,0.099-0.323,0.099
						h-0.559C1039.24,567.589,1039.165,567.553,1039.111,567.481z M1041.938,567.481c-0.055-0.072-0.07-0.162-0.045-0.271
						l0.396-2.52c0.048-0.348,0.216-0.522,0.504-0.522h1.151c0.084,0,0.154,0.03,0.207,0.09c0.055,0.061,0.082,0.133,0.082,0.217
						c0,0.12-0.019,0.216-0.055,0.288l-0.936,2.43c-0.061,0.132-0.126,0.231-0.198,0.297c-0.071,0.066-0.181,0.099-0.323,0.099
						h-0.559C1042.066,567.589,1041.991,567.553,1041.938,567.481z"/>
					<path fill="#3A54F5" d="M1050.82,580.576c-0.072-0.078-0.108-0.177-0.108-0.297v-19.044c0-0.12,0.036-0.219,0.108-0.297
						c0.071-0.078,0.168-0.117,0.287-0.117h0.666c0.12,0,0.219,0.039,0.297,0.117s0.117,0.177,0.117,0.297v19.044
						c0,0.12-0.039,0.219-0.117,0.297s-0.177,0.117-0.297,0.117h-0.666C1050.988,580.693,1050.892,580.654,1050.82,580.576z"/>
					<path fill="#3A54F5" d="M1060.846,576.67c-0.685-0.306-1.203-0.704-1.558-1.196s-0.543-1.002-0.567-1.53
						c0-0.108,0.037-0.195,0.108-0.261c0.072-0.066,0.162-0.1,0.271-0.1h0.81c0.132,0,0.24,0.027,0.324,0.081
						c0.083,0.054,0.149,0.159,0.198,0.315c0.155,0.611,0.494,1.044,1.017,1.296s1.137,0.378,1.845,0.378
						c0.864,0,1.551-0.207,2.062-0.621c0.51-0.414,0.765-1.005,0.765-1.773c0-1.464-0.895-2.195-2.682-2.195h-1.692
						c-0.12,0-0.219-0.039-0.297-0.117s-0.117-0.177-0.117-0.297v-0.468c0-0.181,0.065-0.336,0.198-0.469l3.51-3.888h-5.328
						c-0.119,0-0.219-0.036-0.297-0.108c-0.078-0.071-0.117-0.168-0.117-0.287v-0.648c0-0.132,0.039-0.237,0.117-0.315
						c0.078-0.077,0.178-0.116,0.297-0.116h7.129c0.131,0,0.236,0.039,0.314,0.116c0.078,0.078,0.117,0.184,0.117,0.315v0.594
						c0,0.133-0.061,0.271-0.18,0.414l-3.511,3.942h0.288c1.225,0.036,2.193,0.354,2.907,0.954c0.714,0.6,1.071,1.476,1.071,2.628
						c0,0.792-0.195,1.473-0.586,2.043c-0.39,0.57-0.933,1.008-1.629,1.313c-0.695,0.307-1.482,0.459-2.357,0.459
						C1062.34,577.129,1061.529,576.977,1060.846,576.67z"/>
					<path fill="#3A54F5" d="M1070.052,576.832c-0.078-0.078-0.116-0.177-0.116-0.297v-1.242c0-0.119,0.038-0.222,0.116-0.306
						s0.177-0.126,0.298-0.126h1.241c0.12,0,0.219,0.042,0.297,0.126s0.117,0.187,0.117,0.306v1.242c0,0.12-0.039,0.219-0.117,0.297
						s-0.177,0.117-0.297,0.117h-1.241C1070.229,576.949,1070.13,576.91,1070.052,576.832z"/>
					<path fill="#3A54F5" d="M1076.299,576.67c-0.715-0.306-1.27-0.747-1.666-1.322c-0.396-0.576-0.594-1.248-0.594-2.017
						c0-0.708,0.178-1.329,0.531-1.863c0.354-0.533,0.83-0.944,1.432-1.232c-0.48-0.276-0.854-0.639-1.117-1.089
						s-0.396-0.981-0.396-1.594c0-1.044,0.39-1.868,1.17-2.475c0.78-0.605,1.806-0.909,3.078-0.909s2.295,0.301,3.069,0.9
						c0.773,0.6,1.16,1.428,1.16,2.483c0,0.601-0.132,1.125-0.396,1.575c-0.265,0.45-0.63,0.819-1.099,1.107
						c0.601,0.288,1.078,0.699,1.432,1.232c0.354,0.534,0.531,1.161,0.531,1.882c0,0.768-0.198,1.437-0.594,2.007
						c-0.396,0.57-0.951,1.008-1.666,1.313c-0.714,0.307-1.527,0.459-2.438,0.459
						C1077.825,577.129,1077.012,576.977,1076.299,576.67z M1080.87,575.077c0.569-0.432,0.854-1.008,0.854-1.728
						c0-0.721-0.285-1.297-0.854-1.729s-1.28-0.647-2.133-0.647c-0.864,0-1.581,0.216-2.151,0.647s-0.854,1.008-0.854,1.729
						c0,0.72,0.284,1.296,0.854,1.728s1.287,0.648,2.151,0.648C1079.59,575.726,1080.301,575.509,1080.87,575.077z
						 M1080.592,569.029c0.504-0.36,0.756-0.84,0.756-1.44c0-0.611-0.25-1.101-0.748-1.467s-1.119-0.549-1.862-0.549
						c-0.756,0-1.38,0.183-1.872,0.549s-0.738,0.855-0.738,1.467c0,0.612,0.246,1.102,0.738,1.468s1.116,0.549,1.872,0.549
						C1079.469,569.581,1080.088,569.39,1080.592,569.029z"/>
					<path fill="#3A54F5" d="M1087.674,576.832c-0.066-0.078-0.1-0.171-0.1-0.279c0-0.083,0.024-0.161,0.072-0.233l2.772-3.853
						c-0.288,0.072-0.624,0.108-1.009,0.108c-0.863-0.012-1.619-0.213-2.268-0.603c-0.648-0.391-1.143-0.9-1.484-1.53
						s-0.514-1.305-0.514-2.025c0-0.72,0.172-1.403,0.514-2.052s0.852-1.176,1.529-1.584s1.497-0.612,2.457-0.612
						c0.961,0,1.782,0.198,2.467,0.595c0.684,0.396,1.199,0.915,1.547,1.557c0.349,0.642,0.522,1.329,0.522,2.061
						c0,0.66-0.116,1.242-0.351,1.746s-0.543,1.026-0.928,1.566l-3.492,4.896c-0.084,0.108-0.164,0.195-0.242,0.262
						c-0.078,0.065-0.189,0.099-0.333,0.099h-0.899C1087.826,576.949,1087.74,576.91,1087.674,576.832z M1091.066,570.812
						c0.433-0.229,0.774-0.549,1.026-0.963s0.378-0.892,0.378-1.432c0-0.552-0.126-1.037-0.378-1.458
						c-0.252-0.42-0.594-0.744-1.026-0.972c-0.432-0.228-0.906-0.342-1.422-0.342c-0.504,0-0.969,0.114-1.395,0.342
						s-0.766,0.552-1.018,0.972c-0.252,0.421-0.377,0.906-0.377,1.458c0,0.54,0.125,1.018,0.377,1.432s0.588,0.734,1.008,0.963
						c0.42,0.228,0.889,0.342,1.404,0.342S1090.635,571.039,1091.066,570.812z"/>
					<path fill="#3A54F5" d="M1100.975,576.832c-0.078-0.078-0.116-0.177-0.116-0.297v-8.532c0-0.119,0.038-0.219,0.116-0.297
						s0.178-0.117,0.298-0.117h0.756c0.12,0,0.216,0.039,0.288,0.117s0.107,0.178,0.107,0.297v0.612
						c0.648-0.804,1.524-1.206,2.629-1.206c1.319,0,2.256,0.552,2.808,1.656c0.288-0.504,0.698-0.906,1.233-1.206
						c0.533-0.3,1.131-0.45,1.791-0.45c0.983,0,1.787,0.336,2.412,1.008c0.623,0.673,0.936,1.645,0.936,2.916v5.202
						c0,0.12-0.039,0.219-0.117,0.297s-0.178,0.117-0.297,0.117h-0.773c-0.121,0-0.22-0.039-0.298-0.117s-0.116-0.177-0.116-0.297
						v-5.04c0-0.96-0.199-1.646-0.595-2.061s-0.918-0.621-1.565-0.621c-0.576,0-1.071,0.213-1.485,0.639s-0.621,1.107-0.621,2.043
						v5.04c0,0.12-0.039,0.219-0.117,0.297s-0.177,0.117-0.297,0.117h-0.792c-0.12,0-0.219-0.039-0.297-0.117
						s-0.117-0.177-0.117-0.297v-5.04c0-0.947-0.207-1.632-0.621-2.052s-0.927-0.63-1.539-0.63c-0.576,0-1.07,0.21-1.484,0.63
						s-0.621,1.098-0.621,2.034v5.058c0,0.12-0.039,0.219-0.117,0.297s-0.178,0.117-0.297,0.117h-0.792
						C1101.152,576.949,1101.053,576.91,1100.975,576.832z"/>
				</g>
			</g>
		</g>
	</g>
</g>
<g id="N-TEXT" display="none">
</g>
<g id="AG-DIAGRAM">
	<g id="POLYLINE_1665_">
		<g>
			<g>
				
					<line fill="none" stroke="#3A54F5" stroke-width="3" stroke-linecap="round" stroke-linejoin="round" x1="811.933" y1="115.454" x2="811.933" y2="117.954"/>
				
					<line fill="none" stroke="#3A54F5" stroke-width="3" stroke-linecap="round" stroke-linejoin="round" stroke-dasharray="4.9658,6.9522" x1="811.933" y1="124.906" x2="811.933" y2="359.79"/>
				
					<line fill="none" stroke="#3A54F5" stroke-width="3" stroke-linecap="round" stroke-linejoin="round" x1="811.933" y1="363.266" x2="811.933" y2="365.766"/>
			</g>
		</g>
	</g>
	<g id="POLYLINE_1664_">
		<g>
			<g>
				
					<line fill="none" stroke="#3A54F5" stroke-width="3" stroke-linecap="round" stroke-linejoin="round" x1="868.183" y1="115.454" x2="868.183" y2="117.954"/>
				
					<line fill="none" stroke="#3A54F5" stroke-width="3" stroke-linecap="round" stroke-linejoin="round" stroke-dasharray="4.9658,6.9522" x1="868.183" y1="124.906" x2="868.183" y2="359.79"/>
				
					<line fill="none" stroke="#3A54F5" stroke-width="3" stroke-linecap="round" stroke-linejoin="round" x1="868.183" y1="363.266" x2="868.183" y2="365.766"/>
			</g>
		</g>
	</g>
	<g id="POLYLINE_1663_">
		<g>
			<g>
				<path fill="none" stroke="#3A54F5" stroke-width="3" stroke-linecap="round" stroke-linejoin="round" d="M898.183,414.204v-2.5
					c0.834,0.005,1.668,0.017,2.502,0.036"/>
				
					<path fill="none" stroke="#3A54F5" stroke-width="3" stroke-linecap="round" stroke-linejoin="round" stroke-dasharray="4.905,6.867" d="
					M907.543,412.08c2.863,0.22,5.718,0.539,8.561,0.971c6.21,0.942,12.356,2.354,18.34,4.265
					c5.706,1.821,11.285,4.039,16.658,6.689c5.54,2.733,10.871,5.874,15.931,9.419c5.102,3.574,9.917,7.546,14.407,11.865
					c4.496,4.325,8.635,9.009,12.409,13.976c3.75,4.937,7.092,10.178,10.034,15.633c2.862,5.306,5.301,10.838,7.331,16.513
					c2.079,5.813,3.691,11.792,4.85,17.855c1.041,5.447,1.694,10.967,1.97,16.506"/>
				<path fill="none" stroke="#3A54F5" stroke-width="3" stroke-linecap="round" stroke-linejoin="round" d="M1018.154,529.204
					c0.016,0.833,0.024,1.666,0.029,2.5h-2.5"/>
				
					<line fill="none" stroke="#3A54F5" stroke-width="3" stroke-linecap="round" stroke-linejoin="round" stroke-dasharray="5,7" x1="1008.683" y1="531.704" x2="904.183" y2="531.704"/>
				<polyline fill="none" stroke="#3A54F5" stroke-width="3" stroke-linecap="round" stroke-linejoin="round" points="
					900.683,531.704 898.183,531.704 898.183,529.204 				"/>
				
					<line fill="none" stroke="#3A54F5" stroke-width="3" stroke-linecap="round" stroke-linejoin="round" stroke-dasharray="5,7" x1="898.183" y1="522.204" x2="898.183" y2="417.704"/>
			</g>
		</g>
	</g>
	<g id="POLYLINE_1662_">
		<g>
			<g>
				
					<line fill="none" stroke="#3A54F5" stroke-width="3" stroke-linecap="round" stroke-linejoin="round" x1="148.183" y1="587.954" x2="150.683" y2="587.954"/>
				
					<line fill="none" stroke="#3A54F5" stroke-width="3" stroke-linecap="round" stroke-linejoin="round" stroke-dasharray="4.9114,6.876" x1="157.559" y1="587.954" x2="448.808" y2="587.954"/>
				
					<line fill="none" stroke="#3A54F5" stroke-width="3" stroke-linecap="round" stroke-linejoin="round" x1="452.246" y1="587.954" x2="454.746" y2="587.954"/>
			</g>
		</g>
	</g>
	<g id="POLYLINE_1661_">
		<g>
			<g>
				
					<line fill="none" stroke="#3A54F5" stroke-width="3" stroke-linecap="round" stroke-linejoin="round" x1="148.183" y1="531.704" x2="150.683" y2="531.704"/>
				
					<line fill="none" stroke="#3A54F5" stroke-width="3" stroke-linecap="round" stroke-linejoin="round" stroke-dasharray="4.9114,6.876" x1="157.559" y1="531.704" x2="448.808" y2="531.704"/>
				
					<line fill="none" stroke="#3A54F5" stroke-width="3" stroke-linecap="round" stroke-linejoin="round" x1="452.246" y1="531.704" x2="454.746" y2="531.704"/>
			</g>
		</g>
	</g>
	<g id="POLYLINE_1660_">
		<g>
			<g>
				<path fill="none" stroke="#3A54F5" stroke-width="3" stroke-linecap="round" stroke-linejoin="round" d="M265.683,520.454h2.5
					c-0.005-0.834-0.017-1.668-0.036-2.502"/>
				
					<path fill="none" stroke="#3A54F5" stroke-width="3" stroke-linecap="round" stroke-linejoin="round" stroke-dasharray="4.905,6.867" d="
					M267.807,511.094c-0.22-2.863-0.539-5.718-0.97-8.561c-0.942-6.21-2.355-12.356-4.265-18.34
					c-1.821-5.706-4.039-11.285-6.69-16.658c-2.733-5.54-5.873-10.871-9.418-15.931c-3.574-5.102-7.546-9.917-11.865-14.407
					c-4.325-4.496-9.009-8.635-13.976-12.409c-4.936-3.75-10.178-7.092-15.633-10.034c-5.306-2.862-10.838-5.301-16.513-7.331
					c-5.814-2.079-11.792-3.691-17.855-4.85c-5.447-1.042-10.967-1.694-16.506-1.97"/>
				<path fill="none" stroke="#3A54F5" stroke-width="3" stroke-linecap="round" stroke-linejoin="round" d="M150.683,400.483
					c-0.833-0.016-1.666-0.024-2.5-0.029v2.5"/>
				
					<line fill="none" stroke="#3A54F5" stroke-width="3" stroke-linecap="round" stroke-linejoin="round" stroke-dasharray="5,7" x1="148.183" y1="409.954" x2="148.183" y2="514.454"/>
				<polyline fill="none" stroke="#3A54F5" stroke-width="3" stroke-linecap="round" stroke-linejoin="round" points="
					148.183,517.954 148.183,520.454 150.683,520.454 				"/>
				
					<line fill="none" stroke="#3A54F5" stroke-width="3" stroke-linecap="round" stroke-linejoin="round" stroke-dasharray="5,7" x1="157.683" y1="520.454" x2="262.183" y2="520.454"/>
			</g>
		</g>
	</g>
</g>
<g id="AG-ANIMALS">
</g>
<g id="AG-PEOPLE">
	<g id="POLYLINE_1558_">
		
			<path fill="none" stroke="#3A54F5" stroke-width="2.5" stroke-linecap="round" stroke-linejoin="round" stroke-miterlimit="10" d="
			M1045.946,352.977c0.089,1.403,0.208,2.79,0.479,4.172c0.224,1.142,0.57,2.321,0.599,3.493c0.052,2.087-1.639,3.994-2.392,5.854
			c-0.484,1.196-0.774,2.448-1.08,3.698c-0.383,1.56-0.865,3.072-1.339,4.606c-0.46,1.491-0.835,2.903,0.472,4.065
			c0.798,0.709,1.763,1.238,2.666,1.796c0.762,0.472,1.572,1.012,2.457,1.228c1.377,0.337,2.943-0.66,3.626-1.832
			c1.057-1.812,1.079-4.282,1.344-6.305c0.394-3.013,0.662-6.103,1.655-8.994c0.524-1.526,1.327-2.977,1.148-4.636
			c-0.121-1.118-0.482-2.205-0.696-3.308c-0.284-1.461-0.458-2.944-0.591-4.426c-0.069-0.766-0.117-1.532-0.16-2.299"/>
	</g>
	<g id="POLYLINE_1529_">
		
			<path fill="none" stroke="#3A54F5" stroke-width="2.5" stroke-linecap="round" stroke-linejoin="round" stroke-miterlimit="10" d="
			M1075.857,311.229c-1.544,0.996-3.241,1.8-4.97,2.419c-1.202,0.431-2.448,0.487-3.653,0.85c-1.804,0.544-3.077,2.363-2.887,4.235
			c0.292,2.88,2.67,5.063,4.23,7.302c1.577,2.264,1.954,5.037,2.363,7.704c0.313,2.043,0.482,4.214,1.145,6.185
			c0.357,1.06,1.024,1.963,1.406,3.011c0.541,1.486,0.943,6.479,3.335,6.657c1.748,0.13,1.939-2.809,1.692-3.992
			c-0.434-2.078-1.543-3.868-1.376-6.047c0.148-1.935,0.715-3.819,0.917-5.751c0.228-2.181,0.257-4.376,0.411-6.562
			c0.241-3.409,1.44-6.143,3.491-8.875c0.454-0.605,0.941-1.186,1.476-1.721"/>
	</g>
	<g id="POLYLINE_840_">
		
			<path fill="none" stroke="#3A54F5" stroke-width="2.5" stroke-linecap="round" stroke-linejoin="round" stroke-miterlimit="10" d="
			M1040.836,199.578c1.348,3.972,1.902,8.194,1.593,12.379c-0.148,2.003-0.482,4.011-1.117,5.92
			c-0.79,2.376-2.247,4.354-3.316,6.591c-0.715,1.495-0.87,3.082-1.033,4.713"/>
	</g>
	<g id="POLYLINE_839_">
		
			<path fill="none" stroke="#3A54F5" stroke-width="2.5" stroke-linecap="round" stroke-linejoin="round" stroke-miterlimit="10" d="
			M1036.963,229.181c0.792-0.12,1.445-0.287,2.257-0.238c1.348,0.081,2.696,0.264,4.033,0.443c3.164,0.423,6.303,0.974,9.502,0.991
			c1.599,0.008,3.202-0.039,4.793-0.205"/>
	</g>
	<g id="POLYLINE_838_">
		
			<path fill="none" stroke="#3A54F5" stroke-width="2.5" stroke-linecap="round" stroke-linejoin="round" stroke-miterlimit="10" d="
			M1091.975,264.502c0.687,0.323,2.865,1.914,3.582,1.14c1.009-1.089-1.099-2.604-1.73-3.131c-0.797-0.667-1.598-1.392-2.57-1.783"
			/>
	</g>
	<g id="POLYLINE_837_">
		
			<path fill="none" stroke="#3A54F5" stroke-width="2.5" stroke-linecap="round" stroke-linejoin="round" stroke-miterlimit="10" d="
			M1095.994,254.941c1.771,1.256,2.437,2.98,2.151,5.072c-0.16,1.17-0.258,2.359-0.517,3.514"/>
	</g>
	<g id="POLYLINE_836_">
		
			<path fill="none" stroke="#3A54F5" stroke-width="2.5" stroke-linecap="round" stroke-linejoin="round" stroke-miterlimit="10" d="
			M1091.256,260.727c-0.457-2.401-0.914-4.802-1.371-7.204c-0.295-1.548-0.589-3.097-0.884-4.645
			c-0.117-0.613-0.378-1.334-0.356-1.967c0.019-0.555,0.357-0.9,0.865-1.063c1.058-0.339,2.448-0.608,3.557-0.676
			c1.175-0.072,1.255,0.989,1.424,1.872c1.139,5.984,2.278,11.969,3.417,17.953c0.444,2.332,0.888,4.663,1.331,6.995
			c0.205,1.076-0.025,1.676-1.186,1.899c-1.018,0.195-2.376,0.74-3.417,0.598c-0.518-0.07-0.792-0.432-0.932-0.9
			c-0.33-1.105-0.443-2.326-0.658-3.458c-0.301-1.581-0.602-3.161-0.902-4.742c-0.056-0.296-0.113-0.592-0.169-0.888"/>
	</g>
	<g id="POLYLINE_835_">
		
			<path fill="none" stroke="#3A54F5" stroke-width="2.5" stroke-linecap="round" stroke-linejoin="round" stroke-miterlimit="10" d="
			M1069.303,229.205c2.579,3.633,5.314,7.13,8.133,10.579c2.454,3.003,4.896,6.379,7.925,8.839c1.238,1.005,2.215,1.016,3.753,0.851
			"/>
	</g>
	<g id="POLYLINE_832_">
		
			<path fill="none" stroke="#3A54F5" stroke-width="2.5" stroke-linecap="round" stroke-linejoin="round" stroke-miterlimit="10" d="
			M1092.761,245.23c-1.609-1.68-3.259-3.321-4.126-5.513c-1.016-2.568-2.408-5.171-4.325-7.189c-1.732-1.822-4.088-2.6-6.179-3.902
			c-0.396-0.246-0.781-0.515-1.088-0.871c-0.307-0.356-0.441-0.862-0.771-1.186c-0.739-0.725-1.394,0.069-1.919,0.616
			c-1.335,1.393-3.127,2.025-5.049,2.02"/>
	</g>
	<g id="POLYLINE_831_">
		
			<path fill="none" stroke="#3A54F5" stroke-width="2.5" stroke-linecap="round" stroke-linejoin="round" stroke-miterlimit="10" d="
			M1069.303,229.205c-1.997-5.208-4.418-10.254-7.026-15.182c-1.372-2.592-2.776-5.169-4.295-7.678
			c-1.349-2.228-2.996-4.324-4.11-6.684c-1.213-2.571-1.989-5.37-2.573-8.145"/>
	</g>
	<g id="POLYLINE_830_">
		
			<path fill="none" stroke="#3A54F5" stroke-width="2.5" stroke-linecap="round" stroke-linejoin="round" stroke-miterlimit="10" d="
			M1084.431,192.949c1.375,3.59,2.859,7.157,4.055,10.812c0.648,1.981,1.233,4.078,0.99,6.182c-0.273,2.358-1.25,4.771-0.853,7.176
			c0.135,0.817,0.526,1.467,1.06,2.085c0.758,0.877,1.348,1.83,2.064,2.738c0.792,1.005,1.885,1.392,2.961,2.018
			c0.762,0.443,1.576,1.295,2.49,1.417c0.844,0.112,1.201-0.721,1.449-1.389c0.517-1.396,0.781-2.916,1.066-4.372
			c0.472-2.413,0.793-4.962,0.065-7.357c-0.844-2.777-2.871-4.936-3.966-7.588c-1.317-3.193-1.54-6.908-1.865-10.311
			c-0.346-3.628-0.574-7.271-0.554-10.916c0.005-0.893,0.027-1.786,0.053-2.678"/>
	</g>
	<g id="POLYLINE_829_">
		
			<path fill="none" stroke="#3A54F5" stroke-width="2.5" stroke-linecap="round" stroke-linejoin="round" stroke-miterlimit="10" d="
			M1036.963,229.181c-0.477,1.906-1.107,3.775-1.386,5.726c-0.259,1.812-0.281,3.652-0.266,5.479
			c0.026,3.237,0.212,6.468,0.414,9.698c0.591,9.432,1.32,18.866,1.728,28.308c0.167,3.865,0.339,7.758-0.052,11.615
			c-0.201,1.979-0.444,3.889-0.162,5.873c0.283,1.995,0.807,3.952,1.229,5.92c0.406,1.89,0.758,3.797-0.057,5.62
			c-1.138,2.544-0.546,5.5-0.203,8.179c1.073,8.375,2.536,16.724,3.908,25.054c0.347,2.106,0.831,4.18,1.274,6.267
			c0.342,1.611,0.385,3.202,0.584,4.827c0.132,1.082,0.731,1.261,1.738,1.238c1.083-0.025,2.17-0.232,3.204-0.547
			c1.769-0.539,3.4-1.468,5.057-2.271c1.572-0.762,3.204-1.361,4.847-1.95c1.014-0.364,2.682-0.688,3.373-1.628
			c0.581-0.791,0.372-2.08,0.257-2.975c-0.498-3.882-1.672-7.756-2.74-11.511c-0.651-2.288,0.223-4.725,0.677-6.978
			c0.823-4.081,1.677-8.179,2.049-12.332c0.349-3.895-0.296-7.638-0.67-11.503c-0.38-3.924-0.501-7.938-0.194-11.872
			c0.104-1.331,0.246-2.701,0.715-3.961c0.435-1.172,1.205-2.17,1.757-3.284c1.631-3.289,2.118-7.217,2.916-10.758
			c0.364-1.618,0.729-3.257,1.286-4.822c0.302-0.85,0.736-2.068,1.607-2.499c0.809-0.4,1.563,0.195,2.124,0.743
			c1.128,1.101,2.094,2.253,3.36,3.216c3.011,2.289,6.394,4.247,9.797,5.889c1.635,0.789,3.33,1.31,5.034,1.917
			c0.914,0.326,1.649,0.829,1.979,1.783c0.801,2.317-1.485,4.397-2.318,6.364c-0.514,1.213-0.665,2.586-1.267,3.756
			c-0.503,0.978-1.568,1.635-2.245,2.505c-1.658,2.129-3.216,4.674-3.729,7.346c-0.257,1.34-1.379,2.314-2.24,3.303
			c-1.211,1.392-2.345,2.833-3.327,4.398c-0.745,1.187-1.517,2.45-1.948,3.792c-0.349,1.086-0.104,1.533,0.815,2.142
			c3.328,2.206,6.378,4.796,9.819,6.844c1.957,1.165,4.35,2.383,6.712,2.235c1.502-0.094,1.735-1.769,2.265-2.948
			c0.77-1.712,1.599-3.409,2.566-5.019c0.949-1.579,2.108-3.027,2.978-4.653c0.87-1.626,1.287-3.424,1.933-5.141
			c1.043-2.77,3.003-4.41,5.028-6.502c2.425-2.505,3.769-5.648,5.518-8.617c1.288-2.187,3.635-3.989,4.301-6.501
			c0.56-2.111-0.045-4.48-0.758-6.474c-1.254-3.503-3.347-6.658-5.58-9.607c-2.495-3.296-5.246-6.396-8.044-9.436
			c-2.65-2.878-5.404-5.655-8.147-8.444"/>
	</g>
	<g id="POLYLINE_828_">
		
			<path fill="none" stroke="#3A54F5" stroke-width="2.5" stroke-linecap="round" stroke-linejoin="round" stroke-miterlimit="10" d="
			M1088.765,164.273c-0.825-2.575-2.287-4.99-3.39-7.456c-0.63-1.409-1.402-2.344-2.853-2.934c-0.866-0.352-1.774-0.613-2.598-1.063
			c-0.709-0.387-1.322-0.917-1.976-1.385c-0.904-0.647-1.845-1.076-2.976-1.107c-3.745-0.102-7.166,2.226-9.495,4.96
			c-1.678,1.971-3.063,4.21-4.063,6.598c-0.633,1.512-1.293,3.247-1.229,4.922c0.054,1.395,0.957,2.539,0.96,3.951
			c0.003,1.562-0.343,3.127,0.052,4.67c0.293,1.143,0.934,2.192,1.683,3.092c1.022,1.226,2.449,1.807,3.575,2.907
			c2.355,2.302,4.887,5.733,8.609,5.224c1.808-0.247,3.46-1.14,5.244-1.519c1.473-0.313,2.872-0.828,3.702-2.195
			c0.652-1.075,0.531-2.328,1.408-3.321c1.095-1.241,2.559-2.112,3.463-3.531c0.657-1.031,0.844-2.206,0.82-3.412
			c-0.026-1.3-0.29-2.575-0.437-3.863c-0.124-1.088-0.065-2.19-0.214-3.274C1088.995,165.139,1088.765,164.662,1088.765,164.273z"/>
	</g>
	<g id="POLYLINE_827_">
		
			<path fill="none" stroke="#3A54F5" stroke-width="2.5" stroke-linecap="round" stroke-linejoin="round" stroke-miterlimit="10" d="
			M1075.113,226.44c0.479-0.614,0.896-1.102,1.132-1.862c0.349-1.125,0.524-2.315,0.706-3.475c0.486-3.089,0.872-6.184,1.505-9.248
			c1.221-5.908,2.582-12.105,5.261-17.548c2.638-5.36,6.92-9.834,10.509-14.55c0.818-1.075,1.404-2.129,1.502-3.499
			c0.167-2.343-0.179-4.898-0.885-7.134c-0.772-2.445-2.409-4.477-5.147-4.645c-0.288-0.018-0.575-0.014-0.86,0.037"/>
	</g>
	<g id="POLYLINE_826_">
		
			<path fill="none" stroke="#3A54F5" stroke-width="2.5" stroke-linecap="round" stroke-linejoin="round" stroke-miterlimit="10" d="
			M1060.261,167.461c-3.955-0.234-7.626,1.068-11.17,2.737c-3.269,1.54-6.657,3.525-8.557,6.712
			c-1.848,3.101-2.13,6.973-2.018,10.499c0.138,4.363,1.174,8.635,2.514,12.771c1.441,4.447,3.174,8.874,5.443,12.969
			c2.207,3.984,5.072,7.569,7.521,11.405c2.629,4.117,5.063,8.438,8.101,12.278c3.002,3.794,6.904,6.272,10.718,9.149
			c3.865,2.916,7.26,6.484,10.068,10.425c2.629,3.689,4.61,7.852,7.729,11.174c0.77,0.82,1.586,1.599,2.385,2.39"/>
	</g>
	<g id="POLYLINE_825_">
		
			<path fill="none" stroke="#3A54F5" stroke-width="2.5" stroke-linecap="round" stroke-linejoin="round" stroke-miterlimit="10" d="
			M541.526,467.213c2.01,0.681,3.104,2.521,4.19,4.224c2.257,3.541,3.559,7.242,3.84,11.432c0.291,4.338,0.262,9.117-1.634,13.117
			c-1.008,2.127-2.565,4.451-5.005,5.016c-2.014,0.466-4.162,0.683-6.204,1.037c-1.261,0.219-2.625,0.441-3.896,0.154
			c-2.679-0.605-4.189-3.643-5.213-5.906c-1.79-3.956-2.693-8.494-2.881-12.822c-0.158-3.631,0.232-7.546,1.722-10.896
			c0.824-1.853,2.104-3.339,3.937-4.239c2.793-1.372,6.365-1.847,9.441-1.479C540.401,466.919,540.975,467.027,541.526,467.213z"/>
	</g>
	<g id="POLYLINE_824_">
		
			<path fill="none" stroke="#3A54F5" stroke-width="2.5" stroke-linecap="round" stroke-linejoin="round" stroke-miterlimit="10" d="
			M546.994,497.667c-0.008,1.277-0.314,2.845-1.3,3.738c-1.272,1.153-3.212,0.753-4.662,1.54c-0.925,0.502-1.121,1.284-1.494,2.183
			c-0.388,0.935-1.014,0.635-1.481-0.124c-0.477-0.776-0.593-1.386-1.597-1.518c-1.03-0.135-2.073,0.119-3.105,0.06
			c-1.656-0.094-2.867-1.537-3.232-3.088"/>
	</g>
	<g id="POLYLINE_823_">
		
			<path fill="none" stroke="#3A54F5" stroke-width="2.5" stroke-linecap="round" stroke-linejoin="round" stroke-miterlimit="10" d="
			M549.642,484.897c3.263-1.158,6.562-2.151,10-2.623c1.356-0.186,2.754-0.279,4.07-0.682c0.883-0.27,1.63-0.57,2.564-0.366
			c0.806,0.176,1.576,0.548,2.299,0.931c0.639,0.339,1.253,0.72,1.848,1.131c0.344,0.237,0.724,0.578,1.158,0.63
			c0.876,0.105,1.683-0.797,2.222-1.378c0.966-1.04,1.787-2.223,2.564-3.408c1.37-2.089,3.175-4.662,3.507-7.212
			c0.248-1.909-1.244-3.323-2.515-4.526c-2.573-2.435-5.371-4.719-8.529-6.355c-2.76-1.43-5.784-2.312-8.849-2.789
			c-7.144-1.112-14.3,0.272-21.367,1.298c-3.607,0.524-7.212,1.044-10.843,1.372c-3.845,0.348-7.708,0.389-11.558,0.659
			c-3.491,0.245-6.995,0.718-10.219,2.154c-3.234,1.44-5.923,3.729-8.221,6.392c-2.326,2.695-4.645,5.633-6.552,8.636
			c-0.43,0.677-0.856,1.47-0.478,2.265c0.491,1.033,1.864,1.706,2.777,2.279c1.692,1.062,3.421,2.091,4.939,3.4
			c1.105,0.952,1.966,2.138,3.047,3.109c1.798,1.614,3.162,0.094,4.427-1.367c1.316-1.52,2.597-2.321,4.604-2.679
			c3.078-0.549,6.327,0.169,9.374,0.6c1.714,0.242,3.418,0.445,5.147,0.541"/>
	</g>
	<g id="POLYLINE_822_">
		
			<path fill="none" stroke="#3A54F5" stroke-width="2.5" stroke-linecap="round" stroke-linejoin="round" stroke-miterlimit="10" d="
			M502.28,490.388c-1.145,1.155-2.296,2.303-3.442,3.457c-0.543,0.547-1.314,1.235-1.492,2.024
			c-0.208,0.921,0.618,1.699,1.111,2.368c0.959,1.302,1.81,2.686,2.655,4.064c1.722,2.81,3.346,5.656,4.707,8.658
			c0.566,1.248,1.515,2.155,2.69,2.844c1.824,1.069,3.997,1.457,5.651,2.829c1.39,1.154,2.153,2.774,2.686,4.466
			c0.303,0.963,0.736,2.079,0.742,3.103c0.006,1.014-0.811,0.424-1.277,0.001c-1.214-1.102-1.733-2.847-3.294-3.58
			c-0.978-0.459-0.93,0.244-0.686,1.002c0.489,1.521,1.05,3.012,1.517,4.542c0.502,1.644,1.135,3.236,1.681,4.864
			c0.224,0.667,0.403,1.296-0.362,1.642c-1.485,0.672-3.868,0.316-5.376-0.098c-0.875-0.24-1.669-0.642-2.35-1.244
			c-1.761-1.556-3.028-3.866-4.205-5.868c-0.83-1.411-1.906-3.116-1.617-4.837c0.14-0.833,0.32-1.487,0.08-2.325
			c-0.252-0.88-0.713-1.705-1.175-2.489c-1.648-2.793-3.8-5.244-5.971-7.638c-2.238-2.468-4.556-4.866-6.947-7.187
			c-1.543-1.498-3.202-3.026-3.893-5.129c-0.439-1.337-0.289-2.634,0.267-3.903c1.095-2.499,2.94-4.799,4.61-6.934
			c0.873-1.116,1.791-2.197,2.78-3.213"/>
	</g>
	<g id="POLYLINE_821_">
		
			<path fill="none" stroke="#3A54F5" stroke-width="2.5" stroke-linecap="round" stroke-linejoin="round" stroke-miterlimit="10" d="
			M579.908,471.353c2.362,1.994,4.557,4.207,6.682,6.449c1.255,1.324,2.55,2.781,3.078,4.569c0.344,1.165,0.3,2.334-0.102,3.475
			c-0.971,2.761-2.561,5.392-3.939,7.964c-1.593,2.972-3.325,5.87-5.003,8.794c-0.949,1.654-2.141,3.415-2.521,5.315
			c-0.381,1.904,0.187,3.906,0.179,5.825c-0.01,2.363-0.714,4.641-1.538,6.834c-0.52,1.383-1.029,2.791-1.659,4.128
			c-0.304,0.645-0.667,1.293-1.211,1.767c-0.541,0.471-1.223,0.708-1.907,0.885c-1.173,0.304-2.405,0.65-3.598,0.855
			c-0.728,0.126-1.18-0.002-1.259-0.798c-0.118-1.187,0.19-2.483,0.301-3.656c0.27-2.843,0.643-5.769,0.568-8.628
			c-0.022-0.822-0.173-1.348-0.793-0.445c-0.805,1.174-1.528,2.38-2.446,3.474c-0.276,0.329-1.146,1.539-1.594,1.06
			c-0.389-0.416,0.036-1.986,0.11-2.436c0.334-2.052,0.592-4.23,1.638-6.066c0.823-1.446,1.981-2.474,3.381-3.34
			c1.135-0.703,2.077-1.351,2.766-2.512c1.486-2.504,2.428-5.423,3.477-8.126c0.961-2.477,2.111-5.069,2.541-7.707
			c0.294-1.802-0.617-2.746-1.893-3.943c-0.684-0.642-1.414-1.242-2.21-1.741"/>
	</g>
	<g id="POLYLINE_807_">
		
			<path fill="none" stroke="#3A54F5" stroke-width="2.5" stroke-linecap="round" stroke-linejoin="round" stroke-miterlimit="10" d="
			M570.45,483.307c1.813,3.6,3.433,7.276,4.996,10.99"/>
	</g>
	<g id="POLYLINE_806_">
		
			<path fill="none" stroke="#3A54F5" stroke-width="2.5" stroke-linecap="round" stroke-linejoin="round" stroke-miterlimit="10" d="
			M501.119,502.312c0.509-3.92,1.055-7.827,1.728-11.722"/>
	</g>
	<g id="POLYLINE_805_">
		
			<path fill="none" stroke="#3A54F5" stroke-width="2.5" stroke-linecap="round" stroke-linejoin="round" stroke-miterlimit="10" d="
			M527.695,496.484c-2.771,2.862-4.068,6.94-5.012,10.715c-1.179,4.713-1.866,9.545-2.515,14.354
			c-0.457,3.384-0.914,6.767-1.371,10.151"/>
	</g>
	<g id="POLYLINE_804_">
		
			<path fill="none" stroke="#3A54F5" stroke-width="2.5" stroke-linecap="round" stroke-linejoin="round" stroke-miterlimit="10" d="
			M498.138,531.704c-0.088-4.538,0.49-8.99,1.041-13.484c0.155-1.268,0.311-2.536,0.466-3.804"/>
	</g>
	<g id="POLYLINE_803_">
		
			<path fill="none" stroke="#3A54F5" stroke-width="2.5" stroke-linecap="round" stroke-linejoin="round" stroke-miterlimit="10" d="
			M579.459,504.696c1.39,3.923,2.79,7.842,4.051,11.809c1.172,3.688,2.068,7.449,1.973,11.347c-0.032,1.295-0.158,2.629-0.616,3.852
			"/>
	</g>
	<g id="POLYLINE_802_">
		
			<path fill="none" stroke="#3A54F5" stroke-width="2.5" stroke-linecap="round" stroke-linejoin="round" stroke-miterlimit="10" d="
			M567.413,531.704c-1.167-2.555-2.051-5.234-3.104-7.837c-0.984-2.432-2.006-4.847-3.053-7.253
			c-2.441-5.607-4.613-11.562-7.873-16.766c-1.28-2.043-2.811-3.965-4.884-5.249"/>
	</g>
	<g id="POLYLINE_801_">
		
			<path fill="none" stroke="#3A54F5" stroke-width="2.5" stroke-linecap="round" stroke-linejoin="round" stroke-miterlimit="10" d="
			M418.82,349.256c2.362,0.077,4.78,0.036,6.98,1.007"/>
	</g>
	<g id="POLYLINE_800_">
		
			<path fill="none" stroke="#3A54F5" stroke-width="2.5" stroke-linecap="round" stroke-linejoin="round" stroke-miterlimit="10" d="
			M418.749,349.58c2.052,0.179,3.386,0.646,5.132,1.725"/>
	</g>
	<g id="POLYLINE_799_">
		
			<path fill="none" stroke="#3A54F5" stroke-width="2.5" stroke-linecap="round" stroke-linejoin="round" stroke-miterlimit="10" d="
			M417.919,350.046c0.717,0.297,1.548,0.945,1.648,1.766"/>
	</g>
	<g id="POLYLINE_798_">
		
			<path fill="none" stroke="#3A54F5" stroke-width="2.5" stroke-linecap="round" stroke-linejoin="round" stroke-miterlimit="10" d="
			M409.651,351.773c0.805-2.171,2.567-2.785,4.697-3.063"/>
	</g>
	<g id="POLYLINE_797_">
		
			<path fill="none" stroke="#3A54F5" stroke-width="2.5" stroke-linecap="round" stroke-linejoin="round" stroke-miterlimit="10" d="
			M406.622,348.334c2.475-1.053,4.927-0.389,7.507-0.238"/>
	</g>
	<g id="POLYLINE_796_">
		
			<path fill="none" stroke="#3A54F5" stroke-width="2.5" stroke-linecap="round" stroke-linejoin="round" stroke-miterlimit="10" d="
			M405.587,346.826c2.871-0.864,5.375-0.202,8.214,0.607"/>
	</g>
	<g id="POLYLINE_758_">
		
			<path fill="none" stroke="#3A54F5" stroke-width="2.5" stroke-linecap="round" stroke-linejoin="round" stroke-miterlimit="10" d="
			M412.538,339.303c-0.123-0.801-0.105-1.496-0.155-2.301c-0.027-0.423-0.342-1.409-0.117-1.833
			c0.203-0.382,0.475-0.125,0.783,0.052c0.948,0.545,2.156,1.677,3.302,1.66c0.695-0.01,1.32-0.183,2.017-0.034
			c0.765,0.163,1.593,0.41,2.343,0.64c0.864,0.264,1.355,0.841,2.036,1.384c0.796,0.634,2.301,0.25,3.231,0.191
			c0.311-0.02,2.092-0.387,2.315-0.138c0.161,0.18-0.341,0.493-0.523,0.677c-0.915,0.921-1.794,1.992-2.491,3.089
			c-0.476,0.749-0.258,1.246-0.34,2.058c-0.087,0.857-0.926,1.129-1.519,1.593c-0.66,0.516-0.435,1.551-1.231,1.913
			c-0.753,0.342-1.666,0.189-2.396,0.649c-0.386,0.243-0.563,0.669-0.919,0.941c-0.329,0.252-0.771,0.35-1.164,0.454
			c-1.534,0.408-2.807-0.03-3.783-1.323c-0.281-0.373-0.527-0.83-0.594-1.298c-0.048-0.335,0.051-0.673-0.039-1.003
			c-0.223-0.817-1.172-1.733-1.645-2.416c-0.488-0.703-1.342-1.478-1.325-2.413c0.014-0.794,0.719-1.303,1.33-1.693
			C411.95,339.96,412.595,339.753,412.538,339.303z"/>
	</g>
	<g id="POLYLINE_757_">
		
			<path fill="none" stroke="#3A54F5" stroke-width="2.5" stroke-linecap="round" stroke-linejoin="round" stroke-miterlimit="10" d="
			M368.447,371.745c-0.51,1.199-1.073,2.386-1.551,3.597c-0.2,0.507-0.353,1.037-0.244,1.586c0.333,1.671,1.908,0.951,2.666,0.075"
			/>
	</g>
	<g id="POLYLINE_756_">
		
			<path fill="none" stroke="#3A54F5" stroke-width="2.5" stroke-linecap="round" stroke-linejoin="round" stroke-miterlimit="10" d="
			M383.741,361.524c5.658,1.108,10.887-1.185,16.473-1.479c3.249-0.171,4.901,4.382,6.237,6.573
			c1.609,2.639,3.159,5.307,4.619,8.031c0.736,1.374,1.463,2.755,2.127,4.166c0.409,0.871,0.714,2.095,1.484,2.747
			c1.114,0.943,2.529,0.24,2.751-1.106c0.299-1.808-0.936-3.568-1.705-5.084c-1.291-2.546-2.474-5.143-3.402-7.846
			c-0.462-1.347-1.086-3.012-0.411-4.403c0.552-1.138,1.954-2.183,3.075-2.675c0.606-0.266,1.052-0.174,1.601,0.175
			c0.988,0.627,1.894,1.415,2.813,2.135c2.468,1.934,4.894,3.772,7.567,5.416c1.853,1.14,3.621,2.194,5.018,3.882
			c0.624,0.755,2.385,3.421,3.767,2.886c1.103-0.427-0.089-2.614-0.442-3.229c-1.126-1.964-2.332-4.074-3.952-5.682
			c-1.99-1.976-4.342-3.551-6.238-5.63c-0.975-1.07-1.676-2.163-1.688-3.655c-0.018-2.36,0-4.755-0.622-7.058
			c-0.141-0.52-0.324-1.028-0.568-1.509"/>
	</g>
	<g id="POLYLINE_745_">
		
			<path fill="none" stroke="#3A54F5" stroke-width="2.5" stroke-linecap="round" stroke-linejoin="round" stroke-miterlimit="10" d="
			M375.278,382.452c0.6,1.256,1.819,2.979,3.476,2.537c1.868-0.499-0.077-3.278-0.535-4.072c-0.885-1.533-1.122-3.144-1.216-4.903
			c-0.042-0.787-0.117-1.675,0.194-2.422c0.57-1.369,1.683-2.662,2.499-3.881c1.688-2.521,3.418-5.171,4.045-8.186"/>
	</g>
	<g id="POLYLINE_744_">
		
			<path fill="none" stroke="#3A54F5" stroke-width="2.5" stroke-linecap="round" stroke-linejoin="round" stroke-miterlimit="10" d="
			M380.601,358.194c-0.684,2.066-1.706,4.001-2.746,5.905c-1.13,2.069-2.264,4.036-3.679,5.923
			c-1.265,1.687-1.748,3.692-1.359,5.777c0.407,2.175,1.515,4.257,2.37,6.275"/>
	</g>
	<g id="POLYLINE_743_">
		
			<path fill="none" stroke="#3A54F5" stroke-width="2.5" stroke-linecap="round" stroke-linejoin="round" stroke-miterlimit="10" d="
			M410.3,342.125c-3.367-1.511-7.216-2.279-10.78-3.189c-3.442-0.879-6.95-1.617-10.518-1.616c-3.441,0.002-6.95,0.607-10.225,1.653
			c-2.88,0.92-5.928,2.184-8.318,4.073c-1.688,1.335-3.841,3.087-4.394,5.292c-0.63,2.51-0.004,5.414,0.599,7.866
			c0.805,3.272,2.012,6.731,2.093,10.127c0.034,1.424-0.286,2.833-0.324,4.256c-0.037,1.431,0.133,2.862,0.396,4.266
			c0.333,1.775,0.851,3.505,1.42,5.217c0.391,1.176,0.773,2.353,1.458,3.396c0.477,0.727,1.046,1.535,2.001,1.532
			c1.037-0.004,1.592-0.85,1.63-1.818c0.015-0.373-0.051-0.75-0.154-1.107"/>
	</g>
</g>
<g id="AG-FURNITURE">
	<g id="POLYLINE_742_">
		
			<path fill="none" stroke="#3A54F5" stroke-width="2.5" stroke-linecap="round" stroke-linejoin="round" stroke-miterlimit="10" d="
			M1112.871,133.395c-2.092,0-3.688,1.725-3.75,3.766c-0.123,4.01,0,8.042,0,12.053c0,7.61,0,15.219,0,22.829
			c0,5.488,0,10.976,0,16.464c0,1.949,0.307,3.837,2.413,4.641c0.611,0.233,1.228,0.246,1.869,0.246c1.395,0,2.791,0,4.186,0
			c5.802,0,11.604,0,17.406,0c7.709,0,15.418,0,23.127,0c7.102,0,14.204,0,21.306,0c3.887,0,7.774,0,11.661,0
			c1.837,0,3.55-0.757,4.124-2.674c0.212-0.706,0.158-1.453,0.158-2.181c0-2.12,0-4.241,0-6.361c0-7.259,0-14.517,0-21.776
			c0-6.553,0-13.107,0-19.66c0-1.944,0.467-4.52-0.965-6.108c-1.328-1.473-3.197-1.239-4.983-1.239c-4.949,0-9.897,0-14.846,0
			c-7.51,0-15.021,0-22.531,0c-7.461,0-14.922,0-22.383,0c-4.9,0-9.801,0-14.701,0
			C1114.265,133.395,1113.568,133.395,1112.871,133.395z"/>
	</g>
	<g id="POLYLINE_739_">
		
			<path fill="none" stroke="#3A54F5" stroke-width="2.5" stroke-linecap="round" stroke-linejoin="round" stroke-miterlimit="10" d="
			M1003.137,130.457c0.006-4.139,3.414-7.435,7.505-7.503c2.987-0.05,5.979,0,8.967,0c7.709,0,15.417,0,23.126,0
			c10.782,0,21.564,0,32.347,0c12.115,0,24.231,0,36.346,0c11.796,0,23.592,0,35.388,0c9.799,0,19.597,0,29.396,0
			c6.123,0,12.246,0,18.37,0c2.659,0,5.434-0.304,7.773,1.238c2.53,1.668,3.375,4.334,3.375,7.21c0,3.61,0,7.221,0,10.831
			c0,7.005,0,14.01,0,21.015c0,9.527,0,19.055,0,28.582c0,11.232,0,22.465,0,33.697c0,12.105,0,24.211,0,36.316
			c0,12.146,0,24.292,0,36.438c0,11.355,0,22.709,0,34.064c0,9.731,0,19.462,0,29.193c0,7.275,0,14.55,0,21.825
			c0,3.987,0,7.974,0,11.961c0,2.647-0.347,5.122-2.432,7.034c-2.221,2.038-4.889,1.974-7.675,1.974c-5.661,0-11.322,0-16.982,0
			c-9.505,0-19.01,0-28.515,0c-11.671,0-23.342,0-35.013,0c-12.159,0-24.318,0-36.477,0c-10.969,0-21.938,0-32.907,0
			c-8.1,0-16.201,0-24.302,0c-3.553,0-7.109,0.034-10.662,0c-3.678-0.035-6.916-2.587-7.527-6.279
			c-0.34-2.056-0.101-4.307-0.101-6.375c0-5.464,0-10.929,0-16.393c0-8.404,0-16.808,0-25.212c0-10.512,0-21.023,0-31.535
			c0-11.787,0-23.574,0-35.361c0-12.23,0-24.461,0-36.691c0-11.841,0-23.683,0-35.524c0-10.62,0-21.24,0-31.861
			c0-8.567,0-17.134,0-25.701c0-5.681,0-11.363,0-17.044C1003.137,134.391,1003.137,132.424,1003.137,130.457z"/>
	</g>
	<g id="POLYLINE_738_">
		
			<line fill="none" stroke="#3A54F5" stroke-width="2.5" stroke-linecap="round" stroke-linejoin="round" stroke-miterlimit="10" x1="283.183" y1="203.708" x2="485.683" y2="203.708"/>
	</g>
	<g id="POLYLINE_737_">
		
			<path fill="none" stroke="#3A54F5" stroke-width="2.5" stroke-linecap="round" stroke-linejoin="round" stroke-miterlimit="10" d="
			M392.871,133.395c-2.092,0-3.688,1.725-3.75,3.766c-0.123,4.01,0,8.042,0,12.053c0,7.61,0,15.219,0,22.829
			c0,5.488,0,10.976,0,16.464c0,1.949,0.307,3.837,2.413,4.641c0.611,0.233,1.228,0.246,1.869,0.246c1.395,0,2.791,0,4.186,0
			c5.802,0,11.604,0,17.406,0c7.709,0,15.418,0,23.127,0c7.102,0,14.204,0,21.306,0c3.887,0,7.774,0,11.661,0
			c1.837,0,3.55-0.757,4.124-2.674c0.212-0.706,0.158-1.453,0.158-2.181c0-2.12,0-4.241,0-6.361c0-7.259,0-14.517,0-21.776
			c0-6.553,0-13.107,0-19.66c0-1.944,0.467-4.52-0.965-6.108c-1.328-1.473-3.197-1.239-4.983-1.239c-4.949,0-9.897,0-14.846,0
			c-7.51,0-15.021,0-22.531,0c-7.461,0-14.922,0-22.383,0c-4.9,0-9.801,0-14.701,0C394.265,133.395,393.568,133.395,392.871,133.395
			z"/>
	</g>
	<g id="POLYLINE_736_">
		
			<path fill="none" stroke="#3A54F5" stroke-width="2.5" stroke-linecap="round" stroke-linejoin="round" stroke-miterlimit="10" d="
			M297.246,133.395c-2.092,0-3.688,1.725-3.75,3.766c-0.123,4.01,0,8.042,0,12.053c0,7.61,0,15.219,0,22.829
			c0,5.488,0,10.976,0,16.464c0,1.949,0.307,3.837,2.413,4.641c0.611,0.233,1.228,0.246,1.869,0.246c1.395,0,2.791,0,4.186,0
			c5.802,0,11.604,0,17.406,0c7.709,0,15.418,0,23.127,0c7.102,0,14.204,0,21.306,0c3.887,0,7.774,0,11.661,0
			c1.837,0,3.55-0.757,4.124-2.674c0.212-0.706,0.158-1.453,0.158-2.181c0-2.12,0-4.241,0-6.361c0-7.259,0-14.517,0-21.776
			c0-6.553,0-13.107,0-19.66c0-1.944,0.467-4.52-0.965-6.108c-1.328-1.473-3.197-1.239-4.983-1.239c-4.949,0-9.897,0-14.846,0
			c-7.51,0-15.021,0-22.531,0c-7.461,0-14.922,0-22.383,0c-4.9,0-9.801,0-14.701,0C298.64,133.395,297.943,133.395,297.246,133.395z
			"/>
	</g>
	<g id="POLYLINE_735_">
		
			<path fill="none" stroke="#3A54F5" stroke-width="2.5" stroke-linecap="round" stroke-linejoin="round" stroke-miterlimit="10" d="
			M283.137,130.457c0.006-4.139,3.414-7.435,7.505-7.503c2.987-0.05,5.979,0,8.967,0c7.709,0,15.417,0,23.126,0
			c10.782,0,21.564,0,32.347,0c12.115,0,24.231,0,36.346,0c11.796,0,23.592,0,35.388,0c9.799,0,19.597,0,29.396,0
			c6.123,0,12.246,0,18.37,0c2.659,0,5.434-0.304,7.773,1.238c2.53,1.668,3.375,4.334,3.375,7.21c0,3.61,0,7.221,0,10.831
			c0,7.005,0,14.01,0,21.015c0,9.527,0,19.055,0,28.582c0,11.232,0,22.465,0,33.697c0,12.105,0,24.211,0,36.316
			c0,12.146,0,24.292,0,36.438c0,11.355,0,22.709,0,34.064c0,9.731,0,19.462,0,29.193c0,7.275,0,14.55,0,21.825
			c0,3.987,0,7.974,0,11.961c0,2.647-0.346,5.122-2.432,7.034c-2.221,2.038-4.889,1.974-7.675,1.974c-5.661,0-11.322,0-16.982,0
			c-9.505,0-19.01,0-28.515,0c-11.671,0-23.342,0-35.013,0c-12.159,0-24.318,0-36.477,0c-10.969,0-21.938,0-32.907,0
			c-8.1,0-16.201,0-24.302,0c-3.553,0-7.109,0.034-10.662,0c-3.678-0.035-6.916-2.587-7.527-6.279
			c-0.34-2.056-0.101-4.307-0.101-6.375c0-5.464,0-10.929,0-16.393c0-8.404,0-16.808,0-25.212c0-10.512,0-21.023,0-31.535
			c0-11.787,0-23.574,0-35.361c0-12.23,0-24.461,0-36.691c0-11.841,0-23.683,0-35.524c0-10.62,0-21.24,0-31.861
			c0-8.567,0-17.134,0-25.701c0-5.681,0-11.363,0-17.044C283.137,134.391,283.137,132.424,283.137,130.457z"/>
	</g>
	<g id="POLYLINE_734_">
		
			<line fill="none" stroke="#3A54F5" stroke-width="2.5" stroke-linecap="round" stroke-linejoin="round" stroke-miterlimit="10" x1="1003.183" y1="203.708" x2="1041.938" y2="203.708"/>
	</g>
	<g id="POLYLINE_733_">
		
			<line fill="none" stroke="#3A54F5" stroke-width="2.5" stroke-linecap="round" stroke-linejoin="round" stroke-miterlimit="10" x1="1080.402" y1="203.708" x2="1088.469" y2="203.708"/>
	</g>
	<g id="POLYLINE_732_">
		
			<line fill="none" stroke="#3A54F5" stroke-width="2.5" stroke-linecap="round" stroke-linejoin="round" stroke-miterlimit="10" x1="1095.46" y1="203.708" x2="1205.683" y2="203.708"/>
	</g>
	<g id="POLYLINE_731_">
		
			<line fill="none" stroke="#3A54F5" stroke-width="2.5" stroke-linecap="round" stroke-linejoin="round" stroke-miterlimit="10" x1="1084.186" y1="193.395" x2="1084.602" y2="193.395"/>
	</g>
	<g id="POLYLINE_730_">
		
			<path fill="none" stroke="#3A54F5" stroke-width="2.5" stroke-linecap="round" stroke-linejoin="round" stroke-miterlimit="10" d="
			M1093.855,193.395c2.23,0,4.598,0.14,5.61-2.326c0.642-1.566,0.281-3.728,0.281-5.35c0-11.674,0-23.348,0-35.022
			c0-4.19,0-8.38,0-12.569c0-1.616-0.176-3.099-1.658-4.095c-1.123-0.755-2.404-0.638-3.688-0.638c-3.632,0-7.265,0-10.897,0
			c-12.293,0-24.585,0-36.878,0c-9.302,0-18.604,0-27.906,0c-1.283,0-2.538-0.094-3.645,0.693c-1.466,1.041-1.579,2.54-1.579,4.163
			c0,10.689,0,21.378,0,32.067c0,5.207,0,10.415,0,15.622c0,1.584-0.35,3.698,0.317,5.215c0.8,1.819,2.455,2.24,4.24,2.24
			c5.557,0,11.114,0,16.672,0c1.499,0,2.998,0,4.497,0"/>
	</g>
</g>
<g id="AG-LAYOUT">
	<g id="POLYLINE_694_">
		
			<rect x="1340.683" y="246.704" fill="none" stroke="#3A54F5" stroke-width="2.5" stroke-linecap="round" stroke-linejoin="round" stroke-miterlimit="10" width="16.875" height="157.5"/>
	</g>
	<g id="POLYLINE_693_">
		
			<rect x="1213.229" y="122.954" fill="none" stroke="#3A54F5" stroke-width="2.5" stroke-linecap="round" stroke-linejoin="round" stroke-miterlimit="10" width="67.5" height="60"/>
	</g>
	<g id="POLYLINE_692_">
		
			<rect x="928.137" y="122.954" fill="none" stroke="#3A54F5" stroke-width="2.5" stroke-linecap="round" stroke-linejoin="round" stroke-miterlimit="10" width="67.5" height="60"/>
	</g>
	<g id="POLYLINE_691_">
		
			<line fill="none" stroke="#3A54F5" stroke-width="2.5" stroke-linecap="round" stroke-linejoin="round" stroke-miterlimit="10" x1="868.183" y1="382.641" x2="868.183" y2="531.704"/>
	</g>
	<g id="POLYLINE_690_">
		
			<line fill="none" stroke="#3A54F5" stroke-width="2.5" stroke-linecap="round" stroke-linejoin="round" stroke-miterlimit="10" x1="845.683" y1="351.478" x2="778.183" y2="351.478"/>
	</g>
	<g id="POLYLINE_689_">
		
			<line fill="none" stroke="#3A54F5" stroke-width="2.5" stroke-linecap="round" stroke-linejoin="round" stroke-miterlimit="10" x1="845.555" y1="228.419" x2="778.312" y2="222.536"/>
	</g>
	<g id="POLYLINE_688_">
		
			<line fill="none" stroke="#3A54F5" stroke-width="2.5" stroke-linecap="round" stroke-linejoin="round" stroke-miterlimit="10" x1="845.683" y1="130.978" x2="778.183" y2="130.978"/>
	</g>
	<g id="POLYLINE_687_">
		
			<line fill="none" stroke="#3A54F5" stroke-width="2.5" stroke-linecap="round" stroke-linejoin="round" stroke-miterlimit="10" x1="845.683" y1="178.228" x2="778.183" y2="178.228"/>
	</g>
	<g id="POLYLINE_686_">
		
			<line fill="none" stroke="#3A54F5" stroke-width="2.5" stroke-linecap="round" stroke-linejoin="round" stroke-miterlimit="10" x1="845.683" y1="335.728" x2="778.183" y2="335.728"/>
	</g>
	<g id="POLYLINE_685_">
		
			<line fill="none" stroke="#3A54F5" stroke-width="2.5" stroke-linecap="round" stroke-linejoin="round" stroke-miterlimit="10" x1="845.555" y1="322.919" x2="778.312" y2="317.036"/>
	</g>
	<g id="POLYLINE_684_">
		
			<line fill="none" stroke="#3A54F5" stroke-width="2.5" stroke-linecap="round" stroke-linejoin="round" stroke-miterlimit="10" x1="845.555" y1="301.286" x2="778.312" y2="307.169"/>
	</g>
	<g id="POLYLINE_683_">
		
			<line fill="none" stroke="#3A54F5" stroke-width="2.5" stroke-linecap="round" stroke-linejoin="round" stroke-miterlimit="10" x1="845.683" y1="288.478" x2="778.183" y2="288.478"/>
	</g>
	<g id="POLYLINE_682_">
		
			<line fill="none" stroke="#3A54F5" stroke-width="2.5" stroke-linecap="round" stroke-linejoin="round" stroke-miterlimit="10" x1="845.555" y1="275.669" x2="778.312" y2="269.786"/>
	</g>
	<g id="POLYLINE_681_">
		
			<line fill="none" stroke="#3A54F5" stroke-width="2.5" stroke-linecap="round" stroke-linejoin="round" stroke-miterlimit="10" x1="845.683" y1="256.978" x2="778.183" y2="256.978"/>
	</g>
	<g id="POLYLINE_680_">
		
			<line fill="none" stroke="#3A54F5" stroke-width="2.5" stroke-linecap="round" stroke-linejoin="round" stroke-miterlimit="10" x1="845.683" y1="241.228" x2="778.183" y2="241.228"/>
	</g>
	<g id="POLYLINE_679_">
		
			<line fill="none" stroke="#3A54F5" stroke-width="2.5" stroke-linecap="round" stroke-linejoin="round" stroke-miterlimit="10" x1="845.555" y1="196.919" x2="778.312" y2="191.036"/>
	</g>
	<g id="POLYLINE_678_">
		
			<line fill="none" stroke="#3A54F5" stroke-width="2.5" stroke-linecap="round" stroke-linejoin="round" stroke-miterlimit="10" x1="845.683" y1="146.728" x2="778.183" y2="146.728"/>
	</g>
	<g id="POLYLINE_677_">
		
			<line fill="none" stroke="#3A54F5" stroke-width="2.5" stroke-linecap="round" stroke-linejoin="round" stroke-miterlimit="10" x1="845.555" y1="159.536" x2="778.312" y2="165.419"/>
	</g>
	<g id="POLYLINE_676_">
		
			<line fill="none" stroke="#3A54F5" stroke-width="2.5" stroke-linecap="round" stroke-linejoin="round" stroke-miterlimit="10" x1="845.555" y1="206.786" x2="778.312" y2="212.669"/>
	</g>
	<g id="POLYLINE_622_">
		
			<polyline fill="none" stroke="#3A54F5" stroke-width="2.5" stroke-linecap="round" stroke-linejoin="round" stroke-miterlimit="10" points="
			868.183,487.173 883.183,487.173 883.183,427.173 868.183,427.173 		"/>
	</g>
	<g id="POLYLINE_621_">
		
			<rect x="493.229" y="122.954" fill="none" stroke="#3A54F5" stroke-width="2.5" stroke-linecap="round" stroke-linejoin="round" stroke-miterlimit="10" width="67.5" height="60"/>
	</g>
	<g id="POLYLINE_458_">
		
			<rect x="208.137" y="122.954" fill="none" stroke="#3A54F5" stroke-width="2.5" stroke-linecap="round" stroke-linejoin="round" stroke-miterlimit="10" width="67.5" height="60"/>
	</g>
	<g id="POLYLINE_455_">
		
			<line fill="none" stroke="#3A54F5" stroke-width="2.5" stroke-linecap="round" stroke-linejoin="round" stroke-miterlimit="10" x1="233.929" y1="554.332" x2="239.812" y2="621.576"/>
	</g>
	<g id="POLYLINE_453_">
		
			<line fill="none" stroke="#3A54F5" stroke-width="2.5" stroke-linecap="round" stroke-linejoin="round" stroke-miterlimit="10" x1="186.679" y1="554.332" x2="192.562" y2="621.576"/>
	</g>
	<g id="POLYLINE_429_">
		
			<line fill="none" stroke="#3A54F5" stroke-width="2.5" stroke-linecap="round" stroke-linejoin="round" stroke-miterlimit="10" x1="173.871" y1="554.204" x2="173.871" y2="621.704"/>
	</g>
	<g id="POLYLINE_409_">
		
			<line fill="none" stroke="#3A54F5" stroke-width="2.5" stroke-linecap="round" stroke-linejoin="round" stroke-miterlimit="10" x1="224.062" y1="554.332" x2="218.179" y2="621.576"/>
	</g>
	<g id="POLYLINE_408_">
		
			<line fill="none" stroke="#3A54F5" stroke-width="2.5" stroke-linecap="round" stroke-linejoin="round" stroke-miterlimit="10" x1="268.371" y1="554.204" x2="268.371" y2="621.704"/>
	</g>
	<g id="POLYLINE_280_">
		
			<line fill="none" stroke="#3A54F5" stroke-width="2.5" stroke-linecap="round" stroke-linejoin="round" stroke-miterlimit="10" x1="284.121" y1="554.204" x2="284.121" y2="621.704"/>
	</g>
	<g id="POLYLINE_279_">
		
			<line fill="none" stroke="#3A54F5" stroke-width="2.5" stroke-linecap="round" stroke-linejoin="round" stroke-miterlimit="10" x1="302.812" y1="554.332" x2="296.929" y2="621.576"/>
	</g>
	<g id="POLYLINE_278_">
		
			<line fill="none" stroke="#3A54F5" stroke-width="2.5" stroke-linecap="round" stroke-linejoin="round" stroke-miterlimit="10" x1="315.621" y1="554.204" x2="315.621" y2="621.704"/>
	</g>
	<g id="POLYLINE_274_">
		
			<line fill="none" stroke="#3A54F5" stroke-width="2.5" stroke-linecap="round" stroke-linejoin="round" stroke-miterlimit="10" x1="328.429" y1="554.332" x2="334.312" y2="621.576"/>
	</g>
	<g id="POLYLINE_273_">
		
			<line fill="none" stroke="#3A54F5" stroke-width="2.5" stroke-linecap="round" stroke-linejoin="round" stroke-miterlimit="10" x1="350.062" y1="554.332" x2="344.179" y2="621.576"/>
	</g>
	<g id="POLYLINE_231_">
		
			<line fill="none" stroke="#3A54F5" stroke-width="2.5" stroke-linecap="round" stroke-linejoin="round" stroke-miterlimit="10" x1="362.871" y1="554.204" x2="362.871" y2="621.704"/>
	</g>
	<g id="POLYLINE_230_">
		
			<line fill="none" stroke="#3A54F5" stroke-width="2.5" stroke-linecap="round" stroke-linejoin="round" stroke-miterlimit="10" x1="205.371" y1="554.204" x2="205.371" y2="621.704"/>
	</g>
	<g id="POLYLINE_229_">
		
			<line fill="none" stroke="#3A54F5" stroke-width="2.5" stroke-linecap="round" stroke-linejoin="round" stroke-miterlimit="10" x1="158.121" y1="554.204" x2="158.121" y2="621.704"/>
	</g>
	<g id="POLYLINE_228_">
		
			<line fill="none" stroke="#3A54F5" stroke-width="2.5" stroke-linecap="round" stroke-linejoin="round" stroke-miterlimit="10" x1="255.562" y1="554.332" x2="249.679" y2="621.576"/>
	</g>
	<g id="POLYLINE_209_">
		
			<line fill="none" stroke="#3A54F5" stroke-width="2.5" stroke-linecap="round" stroke-linejoin="round" stroke-miterlimit="10" x1="410.121" y1="554.204" x2="410.121" y2="621.704"/>
	</g>
	<g id="POLYLINE_208_">
		
			<line fill="none" stroke="#3A54F5" stroke-width="2.5" stroke-linecap="round" stroke-linejoin="round" stroke-miterlimit="10" x1="428.812" y1="554.332" x2="422.929" y2="621.576"/>
	</g>
	<g id="POLYLINE_207_">
		
			<line fill="none" stroke="#3A54F5" stroke-width="2.5" stroke-linecap="round" stroke-linejoin="round" stroke-miterlimit="10" x1="378.621" y1="554.204" x2="378.621" y2="621.704"/>
	</g>
	<g id="POLYLINE_125_">
		
			<line fill="none" stroke="#3A54F5" stroke-width="2.5" stroke-linecap="round" stroke-linejoin="round" stroke-miterlimit="10" x1="391.429" y1="554.332" x2="397.312" y2="621.576"/>
	</g>
	<g id="POLYLINE_124_">
		
			<line fill="none" stroke="#3A54F5" stroke-width="2.5" stroke-linecap="round" stroke-linejoin="round" stroke-miterlimit="10" x1="438.679" y1="554.332" x2="444.562" y2="621.576"/>
	</g>
	<g id="POLYLINE_123_">
		
			<rect x="620.683" y="246.704" fill="none" stroke="#3A54F5" stroke-width="2.5" stroke-linecap="round" stroke-linejoin="round" stroke-miterlimit="10" width="16.875" height="157.5"/>
	</g>
	<g id="POLYLINE_121_">
		
			<line fill="none" stroke="#3A54F5" stroke-width="2.5" stroke-linecap="round" stroke-linejoin="round" stroke-miterlimit="10" x1="522.858" y1="506.52" x2="556.844" y2="506.52"/>
	</g>
	<g id="POLYLINE_115_">
		
			<polyline fill="none" stroke="#3A54F5" stroke-width="2.5" stroke-linecap="round" stroke-linejoin="round" stroke-miterlimit="10" points="
			563.758,459.065 563.758,446.52 503.758,446.52 503.758,464.902 		"/>
	</g>
	<g id="POLYLINE_77_">
		
			<line fill="none" stroke="#3A54F5" stroke-width="2.5" stroke-linecap="round" stroke-linejoin="round" stroke-miterlimit="10" x1="471.621" y1="531.704" x2="507.909" y2="531.704"/>
	</g>
	<g id="POLYLINE_76_">
		
			<line fill="none" stroke="#3A54F5" stroke-width="2.5" stroke-linecap="round" stroke-linejoin="round" stroke-miterlimit="10" x1="515.721" y1="531.704" x2="620.683" y2="531.704"/>
	</g>
</g>
<g id="AG-OUTLINE">
	<g id="POLYLINE_31_">
		
			<polygon fill="none" stroke="#3A54F5" stroke-width="3.5" stroke-linecap="round" stroke-linejoin="round" stroke-miterlimit="10" points="
			1018.183,548.579 1018.183,531.704 1340.683,531.704 1340.683,404.204 1357.558,404.204 1357.558,548.579 		"/>
	</g>
	<g id="POLYLINE_30_">
		
			<polygon fill="none" stroke="#3A54F5" stroke-width="3.5" stroke-linecap="round" stroke-linejoin="round" stroke-miterlimit="10" points="
			898.183,531.704 898.183,548.579 750.058,548.579 750.058,98.579 1357.558,98.579 1357.558,246.704 1340.683,246.704 
			1340.683,115.454 766.933,115.454 766.933,365.766 868.183,365.766 868.183,382.641 766.933,382.641 766.933,531.704 		"/>
	</g>
	<g id="POLYLINE_2_">
		
			<polygon fill="none" stroke="#3A54F5" stroke-width="3.5" stroke-linecap="round" stroke-linejoin="round" stroke-miterlimit="10" points="
			131.308,400.454 148.183,400.454 148.183,115.454 620.683,115.454 620.683,246.704 637.558,246.704 637.558,98.579 
			131.308,98.579 		"/>
	</g>
	<g id="POLYLINE_1_">
		
			<polygon fill="none" stroke="#3A54F5" stroke-width="3.5" stroke-linecap="round" stroke-linejoin="round" stroke-miterlimit="10" points="
			148.183,520.454 131.308,520.454 131.308,649.829 637.558,649.829 637.558,404.204 620.683,404.204 620.683,632.954 
			471.621,632.954 471.621,531.704 454.746,531.704 454.746,632.954 148.183,632.954 		"/>
	</g>
</g>
<g id="AG-WALL">
</g>
</svg>
