<?xml version="1.0" encoding="utf-8"?>
<!-- Generator: Adobe Illustrator 23.0.1, SVG Export Plug-In . SVG Version: 6.00 Build 0)  -->
<!DOCTYPE svg PUBLIC "-//W3C//DTD SVG 1.1//EN" "http://www.w3.org/Graphics/SVG/1.1/DTD/svg11.dtd" [
	<!ENTITY ns_flows "http://ns.adobe.com/Flows/1.0/">
	<!ENTITY ns_extend "http://ns.adobe.com/Extensibility/1.0/">
	<!ENTITY ns_ai "http://ns.adobe.com/AdobeIllustrator/10.0/">
	<!ENTITY ns_graphs "http://ns.adobe.com/Graphs/1.0/">
	<!ENTITY ns_vars "http://ns.adobe.com/Variables/1.0/">
	<!ENTITY ns_imrep "http://ns.adobe.com/ImageReplacement/1.0/">
	<!ENTITY ns_sfw "http://ns.adobe.com/SaveForWeb/1.0/">
	<!ENTITY ns_custom "http://ns.adobe.com/GenericCustomNamespace/1.0/">
	<!ENTITY ns_adobe_xpath "http://ns.adobe.com/XPath/1.0/">
]>
<svg version="1.1" xmlns:x="&ns_extend;" xmlns:i="&ns_ai;" xmlns:graph="&ns_graphs;"
	 xmlns="http://www.w3.org/2000/svg" xmlns:xlink="http://www.w3.org/1999/xlink" xmlns:a="http://ns.adobe.com/AdobeSVGViewerExtensions/3.0/"
	 x="0px" y="0px" viewBox="0 0 1500 750" enable-background="new 0 0 1500 750" xml:space="preserve">
<metadata>
	<sfw  xmlns="&ns_sfw;">
		<slices></slices>
		<sliceSourceBounds  bottomLeftOrigin="true" height="3256" width="8941.377" x="-966" y="-1656"></sliceSourceBounds>
	</sfw>
</metadata>
<g id="FILL-BACKGROUND" display="none">
	<rect display="inline" fill="#FFFFFF" width="1500" height="750"/>
</g>
<g id="N-DIMENSIONS" display="none">
	<g id="MTEXT_164_" display="inline">
		<g>
			<g>
				<path fill="#3A54F5" d="M99.485,63.702v-2.376h4.572v12.708h-2.664V63.702H99.485z"/>
				<path fill="#3A54F5" d="M112.851,61.29c0.618,0.3,1.086,0.714,1.404,1.242c0.318,0.528,0.477,1.116,0.477,1.764
					c0,0.816-0.222,1.485-0.666,2.007s-1.032,0.843-1.764,0.963v0.09c1.776,0.528,2.664,1.572,2.664,3.132
					c0,1.092-0.366,1.977-1.098,2.655c-0.732,0.678-1.764,1.017-3.096,1.017c-1.416,0-2.544-0.351-3.384-1.053
					c-0.84-0.702-1.308-1.761-1.404-3.177h2.484c0.06,0.648,0.273,1.161,0.639,1.539c0.366,0.378,0.885,0.567,1.557,0.567
					c0.576,0,1.026-0.159,1.35-0.477c0.324-0.318,0.486-0.735,0.486-1.251c0-0.612-0.234-1.08-0.702-1.404
					c-0.468-0.324-1.158-0.486-2.07-0.486h-0.522v-2.07h0.522c1.68,0.024,2.52-0.558,2.52-1.746c0-0.516-0.15-0.921-0.45-1.215
					s-0.708-0.441-1.224-0.441c-0.54,0-0.984,0.171-1.332,0.513c-0.349,0.342-0.546,0.819-0.594,1.431h-2.484
					c0.072-1.296,0.492-2.295,1.26-2.997c0.768-0.702,1.836-1.053,3.204-1.053C111.492,60.84,112.232,60.99,112.851,61.29z"/>
				<path fill="#3A54F5" d="M116.207,63.702v-2.376h4.572v12.708h-2.664V63.702H116.207z"/>
				<path fill="#3A54F5" d="M130.373,62.658c-0.3,0.264-0.45,0.726-0.45,1.386v0.018h2.016v2.142h-2.016v7.83h-2.538v-7.83h-1.278
					v-2.142h1.278v-0.234c0-1.188,0.339-2.103,1.017-2.745c0.678-0.642,1.683-0.963,3.015-0.963c0.228,0,0.402,0.006,0.522,0.018
					v2.196C131.195,62.286,130.673,62.395,130.373,62.658z"/>
				<path fill="#3A54F5" d="M138.778,71.856v2.178h-1.332c-1.116,0-1.971-0.27-2.565-0.81c-0.594-0.54-0.891-1.44-0.891-2.7v-4.32
					h-1.386v-2.142h1.386v-2.466h2.538v2.466h2.232v2.142h-2.232v4.356c0,0.48,0.096,0.816,0.288,1.008
					c0.192,0.192,0.516,0.288,0.972,0.288H138.778z"/>
				<path fill="#3A54F5" d="M143.39,62.783c0-0.329-0.079-0.588-0.236-0.777c-0.157-0.189-0.404-0.283-0.74-0.283
					c-0.692,0-1.06,0.472-1.102,1.417h-1.438c0.042-0.874,0.308-1.537,0.798-1.988c0.489-0.451,1.108-0.677,1.857-0.677
					c0.762,0,1.348,0.198,1.757,0.593c0.41,0.395,0.614,0.922,0.614,1.579c0,0.518-0.152,1.038-0.457,1.559s-0.691,1-1.16,1.438
					c-0.469,0.438-0.962,0.813-1.479,1.128h3.243v1.207h-5.216v-1.102C142.204,65.231,143.39,63.867,143.39,62.783z"/>
				<path fill="#3A54F5" d="M152.674,76.212h-2.538V59.49h2.538V76.212z"/>
				<path fill="#3A54F5" d="M157.641,63.702v-2.376h4.572v12.708h-2.664V63.702H157.641z"/>
				<path fill="#3A54F5" d="M170.133,65.016c0-0.564-0.135-1.008-0.405-1.332c-0.27-0.324-0.693-0.486-1.269-0.486
					c-1.188,0-1.818,0.81-1.89,2.43h-2.466c0.072-1.5,0.528-2.637,1.368-3.411s1.902-1.161,3.186-1.161
					c1.308,0,2.313,0.339,3.015,1.017c0.702,0.678,1.053,1.581,1.053,2.709c0,0.888-0.261,1.779-0.783,2.673
					c-0.522,0.894-1.186,1.716-1.989,2.466c-0.804,0.75-1.65,1.395-2.538,1.935h5.562v2.07h-8.946v-1.89
					C168.099,69.216,170.133,66.876,170.133,65.016z"/>
				<path fill="#3A54F5" d="M176.811,71.388v2.646h-2.736v-2.646H176.811z"/>
				<path fill="#3A54F5" d="M177.566,63.702v-2.376h4.572v12.708h-2.664V63.702H177.566z"/>
				<path fill="#3A54F5" d="M203.927,65.043c0.702,0.75,1.053,1.815,1.053,3.195v5.796h-2.52v-5.508
					c0-0.768-0.195-1.359-0.585-1.773c-0.39-0.414-0.927-0.621-1.611-0.621c-0.708,0-1.272,0.222-1.692,0.666
					s-0.63,1.092-0.63,1.944v5.292h-2.52v-5.508c0-0.768-0.195-1.359-0.585-1.773c-0.39-0.414-0.927-0.621-1.611-0.621
					c-0.708,0-1.272,0.222-1.692,0.666s-0.63,1.092-0.63,1.944v5.292h-2.538v-9.972h2.538v1.89c0.264-0.648,0.681-1.149,1.251-1.503
					s1.233-0.531,1.989-0.531c0.804,0,1.503,0.192,2.097,0.576c0.594,0.384,1.041,0.936,1.341,1.656
					c0.312-0.684,0.777-1.227,1.395-1.629c0.618-0.402,1.311-0.603,2.079-0.603C202.268,63.918,203.226,64.293,203.927,65.043z"/>
				<path fill="#3A54F5" d="M210.006,62.783c0-0.329-0.079-0.588-0.236-0.777c-0.157-0.189-0.404-0.283-0.74-0.283
					c-0.692,0-1.06,0.472-1.102,1.417h-1.438c0.042-0.874,0.308-1.537,0.798-1.988c0.489-0.451,1.108-0.677,1.857-0.677
					c0.762,0,1.348,0.198,1.757,0.593c0.41,0.395,0.614,0.922,0.614,1.579c0,0.518-0.152,1.038-0.457,1.559s-0.691,1-1.16,1.438
					c-0.469,0.438-0.962,0.813-1.479,1.128h3.243v1.207h-5.216v-1.102C208.82,65.231,210.006,63.867,210.006,62.783z"/>
			</g>
		</g>
	</g>
	<g id="MTEXT_163_" display="inline">
		<g>
			<g>
				<path fill="#3A54F5" d="M739.485,62.702v-2.376h4.572v12.708h-2.664V62.702H739.485z"/>
				<path fill="#3A54F5" d="M751.978,64.016c0-0.564-0.136-1.008-0.405-1.332c-0.27-0.324-0.693-0.486-1.269-0.486
					c-1.188,0-1.818,0.81-1.89,2.43h-2.467c0.072-1.5,0.528-2.637,1.368-3.411s1.901-1.161,3.187-1.161
					c1.307,0,2.312,0.339,3.015,1.017c0.702,0.678,1.053,1.581,1.053,2.709c0,0.888-0.261,1.779-0.782,2.673
					c-0.522,0.894-1.186,1.716-1.99,2.466c-0.804,0.75-1.649,1.395-2.537,1.935h5.562v2.07h-8.946v-1.89
					C749.943,68.216,751.978,65.876,751.978,64.016z"/>
				<path fill="#3A54F5" d="M757.134,61.514c0.343-0.528,0.853-0.954,1.53-1.278c0.678-0.324,1.496-0.486,2.457-0.486
					c0.96,0,1.779,0.162,2.457,0.486c0.678,0.324,1.188,0.75,1.529,1.278c0.343,0.528,0.514,1.098,0.514,1.71
					c0,0.696-0.168,1.287-0.504,1.773c-0.336,0.486-0.84,0.849-1.512,1.089c0.756,0.288,1.334,0.706,1.736,1.251
					s0.604,1.209,0.604,1.989c0,0.84-0.211,1.563-0.631,2.169s-0.992,1.065-1.719,1.377s-1.551,0.468-2.475,0.468
					s-1.749-0.156-2.475-0.468c-0.727-0.312-1.297-0.771-1.711-1.377s-0.621-1.329-0.621-2.169c0-0.78,0.201-1.443,0.604-1.989
					s0.98-0.963,1.736-1.251c-0.672-0.24-1.178-0.605-1.521-1.098c-0.342-0.492-0.513-1.08-0.513-1.764
					C756.621,62.612,756.792,62.042,757.134,61.514z M759.411,70.694c0.42,0.372,0.989,0.558,1.71,0.558
					c0.72,0,1.293-0.186,1.719-0.558s0.639-0.876,0.639-1.512c0-0.648-0.219-1.143-0.656-1.485
					c-0.438-0.342-1.006-0.513-1.701-0.513c-0.684,0-1.245,0.171-1.684,0.513c-0.438,0.342-0.656,0.837-0.656,1.485
					C758.781,69.818,758.99,70.322,759.411,70.694z M759.663,64.97c0.36,0.312,0.846,0.468,1.458,0.468
					c0.623,0,1.115-0.156,1.477-0.468c0.359-0.312,0.539-0.756,0.539-1.332s-0.183-1.023-0.549-1.341s-0.855-0.477-1.467-0.477
					c-0.6,0-1.083,0.159-1.449,0.477s-0.549,0.765-0.549,1.341S759.303,64.658,759.663,64.97z"/>
				<path fill="#3A54F5" d="M775.305,61.658c-0.301,0.264-0.45,0.726-0.45,1.386v0.018h2.017v2.142h-2.017v7.83h-2.538v-7.83h-1.277
					v-2.142h1.277v-0.234c0-1.188,0.34-2.103,1.018-2.745c0.678-0.642,1.683-0.963,3.015-0.963c0.228,0,0.401,0.006,0.522,0.018
					v2.196C776.127,61.286,775.604,61.395,775.305,61.658z"/>
				<path fill="#3A54F5" d="M783.711,70.856v2.178h-1.332c-1.116,0-1.972-0.27-2.565-0.81c-0.595-0.54-0.892-1.44-0.892-2.7v-4.32
					h-1.385v-2.142h1.385v-2.466h2.539v2.466h2.231v2.142h-2.231v4.356c0,0.48,0.096,0.816,0.287,1.008
					c0.192,0.192,0.516,0.288,0.973,0.288H783.711z"/>
				<path fill="#3A54F5" d="M788.322,61.783c0-0.329-0.078-0.588-0.236-0.777c-0.157-0.189-0.404-0.283-0.74-0.283
					c-0.691,0-1.06,0.472-1.102,1.417h-1.438c0.042-0.874,0.308-1.537,0.798-1.988c0.489-0.451,1.108-0.677,1.857-0.677
					c0.763,0,1.349,0.198,1.757,0.593c0.41,0.395,0.615,0.922,0.615,1.579c0,0.518-0.152,1.038-0.457,1.559s-0.691,1-1.16,1.438
					c-0.469,0.438-0.961,0.813-1.479,1.128h3.242v1.207h-5.216v-1.102C787.137,64.231,788.322,62.867,788.322,61.783z"/>
				<path fill="#3A54F5" d="M797.605,75.212h-2.537V58.49h2.537V75.212z"/>
				<path fill="#3A54F5" d="M802.573,62.702v-2.376h4.572v12.708h-2.664V62.702H802.573z"/>
				<path fill="#3A54F5" d="M808.513,62.702v-2.376h4.572v12.708h-2.664V62.702H808.513z"/>
				<path fill="#3A54F5" d="M817.494,70.388v2.646h-2.735v-2.646H817.494z"/>
				<path fill="#3A54F5" d="M823.507,71.126c0.84,0,1.446-0.369,1.817-1.107c0.372-0.738,0.534-1.893,0.486-3.465
					c-0.191,0.576-0.566,1.035-1.125,1.377s-1.209,0.513-1.953,0.513c-1.224,0-2.187-0.369-2.889-1.107
					c-0.702-0.738-1.053-1.785-1.053-3.141c0-0.828,0.168-1.569,0.504-2.223c0.336-0.654,0.837-1.167,1.503-1.539
					c0.666-0.372,1.473-0.558,2.421-0.558c1.848,0,3.119,0.562,3.816,1.683c0.695,1.122,1.043,2.679,1.043,4.671
					c0,2.268-0.351,3.99-1.053,5.166c-0.701,1.176-1.875,1.764-3.519,1.764c-0.876,0-1.63-0.174-2.259-0.522
					c-0.631-0.348-1.116-0.819-1.459-1.413c-0.342-0.594-0.543-1.251-0.603-1.971h2.376
					C821.754,70.502,822.402,71.126,823.507,71.126z M825.01,62.711c-0.391-0.438-0.963-0.657-1.719-0.657
					c-0.648,0-1.164,0.192-1.549,0.576c-0.384,0.384-0.576,0.918-0.576,1.602c0,0.72,0.195,1.275,0.586,1.665
					c0.39,0.39,0.914,0.585,1.574,0.585c0.612,0,1.144-0.183,1.594-0.549c0.449-0.366,0.675-0.885,0.675-1.557
					C825.595,63.704,825.399,63.149,825.01,62.711z"/>
				<path fill="#3A54F5" d="M849.543,64.043c0.702,0.75,1.053,1.815,1.053,3.195v5.796h-2.52v-5.508
					c0-0.768-0.195-1.359-0.585-1.773c-0.39-0.414-0.927-0.621-1.611-0.621c-0.708,0-1.272,0.222-1.692,0.666
					s-0.629,1.092-0.629,1.944v5.292h-2.521v-5.508c0-0.768-0.195-1.359-0.585-1.773c-0.391-0.414-0.928-0.621-1.611-0.621
					c-0.708,0-1.271,0.222-1.691,0.666s-0.631,1.092-0.631,1.944v5.292h-2.537v-9.972h2.537v1.89
					c0.264-0.648,0.682-1.149,1.252-1.503c0.569-0.354,1.232-0.531,1.988-0.531c0.805,0,1.504,0.192,2.098,0.576
					c0.594,0.384,1.041,0.936,1.341,1.656c0.312-0.684,0.776-1.227,1.396-1.629c0.617-0.402,1.311-0.603,2.078-0.603
					C847.884,62.918,848.842,63.293,849.543,64.043z"/>
				<path fill="#3A54F5" d="M855.622,61.783c0-0.329-0.079-0.588-0.236-0.777s-0.403-0.283-0.739-0.283
					c-0.693,0-1.061,0.472-1.102,1.417h-1.438c0.042-0.874,0.308-1.537,0.798-1.988c0.489-0.451,1.108-0.677,1.857-0.677
					c0.762,0,1.348,0.198,1.758,0.593c0.409,0.395,0.613,0.922,0.613,1.579c0,0.518-0.152,1.038-0.456,1.559s-0.69,1-1.159,1.438
					c-0.469,0.438-0.963,0.813-1.48,1.128h3.243v1.207h-5.216v-1.102C854.436,64.231,855.622,62.867,855.622,61.783z"/>
			</g>
		</g>
	</g>
	<g display="inline">
		<g id="POLYLINE_1816_">
			
				<line fill="none" stroke="#3A54F5" stroke-width="2" stroke-linecap="round" stroke-linejoin="round" stroke-miterlimit="10" x1="649.46" y1="637.106" x2="650.34" y2="389.889"/>
		</g>
		<g id="LINE_88_">
			
				<line fill="none" stroke="#3A54F5" stroke-width="2" stroke-linecap="round" stroke-linejoin="round" stroke-miterlimit="10" x1="650.539" y1="339.923" x2="651.365" y2="107.75"/>
		</g>
		<g id="POLYLINE_1815_">
			
				<polyline fill="none" stroke="#3A54F5" stroke-width="2" stroke-linecap="round" stroke-linejoin="round" stroke-miterlimit="10" points="
				644.709,114.351 651.365,107.75 657.965,114.406 			"/>
		</g>
		<g id="POLYLINE_1814_">
			
				<polyline fill="none" stroke="#3A54F5" stroke-width="2" stroke-linecap="round" stroke-linejoin="round" stroke-miterlimit="10" points="
				656.115,630.506 649.46,637.106 642.859,630.451 			"/>
		</g>
		<g id="MTEXT_162_">
			<g>
				<g>
					<g>
						<path fill="#3A54F5" d="M649.509,361.54c-0.071-0.078-0.107-0.177-0.106-0.297l0.041-10.152l-3.033,2.31
							c-0.084,0.072-0.174,0.107-0.27,0.107c-0.108,0-0.211-0.062-0.306-0.182l-0.43-0.56c-0.06-0.084-0.089-0.169-0.089-0.253
							c0-0.132,0.061-0.239,0.182-0.323l3.918-3.007c0.133-0.084,0.289-0.125,0.469-0.124l0.846,0.003
							c0.119,0.001,0.219,0.04,0.297,0.118s0.116,0.178,0.115,0.298l-0.049,11.771c0,0.12-0.039,0.219-0.118,0.297
							c-0.078,0.077-0.178,0.116-0.298,0.115l-0.882-0.003C649.676,361.658,649.58,361.619,649.509,361.54z"/>
						<path fill="#3A54F5" d="M657.158,361.572c-0.072-0.078-0.107-0.178-0.107-0.298l0.043-10.152l-3.033,2.311
							c-0.084,0.071-0.174,0.107-0.271,0.106c-0.108,0-0.21-0.061-0.306-0.182l-0.43-0.56c-0.059-0.084-0.089-0.168-0.088-0.252
							c0-0.132,0.061-0.24,0.181-0.323l3.918-3.008c0.132-0.083,0.288-0.124,0.468-0.124l0.847,0.004c0.12,0,0.219,0.04,0.296,0.117
							c0.078,0.079,0.117,0.179,0.117,0.299l-0.049,11.771c-0.001,0.12-0.041,0.219-0.119,0.296
							c-0.078,0.078-0.178,0.116-0.297,0.116l-0.883-0.004C657.326,361.69,657.23,361.65,657.158,361.572z"/>
						<path fill="#3A54F5" d="M661.265,352.247c-0.048-0.065-0.065-0.159-0.054-0.279l0.407-2.518
							c0.05-0.348,0.218-0.521,0.506-0.521l1.152,0.005c0.083,0,0.153,0.03,0.206,0.091c0.055,0.061,0.08,0.133,0.08,0.217
							c0,0.12-0.018,0.216-0.055,0.288l-0.946,2.426c-0.061,0.131-0.127,0.23-0.199,0.296c-0.072,0.066-0.181,0.098-0.324,0.098
							l-0.558-0.003C661.384,352.347,661.312,352.313,661.265,352.247z"/>
						<path fill="#3A54F5" d="M673.321,361.64c-0.071-0.079-0.107-0.178-0.106-0.298l0.041-10.152l-3.033,2.31
							c-0.084,0.072-0.174,0.108-0.27,0.107c-0.108,0-0.211-0.062-0.306-0.182l-0.43-0.56c-0.06-0.084-0.089-0.168-0.089-0.252
							c0-0.132,0.061-0.24,0.182-0.324l3.918-3.007c0.133-0.083,0.289-0.125,0.469-0.124l0.846,0.004
							c0.119,0,0.219,0.04,0.297,0.117c0.078,0.078,0.116,0.178,0.115,0.298l-0.049,11.771c0,0.12-0.039,0.219-0.118,0.297
							c-0.078,0.078-0.178,0.116-0.298,0.116l-0.882-0.004C673.488,361.757,673.393,361.718,673.321,361.64z"/>
						<path fill="#3A54F5" d="M680.971,361.671c-0.071-0.078-0.107-0.177-0.106-0.297l0.042-10.152l-3.033,2.31
							c-0.084,0.071-0.174,0.107-0.271,0.107c-0.108-0.001-0.21-0.062-0.306-0.183l-0.43-0.559
							c-0.059-0.085-0.089-0.169-0.088-0.253c0-0.132,0.061-0.24,0.181-0.323l3.919-3.007c0.132-0.084,0.288-0.125,0.468-0.124
							l0.847,0.003c0.119,0.001,0.219,0.04,0.296,0.117c0.078,0.079,0.116,0.179,0.116,0.299l-0.049,11.771
							c0,0.12-0.04,0.219-0.119,0.296c-0.078,0.078-0.178,0.117-0.297,0.116l-0.883-0.004
							C681.139,361.789,681.043,361.749,680.971,361.671z"/>
						<path fill="#3A54F5" d="M685.068,352.337c-0.053-0.072-0.068-0.162-0.043-0.271l0.406-2.518
							c0.049-0.348,0.218-0.521,0.506-0.521l1.152,0.005c0.084,0,0.152,0.031,0.207,0.091c0.053,0.061,0.08,0.133,0.079,0.217
							c-0.001,0.12-0.019,0.216-0.055,0.288l-0.946,2.426c-0.061,0.132-0.127,0.23-0.199,0.296c-0.072,0.066-0.18,0.098-0.324,0.098
							l-0.559-0.003C685.197,352.445,685.123,352.409,685.068,352.337z M687.895,352.349c-0.054-0.072-0.068-0.162-0.043-0.271
							l0.406-2.518c0.049-0.348,0.218-0.521,0.506-0.521l1.152,0.005c0.084,0,0.152,0.031,0.206,0.091
							c0.054,0.061,0.081,0.133,0.08,0.217c-0.001,0.12-0.019,0.216-0.056,0.288l-0.945,2.426c-0.061,0.132-0.127,0.23-0.199,0.296
							c-0.072,0.066-0.181,0.098-0.324,0.098l-0.559-0.003C688.023,352.457,687.949,352.421,687.895,352.349z"/>
						<path fill="#3A54F5" d="M647.646,380.971c-0.684-0.309-1.201-0.709-1.553-1.203c-0.352-0.493-0.539-1.004-0.561-1.532
							c0-0.108,0.037-0.195,0.109-0.261s0.162-0.099,0.27-0.099l0.811,0.004c0.132,0,0.24,0.028,0.324,0.082
							c0.083,0.055,0.148,0.16,0.196,0.316c0.153,0.612,0.491,1.046,1.012,1.3c0.521,0.255,1.136,0.383,1.844,0.386
							c0.864,0.004,1.552-0.2,2.063-0.612s0.77-1.002,0.771-1.771c0.007-1.464-0.885-2.199-2.672-2.206l-1.692-0.007
							c-0.12-0.001-0.219-0.04-0.296-0.119c-0.078-0.078-0.117-0.177-0.117-0.297l0.002-0.468c0.002-0.181,0.068-0.336,0.201-0.468
							l3.525-3.873l-5.328-0.022c-0.119,0-0.219-0.037-0.297-0.109c-0.077-0.072-0.115-0.169-0.115-0.288l0.003-0.648
							c0.001-0.132,0.04-0.237,0.118-0.314s0.178-0.115,0.298-0.115l7.128,0.029c0.132,0.001,0.236,0.04,0.314,0.118
							c0.077,0.078,0.116,0.184,0.115,0.315l-0.002,0.594c0,0.133-0.062,0.271-0.182,0.413l-3.527,3.928l0.289,0.002
							c1.224,0.041,2.191,0.362,2.902,0.966c0.712,0.603,1.064,1.48,1.061,2.633c-0.004,0.792-0.201,1.472-0.594,2.04
							s-0.938,1.004-1.635,1.307c-0.697,0.304-1.484,0.453-2.359,0.449C649.139,381.436,648.329,381.28,647.646,380.971z"/>
						<path fill="#3A54F5" d="M656.852,381.171c-0.078-0.078-0.116-0.177-0.115-0.298l0.005-1.242
							c0.001-0.119,0.04-0.221,0.118-0.305s0.178-0.125,0.298-0.125l1.241,0.006c0.121,0,0.219,0.042,0.297,0.127
							c0.078,0.084,0.116,0.187,0.115,0.306l-0.005,1.242c-0.001,0.12-0.04,0.219-0.118,0.297c-0.078,0.077-0.178,0.116-0.297,0.116
							l-1.242-0.006C657.028,381.289,656.93,381.249,656.852,381.171z"/>
						<path fill="#3A54F5" d="M662.829,380.907c-0.7-0.393-1.232-0.92-1.595-1.581c-0.364-0.661-0.545-1.382-0.541-2.162
							c0.004-1.032,0.423-2.134,1.256-3.307l3.458-4.774c0.012-0.012,0.045-0.054,0.1-0.125c0.054-0.072,0.123-0.129,0.208-0.171
							c0.084-0.041,0.18-0.062,0.287-0.061l0.883,0.003c0.107,0.001,0.195,0.04,0.26,0.118c0.066,0.078,0.099,0.172,0.099,0.279
							c-0.001,0.061-0.031,0.139-0.091,0.234l-2.644,3.66c0.312-0.07,0.66-0.105,1.044-0.104c0.876,0.004,1.646,0.202,2.311,0.595
							c0.665,0.393,1.179,0.911,1.542,1.554c0.363,0.645,0.544,1.351,0.54,2.118c-0.003,0.769-0.189,1.484-0.558,2.148
							c-0.369,0.665-0.901,1.193-1.6,1.586c-0.698,0.395-1.521,0.588-2.469,0.584C664.359,381.499,663.529,381.301,662.829,380.907z
							 M666.768,379.691c0.444-0.214,0.799-0.534,1.065-0.958c0.267-0.425,0.399-0.938,0.402-1.538
							c0.003-0.588-0.13-1.096-0.398-1.522c-0.269-0.428-0.624-0.753-1.067-0.977s-0.922-0.337-1.438-0.339
							s-0.997,0.107-1.441,0.327s-0.8,0.542-1.065,0.967c-0.267,0.425-0.4,0.933-0.402,1.521c-0.003,0.6,0.127,1.113,0.389,1.54
							c0.263,0.427,0.615,0.75,1.059,0.968s0.922,0.327,1.438,0.329C665.836,380.011,666.322,379.905,666.768,379.691z"/>
						<path fill="#3A54F5" d="M673.493,381.078c-0.683-0.309-1.2-0.709-1.552-1.203c-0.352-0.493-0.539-1.004-0.561-1.532
							c0-0.108,0.037-0.195,0.109-0.261c0.072-0.066,0.162-0.099,0.27-0.099l0.811,0.004c0.131,0,0.24,0.028,0.324,0.082
							c0.082,0.054,0.148,0.16,0.195,0.316c0.154,0.612,0.491,1.046,1.012,1.3c0.521,0.254,1.136,0.383,1.844,0.386
							c0.864,0.004,1.553-0.2,2.064-0.612s0.769-1.002,0.771-1.771c0.006-1.464-0.885-2.199-2.672-2.206l-1.693-0.007
							c-0.119-0.001-0.219-0.04-0.296-0.119c-0.078-0.078-0.116-0.177-0.116-0.297l0.002-0.468c0.001-0.181,0.067-0.336,0.2-0.468
							l3.526-3.873l-5.328-0.022c-0.12-0.001-0.219-0.037-0.297-0.109s-0.115-0.169-0.115-0.288l0.002-0.648
							c0.001-0.132,0.04-0.237,0.119-0.314c0.078-0.077,0.178-0.116,0.297-0.115l7.129,0.029c0.131,0.001,0.236,0.04,0.314,0.118
							c0.076,0.078,0.115,0.184,0.115,0.315l-0.002,0.594c-0.001,0.133-0.062,0.271-0.182,0.413l-3.527,3.928l0.288,0.002
							c1.224,0.041,2.191,0.362,2.903,0.966c0.711,0.603,1.064,1.479,1.061,2.632c-0.004,0.792-0.202,1.473-0.594,2.041
							c-0.393,0.568-0.938,1.004-1.635,1.307c-0.697,0.304-1.484,0.453-2.359,0.449
							C674.985,381.543,674.176,381.388,673.493,381.078z"/>
						<path fill="#3A54F5" d="M687.254,381.297c-0.078-0.078-0.117-0.177-0.116-0.297l0.036-8.532c0-0.119,0.039-0.219,0.117-0.297
							c0.078-0.077,0.178-0.116,0.298-0.116l0.756,0.004c0.12,0,0.216,0.04,0.288,0.118c0.071,0.078,0.107,0.178,0.106,0.297
							l-0.003,0.612c0.651-0.801,1.529-1.199,2.633-1.194c1.32,0.005,2.254,0.561,2.801,1.667c0.291-0.502,0.703-0.903,1.238-1.2
							c0.535-0.298,1.133-0.446,1.793-0.443c0.984,0.004,1.787,0.344,2.408,1.019s0.93,1.648,0.924,2.92l-0.021,5.202
							c0,0.12-0.039,0.218-0.119,0.296c-0.078,0.078-0.178,0.116-0.297,0.116l-0.773-0.004c-0.121,0-0.219-0.039-0.297-0.118
							c-0.078-0.078-0.115-0.177-0.115-0.297l0.021-5.04c0.004-0.96-0.191-1.647-0.586-2.063c-0.395-0.415-0.916-0.625-1.564-0.627
							c-0.576-0.003-1.07,0.208-1.486,0.632s-0.627,1.105-0.631,2.041l-0.02,5.04c-0.002,0.12-0.041,0.218-0.119,0.296
							s-0.178,0.116-0.297,0.116l-0.793-0.004c-0.119,0-0.219-0.039-0.296-0.118c-0.078-0.078-0.116-0.177-0.116-0.297l0.021-5.04
							c0.004-0.947-0.201-1.633-0.612-2.055c-0.413-0.422-0.925-0.634-1.536-0.636c-0.576-0.003-1.072,0.205-1.488,0.623
							s-0.625,1.096-0.629,2.032l-0.021,5.058c0,0.12-0.041,0.218-0.118,0.296c-0.079,0.078-0.178,0.116-0.298,0.116l-0.791-0.004
							C687.43,381.415,687.331,381.376,687.254,381.297z"/>
					</g>
				</g>
			</g>
		</g>
	</g>
	<g display="inline">
		<g id="POLYLINE_1813_">
			
				<line fill="none" stroke="#3A54F5" stroke-width="2" stroke-linecap="round" stroke-linejoin="round" stroke-miterlimit="10" x1="609.797" y1="678.621" x2="426.591" y2="678.621"/>
		</g>
		<g id="LINE_87_">
			
				<line fill="none" stroke="#3A54F5" stroke-width="2" stroke-linecap="round" stroke-linejoin="round" stroke-miterlimit="10" x1="318.93" y1="678.621" x2="115.261" y2="678.621"/>
		</g>
		<g id="POLYLINE_1812_">
			
				<polyline fill="none" stroke="#3A54F5" stroke-width="2" stroke-linecap="round" stroke-linejoin="round" stroke-miterlimit="10" points="
				121.89,685.248 115.261,678.621 121.89,671.993 			"/>
		</g>
		<g id="POLYLINE_1811_">
			
				<polyline fill="none" stroke="#3A54F5" stroke-width="2" stroke-linecap="round" stroke-linejoin="round" stroke-miterlimit="10" points="
				603.171,671.993 609.797,678.621 603.171,685.248 			"/>
		</g>
		<g id="MTEXT_157_">
			<g>
				<g>
					<path fill="#3A54F5" d="M333.034,684.832c-0.072-0.078-0.108-0.177-0.108-0.297v-10.152l-3.024,2.322
						c-0.084,0.072-0.174,0.108-0.27,0.108c-0.108,0-0.21-0.061-0.306-0.181l-0.432-0.558c-0.06-0.084-0.09-0.168-0.09-0.252
						c0-0.132,0.06-0.24,0.18-0.324l3.906-3.023c0.132-0.084,0.288-0.126,0.468-0.126h0.846c0.12,0,0.219,0.039,0.297,0.116
						c0.078,0.078,0.117,0.178,0.117,0.298v11.771c0,0.12-0.039,0.219-0.117,0.297s-0.177,0.117-0.297,0.117h-0.882
						C333.202,684.949,333.105,684.91,333.034,684.832z"/>
					<path fill="#3A54F5" d="M340.684,684.832c-0.072-0.078-0.108-0.177-0.108-0.297v-10.152l-3.024,2.322
						c-0.084,0.072-0.174,0.108-0.27,0.108c-0.108,0-0.21-0.061-0.306-0.181l-0.432-0.558c-0.06-0.084-0.09-0.168-0.09-0.252
						c0-0.132,0.06-0.24,0.18-0.324l3.906-3.023c0.132-0.084,0.288-0.126,0.468-0.126h0.846c0.12,0,0.219,0.039,0.297,0.116
						c0.078,0.078,0.117,0.178,0.117,0.298v11.771c0,0.12-0.039,0.219-0.117,0.297s-0.177,0.117-0.297,0.117h-0.882
						C340.852,684.949,340.755,684.91,340.684,684.832z"/>
					<path fill="#3A54F5" d="M344.751,675.49c-0.048-0.065-0.066-0.159-0.054-0.279l0.396-2.52c0.048-0.348,0.216-0.522,0.504-0.522
						h1.152c0.083,0,0.153,0.03,0.207,0.09c0.054,0.061,0.081,0.133,0.081,0.217c0,0.12-0.018,0.216-0.054,0.288l-0.936,2.43
						c-0.06,0.132-0.126,0.231-0.198,0.297c-0.072,0.066-0.18,0.099-0.324,0.099h-0.558
						C344.871,675.589,344.799,675.557,344.751,675.49z"/>
					<path fill="#3A54F5" d="M353.625,688.576c-0.072-0.078-0.108-0.177-0.108-0.297v-19.044c0-0.12,0.036-0.219,0.108-0.297
						s0.168-0.117,0.288-0.117h0.666c0.12,0,0.219,0.039,0.297,0.117s0.117,0.177,0.117,0.297v19.044
						c0,0.12-0.039,0.219-0.117,0.297s-0.177,0.117-0.297,0.117h-0.666C353.792,688.693,353.696,688.654,353.625,688.576z"/>
					<path fill="#3A54F5" d="M363.65,684.67c-0.684-0.306-1.203-0.704-1.557-1.196s-0.543-1.002-0.567-1.53
						c0-0.108,0.036-0.195,0.108-0.261c0.072-0.066,0.162-0.1,0.27-0.1h0.81c0.132,0,0.24,0.027,0.324,0.081
						c0.083,0.054,0.15,0.159,0.198,0.315c0.156,0.611,0.495,1.044,1.017,1.296s1.137,0.378,1.845,0.378
						c0.864,0,1.551-0.207,2.061-0.621c0.51-0.414,0.765-1.005,0.765-1.773c0-1.464-0.894-2.195-2.682-2.195h-1.692
						c-0.12,0-0.219-0.039-0.297-0.117s-0.117-0.177-0.117-0.297v-0.468c0-0.181,0.066-0.336,0.198-0.469l3.51-3.888h-5.328
						c-0.12,0-0.219-0.036-0.297-0.108c-0.078-0.071-0.117-0.168-0.117-0.287v-0.648c0-0.132,0.039-0.237,0.117-0.315
						c0.078-0.077,0.177-0.116,0.297-0.116h7.128c0.132,0,0.237,0.039,0.315,0.116c0.078,0.078,0.117,0.184,0.117,0.315v0.594
						c0,0.133-0.061,0.271-0.18,0.414l-3.51,3.942h0.288c1.224,0.036,2.193,0.354,2.907,0.954c0.714,0.6,1.071,1.476,1.071,2.628
						c0,0.792-0.195,1.473-0.585,2.043c-0.39,0.57-0.933,1.008-1.629,1.313c-0.696,0.307-1.482,0.459-2.358,0.459
						C365.145,685.129,364.334,684.977,363.65,684.67z"/>
					<path fill="#3A54F5" d="M372.857,684.832c-0.078-0.078-0.117-0.177-0.117-0.297v-1.242c0-0.119,0.039-0.222,0.117-0.306
						s0.177-0.126,0.297-0.126h1.242c0.12,0,0.219,0.042,0.297,0.126s0.117,0.187,0.117,0.306v1.242c0,0.12-0.039,0.219-0.117,0.297
						s-0.177,0.117-0.297,0.117h-1.242C373.034,684.949,372.935,684.91,372.857,684.832z"/>
					<path fill="#3A54F5" d="M378.914,684.67c-0.684-0.306-1.203-0.704-1.557-1.196c-0.354-0.492-0.543-1.002-0.567-1.53
						c0-0.108,0.036-0.195,0.108-0.261c0.072-0.066,0.162-0.1,0.27-0.1h0.811c0.131,0,0.24,0.027,0.324,0.081
						c0.083,0.054,0.149,0.159,0.197,0.315c0.156,0.611,0.495,1.044,1.018,1.296c0.521,0.252,1.137,0.378,1.845,0.378
						c0.864,0,1.551-0.207,2.062-0.621c0.51-0.414,0.764-1.005,0.764-1.773c0-1.464-0.894-2.195-2.682-2.195h-1.691
						c-0.121,0-0.219-0.039-0.297-0.117s-0.117-0.177-0.117-0.297v-0.468c0-0.181,0.065-0.336,0.197-0.469l3.51-3.888h-5.327
						c-0.12,0-0.22-0.036-0.298-0.108c-0.078-0.071-0.116-0.168-0.116-0.287v-0.648c0-0.132,0.038-0.237,0.116-0.315
						c0.078-0.077,0.178-0.116,0.298-0.116h7.128c0.132,0,0.236,0.039,0.314,0.116c0.078,0.078,0.117,0.184,0.117,0.315v0.594
						c0,0.133-0.061,0.271-0.18,0.414l-3.51,3.942h0.287c1.225,0.036,2.193,0.354,2.908,0.954c0.713,0.6,1.07,1.476,1.07,2.628
						c0,0.792-0.195,1.473-0.585,2.043s-0.933,1.008-1.629,1.313c-0.696,0.307-1.482,0.459-2.358,0.459
						C380.408,685.129,379.598,684.977,378.914,684.67z"/>
					<path fill="#3A54F5" d="M389.678,684.644c-0.66-0.324-1.164-0.747-1.512-1.27c-0.349-0.521-0.534-1.083-0.559-1.683v-0.036
						c0-0.096,0.036-0.174,0.108-0.234c0.071-0.06,0.155-0.09,0.252-0.09h0.882c0.252,0,0.414,0.133,0.486,0.396
						c0.18,0.647,0.513,1.131,0.999,1.448c0.485,0.318,1.047,0.478,1.683,0.478c0.816,0,1.494-0.249,2.034-0.747
						s0.81-1.185,0.81-2.061c0-0.805-0.27-1.443-0.81-1.918c-0.54-0.474-1.218-0.711-2.034-0.711c-0.432,0-0.779,0.055-1.044,0.162
						c-0.265,0.108-0.534,0.265-0.81,0.469c-0.156,0.12-0.285,0.207-0.387,0.261c-0.103,0.054-0.214,0.081-0.334,0.081h-0.863
						c-0.108,0-0.205-0.039-0.288-0.117c-0.085-0.078-0.12-0.171-0.108-0.279l0.559-5.994c0.035-0.3,0.186-0.449,0.449-0.449h6.229
						c0.132,0,0.234,0.035,0.306,0.107c0.072,0.072,0.108,0.174,0.108,0.307v0.666c0,0.119-0.039,0.216-0.117,0.287
						c-0.078,0.072-0.178,0.108-0.297,0.108h-5.184l-0.324,3.618c0.576-0.408,1.35-0.612,2.322-0.612
						c0.803,0,1.535,0.159,2.195,0.478c0.66,0.317,1.186,0.782,1.575,1.395s0.585,1.338,0.585,2.178
						c0,0.889-0.195,1.653-0.585,2.295c-0.39,0.643-0.931,1.129-1.62,1.458c-0.689,0.33-1.479,0.495-2.367,0.495
						C391.117,685.129,390.338,684.967,389.678,684.644z"/>
					<path fill="#3A54F5" d="M403.33,684.832c-0.078-0.078-0.116-0.177-0.116-0.297v-8.532c0-0.119,0.038-0.219,0.116-0.297
						s0.178-0.117,0.298-0.117h0.756c0.12,0,0.216,0.039,0.288,0.117s0.107,0.178,0.107,0.297v0.612
						c0.648-0.804,1.524-1.206,2.629-1.206c1.319,0,2.256,0.552,2.808,1.656c0.288-0.504,0.698-0.906,1.233-1.206
						c0.533-0.3,1.131-0.45,1.791-0.45c0.983,0,1.787,0.336,2.412,1.008c0.623,0.673,0.936,1.645,0.936,2.916v5.202
						c0,0.12-0.039,0.219-0.117,0.297s-0.178,0.117-0.297,0.117H415.4c-0.121,0-0.22-0.039-0.298-0.117s-0.116-0.177-0.116-0.297
						v-5.04c0-0.96-0.199-1.646-0.595-2.061s-0.918-0.621-1.565-0.621c-0.576,0-1.071,0.213-1.485,0.639s-0.621,1.107-0.621,2.043
						v5.04c0,0.12-0.039,0.219-0.117,0.297s-0.177,0.117-0.297,0.117h-0.792c-0.12,0-0.219-0.039-0.297-0.117
						s-0.117-0.177-0.117-0.297v-5.04c0-0.947-0.207-1.632-0.621-2.052s-0.927-0.63-1.539-0.63c-0.576,0-1.07,0.21-1.484,0.63
						s-0.621,1.098-0.621,2.034v5.058c0,0.12-0.039,0.219-0.117,0.297s-0.178,0.117-0.297,0.117h-0.792
						C403.508,684.949,403.408,684.91,403.33,684.832z"/>
				</g>
			</g>
		</g>
	</g>
	<g display="inline">
		<g id="POLYLINE_1810_">
			
				<line fill="none" stroke="#3A54F5" stroke-width="2" stroke-linecap="round" stroke-linejoin="round" stroke-miterlimit="10" x1="1391.46" y1="536.106" x2="1392.34" y2="340.889"/>
		</g>
		<g id="LINE_86_">
			
				<line fill="none" stroke="#3A54F5" stroke-width="2" stroke-linecap="round" stroke-linejoin="round" stroke-miterlimit="10" x1="1392.539" y1="290.923" x2="1393.365" y2="105.75"/>
		</g>
		<g id="POLYLINE_1809_">
			
				<polyline fill="none" stroke="#3A54F5" stroke-width="2" stroke-linecap="round" stroke-linejoin="round" stroke-miterlimit="10" points="
				1386.709,112.351 1393.365,105.75 1399.965,112.406 			"/>
		</g>
		<g id="POLYLINE_1808_">
			
				<polyline fill="none" stroke="#3A54F5" stroke-width="2" stroke-linecap="round" stroke-linejoin="round" stroke-miterlimit="10" points="
				1398.115,529.506 1391.46,536.106 1384.859,529.451 			"/>
		</g>
		<g id="MTEXT_92_">
			<g>
				<g>
					<g>
						<path fill="#3A54F5" d="M1390.06,312.534c-0.065-0.078-0.099-0.171-0.098-0.279c0-0.083,0.024-0.161,0.073-0.233l2.787-3.841
							c-0.287,0.071-0.623,0.105-1.008,0.104c-0.863-0.016-1.619-0.22-2.266-0.612c-0.646-0.394-1.139-0.905-1.479-1.536
							c-0.34-0.632-0.508-1.307-0.504-2.027c0.002-0.72,0.176-1.403,0.521-2.05c0.345-0.647,0.856-1.173,1.537-1.578
							c0.679-0.405,1.499-0.605,2.46-0.602c0.959,0.004,1.78,0.205,2.463,0.604c0.683,0.398,1.195,0.92,1.541,1.563
							c0.346,0.643,0.517,1.331,0.514,2.062c-0.002,0.66-0.121,1.241-0.357,1.744s-0.548,1.024-0.934,1.563l-3.514,4.881
							c-0.084,0.107-0.165,0.194-0.243,0.261c-0.078,0.064-0.189,0.098-0.333,0.097l-0.9-0.004
							C1390.212,312.652,1390.125,312.613,1390.06,312.534z M1393.479,306.528c0.432-0.227,0.775-0.546,1.029-0.959
							s0.381-0.89,0.384-1.43c0.003-0.552-0.122-1.038-0.372-1.46c-0.25-0.421-0.59-0.746-1.021-0.976s-0.905-0.346-1.421-0.348
							c-0.504-0.002-0.97,0.11-1.396,0.336c-0.428,0.226-0.768,0.548-1.021,0.967c-0.254,0.42-0.382,0.905-0.385,1.457
							c-0.002,0.54,0.122,1.018,0.373,1.433c0.25,0.415,0.584,0.737,1.004,0.968c0.418,0.229,0.887,0.345,1.402,0.348
							C1392.57,306.866,1393.045,306.754,1393.479,306.528z"/>
						<path fill="#3A54F5" d="M1398.604,303.228c-0.049-0.065-0.066-0.159-0.054-0.279l0.407-2.518
							c0.049-0.348,0.217-0.521,0.506-0.521l1.152,0.005c0.083,0,0.152,0.031,0.206,0.091c0.054,0.061,0.08,0.133,0.079,0.217
							c0,0.12-0.018,0.216-0.055,0.288l-0.945,2.426c-0.061,0.132-0.127,0.23-0.199,0.296c-0.072,0.066-0.181,0.098-0.324,0.098
							l-0.559-0.003C1398.723,303.327,1398.65,303.295,1398.604,303.228z"/>
						<path fill="#3A54F5" d="M1409.248,312.452c-0.714-0.309-1.267-0.753-1.66-1.329c-0.394-0.578-0.589-1.251-0.586-2.02
							c0.003-0.708,0.183-1.328,0.539-1.861c0.355-0.531,0.834-0.94,1.436-1.226c-0.479-0.278-0.85-0.643-1.111-1.094
							s-0.392-0.983-0.389-1.596c0.004-1.044,0.396-1.866,1.18-2.47c0.782-0.603,1.811-0.901,3.082-0.896
							c1.271,0.006,2.293,0.311,3.064,0.913c0.771,0.604,1.156,1.433,1.151,2.488c-0.003,0.601-0.137,1.125-0.402,1.573
							c-0.267,0.449-0.634,0.817-1.103,1.104c0.599,0.29,1.074,0.703,1.426,1.238s0.525,1.163,0.523,1.884
							c-0.004,0.768-0.204,1.436-0.603,2.005c-0.398,0.568-0.956,1.004-1.671,1.307c-0.715,0.304-1.529,0.452-2.44,0.448
							C1410.772,312.917,1409.96,312.762,1409.248,312.452z M1413.826,310.878c0.571-0.429,0.859-1.004,0.861-1.724
							c0.004-0.721-0.279-1.298-0.848-1.732c-0.568-0.434-1.277-0.652-2.13-0.656c-0.864-0.003-1.582,0.209-2.153,0.639
							c-0.572,0.43-0.859,1.004-0.862,1.725c-0.003,0.72,0.279,1.298,0.848,1.731s1.284,0.654,2.148,0.657
							C1412.543,311.521,1413.254,311.308,1413.826,310.878z M1413.572,304.829c0.506-0.358,0.76-0.837,0.762-1.438
							c0.002-0.611-0.244-1.102-0.741-1.47c-0.496-0.368-1.116-0.554-1.86-0.557c-0.756-0.003-1.381,0.177-1.875,0.541
							c-0.493,0.364-0.74,0.853-0.743,1.464c-0.003,0.612,0.241,1.103,0.731,1.471s1.114,0.554,1.87,0.557
							C1412.447,305.376,1413.066,305.188,1413.572,304.829z"/>
						<path fill="#3A54F5" d="M1418.52,303.302c-0.055-0.072-0.068-0.162-0.045-0.271l0.407-2.518
							c0.05-0.348,0.218-0.522,0.506-0.521l1.152,0.005c0.083,0,0.153,0.03,0.206,0.09c0.055,0.062,0.08,0.134,0.08,0.218
							c0,0.12-0.018,0.216-0.055,0.288l-0.946,2.426c-0.061,0.131-0.127,0.23-0.199,0.296s-0.181,0.098-0.324,0.097l-0.558-0.002
							C1418.647,303.41,1418.572,303.373,1418.52,303.302z M1421.346,303.313c-0.055-0.072-0.069-0.162-0.045-0.271l0.407-2.518
							c0.05-0.348,0.218-0.522,0.506-0.521l1.151,0.005c0.084,0,0.154,0.03,0.207,0.09c0.055,0.062,0.08,0.134,0.08,0.218
							c0,0.12-0.019,0.216-0.055,0.288l-0.946,2.426c-0.062,0.131-0.127,0.23-0.199,0.296s-0.181,0.098-0.324,0.097l-0.558-0.002
							C1421.474,303.422,1421.398,303.385,1421.346,303.313z"/>
						<path fill="#3A54F5" d="M1387.746,332.125c-0.078-0.079-0.116-0.178-0.115-0.298l0.002-0.54
							c0.001-0.275,0.152-0.539,0.453-0.79l3.94-3.89c0.892-0.752,1.506-1.368,1.844-1.846c0.338-0.479,0.509-0.988,0.511-1.528
							c0.003-0.708-0.193-1.264-0.588-1.668c-0.395-0.402-0.969-0.606-1.725-0.609c-0.721-0.003-1.291,0.204-1.713,0.623
							c-0.422,0.418-0.683,0.981-0.781,1.688c-0.025,0.133-0.085,0.234-0.182,0.307c-0.096,0.071-0.191,0.106-0.288,0.105
							l-0.864-0.003c-0.107-0.001-0.197-0.036-0.27-0.108c-0.071-0.073-0.107-0.157-0.106-0.253c0.026-0.636,0.2-1.25,0.521-1.844
							c0.32-0.592,0.793-1.075,1.419-1.452c0.626-0.375,1.382-0.561,2.271-0.557c1.344,0.006,2.354,0.36,3.029,1.065
							c0.674,0.705,1.01,1.597,1.006,2.677c-0.004,0.756-0.189,1.437-0.559,2.041s-0.943,1.241-1.727,1.91l-3.561,3.585l5.67,0.024
							c0.132,0,0.233,0.037,0.305,0.108c0.072,0.072,0.107,0.175,0.107,0.307l-0.003,0.684c-0.001,0.12-0.04,0.219-0.118,0.297
							c-0.078,0.077-0.178,0.116-0.297,0.116l-7.885-0.033C1387.923,332.243,1387.824,332.203,1387.746,332.125z"/>
						<path fill="#3A54F5" d="M1398.6,332.17c-0.078-0.078-0.115-0.178-0.115-0.298l0.006-1.242c0-0.119,0.039-0.221,0.117-0.305
							s0.178-0.125,0.299-0.125l1.241,0.005c0.12,0.001,0.218,0.043,0.296,0.128c0.078,0.084,0.117,0.187,0.116,0.306l-0.005,1.242
							c-0.001,0.12-0.041,0.219-0.119,0.297c-0.078,0.077-0.177,0.116-0.297,0.115l-1.242-0.005
							C1398.777,332.288,1398.678,332.248,1398.6,332.17z"/>
						<path fill="#3A54F5" d="M1404.18,332.193c-0.065-0.079-0.098-0.172-0.098-0.28c0-0.083,0.025-0.161,0.073-0.232l2.788-3.842
							c-0.289,0.071-0.625,0.106-1.009,0.104c-0.864-0.016-1.618-0.22-2.265-0.612c-0.647-0.393-1.14-0.904-1.479-1.536
							c-0.339-0.631-0.507-1.307-0.505-2.027c0.004-0.72,0.178-1.402,0.521-2.05c0.346-0.646,0.857-1.172,1.537-1.577
							c0.68-0.406,1.499-0.606,2.459-0.603c0.961,0.004,1.781,0.206,2.464,0.604s1.196,0.921,1.542,1.563
							c0.346,0.644,0.516,1.331,0.514,2.062c-0.004,0.66-0.123,1.242-0.358,1.745c-0.237,0.503-0.548,1.023-0.935,1.562
							l-3.512,4.881c-0.084,0.108-0.166,0.194-0.244,0.261c-0.078,0.065-0.189,0.098-0.333,0.098l-0.899-0.004
							C1404.332,332.311,1404.246,332.271,1404.18,332.193z M1407.598,326.187c0.434-0.227,0.777-0.546,1.03-0.959
							c0.254-0.413,0.382-0.89,0.384-1.43c0.002-0.552-0.121-1.038-0.371-1.46c-0.251-0.421-0.592-0.746-1.022-0.976
							s-0.905-0.346-1.421-0.348c-0.504-0.002-0.969,0.11-1.396,0.336c-0.427,0.226-0.768,0.549-1.021,0.968
							c-0.254,0.42-0.382,0.904-0.384,1.456c-0.002,0.54,0.121,1.019,0.371,1.434c0.251,0.415,0.586,0.736,1.004,0.967
							c0.42,0.229,0.887,0.346,1.403,0.348C1406.69,326.524,1407.165,326.412,1407.598,326.187z"/>
						<path fill="#3A54F5" d="M1414.485,332.047c-0.659-0.326-1.161-0.752-1.507-1.275c-0.346-0.522-0.529-1.085-0.551-1.685v-0.036
							c0.001-0.096,0.037-0.174,0.109-0.234c0.072-0.06,0.156-0.089,0.252-0.089l0.883,0.004c0.252,0.001,0.412,0.135,0.484,0.398
							c0.177,0.648,0.508,1.133,0.992,1.452c0.484,0.32,1.045,0.482,1.682,0.484c0.815,0.004,1.494-0.242,2.037-0.738
							c0.541-0.496,0.814-1.182,0.818-2.058c0.004-0.805-0.264-1.444-0.803-1.921c-0.537-0.476-1.215-0.716-2.031-0.72
							c-0.432-0.001-0.779,0.052-1.044,0.158c-0.265,0.107-0.536,0.263-0.812,0.465c-0.156,0.12-0.287,0.206-0.389,0.26
							c-0.102,0.053-0.213,0.08-0.333,0.079l-0.864-0.003c-0.107-0.001-0.204-0.04-0.287-0.118c-0.084-0.079-0.119-0.172-0.107-0.28
							l0.583-5.992c0.038-0.299,0.188-0.448,0.452-0.447l6.229,0.026c0.131,0,0.233,0.036,0.305,0.108
							c0.072,0.072,0.107,0.175,0.107,0.308l-0.003,0.666c-0.001,0.119-0.04,0.215-0.118,0.286
							c-0.078,0.072-0.178,0.107-0.298,0.107l-5.185-0.021l-0.338,3.616c0.577-0.405,1.352-0.606,2.324-0.603
							c0.804,0.004,1.535,0.166,2.193,0.487c0.658,0.319,1.182,0.787,1.57,1.4c0.387,0.614,0.579,1.341,0.575,2.181
							c-0.003,0.889-0.202,1.652-0.595,2.292c-0.393,0.642-0.935,1.125-1.626,1.451c-0.69,0.328-1.481,0.489-2.369,0.485
							C1415.924,332.539,1415.145,332.373,1414.485,332.047z"/>
						<path fill="#3A54F5" d="M1428.137,332.292c-0.078-0.078-0.115-0.177-0.115-0.297l0.035-8.532
							c0.001-0.119,0.04-0.219,0.118-0.297c0.079-0.077,0.178-0.116,0.298-0.115l0.756,0.003c0.119,0,0.216,0.04,0.287,0.118
							c0.072,0.078,0.107,0.179,0.107,0.298l-0.002,0.612c0.65-0.802,1.528-1.2,2.633-1.195c1.319,0.005,2.253,0.561,2.801,1.668
							c0.29-0.503,0.703-0.903,1.238-1.201s1.133-0.445,1.793-0.442c0.982,0.004,1.787,0.343,2.408,1.018
							c0.619,0.675,0.928,1.648,0.924,2.92l-0.021,5.202c-0.002,0.12-0.041,0.219-0.119,0.296c-0.078,0.078-0.178,0.117-0.297,0.116
							l-0.775-0.003c-0.119-0.001-0.219-0.04-0.297-0.119c-0.076-0.078-0.115-0.177-0.115-0.297l0.021-5.04
							c0.004-0.96-0.191-1.647-0.586-2.063c-0.395-0.415-0.916-0.624-1.562-0.627c-0.576-0.003-1.072,0.208-1.488,0.632
							c-0.416,0.425-0.625,1.105-0.629,2.041l-0.021,5.04c0,0.12-0.04,0.219-0.118,0.296c-0.079,0.078-0.177,0.117-0.298,0.116
							l-0.791-0.003c-0.121-0.001-0.22-0.04-0.297-0.119c-0.078-0.078-0.117-0.177-0.116-0.297l0.021-5.04
							c0.004-0.947-0.199-1.633-0.611-2.055c-0.412-0.421-0.925-0.634-1.537-0.636c-0.576-0.003-1.072,0.205-1.487,0.623
							c-0.416,0.419-0.626,1.096-0.63,2.032l-0.021,5.058c-0.001,0.12-0.04,0.219-0.118,0.296c-0.078,0.078-0.178,0.117-0.297,0.116
							l-0.793-0.003C1428.314,332.41,1428.215,332.371,1428.137,332.292z"/>
					</g>
				</g>
			</g>
		</g>
	</g>
	<g display="inline">
		<g id="POLYLINE_1807_">
			
				<line fill="none" stroke="#3A54F5" stroke-width="2" stroke-linecap="round" stroke-linejoin="round" stroke-miterlimit="10" x1="1353.797" y1="577.621" x2="1126.591" y2="577.621"/>
		</g>
		<g id="LINE_85_">
			
				<line fill="none" stroke="#3A54F5" stroke-width="2" stroke-linecap="round" stroke-linejoin="round" stroke-miterlimit="10" x1="999.93" y1="577.621" x2="757.261" y2="577.621"/>
		</g>
		<g id="POLYLINE_1806_">
			
				<polyline fill="none" stroke="#3A54F5" stroke-width="2" stroke-linecap="round" stroke-linejoin="round" stroke-miterlimit="10" points="
				763.89,584.248 757.261,577.621 763.89,570.993 			"/>
		</g>
		<g id="POLYLINE_1805_">
			
				<polyline fill="none" stroke="#3A54F5" stroke-width="2" stroke-linecap="round" stroke-linejoin="round" stroke-miterlimit="10" points="
				1347.171,570.993 1353.797,577.621 1347.171,584.248 			"/>
		</g>
		<g id="MTEXT_87_">
			<g>
				<g>
					<path fill="#3A54F5" d="M1009.984,583.832c-0.072-0.078-0.109-0.177-0.109-0.297v-10.152l-3.023,2.322
						c-0.084,0.072-0.174,0.108-0.27,0.108c-0.108,0-0.211-0.061-0.307-0.181l-0.432-0.558c-0.061-0.084-0.09-0.168-0.09-0.252
						c0-0.132,0.06-0.24,0.18-0.324l3.906-3.023c0.132-0.084,0.288-0.126,0.468-0.126h0.847c0.119,0,0.219,0.039,0.297,0.116
						c0.078,0.078,0.117,0.178,0.117,0.298v11.771c0,0.12-0.039,0.219-0.117,0.297s-0.178,0.117-0.297,0.117h-0.883
						C1010.152,583.949,1010.056,583.91,1009.984,583.832z"/>
					<path fill="#3A54F5" d="M1015.852,583.67c-0.684-0.306-1.203-0.704-1.557-1.196c-0.354-0.492-0.543-1.002-0.567-1.53
						c0-0.108,0.036-0.195,0.108-0.261c0.072-0.066,0.162-0.1,0.27-0.1h0.811c0.131,0,0.24,0.027,0.324,0.081
						c0.083,0.054,0.149,0.159,0.197,0.315c0.156,0.611,0.495,1.044,1.018,1.296c0.521,0.252,1.137,0.378,1.845,0.378
						c0.864,0,1.551-0.207,2.062-0.621c0.51-0.414,0.764-1.005,0.764-1.773c0-1.464-0.894-2.195-2.682-2.195h-1.691
						c-0.121,0-0.219-0.039-0.297-0.117s-0.117-0.177-0.117-0.297v-0.468c0-0.181,0.065-0.336,0.197-0.469l3.51-3.888h-5.327
						c-0.12,0-0.22-0.036-0.298-0.108c-0.078-0.071-0.116-0.168-0.116-0.287v-0.648c0-0.132,0.038-0.237,0.116-0.315
						c0.078-0.077,0.178-0.116,0.298-0.116h7.128c0.132,0,0.236,0.039,0.314,0.116c0.078,0.078,0.117,0.184,0.117,0.315v0.594
						c0,0.133-0.061,0.271-0.18,0.414l-3.51,3.942h0.287c1.225,0.036,2.193,0.354,2.908,0.954c0.713,0.6,1.07,1.476,1.07,2.628
						c0,0.792-0.195,1.473-0.585,2.043s-0.933,1.008-1.629,1.313c-0.696,0.307-1.482,0.459-2.358,0.459
						C1017.346,584.129,1016.535,583.977,1015.852,583.67z"/>
					<path fill="#3A54F5" d="M1024.815,574.49c-0.048-0.065-0.066-0.159-0.054-0.279l0.396-2.52
						c0.048-0.348,0.216-0.522,0.504-0.522h1.152c0.083,0,0.153,0.03,0.207,0.09c0.054,0.061,0.081,0.133,0.081,0.217
						c0,0.12-0.018,0.216-0.055,0.288l-0.936,2.43c-0.061,0.132-0.126,0.231-0.198,0.297c-0.071,0.066-0.18,0.099-0.323,0.099
						h-0.559C1024.936,574.589,1024.863,574.557,1024.815,574.49z"/>
					<path fill="#3A54F5" d="M1035.129,583.67c-0.684-0.306-1.203-0.704-1.557-1.196c-0.354-0.492-0.543-1.002-0.567-1.53
						c0-0.108,0.036-0.195,0.108-0.261c0.072-0.066,0.162-0.1,0.27-0.1h0.811c0.131,0,0.24,0.027,0.324,0.081
						c0.083,0.054,0.149,0.159,0.197,0.315c0.156,0.611,0.495,1.044,1.018,1.296c0.521,0.252,1.137,0.378,1.845,0.378
						c0.864,0,1.551-0.207,2.062-0.621c0.51-0.414,0.764-1.005,0.764-1.773c0-1.464-0.894-2.195-2.682-2.195h-1.691
						c-0.121,0-0.219-0.039-0.297-0.117s-0.117-0.177-0.117-0.297v-0.468c0-0.181,0.065-0.336,0.197-0.469l3.51-3.888h-5.327
						c-0.12,0-0.22-0.036-0.298-0.108c-0.078-0.071-0.116-0.168-0.116-0.287v-0.648c0-0.132,0.038-0.237,0.116-0.315
						c0.078-0.077,0.178-0.116,0.298-0.116h7.128c0.132,0,0.236,0.039,0.314,0.116c0.078,0.078,0.117,0.184,0.117,0.315v0.594
						c0,0.133-0.061,0.271-0.18,0.414l-3.51,3.942h0.287c1.225,0.036,2.193,0.354,2.908,0.954c0.713,0.6,1.07,1.476,1.07,2.628
						c0,0.792-0.195,1.473-0.585,2.043s-0.933,1.008-1.629,1.313c-0.696,0.307-1.482,0.459-2.358,0.459
						C1036.623,584.129,1035.812,583.977,1035.129,583.67z"/>
					<path fill="#3A54F5" d="M1044.084,574.481c-0.055-0.072-0.069-0.162-0.045-0.271l0.396-2.52
						c0.048-0.348,0.216-0.522,0.504-0.522h1.152c0.083,0,0.153,0.03,0.207,0.09c0.054,0.061,0.081,0.133,0.081,0.217
						c0,0.12-0.018,0.216-0.055,0.288l-0.936,2.43c-0.061,0.132-0.126,0.231-0.198,0.297c-0.071,0.066-0.18,0.099-0.323,0.099
						h-0.559C1044.213,574.589,1044.138,574.553,1044.084,574.481z M1046.91,574.481c-0.055-0.072-0.07-0.162-0.045-0.271
						l0.396-2.52c0.048-0.348,0.216-0.522,0.504-0.522h1.151c0.084,0,0.154,0.03,0.207,0.09c0.055,0.061,0.082,0.133,0.082,0.217
						c0,0.12-0.019,0.216-0.055,0.288l-0.936,2.43c-0.061,0.132-0.126,0.231-0.198,0.297c-0.071,0.066-0.181,0.099-0.323,0.099
						h-0.559C1047.039,574.589,1046.964,574.553,1046.91,574.481z"/>
					<path fill="#3A54F5" d="M1055.793,587.576c-0.072-0.078-0.108-0.177-0.108-0.297v-19.044c0-0.12,0.036-0.219,0.108-0.297
						c0.071-0.078,0.168-0.117,0.287-0.117h0.666c0.12,0,0.219,0.039,0.297,0.117s0.117,0.177,0.117,0.297v19.044
						c0,0.12-0.039,0.219-0.117,0.297s-0.177,0.117-0.297,0.117h-0.666C1055.961,587.693,1055.864,587.654,1055.793,587.576z"/>
					<path fill="#3A54F5" d="M1069.859,583.832c-0.078-0.078-0.117-0.177-0.117-0.297v-2.628h-5.85c-0.121,0-0.22-0.039-0.298-0.117
						s-0.116-0.177-0.116-0.297v-0.666c0-0.168,0.065-0.348,0.197-0.54l5.418-7.632c0.061-0.096,0.15-0.171,0.27-0.225
						c0.121-0.055,0.252-0.081,0.396-0.081h1.225c0.131,0,0.233,0.035,0.306,0.107c0.071,0.072,0.108,0.174,0.108,0.307v7.632h1.638
						c0.12,0,0.219,0.039,0.297,0.117c0.077,0.078,0.116,0.177,0.116,0.297v0.684c0,0.12-0.039,0.219-0.116,0.297
						c-0.078,0.078-0.177,0.117-0.297,0.117h-1.638v2.628c0,0.12-0.039,0.219-0.117,0.297s-0.178,0.117-0.297,0.117h-0.828
						C1070.035,583.949,1069.938,583.91,1069.859,583.832z M1065.35,579.432h4.41v-6.265L1065.35,579.432z"/>
					<path fill="#3A54F5" d="M1075.097,583.832c-0.078-0.078-0.116-0.177-0.116-0.297v-1.242c0-0.119,0.038-0.222,0.116-0.306
						s0.177-0.126,0.298-0.126h1.241c0.12,0,0.219,0.042,0.297,0.126s0.117,0.187,0.117,0.306v1.242c0,0.12-0.039,0.219-0.117,0.297
						s-0.177,0.117-0.297,0.117h-1.241C1075.273,583.949,1075.175,583.91,1075.097,583.832z"/>
					<path fill="#3A54F5" d="M1080.264,582.771c-0.715-0.906-1.096-2.091-1.144-3.556l-0.019-1.548l0.019-1.602
						c0.036-1.452,0.417-2.631,1.144-3.537c0.726-0.906,1.856-1.359,3.393-1.359c1.548,0,2.686,0.453,3.411,1.359
						s1.106,2.085,1.144,3.537c0.012,0.336,0.018,0.87,0.018,1.602c0,0.708-0.006,1.225-0.018,1.548
						c-0.049,1.465-0.43,2.649-1.144,3.556s-1.851,1.358-3.411,1.358C1082.108,584.129,1080.977,583.677,1080.264,582.771z
						 M1085.744,581.717c0.469-0.611,0.714-1.476,0.738-2.592c0.012-0.348,0.018-0.846,0.018-1.494c0-0.659-0.006-1.151-0.018-1.476
						c-0.024-1.104-0.273-1.965-0.747-2.583s-1.167-0.927-2.079-0.927s-1.602,0.309-2.07,0.927
						c-0.468,0.618-0.714,1.479-0.738,2.583l-0.018,1.476l0.018,1.494c0.024,1.116,0.271,1.98,0.738,2.592
						c0.469,0.612,1.158,0.918,2.07,0.918C1084.58,582.635,1085.276,582.329,1085.744,581.717z"/>
					<path fill="#3A54F5" d="M1096.301,583.832c-0.078-0.078-0.117-0.177-0.117-0.297v-2.628h-5.85c-0.12,0-0.219-0.039-0.297-0.117
						s-0.117-0.177-0.117-0.297v-0.666c0-0.168,0.066-0.348,0.197-0.54l5.418-7.632c0.061-0.096,0.15-0.171,0.271-0.225
						c0.12-0.055,0.252-0.081,0.396-0.081h1.225c0.132,0,0.234,0.035,0.307,0.107c0.071,0.072,0.107,0.174,0.107,0.307v7.632h1.639
						c0.119,0,0.219,0.039,0.297,0.117c0.077,0.078,0.116,0.177,0.116,0.297v0.684c0,0.12-0.039,0.219-0.116,0.297
						c-0.078,0.078-0.178,0.117-0.297,0.117h-1.639v2.628c0,0.12-0.039,0.219-0.117,0.297s-0.178,0.117-0.297,0.117h-0.828
						C1096.478,583.949,1096.379,583.91,1096.301,583.832z M1091.792,579.432h4.409v-6.265L1091.792,579.432z"/>
					<path fill="#3A54F5" d="M1106.381,583.832c-0.078-0.078-0.117-0.177-0.117-0.297v-8.532c0-0.119,0.039-0.219,0.117-0.297
						s0.177-0.117,0.297-0.117h0.756c0.119,0,0.216,0.039,0.288,0.117c0.071,0.078,0.108,0.178,0.108,0.297v0.612
						c0.647-0.804,1.523-1.206,2.627-1.206c1.32,0,2.256,0.552,2.809,1.656c0.288-0.504,0.699-0.906,1.232-1.206
						c0.534-0.3,1.131-0.45,1.791-0.45c0.984,0,1.789,0.336,2.412,1.008c0.624,0.673,0.937,1.645,0.937,2.916v5.202
						c0,0.12-0.039,0.219-0.117,0.297s-0.177,0.117-0.297,0.117h-0.774c-0.119,0-0.219-0.039-0.297-0.117s-0.117-0.177-0.117-0.297
						v-5.04c0-0.96-0.197-1.646-0.594-2.061s-0.918-0.621-1.566-0.621c-0.575,0-1.07,0.213-1.484,0.639s-0.621,1.107-0.621,2.043
						v5.04c0,0.12-0.039,0.219-0.117,0.297s-0.177,0.117-0.297,0.117h-0.792c-0.12,0-0.22-0.039-0.297-0.117
						c-0.078-0.078-0.117-0.177-0.117-0.297v-5.04c0-0.947-0.207-1.632-0.62-2.052c-0.414-0.42-0.928-0.63-1.539-0.63
						c-0.576,0-1.072,0.21-1.486,0.63s-0.62,1.098-0.62,2.034v5.058c0,0.12-0.04,0.219-0.117,0.297
						c-0.078,0.078-0.177,0.117-0.297,0.117h-0.792C1106.558,583.949,1106.459,583.91,1106.381,583.832z"/>
				</g>
			</g>
		</g>
	</g>
</g>
<g id="N-TEXT" display="none">
</g>
<g id="AG-DIAGRAM">
	<g id="POLYLINE_1804_">
		<g>
			<g>
				
					<line fill="none" stroke="#3A54F5" stroke-width="3" stroke-linecap="round" stroke-linejoin="round" x1="116.375" y1="538.874" x2="118.875" y2="538.874"/>
				
					<line fill="none" stroke="#3A54F5" stroke-width="3" stroke-linecap="round" stroke-linejoin="round" stroke-dasharray="5.0183,7.0257" x1="125.901" y1="538.874" x2="423.487" y2="538.874"/>
				
					<line fill="none" stroke="#3A54F5" stroke-width="3" stroke-linecap="round" stroke-linejoin="round" x1="427" y1="538.874" x2="429.5" y2="538.874"/>
			</g>
		</g>
	</g>
	<g id="POLYLINE_1803_">
		<g>
			<g>
				
					<line fill="none" stroke="#3A54F5" stroke-width="3" stroke-linecap="round" stroke-linejoin="round" x1="116.375" y1="595.124" x2="118.875" y2="595.124"/>
				
					<line fill="none" stroke="#3A54F5" stroke-width="3" stroke-linecap="round" stroke-linejoin="round" stroke-dasharray="5.0183,7.0257" x1="125.901" y1="595.124" x2="423.487" y2="595.124"/>
				
					<line fill="none" stroke="#3A54F5" stroke-width="3" stroke-linecap="round" stroke-linejoin="round" x1="427" y1="595.124" x2="429.5" y2="595.124"/>
			</g>
		</g>
	</g>
	<g id="POLYLINE_1802_">
		<g>
			<g>
				<path fill="none" stroke="#3A54F5" stroke-width="3" stroke-linecap="round" stroke-linejoin="round" d="M233.875,527.624h2.5
					c-0.005-0.834-0.017-1.668-0.036-2.502"/>
				
					<path fill="none" stroke="#3A54F5" stroke-width="3" stroke-linecap="round" stroke-linejoin="round" stroke-dasharray="4.905,6.867" d="
					M235.999,518.265c-0.22-2.863-0.539-5.718-0.971-8.561c-0.942-6.21-2.355-12.356-4.265-18.34
					c-1.821-5.706-4.039-11.285-6.69-16.658c-2.733-5.54-5.873-10.871-9.418-15.931c-3.574-5.102-7.546-9.917-11.865-14.407
					c-4.325-4.496-9.009-8.635-13.977-12.409c-4.936-3.75-10.178-7.092-15.633-10.034c-5.306-2.862-10.838-5.301-16.513-7.331
					c-5.814-2.079-11.792-3.691-17.855-4.85c-5.447-1.041-10.967-1.694-16.506-1.97"/>
				<path fill="none" stroke="#3A54F5" stroke-width="3" stroke-linecap="round" stroke-linejoin="round" d="M118.875,407.653
					c-0.833-0.016-1.666-0.024-2.5-0.029v2.5"/>
				
					<line fill="none" stroke="#3A54F5" stroke-width="3" stroke-linecap="round" stroke-linejoin="round" stroke-dasharray="5,7" x1="116.375" y1="417.124" x2="116.375" y2="521.624"/>
				<polyline fill="none" stroke="#3A54F5" stroke-width="3" stroke-linecap="round" stroke-linejoin="round" points="
					116.375,525.124 116.375,527.624 118.875,527.624 				"/>
				
					<line fill="none" stroke="#3A54F5" stroke-width="3" stroke-linecap="round" stroke-linejoin="round" stroke-dasharray="5,7" x1="125.875" y1="527.624" x2="230.375" y2="527.624"/>
			</g>
		</g>
	</g>
	<g id="POLYLINE_1801_">
		<g>
			<g>
				<path fill="none" stroke="#3A54F5" stroke-width="3" stroke-linecap="round" stroke-linejoin="round" d="M888.875,421.374v-2.5
					c0.834,0.005,1.668,0.017,2.502,0.036"/>
				
					<path fill="none" stroke="#3A54F5" stroke-width="3" stroke-linecap="round" stroke-linejoin="round" stroke-dasharray="4.905,6.867" d="
					M898.234,419.25c2.863,0.22,5.718,0.539,8.561,0.971c6.21,0.942,12.356,2.355,18.34,4.265c5.706,1.821,11.285,4.039,16.658,6.69
					c5.54,2.733,10.871,5.874,15.931,9.419c5.102,3.574,9.917,7.546,14.407,11.865c4.496,4.325,8.635,9.009,12.409,13.976
					c3.75,4.936,7.092,10.178,10.034,15.633c2.862,5.306,5.301,10.838,7.331,16.513c2.079,5.814,3.691,11.792,4.85,17.855
					c1.041,5.447,1.694,10.967,1.97,16.506"/>
				<path fill="none" stroke="#3A54F5" stroke-width="3" stroke-linecap="round" stroke-linejoin="round" d="M1008.846,536.374
					c0.016,0.833,0.024,1.666,0.029,2.5c0,0-0.883,0-2.496,0"/>
				
					<path fill="none" stroke="#3A54F5" stroke-width="3" stroke-linecap="round" stroke-linejoin="round" stroke-dasharray="5,7" d="
					M999.382,538.874c-23.722,0-85.072,0-104.508,0"/>
				<path fill="none" stroke="#3A54F5" stroke-width="3" stroke-linecap="round" stroke-linejoin="round" d="M891.371,538.874
					c-1.614,0-2.496,0-2.496,0v-2.5"/>
				
					<line fill="none" stroke="#3A54F5" stroke-width="3" stroke-linecap="round" stroke-linejoin="round" stroke-dasharray="5,7" x1="888.875" y1="529.374" x2="888.875" y2="424.874"/>
			</g>
		</g>
	</g>
	<g id="POLYLINE_1800_">
		<g>
			<g>
				
					<line fill="none" stroke="#3A54F5" stroke-width="3" stroke-linecap="round" stroke-linejoin="round" x1="802.625" y1="103.874" x2="802.625" y2="106.374"/>
				
					<line fill="none" stroke="#3A54F5" stroke-width="3" stroke-linecap="round" stroke-linejoin="round" stroke-dasharray="5.0228,7.0319" x1="802.625" y1="113.406" x2="802.625" y2="350.983"/>
				
					<line fill="none" stroke="#3A54F5" stroke-width="3" stroke-linecap="round" stroke-linejoin="round" x1="802.625" y1="354.499" x2="802.625" y2="356.999"/>
			</g>
		</g>
	</g>
	<g id="POLYLINE_1799_">
		<g>
			<g>
				
					<line fill="none" stroke="#3A54F5" stroke-width="3" stroke-linecap="round" stroke-linejoin="round" x1="858.875" y1="103.874" x2="858.875" y2="106.374"/>
				
					<line fill="none" stroke="#3A54F5" stroke-width="3" stroke-linecap="round" stroke-linejoin="round" stroke-dasharray="5.0228,7.0319" x1="858.875" y1="113.406" x2="858.875" y2="350.983"/>
				
					<line fill="none" stroke="#3A54F5" stroke-width="3" stroke-linecap="round" stroke-linejoin="round" x1="858.875" y1="354.499" x2="858.875" y2="356.999"/>
			</g>
		</g>
	</g>
</g>
<g id="AG-ANIMALS">
</g>
<g id="AG-PEOPLE">
	<g id="POLYLINE_1792_">
		
			<path fill="none" stroke="#3A54F5" stroke-width="2.5" stroke-linecap="round" stroke-linejoin="round" stroke-miterlimit="10" d="
			M1163.554,300.902c1.085,3.98,0.909,8.214,2.122,12.144c0.28,0.909,0.67,1.781,0.921,2.698"/>
	</g>
	<g id="POLYLINE_1791_">
		
			<path fill="none" stroke="#3A54F5" stroke-width="2.5" stroke-linecap="round" stroke-linejoin="round" stroke-miterlimit="10" d="
			M1114.82,256.833c0.084-0.536,0.2-2.615,0.867-2.852"/>
	</g>
	<g id="POLYLINE_1790_">
		
			<path fill="none" stroke="#3A54F5" stroke-width="2.5" stroke-linecap="round" stroke-linejoin="round" stroke-miterlimit="10" d="
			M1150.782,260.32c0.828,1.397,2.712,1.742,3.956,2.656c1.895,1.392,3.597,3.05,5.482,4.464c4.733,3.551,9.618,6.935,13.96,10.973
			c3.499,3.254,6.712,6.955,8.293,11.536c1.692,4.903,1.223,9.821,1.167,14.898c-0.023,2.096,0.593,4.07,0.68,6.139
			c0.077,1.826-0.446,3.668-0.906,5.416c-1.43,5.437-2.838,10.78-3.706,16.34c-0.276,1.771-0.539,3.544-0.829,5.312
			c-0.117,0.714-0.219,1.484-0.496,2.161c-0.507,1.239-1.513,1.34-2.707,1.138c-2.49-0.422-4.939-1.392-7.297-2.269
			c-1.249-0.464-4.043-1.129-4.634-2.574c-0.214-0.523-0.056-1.127,0.086-1.647c0.319-1.169,0.76-2.301,1.072-3.473
			c0.664-2.493,0.997-5.055,1.223-7.621c0.501-5.704,0.673-11.47,0.656-17.195c-0.004-1.321-0.045-2.642-0.072-3.962"/>
	</g>
	<g id="POLYLINE_1789_">
		
			<path fill="none" stroke="#3A54F5" stroke-width="2.5" stroke-linecap="round" stroke-linejoin="round" stroke-miterlimit="10" d="
			M1164.832,351.979c-0.604-2.462-1.126-4.943-1.538-7.445"/>
	</g>
	<g id="POLYLINE_1788_">
		
			<path fill="none" stroke="#3A54F5" stroke-width="2.5" stroke-linecap="round" stroke-linejoin="round" stroke-miterlimit="10" d="
			M1114.82,256.833c-1.269,2.999-1.986,5.56-1.445,8.824c0.675,4.072,2.393,8.222,5.16,11.319c2.923,3.271,7.043,5.052,10.224,8.015
			c3.181,2.963,4.356,7.165,6.465,10.834c2.116,3.68,5.725,6.113,8.068,9.614c2.109,3.152,3.053,6.999,3.491,10.722
			c0.541,4.6,0.1,9.25,0.674,13.85c0.571,4.574,1.822,9.101,3.262,13.471c0.297,0.901,0.711,3.18,1.779,3.624
			c0.534,0.222,1.383-0.001,1.914-0.048c1.324-0.119,2.652-0.217,3.971-0.383c1.257-0.159,3.123-0.275,4.156-1.143
			c1.111-0.934,1.661-2.79,2.183-4.065c0.45-1.1,0.867-2.214,1.284-3.327"/>
	</g>
	<g id="POLYLINE_1787_">
		
			<path fill="none" stroke="#3A54F5" stroke-width="2.5" stroke-linecap="round" stroke-linejoin="round" stroke-miterlimit="10" d="
			M1153.163,347.169c1.615,3.976,2.85,8.011,3.626,12.235c0.687,3.738,1.539,7.939,0.796,11.725
			c-0.385,1.963-1.729,4.603-0.481,6.546c0.772,1.202,2.344,1.885,3.729,1.998c1.104,0.09,2.201-0.195,3.305-0.191
			c1.083,0.004,2.146,0.202,3.189,0.483c4.243,1.143,8.21,3.146,12.303,4.707c1.943,0.741,3.958,1.327,6.016,1.648
			c0.588,0.092,2.649,0.55,2.391-0.577c-0.123-0.539-0.713-1.126-1.038-1.536c-0.622-0.785-1.287-1.537-1.967-2.271
			c-1.408-1.52-2.956-2.89-4.587-4.166c-3.227-2.526-6.918-4.604-9.507-7.85c-2.372-2.974-3.949-6.712-4.931-10.363
			c-0.255-0.95-0.463-1.914-0.606-2.888"/>
	</g>
	<g id="POLYLINE_1786_">
		
			<path fill="none" stroke="#3A54F5" stroke-width="2.5" stroke-linecap="round" stroke-linejoin="round" stroke-miterlimit="10" d="
			M1168.817,339.246c0.54,2.222,0.304,4.907-0.409,7.061c-0.339,1.025-1.14,1.808-1.714,2.706c-0.536,0.839-1.037,1.701-1.578,2.537
			c-0.38,0.588-0.893,1.134-1.18,1.775c-1.109,2.483,1.819,3.586,3.62,4.094c3.475,0.981,6.751,2.05,9.901,3.847
			c3.371,1.923,6.588,4.181,9.609,6.615c1.058,0.853,1.923,1.817,2.901,2.734c0.555,0.519,1.584,0.845,2.342,0.759
			c2.173-0.246,0.396-3.216-0.381-4.057c-1.131-1.223-2.383-2.273-3.392-3.612c-1.09-1.447-2.22-2.888-3.25-4.377
			c-1.127-1.63-2.127-3.346-3.189-5.018c-0.764-1.204-1.674-2.208-2.509-3.339c-0.763-1.033-1.03-2.497-1.349-3.707
			c-0.411-1.56-0.822-3.171-0.958-4.784c-0.031-0.366-0.06-0.744,0.02-1.105"/>
	</g>
	<g id="POLYLINE_1785_">
		
			<path fill="none" stroke="#3A54F5" stroke-width="2.5" stroke-linecap="round" stroke-linejoin="round" stroke-miterlimit="10" d="
			M1166.711,302.611c-1.677-0.96-3.421-1.693-4.857-3.017c-1.807-1.665-3.214-3.74-4.836-5.578
			c-3.579-4.055-7.912-6.993-12.976-8.888c-2.629-0.984-5.347-1.684-8.118-2.127"/>
	</g>
	<g id="POLYLINE_1784_">
		
			<path fill="none" stroke="#3A54F5" stroke-width="2.5" stroke-linecap="round" stroke-linejoin="round" stroke-miterlimit="10" d="
			M1135.924,283.001c-3.733-0.193-7.751-0.283-11.324-1.499c-0.54-0.184-1.077-0.402-1.552-0.724"/>
	</g>
	<g id="POLYLINE_1783_">
		
			<line fill="none" stroke="#3A54F5" stroke-width="2.5" stroke-linecap="round" stroke-linejoin="round" stroke-miterlimit="10" x1="1166.415" y1="172.328" x2="1171.694" y2="177.38"/>
	</g>
	<g id="POLYLINE_1782_">
		
			<path fill="none" stroke="#3A54F5" stroke-width="2.5" stroke-linecap="round" stroke-linejoin="round" stroke-miterlimit="10" d="
			M1171.654,177.342c1.09,1.03-2.511,1.271-2.912,1.333c-2.025,0.31-3.954,0.86-5.94,1.345"/>
	</g>
	<g id="POLYLINE_1781_">
		
			<path fill="none" stroke="#3A54F5" stroke-width="2.5" stroke-linecap="round" stroke-linejoin="round" stroke-miterlimit="10" d="
			M1149.011,172.789c-1.569,0.078-2.381-0.301-3.374-1.544c-1.01-1.264-1.556-2.837-1.93-4.398c-0.16-0.668-0.169-1.329,0.005-1.995
			"/>
	</g>
	<g id="POLYLINE_1780_">
		
			<path fill="none" stroke="#3A54F5" stroke-width="2.5" stroke-linecap="round" stroke-linejoin="round" stroke-miterlimit="10" d="
			M1165.714,158.01c-0.973-0.155-2.195-0.151-3.11-0.572c-0.625-0.287-0.996-0.903-1.667-1.145c-1.211-0.438-2.37,0.128-2.423,1.471
			c-0.053,1.359,0.797,3.019-0.635,3.966c-0.586,0.388-1.331,0.377-1.939,0.71c-0.578,0.316-0.888,0.894-1.089,1.499
			c-0.381,1.145-0.057,2.533-1.526,2.91c-1.838,0.472-2.49-1.39-3.533-2.537c-0.779-0.857-2.035-1.466-3.207-1.548
			c-1.641-0.115-2.626,1.097-3.01,2.553c-0.475,1.801-0.26,4.164-1.371,5.736c-0.557,0.788-2.203,2.606-3.359,2.088
			c-0.282-0.126-0.342-0.414-0.345-0.707"/>
	</g>
	<g id="POLYLINE_1779_">
		
			<path fill="none" stroke="#3A54F5" stroke-width="2.5" stroke-linecap="round" stroke-linejoin="round" stroke-miterlimit="10" d="
			M1137.493,177.339c0.392-1.239,0.935-2.556,1.024-3.868c0.115-1.693-0.163-3.454-0.248-5.144
			c-0.172-3.432-0.244-6.921,0.601-10.279c0.237-0.942,0.531-1.891,1.018-2.737c0.637-1.105,1.543-2.035,2.266-3.083
			c0.952-1.38,1.117-3.108,2.174-4.408c2.687-3.304,7.615-4.515,11.673-3.525c0.863,0.211,1.767,0.519,2.616,0.785
			c0.867,0.272,1.564,1.034,2.36,1.477c1.205,0.671,2.538,1.187,3.621,2.057c1.162,0.935,2.147,2.094,3.248,3.101
			c1.433,1.31,2.259,2.651,2.204,4.65c-0.032,1.174-0.654,1.625-1.432,2.396c-0.689,0.684,0.234,1.782-0.454,2.471
			c-0.256,0.256-0.789,0.276-1.128,0.302"/>
	</g>
	<g id="POLYLINE_1778_">
		
			<path fill="none" stroke="#3A54F5" stroke-width="2.5" stroke-linecap="round" stroke-linejoin="round" stroke-miterlimit="10" d="
			M1152.734,184.95c-0.809,0.874-1.017,2.313-1.057,3.459"/>
	</g>
	<g id="POLYLINE_1777_">
		
			<path fill="none" stroke="#3A54F5" stroke-width="2.5" stroke-linecap="round" stroke-linejoin="round" stroke-miterlimit="10" d="
			M1165.714,158.01c0.692,1.064,1.194,2.163,1.315,3.435c0.1,1.048,0.011,2.115,0.002,3.165c-0.009,1.008,0.209,2.159-0.129,3.13
			c-0.272,0.782-0.673,1.372-0.711,2.223c-0.034,0.751,0.071,1.516,0.204,2.253c0.263,1.46,1.559,4.048-0.694,4.473
			c-0.261,0.049-0.701-0.034-0.866,0.187c-0.138,0.186-0.027,0.766-0.058,1.022c-0.075,0.613-0.279,1.286-0.873,1.592
			c-0.308,0.159-0.66,0.114-0.937,0.348c-0.302,0.255-0.281,0.605-0.454,0.927c-0.361,0.671-1.199,0.514-1.611,1.075
			c-0.441,0.601-0.381,1.586-0.61,2.282c-0.25,0.76-0.741,1.32-1.516,1.579c-1.428,0.479-3.35,0.133-4.767-0.255
			c-2.458-0.672-3.856-2.801-4.733-5.069c-0.243-0.629-0.455-1.269-0.655-1.913"/>
	</g>
	<g id="POLYLINE_1776_">
		
			<path fill="none" stroke="#3A54F5" stroke-width="2.5" stroke-linecap="round" stroke-linejoin="round" stroke-miterlimit="10" d="
			M1180.415,186.387c1.87-1.268,3.457-2.885,4.586-4.847c0.574-0.997,1.234-2.236,0.777-3.403c-0.74-1.888-2.916-3.437-4.363-4.724
			c-2.049-1.822-4.203-3.525-6.419-5.139c-2.565-1.868-5.188-3.703-7.943-5.283"/>
	</g>
	<g id="POLYLINE_1775_">
		
			<path fill="none" stroke="#3A54F5" stroke-width="2.5" stroke-linecap="round" stroke-linejoin="round" stroke-miterlimit="10" d="
			M1169.466,192.391c-4.996,1.099-9.99,2.198-15.045,2.996"/>
	</g>
	<g id="POLYLINE_1774_">
		
			<path fill="none" stroke="#3A54F5" stroke-width="2.5" stroke-linecap="round" stroke-linejoin="round" stroke-miterlimit="10" d="
			M1167.177,224.579c1.866-3.665,3.431-7.373,4.793-11.251c0.632-1.799,1.41-3.536,2.176-5.281c0.66-1.505,1.232-3.136,2.092-4.545
			c0.653-1.07,1.676-1.844,2.489-2.784c1.083-1.253,1.896-2.734,2.722-4.161c0.494-0.853,0.701-1.467,0.27-2.399
			c-0.448-0.969-1.135-1.868-1.26-2.958c-0.121-1.05,0.154-2.079-0.005-3.138c-0.149-0.991,0.218-2.097-0.521-2.912
			c-0.688-0.759-1.527-0.527-2.368-0.189c-1.418,0.571-2.911,1.143-4.195,1.99c-1.654,1.091-3.101,2.779-3.71,4.688
			c-0.857,2.685-0.155,5.665-0.635,8.436c-0.622,3.597-1.885,7.191-3.614,10.405c-1.154,2.144-2.616,4.17-4.682,5.513
			c-0.464,0.302-0.949,0.571-1.451,0.804"/>
	</g>
	<g id="POLYLINE_1773_">
		
			<path fill="none" stroke="#3A54F5" stroke-width="2.5" stroke-linecap="round" stroke-linejoin="round" stroke-miterlimit="10" d="
			M1153.605,233.888c0.514,6.733,0.463,13.465-0.11,20.194c-0.163,1.917-0.38,3.827-0.612,5.737"/>
	</g>
	<g id="POLYLINE_1760_">
		
			<path fill="none" stroke="#3A54F5" stroke-width="2.5" stroke-linecap="round" stroke-linejoin="round" stroke-miterlimit="10" d="
			M1114.943,253.644c1.294-8.526,2.408-17.079,3.183-25.669c0.766-8.482,0.792-16.961,2.383-25.353
			c0.778-4.102,1.782-8.162,3.209-12.089c1.276-3.511,2.727-7.374,5-10.379c0.779-1.03,1.827-1.532,2.965-2.109
			c0.849-0.431,1.713-0.785,2.663-0.909c1.886-0.246,3.945,0.209,5.64,1.037c1.803,0.88,2.612,2.374,3.823,3.866
			c1.873,2.309,4.934,3.38,7.043,5.458c2.007,1.978,2.741,4.824,3.456,7.468c0.492,1.818,0.912,3.669,1.127,5.543
			c0.221,1.935,0.162,3.891,0.396,5.825c0.217,1.797,0.754,3.538,1.371,5.234c0.684,1.881,1.347,3.844,2.265,5.627
			c0.588,1.142,1.48,1.322,2.601,1.852c0.958,0.453,1.87,0.997,2.634,1.739c1.296,1.258,3.035,3.398,2.297,5.284
			c-0.619,1.583-1.683,3.051-2.64,4.442c-0.758,1.102-1.55,2.363-2.669,3.143c-1.57,1.093-3.981,1.576-5.848,1.2
			c-2.44-0.492-4.411-2.605-5.965-4.395c-2.627-3.026-4.641-6.566-6.189-10.25c-1.451-3.451-2.273-7.248-4.195-10.479
			c-0.972-1.633-2.135-3.141-3.317-4.625"/>
	</g>
	<g id="POLYLINE_1759_">
		
			<path fill="none" stroke="#3A54F5" stroke-width="2.5" stroke-linecap="round" stroke-linejoin="round" stroke-miterlimit="10" d="
			M1152.882,259.819c-5.003,1.288-10.287,1.842-15.448,1.481c-5.363-0.375-9.976-2.469-14.82-4.629
			c-1.336-0.596-2.695-1.145-4.066-1.656c-1.182-0.44-2.509-0.736-3.605-1.371"/>
	</g>
	<g id="POLYLINE_1758_">
		
			<path fill="none" stroke="#3A54F5" stroke-width="2.5" stroke-linecap="round" stroke-linejoin="round" stroke-miterlimit="10" d="
			M359.648,186.438c1.64,0.713,3.633,1.758,5.489,1.647c1.701-0.102,2.46-2.156,3.03-3.497c0.615-1.447,1.032-2.974,1.244-4.533"/>
	</g>
	<g id="POLYLINE_1757_">
		
			<path fill="none" stroke="#3A54F5" stroke-width="2.5" stroke-linecap="round" stroke-linejoin="round" stroke-miterlimit="10" d="
			M352.783,195.179c0.012-2.041,1.886-2.963,2.337-4.869c0.403-1.703-0.857-3-2.15-3.906c-2.461-1.724-5.66-2.532-7.771-4.739
			c-0.762-0.796-1.267-1.784-1.771-2.754c-0.812-1.562-1.757-3.12-2.369-4.777c-0.553-1.497-0.703-3.109-0.892-4.682
			c-0.264-2.189-0.412-4.366-0.474-6.57"/>
	</g>
	<g id="POLYLINE_1756_">
		
			<path fill="none" stroke="#3A54F5" stroke-width="2.5" stroke-linecap="round" stroke-linejoin="round" stroke-miterlimit="10" d="
			M378.708,308.342c3.689,7.151,9.183,13.224,14.321,19.346c1.772,2.112,3.545,4.224,5.317,6.337"/>
	</g>
	<g id="POLYLINE_1755_">
		
			<path fill="none" stroke="#3A54F5" stroke-width="2.5" stroke-linecap="round" stroke-linejoin="round" stroke-miterlimit="10" d="
			M377.799,259.185c0.481-4.379,1.461-8.528,2.448-12.809c0.763-3.307,1.257-7.178,0.678-10.551
			c-0.171-0.994-0.536-1.931-1.007-2.821"/>
	</g>
	<g id="POLYLINE_1754_">
		
			<path fill="none" stroke="#3A54F5" stroke-width="2.5" stroke-linecap="round" stroke-linejoin="round" stroke-miterlimit="10" d="
			M365.269,237.161c1.596,5.46,3.192,10.919,4.788,16.379c1.297,4.437,2.579,8.876,3.779,13.34c0.684,2.543,1.298,5.105,1.804,7.69"
			/>
	</g>
	<g id="POLYLINE_1753_">
		
			<path fill="none" stroke="#3A54F5" stroke-width="2.5" stroke-linecap="round" stroke-linejoin="round" stroke-miterlimit="10" d="
			M350.493,201.338c0.446,3.788,1.211,7.52,2.555,11.097c1.294,3.445,3.048,6.713,4.805,9.94c1.257,2.309,2.513,4.618,3.77,6.927"/>
	</g>
	<g id="POLYLINE_1752_">
		
			<path fill="none" stroke="#3A54F5" stroke-width="2.5" stroke-linecap="round" stroke-linejoin="round" stroke-miterlimit="10" d="
			M407.769,347.78c4.179,6.235,4.493,13.898,3.657,21.161c-0.115,1.002-0.355,1.962-0.775,2.881
			c-0.488,1.068-1.347,2.06-1.618,3.217c-0.224,0.959,0.474,1.579,1.399,1.648c0.888,0.066,1.755-0.381,2.48-0.847
			c2.107-1.354,3.862-3.415,5.038-5.609c1.681-3.135,2.192-6.749,3.766-9.945c1.787-3.631,5.529-9.163,1.453-12.727
			c-1.723-1.507-4.035-2.066-5.625-3.765c-2.402-2.567-4.104-5.71-5.355-8.973c-0.336-0.875-0.636-1.762-0.923-2.655"/>
	</g>
	<g id="POLYLINE_1751_">
		
			<path fill="none" stroke="#3A54F5" stroke-width="2.5" stroke-linecap="round" stroke-linejoin="round" stroke-miterlimit="10" d="
			M354.437,323.126c-0.772,2.272-1.536,4.547-2.366,6.799c-0.603,1.635-1.183,3.358-2.103,4.848
			c-1.463,2.369-3.795,3.616-6.228,4.806c-1.158,0.566-2.438,1.095-2.745,2.489c-0.192,0.871-0.007,1.792,0.304,2.612
			c1.277,3.372,4.317,6.091,6.763,8.62c1.052,1.088,2.212,2.151,3,3.458c0.756,1.254,1.105,2.72,1.575,4.092
			c0.642,1.872,1.41,3.721,2.472,5.397c1.021,1.611,2.093,3.374,3.417,4.759c0.565,0.591,2.144,1.71,2.427,0.252
			c0.1-0.517-0.078-1.105-0.215-1.602c-0.342-1.247-0.762-2.476-1.146-3.711c-1.262-4.057-2.14-8.222-2.534-12.453
			c-0.312-3.353-0.758-7.156,0.436-10.388c1.51-4.09,3.539-8.203,5.883-11.879c0.492-0.771,1.012-1.527,1.59-2.237"/>
	</g>
	<g id="POLYLINE_1750_">
		
			<path fill="none" stroke="#3A54F5" stroke-width="2.5" stroke-linecap="round" stroke-linejoin="round" stroke-miterlimit="10" d="
			M321.823,307.674c-1.116,1.861-1.543,4.012-1.939,6.117c-0.199,1.06-0.354,2.145-0.715,3.165
			c-0.434,1.225-1.035,2.392-1.534,3.592c-1.119,2.693-2.268,5.431-2.977,8.267c-0.358,1.431-0.712,3.027-0.368,4.499
			c0.575,2.458,2.405,5.859,4.995,6.77c3.108,1.092,5.074-3.957,5.773-6.072c1.046-3.166,1.739-6.47,2.572-9.696
			c0.649-2.514,1.203-5.042,1.471-7.628c0.072-0.691,0.124-1.384,0.161-2.077"/>
	</g>
	<g id="POLYLINE_1749_">
		
			<path fill="none" stroke="#3A54F5" stroke-width="2.5" stroke-linecap="round" stroke-linejoin="round" stroke-miterlimit="10" d="
			M322.241,154.754c-0.69,0.122-1.2-4.599-1.275-5.001c-0.274-1.476-1.248-2.692-1.555-4.142c-0.288-1.361,0.273-2.89,0.726-4.146
			c0.344-0.955,0.636-2.03,1.189-2.894c0.486-0.758,1.066-1.472,1.568-2.222c0.864-1.29,2.104-1.78,3.496-2.378
			c1.36-0.584,2.775-1.129,4.262-1.26c1.363-0.12,2.634,0.231,3.961,0.499c1.234,0.249,2.211,0.311,3.334,0.973
			c0.553,0.326,0.988,0.849,1.545,1.143c0.738,0.39,1.332,0.503,1.807,1.288c0.383,0.633,0.319,1.294,0.432,1.994
			c0.102,0.635,0.367,1.238,0.635,1.818c0.526,1.14,1.065,2.19,1.219,3.449c0.164,1.338,0.035,2.743-0.236,4.059
			c-0.33,1.6-0.622,3.736-1.584,5.119c-0.546,0.784-0.736-0.102-0.885-0.651c-0.24-0.886-0.436-1.525-0.946-2.287
			c-0.825-1.233-1.744-2.542-1.901-4.056c-0.14-1.356-0.687-2.3-2.175-2.409c-2.068-0.152-4.154,0.489-6.211,0.621
			c-1.351,0.087-2.583-0.079-3.757,0.719c-0.686,0.466-1.285,1.069-1.953,1.564c-0.507,0.376-1.154,0.722-1.268,1.39
			c-0.272,1.598,0.337,3.286,0.102,4.909C322.723,153.176,322.638,154.569,322.241,154.754z"/>
	</g>
	<g id="POLYLINE_1748_">
		
			<path fill="none" stroke="#3A54F5" stroke-width="2.5" stroke-linecap="round" stroke-linejoin="round" stroke-miterlimit="10" d="
			M323.672,163.297c-0.325-1.123-0.546-2.229-0.7-3.384c-0.137-1.025-0.737-0.816-1.511-1.262c-1.269-0.73-1.071-2.976-0.973-4.194
			c0.069-0.855,0.258-1.627,0.875-2.266"/>
	</g>
	<g id="POLYLINE_1747_">
		
			<path fill="none" stroke="#3A54F5" stroke-width="2.5" stroke-linecap="round" stroke-linejoin="round" stroke-miterlimit="10" d="
			M305.805,244.279c3.061-1.327,6.227-2.22,9.584-2.263c3.618-0.047,7.229,0.601,10.835,0.833c3.361,0.216,6.631-0.042,9.961-0.502
			c1.82-0.251,3.636-0.522,5.443-0.855c0.964-0.177,1.925-0.369,2.884-0.575c0.273-0.059,0.999-0.356,1.259-0.283
			c0.278,0.078,0.686,0.715,0.884,0.931c2.452,2.676,4.388,5.751,6.577,8.634c2.177,2.866,4.54,5.41,7.251,7.774
			c5.585,4.869,10.127,10.707,14.919,16.32c2.403,2.814,5.071,5.356,7.664,7.99c1.418,1.441,2.857,2.889,3.017,4.99
			c0.16,2.11,0.849,4.118,0.643,6.251c-0.21,2.179-0.887,3.745-2.078,5.562c-1.935,2.952-4.15,5.751-5.762,8.904
			c-1.536,3.004-2.549,6.239-4.054,9.261c-0.872,1.751-1.786,3.484-2.614,5.256c-0.669,1.43-1.249,2.926-2.04,4.295
			c-1.119,1.936-2.859,2.161-4.94,2.181c-2.105,0.02-4.725,0.083-6.614-1.03c-2.144-1.263-3.635-3.908-4.934-5.935
			c-0.409-0.638-0.836-1.335-0.784-2.123c0.063-0.947,0.638-1.909,1.057-2.725c1.659-3.238,3.536-6.31,5.048-9.627
			c0.72-1.58,1.542-3.134,2.144-4.764c0.547-1.48,0.846-3.036,1.262-4.555c0.33-1.202,0.892-2.271,1.297-3.44
			c0.281-0.812,0.146-1.393-0.535-1.953c-0.871-0.717-1.988-1.148-3.002-1.615c-1.734-0.799-3.475-1.58-5.165-2.471
			c-2.94-1.55-5.803-3.434-8.26-5.679c-0.46-0.42-1.529-1.829-2.293-1.314c-0.66,0.444-0.821,2.058-0.988,2.692
			c-0.726,2.761-2.224,5.207-3.936,7.467c-1.18,1.558-2.424,2.877-2.531,4.897c-0.175,3.323,0.806,6.496,1.215,9.755
			c0.239,1.905-0.318,3.23-2.081,4.155c-0.936,0.491-1.94,0.756-2.957,1.018c-0.925,0.239-1.879,0.453-2.473,1.271
			c-0.476,0.655-0.642,1.748-1.664,1.571c-0.868-0.15-1.754-0.937-2.405-1.478c-1.674-1.39-3.724-3.131-4.686-5.131
			c-0.915-1.905-0.606-4.327-0.59-6.355c0.021-2.566,0.038-5.243-0.879-7.68c-0.711-1.888-1.662-3.499-1.78-5.552
			c-0.1-1.737,0.306-3.262,0.95-4.853c0.577-1.424,0.354-2.729-0.235-4.117c-1.279-3.016-3.495-5.337-5.711-7.674
			c-4.289-4.523-5.415-11.063-8.165-16.467c-0.472-0.928-1.232-1.796-1.442-2.837c-0.212-1.054-0.024-2.189-0.023-3.252"/>
	</g>
	<g id="POLYLINE_1746_">
		
			<path fill="none" stroke="#3A54F5" stroke-width="2.5" stroke-linecap="round" stroke-linejoin="round" stroke-miterlimit="10" d="
			M379.549,266.459c1.096,0.665,2.308,1,3.588,1.015c3.12,0.037,6.253-0.789,9.372-0.97c7.017-0.406,13.951,0.464,20.871,1.525
			c3.221,0.494,6.522,1.166,9.793,1.125c0.776-0.01,0.798,0.019,0.911-0.795c0.133-0.965,0.26-1.931,0.381-2.898
			c0.207-1.664,0.382-3.334,0.5-5.007c0.223-3.16,0.234-6.327-0.499-9.426c-0.801-3.386-1.791-6.733-2.964-10.009
			c-2.365-6.607-5.29-13.144-9.081-19.063c-0.463-0.723-0.946-1.432-1.44-2.134"/>
	</g>
	<g id="POLYLINE_1745_">
		
			<path fill="none" stroke="#3A54F5" stroke-width="2.5" stroke-linecap="round" stroke-linejoin="round" stroke-miterlimit="10" d="
			M384.481,192.654c1.613,1.574,3.581,2.703,5.576,3.715c0.74,0.376,0.969,1.296,1.275,2.048c0.439,1.081,0.829,2.182,1.203,3.287
			c0.843,2.488,1.598,5.007,2.298,7.538c0.368,1.329,0.723,2.661,1.058,3.998c0.145,0.579,0.288,1.158,0.427,1.739
			c0.092,0.384,0.502,1.362,0.33,1.665c-0.236,0.418-1.437,0.842-1.847,1.083c-0.761,0.446-1.522,0.892-2.282,1.338
			c-0.968,0.567-1.926,1.15-2.888,1.728c-2.083,1.251-4.139,2.587-6.352,3.605c-4.526,2.084-9.616,2.968-14.498,3.787
			c-2.691,0.451-5.402,0.797-8.088,1.275c-1.127,0.201-3.118,0.369-3.575,1.663c-0.381,1.081,0.288,2.223,0.944,3.043
			c0.947,1.184,2.314,2.862,3.801,3.402c1.248,0.454,2.771-0.172,3.937-0.593c2.024-0.732,3.884-1.862,5.923-2.542
			c2.05-0.684,4.213-0.956,6.35-1.21c2.853-0.34,5.714-0.636,8.554-1.072c4.856-0.744,9.631-1.928,14.159-3.857
			c1.161-0.495,2.305-1.029,3.428-1.606c0.763-0.392,1.665-0.741,2.221-1.427c0.934-1.151,0.62-2.755,0.527-4.107
			c-0.088-1.272-0.18-2.543-0.296-3.813"/>
	</g>
	<g id="POLYLINE_1744_">
		
			<path fill="none" stroke="#3A54F5" stroke-width="2.5" stroke-linecap="round" stroke-linejoin="round" stroke-miterlimit="10" d="
			M380.396,279.632c1.475-1.018,1.558-3.047,1.287-4.656c-0.145-0.862-0.455-1.649-0.772-2.459c-0.493-1.26-0.755-2.585-0.961-3.919
			c-0.566-3.665-1.755-7.195-2.451-10.832c-0.7-3.66-0.708-7.427-1.179-11.12c-0.55-4.309-1.309-8.585-2.137-12.848"/>
	</g>
	<g id="POLYLINE_1743_">
		
			<path fill="none" stroke="#3A54F5" stroke-width="2.5" stroke-linecap="round" stroke-linejoin="round" stroke-miterlimit="10" d="
			M343.82,154.056c1.978-0.519,4.237-1,6.2-0.167c0.988,0.419,1.889,1.101,2.986,1.199c0.847,0.075,1.727-0.125,2.529-0.379
			c1.088-0.345,2.043-0.973,3.103-1.379c0.916-0.351,1.897-0.481,2.871-0.54c2.771-0.167,5.861-0.083,8.398,1.176
			c1.706,0.846,3.266,1.991,4.908,2.952c1.817,1.064,3.66,2.087,5.552,3.013c2.278,1.116,3.768,2.621,4.972,4.887
			c0.985,1.854,1.088,4.054,2.849,5.432c1.156,0.905,2.597,1.405,3.814,2.23c1.171,0.794,2.311,1.687,3.252,2.749
			c0.406,0.459,0.766,0.998,1.326,1.285c0.555,0.284,1.238,0.336,1.836,0.46c0.891,0.184,1.678,0.527,2.344,1.156
			c1.543,1.457,1.88,3.498,2.604,5.407c0.293,0.773,0.637,1.526,1.026,2.256c-2.776-0.586-5.237-1.367-7.317-3.328"/>
	</g>
	<g id="POLYLINE_1742_">
		
			<path fill="none" stroke="#3A54F5" stroke-width="2.5" stroke-linecap="round" stroke-linejoin="round" stroke-miterlimit="10" d="
			M345.77,240.634c-0.302-2.311-0.09-4.744-0.054-7.066c0.048-3.081,0.04-6.17,0.177-9.25c0.245-5.478,1.622-10.647,2.964-15.933
			c0.663-2.61,1.15-5.264,1.846-7.864c0.319-1.191,0.692-2.368,1.174-3.503c0.187-0.441,0.39-0.876,0.612-1.301
			c0.308-0.59,0.669-0.689,1.265-0.965c1.707-0.794,2.734-1.873,4.126-3.098c0.929-0.819,1.865-1.031,2.994-1.46
			c1.411-0.536,1.302-1.987,0.216-2.814c-1.841-1.402-3.846-2.457-5.585-4.015c-1.329-1.19-2.47-2.52-3.225-4.147
			c-1.001-2.157-1.581-4.391-2.832-6.437c-0.6-0.982-1.148-2.006-0.974-3.194c0.169-1.15,0.848-2.206,1.624-3.045
			c1.563-1.691,3.938-3.039,6.265-3.192c2.451-0.161,4.824,1.023,6.583,2.656c0.763,0.708,1.356,1.736,2.189,2.345
			c0.585,0.427,1.386,0.296,2.069,0.35c1.162,0.091,2.473,0.287,2.744,1.624c0.225,1.111-0.167,2.154-0.225,3.25
			c-0.07,1.306,0.797,2.818,1.456,3.863c0.801,1.27,2.201,2.755,3.661,3.287c1.378,0.502,2.989,0.41,4.409,0.201
			c2.487-0.367,4.715-1.53,7.109-2.217c1.441-0.413,2.906-0.409,4.39-0.246c1.28,0.14,2.531,0.331,3.599,1.091
			c1.217,0.866,2.195,2.103,3.018,3.335c1.379,2.064,2.379,4.383,3.376,6.648c1.129,2.566,2.223,5.152,3.102,7.817
			c1.604,4.861,1.979,9.923,1.708,15.015c-0.065,1.222-0.008,2.274,0.386,3.441c0.49,1.453,1.491,2.458,2.759,3.306
			c0.857,0.573,1.889,0.966,2.901,0.55c1.348-0.553,1.803-2.251,2.118-3.527c1.105-4.486,1.794-9.647,0.648-14.188
			c-1.102-4.368-3.984-7.259-6.866-10.56c-1.759-2.014-3.381-4.143-5.184-6.12"/>
	</g>
	<g id="POLYLINE_1741_">
		
			<path fill="none" stroke="#3A54F5" stroke-width="2.5" stroke-linecap="round" stroke-linejoin="round" stroke-miterlimit="10" d="
			M359.763,190.534c-0.512,1.258-0.729,2.582-0.435,3.919c0.283,1.287,0.831,2.521,1.241,3.771c0.551,1.679,1.05,3.377,1.527,5.079
			c0.463,1.65,0.924,3.308,1.274,4.986c0.217,1.043,0.151,2.395,0.748,3.315c0.527,0.813,1.578,1.333,2.384,1.799
			c1.226,0.71,2.494,1.363,3.81,1.892c1.505,0.604,3.074,1.032,4.687,1.219c1.005,0.117,2.292,0.323,3.291,0.027
			c0.765-0.227,0.988-0.915,1.144-1.628c0.35-1.603,0.435-3.284,0.616-4.91c0.352-3.167,1.254-6.026,2.298-9.022
			c0.616-1.767,1.28-3.526,1.815-5.321c0.241-0.808,0.471-1.648,0.396-2.499c-0.074-0.847-0.484-1.57-0.78-2.352
			c-0.487-1.287-0.749-2.654-0.917-4.017c-0.24-1.943-0.094-3.866,0.547-5.721c0.171-0.495,0.372-0.979,0.597-1.452"/>
	</g>
	<g id="POLYLINE_1740_">
		
			<path fill="none" stroke="#3A54F5" stroke-width="2.5" stroke-linecap="round" stroke-linejoin="round" stroke-miterlimit="10" d="
			M307.45,243.566c0.456-6.735,1.012-13.533,0.524-20.282c-0.238-3.287-0.673-6.581-1.199-9.834
			c-0.529-3.271-1.509-6.463-1.968-9.741c-0.515-3.684-0.425-7.462-0.819-11.168c-2.136,1.964-4.096,4.164-6.33,6.013
			c-2.256,1.867-4.775,3.518-7.253,5.074c-1.071,0.673-2.171,1.35-3.357,1.804c1.37,3.226,2.659,6.374,3.351,9.822
			c0.376,1.876,0.67,3.775,1.321,5.581c0.53,1.473,1.238,2.88,1.928,4.282c0.838,1.704,1.652,3.438,2.713,5.019
			c0.926,1.381,2.064,2.583,3.199,3.791c1.412,1.501,2.846,2.984,4.189,4.547c0.559,0.651,1.129,1.325,1.498,2.108
			c0.641,1.362,0.68,3.021,0.486,4.484c-0.185,1.392-0.61,4.004-2.283,4.359c-0.876,0.186-1.671-0.157-2.483-0.431
			c-1.541-0.521-3.114-0.951-4.653-1.469c-1.202-0.404-2.293-1.13-3.078-2.132c-1.319-1.683-1.5-3.8-1.848-5.839
			c-0.491-2.874-1.543-5.129-3.169-7.53c-2.161-3.192-4.538-6.236-6.652-9.459c-2.044-3.116-3.941-6.379-5.559-9.737
			c-0.727-1.509-1.311-3.07-1.737-4.69c-0.294-1.122-0.652-2.309-0.605-3.483c0.035-0.879,0.336-1.597,0.771-2.353
			c0.93-1.615,2.084-3.084,3.324-4.471c2.378-2.659,4.976-5.179,7.815-7.344c2.919-2.227,5.77-4.259,8.199-7.046
			c2.153-2.47,4.245-4.983,7.152-6.597c3.032-1.684,6.544-1.95,9.917-2.403c3.209-0.431,6.588-0.938,9.651-2.024
			c1.864-0.661,2.442-2.381,2.748-4.175c0.278-1.631,0.357-3.291,0.43-4.942c1.196,2.242,2.715,4.562,5.058,5.733
			c1.705,0.852,3.544,1.032,5.301,0.205c2.123-1,3.951-2.716,4.987-4.82c0.695-1.412,0.992-3.373,2.078-4.554
			c0.414-0.45,1.02-0.653,1.437-1.11c0.359-0.394,0.618-0.886,0.821-1.376c0.586-1.417,1.017-4.54-0.348-5.705
			c-0.181-0.154-0.378-0.253-0.623-0.229"/>
	</g>
	<g id="POLYLINE_1739_">
		
			<path fill="none" stroke="#3A54F5" stroke-width="2.5" stroke-linecap="round" stroke-linejoin="round" stroke-miterlimit="10" d="
			M363.852,211.004c0.178,3.391,0.504,6.994,2.565,9.846c1.23,1.703,3.145,2.78,5.166,3.252c0.773,0.18,1.768,0.208,2.434,0.703
			c0.66,0.49,0.927,1.42,1.353,2.094"/>
	</g>
	<g id="POLYLINE_1738_">
		
			<line fill="none" stroke="#3A54F5" stroke-width="2.5" stroke-linecap="round" stroke-linejoin="round" stroke-miterlimit="10" x1="370.729" y1="223.869" x2="371.762" y2="227.648"/>
	</g>
	<g id="POLYLINE_1737_">
		
			<path fill="none" stroke="#3A54F5" stroke-width="2.5" stroke-linecap="round" stroke-linejoin="round" stroke-miterlimit="10" d="
			M419.207,268.874c-1.751,4.958-3.502,9.915-5.252,14.873c-1.524,4.317-3.258,8.561-4.928,12.822
			c-0.56,1.428-1.179,2.867-1.463,4.381c-0.254,1.357-0.202,2.765-0.079,4.132c0.394,4.372,1.957,8.536,3.144,12.733
			c1.114,3.942,1.199,7.703,0.887,11.773c-0.321,4.195-1.174,8.26-2.246,12.321c-1.102,4.17-2.37,8.355-2.188,12.716
			c0.084,2.017,0.443,4.041,1.132,5.942c0.462,1.274,1.361,2.512,1.262,3.927c-0.058,0.823-0.435,1.528-0.965,2.145
			c-1.275,1.484-2.901,2.67-4.271,4.069c-1.515,1.547-2.77,3.283-4.117,4.971c-0.64,0.802-1.31,1.593-2.157,2.184
			c-2.218,1.548-5.233,1.843-7.854,1.893c-1.071,0.02-2.143-0.024-3.211-0.117c-0.578-0.051-1.542,0.02-2.004-0.437
			c-0.862-0.851,0.421-2.054,0.995-2.621c3.083-3.045,5.851-6.427,8.155-10.103c2.268-3.619,3.492-7.534,4.246-11.715
			c0.757-4.192,1.25-8.488,0.946-12.75c-0.358-5.02-1.157-10.025-1.778-15.016c-0.513-4.12-1.086-8.253-1.934-12.319
			c-0.968-4.644-1.976-9.268-2.103-14.029c-0.122-4.56,0.334-9.119,0.864-13.642c0.54-4.605,1.253-9.19,2.016-13.763
			c0.38-2.278,0.782-4.552,1.182-6.827"/>
	</g>
	<g id="POLYLINE_1736_">
		
			<path fill="none" stroke="#3A54F5" stroke-width="2.5" stroke-linecap="round" stroke-linejoin="round" stroke-miterlimit="10" d="
			M403.007,194.988c1.339,1.47,2.91,2.948,3.885,4.701c0.469,0.843,0.885,2.213,0.205,3.055c-0.425,0.526-1.163,0.709-1.804,0.792"
			/>
	</g>
</g>
<g id="AG-FURNITURE">
	<g id="POLYLINE_1735_">
		
			<line fill="none" stroke="#3A54F5" stroke-width="2.5" stroke-linecap="round" stroke-linejoin="round" stroke-miterlimit="10" x1="1180.648" y1="191.999" x2="1218.875" y2="191.999"/>
	</g>
	<g id="POLYLINE_1734_">
		
			<path fill="none" stroke="#3A54F5" stroke-width="2.5" stroke-linecap="round" stroke-linejoin="round" stroke-miterlimit="10" d="
			M1127.727,181.687c-2.492,0-4.984,0-7.476,0c-1.41,0-3.025,0.228-4.421-0.099c-1.755-0.412-2.851-1.975-2.893-3.723
			c-0.081-3.383,0-6.778,0-10.161c0-6.535,0-13.069,0-19.604c0-5.852,0-11.704,0-17.556c0-1.508,0-3.015,0-4.523
			c0-0.595-0.003-1.173,0.185-1.747c0.536-1.644,2.047-2.561,3.711-2.587c2.49-0.039,4.984,0,7.474,0c5.292,0,10.583,0,15.875,0
			c6.643,0,13.287,0,19.93,0c6.623,0,13.246,0,19.869,0c5.23,0,10.461,0,15.691,0c2.388,0,4.782-0.054,7.169,0
			c1.693,0.038,3.219,1.034,3.701,2.718c0.166,0.58,0.145,1.168,0.145,1.764c0,1.585,0,3.169,0,4.754c0,5.924,0,11.848,0,17.772
			c0,6.497,0,12.994,0,19.491c0,3.235,0.093,6.486,0,9.721c-0.051,1.78-1.231,3.356-3.024,3.71c-1.158,0.228-2.45,0.071-3.617,0.071
			c-3.205,0-6.409,0-9.614,0c-1.839,0-3.678,0-5.516,0"/>
	</g>
	<g id="POLYLINE_1733_">
		
			<line fill="none" stroke="#3A54F5" stroke-width="2.5" stroke-linecap="round" stroke-linejoin="round" stroke-miterlimit="10" x1="993.875" y1="191.999" x2="1123.205" y2="191.999"/>
	</g>
	<g id="POLYLINE_1732_">
		
			<line fill="none" stroke="#3A54F5" stroke-width="2.5" stroke-linecap="round" stroke-linejoin="round" stroke-miterlimit="10" x1="251.375" y1="191.999" x2="283.699" y2="191.999"/>
	</g>
	<g id="POLYLINE_1731_">
		
			<path fill="none" stroke="#3A54F5" stroke-width="2.5" stroke-linecap="round" stroke-linejoin="round" stroke-miterlimit="10" d="
			M357.312,153.954c0-8.752,0-17.503,0-26.255c0-1.5,0.229-3.137-0.693-4.434c-0.83-1.169-2.07-1.576-3.434-1.579
			c-6.475-0.013-12.949,0-19.424,0c-11.373,0-22.746,0-34.119,0c-9.198,0-18.396,0-27.594,0c-2.705,0-6.995-0.849-8.239,2.413
			c-0.506,1.325-0.246,3.043-0.246,4.415c0,4.402,0,8.804,0,13.206c0,10.572,0,21.144,0,31.716c0,2.886-0.804,7.756,3.327,8.226
			c0.819,0.093,1.675,0.024,2.496,0.024c2.276,0,4.552,0,6.828,0c5.348,0,10.695,0,16.043,0c1.013,0,2.026,0,3.039,0"/>
	</g>
	<g id="POLYLINE_1730_">
		
			<path fill="none" stroke="#3A54F5" stroke-width="2.5" stroke-linecap="round" stroke-linejoin="round" stroke-miterlimit="10" d="
			M370.438,154.245c0-9.416,0-18.831,0-28.247c0-1.727,0.588-3.318,2.326-4.031c1.187-0.487,2.688-0.281,3.933-0.281
			c9.682,0,19.364,0,29.045,0c12.579,0,25.157,0,37.736,0c4.325,0,8.65,0,12.975,0c1.49,0,3.141-0.201,4.623,0.055
			c1.818,0.314,3.05,1.895,3.111,3.695c0.094,2.752,0,5.525,0,8.278c0,12.13,0,24.26,0,36.39c0,2.639,0.138,5.32-0.002,7.957
			c-0.095,1.783-1.406,3.318-3.196,3.584c-2.127,0.317-4.465,0.041-6.603,0.041c-5.58,0-11.16,0-16.739,0
			c-10.977,0-21.954,0-32.932,0c-0.657,0-1.313,0-1.97,0"/>
	</g>
	<g id="POLYLINE_1729_">
		
			<line fill="none" stroke="#3A54F5" stroke-width="2.5" stroke-linecap="round" stroke-linejoin="round" stroke-miterlimit="10" x1="408.033" y1="191.999" x2="476.375" y2="191.999"/>
	</g>
	<g id="POLYLINE_1728_">
		
			<path fill="none" stroke="#3A54F5" stroke-width="2.5" stroke-linecap="round" stroke-linejoin="round" stroke-miterlimit="10" d="
			M251.375,118.874c0.006-4.188,3.463-7.449,7.582-7.5c3.587-0.045,7.178,0,10.766,0c8.441,0,16.882,0,25.323,0
			c11.602,0,23.205,0,34.807,0c13.072,0,26.145,0,39.217,0c12.851,0,25.703,0,38.554,0c10.939,0,21.879,0,32.818,0
			c7.336,0,14.673,0,22.009,0c1.794,0,3.588,0,5.381,0c1.09,0,2.152,0,3.212,0.321c3.438,1.039,5.329,4.195,5.331,7.658
			c0.002,3.461,0,6.922,0,10.383c0,7.233,0,14.467,0,21.7c0,10.093,0,20.186,0,30.279c0,12.033,0,24.066,0,36.099
			c0,13.054,0,26.108,0,39.162c0,13.156,0,26.311,0,39.467c0,12.338,0,24.676,0,37.014c0,10.601,0,21.202,0,31.803
			c0,7.945,0,15.89,0,23.835c0,4.369,0,8.739,0,13.108c0,2.883-0.385,5.591-2.824,7.536c-2.411,1.923-5.325,1.636-8.2,1.636
			c-6.311,0-12.623,0-18.934,0c-10.288,0-20.577,0-30.865,0c-12.574,0-25.149,0-37.723,0c-13.169,0-26.338,0-39.508,0
			c-12.073,0-24.146,0-36.219,0c-9.286,0-18.571,0-27.857,0c-4.807,0-9.614,0-14.422,0c-3.386,0-6.526-1.324-7.891-4.66
			c-0.878-2.145-0.559-4.796-0.559-7.063c0-5.543,0-11.086,0-16.63c0-8.828,0-17.656,0-26.485c0-11.212,0-22.424,0-33.635
			c0-12.676,0-25.352,0-38.029c0-13.221,0-26.443,0-39.664c0-12.847,0-25.694,0-38.541c0-11.554,0-23.107,0-34.661
			c0-9.341,0-18.682,0-28.023c0-6.209,0-12.418,0-18.627C251.375,123.196,251.375,121.035,251.375,118.874z"/>
	</g>
	<g id="POLYLINE_1727_">
		
			<path fill="none" stroke="#3A54F5" stroke-width="2.5" stroke-linecap="round" stroke-linejoin="round" stroke-miterlimit="10" d="
			M1009.812,121.687c-2.132,0.001-3.702,1.766-3.75,3.831c-0.108,4.604,0,9.223,0,13.827c0,8.018,0,16.036,0,24.054
			c0,4.792-0.075,9.591,0,14.383c0.032,2.061,1.486,3.785,3.604,3.902c2.652,0.147,5.352,0.003,8.007,0.003
			c6.625,0,13.25,0,19.875,0c8.142,0,16.285,0,24.427,0c7.251,0,14.502,0,21.754,0c3.931,0,7.863,0,11.794,0
			c1.901,0,3.68-0.833,4.179-2.849c0.197-0.795,0.11-1.678,0.11-2.488c0-2.434,0-4.867,0-7.301c0-7.771,0-15.541,0-23.312
			c0-6.2,0-12.399,0-18.599c0-2.082-0.017-4.206-2.305-5.161c-0.628-0.262-1.266-0.29-1.933-0.29c-1.368,0-2.735,0-4.103,0
			c-5.854,0-11.709,0-17.563,0c-8.023,0-16.045,0-24.068,0c-7.689,0-15.379,0-23.069,0c-4.957,0-9.914,0-14.872,0
			C1011.204,121.687,1010.508,121.687,1009.812,121.687z"/>
	</g>
	<g id="POLYLINE_1726_">
		
			<path fill="none" stroke="#3A54F5" stroke-width="2.5" stroke-linecap="round" stroke-linejoin="round" stroke-miterlimit="10" d="
			M993.875,118.874c0.006-4.188,3.463-7.449,7.582-7.5c3.592-0.045,7.187,0,10.779,0c8.45,0,16.901,0,25.351,0
			c11.613,0,23.227,0,34.84,0c13.082,0,26.164,0,39.246,0c12.856,0,25.713,0,38.569,0c10.937,0,21.873,0,32.809,0
			c7.322,0,14.645,0,21.967,0c1.771,0,3.542,0,5.313,0c1.112,0,2.195,0.003,3.275,0.34c3.417,1.065,5.269,4.21,5.269,7.658
			c0,3.455,0,6.91,0,10.364c0,7.233,0,14.467,0,21.7c0,10.093,0,20.186,0,30.279c0,12.033,0,24.066,0,36.099
			c0,13.054,0,26.108,0,39.162c0,13.156,0,26.311,0,39.467c0,12.338,0,24.676,0,37.014c0,10.601,0,21.202,0,31.803
			c0,7.945,0,15.89,0,23.835c0,4.369,0,8.739,0,13.108c0,2.883-0.385,5.591-2.824,7.536c-2.412,1.924-5.328,1.636-8.204,1.636
			c-6.319,0-12.637,0-18.956,0c-10.299,0-20.598,0-30.897,0c-12.585,0-25.17,0-37.755,0c-13.177,0-26.354,0-39.53,0
			c-12.074,0-24.148,0-36.223,0c-9.277,0-18.555,0-27.832,0c-4.786,0-9.572,0-14.358,0c-3.398,0-6.546-1.362-7.886-4.72
			c-0.855-2.143-0.534-4.799-0.534-7.057c0-5.525,0-11.051,0-16.576c0-8.828,0-17.656,0-26.485c0-11.212,0-22.424,0-33.635
			c0-12.676,0-25.352,0-38.029c0-13.221,0-26.443,0-39.664c0-12.847,0-25.694,0-38.541c0-11.554,0-23.107,0-34.661
			c0-9.341,0-18.682,0-28.023c0-6.209,0-12.418,0-18.627C993.875,123.196,993.875,121.035,993.875,118.874z"/>
	</g>
</g>
<g id="AG-LAYOUT">
	<g id="POLYLINE_1715_">
		
			<rect x="611.375" y="235.124" fill="none" stroke="#3A54F5" stroke-width="2.5" stroke-linecap="round" stroke-linejoin="round" stroke-miterlimit="10" width="16.875" height="172.5"/>
	</g>
	<g id="POLYLINE_1714_">
		
			<polyline fill="none" stroke="#3A54F5" stroke-width="2.5" stroke-linecap="round" stroke-linejoin="round" stroke-miterlimit="10" points="
			558.875,538.874 558.875,491.879 498.875,491.879 498.875,538.874 		"/>
	</g>
	<g id="POLYLINE_1713_">
		
			<line fill="none" stroke="#3A54F5" stroke-width="2.5" stroke-linecap="round" stroke-linejoin="round" stroke-miterlimit="10" x1="411.789" y1="561.502" x2="417.672" y2="628.746"/>
	</g>
	<g id="POLYLINE_1712_">
		
			<line fill="none" stroke="#3A54F5" stroke-width="2.5" stroke-linecap="round" stroke-linejoin="round" stroke-miterlimit="10" x1="364.539" y1="561.502" x2="370.422" y2="628.746"/>
	</g>
	<g id="POLYLINE_1711_">
		
			<line fill="none" stroke="#3A54F5" stroke-width="2.5" stroke-linecap="round" stroke-linejoin="round" stroke-miterlimit="10" x1="351.731" y1="561.374" x2="351.731" y2="628.874"/>
	</g>
	<g id="POLYLINE_1710_">
		
			<line fill="none" stroke="#3A54F5" stroke-width="2.5" stroke-linecap="round" stroke-linejoin="round" stroke-miterlimit="10" x1="401.922" y1="561.502" x2="396.039" y2="628.746"/>
	</g>
	<g id="POLYLINE_1709_">
		
			<line fill="none" stroke="#3A54F5" stroke-width="2.5" stroke-linecap="round" stroke-linejoin="round" stroke-miterlimit="10" x1="383.231" y1="561.374" x2="383.231" y2="628.874"/>
	</g>
	<g id="POLYLINE_1708_">
		
			<line fill="none" stroke="#3A54F5" stroke-width="2.5" stroke-linecap="round" stroke-linejoin="round" stroke-miterlimit="10" x1="228.672" y1="561.502" x2="222.789" y2="628.746"/>
	</g>
	<g id="POLYLINE_1707_">
		
			<line fill="none" stroke="#3A54F5" stroke-width="2.5" stroke-linecap="round" stroke-linejoin="round" stroke-miterlimit="10" x1="178.481" y1="561.374" x2="178.481" y2="628.874"/>
	</g>
	<g id="POLYLINE_1706_">
		
			<line fill="none" stroke="#3A54F5" stroke-width="2.5" stroke-linecap="round" stroke-linejoin="round" stroke-miterlimit="10" x1="335.981" y1="561.374" x2="335.981" y2="628.874"/>
	</g>
	<g id="POLYLINE_1705_">
		
			<line fill="none" stroke="#3A54F5" stroke-width="2.5" stroke-linecap="round" stroke-linejoin="round" stroke-miterlimit="10" x1="323.172" y1="561.502" x2="317.289" y2="628.746"/>
	</g>
	<g id="POLYLINE_1704_">
		
			<line fill="none" stroke="#3A54F5" stroke-width="2.5" stroke-linecap="round" stroke-linejoin="round" stroke-miterlimit="10" x1="301.539" y1="561.502" x2="307.422" y2="628.746"/>
	</g>
	<g id="POLYLINE_1703_">
		
			<line fill="none" stroke="#3A54F5" stroke-width="2.5" stroke-linecap="round" stroke-linejoin="round" stroke-miterlimit="10" x1="288.731" y1="561.374" x2="288.731" y2="628.874"/>
	</g>
	<g id="POLYLINE_1702_">
		
			<line fill="none" stroke="#3A54F5" stroke-width="2.5" stroke-linecap="round" stroke-linejoin="round" stroke-miterlimit="10" x1="275.922" y1="561.502" x2="270.039" y2="628.746"/>
	</g>
	<g id="POLYLINE_1701_">
		
			<line fill="none" stroke="#3A54F5" stroke-width="2.5" stroke-linecap="round" stroke-linejoin="round" stroke-miterlimit="10" x1="257.231" y1="561.374" x2="257.231" y2="628.874"/>
	</g>
	<g id="POLYLINE_1700_">
		
			<line fill="none" stroke="#3A54F5" stroke-width="2.5" stroke-linecap="round" stroke-linejoin="round" stroke-miterlimit="10" x1="241.481" y1="561.374" x2="241.481" y2="628.874"/>
	</g>
	<g id="POLYLINE_1699_">
		
			<line fill="none" stroke="#3A54F5" stroke-width="2.5" stroke-linecap="round" stroke-linejoin="round" stroke-miterlimit="10" x1="197.172" y1="561.502" x2="191.289" y2="628.746"/>
	</g>
	<g id="POLYLINE_1698_">
		
			<line fill="none" stroke="#3A54F5" stroke-width="2.5" stroke-linecap="round" stroke-linejoin="round" stroke-miterlimit="10" x1="146.981" y1="561.374" x2="146.981" y2="628.874"/>
	</g>
	<g id="POLYLINE_1697_">
		
			<line fill="none" stroke="#3A54F5" stroke-width="2.5" stroke-linecap="round" stroke-linejoin="round" stroke-miterlimit="10" x1="159.789" y1="561.502" x2="165.672" y2="628.746"/>
	</g>
	<g id="POLYLINE_1696_">
		
			<line fill="none" stroke="#3A54F5" stroke-width="2.5" stroke-linecap="round" stroke-linejoin="round" stroke-miterlimit="10" x1="207.039" y1="561.502" x2="212.922" y2="628.746"/>
	</g>
	<g id="POLYLINE_1695_">
		
			<line fill="none" stroke="#3A54F5" stroke-width="2.5" stroke-linecap="round" stroke-linejoin="round" stroke-miterlimit="10" x1="131.231" y1="561.374" x2="131.231" y2="628.874"/>
	</g>
	<g id="POLYLINE_1694_">
		
			<line fill="none" stroke="#3A54F5" stroke-width="2.5" stroke-linecap="round" stroke-linejoin="round" stroke-miterlimit="10" x1="446.375" y1="538.874" x2="611.375" y2="538.874"/>
	</g>
	<g id="POLYLINE_1693_">
		
			<rect x="483.875" y="111.374" fill="none" stroke="#3A54F5" stroke-width="2.5" stroke-linecap="round" stroke-linejoin="round" stroke-miterlimit="10" width="67.5" height="60"/>
	</g>
	<g id="POLYLINE_1692_">
		
			<rect x="176.375" y="111.374" fill="none" stroke="#3A54F5" stroke-width="2.5" stroke-linecap="round" stroke-linejoin="round" stroke-miterlimit="10" width="67.5" height="60"/>
	</g>
	<g id="POLYLINE_1691_">
		
			<rect x="918.829" y="111.374" fill="none" stroke="#3A54F5" stroke-width="2.5" stroke-linecap="round" stroke-linejoin="round" stroke-miterlimit="10" width="67.5" height="60"/>
	</g>
	<g id="POLYLINE_1690_">
		
			<rect x="1226.375" y="111.374" fill="none" stroke="#3A54F5" stroke-width="2.5" stroke-linecap="round" stroke-linejoin="round" stroke-miterlimit="10" width="67.5" height="60"/>
	</g>
	<g id="POLYLINE_1689_">
		
			<line fill="none" stroke="#3A54F5" stroke-width="2.5" stroke-linecap="round" stroke-linejoin="round" stroke-miterlimit="10" x1="858.875" y1="373.874" x2="858.875" y2="538.874"/>
	</g>
	<g id="POLYLINE_1688_">
		
			<line fill="none" stroke="#3A54F5" stroke-width="2.5" stroke-linecap="round" stroke-linejoin="round" stroke-miterlimit="10" x1="836.247" y1="196.8" x2="769.003" y2="202.683"/>
	</g>
	<g id="POLYLINE_1687_">
		
			<line fill="none" stroke="#3A54F5" stroke-width="2.5" stroke-linecap="round" stroke-linejoin="round" stroke-miterlimit="10" x1="836.247" y1="149.55" x2="769.003" y2="155.433"/>
	</g>
	<g id="POLYLINE_1686_">
		
			<line fill="none" stroke="#3A54F5" stroke-width="2.5" stroke-linecap="round" stroke-linejoin="round" stroke-miterlimit="10" x1="836.375" y1="136.741" x2="768.875" y2="136.741"/>
	</g>
	<g id="POLYLINE_1685_">
		
			<line fill="none" stroke="#3A54F5" stroke-width="2.5" stroke-linecap="round" stroke-linejoin="round" stroke-miterlimit="10" x1="836.247" y1="186.933" x2="769.003" y2="181.05"/>
	</g>
	<g id="POLYLINE_1684_">
		
			<line fill="none" stroke="#3A54F5" stroke-width="2.5" stroke-linecap="round" stroke-linejoin="round" stroke-miterlimit="10" x1="836.375" y1="231.241" x2="768.875" y2="231.241"/>
	</g>
	<g id="POLYLINE_1675_">
		
			<line fill="none" stroke="#3A54F5" stroke-width="2.5" stroke-linecap="round" stroke-linejoin="round" stroke-miterlimit="10" x1="836.375" y1="246.991" x2="768.875" y2="246.991"/>
	</g>
	<g id="POLYLINE_1674_">
		
			<line fill="none" stroke="#3A54F5" stroke-width="2.5" stroke-linecap="round" stroke-linejoin="round" stroke-miterlimit="10" x1="836.247" y1="265.683" x2="769.003" y2="259.8"/>
	</g>
	<g id="POLYLINE_1673_">
		
			<line fill="none" stroke="#3A54F5" stroke-width="2.5" stroke-linecap="round" stroke-linejoin="round" stroke-miterlimit="10" x1="836.375" y1="278.491" x2="768.875" y2="278.491"/>
	</g>
	<g id="POLYLINE_1672_">
		
			<line fill="none" stroke="#3A54F5" stroke-width="2.5" stroke-linecap="round" stroke-linejoin="round" stroke-miterlimit="10" x1="836.247" y1="291.3" x2="769.003" y2="297.183"/>
	</g>
	<g id="POLYLINE_1671_">
		
			<line fill="none" stroke="#3A54F5" stroke-width="2.5" stroke-linecap="round" stroke-linejoin="round" stroke-miterlimit="10" x1="836.247" y1="312.933" x2="769.003" y2="307.05"/>
	</g>
	<g id="POLYLINE_1670_">
		
			<line fill="none" stroke="#3A54F5" stroke-width="2.5" stroke-linecap="round" stroke-linejoin="round" stroke-miterlimit="10" x1="836.375" y1="325.741" x2="768.875" y2="325.741"/>
	</g>
	<g id="POLYLINE_755_">
		
			<line fill="none" stroke="#3A54F5" stroke-width="2.5" stroke-linecap="round" stroke-linejoin="round" stroke-miterlimit="10" x1="836.375" y1="168.241" x2="768.875" y2="168.241"/>
	</g>
	<g id="POLYLINE_754_">
		
			<line fill="none" stroke="#3A54F5" stroke-width="2.5" stroke-linecap="round" stroke-linejoin="round" stroke-miterlimit="10" x1="836.375" y1="120.991" x2="768.875" y2="120.991"/>
	</g>
	<g id="POLYLINE_753_">
		
			<line fill="none" stroke="#3A54F5" stroke-width="2.5" stroke-linecap="round" stroke-linejoin="round" stroke-miterlimit="10" x1="836.247" y1="218.433" x2="769.003" y2="212.55"/>
	</g>
	<g id="POLYLINE_752_">
		
			<line fill="none" stroke="#3A54F5" stroke-width="2.5" stroke-linecap="round" stroke-linejoin="round" stroke-miterlimit="10" x1="836.375" y1="341.491" x2="768.875" y2="341.491"/>
	</g>
	<g id="POLYLINE_751_">
		
			<polyline fill="none" stroke="#3A54F5" stroke-width="2.5" stroke-linecap="round" stroke-linejoin="round" stroke-miterlimit="10" points="
			858.875,486.374 873.875,486.374 873.875,426.374 858.875,426.374 		"/>
	</g>
	<g id="POLYLINE_750_">
		
			<rect x="1353.875" y="242.624" fill="none" stroke="#3A54F5" stroke-width="2.5" stroke-linecap="round" stroke-linejoin="round" stroke-miterlimit="10" width="16.875" height="157.5"/>
	</g>
</g>
<g id="AG-OUTLINE">
	<g id="POLYLINE_749_">
		
			<polygon fill="none" stroke="#3A54F5" stroke-width="3.5" stroke-linecap="round" stroke-linejoin="round" stroke-miterlimit="10" points="
			99.5,407.624 116.375,407.624 116.375,103.874 611.375,103.874 611.375,235.124 628.25,235.124 628.25,86.999 99.5,86.999 		"/>
	</g>
	<g id="POLYLINE_748_">
		
			<polygon fill="none" stroke="#3A54F5" stroke-width="3.5" stroke-linecap="round" stroke-linejoin="round" stroke-miterlimit="10" points="
			116.375,527.624 99.5,527.624 99.5,656.999 628.25,656.999 628.25,407.624 611.375,407.624 611.375,640.124 446.375,640.124 
			446.375,538.874 429.5,538.874 429.5,640.124 116.375,640.124 		"/>
	</g>
	<g id="POLYLINE_747_">
		
			<polygon fill="none" stroke="#3A54F5" stroke-width="3.5" stroke-linecap="round" stroke-linejoin="round" stroke-miterlimit="10" points="
			1008.875,555.749 1008.875,538.874 1353.875,538.874 1353.875,400.124 1370.75,400.124 1370.75,555.749 		"/>
	</g>
	<g id="POLYLINE_746_">
		
			<polygon fill="none" stroke="#3A54F5" stroke-width="3.5" stroke-linecap="round" stroke-linejoin="round" stroke-miterlimit="10" points="
			888.875,538.874 888.875,555.749 740.75,555.749 740.75,86.999 1370.75,86.999 1370.75,242.624 1353.875,242.624 
			1353.875,103.874 757.625,103.874 757.625,356.999 858.875,356.999 858.875,373.874 757.625,373.874 757.625,538.874 		"/>
	</g>
</g>
<g id="AG-WALL">
</g>
</svg>
