<?xml version="1.0" encoding="utf-8"?>
<!-- Generator: Adobe Illustrator 23.0.1, SVG Export Plug-In . SVG Version: 6.00 Build 0)  -->
<svg version="1.1" xmlns="http://www.w3.org/2000/svg" xmlns:xlink="http://www.w3.org/1999/xlink" x="0px" y="0px"
	 viewBox="0 0 750 750" style="enable-background:new 0 0 750 750;" xml:space="preserve">
<style type="text/css">
	.st0{fill:#FFFFFF;}
	.st1{fill:#3A54F5;}
	.st2{fill:none;stroke:#3A54F5;stroke-width:2;stroke-linecap:round;stroke-linejoin:round;stroke-miterlimit:10;}
	.st3{fill:none;stroke:#3A54F5;stroke-width:2.5;stroke-linecap:round;stroke-linejoin:round;stroke-miterlimit:10;}
	.st4{fill:none;stroke:#3A54F5;stroke-width:3;stroke-linecap:round;stroke-linejoin:round;}
	.st5{fill:none;stroke:#3A54F5;stroke-width:3;stroke-linecap:round;stroke-linejoin:round;stroke-dasharray:4.7424,6.6394;}
	.st6{fill:none;stroke:#3A54F5;stroke-width:3;stroke-linecap:round;stroke-linejoin:round;stroke-dasharray:4.9048,6.8667;}
	.st7{fill:none;stroke:#3A54F5;stroke-width:5;stroke-linecap:round;stroke-linejoin:round;}
	.st8{fill:none;stroke:#3A54F5;stroke-width:5;stroke-linecap:round;stroke-linejoin:round;stroke-dasharray:8.0538,11.0739;}
	.st9{fill:none;stroke:#3A54F5;stroke-width:5;stroke-linecap:round;stroke-linejoin:round;stroke-dasharray:8.0268,11.0368;}
	.st10{fill:none;stroke:#000000;stroke-width:3;stroke-linecap:round;stroke-linejoin:round;}
	.st11{fill:none;stroke:#000000;stroke-width:3;stroke-linecap:round;stroke-linejoin:round;stroke-dasharray:4.9048,6.8667;}
	.st12{fill:none;stroke:#000000;stroke-width:3;stroke-linecap:round;stroke-linejoin:round;stroke-dasharray:4.9304,6.9026;}
	.st13{fill:none;stroke:#3A54F5;stroke-width:3;stroke-linecap:round;stroke-linejoin:round;stroke-dasharray:4.9304,6.9026;}
	.st14{fill:none;stroke:#3A54F5;stroke-width:3;stroke-linecap:round;stroke-linejoin:round;stroke-dasharray:4.9949,6.9929;}
	.st15{fill:none;stroke:#3A54F5;stroke-width:3;stroke-linecap:round;stroke-linejoin:round;stroke-dasharray:4.9444,6.9221;}
	.st16{fill:none;stroke:#3A54F5;stroke-width:3;stroke-linecap:round;stroke-linejoin:round;stroke-dasharray:5.1572,7.22;}
	.st17{fill:none;stroke:#3A54F5;stroke-width:3;stroke-linecap:round;stroke-linejoin:round;stroke-dasharray:4.9179,6.8851;}
	.st18{fill:none;stroke:#000000;stroke-width:2.5;stroke-linecap:round;stroke-linejoin:round;stroke-miterlimit:10;}
	.st19{fill:none;stroke:#000000;stroke-width:3.5;stroke-linecap:round;stroke-linejoin:round;stroke-miterlimit:10;}
	.st20{fill:none;stroke:#3A54F5;stroke-width:3.5;stroke-linecap:round;stroke-linejoin:round;stroke-miterlimit:10;}
</style>
<g id="FILL-BACKGROUND">
</g>
<g id="N-DIMENSIONS">
</g>
<g id="N-TEXT">
</g>
<g id="AG-DIAGRAM">
	<g id="POLYLINE_44_">
		<g>
			<g>
				<path class="st4" d="M551.25,493.75c0-0.59,0-1.18,0-1.77c0-0.24,0-0.49,0-0.73c-0.83,0.01-1.67,0.02-2.5,0.04"/>
				<path class="st6" d="M541.89,491.66c-2.67,0.22-5.33,0.52-7.99,0.94c-5.69,0.89-11.3,2.22-16.79,3.96
					c-5.48,1.74-10.81,3.93-15.97,6.47c-5.11,2.52-10.02,5.48-14.68,8.75c-4.69,3.29-9.12,6.95-13.24,10.93
					c-4.1,3.96-7.94,8.22-11.38,12.76c-3.48,4.59-6.64,9.4-9.38,14.46c-2.75,5.07-5.12,10.34-7.08,15.77
					c-1.97,5.46-3.51,11.09-4.6,16.79c-0.97,5.06-1.59,10.18-1.87,15.33"/>
				<path class="st4" d="M438.78,601.25c-0.02,0.83-0.02,1.67-0.03,2.5c0.83,0,1.67,0,2.5,0"/>
				<path class="st13" d="M448.15,603.75c0.61,0,1.21,0,1.82,0c8.98,0,17.95,0,26.93,0c10.85,0,21.7,0,32.55,0
					c9.32,0,18.64,0,27.95,0c3.1,0,6.21,0,9.31,0c0.95,0,1.9,0,2.85,0c0.36,0,1.16,0.16,1.49,0c0.4-0.19,0.19-1.26,0.19-1.76
					c0-2.35,0-4.71,0-7.06c0-8.52,0-17.04,0-25.56c0-10.77,0-21.54,0-32.31c0-9.71,0-19.41,0-29.12c0-3.58,0-7.16,0-10.74"/>
			</g>
		</g>
	</g>
</g>
<g id="AG-LAYOUT">
	<g id="POLYLINE_45_">
		<rect x="368.94" y="129.38" class="st3" width="180" height="16.88"/>
	</g>
	<g id="POLYLINE_48_">
		<rect x="428.94" y="223.25" class="st3" width="60" height="60"/>
	</g>
	<g id="POLYLINE_49_">
		<rect x="368.94" y="153.75" class="st3" width="180" height="82.5"/>
	</g>
	<g id="POLYLINE_52_">
		<rect x="191.25" y="461.25" class="st3" width="90" height="135"/>
	</g>
</g>
<g id="AG-FURNITURE">
	<g id="POLYLINE_50_">
		<path class="st3" d="M191.25,161.25c0.01-3.77,2.91-7.03,6.66-7.46c0.95-0.11,1.94-0.05,2.9-0.05c2.34,0,4.67,0,7.01,0
			c8.36,0,16.72,0,25.08,0c10.91,0,21.82,0,32.74,0c10.65,0,21.31,0,31.96,0c7.59,0,15.17,0,22.76,0c1.76,0,3.52,0,5.28,0
			c1.19,0,2.34,0.09,3.46,0.53c2.94,1.18,4.7,4.03,4.72,7.15c0.02,2.28,0,4.56,0,6.83c0,5.17,0,10.34,0,15.52
			c0,7.48,0,14.96,0,22.44c0,9.27,0,18.54,0,27.81c0,10.44,0,20.89,0,31.33c0,11.12,0,22.24,0,33.36c0,11.21,0,22.41,0,33.62
			c0,10.73,0,21.46,0,32.19c0,9.69,0,19.38,0,29.07c0,8.09,0,16.17,0,24.26c0,5.92,0,11.84,0,17.76c0,3.19,0,6.39,0,9.58
			c0,2.36-0.35,4.56-2.06,6.36c-2.13,2.24-4.82,2.34-7.67,2.34c-6.14,0-12.28,0-18.42,0c-10.01,0-20.01,0-30.02,0
			c-11.13,0-22.26,0-33.39,0c-9.39,0-18.79,0-28.18,0c-4.91,0-9.82,0-14.73,0c-3.12,0-5.99-1.37-7.38-4.31
			c-0.86-1.82-0.72-3.76-0.72-5.7c0-3.84,0-7.68,0-11.51c0-6.44,0-12.89,0-19.33c0-8.48,0-16.97,0-25.45c0-9.96,0-19.93,0-29.89
			c0-10.88,0-21.76,0-32.64c0-11.24,0-22.47,0-33.71c0-11.03,0-22.06,0-33.08c0-10.23,0-20.46,0-30.69c0-8.93,0-17.86,0-26.79
			c0-7.02,0-14.04,0-21.05c0-4.59,0-9.17,0-13.76C191.25,164.4,191.25,162.83,191.25,161.25z"/>
	</g>
	<g id="POLYLINE_51_">
		<polygon class="st3" points="217.57,164.19 217.5,164.19 217.44,164.19 217.37,164.19 217.31,164.2 217.24,164.2 217.18,164.21 
			217.11,164.22 217.05,164.22 216.98,164.23 216.92,164.24 216.86,164.26 216.79,164.27 216.73,164.28 216.67,164.3 216.61,164.31 
			216.54,164.33 216.48,164.35 216.42,164.37 216.36,164.39 216.3,164.41 216.24,164.43 216.18,164.45 216.12,164.48 216.06,164.51 
			216,164.53 215.94,164.56 215.88,164.59 215.82,164.62 215.77,164.65 215.71,164.68 215.65,164.71 215.6,164.75 215.54,164.78 
			215.49,164.82 215.43,164.85 215.38,164.89 215.33,164.93 215.28,164.97 215.23,165.01 215.18,165.05 215.13,165.09 
			215.08,165.13 215.03,165.17 214.98,165.22 214.94,165.26 214.89,165.31 214.85,165.36 214.8,165.4 214.76,165.45 214.72,165.5 
			214.67,165.55 214.63,165.6 214.59,165.65 214.55,165.7 214.52,165.75 214.48,165.81 214.44,165.86 214.41,165.92 214.37,165.97 
			214.34,166.03 214.31,166.08 214.28,166.14 214.24,166.2 214.22,166.25 214.19,166.31 214.16,166.37 214.13,166.43 214.11,166.49 
			214.08,166.55 214.06,166.61 214.04,166.67 214.02,166.73 213.99,166.79 213.98,166.85 213.96,166.92 213.94,166.98 
			213.92,167.04 213.91,167.1 213.9,167.17 213.88,167.23 213.87,167.29 213.86,167.36 213.85,167.42 213.84,167.49 213.84,167.55 
			213.83,167.61 213.82,167.68 213.82,167.74 213.82,167.81 213.82,167.87 213.82,167.94 213.82,220.44 213.82,220.5 213.82,220.57 
			213.82,220.63 213.82,220.7 213.83,220.76 213.84,220.83 213.84,220.89 213.85,220.95 213.86,221.02 213.87,221.08 213.88,221.15 
			213.9,221.21 213.91,221.27 213.92,221.34 213.94,221.4 213.96,221.46 213.98,221.52 213.99,221.58 214.02,221.65 214.04,221.71 
			214.06,221.77 214.08,221.83 214.11,221.89 214.13,221.95 214.16,222.01 214.19,222.06 214.22,222.12 214.24,222.18 
			214.28,222.24 214.31,222.29 214.34,222.35 214.37,222.41 214.41,222.46 214.44,222.51 214.48,222.57 214.52,222.62 
			214.55,222.67 214.59,222.72 214.63,222.78 214.67,222.83 214.72,222.88 214.76,222.92 214.8,222.97 214.85,223.02 214.89,223.07 
			214.94,223.11 214.98,223.16 215.03,223.2 215.08,223.24 215.13,223.29 215.18,223.33 215.23,223.37 215.28,223.41 215.33,223.45 
			215.38,223.49 215.43,223.52 215.49,223.56 215.54,223.6 215.6,223.63 215.65,223.66 215.71,223.7 215.77,223.73 215.82,223.76 
			215.88,223.79 215.94,223.82 216,223.84 216.06,223.87 216.12,223.9 216.18,223.92 216.24,223.94 216.3,223.97 216.36,223.99 
			216.42,224.01 216.48,224.03 216.54,224.05 216.61,224.06 216.67,224.08 216.73,224.09 216.79,224.11 216.86,224.12 
			216.92,224.13 216.98,224.14 217.05,224.15 217.11,224.16 217.18,224.17 217.24,224.17 217.31,224.18 217.37,224.18 
			217.44,224.19 217.5,224.19 217.57,224.19 307.57,224.19 307.63,224.19 307.69,224.19 307.76,224.18 307.82,224.18 307.89,224.17 
			307.95,224.17 308.02,224.16 308.08,224.15 308.15,224.14 308.21,224.13 308.27,224.12 308.34,224.11 308.4,224.09 308.46,224.08 
			308.53,224.06 308.59,224.05 308.65,224.03 308.71,224.01 308.77,223.99 308.83,223.97 308.89,223.94 308.96,223.92 309.02,223.9 
			309.07,223.87 309.13,223.84 309.19,223.82 309.25,223.79 309.31,223.76 309.36,223.73 309.42,223.7 309.48,223.66 309.53,223.63 
			309.59,223.6 309.64,223.56 309.7,223.52 309.75,223.49 309.8,223.45 309.85,223.41 309.9,223.37 309.95,223.33 310,223.29 
			310.05,223.24 310.1,223.2 310.15,223.16 310.19,223.11 310.24,223.07 310.28,223.02 310.33,222.97 310.37,222.92 310.41,222.88 
			310.46,222.83 310.5,222.78 310.54,222.72 310.58,222.67 310.61,222.62 310.65,222.57 310.69,222.51 310.72,222.46 310.76,222.41 
			310.79,222.35 310.82,222.29 310.86,222.24 310.89,222.18 310.92,222.12 310.94,222.06 310.97,222.01 311,221.95 311.02,221.89 
			311.05,221.83 311.07,221.77 311.09,221.71 311.12,221.65 311.14,221.58 311.15,221.52 311.17,221.46 311.19,221.4 311.21,221.34 
			311.22,221.27 311.24,221.21 311.25,221.15 311.26,221.08 311.27,221.02 311.28,220.95 311.29,220.89 311.3,220.83 311.3,220.76 
			311.31,220.7 311.31,220.63 311.31,220.57 311.31,220.5 311.32,220.44 311.32,167.94 311.31,167.87 311.31,167.81 311.31,167.74 
			311.31,167.68 311.3,167.61 311.3,167.55 311.29,167.49 311.28,167.42 311.27,167.36 311.26,167.29 311.25,167.23 311.24,167.17 
			311.22,167.1 311.21,167.04 311.19,166.98 311.17,166.92 311.15,166.85 311.14,166.79 311.12,166.73 311.09,166.67 311.07,166.61 
			311.05,166.55 311.02,166.49 311,166.43 310.97,166.37 310.94,166.31 310.92,166.25 310.89,166.2 310.86,166.14 310.82,166.08 
			310.79,166.03 310.76,165.97 310.72,165.92 310.69,165.86 310.65,165.81 310.61,165.75 310.58,165.7 310.54,165.65 310.5,165.6 
			310.46,165.55 310.41,165.5 310.37,165.45 310.33,165.4 310.28,165.36 310.24,165.31 310.19,165.26 310.15,165.22 310.1,165.17 
			310.05,165.13 310,165.09 309.95,165.05 309.9,165.01 309.85,164.97 309.8,164.93 309.75,164.89 309.7,164.85 309.64,164.82 
			309.59,164.78 309.53,164.75 309.48,164.71 309.42,164.68 309.36,164.65 309.31,164.62 309.25,164.59 309.19,164.56 
			309.13,164.53 309.07,164.51 309.02,164.48 308.96,164.45 308.89,164.43 308.83,164.41 308.77,164.39 308.71,164.37 
			308.65,164.35 308.59,164.33 308.53,164.31 308.46,164.3 308.4,164.28 308.34,164.27 308.27,164.26 308.21,164.24 308.15,164.23 
			308.08,164.22 308.02,164.22 307.95,164.21 307.89,164.2 307.82,164.2 307.76,164.19 307.69,164.19 307.63,164.19 307.57,164.19 
					"/>
	</g>
	<g id="POLYLINE_54_">
		<line class="st3" x1="191.32" y1="234.5" x2="333.82" y2="234.5"/>
	</g>
</g>
<g id="AG-PEOPLE">
</g>
<g id="AG-WALL">
	<g id="POLYLINE_46_">
		<polygon class="st20" points="551.25,603.75 566.25,603.75 566.25,146.25 548.94,146.25 548.94,129.38 583.12,129.38 
			583.12,620.62 551.25,620.62 		"/>
	</g>
	<g id="POLYLINE_47_">
		<polygon class="st20" points="368.94,146.25 183.75,146.25 183.75,603.75 438.75,603.75 438.75,620.62 166.88,620.62 
			166.88,129.38 368.94,129.38 		"/>
	</g>
</g>
</svg>
