<?xml version="1.0" encoding="utf-8"?>
<!-- Generator: Adobe Illustrator 23.0.1, SVG Export Plug-In . SVG Version: 6.00 Build 0)  -->
<svg version="1.1" xmlns="http://www.w3.org/2000/svg" xmlns:xlink="http://www.w3.org/1999/xlink" x="0px" y="0px"
	 viewBox="0 0 750 750" style="enable-background:new 0 0 750 750;" xml:space="preserve">
<style type="text/css">
	.st0{fill:#FFFFFF;}
	.st1{fill:#3A54F5;}
	.st2{fill:none;stroke:#3A54F5;stroke-width:2;stroke-linecap:round;stroke-linejoin:round;stroke-miterlimit:10;}
	.st3{fill:none;stroke:#3A54F5;stroke-width:2.5;stroke-linecap:round;stroke-linejoin:round;stroke-miterlimit:10;}
	.st4{fill:none;stroke:#3A54F5;stroke-width:5;stroke-linecap:round;stroke-linejoin:round;}
	.st5{fill:none;stroke:#3A54F5;stroke-width:5;stroke-linecap:round;stroke-linejoin:round;stroke-dasharray:8.0713,11.098;}
	.st6{fill:none;stroke:#3A54F5;stroke-width:5;stroke-linecap:round;stroke-linejoin:round;stroke-dasharray:8.0268,11.0368;}
	.st7{fill:none;stroke:#3A54F5;stroke-width:3;stroke-linecap:round;stroke-linejoin:round;}
	.st8{fill:none;stroke:#3A54F5;stroke-width:3;stroke-linecap:round;stroke-linejoin:round;stroke-dasharray:5.2184,7.3058;}
	.st9{fill:none;stroke:#3A54F5;stroke-width:3;stroke-linecap:round;stroke-linejoin:round;stroke-dasharray:4.9048,6.8667;}
	.st10{fill:none;stroke:#3A54F5;stroke-width:3;stroke-linecap:round;stroke-linejoin:round;stroke-dasharray:4.9304,6.9026;}
	.st11{fill:none;stroke:#000000;stroke-width:3;stroke-linecap:round;stroke-linejoin:round;}
	.st12{fill:none;stroke:#000000;stroke-width:3;stroke-linecap:round;stroke-linejoin:round;stroke-dasharray:4.9949,6.9929;}
	.st13{fill:none;stroke:#000000;stroke-width:3;stroke-linecap:round;stroke-linejoin:round;stroke-dasharray:4.9458,6.9242;}
	.st14{fill:none;stroke:#000000;stroke-width:3;stroke-linecap:round;stroke-linejoin:round;stroke-dasharray:4.9454,6.9235;}
	.st15{fill:none;stroke:#3A54F5;stroke-width:3;stroke-linecap:round;stroke-linejoin:round;stroke-dasharray:4.9949,6.9929;}
	.st16{fill:none;stroke:#3A54F5;stroke-width:3;stroke-linecap:round;stroke-linejoin:round;stroke-dasharray:4.9458,6.9242;}
	.st17{fill:none;stroke:#3A54F5;stroke-width:3;stroke-linecap:round;stroke-linejoin:round;stroke-dasharray:4.9454,6.9235;}
	.st18{fill:none;stroke:#3A54F5;stroke-width:3;stroke-linecap:round;stroke-linejoin:round;stroke-dasharray:5.2189,7.3065;}
	.st19{fill:none;stroke:#000000;stroke-width:2.5;stroke-linecap:round;stroke-linejoin:round;stroke-miterlimit:10;}
	.st20{fill:none;stroke:#3A54F5;stroke-width:3.5;stroke-linecap:round;stroke-linejoin:round;stroke-miterlimit:10;}
	.st21{fill:none;stroke:#000000;stroke-width:3.5;stroke-linecap:round;stroke-linejoin:round;stroke-miterlimit:10;}
</style>
<g id="FILL-BACKGROUND">
</g>
<g id="N-DIMENSIONS">
</g>
<g id="N-TEXT">
</g>
<g id="AG-DIAGRAM">
	<g id="POLYLINE_10_">
		<g>
			<g>
				<path class="st7" d="M431.2,493.43c0-0.59,0-1.18,0-1.77c0-0.24,0-0.49,0-0.73c-0.83,0.01-1.67,0.02-2.5,0.04"/>
				<path class="st9" d="M421.85,491.33c-2.67,0.22-5.34,0.52-7.99,0.94c-5.69,0.88-11.3,2.22-16.79,3.95
					c-5.49,1.74-10.81,3.93-15.97,6.46c-5.11,2.52-10.02,5.47-14.68,8.75c-4.69,3.29-9.13,6.95-13.25,10.92
					c-4.1,3.96-7.94,8.21-11.39,12.76c-3.48,4.58-6.64,9.4-9.39,14.46c-2.75,5.07-5.13,10.34-7.08,15.76
					c-1.97,5.46-3.51,11.09-4.61,16.79c-0.98,5.06-1.6,10.18-1.87,15.33"/>
				<path class="st7" d="M318.69,600.88c-0.02,0.83-0.02,1.67-0.03,2.5c0.83,0,1.67,0,2.5,0"/>
				<path class="st10" d="M328.06,603.39c0.61,0,1.21,0,1.82,0c8.98,0,17.95,0.01,26.93,0.01c10.85,0,21.7,0.01,32.55,0.01
					c9.32,0,18.64,0.01,27.95,0.01c3.1,0,6.21,0,9.31,0c0.95,0,1.9,0,2.85,0c0.36,0,1.16,0.16,1.49,0c0.4-0.19,0.19-1.26,0.19-1.76
					c0-2.35,0-4.71,0-7.06c0-8.52,0.01-17.04,0.01-25.56c0-10.77,0.01-21.54,0.01-32.31c0-9.71,0.01-19.41,0.01-29.12
					c0-3.58,0-7.16,0-10.74"/>
			</g>
		</g>
	</g>
</g>
<g id="AG-PEOPLE">
</g>
<g id="AG-FURNITURE">
	<g id="POLYLINE_14_">
		<path class="st3" d="M599.93,164.19c1.33,0,2.6,0.73,3.26,1.89c0.5,0.88,0.49,1.81,0.49,2.78c0,5.59,0,11.18,0,16.77
			c0,7.8,0,15.61,0,23.41c0,2.79,0,5.57,0,8.36c0,1.08,0.07,2.18-0.01,3.25c-0.17,2.46-2.24,3.52-4.44,3.52c-3.88,0-7.76,0-11.64,0
			c-7.03,0-14.05,0-21.08,0c-8.04,0-16.09,0-24.13,0c-6.96,0-13.92,0-20.88,0c-3.69,0-7.38,0-11.07,0c-2.27,0-4.17-1.33-4.25-3.75
			c-0.13-4.1,0-8.22,0-12.32c0-7.84,0-15.68,0-23.51c0-5.33,0-10.67,0-16c0-2.32,1.23-4.33,3.76-4.41c2.8-0.09,5.61,0,8.41,0
			c6.46,0,12.92,0,19.38,0c7.99,0,15.99,0,23.98,0c7.43,0,14.85,0,22.28,0c4.67,0,9.33,0,14,0
			C598.64,164.19,599.29,164.19,599.93,164.19z"/>
	</g>
	<g id="POLYLINE_15_">
		<line class="st3" x1="626.18" y1="234.5" x2="483.68" y2="234.5"/>
	</g>
	<g id="POLYLINE_16_">
		<polygon class="st3" points="626.25,161.25 626.25,161.12 626.25,160.99 626.24,160.87 626.23,160.74 626.22,160.61 
			626.21,160.48 626.2,160.35 626.18,160.22 626.16,160.09 626.14,159.96 626.12,159.84 626.09,159.71 626.06,159.58 626.03,159.46 
			626,159.33 625.97,159.21 625.93,159.08 625.89,158.96 625.85,158.84 625.81,158.71 625.76,158.59 625.72,158.47 625.67,158.35 
			625.62,158.23 625.56,158.11 625.51,158 625.45,157.88 625.39,157.77 625.33,157.65 625.27,157.54 625.2,157.43 625.13,157.32 
			625.07,157.21 624.99,157.1 624.92,156.99 624.85,156.89 624.77,156.78 624.69,156.68 624.61,156.58 624.53,156.47 624.45,156.38 
			624.36,156.28 624.28,156.18 624.19,156.09 624.1,155.99 624.01,155.9 623.91,155.81 623.82,155.72 623.72,155.64 623.62,155.55 
			623.53,155.47 623.42,155.39 623.32,155.31 623.22,155.23 623.11,155.15 623.01,155.08 622.9,155.01 622.79,154.93 622.68,154.87 
			622.57,154.8 622.46,154.73 622.35,154.67 622.23,154.61 622.12,154.55 622,154.49 621.89,154.44 621.77,154.38 621.65,154.33 
			621.53,154.28 621.41,154.24 621.29,154.19 621.16,154.15 621.04,154.11 620.92,154.07 620.79,154.03 620.67,154 620.54,153.97 
			620.42,153.94 620.29,153.91 620.16,153.88 620.04,153.86 619.91,153.84 619.78,153.82 619.65,153.8 619.52,153.79 619.39,153.78 
			619.26,153.77 619.13,153.76 619.01,153.75 618.88,153.75 618.75,153.75 491.19,153.75 491.06,153.75 490.93,153.75 490.8,153.76 
			490.67,153.77 490.54,153.78 490.41,153.79 490.28,153.8 490.16,153.82 490.03,153.84 489.9,153.86 489.77,153.88 489.65,153.91 
			489.52,153.94 489.39,153.97 489.27,154 489.14,154.03 489.02,154.07 488.89,154.11 488.77,154.15 488.65,154.19 488.53,154.24 
			488.41,154.28 488.29,154.33 488.17,154.38 488.05,154.44 487.93,154.49 487.82,154.55 487.7,154.61 487.59,154.67 487.47,154.73 
			487.36,154.8 487.25,154.87 487.14,154.93 487.03,155.01 486.93,155.08 486.82,155.15 486.72,155.23 486.61,155.31 486.51,155.39 
			486.41,155.47 486.31,155.55 486.21,155.64 486.12,155.72 486.02,155.81 485.93,155.9 485.84,155.99 485.75,156.09 485.66,156.18 
			485.57,156.28 485.49,156.38 485.4,156.47 485.32,156.58 485.24,156.68 485.16,156.78 485.09,156.89 485.01,156.99 484.94,157.1 
			484.87,157.21 484.8,157.32 484.73,157.43 484.67,157.54 484.61,157.65 484.54,157.77 484.49,157.88 484.43,158 484.37,158.11 
			484.32,158.23 484.27,158.35 484.22,158.47 484.17,158.59 484.13,158.71 484.08,158.84 484.04,158.96 484.01,159.08 
			483.97,159.21 483.93,159.33 483.9,159.46 483.87,159.58 483.85,159.71 483.82,159.84 483.8,159.96 483.78,160.09 483.76,160.22 
			483.74,160.35 483.73,160.48 483.71,160.61 483.7,160.74 483.69,160.87 483.69,160.99 483.69,161.12 483.68,161.25 483.68,446.38 
			483.69,446.51 483.69,446.64 483.69,446.77 483.7,446.9 483.71,447.03 483.73,447.16 483.74,447.29 483.76,447.42 483.78,447.54 
			483.8,447.67 483.82,447.8 483.85,447.93 483.87,448.05 483.9,448.18 483.93,448.31 483.97,448.43 484.01,448.55 484.04,448.68 
			484.08,448.8 484.13,448.92 484.17,449.04 484.22,449.17 484.27,449.29 484.32,449.4 484.37,449.52 484.43,449.64 484.49,449.76 
			484.54,449.87 484.61,449.99 484.67,450.1 484.73,450.21 484.8,450.32 484.87,450.43 484.94,450.54 485.01,450.65 485.09,450.75 
			485.16,450.86 485.24,450.96 485.32,451.06 485.4,451.16 485.49,451.26 485.57,451.36 485.66,451.46 485.75,451.55 485.84,451.64 
			485.93,451.74 486.02,451.83 486.12,451.91 486.21,452 486.31,452.09 486.41,452.17 486.51,452.25 486.61,452.33 486.72,452.41 
			486.82,452.48 486.93,452.56 487.03,452.63 487.14,452.7 487.25,452.77 487.36,452.84 487.47,452.9 487.59,452.97 487.7,453.03 
			487.82,453.09 487.93,453.14 488.05,453.2 488.17,453.25 488.29,453.3 488.41,453.35 488.53,453.4 488.65,453.44 488.77,453.49 
			488.89,453.53 489.02,453.57 489.14,453.6 489.27,453.64 489.39,453.67 489.52,453.7 489.65,453.73 489.77,453.75 489.9,453.78 
			490.03,453.8 490.16,453.82 490.28,453.83 490.41,453.85 490.54,453.86 490.67,453.87 490.8,453.88 490.93,453.88 491.06,453.89 
			491.19,453.89 618.75,453.89 618.88,453.89 619.01,453.88 619.13,453.88 619.26,453.87 619.39,453.86 619.52,453.85 
			619.65,453.83 619.78,453.82 619.91,453.8 620.04,453.78 620.16,453.75 620.29,453.73 620.42,453.7 620.54,453.67 620.67,453.64 
			620.79,453.6 620.92,453.57 621.04,453.53 621.16,453.49 621.29,453.44 621.41,453.4 621.53,453.35 621.65,453.3 621.77,453.25 
			621.89,453.2 622,453.14 622.12,453.09 622.23,453.03 622.35,452.97 622.46,452.9 622.57,452.84 622.68,452.77 622.79,452.7 
			622.9,452.63 623.01,452.56 623.11,452.48 623.22,452.41 623.32,452.33 623.42,452.25 623.53,452.17 623.62,452.09 623.72,452 
			623.82,451.91 623.91,451.83 624.01,451.74 624.1,451.64 624.19,451.55 624.28,451.46 624.36,451.36 624.45,451.26 624.53,451.16 
			624.61,451.06 624.69,450.96 624.77,450.86 624.85,450.75 624.92,450.65 624.99,450.54 625.07,450.43 625.13,450.32 625.2,450.21 
			625.27,450.1 625.33,449.99 625.39,449.87 625.45,449.76 625.51,449.64 625.56,449.52 625.62,449.4 625.67,449.29 625.72,449.17 
			625.76,449.04 625.81,448.92 625.85,448.8 625.89,448.68 625.93,448.55 625.97,448.43 626,448.31 626.03,448.18 626.06,448.05 
			626.09,447.93 626.12,447.8 626.14,447.67 626.16,447.54 626.18,447.42 626.2,447.29 626.21,447.16 626.22,447.03 626.23,446.9 
			626.24,446.77 626.25,446.64 626.25,446.51 626.25,446.38 		"/>
	</g>
	<g id="POLYLINE_17_">
		<path class="st3" d="M123.75,161.25c0.01-3.77,2.91-7.03,6.66-7.46c0.95-0.11,1.94-0.05,2.9-0.05c2.34,0,4.67,0,7.01,0
			c8.36,0,16.72,0,25.08,0c10.91,0,21.82,0,32.74,0c10.65,0,21.31,0,31.96,0c7.59,0,15.17,0,22.76,0c1.76,0,3.52,0,5.28,0
			c1.19,0,2.34,0.09,3.46,0.53c2.94,1.18,4.7,4.03,4.72,7.15c0.02,2.28,0,4.56,0,6.83c0,5.17,0,10.34,0,15.52
			c0,7.48,0,14.96,0,22.44c0,9.27,0,18.54,0,27.81c0,10.44,0,20.89,0,31.33c0,11.12,0,22.24,0,33.36c0,11.21,0,22.41,0,33.62
			c0,10.73,0,21.46,0,32.19c0,9.69,0,19.38,0,29.07c0,8.09,0,16.17,0,24.26c0,5.92,0,11.84,0,17.76c0,3.19,0,6.39,0,9.58
			c0,2.36-0.35,4.56-2.06,6.36c-2.13,2.24-4.82,2.34-7.67,2.34c-6.14,0-12.28,0-18.42,0c-10.01,0-20.01,0-30.02,0
			c-11.13,0-22.26,0-33.39,0c-9.39,0-18.79,0-28.18,0c-4.91,0-9.82,0-14.73,0c-3.12,0-5.99-1.37-7.38-4.31
			c-0.86-1.82-0.72-3.76-0.72-5.7c0-3.84,0-7.68,0-11.51c0-6.44,0-12.89,0-19.33c0-8.48,0-16.97,0-25.45c0-9.96,0-19.93,0-29.89
			c0-10.88,0-21.76,0-32.64c0-11.24,0-22.47,0-33.71c0-11.03,0-22.06,0-33.08c0-10.23,0-20.46,0-30.69c0-8.93,0-17.86,0-26.79
			c0-7.02,0-14.04,0-21.05c0-4.59,0-9.17,0-13.76C123.75,164.4,123.75,162.83,123.75,161.25z"/>
	</g>
	<g id="POLYLINE_18_">
		<line class="st3" x1="123.82" y1="234.5" x2="266.32" y2="234.5"/>
	</g>
	<g id="POLYLINE_19_">
		<path class="st3" d="M150.07,164.19c-1.33,0-2.6,0.73-3.26,1.89c-0.51,0.89-0.49,1.83-0.49,2.81c0,5.58,0,11.16,0,16.74
			c0,7.83,0,15.66,0,23.5c0,2.78,0,5.55,0,8.33c0,1.07-0.07,2.17,0.01,3.24c0.19,2.44,2.25,3.49,4.44,3.49c3.89,0,7.79,0,11.68,0
			c7.05,0,14.1,0,21.15,0c8.03,0,16.06,0,24.1,0c6.92,0,13.84,0,20.77,0c3.7,0,7.4,0,11.11,0c2.27,0,4.17-1.33,4.25-3.75
			c0.13-4.1,0-8.22,0-12.32c0-7.84,0-15.68,0-23.51c0-5.34,0-10.68,0-16.03c0-2.32-1.24-4.3-3.77-4.38c-2.81-0.09-5.63,0-8.44,0
			c-6.45,0-12.91,0-19.36,0c-8.01,0-16.03,0-24.04,0c-7.38,0-14.77,0-22.15,0c-4.68,0-9.36,0-14.04,0
			C151.36,164.19,150.71,164.19,150.07,164.19z"/>
	</g>
</g>
<g id="AG-LAYOUT">
	<g id="POLYLINE_11_">
		<rect x="285" y="153.75" class="st3" width="180" height="82.5"/>
	</g>
	<g id="POLYLINE_12_">
		<rect x="345" y="223.25" class="st3" width="60" height="60"/>
	</g>
	<g id="POLYLINE_13_">
		<rect x="536.25" y="461.25" class="st3" width="90" height="135"/>
	</g>
	<g id="POLYLINE_20_">
		<rect x="123.75" y="461.25" class="st3" width="90" height="135"/>
	</g>
	<g id="POLYLINE_23_">
		<rect x="285" y="129.38" class="st3" width="180" height="16.88"/>
	</g>
</g>
<g id="AG-WALL">
	<g id="POLYLINE_21_">
		<polygon class="st20" points="465,146.25 465,129.38 650.62,129.38 650.62,620.62 431.25,620.62 431.25,603.75 633.75,603.75 
			633.75,146.25 		"/>
	</g>
	<g id="POLYLINE_22_">
		<polygon class="st20" points="285,129.38 285,146.25 116.25,146.25 116.25,603.75 318.75,603.75 318.75,620.62 99.38,620.62 
			99.38,129.38 		"/>
	</g>
</g>
</svg>
