<?xml version="1.0" encoding="utf-8"?>
<!-- Generator: Adobe Illustrator 28.0.0, SVG Export Plug-In . SVG Version: 6.00 Build 0)  -->
<!DOCTYPE svg PUBLIC "-//W3C//DTD SVG 1.1//EN" "http://www.w3.org/Graphics/SVG/1.1/DTD/svg11.dtd" [
	<!ENTITY ns_extend "http://ns.adobe.com/Extensibility/1.0/">
	<!ENTITY ns_ai "http://ns.adobe.com/AdobeIllustrator/10.0/">
	<!ENTITY ns_graphs "http://ns.adobe.com/Graphs/1.0/">
	<!ENTITY ns_vars "http://ns.adobe.com/Variables/1.0/">
	<!ENTITY ns_imrep "http://ns.adobe.com/ImageReplacement/1.0/">
	<!ENTITY ns_sfw "http://ns.adobe.com/SaveForWeb/1.0/">
	<!ENTITY ns_custom "http://ns.adobe.com/GenericCustomNamespace/1.0/">
	<!ENTITY ns_adobe_xpath "http://ns.adobe.com/XPath/1.0/">
]>
<svg version="1.1" xmlns:x="&ns_extend;" xmlns:i="&ns_ai;" xmlns:graph="&ns_graphs;"
	 xmlns="http://www.w3.org/2000/svg" xmlns:xlink="http://www.w3.org/1999/xlink" x="0px" y="0px" width="1000px" height="575px"
	 viewBox="0 0 1000 575" enable-background="new 0 0 1000 575" xml:space="preserve">
<metadata>
	<sfw  xmlns="&ns_sfw;">
		<slices></slices>
		<sliceSourceBounds  bottomLeftOrigin="true" height="15589.845" width="2588.973" x="-1933.378" y="-7363.583">
			</sliceSourceBounds>
	</sfw>
</metadata>
<g id="FILL-BACKGROUND">
</g>
<g id="_x32_D_x24_AG-DIAGRAM">
</g>
<g id="_x32_D_x24_AG-PEOPLE">
	<g id="POLYLINE_00000138540685224851301090000008882615799271017127_">
		
			<path fill="none" stroke="#1B7FFF" stroke-width="2.5" stroke-linecap="round" stroke-linejoin="round" stroke-miterlimit="10" d="
			M781.797,191.908c1.847,2.059,3.982,4.243,5.493,6.553c0.251,0.404,0.479,0.832,0.639,1.281c0.175,0.501,0.286,1.031,0.343,1.559
			c0.058,0.583,0.005,1.202-0.303,1.713c-0.582,0.961-1.779,1.273-2.824,1.418"/>
	</g>
	<g id="POLYLINE_00000082369522662249071530000018014272247480968097_">
		
			<path fill="none" stroke="#1B7FFF" stroke-width="2.5" stroke-linecap="round" stroke-linejoin="round" stroke-miterlimit="10" d="
			M805.529,300.148l-8.146,23.065c-1.371,3.8-5.98,15.504-7.528,19.441c-0.656,1.769-1.329,3.587-1.533,5.473
			c-0.179,1.656-0.114,3.352,0.027,5.009c0.245,2.92,0.868,5.839,1.665,8.658l2.965,10.116c0.578,2.121,1.153,4.327,1.401,6.508
			c0.251,2.08,0.189,4.294,0.121,6.389c-0.125,3.253-0.385,6.647-0.839,9.868c-0.399,2.852-1.033,5.855-1.711,8.657
			c-1.336,5.633-3.462,11.915-4.049,17.674c-0.488,5.038,0.074,10.269,2.108,14.932c0.441,0.999,1.105,2.188,1.228,3.28
			c0.136,1.003-0.043,2.048-0.523,2.94c-0.526,0.973-1.342,1.758-2.139,2.511c-2.891,2.587-5.938,5.366-8.3,8.445
			c-1.078,1.361-2.871,3.82-4.027,5.06c-0.494,0.536-1.033,1.046-1.62,1.479c-0.695,0.516-1.465,0.933-2.262,1.266
			c-1.909,0.785-3.97,1.195-6.014,1.439c-3.326,0.381-6.719,0.267-10.037-0.149c-0.439-0.057-0.888-0.222-1.181-0.568
			c-0.202-0.301-0.306-0.67-0.263-1.032c0.062-0.538,0.366-1.01,0.69-1.43c0.307-0.393,0.688-0.784,1.043-1.137
			c0.833-0.81,1.815-1.76,2.601-2.605c1.74-1.851,3.448-3.956,5.003-5.968c1.915-2.5,3.81-5.165,5.395-7.885
			c1.097-1.879,2.056-3.865,2.807-5.908c0.887-2.392,1.524-4.932,2.039-7.429c0.949-4.706,1.626-9.536,1.892-14.331
			c0.137-2.539,0.073-5.176-0.153-7.708c-0.192-2.824-2.286-18.789-2.639-21.868c-0.638-4.617-1.494-11.031-2.401-15.59
			c-0.504-2.472-2.032-9.494-2.379-11.852c-0.596-3.714-1.009-7.562-1.038-11.325c-0.061-5.322,0.415-10.907,0.977-16.205
			c1.187-10.682,3.103-22.231,4.997-32.821"/>
	</g>
	<g id="POLYLINE_00000137094955421738245330000001747656256345106606_">
		
			<line fill="none" stroke="#1B7FFF" stroke-width="2.5" stroke-linecap="round" stroke-linejoin="round" stroke-miterlimit="10" x1="734.512" y1="234.218" x2="736.025" y2="239.754"/>
	</g>
	<g id="POLYLINE_00000157290422122036343810000014032084994210653110_">
		
			<path fill="none" stroke="#1B7FFF" stroke-width="2.5" stroke-linecap="round" stroke-linejoin="round" stroke-miterlimit="10" d="
			M724.437,215.37c0.119,2.132,0.2,4.398,0.587,6.493c0.254,1.324,0.672,2.641,1.129,3.908c0.577,1.547,1.289,3.076,2.312,4.382
			c0.901,1.144,2.043,2.095,3.294,2.834c1.064,0.63,2.224,1.108,3.419,1.425c1.075,0.31,2.41,0.439,3.465,0.814
			c0.336,0.127,0.658,0.306,0.918,0.556c0.286,0.271,0.49,0.619,0.68,0.961c0.327,0.613,0.695,1.33,1.068,1.912"/>
	</g>
	<g id="POLYLINE_00000005968644203676981810000018050128665890873266_">
		
			<path fill="none" stroke="#1B7FFF" stroke-width="2.5" stroke-linecap="round" stroke-linejoin="round" stroke-miterlimit="10" d="
			M641.811,263.072c0.602-8.694,1.248-18.044,0.933-26.729c-0.118-3.666-0.642-7.931-1.093-11.59
			c-0.472-3.688-1.055-7.59-1.843-11.223c-0.769-3.521-1.974-7.931-2.134-11.523l-0.3-6.465c-0.148-2.233-0.389-4.996-0.635-7.219
			c-2.211,1.984-5.184,4.91-7.307,7.034c-0.706,0.69-1.483,1.389-2.253,2.008c-2.82,2.201-6.389,4.596-9.382,6.589
			c-1.874,1.19-3.806,2.431-5.875,3.253c1.16,2.753,2.633,6.07,3.54,8.883c0.64,1.966,1.106,4.136,1.502,6.17
			c0.479,2.464,0.973,5.36,1.867,7.694c0.658,1.807,1.723,3.953,2.564,5.698c1.229,2.47,2.629,5.47,4.168,7.745
			c0.605,0.903,1.288,1.791,1.994,2.616c0.984,1.181,5.378,5.771,6.482,6.967c1.126,1.256,2.465,2.686,3.481,4.021
			c0.568,0.747,1.068,1.562,1.366,2.457c0.302,0.884,0.439,1.823,0.501,2.753c0.077,1.17,0.028,2.361-0.164,3.519
			c-0.199,1.189-0.532,2.365-0.95,3.495c-0.313,0.8-0.707,1.671-1.479,2.122c-0.781,0.44-1.74,0.447-2.602,0.285
			c-0.239-0.047-0.483-0.119-0.714-0.196c-1.595-0.576-3.942-1.295-5.545-1.86c-1.051-0.35-2.234-0.558-3.248-1.012
			c-1.008-0.438-1.953-1.038-2.759-1.786c-0.681-0.634-1.259-1.383-1.721-2.19c-0.459-0.8-0.802-1.672-1.038-2.562
			c-0.442-1.634-0.723-4.03-1.045-5.7c-0.287-1.518-0.661-3.047-1.237-4.483c-1.334-3.269-3.901-6.546-5.867-9.475
			c-1.608-2.258-5.856-8.052-7.273-10.281c-2.373-3.66-4.659-7.612-6.697-11.47c-1.002-1.925-2.034-3.978-2.775-6.015
			c-0.785-2.122-1.346-4.376-1.799-6.592c-0.281-1.464-0.233-3.041,0.427-4.401c1.561-2.985,3.684-5.664,5.956-8.137
			c2.997-3.239,6.243-6.431,9.679-9.202c2.118-1.725,5.422-3.94,7.541-5.665c1.882-1.535,3.638-3.307,5.26-5.113
			c1.885-2.137,4.444-5.278,6.59-7.099c2.144-1.867,4.583-3.446,7.266-4.412c3.786-1.386,9.047-1.777,13.043-2.372
			c2.533-0.37,5.198-0.888,7.696-1.452c1.542-0.358,3.235-0.753,4.739-1.235c0.609-0.202,1.227-0.433,1.755-0.805
			c0.457-0.318,0.819-0.754,1.115-1.221c0.713-1.093,1.061-2.377,1.307-3.646c0.471-2.523,0.613-5.204,0.724-7.767
			c0.959,1.803,2.047,3.58,3.376,5.135c1.107,1.298,2.42,2.449,3.95,3.221c1.396,0.697,2.934,1.201,4.508,1.179
			c2.327-0.029,4.424-1.275,6.222-2.652c1.126-0.87,2.215-1.828,3.067-2.975c0.956-1.271,1.616-2.758,2.226-4.219
			c0.515-1.211,1.193-3.25,1.88-4.335c0.255-0.4,0.57-0.691,0.974-0.937c0.569-0.341,1.108-0.674,1.53-1.197
			c0.375-0.452,0.674-0.97,0.924-1.501c0.387-0.83,0.659-1.722,0.796-2.628c0.191-1.321,0.136-2.683-0.149-3.986
			c-0.157-0.667-0.362-1.35-0.775-1.907c-0.149-0.194-0.332-0.37-0.555-0.474c-0.191-0.091-0.41-0.12-0.619-0.086"/>
	</g>
	<g id="POLYLINE_00000093145811939247948130000012517187953229453453_">
		
			<path fill="none" stroke="#1B7FFF" stroke-width="2.5" stroke-linecap="round" stroke-linejoin="round" stroke-miterlimit="10" d="
			M718.447,185.384c-0.666,1.613-1.037,3.396-0.751,5.136c0.195,1.388,1.051,3.459,1.495,4.802c1.22,3.619,2.411,7.756,3.41,11.447
			c0.512,1.953,1.068,4.072,1.403,6.061l0.287,1.849c0.087,0.515,0.202,1.043,0.485,1.49c0.231,0.372,0.544,0.689,0.877,0.97
			c0.626,0.528,1.381,0.98,2.083,1.404c2.971,1.754,6.116,3.327,9.462,4.221c1.692,0.457,3.456,0.721,5.205,0.819
			c0.906,0.042,1.839,0.081,2.742-0.018c0.372-0.048,0.751-0.137,1.065-0.35c0.283-0.19,0.492-0.472,0.638-0.776
			c0.184-0.381,0.295-0.798,0.388-1.21c0.203-0.904,0.32-1.924,0.436-2.846c0.314-2.626,0.664-6.835,1.216-9.385
			c0.725-3.353,3.523-10.638,4.618-13.969c0.394-1.213,0.854-2.532,1.116-3.774c0.17-0.799,0.235-1.631,0.099-2.441
			c-0.111-0.754-0.439-1.488-0.747-2.181c-0.299-0.689-0.566-1.416-0.778-2.136c-0.391-1.325-0.651-2.721-0.843-4.089
			c-0.189-1.335-0.293-2.706-0.22-4.054c0.118-2.414,0.788-4.785,1.829-6.96"/>
	</g>
	<g id="POLYLINE_00000041990367211638046550000003209519164368072886_">
		
			<path fill="none" stroke="#1B7FFF" stroke-width="2.5" stroke-linecap="round" stroke-linejoin="round" stroke-miterlimit="10" d="
			M697.947,258.778c-0.209-1.621-0.179-3.418-0.162-5.057c0.154-5.46,0.062-18.213,0.692-23.464c0.222-2.098,0.553-4.279,0.958-6.35
			c0.608-3.281,2.214-9.118,3.045-12.407c0.645-2.479,1.691-7.235,2.259-9.767c0.792-3.288,1.798-6.595,3.483-9.545
			c1.394-0.59,2.811-1.227,4.068-2.077c0.947-0.611,2.006-1.757,2.816-2.546c0.612-0.586,1.256-1.166,1.994-1.589
			c0.807-0.471,1.792-0.736,2.686-0.996c0.463-0.146,0.945-0.314,1.304-0.653c0.242-0.229,0.394-0.537,0.476-0.857
			c0.148-0.598,0.117-1.289-0.24-1.809c-0.227-0.332-0.541-0.596-0.857-0.839c-0.594-0.465-2.656-1.722-3.319-2.153
			c-1.039-0.67-2.096-1.421-3.06-2.193c-2.314-1.877-4.611-3.935-6.057-6.58c-1.193-2.15-1.881-4.706-2.794-6.98
			c-0.549-1.377-1.385-2.713-2.166-3.97c-0.562-0.944-1.082-1.962-1.196-3.069c-0.125-1.252,0.298-2.494,0.9-3.576
			c1.125-2.012,2.926-3.564,4.887-4.734c1.854-1.108,3.94-1.95,6.121-2.021c2.986-0.071,5.939,1.138,8.254,2.981
			c0.897,0.711,1.732,1.528,2.497,2.379c0.512,0.553,1.093,1.319,1.631,1.847c0.176,0.166,0.376,0.313,0.603,0.401
			c0.316,0.125,0.661,0.152,0.997,0.171c1.205,0.044,2.487,0.077,3.653,0.402c0.618,0.17,1.228,0.47,1.577,1.03
			c0.33,0.52,0.421,1.15,0.46,1.754c0.072,1.27-0.122,2.435-0.375,3.668c-0.064,0.395-0.058,0.801,0.008,1.196
			c0.11,0.66,0.345,1.298,0.604,1.912c0.473,1.103,1.071,2.196,1.668,3.236c0.856,0.981,1.776,2.061,2.733,2.938
			c0.648,0.594,1.373,1.125,2.193,1.455c1.237,0.5,2.596,0.622,3.92,0.613c1.278-0.017,2.577-0.15,3.83-0.402
			c1.373-0.273,2.754-0.714,4.075-1.178c1.953-0.678,4.936-1.967,6.956-2.261c1.548-0.239,3.14-0.155,4.692,0.002
			c0.853,0.096,1.734,0.213,2.573,0.392c0.785,0.167,1.554,0.44,2.241,0.859c1.18,0.721,2.172,1.72,3.078,2.755
			c1.728,1.988,3.081,4.293,4.249,6.645c2.092,4.315,4.213,9.172,5.929,13.648c1.188,3.167,2.266,6.457,2.89,9.785
			c0.656,3.39,0.886,6.907,0.907,10.357c0.011,2.053-0.013,4.287-0.165,6.332c-0.038,0.716,0.008,1.446,0.141,2.152
			c0.137,0.729,0.367,1.448,0.612,2.147c0.164,0.453,0.348,0.929,0.577,1.355c0.104,0.189,0.219,0.382,0.368,0.54
			c1.05,1.074,2.167,2.133,3.462,2.906c0.767,0.452,1.639,0.798,2.543,0.759c0.785-0.03,1.566-0.313,2.154-0.84
			c0.667-0.589,1.098-1.395,1.43-2.209c0.617-1.556,0.955-3.237,1.258-4.879c0.456-2.679,0.877-5.616,1.102-8.322
			c0.235-2.832,0.2-5.719-0.352-8.514c-0.47-2.427-1.276-4.802-2.44-6.985c-1.042-1.978-2.423-3.773-3.901-5.443
			c-1.1-1.223-4.144-4.556-5.138-5.767c-1.653-1.984-4.764-5.85-6.495-7.687"/>
	</g>
	<g id="POLYLINE_00000002353670259400813260000016355437015259516837_">
		
			<path fill="none" stroke="#1B7FFF" stroke-width="2.5" stroke-linecap="round" stroke-linejoin="round" stroke-miterlimit="10" d="
			M695.091,131.945c1.434-0.376,2.923-0.7,4.4-0.835c1.069-0.096,2.162-0.097,3.216,0.122c1.225,0.231,2.46,0.957,3.567,1.511
			c0.817,0.412,1.679,0.724,2.604,0.732c0.792,0.015,1.587-0.111,2.356-0.291c1.058-0.25,2.092-0.63,3.067-1.111
			c1.044-0.524,2.259-1.189,3.38-1.485c1.488-0.412,3.06-0.51,4.598-0.548c2.061-0.037,4.165,0.044,6.207,0.337
			c1.533,0.22,3.063,0.594,4.465,1.262c0.616,0.286,1.248,0.639,1.832,0.987c1.568,0.965,3.943,2.486,5.522,3.398
			c2.497,1.452,5.361,3.07,7.948,4.342c0.701,0.348,1.947,0.923,2.61,1.33c1.342,0.789,2.364,2.006,3.284,3.239
			c1.138,1.557,2.163,3.241,2.752,5.087l0.453,1.452c0.508,1.607,1.393,3.146,2.736,4.194c0.43,0.336,0.916,0.622,1.395,0.883
			c0.977,0.522,2.289,1.163,3.22,1.751c1.149,0.714,2.278,1.537,3.328,2.39c0.827,0.678,1.654,1.41,2.361,2.214l0.867,1.012
			c0.299,0.341,0.632,0.666,1.036,0.881c0.798,0.42,1.934,0.541,2.812,0.725c0.802,0.153,1.6,0.396,2.297,0.83
			c0.56,0.34,1.058,0.781,1.502,1.261c0.745,0.794,1.334,1.731,1.767,2.728c0.523,1.187,0.902,2.698,1.335,3.922
			c0.491,1.428,1.103,2.841,1.818,4.171c-1.594-0.344-3.253-0.798-4.804-1.302c-0.92-0.307-1.861-0.64-2.716-1.102
			c-1.189-0.639-2.219-1.553-3.199-2.472"/>
	</g>
	<g id="POLYLINE_00000117663343085842228310000015742762255702605207_">
		
			<path fill="none" stroke="#1B7FFF" stroke-width="2.5" stroke-linecap="round" stroke-linejoin="round" stroke-miterlimit="10" d="
			M748.674,315.908c0.637-0.43,1.145-1.04,1.469-1.735c0.454-0.966,0.586-2.053,0.584-3.111c-0.002-1.013-0.136-2.032-0.39-3.012
			c-0.219-0.886-0.596-1.801-0.944-2.646c-0.811-2.049-1.17-4.28-1.492-6.451c-0.849-4.746-2.482-10.242-3.454-14.974
			c-0.651-3.09-0.95-8.586-1.236-11.778c-0.753-7.777-2.143-15.77-3.641-23.437"/>
	</g>
	<g id="POLYLINE_00000051361922297121877550000012029066445367405243_">
		
			<path fill="none" stroke="#1B7FFF" stroke-width="2.5" stroke-linecap="round" stroke-linejoin="round" stroke-miterlimit="10" d="
			M754.658,188.489c2.53,2.429,5.616,4.235,8.771,5.729c0.405,0.689,0.743,1.472,1.057,2.209c0.673,1.605,1.338,3.479,1.907,5.131
			c2.411,7.16,4.472,14.668,6.164,22.031c-4.57,2.609-12.393,7.407-16.966,10.043c-1.227,0.673-2.558,1.325-3.847,1.87
			c-2.808,1.19-5.807,2.051-8.768,2.767c-7.037,1.713-15.143,2.895-22.331,3.995c-1.13,0.199-2.402,0.407-3.503,0.722
			c-0.508,0.147-1.023,0.319-1.483,0.585c-0.268,0.155-0.518,0.349-0.713,0.592c-0.196,0.242-0.336,0.528-0.417,0.829
			c-0.151,0.559-0.115,1.154,0.019,1.713c0.322,1.334,1.224,2.428,2.121,3.429c1.047,1.146,2.165,2.282,3.377,3.253
			c0.395,0.312,0.811,0.615,1.274,0.818c1.298,0.578,2.759,0.202,4.065-0.159c1.962-0.577,3.896-1.366,5.752-2.223
			c0.623-0.296,2.768-1.337,3.38-1.583c0.755-0.318,1.565-0.599,2.352-0.826c1.467-0.423,3.01-0.729,4.517-0.973
			c2.872-0.469,11.687-1.396,14.579-1.821c5.048-0.704,10.176-1.689,15.053-3.18c5.052-1.537,9.997-3.642,14.621-6.192
			c0.481-0.275,0.917-0.637,1.253-1.079c0.337-0.44,0.572-0.954,0.709-1.49c0.11-0.428,0.162-0.874,0.173-1.315
			c0.005-0.224,0-0.462-0.014-0.685c-0.143-2.024-0.398-6.044-0.602-8.022"/>
	</g>
	<g id="POLYLINE_00000144309375034146031050000006306751803020837015_">
		
			<path fill="none" stroke="#1B7FFF" stroke-width="2.5" stroke-linecap="round" stroke-linejoin="round" stroke-miterlimit="10" d="
			M747.432,296.61c1.339,0.825,2.87,1.345,4.442,1.453c1.597,0.124,3.27-0.108,4.855-0.31c3.018-0.416,6.581-0.914,9.601-1.072
			c4.33-0.247,8.891-0.166,13.222,0.092c9.13,0.502,18.986,2.643,28.076,3.599c1.603,0.139,3.285,0.264,4.893,0.133
			c0.619-4.411,1.242-9.254,1.51-13.688c0.164-2.798,0.227-5.679-0.054-8.469c-0.182-1.948-0.627-3.963-1.119-5.859
			c-0.853-3.359-1.855-6.942-2.955-10.224c-1.971-5.888-4.369-11.765-6.996-17.391c-2.702-5.719-5.765-11.418-9.428-16.583"/>
	</g>
	<g id="POLYLINE_00000060032081314150866960000005582617925697830296_">
		
			<path fill="none" stroke="#1B7FFF" stroke-width="2.5" stroke-linecap="round" stroke-linejoin="round" stroke-miterlimit="10" d="
			M639.401,264.117l2.41-1.045c3.835-1.405,7.904-2.289,12-2.274c0.932-0.001,1.938,0.039,2.867,0.104
			c5.124,0.395,12.346,1.334,17.439,1.276c2.816-0.017,5.742-0.355,8.534-0.718c5.031-0.661,10.36-1.523,15.296-2.682
			c1.325,1.342,2.628,2.831,3.806,4.306c1.479,1.821,4.648,6.338,6.065,8.292c2.864,3.834,5.888,7.701,9.481,10.884
			c2.542,2.193,5.633,4.883,7.924,7.301c4.981,5.049,11.521,13.036,16.14,18.534c3.242,3.836,7.285,7.801,10.871,11.34
			c1.073,1.089,2.217,2.264,3.138,3.481c0.493,0.656,0.952,1.358,1.244,2.128c0.219,0.571,0.325,1.181,0.372,1.789l0.085,1.36
			c0.036,0.508,0.115,1.031,0.216,1.53l0.433,2.044c0.154,0.784,0.276,1.592,0.301,2.391c0.041,1.203-0.082,2.422-0.275,3.609
			c-0.128,0.741-0.262,1.523-0.485,2.24c-0.191,0.618-0.463,1.217-0.767,1.788c-1.986,3.557-5.879,8.665-8.024,12.139
			c-1.452,2.284-2.697,4.753-3.726,7.256l-1.889,4.743c-1.213,3.036-3.719,7.806-5.204,10.787c-1.08,2.15-2.498,5.474-3.588,7.626
			c-0.474,0.897-0.987,1.812-1.756,2.491c-1.209,1.067-2.904,1.22-4.447,1.327c-2.108,0.105-4.287,0.009-6.388-0.184
			c-1.496-0.161-3.031-0.403-4.379-1.106c-1.675-0.873-2.872-2.406-4.012-3.868c-1.1-1.44-2.292-3.156-3.309-4.658
			c-0.27-0.41-0.558-0.855-0.792-1.287c-0.207-0.384-0.396-0.788-0.501-1.213c-0.221-0.834,0.004-1.676,0.312-2.458
			c0.609-1.527,1.434-3.038,2.224-4.479c1.484-2.611,3.789-6.53,5.015-9.234c0.731-1.585,2.69-5.942,3.421-7.423
			c0.371-0.814,0.771-1.696,1.07-2.535c0.7-1.888,1.264-4.553,1.795-6.511c0.242-0.892,0.521-1.81,0.867-2.667
			c0.31-0.783,0.789-1.714,1.076-2.506c0.174-0.493,0.3-1.041,0.145-1.556c-0.084-0.286-0.251-0.541-0.448-0.761
			c-0.3-0.334-0.666-0.609-1.038-0.858c-0.52-0.344-1.091-0.652-1.646-0.933c-1.436-0.722-5.957-2.737-7.383-3.449
			c-3.46-1.666-6.834-3.66-9.949-5.905c-1.976-1.405-3.94-2.991-5.679-4.683c-0.411-0.371-0.831-0.776-1.349-0.991
			c-0.193-0.076-0.413-0.109-0.613-0.04c-0.203,0.068-0.365,0.221-0.492,0.388c-0.413,0.57-0.608,1.296-0.793,1.967
			c-0.409,1.68-0.866,3.537-1.574,5.109c-1.573,3.558-4.028,6.856-6.422,9.91c-0.484,0.653-0.964,1.331-1.299,2.074
			c-0.274,0.599-0.449,1.243-0.536,1.894c-0.179,1.417-0.075,2.896,0.02,4.318c0.113,1.437,0.282,2.954,0.506,4.377
			c0.16,1.068,0.67,3.574,0.885,4.667c0.203,1.119,0.408,2.284,0.409,3.423c-0.003,0.664-0.096,1.342-0.38,1.948
			c-0.372,0.808-1.056,1.424-1.781,1.916c-1.256,0.843-2.692,1.396-4.148,1.783c-0.837,0.226-2.31,0.553-3.098,0.868
			c-0.401,0.155-0.789,0.361-1.117,0.642c-0.604,0.496-0.957,1.242-1.304,1.925c-0.188,0.349-0.398,0.716-0.746,0.928
			c-0.266,0.163-0.595,0.184-0.896,0.124c-0.743-0.159-1.426-0.59-2.054-1.003c-1.803-1.235-3.4-2.804-4.925-4.362
			c-0.72-0.752-1.523-1.611-2.19-2.408c-0.419-0.505-0.828-1.038-1.144-1.614c-0.431-0.777-0.679-1.647-0.82-2.521
			c-0.402-2.412-0.162-6.336-0.192-8.804c-0.021-3.559-0.212-7.256-1.708-10.542c-0.374-0.846-1.127-2.385-1.412-3.239
			c-0.27-0.763-0.478-1.558-0.614-2.357c-0.231-1.347-0.254-2.731-0.101-4.087c0.135-1.199,0.402-2.395,0.867-3.51
			c0.333-0.815,0.825-1.789,0.951-2.66c0.127-0.815,0.019-1.651-0.172-2.447c-0.534-2.145-1.672-4.094-2.862-5.936
			c-0.682-1.044-1.42-2.114-2.219-3.072c-0.979-1.21-2.893-3.093-3.978-4.237c-1.154-1.214-2.25-2.516-3.073-3.981
			c-0.529-0.906-1.179-2.284-1.643-3.244c-1.395-2.941-3.099-6.547-4.262-9.557c-0.814-2.044-2.048-5.577-3.052-7.494
			c-0.515-1.033-1.298-2.082-1.767-3.139c-0.354-0.808-0.375-1.713-0.36-2.582c0.017-0.633,0.076-2.421,0.07-3.026"/>
	</g>
	<g id="POLYLINE_00000129182667989182734230000010053355786698188955_">
		
			<path fill="none" stroke="#1B7FFF" stroke-width="2.5" stroke-linecap="round" stroke-linejoin="round" stroke-miterlimit="10" d="
			M665.575,145.482c-0.495-1.683-0.917-3.438-1.049-5.191c-0.041-0.339-0.104-0.733-0.405-0.943
			c-0.096-0.068-0.206-0.116-0.317-0.156c-0.592-0.214-1.285-0.323-1.789-0.722c-0.428-0.346-0.64-0.877-0.823-1.38
			c-0.195-0.559-0.276-1.155-0.315-1.744c-0.055-0.896-0.039-1.811,0.023-2.706c0.053-0.677,0.116-1.373,0.363-2.011
			c0.202-0.531,0.533-1.007,0.927-1.414"/>
	</g>
	<g id="POLYLINE_00000134934807420153207910000005202088739974753422_">
		
			<path fill="none" stroke="#1B7FFF" stroke-width="2.5" stroke-linecap="round" stroke-linejoin="round" stroke-miterlimit="10" d="
			M663.48,132.968l-0.003,0.001l-0.003,0.001l-0.003,0.001l-0.003,0.001l-0.003,0.001l-0.003,0.001l-0.003,0.001l-0.003,0.001
			l-0.003,0.001l-0.003,0.001l-0.003,0l-0.003,0l-0.003,0l-0.003,0l-0.003,0l-0.003,0l-0.003,0l-0.003,0l-0.003,0l-0.003,0l-0.003,0
			l-0.003,0l-0.003,0l-0.003-0.001l-0.003-0.001l-0.003-0.001l-0.003-0.001l-0.003-0.001l-0.003-0.001l-0.003-0.001l-0.003-0.001
			l-0.003-0.001l-0.003-0.001l-0.003-0.001l-0.003-0.001l-0.003-0.001l-0.003-0.001l-0.003-0.002
			c-0.054-0.029-0.094-0.077-0.13-0.125c-0.106-0.149-0.179-0.324-0.247-0.494c-0.275-0.726-0.458-1.507-0.62-2.265
			c-0.188-0.934-0.412-2.103-0.548-3.044c-0.116-0.822-0.232-1.748-0.483-2.537c-0.444-1.42-1.262-2.784-1.78-4.176
			c-0.143-0.378-0.252-0.775-0.295-1.178c-0.06-0.541-0.022-1.091,0.05-1.629c0.305-2.274,1.357-4.706,2.155-6.852
			c0.133-0.338,0.277-0.714,0.452-1.034c0.149-0.281,0.337-0.546,0.529-0.8c0.461-0.576,0.977-1.241,1.37-1.854
			c0.485-0.746,0.949-1.578,1.587-2.201c0.348-0.343,0.758-0.624,1.183-0.864c0.8-0.452,1.845-0.884,2.689-1.266
			c1.845-0.795,3.755-1.566,5.751-1.872c1.194-0.19,2.42-0.177,3.613,0.014c1.108,0.157,2.408,0.538,3.512,0.727
			c0.397,0.069,0.844,0.07,1.243,0.111c0.6,0.061,1.179,0.259,1.726,0.506c0.691,0.313,1.374,0.684,2.004,1.107
			c0.239,0.162,0.474,0.344,0.691,0.536c0.172,0.156,0.434,0.405,0.617,0.547c0.282,0.221,0.662,0.319,0.994,0.437
			c0.492,0.165,0.908,0.418,1.277,0.782c0.377,0.369,0.702,0.801,0.918,1.284c0.289,0.623,0.311,1.373,0.354,2.048
			c0.077,1.151,0.581,2.224,1.05,3.261l0.736,1.514c0.614,1.288,0.967,2.699,1.047,4.123c0.08,1.727-0.069,3.478-0.404,5.173
			c-0.233,0.974-0.627,2.974-0.909,3.903c-0.316,1.056-0.693,2.129-1.155,3.13c-0.117,0.243-0.242,0.489-0.398,0.709
			c-0.072,0.1-0.151,0.198-0.251,0.271c-0.057,0.041-0.125,0.074-0.197,0.072c-0.121-0.004-0.207-0.105-0.268-0.2
			c-0.062-0.098-0.109-0.208-0.151-0.316c-0.192-0.494-0.459-1.642-0.604-2.166c-0.108-0.391-0.218-0.801-0.416-1.157
			c-0.562-0.914-1.262-1.866-1.807-2.791c-0.553-0.923-1.095-1.883-1.413-2.916c-0.13-0.428-0.199-0.877-0.234-1.322l-0.053-0.781
			c-0.022-0.275-0.066-0.553-0.175-0.808c-0.108-0.259-0.278-0.487-0.463-0.696c-0.226-0.256-0.475-0.501-0.764-0.686
			c-0.284-0.184-0.604-0.31-0.935-0.382c-0.546-0.118-1.117-0.129-1.674-0.117c-2.907,0.099-6.123,0.881-9.031,0.958
			c-0.858,0.021-1.954-0.051-2.782,0.164c-0.616,0.15-1.206,0.407-1.741,0.746c-0.554,0.343-1.096,0.877-1.594,1.297
			c-0.765,0.659-1.951,1.432-2.716,2.095c-0.131,0.12-0.259,0.249-0.36,0.395c-0.101,0.143-0.166,0.309-0.193,0.482
			c-0.02,0.117-0.026,0.239-0.029,0.358c-0.018,0.431,0.061,1.586,0.068,2.029l0.18,3.101c0.055,0.821-0.03,1.652-0.19,2.457
			c-0.102,0.52-0.211,1.128-0.367,1.632c-0.046,0.143-0.095,0.288-0.169,0.419c-0.028,0.048-0.061,0.096-0.105,0.131l-0.003,0.002
			l-0.003,0.002l-0.003,0.002l-0.003,0.002l-0.003,0.002l-0.003,0.002l-0.003,0.002l-0.003,0.002l-0.003,0.002l-0.003,0.001
			L663.48,132.968z"/>
	</g>
	<g id="POLYLINE_00000011745371117650921020000013178835226366997645_">
		
			<path fill="none" stroke="#1B7FFF" stroke-width="2.5" stroke-linecap="round" stroke-linejoin="round" stroke-miterlimit="10" d="
			M662.867,356.987c-0.939,1.566-1.56,3.312-2.022,5.073c-0.537,1.981-0.999,5.149-1.465,7.159
			c-0.124,0.514-0.277,1.042-0.464,1.536c-0.213,0.609-1.607,3.715-1.881,4.359c-1.223,2.927-2.555,6.237-3.58,9.229
			c-0.754,2.211-1.406,4.498-1.694,6.821c-0.081,0.645-0.152,1.309-0.127,1.959c0.018,0.518,0.099,1.039,0.227,1.541
			c0.381,1.44,1.017,2.817,1.714,4.129c1.094,2.047,2.569,3.976,4.578,5.193c0.701,0.414,1.497,0.732,2.323,0.71
			c0.93-0.019,1.783-0.494,2.472-1.091c0.94-0.82,1.69-1.845,2.343-2.902c0.978-1.604,1.728-3.351,2.317-5.133
			c0.74-2.131,3.446-13.078,4.089-15.448c1.093-4.232,1.857-8.604,2.07-12.973"/>
	</g>
	<g id="POLYLINE_00000057865316920283081780000016958742926321697176_">
		
			<path fill="none" stroke="#1B7FFF" stroke-width="2.5" stroke-linecap="round" stroke-linejoin="round" stroke-miterlimit="10" d="
			M710.645,379.625c-1.66,4.813-3.442,10.363-5.48,15.003c-0.4,0.875-0.84,1.761-1.389,2.553c-0.799,1.143-1.749,2.193-2.828,3.077
			c-1.256,1.035-2.706,1.845-4.154,2.579c-1.232,0.679-3.643,1.604-4.684,2.533c-0.589,0.501-0.979,1.192-1.144,1.945
			c-0.2,0.884-0.139,1.811,0.063,2.689c0.377,1.594,1.193,3.05,2.092,4.405c1.848,2.722,4.196,5.23,6.449,7.624
			c1.043,1.096,4.007,4.073,4.938,5.212c0.612,0.73,1.169,1.522,1.595,2.375c0.689,1.337,1.415,3.871,1.915,5.296
			c1.067,3.064,2.347,6.112,4.207,8.787c0.958,1.371,2.524,3.751,3.538,5.035c0.371,0.469,0.768,0.945,1.202,1.357
			c0.394,0.371,0.831,0.711,1.331,0.926c0.278,0.118,0.581,0.197,0.885,0.174c0.205-0.015,0.41-0.08,0.574-0.207
			c0.16-0.123,0.274-0.298,0.344-0.486c0.113-0.306,0.131-0.64,0.116-0.964c-0.043-0.748-0.262-1.49-0.467-2.207l-1.781-5.727
			c-1.969-6.505-3.277-13.293-3.683-20.081c-0.168-3.032-0.291-6.194-0.019-9.22c0.102-0.99,0.35-1.971,0.678-2.909
			c0.466-1.352,1.165-2.915,1.742-4.233c1.06-2.371,2.327-5.084,3.511-7.39c1.716-3.299,3.543-6.655,5.876-9.563"/>
	</g>
	<g id="POLYLINE_00000124140866238993813050000004528191905439494052_">
		
			<path fill="none" stroke="#1B7FFF" stroke-width="2.5" stroke-linecap="round" stroke-linejoin="round" stroke-miterlimit="10" d="
			M788.773,415.741c2.351,3.478,4.098,7.39,4.951,11.508c0.709,3.422,0.849,6.971,0.844,10.457
			c-0.071,2.401-0.201,6.659-0.437,9.036c-0.118,1.065-0.326,2.134-0.694,3.143c-0.284,0.794-0.661,1.571-1.067,2.31
			c-0.437,0.797-1.241,2.118-1.567,2.954c-0.18,0.458-0.331,0.959-0.236,1.453c0.09,0.494,0.441,0.894,0.873,1.132
			c0.673,0.378,1.484,0.435,2.231,0.285c0.81-0.159,1.569-0.524,2.274-0.944c1.055-0.635,2.026-1.418,2.928-2.253
			c1.697-1.581,3.192-3.396,4.369-5.396c1.019-1.705,1.759-3.582,2.366-5.47c0.637-1.991,1.646-5.476,2.446-7.362
			c0.893-2.219,2.483-5.099,3.602-7.24c1.112-2.198,2.137-4.535,2.322-7.019c0.139-1.901-0.248-3.891-1.345-5.475
			c-0.686-1-1.635-1.795-2.655-2.438c-1.524-0.972-3.458-1.8-4.954-2.814c-0.574-0.393-1.11-0.858-1.598-1.354
			c-1.899-2-3.62-4.345-5.006-6.727c-1.929-3.342-3.365-6.985-4.528-10.658"/>
	</g>
	<g id="POLYLINE_00000183240688596265038900000000459345120605690755_">
		
			<path fill="none" stroke="#1B7FFF" stroke-width="2.5" stroke-linecap="round" stroke-linejoin="round" stroke-miterlimit="10" d="
			M704.867,201.21c0.597,5.399,1.719,10.805,3.61,15.904c2.929,7.886,8.723,17.57,12.694,25.062"/>
	</g>
	<g id="POLYLINE_00000132786578788315028220000006520910595325983915_">
		
			<path fill="none" stroke="#1B7FFF" stroke-width="2.5" stroke-linecap="round" stroke-linejoin="round" stroke-miterlimit="10" d="
			M726.513,253.689c4.115,14.653,12.28,40.179,15.192,54.803"/>
	</g>
	<g id="POLYLINE_00000005239706878675251600000017016761835494023357_">
		
			<path fill="none" stroke="#1B7FFF" stroke-width="2.5" stroke-linecap="round" stroke-linejoin="round" stroke-miterlimit="10" d="
			M744.869,285.954c0.379-3.594,0.893-7.308,1.644-10.841c0.47-2.31,1.555-6.162,2.069-8.478c0.901-4.063,1.141-8.299,1.082-12.453
			c-0.028-1.097-0.122-2.215-0.387-3.282c-0.279-1.15-0.75-2.255-1.304-3.298"/>
	</g>
	<g id="POLYLINE_00000062894788142698331390000012837762201215823494_">
		
			<path fill="none" stroke="#1B7FFF" stroke-width="2.5" stroke-linecap="round" stroke-linejoin="round" stroke-miterlimit="10" d="
			M746.2,357.967c2.178,4.244,4.906,8.29,7.752,12.113c6.079,8.066,14.533,17.669,21.017,25.511"/>
	</g>
	<g id="POLYLINE_00000129180344405264045730000004636457287437720726_">
		
			<path fill="none" stroke="#1B7FFF" stroke-width="2.5" stroke-linecap="round" stroke-linejoin="round" stroke-miterlimit="10" d="
			M708.222,192.188c0.01-0.874,0.116-1.787,0.563-2.555c0.279-0.494,0.736-0.894,1.114-1.31c0.815-0.904,1.414-2.005,1.725-3.182
			c0.139-0.545,0.213-1.118,0.134-1.678c-0.062-0.443-0.226-0.868-0.449-1.254c-0.976-1.639-2.562-2.799-4.184-3.746
			c-1.926-1.121-5.257-2.722-7.151-3.878c-0.926-0.559-1.835-1.186-2.613-1.941c-0.668-0.641-1.228-1.394-1.699-2.19
			c-0.75-1.23-3.024-5.769-3.728-7.098c-0.258-0.513-0.526-1.074-0.738-1.608c-0.284-0.702-0.513-1.44-0.683-2.178
			c-0.407-1.712-0.625-3.876-0.842-5.627c-0.385-2.941-0.569-6.102-0.627-9.068"/>
	</g>
	<g id="POLYLINE_00000067914684487012883880000016847209918595122054_">
		
			<path fill="none" stroke="#1B7FFF" stroke-width="2.5" stroke-linecap="round" stroke-linejoin="round" stroke-miterlimit="10" d="
			M718.278,179.383c1.925,0.834,3.916,1.679,5.96,2.17c0.937,0.208,1.937,0.374,2.881,0.118c0.358-0.1,0.695-0.278,0.98-0.518
			c0.511-0.43,0.861-1.021,1.202-1.587c1.715-2.912,2.83-6.185,3.28-9.534"/>
	</g>
</g>
<g id="_x32_D_x24_AG-FURNITURE">
	<g id="POLYLINE_00000137109916624217083390000011969126646540071328_">
		
			<path fill="none" stroke="#1B7FFF" stroke-width="2.5" stroke-linecap="round" stroke-linejoin="round" stroke-miterlimit="10" d="
			M563.249,77.038c-0.001-1.765,0.45-3.534,1.299-5.082c0.759-1.388,1.837-2.607,3.125-3.527c1.237-0.885,2.671-1.503,4.166-1.789
			c0.655-0.122,1.332-0.193,1.998-0.19c0.317-0.067,296.525,0.04,296.825,0.006c0.413,0.023,0.865,0.051,1.274,0.121
			c3.143,0.481,6,2.444,7.561,5.219c0.662,1.163,1.104,2.458,1.287,3.784c0.053,0.35,0.079,0.738,0.094,1.092
			c0.199,0.286-0.13,402.375,0.007,402.706c-0.001,1.275-0.235,2.561-0.688,3.754c-0.775,2.051-2.207,3.851-4.037,5.062
			c-1.013,0.672-2.148,1.174-3.329,1.464c-0.53,0.125-1.079,0.225-1.621,0.268c-0.234,0.012-0.496,0.039-0.73,0.038
			c-0.779-0.086-296.454,0.083-297.191-0.013c-3.111-0.148-6.11-1.75-7.954-4.262c-0.761-1.026-1.339-2.195-1.686-3.425
			c-0.196-0.702-0.327-1.43-0.376-2.157C562.742,479.927,563.606,77.415,563.249,77.038z"/>
	</g>
	<g id="POLYLINE_00000018238294956773037540000003092781093468352915_">
		
			<line fill="none" stroke="#1B7FFF" stroke-width="2.5" stroke-linecap="round" stroke-linejoin="round" stroke-miterlimit="10" x1="563.249" y1="180.269" x2="616.482" y2="180.269"/>
	</g>
	<g id="POLYLINE_00000092458006671568757520000017569970500200410787_">
		
			<line fill="none" stroke="#1B7FFF" stroke-width="2.5" stroke-linecap="round" stroke-linejoin="round" stroke-miterlimit="10" x1="783.067" y1="180.269" x2="880.886" y2="180.269"/>
	</g>
	<g id="POLYLINE_00000103955652178900628510000013809346405477335714_">
		
			<path fill="none" stroke="#1B7FFF" stroke-width="2.5" stroke-linecap="round" stroke-linejoin="round" stroke-miterlimit="10" d="
			M712.803,132.715c0,0,0-46.413,0-46.413c-0.006-0.093,0.001-0.202-0.008-0.296c-0.02-0.349-0.074-0.699-0.162-1.038
			c-0.138-0.531-0.361-1.043-0.656-1.507c-0.487-0.767-1.175-1.405-1.977-1.831c-0.763-0.407-1.626-0.623-2.491-0.623
			c-0.016-0.015-121.797,0.01-121.819,0c-0.114,0.003-0.243,0.006-0.357,0.016c-0.244,0.02-0.493,0.056-0.733,0.11
			c-0.576,0.128-1.133,0.354-1.635,0.664c-0.944,0.581-1.696,1.467-2.115,2.494c-0.223,0.544-0.356,1.127-0.388,1.714
			c-0.206,0.167,0.131,74.189-0.009,74.411c0.003,0.091,0.001,0.203,0.009,0.296c0.033,0.587,0.165,1.17,0.388,1.714
			c0.494,1.214,1.457,2.228,2.646,2.781c0.39,0.183,0.805,0.32,1.227,0.403c0.259,0.05,0.525,0.084,0.789,0.095
			c0.072,0.007,0.163,0.003,0.236,0.005c0,0,45.836,0,45.836,0"/>
	</g>
	<g id="POLYLINE_00000034080541408964716320000002930700234380307588_">
		
			<path fill="none" stroke="#1B7FFF" stroke-width="2.5" stroke-linecap="round" stroke-linejoin="round" stroke-miterlimit="10" d="
			M731.332,131.004c0.02-0.181-0.018-44.713,0.003-44.878c0.009-0.263,0.037-0.529,0.085-0.787c0.078-0.422,0.209-0.838,0.387-1.228
			c0.513-1.134,1.439-2.073,2.567-2.599c0.539-0.253,1.123-0.416,1.716-0.476c0.14-0.013,0.279-0.024,0.419-0.026
			c0.006-0.061,121.834,0.041,121.878-0.001c0.577,0,1.157,0.096,1.703,0.282c1.025,0.346,1.937,1.017,2.573,1.892
			c0.634,0.866,0.994,1.93,1.016,3.003c0.125,0.062-0.087,74.149,0.002,74.233c-0.002,0.113-0.003,0.242-0.012,0.355
			c-0.016,0.222-0.045,0.451-0.088,0.669c-0.101,0.51-0.278,1.007-0.522,1.466c-0.395,0.742-0.97,1.388-1.662,1.864
			c-0.543,0.375-1.158,0.648-1.8,0.799c-0.241,0.055-0.488,0.097-0.734,0.119c-0.138,0.01-0.279,0.021-0.417,0.021
			c-0.024,0.033-82.5-0.023-82.537,0"/>
	</g>
	<g id="POLYLINE_00000044176836649261816040000008007917076785421708_">
		
			<path fill="none" stroke="#1B7FFF" stroke-width="2.5" stroke-linecap="round" stroke-linejoin="round" stroke-miterlimit="10" d="
			M119.114,77.038c-0.001-1.765,0.45-3.534,1.299-5.082c0.759-1.388,1.837-2.607,3.125-3.527c1.237-0.885,2.671-1.503,4.166-1.789
			c0.655-0.122,1.332-0.193,1.998-0.19c0.317-0.067,296.525,0.04,296.825,0.006c0.413,0.023,0.865,0.051,1.274,0.121
			c3.143,0.481,6,2.444,7.561,5.219c0.662,1.163,1.104,2.458,1.287,3.784c0.053,0.35,0.079,0.738,0.094,1.092
			c0.199,0.286-0.13,402.375,0.007,402.706c-0.001,1.275-0.235,2.561-0.688,3.754c-0.775,2.051-2.207,3.851-4.037,5.062
			c-1.013,0.672-2.148,1.174-3.329,1.464c-0.53,0.125-1.079,0.225-1.621,0.268c-0.234,0.012-0.496,0.039-0.73,0.038
			c-0.779-0.086-296.454,0.083-297.191-0.013c-3.111-0.148-6.11-1.75-7.954-4.262c-0.761-1.026-1.339-2.195-1.686-3.425
			c-0.196-0.702-0.327-1.43-0.376-2.157C118.606,479.927,119.47,77.415,119.114,77.038z"/>
	</g>
	<g id="POLYLINE_00000029033744196692358710000010757272195762187950_">
		
			<line fill="none" stroke="#1B7FFF" stroke-width="2.5" stroke-linecap="round" stroke-linejoin="round" stroke-miterlimit="10" x1="119.114" y1="180.269" x2="436.751" y2="180.269"/>
	</g>
	<g id="POLYLINE_00000172405151814436682040000002766281771224722089_">
		
			<path fill="none" stroke="#1B7FFF" stroke-width="2.5" stroke-linecap="round" stroke-linejoin="round" stroke-miterlimit="10" d="
			M414.251,81.008c1.045-0.002,2.088,0.316,2.953,0.9c0.828,0.555,1.493,1.35,1.893,2.262c0.18,0.411,0.31,0.847,0.381,1.291
			c0.027,0.179,0.05,0.364,0.059,0.545c0.185,0.176-0.116,74.183,0.009,74.411c0.007,1.549-0.709,3.08-1.905,4.066
			c-0.613,0.511-1.343,0.882-2.118,1.072c-0.319,0.078-0.648,0.129-0.976,0.147c-0.639,0.054-121.698-0.011-122.352,0
			c-0.37-0.021-0.742-0.081-1.1-0.179c-1.082-0.293-2.064-0.942-2.758-1.823c-0.698-0.879-1.103-1.985-1.138-3.107
			c-0.14-0.098,0.095-74.161-0.003-74.292c0.003-0.114,0.002-0.241,0.012-0.355c0.017-0.244,0.05-0.492,0.101-0.731
			c0.116-0.554,0.323-1.092,0.608-1.581c0.434-0.746,1.056-1.384,1.791-1.837c0.502-0.31,1.058-0.537,1.635-0.664
			c0.241-0.053,0.487-0.091,0.733-0.11C292.233,80.814,413.996,81.141,414.251,81.008z"/>
	</g>
	<g id="POLYLINE_00000158731236623187142850000008723354336832688523_">
		
			<path fill="none" stroke="#1B7FFF" stroke-width="2.5" stroke-linecap="round" stroke-linejoin="round" stroke-miterlimit="10" d="
			M141.613,81.008c-1.044-0.002-2.088,0.316-2.953,0.9c-0.828,0.555-1.493,1.35-1.893,2.262c-0.18,0.411-0.31,0.847-0.381,1.291
			c-0.027,0.179-0.05,0.364-0.059,0.545c-0.185,0.176,0.116,74.183-0.009,74.411c-0.007,1.549,0.709,3.08,1.905,4.066
			c0.613,0.511,1.343,0.882,2.118,1.072c0.319,0.078,0.648,0.129,0.976,0.147c0.639,0.054,121.698-0.011,122.352,0
			c0.37-0.021,0.742-0.081,1.099-0.179c1.082-0.293,2.064-0.942,2.758-1.823c0.698-0.879,1.103-1.985,1.138-3.107
			c0.14-0.098-0.095-74.161,0.003-74.292c-0.003-0.114-0.002-0.241-0.012-0.355c-0.017-0.244-0.05-0.492-0.101-0.731
			c-0.116-0.554-0.323-1.092-0.608-1.581c-0.434-0.746-1.056-1.384-1.79-1.837c-0.502-0.31-1.058-0.537-1.635-0.664
			c-0.241-0.053-0.487-0.091-0.733-0.11C263.632,80.814,141.868,81.141,141.613,81.008z"/>
	</g>
</g>
<g id="_x32_D_x24_AG-OUTLINE">
	<g id="POLYLINE_00000023245739857290459200000013861098598708660641_">
		
			<path fill="none" stroke="#1B7FFF" stroke-width="3.25" stroke-linecap="round" stroke-linejoin="round" stroke-miterlimit="10" d="
			M741.705,308.492c-4.644-5.43-10.254-12.434-15.175-17.567c-1.32-1.388-2.913-3.021-4.311-4.321
			c-1.057-1.003-3.797-3.358-4.921-4.345c-3.592-3.182-6.617-7.05-9.481-10.884c-1.441-1.985-4.57-6.45-6.065-8.292
			c-1.177-1.476-2.48-2.964-3.805-4.306c-0.209-1.621-0.179-3.418-0.162-5.057c0.154-5.46,0.062-18.213,0.692-23.464
			c0.222-2.098,0.553-4.279,0.958-6.35c0.608-3.281,2.214-9.118,3.045-12.407c0.637-2.445,1.634-6.986,2.191-9.482l0.196-0.807
			c0.597,5.399,1.719,10.805,3.61,15.904c2.929,7.886,8.723,17.57,12.694,25.062c-1.384,0.233-2.852,0.462-4.199,0.857
			c-0.497,0.152-0.997,0.331-1.438,0.61c-0.274,0.174-0.522,0.397-0.703,0.668c-0.21,0.312-0.332,0.678-0.378,1.05
			c-0.19,1.677,0.813,3.167,1.864,4.374c0.801,0.917,1.688,1.832,2.581,2.661c0.546,0.499,1.121,1.005,1.733,1.422
			c0.533,0.366,1.152,0.619,1.801,0.668c0.583,0.05,1.172-0.025,1.743-0.14c0.782-0.159,1.58-0.404,2.337-0.656
			C730.628,268.343,738.793,293.869,741.705,308.492z"/>
	</g>
	<g id="POLYLINE_00000083807084528775108950000001499568218412486584_">
		
			<path fill="none" stroke="#1B7FFF" stroke-width="3.25" stroke-linecap="round" stroke-linejoin="round" stroke-miterlimit="10" d="
			M639.401,264.117c0.075-1.789-0.039-3.692-0.785-5.343c-0.325-0.712-0.778-1.368-1.257-1.985c-0.971-1.237-2.26-2.636-3.318-3.808
			c-1.135-1.22-5.504-5.801-6.482-6.967c-0.707-0.826-1.39-1.713-1.994-2.616c-1.535-2.268-2.94-5.277-4.168-7.745
			c-0.844-1.751-1.904-3.886-2.564-5.698c-0.893-2.327-1.391-5.24-1.867-7.694c-0.395-2.033-0.861-4.203-1.502-6.17
			c-0.904-2.806-2.387-6.151-3.54-8.883c2.069-0.822,4.001-2.063,5.875-3.253c2.992-1.992,6.562-4.387,9.382-6.589
			c0.769-0.618,1.547-1.318,2.253-2.008c2.122-2.125,5.089-5.044,7.307-7.034c0.246,2.223,0.488,4.987,0.635,7.219l0.3,6.465
			c0.159,3.589,1.362,7.996,2.134,11.523c0.788,3.633,1.372,7.535,1.843,11.223c0.451,3.662,0.974,7.917,1.093,11.59
			c0.315,8.675-0.331,18.051-0.933,26.729L639.401,264.117z"/>
	</g>
	<g id="POLYLINE_00000155847028696548708110000005704303235211371943_">
		
			<path fill="none" stroke="#1B7FFF" stroke-width="3.25" stroke-linecap="round" stroke-linejoin="round" stroke-miterlimit="10" d="
			M744.869,285.954c-0.353-1.523-0.657-3.123-0.854-4.674c-0.231-1.579-0.655-7.398-0.802-9.08
			c-0.753-7.777-2.143-15.77-3.641-23.437c2.677-0.485,5.693-0.903,8.401-1.163c0.554,1.043,1.024,2.149,1.304,3.298
			c0.265,1.067,0.359,2.185,0.387,3.282c0.059,4.154-0.181,8.389-1.082,12.453c-0.613,2.719-1.741,6.659-2.256,9.385
			C745.68,279.251,745.215,282.675,744.869,285.954z"/>
	</g>
	<g id="POLYLINE_00000005232052249388204130000008743685751317623742_">
		
			<path fill="none" stroke="#1B7FFF" stroke-width="3.25" stroke-linecap="round" stroke-linejoin="round" stroke-miterlimit="10" d="
			M736.025,239.754l-1.513-5.535c1.085,0.36,2.356,0.55,3.47,0.807c0.325,0.081,0.652,0.18,0.953,0.328
			c0.263,0.128,0.508,0.3,0.709,0.513c0.244,0.257,0.427,0.57,0.598,0.879c0.327,0.613,0.695,1.33,1.068,1.912L736.025,239.754z"/>
	</g>
	<g id="POLYLINE_00000052082146815746347590000001681392285942995892_">
		
			<path fill="none" stroke="#1B7FFF" stroke-width="3.25" stroke-linecap="round" stroke-linejoin="round" stroke-miterlimit="10" d="
			M805.529,300.148c2.295,0.334,4.674,0.455,6.991,0.358c0.619-4.411,1.242-9.254,1.51-13.688c0.164-2.798,0.227-5.679-0.054-8.469
			c-0.182-1.948-0.627-3.963-1.119-5.859c-0.853-3.359-1.855-6.942-2.955-10.224c-1.971-5.888-4.369-11.765-6.996-17.391
			c-2.702-5.719-5.765-11.418-9.428-16.583c0.594-0.074,1.173-0.293,1.649-0.659c0.627-0.477,1.065-1.157,1.399-1.861
			c0.373-0.792,0.637-1.645,0.86-2.49c0.42-1.613,0.714-3.378,0.968-5.027c0.602-4.171,1.203-8.49,0.709-12.699
			c-0.362-3.126-1.267-6.206-2.748-8.988c-1.042-1.978-2.423-3.773-3.901-5.443c-1.1-1.223-4.144-4.556-5.138-5.767
			c-1.653-1.984-4.764-5.85-6.495-7.687l3.046,0.765c-0.714-1.331-1.327-2.743-1.818-4.171c-0.433-1.225-0.812-2.734-1.335-3.922
			c-0.433-0.997-1.023-1.934-1.767-2.728c-0.456-0.493-0.969-0.944-1.547-1.288c-0.686-0.418-1.467-0.653-2.252-0.803
			c-0.89-0.187-2.027-0.304-2.833-0.737c-0.394-0.214-0.72-0.534-1.014-0.869l-0.867-1.012c-0.707-0.804-1.533-1.535-2.361-2.214
			c-1.05-0.853-2.179-1.676-3.328-2.39c-0.928-0.586-2.245-1.23-3.22-1.751c-0.5-0.272-1.004-0.571-1.449-0.926
			c-1.312-1.048-2.18-2.566-2.681-4.151l-0.453-1.452c-0.612-1.914-1.687-3.652-2.878-5.257c-0.955-1.265-2.014-2.463-3.426-3.226
			c-0.925-0.515-2.288-1.131-3.233-1.618c-2.683-1.375-5.654-3.057-8.244-4.603c-1.927-1.122-4.343-2.859-6.373-3.774
			c-1.262-0.575-2.627-0.916-3.995-1.128c-1.975-0.305-4.015-0.399-6.012-0.384c-1.69,0.025-3.42,0.104-5.057,0.555
			c-1.127,0.292-2.341,0.969-3.38,1.485c-0.975,0.482-2.009,0.861-3.067,1.111c-0.769,0.18-1.565,0.306-2.356,0.291
			c-0.925-0.007-1.788-0.319-2.604-0.732c-1.111-0.555-2.34-1.279-3.567-1.511c-1.054-0.22-2.148-0.218-3.216-0.122
			c-1.477,0.135-2.967,0.459-4.4,0.835c-0.067-0.708-0.193-1.42-0.414-2.097c-0.137-0.411-0.309-0.819-0.572-1.167
			c-0.24-0.322-0.596-0.584-1.013-0.574c0.513-1.349,0.933-3.448,1.253-4.872c0.168-0.738,0.284-1.505,0.362-2.257
			c0.132-1.334,0.2-2.698,0.029-4.032c-0.145-1.142-0.477-2.263-0.97-3.303l-0.736-1.514c-0.469-1.037-0.973-2.11-1.05-3.261
			c-0.043-0.676-0.066-1.425-0.354-2.048c-0.216-0.483-0.541-0.915-0.918-1.284c-0.369-0.365-0.785-0.617-1.277-0.782
			c-0.333-0.119-0.716-0.216-0.994-0.437c-0.187-0.138-0.439-0.395-0.618-0.547c-0.217-0.192-0.451-0.373-0.691-0.536
			c-0.63-0.423-1.313-0.795-2.004-1.107c-0.547-0.247-1.126-0.445-1.726-0.506c-0.4-0.041-0.847-0.041-1.243-0.111
			c-1.194-0.207-2.553-0.611-3.755-0.762c-1.161-0.167-2.35-0.153-3.506,0.042c-1.946,0.319-3.812,1.073-5.615,1.85
			c-0.806,0.367-1.828,0.791-2.6,1.216c-0.443,0.244-0.873,0.529-1.238,0.881c-0.655,0.628-1.13,1.476-1.62,2.234
			c-0.393,0.612-0.918,1.282-1.37,1.854c-0.375,0.474-0.657,0.99-0.872,1.554c-0.853,2.294-1.92,4.696-2.264,7.131
			c-0.092,0.682-0.128,1.385,0.02,2.062c0.061,0.287,0.157,0.572,0.262,0.845c0.517,1.353,1.31,2.691,1.742,4.076
			c0.166,0.532,0.273,1.096,0.357,1.647c0.126,0.951,0.319,2.127,0.5,3.071c-0.394,0.407-0.727,0.883-0.929,1.415
			c-0.248,0.638-0.311,1.334-0.363,2.011c-0.062,0.895-0.078,1.81-0.023,2.706c0.038,0.589,0.119,1.185,0.315,1.744
			c0.183,0.503,0.395,1.035,0.823,1.38c0.504,0.4,1.198,0.509,1.789,0.722c0.11,0.04,0.221,0.088,0.317,0.156
			c0.3,0.21,0.364,0.604,0.405,0.943c0.132,1.753,0.554,3.508,1.049,5.191c-0.112,2.565-0.253,5.243-0.724,7.767
			c-0.246,1.269-0.595,2.553-1.307,3.646c-0.285,0.451-0.631,0.873-1.066,1.186c-0.539,0.392-1.176,0.631-1.804,0.84
			c-1.503,0.481-3.2,0.878-4.739,1.235c-2.497,0.564-5.163,1.082-7.696,1.452c-4.018,0.6-9.242,0.984-13.043,2.372
			c-2.683,0.966-5.122,2.545-7.266,4.412c-2.139,1.809-4.718,4.982-6.59,7.099c-1.624,1.807-3.377,3.577-5.26,5.113
			c-2.119,1.724-5.424,3.942-7.541,5.665c-3.436,2.77-6.682,5.964-9.679,9.202c-2.272,2.473-4.396,5.152-5.956,8.137
			c-0.428,0.962-0.635,2.025-0.599,3.077c0.012,0.36,0.054,0.732,0.122,1.086c0.181,0.886,0.429,2.018,0.649,2.896
			c0.386,1.54,0.859,3.086,1.439,4.565c0.699,1.802,1.643,3.666,2.536,5.385c2.037,3.857,4.324,7.81,6.697,11.47
			c1.428,2.247,5.687,8.048,7.273,10.281c1.975,2.942,4.53,6.2,5.867,9.475c0.576,1.436,0.95,2.965,1.237,4.483
			c0.527,2.641,0.668,5.755,2.015,8.14c0.472,0.854,1.074,1.646,1.789,2.312c0.782,0.726,1.695,1.313,2.669,1.747
			c1.041,0.481,2.255,0.693,3.338,1.052c1.606,0.568,3.949,1.282,5.545,1.86c0.232,0.078,0.475,0.148,0.714,0.196
			c0.885,0.168,1.891,0.156,2.678-0.331c0.006,0.595-0.054,2.404-0.07,3.026c-0.015,0.869,0.006,1.773,0.36,2.582
			c0.468,1.056,1.251,2.106,1.766,3.139c0.997,1.9,2.245,5.465,3.052,7.494c1.159,3.001,2.872,6.629,4.262,9.557
			c0.461,0.952,1.111,2.336,1.643,3.244c0.822,1.464,1.919,2.767,3.073,3.981c1.1,1.163,2.994,3.022,3.978,4.237
			c0.799,0.957,1.537,2.027,2.219,3.072c1.19,1.843,2.328,3.791,2.862,5.936c0.191,0.797,0.299,1.632,0.172,2.447
			c-0.124,0.868-0.619,1.851-0.951,2.66c-0.465,1.116-0.732,2.312-0.867,3.51c-0.153,1.357-0.13,2.741,0.101,4.087
			c0.136,0.798,0.344,1.594,0.614,2.357c0.283,0.849,1.043,2.408,1.412,3.239c2.243,4.946,1.603,10.924,1.674,16.215
			c0.037,1.646,0.094,3.351,0.695,4.903c-0.939,1.566-1.56,3.312-2.022,5.073c-0.537,1.981-0.999,5.149-1.465,7.159
			c-0.124,0.514-0.277,1.042-0.464,1.536c-0.213,0.609-1.607,3.715-1.881,4.359c-1.223,2.927-2.555,6.237-3.58,9.229
			c-0.754,2.211-1.406,4.498-1.694,6.821c-0.081,0.645-0.152,1.309-0.127,1.959c0.018,0.518,0.099,1.039,0.227,1.541
			c0.381,1.44,1.017,2.817,1.714,4.129c1.094,2.047,2.569,3.976,4.578,5.193c0.701,0.414,1.497,0.732,2.323,0.71
			c0.93-0.019,1.783-0.494,2.472-1.091c0.94-0.82,1.69-1.845,2.343-2.902c0.978-1.604,1.728-3.351,2.317-5.133
			c0.74-2.131,3.446-13.078,4.089-15.448c1.093-4.232,1.857-8.604,2.07-12.973c0.249,0.015,0.506-0.044,0.713-0.186
			c0.282-0.191,0.469-0.488,0.632-0.781c0.364-0.687,0.693-1.453,1.291-1.974c0.344-0.313,0.76-0.54,1.192-0.707
			c0.786-0.318,2.269-0.642,3.098-0.868c1.456-0.387,2.892-0.94,4.148-1.783c0.74-0.502,1.437-1.134,1.804-1.965
			c0.285-0.636,0.365-1.344,0.357-2.034c-0.018-1.093-0.213-2.214-0.408-3.288c-0.218-1.106-0.723-3.585-0.885-4.667
			c-0.223-1.423-0.393-2.941-0.506-4.377c-0.095-1.422-0.199-2.9-0.02-4.318c0.087-0.652,0.262-1.296,0.536-1.894
			c0.335-0.743,0.815-1.422,1.299-2.074c2.397-3.057,4.848-6.349,6.422-9.91c0.707-1.569,1.167-3.434,1.574-5.109
			c0.132-0.493,0.278-0.998,0.495-1.461c0.112-0.235,0.243-0.467,0.425-0.655c0.126-0.129,0.284-0.234,0.464-0.266
			c0.173-0.032,0.351,0.002,0.514,0.066c0.185,0.072,0.356,0.178,0.518,0.292c0.528,0.37,1.353,1.201,1.842,1.647
			c1.734,1.602,3.707,3.073,5.644,4.423c2.822,1.967,5.875,3.721,8.973,5.218c1.566,0.782,6.04,2.758,7.599,3.559
			c0.51,0.264,1.036,0.555,1.511,0.878c0.353,0.241,0.699,0.508,0.981,0.831c0.186,0.214,0.343,0.459,0.423,0.733
			c0.154,0.515,0.029,1.062-0.145,1.556c-0.285,0.793-0.768,1.722-1.076,2.506c-0.346,0.855-0.623,1.776-0.867,2.666
			c-0.549,1.954-1.079,4.62-1.795,6.511c-0.3,0.837-0.697,1.728-1.07,2.535c-0.72,1.495-2.718,5.861-3.421,7.423
			c-1.716,3.78-4.521,8.102-6.383,11.819c-0.376,0.774-0.771,1.59-1.038,2.407c-0.154,0.478-0.255,0.985-0.207,1.489
			c0.04,0.45,0.193,0.884,0.386,1.29c0.481,0.999,1.237,2.024,1.858,2.944c-1.66,4.813-3.442,10.363-5.48,15.003
			c-0.4,0.875-0.84,1.761-1.389,2.553c-0.799,1.143-1.749,2.193-2.828,3.077c-1.256,1.035-2.706,1.845-4.154,2.579
			c-1.232,0.679-3.643,1.604-4.684,2.533c-0.589,0.501-0.979,1.192-1.144,1.945c-0.2,0.884-0.139,1.811,0.063,2.689
			c0.377,1.594,1.193,3.05,2.092,4.405c1.848,2.722,4.196,5.23,6.449,7.624c1.043,1.096,4.007,4.073,4.938,5.212
			c0.612,0.73,1.169,1.522,1.595,2.375c0.689,1.337,1.415,3.871,1.915,5.296c1.067,3.064,2.347,6.112,4.207,8.787
			c0.958,1.371,2.524,3.751,3.538,5.035c0.371,0.469,0.768,0.945,1.202,1.357c0.394,0.371,0.831,0.711,1.331,0.926
			c0.278,0.118,0.581,0.197,0.885,0.174c0.205-0.015,0.41-0.08,0.574-0.207c0.16-0.123,0.274-0.298,0.344-0.486
			c0.113-0.306,0.131-0.64,0.116-0.964c-0.043-0.748-0.262-1.49-0.467-2.207l-1.781-5.727c-1.969-6.505-3.277-13.293-3.683-20.081
			c-0.168-3.032-0.291-6.194-0.019-9.22c0.102-0.99,0.35-1.971,0.678-2.909c0.466-1.352,1.165-2.915,1.742-4.233
			c1.06-2.371,2.327-5.084,3.511-7.39c1.716-3.299,3.543-6.655,5.876-9.563c1.239-0.003,2.507-0.04,3.728-0.263
			c0.796-0.147,1.592-0.405,2.245-0.896c0.761-0.565,1.289-1.381,1.747-2.197c1.02-1.858,2.376-5.091,3.312-7.006
			c1.677-3.487,4.318-8.347,5.752-11.914l1.998-5.005c0.409-0.973,0.878-2.014,1.347-2.96c2.178,4.244,4.906,8.29,7.752,12.113
			c6.079,8.066,14.533,17.669,21.017,25.511c0.565,4.904,1.476,10.828,1.445,15.714c-0.031,4.091-0.503,8.236-1.125,12.276
			c-0.619,3.826-1.361,7.708-2.624,11.379c-0.792,2.299-1.836,4.526-3.063,6.625c-1.584,2.72-3.48,5.386-5.395,7.885
			c-1.556,2.012-3.262,4.116-5.003,5.968c-0.881,0.953-1.966,1.976-2.887,2.893c-0.301,0.309-0.607,0.642-0.863,0.989
			c-0.282,0.387-0.536,0.822-0.586,1.307c-0.039,0.356,0.066,0.719,0.264,1.015c0.305,0.328,0.735,0.535,1.181,0.568
			c3.318,0.416,6.71,0.53,10.037,0.149c2.044-0.245,4.104-0.654,6.014-1.439c0.798-0.333,1.567-0.751,2.262-1.266
			c0.587-0.433,1.127-0.942,1.621-1.479c1.15-1.231,2.967-3.716,4.027-5.06c2.359-3.076,5.412-5.861,8.3-8.445
			c0.796-0.753,1.612-1.538,2.139-2.511c0.481-0.892,0.66-1.937,0.523-2.94c-0.121-1.089-0.788-2.287-1.228-3.28
			c-1.551-3.544-2.24-7.451-2.274-11.309c-0.028-2.979,0.383-5.985,1.038-8.887c2.351,3.478,4.098,7.39,4.951,11.508
			c0.709,3.422,0.849,6.971,0.844,10.457c-0.071,2.401-0.201,6.659-0.437,9.036c-0.118,1.065-0.326,2.134-0.694,3.143
			c-0.284,0.794-0.661,1.571-1.067,2.31c-0.437,0.797-1.241,2.118-1.567,2.954c-0.18,0.458-0.331,0.959-0.236,1.453
			c0.09,0.494,0.441,0.894,0.873,1.132c0.673,0.378,1.484,0.435,2.231,0.285c0.81-0.159,1.569-0.524,2.274-0.944
			c1.055-0.635,2.026-1.418,2.928-2.253c1.697-1.581,3.192-3.396,4.369-5.396c1.019-1.705,1.759-3.582,2.366-5.47
			c0.637-1.991,1.646-5.476,2.446-7.362c0.893-2.219,2.483-5.099,3.602-7.24c1.112-2.198,2.137-4.535,2.322-7.019
			c0.139-1.901-0.248-3.891-1.345-5.475c-0.686-1-1.635-1.795-2.655-2.438c-1.524-0.972-3.458-1.8-4.954-2.814
			c-0.574-0.393-1.11-0.858-1.598-1.354c-1.899-2-3.62-4.345-5.006-6.727c-1.929-3.342-3.365-6.985-4.528-10.658
			c0.316-2.713,0.521-5.599,0.615-8.328c0.054-1.748,0.1-3.607-0.052-5.348c-0.2-2.449-0.83-4.916-1.479-7.282l-2.965-10.116
			c-0.797-2.819-1.42-5.737-1.665-8.658c-0.142-1.657-0.206-3.353-0.027-5.009c0.205-1.886,0.878-3.705,1.533-5.473
			c1.571-3.999,6.135-15.583,7.528-19.441L805.529,300.148z"/>
	</g>
	<g id="POLYLINE_00000171700887415842192130000005045700592680007349_">
		
			<path fill="none" stroke="#1B7FFF" stroke-width="3.25" stroke-linecap="round" stroke-linejoin="round" stroke-miterlimit="10" d="
			M563.249,77.038c0.025,0.734-0.048,402.396,0.025,403.068c0.052,0.724,0.177,1.462,0.376,2.159c0.349,1.228,0.924,2.4,1.686,3.425
			c1.846,2.508,4.84,4.118,7.953,4.262c0.422,0.527,296.668-0.348,297.191,0.014c0-0.001,0.183-0.006,0.183-0.006
			s0.183-0.008,0.183-0.008s0.182-0.011,0.182-0.011s0.182-0.014,0.182-0.014c0.536-0.052,1.097-0.135,1.621-0.268
			c1.18-0.292,2.318-0.79,3.329-1.464c1.828-1.212,3.263-3.009,4.037-5.062c0.343-0.91,0.566-1.873,0.649-2.842
			c0.628-0.275-0.37-402.746,0.041-403.252c-0.005-0.538-0.042-1.107-0.129-1.639c-0.207-1.321-0.669-2.611-1.352-3.761
			c-1.611-2.741-4.496-4.667-7.65-5.088c-0.349-0.057-0.739-0.076-1.092-0.095c-0.365-0.372-296.591,0.253-297.009-0.006
			c-0.663,0.016-1.346,0.086-1.995,0.226c-1.428,0.301-2.8,0.902-3.987,1.753c-1.386,0.992-2.53,2.327-3.295,3.851
			C563.64,73.748,563.248,75.394,563.249,77.038z"/>
	</g>
	<g id="POLYLINE_00000178908692280014838770000009780446437803954342_">
		
			<path fill="none" stroke="#1B7FFF" stroke-width="3.25" stroke-linecap="round" stroke-linejoin="round" stroke-miterlimit="10" d="
			M119.114,77.038c0.025,0.734-0.048,402.396,0.025,403.068c0.052,0.724,0.177,1.462,0.376,2.159c0.349,1.228,0.924,2.4,1.686,3.425
			c1.846,2.508,4.84,4.118,7.953,4.262c0.422,0.527,296.668-0.348,297.191,0.014c0-0.001,0.183-0.006,0.183-0.006
			s0.183-0.008,0.183-0.008s0.182-0.011,0.182-0.011s0.182-0.014,0.182-0.014c0.536-0.052,1.097-0.135,1.621-0.268
			c1.18-0.292,2.318-0.79,3.329-1.464c1.828-1.212,3.263-3.009,4.037-5.062c0.343-0.91,0.566-1.873,0.649-2.842
			c0.628-0.275-0.37-402.746,0.041-403.252c-0.005-0.538-0.042-1.107-0.129-1.639c-0.207-1.321-0.669-2.611-1.353-3.761
			c-1.611-2.741-4.496-4.667-7.65-5.088c-0.349-0.057-0.739-0.076-1.092-0.095c-0.365-0.372-296.591,0.253-297.009-0.006
			c-0.663,0.016-1.346,0.086-1.995,0.226c-1.428,0.301-2.8,0.902-3.987,1.753c-1.386,0.992-2.53,2.327-3.295,3.851
			C119.504,73.748,119.112,75.394,119.114,77.038z"/>
	</g>
</g>
</svg>
